<svg width="48" height="48" viewBox="0 0 48 48" fill="none" xmlns="http://www.w3.org/2000/svg">
<rect width="48" height="48" rx="12" fill="#2B2D33"/>
<path fill-rule="evenodd" clip-rule="evenodd" d="M20.5 21.4C20.3 21.2 20 21 19.7 21C19.4 21 19.1 21.2 18.9 21.4L17 24.2L13.8 25.2C13.5 25.3 13.2 25.5 13.1 25.9C13 26.3 13.1 26.6 13.3 26.8L15.4 29.5L15.3 32.9C15.3 33.2 15.4 33.5 15.7 33.7C16 33.9 16.3 33.9 16.6 33.8L19.8 32.7L23 33.8C23.3 33.9 23.7 33.9 23.9 33.7C24.2 33.5 24.3 33.2 24.3 32.9L24.2 29.5L26.3 26.8C26.5 26.5 26.6 26.2 26.5 25.9C26.4 25.6 26.1 25.3 25.8 25.2L22.6 24.2L20.5 21.4ZM18.4 25.7L19.7 23.8L21 25.7C21.1 25.9 21.3 26 21.5 26.1L23.7 26.7L22.3 28.5C22.2 28.7 22.1 28.9 22.1 29.1L22.2 31.4L20 30.7C19.8 30.6 19.5 30.6 19.3 30.7L17.1 31.5L17.2 29.2C17.2 29 17.1 28.7 17 28.6L15.6 26.8L17.8 26.2C18.1 26 18.3 25.9 18.4 25.7Z" fill="#FEE600"/>
<path d="M31.7 27.5C31.7 26.8 32 26.4 32.7 26.1V26H29.7C29.2 26 28.7 25.6 28.7 25V21C28.7 20.4 29.2 20 29.7 20H32.7V19.9C32 19.7 31.7 19.3 31.7 18.5V17H15.7V23H13.7V16C13.7 15.4 14.2 15 14.7 15H32.7C33.3 15 33.7 15.4 33.7 16V20C34.3 20 34.7 20.4 34.7 21V25C34.7 25.6 34.3 26 33.7 26V30C33.7 30.6 33.3 31 32.7 31H26.7V29H31.7V27.5ZM30.7 24H32.7V22H30.7V24Z" fill="#FEE600"/>
</svg>
