<svg width="48" height="48" viewBox="0 0 48 48" fill="none" xmlns="http://www.w3.org/2000/svg">
<rect width="48" height="48" rx="12" fill="#2B2D33"/>
<path d="M21 28H19V30H21V28Z" fill="#FEE600"/>
<path d="M21 24H19V26H21V24Z" fill="#FEE600"/>
<path d="M25 28H23V30H25V28Z" fill="#FEE600"/>
<path d="M29 28H27V30H29V28Z" fill="#FEE600"/>
<path d="M32 16H28V15C28 14.44 27.55 14 27 14H21C20.44 14 20 14.45 20 15V16H16C15.44 16 15 16.45 15 17V33C15 33.55 15.44 34 16 34H32C32.55 34 33 33.55 33 33V17C33 16.45 32.55 16 32 16ZM22 18.11V16H26V18.11C26 19.18 26.53 19.75 27.41 19.88V20H20.59V19.88C21.47 19.75 22 19.18 22 18.11ZM31 32H17V18H20V19.5C20 19.77 19.79 20 19.5 20H19V22H29V20H28.5C28.21 20 28 19.77 28 19.5V18H31V32Z" fill="#FEE600"/>
<path d="M29 24H27V26H29V24Z" fill="#FEE600"/>
<path d="M25 24H23V26H25V24Z" fill="#FEE600"/>
</svg>
