<svg width="48" height="48" viewBox="0 0 48 48" fill="none" xmlns="http://www.w3.org/2000/svg">
<rect width="48" height="48" rx="12" fill="#2B2D33"/>
<path d="M24 28C26.35 28 28 25.62 28 23C28 20.41 26.37 18 24 18C21.65 18 20 20.38 20 23C20 25.59 21.63 28 24 28ZM24 20C25.19 20 26 21.56 26 23C26 24.41 25.21 26 24 26C22.81 26 22 24.44 22 23C22 21.59 22.79 20 24 20Z" fill="#FEE600"/>
<path d="M13 14V16H15C15.6 16 16 16.4 16 17V33C16 33.55 16.44 34 17 34H31C31.55 34 32 33.55 32 33V17C32 16.4 32.4 16 33 16H35V14H13ZM18 32V30C19.12 30 20 30.91 20 32H18ZM30 32H28C28 30.91 28.88 30 30 30V32ZM31.33 16.12C30.49 16.39 30 17.03 30 18V26.02C30 27.13 30.43 27.69 31.39 27.88V28H30C27.78 28 26 29.8 26 32H22C22 29.82 20.24 28 18 28H16.61V27.88C17.57 27.69 18 27.13 18 26.02V18C18 17.03 17.51 16.39 16.67 16.12V16H31.33V16.12Z" fill="#FEE600"/>
</svg>
