<svg width="48" height="48" viewBox="0 0 48 48" fill="none" xmlns="http://www.w3.org/2000/svg">
<rect width="48" height="48" rx="12" fill="#2B2D33"/>
<path d="M15 29V28.88C15.58 28.88 16 28.51 16 27.88V24.12C16 23.49 15.58 23.12 15 23.12V23H16.5C17.32 23 18 22.33 18 21.5V20H18.12C18.12 20.58 18.49 21 19.12 21H28.88C29.51 21 29.88 20.58 29.88 20H30V21.5C30 22.33 30.68 23 31.5 23H33V23.12C32.42 23.12 32 23.49 32 24.12V27.88C32 28.51 32.42 28.88 33 28.88V29H31.5C30.68 29 30 29.67 30 30.5V32H29.88C29.88 31.42 29.51 31 28.88 31H19.12C18.49 31 18.12 31.42 18.12 32H18V30.5C18 29.67 17.32 29 16.5 29H15ZM14 32C14 32.55 14.45 33 15 33H33C33.56 33 34 32.55 34 32V20C34 19.45 33.56 19 33 19H15C14.45 19 14 19.45 14 20V32ZM32 15H16V17H32V15Z" fill="#FEE600"/>
</svg>
