<svg width="48" height="48" viewBox="0 0 48 48" fill="none" xmlns="http://www.w3.org/2000/svg">
<rect width="48" height="48" rx="12" fill="#2B2D33"/>
<path d="M27 25H29V21.6H29.1C29.2 22.5 29.8 23 30.9 23H33V21H29V20H31C32.7 20 34 18.7 34 17C34 15.3 32.7 14 31 14H27V18H25V20H27V21H25V23H27V25ZM29 16H31C31.6 16 32 16.4 32 17C32 17.6 31.6 18 31 18H29V16Z" fill="#FEE600"/>
<path d="M17 26H19C19.5 26 20 26.5 20 27H22C22 25.3 20.7 24 19 24V22H17V22.5C17 23.4 17.5 23.9 18.3 23.9V24H17C15.3 24 14 25.3 14 27C14 28.7 15.3 30 17 30H19C19.5 30 20 30.5 20 31C20 31.6 19.5 32 19 32H17C16.5 32 16 31.6 16 31H14C14 32.7 15.3 34 17 34V36H19V35.5C19 34.6 18.5 34.1 17.7 34.1V34H19C20.7 34 22 32.7 22 31C22 29.3 20.7 28 19 28H17C16.5 28 16 27.6 16 27C16 26.5 16.5 26 17 26Z" fill="#FEE600"/>
<path d="M15 21H17C17 19.5 16.5 18.4 15 18.1V18H24V16H15V15.9C16.5 15.6 17 14.5 17 13H15C15 14.3 14.3 15.5 12.7 16C12.2 16.2 12 16.6 12 17C12 17.5 12.2 17.8 12.7 18C14.3 18.5 15 19.7 15 21Z" fill="#FEE600"/>
<path d="M35.3 30C33.7 29.4 33 28.3 33 27H31C31 28.5 31.5 29.6 33 29.9V30H24V32H33V32.1C31.5 32.4 31 33.5 31 35H33C33 33.7 33.7 32.5 35.3 32C35.8 31.8 36 31.5 36 31C36 30.5 35.8 30.2 35.3 30Z" fill="#FEE600"/>
</svg>
