<svg width="48" height="48" viewBox="0 0 48 48" fill="none" xmlns="http://www.w3.org/2000/svg">
<rect width="48" height="48" rx="12" fill="#2B2D33"/>
<path d="M21.49 23.02C22.3184 23.02 22.99 22.3484 22.99 21.52C22.99 20.6916 22.3184 20.02 21.49 20.02C20.6616 20.02 19.99 20.6916 19.99 21.52C19.99 22.3484 20.6616 23.02 21.49 23.02Z" fill="#FEE600"/>
<path d="M26.49 28.01C27.3184 28.01 27.99 27.3384 27.99 26.51C27.99 25.6816 27.3184 25.01 26.49 25.01C25.6616 25.01 24.99 25.6816 24.99 26.51C24.99 27.3384 25.6616 28.01 26.49 28.01Z" fill="#FEE600"/>
<path d="M26.5973 20.0179L19.9954 26.6104L21.3945 28.0115L27.9964 21.4189L26.5973 20.0179Z" fill="#FEE600"/>
<path d="M32.99 18H16.03V18.14C17.49 18.44 17.99 19.51 17.99 21H15.99C15.99 19.67 15.32 18.54 13.72 17.97C13.21 17.79 13 17.45 13 17C13 16.55 13.21 16.21 13.72 16.03C15.32 15.46 15.99 14.33 15.99 13H17.99C17.99 14.49 17.49 15.56 16.03 15.86V16H32.99V18Z" fill="#FEE600"/>
<path d="M14.99 30H31.95V29.86C30.49 29.56 29.99 28.49 29.99 27H31.99C31.99 28.33 32.66 29.46 34.26 30.03C34.77 30.21 34.98 30.55 34.98 31C34.98 31.45 34.77 31.79 34.26 31.97C32.66 32.54 31.99 33.67 31.99 35H29.99C29.99 33.51 30.49 32.44 31.95 32.14V32H14.99V30Z" fill="#FEE600"/>
</svg>
