<svg width="48" height="48" viewBox="0 0 48 48" fill="none" xmlns="http://www.w3.org/2000/svg">
<rect width="48" height="48" rx="12" fill="#2B2D33"/>
<path d="M16 28C17.1046 28 18 27.1046 18 26C18 24.8954 17.1046 24 16 24C14.8954 24 14 24.8954 14 26C14 27.1046 14.8954 28 16 28Z" fill="#FEE600"/>
<path d="M22 34C23.1046 34 24 33.1046 24 32C24 30.8954 23.1046 30 22 30C20.8954 30 20 30.8954 20 32C20 33.1046 20.8954 34 22 34Z" fill="#FEE600"/>
<path d="M22.6055 24.0211L14.0023 32.6146L15.4016 34.0154L24.0048 25.4219L22.6055 24.0211Z" fill="#FEE600"/>
<path d="M34.02 20C34.02 19.56 33.82 19.27 33.41 19.05C30.31 17.39 28.02 15.98 28.02 13H26.02C26.02 16.1 27.76 18.21 30.45 18.89V19H14.02V21H30.45V21.11C27.76 21.79 26.02 23.9 26.02 27H28.02C28.02 24.02 30.31 22.62 33.41 20.95C33.82 20.73 34.02 20.44 34.02 20Z" fill="#FEE600"/>
</svg>
