<svg width="48" height="48" viewBox="0 0 48 48" fill="none" xmlns="http://www.w3.org/2000/svg">
<rect width="48" height="48" rx="12" fill="#2B2D33"/>
<path d="M34.08 25V25.12C33.19 25.34 32.89 25.64 32.58 26.56C31.94 28.47 30.58 30.13 28.64 31.2L28.89 31.42C30.02 29.92 30.66 28.05 30.89 25.98C30.97 25.27 31.3 25 32.07 25H34.08ZM30.09 25V25.12C29.18 25.3 28.93 25.61 28.79 26.52C28.48 28.55 27.52 30.87 26 31.72V25H30.09ZM34.08 23H32.07C31.3 23 30.97 22.73 30.89 22.02C30.66 19.95 30.02 18.08 28.89 16.58L28.64 16.8C30.58 17.87 31.94 19.53 32.58 21.44C32.89 22.36 33.19 22.66 34.08 22.88V23ZM30.09 23H26V16.28C27.52 17.13 28.48 19.45 28.79 21.48C28.93 22.39 29.18 22.7 30.09 22.88V23ZM15.92 23V22.88C16.81 22.66 17.11 22.36 17.42 21.44C18.06 19.53 19.42 17.87 21.36 16.8L21.11 16.58C19.98 18.08 19.35 19.95 19.11 22.02C19.03 22.73 18.7 23 17.93 23H15.92ZM19.91 23V22.88C20.82 22.7 21.07 22.39 21.21 21.48C21.55 19.45 22.48 17.13 24 16.28V23H19.91ZM25 34C30.52 34 35 29.53 35 24C35 18.48 30.52 14 25 14C19.48 14 15 18.48 15 24C15 24.62 15.42 25 16 25H24V33C24 33.6 24.38 34 25 34Z" fill="#FEE600"/>
<path d="M13 30V32H18.96V32.14C17.5 32.44 17 33.41 17 35H18.99C19 33.67 19.68 32.55 21.28 31.97C21.79 31.79 22 31.45 22 31C22 30.55 21.79 30.21 21.28 30.03C19.68 29.45 19 28.33 18.99 27H17C17 28.59 17.5 29.56 18.96 29.86V30H13Z" fill="#FEE600"/>
</svg>
