<svg width="48" height="48" viewBox="0 0 48 48" fill="none" xmlns="http://www.w3.org/2000/svg">
<rect width="48" height="48" rx="12" fill="#2B2D33"/>
<path d="M26.6 31C23.759 31 21.355 29.382 20.246 27H26.1L27.2 25H19.658C19.613 24.674 19.59 24.34 19.59 24C19.59 23.66 19.613 23.326 19.658 23H28.11L29.21 21H20.246C21.355 18.618 23.759 17 26.6 17C28.56 17 30.32 17.76 31.58 19.03L33 17.61C31.38 15.98 29.12 15 26.6 15C22.915 15 19.801 17.118 18.394 20.226C17.968 20.857 17.594 21 16.65 21H15V23H15.42C16.598 23 17.241 22.818 17.662 22.14H17.776C17.654 22.739 17.59 23.361 17.59 24C17.59 24.089 17.591 24.177 17.594 24.265C17.39 24.816 17.041 25 16.15 25H15V27H16.02C16.889 27 17.535 26.675 17.678 25.94H17.792C18.661 30.02 22.227 33 26.6 33C29.12 33 31.38 32.02 33 30.39L31.58 28.97C30.31 30.24 28.56 31 26.6 31Z" fill="#FEE600"/>
</svg>
