<svg width="48" height="48" viewBox="0 0 48 48" fill="none" xmlns="http://www.w3.org/2000/svg">
<rect width="48" height="48" rx="12" fill="#2B2D33"/>
<path d="M31 15V13H29V13.52C29 14.45 29.53 14.88 30.3 14.88V15H29C27.34 15 26 16.34 26 18C26 19.66 27.34 21 29 21H31C31.55 21 32 21.45 32 22C32 22.55 31.55 23 31 23H29C28.45 23 28 22.55 28 22H26C26 23.66 27.34 25 29 25V27H31V26.48C31 25.55 30.47 25.12 29.7 25.12V25H31C32.66 25 34 23.66 34 22C34 20.34 32.66 19 31 19H29C28.45 19 28 18.55 28 18C28 17.45 28.45 17 29 17H31C31.55 17 32 17.45 32 18H34C34 16.34 32.66 15 31 15ZM17.27 22.93C17.73 21.23 18.73 19.73 20.13 18.65C21.53 17.57 23.24 17 25 17V15C22.8 15 20.66 15.73 18.91 17.07C17.16 18.41 15.91 20.29 15.34 22.41L17.27 22.93ZM25 35C27.2 35 29.34 34.27 31.09 32.93C32.83 31.59 34.09 29.71 34.66 27.59L32.73 27.07C32.27 28.77 31.27 30.27 29.87 31.35C28.47 32.43 26.76 33 25 33V35ZM13 30H16.76L17.03 28.57H17.15C17.2 29.55 17.69 30 18.6 30H20L21 28H14L13 30ZM24.38 31.01H22.12C21.67 31.63 20.91 32.01 20 32.01C18.34 32.01 17 30.72 17 29.01C17 28.86 17.01 28.71 17.03 28.57C17.24 27.08 18.49 26.01 20 26.01C20.93 26.01 21.71 26.41 22.16 27.01H24.4C23.83 25.25 22.07 24.01 20 24.01C17.23 24.01 15 26.24 15 29.01C15 31.78 17.23 34.01 20 34.01C22.05 34.01 23.8 32.79 24.38 31.01Z" fill="#FEE600"/>
</svg>
