<svg width="48" height="48" viewBox="0 0 48 48" fill="none" xmlns="http://www.w3.org/2000/svg">
<rect width="48" height="48" rx="12" fill="#2B2D33"/>
<path d="M31.7 19C33.4 19 34.7 17.7 34.7 16C34.7 14.3 33.4 13 31.7 13H26.7V17H24.7V19H26.7V20H24.7V22H26.7V24H28.7V20.6H28.8C28.9 21.5 29.5 22 30.5 22H32.6V20H28.6V19H31.7ZM28.7 15H31.7C32.3 15 32.7 15.4 32.7 16C32.7 16.6 32.3 17 31.7 17H28.7V15Z" fill="#FEE600"/>
<path d="M17.8 16.7C19.2 15.6 20.9 15 22.7 15V13C20.5 13 18.3 13.7 16.6 15.1C14.9 16.5 13.6 18.3 13 20.4L14.9 20.9C15.4 19.2 16.4 17.7 17.8 16.7Z" fill="#FEE600"/>
<path d="M16.7 25H18.7C19.2 25 19.7 25.5 19.7 26H21.7C21.7 24.3 20.4 23 18.7 23V21H16.7V21.5C16.7 22.4 17.2 22.9 18 22.9V23H16.7C15 23 13.7 24.3 13.7 26C13.7 27.7 15 29 16.7 29H18.7C19.2 29 19.7 29.5 19.7 30C19.7 30.6 19.2 31 18.7 31H16.7C16.2 31 15.7 30.6 15.7 30H13.7C13.7 31.7 15 33 16.7 33V35H18.7V34.5C18.7 33.6 18.2 33.1 17.4 33.1V33H18.7C20.4 33 21.7 31.7 21.7 30C21.7 28.3 20.4 27 18.7 27H16.7C16.2 27 15.7 26.6 15.7 26C15.7 25.5 16.1 25 16.7 25Z" fill="#FEE600"/>
<path d="M27.5 29.4C26.1 30.5 24.4 31 22.6 31V33C24.8 33 26.9 32.3 28.7 30.9C30.4 29.6 31.7 27.7 32.3 25.6L30.4 25.1C29.9 26.8 28.9 28.3 27.5 29.4Z" fill="#FEE600"/>
</svg>
