<svg width="48" height="48" viewBox="0 0 48 48" fill="none" xmlns="http://www.w3.org/2000/svg">
<rect width="48" height="48" rx="12" fill="#2B2D33"/>
<g clip-path="url(#clip0_386_18688)">
<path d="M21 23.01V21.01H19V21.53C19 22.46 19.53 22.89 20.3 22.89V23.01H19C17.34 23.01 16 24.35 16 26.01C16 27.67 17.34 29.01 19 29.01H21C21.55 29.01 22 29.46 22 30.01C22 30.56 21.55 31.01 21 31.01H19C18.45 31.01 18 30.56 18 30.01H16C16 31.67 17.34 33.01 19 33.01V35.01H21V34.49C21 33.56 20.47 33.13 19.7 33.13V33.01H21C22.66 33.01 24 31.67 24 30.01C24 28.35 22.66 27.01 21 27.01H19C18.45 27.01 18 26.56 18 26.01C18 25.46 18.45 25.01 19 25.01H21C21.55 25.01 22 25.46 22 26.01H24C24 24.35 22.66 23.01 21 23.01ZM28.88 25H26V27H33C33.56 27 34 26.59 34 26V14C34 13.45 33.56 13 33 13H15C14.45 13 14 13.45 14 14V23H16V18.12C16 17.49 15.58 17.12 15 17.12V17H16.5C17.32 17 18 16.33 18 15.5V14H18.12C18.12 14.58 18.49 15 19.12 15H28.88C29.51 15 29.88 14.58 29.88 14H30V15.5C30 16.33 30.68 17 31.5 17H33V17.12C32.42 17.12 32 17.49 32 18.12V21.88C32 22.51 32.42 22.88 33 22.88V23H31.5C30.68 23 30 23.67 30 24.5V26H29.88C29.88 25.42 29.51 25 28.88 25Z" fill="#FEE600"/>
</g>
<defs>
<clipPath id="clip0_386_18688">
<rect width="20" height="22.01" fill="white" transform="translate(14 13)"/>
</clipPath>
</defs>
</svg>
