<svg width="48" height="48" viewBox="0 0 48 48" fill="none" xmlns="http://www.w3.org/2000/svg">
<rect width="48" height="48" rx="12" fill="#2B2D33"/>
<path d="M26 18H22V22H20V24H22V25H20V27H22V30H24V25.6H24.1C24.2 26.5 24.8 27 25.9 27H28V25H24V24H26C27.7 24 29 22.7 29 21C29 19.3 27.7 18 26 18ZM26 22H24V20H26C26.6 20 27 20.4 27 21C27 21.6 26.6 22 26 22Z" fill="#FEE600"/>
<path d="M24 12C17.4 12 12 17.4 12 24C12 30.6 17.4 36 24 36C30.6 36 36 30.6 36 24C36 17.4 30.6 12 24 12ZM32.6 31L29.4 28L28 29.4L30.3 31.7C28.6 33.2 26.4 34 24 34C18.5 34 14 29.5 14 24C14 22.2 14.5 20.4 15.4 19C15.8 18.3 15.9 17.6 15.4 17L15.5 16.9L18.6 20L20 18.6L17.7 16.3C19.4 14.9 21.6 14 24 14C29.5 14 34 18.5 34 24C34 25.8 33.5 27.6 32.6 29C32.2 29.8 32.2 30.4 32.6 31Z" fill="#FEE600"/>
</svg>
