<svg width="48" height="48" viewBox="0 0 48 48" fill="none" xmlns="http://www.w3.org/2000/svg">
<rect width="48" height="48" rx="12" fill="#2B2D33"/>
<path d="M32 17V15H17V17H24C25.34 17 26.43 17.82 26.83 19H17V21H24.84C26.17 21 26.69 20.32 26.86 19.6H26.96C26.98 19.73 27 19.86 27 20C27 21.7 25.7 23 24 23H18C17.03 23 16.69 24.19 17.4 24.82L27.3 33.7L28.6 32.2L22.11 26.36C21.38 25.7 20.81 25.35 19.23 25.12V25H24C26.49 25 28.46 23.32 28.9 21H32V19H28.9C28.76 18.25 28.44 17.58 28.02 17H32Z" fill="#FEE600"/>
</svg>
