<svg width="48" height="48" viewBox="0 0 48 48" fill="none" xmlns="http://www.w3.org/2000/svg">
<rect width="48" height="48" rx="12" fill="#2B2D33"/>
<path d="M25.96 21.12V21H30V19H25.66V18.88C26.74 18.75 27.14 18.42 27.68 17.51L28.82 15.61C29.28 14.85 28.94 14 28 14H20C19.17 14 18.72 14.84 19.21 15.65L21.76 19.93L17.43 25.51C16.4 26.83 16 27.9 16 29.04C16 31.83 18.16 34 20.95 34H27.05C29.83 34 32 31.83 32 29.04C32 27.91 31.61 26.85 30.65 25.61L28.12 22.35C27.54 21.61 27.1 21.25 25.96 21.12ZM26.26 16L24.46 19H23.54L21.74 16H26.26ZM19 26.73L23.46 21H24.53L29.07 26.83C29.76 27.71 30 28.35 30 29.04C30 30.73 28.73 32 27.05 32H20.95C19.26 32 18 30.73 18 29.04C18 28.34 18.24 27.71 19 26.73Z" fill="#FEE600"/>
</svg>
