<svg width="48" height="48" viewBox="0 0 48 48" fill="none" xmlns="http://www.w3.org/2000/svg">
<rect width="48" height="48" rx="12" fill="#2B2D33"/>
<path d="M26.5 28C27.3 28 28 27.3 28 26.5C28 25.7 27.3 25 26.5 25C25.7 25 25 25.7 25 26.5C25 27.3 25.7 28 26.5 28ZM31.5 33C32.3 33 33 32.3 33 31.5C33 30.7 32.3 30 31.5 30C30.7 30 30 30.7 30 31.5C30 32.3 30.7 33 31.5 33ZM26.4 33L33 26.4L31.6 25L25 31.6L26.4 33Z" fill="#FEE600"/>
<path d="M17 29.4V23.4L24 16.4L31 23.4L32.4 22L24.7 14.3C24.3 13.9 23.7 13.9 23.3 14.3L15.6 22C15.2 22.4 15 22.8 15 23.4V32C15 32.6 15.5 33 16 33H23V31H15.7V30.9C16.5 30.8 17 30.1 17 29.4Z" fill="#FEE600"/>
</svg>
