<svg width="48" height="48" viewBox="0 0 48 48" fill="none" xmlns="http://www.w3.org/2000/svg">
<rect width="48" height="48" rx="12" fill="#2B2D33"/>
<path d="M32 24H34C34 18.5 29.5 14 24 14V16C28.5 16 32 19.6 32 24Z" fill="#FEE600"/>
<path d="M33.3 28C31.7 27.4 31 26.3 31 25H29C29 26.6 29.5 27.6 31 27.9V28H24V30H31V30.1C29.5 30.4 29 31.4 29 33H31C31 31.7 31.7 30.6 33.3 30C33.8 29.8 34 29.5 34 29C34 28.6 33.8 28.2 33.3 28Z" fill="#FEE600"/>
<path d="M18 28V23.6H18.1C18.2 24.5 18.8 25 19.9 25H22V23H18V22H21C22.7 22 24 20.7 24 19C24 17.3 22.7 16 21 16H16V20H14V22H16V23H14V25H16V28H18ZM18 18H21C21.6 18 22 18.4 22 19C22 19.6 21.6 20 21 20H18V18Z" fill="#FEE600"/>
<path d="M16.9 31.1C18.7 32.9 21.2 34 24 34V32C21.8 32 19.8 31.1 18.3 29.7L16.9 31.1Z" fill="#FEE600"/>
</svg>
