<svg width="48" height="48" viewBox="0 0 48 48" fill="none" xmlns="http://www.w3.org/2000/svg">
<rect width="48" height="48" rx="12" fill="#2B2D33"/>
<path d="M20 14H16V18H14V20H16V21H14V23H16V26H18V21.6H18.1C18.2 22.5 18.8 23 19.9 23H22V21H18V20H20C21.7 20 23 18.7 23 17C23 15.3 21.7 14 20 14ZM20 18H18V16H20C20.6 16 21 16.4 21 17C21 17.6 20.6 18 20 18Z" fill="#FEE600"/>
<path d="M25.4 25.4L32.2 18.6L32.3 18.7C31.5 19.9 31.8 20.9 33 22L34.4 20.6C33.5 19.7 33.2 18.4 33.9 16.8C34.1 16.4 34 16 33.7 15.7C33.4 15.4 33 15.3 32.5 15.5C31 16.2 29.7 15.9 28.7 15L27.3 16.4C28.4 17.5 29.5 17.9 30.7 17L30.8 17.1L24 23.9L25.4 25.4Z" fill="#FEE600"/>
<path d="M32.6 24L25.8 30.8L25.7 30.7C26.5 29.5 26.2 28.4 25.1 27.3L23.7 28.7C24.6 29.6 24.9 30.9 24.2 32.5C24 33 24.1 33.4 24.4 33.7C24.7 34 25.1 34.1 25.6 33.9C27.1 33.2 28.4 33.5 29.4 34.4L30.8 33C29.7 31.9 28.6 31.5 27.4 32.4L27.3 32.3L34.1 25.5L32.6 24Z" fill="#FEE600"/>
</svg>
