<svg width="48" height="48" viewBox="0 0 48 48" fill="none" xmlns="http://www.w3.org/2000/svg">
<rect width="48" height="48" rx="12" fill="#2B2D33"/>
<path d="M16 27C17.07 27 18 26.07 18 25C18 23.93 17.07 23 16 23C14.94 23 14 23.93 14 25C14 26.07 14.94 27 16 27ZM22 33C23.07 33 24 32.07 24 31C24 29.93 23.07 29 22 29C20.94 29 20 29.93 20 31C20 32.07 20.94 33 22 33ZM15.4 33.01L24 24.42L22.6 23.02L14 31.61L15.4 33.01ZM26 25V23H30V25H26ZM20 21H30V19H20V21ZM33 29H26V31H33C33.55 31 34 30.56 34 30V16C34 15.45 33.55 15 33 15H15C14.45 15 14 15.45 14 16V21H16V18.48C16 17.74 15.73 17.34 15 17.12V17H32V27.52C32 28.26 32.27 28.66 33 28.88V29Z" fill="#FEE600"/>
</svg>
