<svg width="48" height="48" viewBox="0 0 48 48" fill="none" xmlns="http://www.w3.org/2000/svg">
<rect width="48" height="48" rx="12" fill="#2B2D33"/>
<path d="M20.01 27H16V25H32V27H22C20.85 27 20 27.86 20 29C20 30.15 20.85 31 22 31H26C27.15 31 28 30.15 28 29H30C30 31.25 28.25 33 26 33H22C19.75 33 18 31.25 18 29C18 27.92 18.58 27.25 20.01 27.12V27ZM27.99 20.88V21H32V23H16V21H26C27.15 21 28 20.1 28 19C28 17.85 27.15 17 26 17H22C20.85 17 20 17.85 20 19H18C18 16.75 19.75 15 22 15H26C28.25 15 30 16.75 30 19C30 20.08 29.42 20.75 27.99 20.88Z" fill="#FEE600"/>
</svg>
