<svg width="48" height="48" viewBox="0 0 48 48" fill="none" xmlns="http://www.w3.org/2000/svg">
<rect width="48" height="48" rx="12" fill="#2B2D33"/>
<path d="M33.33 22.12C32.48 22.38 32 23.03 32 24V29C32 29.55 31.55 30 31 30H16V32H31C32.66 32 34 30.66 34 29V19C34 17.34 32.66 16 31 16H16V18H31C31.55 18 32 18.45 32 19V20H24V22H33.33V22.12Z" fill="white"/>
<path d="M14 23.01H18.96V22.87C17.5 22.57 17 21.6 17 20.01H18.99C19 21.34 19.68 22.46 21.28 23.04C21.79 23.22 22 23.56 22 24.01C22 24.46 21.79 24.8 21.28 24.98C19.68 25.56 19 26.68 18.99 28.01H17C17 26.42 17.5 25.45 18.96 25.15V25.01H14V23.01Z" fill="white"/>
</svg>
