<svg width="48" height="48" viewBox="0 0 48 48" fill="none" xmlns="http://www.w3.org/2000/svg">
<rect width="48" height="48" rx="12" fill="#2B2D33"/>
<path d="M14.67 23H25V21H16V20C16 19.45 16.44 19 17 19H25V17H17C15.34 17 14 18.34 14 20V30C14 31.66 15.34 33 17 33H31C32.65 33 34 31.66 34 30V26H32V30C32 30.55 31.55 31 31 31H17C16.44 31 16 30.55 16 30V25C16 24.03 15.52 23.38 14.67 23.12V23ZM32 16H30V18.28L27.99 17.13L27 18.87L28.98 20L27 21.13L27.99 22.87L30 21.72V24H32V21.72L34 22.87L34.99 21.13L33.01 20L34.99 18.87L34 17.13L32 18.28V16Z" fill="white"/>
</svg>
