<svg width="48" height="48" viewBox="0 0 48 48" fill="none" xmlns="http://www.w3.org/2000/svg">
<rect width="48" height="48" rx="12" fill="#2B2D33"/>
<path d="M31.01 14V20.96H31.15C31.45 19.5 32.42 19 34.01 19V20.99C32.68 21 31.56 21.68 30.98 23.28C30.8 23.79 30.46 24 30.01 24C29.56 24 29.22 23.79 29.04 23.28C28.46 21.68 27.34 21 26.01 20.99V19C27.6 19 28.57 19.5 28.87 20.96H29.01V14H31.01Z" fill="white"/>
<path d="M34 25H32V31.01C32 31.56 31.55 32 31 32H17C16.45 32 16 31.55 16 31V25.99C16 25.02 15.51 24.38 14.66 24.12V23.99H23.99V21.99H16V21C16 20.45 16.45 20 17 20H23.99V18H17C15.34 18 14 19.34 14 21V31C14 32.66 15.34 34 17 34H31C32.66 34 34 32.67 34 31.01V25Z" fill="white"/>
</svg>
