<svg width="48" height="48" viewBox="0 0 48 48" fill="none" xmlns="http://www.w3.org/2000/svg">
<rect width="48" height="48" rx="12" fill="#2B2D33"/>
<path d="M29.56 20.88V21H23.12C21.19 21 20.65 23.06 22.16 24.23L24.73 26.23C25.69 26.98 25.03 27.93 24.04 27.42L18.19 24.38C16.52 23.52 16 22.49 16 19.99H14C14 23.21 14.89 24.92 17.27 26.16L23.12 29.19C26.37 30.87 28.94 26.96 25.95 24.65L23.81 23H32.01V25H29.01V27H33.34V27.12C32.5 27.39 32.01 28.03 32.01 29V31H19.01V29H17.01V31C17.01 32.1 17.9 33 19.01 33H32.01C33.11 33 34.01 32.1 34.01 31V23C34.01 21.9 33.11 21 32.01 21H30.54L27.43 16.34C26.84 15.46 25.99 15 24.88 15H14.01V17H24.88C25.29 17 25.58 17.16 25.77 17.45L26.96 19.23C27.6 20.19 28.09 20.63 29.56 20.88Z" fill="white"/>
</svg>
