<svg width="48" height="48" viewBox="0 0 48 48" fill="none" xmlns="http://www.w3.org/2000/svg">
<rect width="48" height="48" rx="12" fill="#2B2D33"/>
<path d="M15.76 24.35L21 30.47H21.17C20.55 29.65 20 28.36 20 26.8V24H22V32.1C22 32.97 20.8 33.3 20.24 32.65L15 26.53H14.83C15.45 27.35 16 28.64 16 30.2V33H14V25C14 24.01 15.17 23.67 15.76 24.35ZM30 33H24V31H30V33ZM26 27C26 26.45 26.45 26 27 26C27.55 26 28 26.45 28 27C28 27.55 27.55 28 27 28C26.45 28 26 27.55 26 27ZM27 24C25.34 24 24 25.34 24 27C24 28.66 25.34 30 27 30C28.66 30 30 28.66 30 27C30 25.34 28.66 24 27 24ZM16 19H32V18C32 17.45 31.55 17 31 17H17C16.45 17 16 17.45 16 18V19ZM33.33 21H16V22H14V18C14 16.34 15.34 15 17 15H31C32.66 15 34 16.34 34 18V31H32V23C32 22.03 32.48 21.38 33.33 21.12V21Z" fill="white"/>
</svg>
