<svg width="48" height="48" viewBox="0 0 48 48" fill="none" xmlns="http://www.w3.org/2000/svg">
<rect width="48" height="48" rx="12" fill="#2B2D33"/>
<path d="M16 24V29C16 29.55 16.45 30 17 30H31C31.55 30 32 29.55 32 29V24C32 23.03 32.48 22.38 33.33 22.12V22H30V20H32V19C32 18.45 31.55 18 31 18H17C16.45 18 16 18.45 16 19V20H18V22H14.67V22.12C15.52 22.38 16 23.03 16 24ZM14 19C14 17.35 15.34 16 17 16H31C32.66 16 34 17.35 34 19V29C34 30.66 32.66 32 31 32H17C15.34 32 14 30.66 14 29V19ZM21.02 28.43L24 25.42L26.98 28.43L28.17 27.24L25.18 24.23L25.81 23.6V22.36L26.24 21.92V23.01L26.61 23.39L28.13 21.86L28.5 22.24C28.7 22.45 28.44 21.13 27.75 20.44C27.01 19.7 26.19 20.04 25.92 20.32L24.41 21.85L24.79 22.24L24 23.04L23.21 22.24L23.59 21.85L22.08 20.32C21.81 20.04 21 19.72 20.25 20.44C19.55 21.12 19.3 22.45 19.5 22.24L19.87 21.86L21.39 23.39L21.76 23.01V21.92L22.19 22.36V23.6L22.82 24.23L19.83 27.24L21.02 28.43Z" fill="white"/>
</svg>
