<svg width="48" height="48" viewBox="0 0 48 48" fill="none" xmlns="http://www.w3.org/2000/svg">
<rect width="48" height="48" rx="12" fill="#2B2D33"/>
<path d="M16 20V19C16 18.45 16.45 18 17 18H31C31.55 18 32 18.45 32 19V20H16ZM17 30C16.45 30 16 29.55 16 29V24C16 23.03 15.51 22.39 14.67 22.12V22H33.33V22.12C32.49 22.39 32 23.03 32 24V29C32 29.55 31.55 30 31 30H17ZM18 26H22V24H18V26ZM17 32H31C32.66 32 34 30.66 34 29V19C34 17.34 32.66 16 31 16H17C15.34 16 14 17.34 14 19V29C14 30.66 15.34 32 17 32Z" fill="white"/>
</svg>
