<svg width="48" height="48" viewBox="0 0 48 48" fill="none" xmlns="http://www.w3.org/2000/svg">
<rect width="48" height="48" rx="12" fill="#2B2D33"/>
<path d="M16 18V17C16 16.44 16.45 16 17 16H31C31.55 16 32 16.44 32 17V18H16ZM18.6 34.71C20.08 33.26 21 31.23 21 29C21 26.76 20.08 24.73 18.6 23.28L17.2 24.71C18.31 25.8 19 27.32 19 29C19 30.67 18.31 32.19 17.2 33.28L18.6 34.71ZM15.67 31.98C16.48 31.25 17 30.18 17 29C17 27.81 16.48 26.75 15.67 26.01L14.33 27.5C14.74 27.87 15 28.4 15 29C15 29.59 14.74 30.12 14.33 30.49L15.67 31.98ZM23 30H31C32.66 30 34 28.65 34 27V17C34 15.34 32.66 14 31 14H17C15.34 14 14 15.34 14 17V23H16V22.01C16 21.04 15.52 20.39 14.67 20.13V20H33.33V20.13C32.48 20.39 32 21.03 32 22V27C32 27.55 31.55 28 31 28H23V30Z" fill="white"/>
</svg>
