<svg width="48" height="48" viewBox="0 0 48 48" fill="none" xmlns="http://www.w3.org/2000/svg">
<rect width="48" height="48" rx="12" fill="#FEE600"/>
<path fill-rule="evenodd" clip-rule="evenodd" d="M20.5 15.3C19.8 14.2 18.3 14 17.3 14.9L14.8 17.4C14.3 18 13.9 18.7 14 19.6C14.2 21.4 15 25.4 18.7 29C22.3 32.6 26.3 33.4 28 33.7C28.9 33.8 29.7 33.5 30.2 32.9L32.7 30.4C33.6 29.5 33.4 27.9 32.3 27.3L29.1 25.4C28.3 24.9 27.3 25.1 26.7 25.7L25.7 26.7C25.3 26.5 24.4 26 23.1 24.7C21.8 23.2 21.3 22.4 21.1 22L22.1 21C22.7 20.4 22.9 19.3 22.4 18.6L20.5 15.3ZM16.2 18.8L18.7 16.3L20.6 19.5L19.5 20.7C19.2 21 18.8 21.7 19.1 22.4C19.3 23.1 20 24.2 21.7 26C23.4 27.7 24.6 28.4 25.3 28.6C26 28.8 26.6 28.5 27 28.2L28.2 27L31.4 28.9L28.9 31.4C28.7 31.6 28.5 31.7 28.3 31.6C26.8 31.4 23.3 30.7 20.1 27.5C16.9 24.4 16.2 20.9 16 19.4C16 19.2 16 19 16.2 18.8Z" fill="#2B2D33"/>
<path d="M33.7 15.4L29.2 19.9L29.3 20C30.5 19.2 31.7 19.6 32.7 20.6L31.3 22C30.4 21.1 29.1 20.7 27.6 21.5C27.1 21.7 26.7 21.6 26.4 21.3C26 21 25.9 20.6 26.1 20.2C26.8 18.7 26.5 17.4 25.6 16.5L27 15C28.1 16.1 28.5 17.2 27.6 18.4L27.7 18.5L32.3 14L33.7 15.4Z" fill="#2B2D33"/>
</svg>
