<svg width="48" height="48" viewBox="0 0 48 48" fill="none" xmlns="http://www.w3.org/2000/svg">
<rect width="48" height="48" rx="12" fill="#FEE600"/>
<path d="M24 20C21.2 20 19 22.2 19 25C19 27.8 21.2 30 24 30C26.8 30 29 27.8 29 25C29 22.2 26.8 20 24 20ZM24 28C22.3 28 21 26.7 21 25C21 23.3 22.3 22 24 22C25.7 22 27 23.3 27 25C27 26.7 25.7 28 24 28Z" fill="#2B2D33"/>
<path d="M33 18H29.4L27.7 16.3C27.5 16.1 27.3 16 27 16H21C20.7 16 20.5 16.1 20.3 16.3L18.6 18H18V16H16V16.9C16 17.5 16.4 17.9 17 17.9V18H15C14.4 18 14 18.4 14 19V32C14 32.6 14.4 33 15 33H33C33.5 33 34 32.6 34 32V19C34 18.4 33.5 18 33 18ZM32 31H16V20H19C19.3 20 19.5 19.9 19.7 19.7L21.4 18H26.6L28.3 19.7C28.5 19.9 28.7 20 29 20H32V31Z" fill="#2B2D33"/>
</svg>
