<svg width="48" height="48" viewBox="0 0 48 48" fill="none" xmlns="http://www.w3.org/2000/svg">
<rect width="48" height="48" rx="12" fill="#FEE600"/>
<path d="M21 20H23C23 19.4 23.4 19 24 19C24.6 19 25 19.4 25 20C25 20.3 24.9 20.5 24.7 20.7L24.1 21.3C23.2 22.2 23 22.6 23 24V24.5H25V24C25 23.3 25.1 23.1 25.6 22.7L26.2 22.1C26.7 21.6 27 20.8 27 20C27 18.3 25.7 17 24 17C22.3 17 21 18.3 21 20ZM24 28.5C24.8 28.5 25.5 27.8 25.5 27C25.5 26.2 24.8 25.5 24 25.5C23.2 25.5 22.5 26.2 22.5 27C22.5 27.8 23.2 28.5 24 28.5ZM16 30V16H32V30H24C23.8 30 23.6 30.1 23.4 30.2L21 32V31C21 30.5 20.6 30 20 30H16ZM15 14C14.4 14 14 14.4 14 15V31C14 31.5 14.4 32 15 32H17.9C18.5 32 18.9 31.6 18.9 31H19V34C19 35 19.9 35.3 20.7 34.7L24.3 32H33C33.5 32 34 31.5 34 31V15C34 14.4 33.5 14 33 14H15Z" fill="#2B2D33"/>
</svg>
