<svg width="48" height="48" viewBox="0 0 48 48" fill="none" xmlns="http://www.w3.org/2000/svg">
<rect width="48" height="48" rx="12" fill="#FEE600"/>
<path fill-rule="evenodd" clip-rule="evenodd" d="M29.82 18.198C29.0412 16.3593 27.9004 14.6901 26.4637 13.285L25.0653 14.7149C26.3142 15.9363 27.3037 17.3851 27.9784 18.978C28.653 20.5709 29 22.2773 29 24C29 25.7227 28.653 27.4291 27.9784 29.0219C27.3037 30.6148 26.3142 32.0636 25.0653 33.285L26.4637 34.7149C27.9004 33.3099 29.0412 31.6407 29.82 29.8019C30.5988 27.9632 31 25.9916 31 24C31 22.0083 30.5988 20.0368 29.82 18.198ZM26.0029 19.7443C25.4317 18.3958 24.5952 17.172 23.5422 16.1422L22.1438 17.5721C23.0091 18.4183 23.6942 19.4216 24.1613 20.5243C24.6283 21.6269 24.8683 22.8079 24.8683 24C24.8683 25.1921 24.6283 26.373 24.1613 27.4757C23.6942 28.5783 23.0091 29.5817 22.1438 30.4279L23.5422 31.8578C24.5952 30.8279 25.4317 29.6041 26.0029 28.2557C26.574 26.9071 26.8683 25.461 26.8683 24C26.8683 22.539 26.574 21.0928 26.0029 19.7443ZM22.1857 21.2906C21.8222 20.4323 21.29 19.6539 20.6207 18.9993L19.2223 20.4292C19.7039 20.9002 20.0847 21.4581 20.3441 22.0706C20.6035 22.683 20.7367 23.3385 20.7367 24C20.7367 24.6615 20.6035 25.317 20.3441 25.9294C20.0847 26.5418 19.7039 27.0998 19.2223 27.5707L20.6207 29.0006C21.29 28.346 21.8222 27.5676 22.1857 26.7094C22.5493 25.8511 22.7367 24.9304 22.7367 24C22.7367 23.0696 22.5493 22.1489 22.1857 21.2906ZM18.3686 22.8368C18.2127 22.4688 17.9849 22.1359 17.6992 21.8565L15.5781 24L17.6992 26.1435C17.9849 25.8641 18.2127 25.5311 18.3686 25.1631C18.5245 24.795 18.605 24.3997 18.605 24C18.605 23.6002 18.5245 23.2049 18.3686 22.8368Z" fill="#2B2D33"/>
</svg>
