<svg width="48" height="48" viewBox="0 0 48 48" fill="none" xmlns="http://www.w3.org/2000/svg">
<rect width="48" height="48" rx="12" fill="#FEE600"/>
<path d="M26.9 26.7H26.8C26.4 28 25.2 29 23.5 29C20.9 29 19 26.6 19 24C19 21.4 20.9 19 23.5 19C24.8 19 25.6 19.7 25.9 21.2H26V19H28V24C28 26.1 28.9 27 30 27C31.5 27 32 26.1 32 24C32 19.6 28.4 16 24 16C19.6 16 16 19.6 16 24C16 28.4 19.6 32 24 32H28V34H24C18.5 34 14 29.5 14 24C14 18.5 18.5 14 24 14C29.5 14 34 18.5 34 24C34 27.2 32.6 29 30 29C28.5 29 27.1 28 26.9 26.7ZM26 24C26 22.2 24.8 21 23.5 21C22.2 21 21 22.2 21 24C21 25.8 22.2 27 23.5 27C24.8 27 26 25.8 26 24Z" fill="#2B2D33"/>
</svg>
