<svg width="48" height="48" viewBox="0 0 48 48" fill="none" xmlns="http://www.w3.org/2000/svg">
<rect width="48" height="48" rx="12" fill="#FEE600"/>
<path d="M30.6 25.6C32.1 24.2 33 22.2 33 20C33 17.8 32.1 15.8 30.7 14.4L29.3 15.8C30.3 16.9 31 18.3 31 20C31 21.7 30.3 23.1 29.2 24.2L30.6 25.6ZM27.8 22.8C28.6 22.1 29 21.1 29 20C29 18.9 28.6 17.9 27.8 17.2L26.4 18.6C26.8 19 27 19.4 27 20C27 20.6 26.8 21.1 26.4 21.4L27.8 22.8ZM22 30.5C22.8 30.5 23.5 29.8 23.5 29C23.5 28.2 22.8 27.5 22 27.5C21.2 27.5 20.5 28.2 20.5 29C20.5 29.8 21.2 30.5 22 30.5ZM15.6 16H26V14H17C15.9 14 15 14.9 15 16V32C15 33.1 15.9 34 17 34H27C28.1 34 29 33.1 29 32V27H27V32H17V17.9C17 16.8 16.5 16.3 15.6 16.1V16Z" fill="#2B2D33"/>
</svg>
