<svg width="48" height="48" viewBox="0 0 48 48" fill="none" xmlns="http://www.w3.org/2000/svg">
<rect width="48" height="48" rx="12" fill="#FEE600"/>
<path d="M21.5 29C21.5 29.8 22.2 30.5 23 30.5C23.8 30.5 24.5 29.8 24.5 29C24.5 28.2 23.8 27.5 23 27.5C22.2 27.5 21.5 28.2 21.5 29ZM28 25V32H18V17.9C18 16.8 17.5 16.3 16.6 16.1V16H26V14H18C16.9 14 16 14.9 16 16V32C16 33.1 16.9 34 18 34H28C29.1 34 30 33.1 30 32V25H28ZM24 18H30V17.9C28.5 17.6 28 16.5 28 15H30C30 16.3 30.7 17.5 32.3 18C32.8 18.2 33 18.6 33 19C33 19.4 32.8 19.8 32.3 20C30.7 20.5 30 21.7 30 23H28C28 21.5 28.5 20.4 30 20.1V20H24V18Z" fill="#2B2D33"/>
</svg>
