<svg width="48" height="48" viewBox="0 0 48 48" fill="none" xmlns="http://www.w3.org/2000/svg">
<rect width="48" height="48" rx="12" fill="#FEE600"/>
<path fill-rule="evenodd" clip-rule="evenodd" d="M16.728 22.75C16.728 18.884 19.862 15.75 23.728 15.75C25.1041 15.75 26.3846 16.146 27.4654 16.83L28.5349 15.1399C27.1436 14.2595 25.4938 13.75 23.728 13.75C18.7575 13.75 14.728 17.7794 14.728 22.75C14.728 26.1964 17.0098 28.9503 19.0695 30.7526C20.1204 31.6721 21.1666 32.3908 21.948 32.8792C22.3398 33.1241 22.6677 33.3127 22.9 33.4413C23.0162 33.5056 23.1086 33.555 23.1733 33.589C23.2057 33.606 23.2312 33.6192 23.2493 33.6284L23.2708 33.6394L23.2772 33.6426L23.2802 33.6441C23.5617 33.7849 23.894 33.7851 24.1755 33.6443L24.1786 33.6427L24.1847 33.6397L24.2048 33.6295C24.2216 33.6208 24.2453 33.6086 24.2754 33.5928C24.3357 33.5612 24.4217 33.5154 24.53 33.4557C24.7465 33.3364 25.0525 33.1614 25.4198 32.9341C26.1527 32.4807 27.1386 31.8135 28.1467 30.9591L26.8536 29.4334C25.9405 30.2073 25.0403 30.817 24.3674 31.2334C24.1181 31.3876 23.9012 31.5146 23.728 31.6128C23.5364 31.5041 23.2913 31.3603 23.008 31.1833C22.2895 30.7342 21.3356 30.0779 20.3865 29.2474C18.4463 27.5497 16.728 25.3036 16.728 22.75Z" fill="#2B2D33"/>
<path d="M28.3241 19.182C28.9277 19.7856 29.4065 20.5021 29.7331 21.2908C30.0598 22.0794 30.2279 22.9246 30.2279 23.7782C30.2279 24.6318 30.0598 25.477 29.7331 26.2656C29.4065 27.0543 28.9277 27.7708 28.3241 28.3744L26.9099 26.9602C27.3278 26.5423 27.6592 26.0462 27.8854 25.5003C28.1115 24.9543 28.2279 24.3691 28.2279 23.7782C28.2279 23.1873 28.1115 22.6021 27.8854 22.0561C27.6592 21.5102 27.3278 21.0141 26.9099 20.5962L28.3241 19.182Z" fill="#2B2D33"/>
<path d="M30.799 16.6569C31.7276 17.5854 32.4642 18.6878 32.9667 19.9011C33.4693 21.1143 33.7279 22.4147 33.7279 23.7279C33.7279 25.0411 33.4693 26.3415 32.9667 27.5548C32.4642 28.768 31.7276 29.8704 30.799 30.799L29.3848 29.3848C30.1276 28.6419 30.7169 27.76 31.1189 26.7894C31.521 25.8188 31.7279 24.7785 31.7279 23.7279C31.7279 22.6774 31.521 21.6371 31.1189 20.6665C30.7169 19.6959 30.1276 18.8139 29.3848 18.0711L30.799 16.6569Z" fill="#2B2D33"/>
<path d="M26.7105 23.7747C26.704 24.5677 26.3861 25.3264 25.8254 25.8872L23.6881 23.7499L25.8602 21.648C26.4116 22.2179 26.717 22.9817 26.7105 23.7747Z" fill="#2B2D33"/>
</svg>
