<svg width="48" height="48" viewBox="0 0 48 48" fill="none" xmlns="http://www.w3.org/2000/svg">
<rect width="48" height="48" rx="12" fill="#FEE600"/>
<path d="M25 31.9C25 30.8 24.5 30.3 23.6 30.1V30H31C32.6 30 34 28.7 34 27V17C34 15.3 32.6 14 31 14H17C15.3 14 14 15.3 14 17V27C14 28.7 15.3 30 17 30H23V32H20V34H28V32H25V31.9ZM24 26.5C24.8 26.5 25.5 25.8 25.5 25C25.5 24.2 24.8 23.5 24 23.5C23.2 23.5 22.5 24.2 22.5 25C22.5 25.8 23.2 26.5 24 26.5ZM17 28C16.4 28 16 27.6 16 27V17C16 16.5 16.4 16 17 16H31C31.5 16 32 16.5 32 17V27C32 27.6 31.5 28 31 28H17Z" fill="#2B2D33"/>
</svg>
