<svg width="48" height="48" viewBox="0 0 48 48" fill="none" xmlns="http://www.w3.org/2000/svg">
<rect width="48" height="48" rx="12" fill="#FEE600"/>
<path d="M30.5 24C30.5 23.3096 29.9404 22.75 29.25 22.75C28.5596 22.75 28 23.3096 28 24C28 24.6904 28.5596 25.25 29.25 25.25C29.9404 25.25 30.5 24.6904 30.5 24Z" fill="#2B2D33"/>
<path fill-rule="evenodd" clip-rule="evenodd" d="M14 30C14 31.6569 15.3431 33 17 33H31C32.6569 33 34 31.6569 34 30V18C34 16.3431 32.6569 15 31 15L17 15C15.3431 15 14 16.3431 14 18L14 30ZM17 31C16.4477 31 16 30.5523 16 30L16 18C16 17.4477 16.4477 17 17 17L31 17C31.5523 17 32 17.4477 32 18V30C32 30.5523 31.5523 31 31 31H17Z" fill="#2B2D33"/>
</svg>
