<svg width="48" height="48" viewBox="0 0 48 48" fill="none" xmlns="http://www.w3.org/2000/svg">
<rect width="48" height="48" rx="12" fill="#FEE600"/>
<path d="M29.0614 14.609C28.0908 14.2069 27.0505 14 25.9999 14V16C26.7879 16 27.5681 16.1552 28.296 16.4567C29.024 16.7583 29.6854 17.2002 30.2426 17.7574C30.7997 18.3145 31.2417 18.9759 31.5432 19.7039C31.8447 20.4319 31.9999 21.2121 31.9999 22H33.9999C33.9999 20.9494 33.793 19.9091 33.391 18.9385C32.9889 17.9679 32.3997 17.086 31.6568 16.3431C30.9139 15.6003 30.032 15.011 29.0614 14.609Z" fill="#2B2D33"/>
<path fill-rule="evenodd" clip-rule="evenodd" d="M17.3872 15.1985C18.3072 14.2785 19.8469 14.468 20.5164 15.5838L22.4557 18.816C22.9279 19.6029 22.8039 20.6103 22.1549 21.2592L21.1285 22.2856C21.3383 22.7157 21.8645 23.5457 23.1594 24.8405C24.4542 26.1354 25.2843 26.6616 25.7143 26.8714L26.7407 25.845C27.3897 25.196 28.397 25.072 29.1839 25.5442L32.4162 27.4836C33.5319 28.153 33.7214 29.6927 32.8014 30.6128L30.2928 33.1213C29.7364 33.6777 28.933 34.037 28.0524 33.9273C26.3057 33.7098 22.3595 32.8308 18.738 29.2747C15.0824 25.6852 14.2468 21.6662 14.0565 19.9134C13.9624 19.0472 14.3212 18.2645 14.8654 17.7203L17.3872 15.1985ZM18.8014 16.6128L16.2797 19.1345C16.0894 19.3248 16.0267 19.5309 16.0448 19.6975C16.2052 21.1743 16.9246 24.6911 20.1393 27.8477C23.3465 30.997 26.8229 31.7587 28.2996 31.9426C28.4718 31.9641 28.6849 31.9008 28.8786 31.7071L31.3872 29.1985L28.1549 27.2592L26.9766 28.4375C26.6374 28.7767 26.0183 29.1121 25.3023 28.8642C24.6086 28.6241 23.4667 27.9763 21.7452 26.2547C20.0236 24.5332 19.3758 23.3913 19.1357 22.6976C18.8878 21.9816 19.2232 21.3625 19.5624 21.0233L20.7407 19.845L18.8014 16.6128Z" fill="#2B2D33"/>
<path d="M25.9999 18C26.5252 18 27.0454 18.1035 27.5307 18.3045C28.016 18.5055 28.4569 18.8001 28.8284 19.1716C29.1998 19.543 29.4944 19.984 29.6955 20.4693C29.8965 20.9546 29.9999 21.4747 29.9999 22H27.9999C27.9999 21.7374 27.9482 21.4773 27.8477 21.2346C27.7472 20.992 27.5999 20.7715 27.4142 20.5858C27.2284 20.4001 27.008 20.2527 26.7653 20.1522C26.5227 20.0517 26.2626 20 25.9999 20V18Z" fill="#2B2D33"/>
</svg>
