<svg width="48" height="48" viewBox="0 0 48 48" fill="none" xmlns="http://www.w3.org/2000/svg">
<rect width="48" height="48" rx="12" fill="#FEE600"/>
<path fill-rule="evenodd" clip-rule="evenodd" d="M23.06 19.1083C21.7279 18.2757 20 19.2334 20 20.8043V27.1958C20 28.7666 21.7279 29.7243 23.06 28.8918L28.1732 25.696C29.4265 24.9127 29.4265 23.0873 28.1732 22.304L23.06 19.1083ZM22 20.8043L27.1132 24L22 27.1958V20.8043Z" fill="#2B2D33"/>
<path fill-rule="evenodd" clip-rule="evenodd" d="M24 14C18.4772 14 14 18.4772 14 24C14 29.5228 18.4772 34 24 34C29.5228 34 34 29.5228 34 24C34 18.4772 29.5228 14 24 14ZM16 24C16 19.5817 19.5817 16 24 16C28.4183 16 32 19.5817 32 24C32 28.4183 28.4183 32 24 32C19.5817 32 16 28.4183 16 24Z" fill="#2B2D33"/>
</svg>
