<svg width="48" height="48" viewBox="0 0 48 48" fill="none" xmlns="http://www.w3.org/2000/svg">
<rect width="48" height="48" rx="12" fill="#FEE600"/>
<path d="M27.6 24C26.9 24 26.2 23.8 25.6 23.4L27.3 21.7L25.9 20.3L24.1 22C23.8 21.4 23.6 20.7 23.6 20C23.6 17.8 25.4 16 27.6 16C29.8 16 31.6 17.8 31.6 20C31.6 22.2 29.8 24 27.6 24ZM25.4 33.6L32.4 23.6C33.2 22.6 33.6 21.3 33.6 20C33.6 16.7 30.9 14 27.6 14C26.2 14 25 14.4 24 15.2L14 22.2L15.1 23.8L21.6 19.3C21.6 19.5 21.6 19.8 21.6 20C21.6 20.6 21.7 21.2 21.8 21.7C22 22.5 22.8 22.8 23.6 22.3L23.7 22.4L15.9 30.2L17.3 31.6L24.1 24.8C25.1 25.5 26.3 25.9 27.6 25.9C27.8 25.9 28.1 25.9 28.3 25.9L23.8 32.4L25.4 33.6Z" fill="#2B2D33"/>
</svg>
