<svg width="48" height="48" viewBox="0 0 48 48" fill="none" xmlns="http://www.w3.org/2000/svg">
<rect width="48" height="48" rx="12" fill="#FEE600"/>
<path d="M24.9 23.1C25.8 24 26.9 24.8 28.1 25.3C29.3 25.8 31 26.2 33 26.1V26.2C32.1 26.3 31.6 26.6 31.3 27.3C31.1 27.7 30.9 28.1 30.6 28.5C29.7 29.8 28.5 30.9 27 31.4C25.5 32 23.9 32.2 22.4 31.9C20.8 31.6 19.4 30.8 18.3 29.7C17.2 28.6 16.4 27.1 16.1 25.6C15.8 24 16 22.4 16.6 20.9C17.2 19.4 18.2 18.2 19.5 17.3C19.9 17 20.3 16.8 20.7 16.6C21.4 16.3 21.8 15.8 21.8 14.9H21.9C21.8 16.9 22.1 18.6 22.7 19.8C23.3 21 24 22.1 24.9 23.1ZM32 24C30.9 24 29.9 23.8 28.9 23.4C27.9 23 27 22.4 26.3 21.7C25.6 20.9 25 20 24.6 19.1C24.2 18.1 24 17 24 16H24.1L32 24ZM22 33.8C23.9 34.2 25.9 34 27.8 33.2C29.7 32.4 31.2 31.2 32.3 29.5C33.4 27.9 34 26 34 24V23.9C34 23.4 33.8 22.9 33.4 22.5L25.5 14.6C25.1 14.2 24.6 14 24.1 14H24C22 14 20.1 14.6 18.4 15.7C16.8 16.8 15.5 18.3 14.8 20.2C14 22 13.8 24 14.2 25.9C14.6 27.8 15.5 29.6 16.9 31C18.3 32.4 20.1 33.4 22 33.8Z" fill="#2B2D33"/>
</svg>
