<svg width="48" height="48" viewBox="0 0 48 48" fill="none" xmlns="http://www.w3.org/2000/svg">
<rect width="48" height="48" rx="12" fill="#FEE600"/>
<path d="M18.9 23.2C18.9 20.7 18 20.7 18 19C18 16.8 19.8 15 22 15C24.2 15 26 16.8 26 19C26 20.7 25.1 20.7 25.1 23.2H25V20C25 18.3 23.7 17 22 17C20.3 17 19 18.3 19 20V23.2H18.9ZM21 32V20C21 19.4 21.4 19 22 19C22.6 19 23 19.4 23 20V25.5C23 26.1 23.4 26.5 24 26.5H29C30.1 26.5 31 27.4 31 28.5V32H21ZM20 34H32C32.5 34 33 33.5 33 33V28.5C33 26.3 31.2 24.5 29 24.5H25V24.2C26.8 23.2 28 21.2 28 19C28 15.7 25.3 13 22 13C18.7 13 16 15.7 16 19C16 21.2 17.2 23.2 19 24.2V33C19 33.5 19.5 34 20 34Z" fill="#2B2D33"/>
</svg>
