<svg width="48" height="48" viewBox="0 0 48 48" fill="none" xmlns="http://www.w3.org/2000/svg">
<rect width="48" height="48" rx="12" fill="#FEE600"/>
<path d="M29 30C29.8 30 30.5 29.3 30.5 28.5C30.5 27.7 29.8 27 29 27C28.2 27 27.5 27.7 27.5 28.5C27.5 29.3 28.2 30 29 30ZM27.5 22H30.5V24H27.5V22ZM30.5 18H27.5V20H30.5V18ZM18.7 30.1C17.8 30.1 17.2 30.3 16.7 31.3L16.1 32.5L17.9 33.4L19.6 30H22V28H16V18H22V16H15C14.4 16 14 16.5 14 17V29C14 29.6 14.4 30 15 30H18.7V30.1ZM26 16V29C26 30.7 27.3 32 29 32C30.7 32 32 30.7 32 29V16H26ZM24 15C24 14.4 24.4 14 25 14H33C33.5 14 34 14.4 34 15V29C34 31.8 31.8 34 29 34C26.2 34 24 31.8 24 29V15Z" fill="#2B2D33"/>
</svg>
