<svg width="48" height="48" viewBox="0 0 48 48" fill="none" xmlns="http://www.w3.org/2000/svg">
<rect width="48" height="48" rx="12" fill="#FEE600"/>
<path d="M27.6 31V31.1C27.1 31.1 26.6 31.3 26.5 31.9L26.2 33H21.8L21.5 31.9C21.4 31.4 20.9 31.1 20.4 31.1V31H27.6ZM27.6 17H20.4V16.9C20.9 16.9 21.4 16.7 21.5 16.1L21.8 15H26.2L26.5 16.1C26.6 16.6 27.1 16.9 27.6 16.9V17ZM20 29C19.5 29 19 28.6 19 28V20C19 19.4 19.5 19 20 19H28C28.6 19 29 19.4 29 20V28C29 28.6 28.6 29 28 29H20ZM21 35H27C27.5 35 27.9 34.7 28 34.2L28.8 30.8C30.1 30.5 31 29.3 31 27.9V20C31 18.6 30.1 17.5 28.8 17.1L28 13.8C27.9 13.3 27.5 13 27 13H21C20.5 13 20.1 13.3 20 13.8L19.2 17.1C17.9 17.5 17 18.6 17 20V28C17 29.4 17.9 30.5 19.2 30.9L20 34.2C20.1 34.7 20.5 35 21 35Z" fill="#2B2D33"/>
</svg>
