<svg width="24" height="24" viewBox="0 0 24 24" fill="none" xmlns="http://www.w3.org/2000/svg">
<path d="M20.7211 6.96994C20.3711 6.38994 19.9611 5.84994 19.5011 5.35994L19.5711 5.28994C19.9611 4.89994 20.5911 4.89994 20.9811 5.28994C21.3711 5.67994 21.3711 6.31994 20.9811 6.70994L20.7211 6.96994ZM16.6811 11.9199C17.3711 11.9199 17.9311 11.3599 17.9311 10.6699C17.9311 9.97994 17.3711 9.41994 16.6811 9.41994C15.9911 9.41994 15.4311 9.97994 15.4311 10.6699C15.4311 11.3599 15.9811 11.9199 16.6811 11.9199ZM8.76109 19.5399C5.82109 17.7999 4.18109 15.2599 4.18109 12.1699C4.18109 9.78994 5.22109 7.64994 6.87109 6.17994C7.62109 5.51994 8.76109 5.36994 9.99109 5.66994L10.5211 5.79994C11.6011 6.05994 12.7311 6.05994 13.8211 5.79994L14.3511 5.66994C15.5911 5.36994 16.7311 5.51994 17.4811 6.17994C19.1311 7.64994 20.1711 9.78994 20.1711 12.1699C20.1711 15.2599 18.5311 17.7999 15.5911 19.5399L15.5211 19.4499C16.7311 18.3099 16.8511 17.7799 16.7211 16.5699L16.4611 14.0599C16.2411 11.8499 14.3911 10.1699 12.1711 10.1699C9.95109 10.1699 8.10109 11.8499 7.88109 14.0599L7.62109 16.5699C7.49109 17.7799 7.61109 18.3099 8.82109 19.4499L8.76109 19.5399ZM3.61109 7.00994L3.30109 6.70994C2.90109 6.31994 2.90109 5.67994 3.30109 5.28994C3.70109 4.89994 4.32109 4.89994 4.71109 5.28994L4.82109 5.39994C4.37109 5.88994 3.95109 6.42994 3.61109 7.00994ZM12.1811 16.4199C12.8711 16.4199 13.4311 15.8599 13.4311 15.1699C13.4311 14.4799 12.8711 13.9199 12.1811 13.9199C11.4911 13.9199 10.9311 14.4799 10.9311 15.1699C10.9311 15.8599 11.4811 16.4199 12.1811 16.4199ZM7.68109 11.9199C8.37109 11.9199 8.93109 11.3599 8.93109 10.6699C8.93109 9.97994 8.36109 9.41994 7.68109 9.41994C7.00109 9.41994 6.43109 9.97994 6.43109 10.6699C6.43109 11.3599 6.99109 11.9199 7.68109 11.9199ZM12.1811 20.1699C10.1811 20.1699 9.35109 19.5399 9.50109 17.9699L9.88109 14.2499C9.99109 13.0699 10.9911 12.1699 12.1811 12.1699C13.3711 12.1699 14.3611 13.0699 14.4811 14.2499L14.8511 17.9699C15.0111 19.5199 14.2211 20.1699 12.1811 20.1699ZM12.1811 22.1699C17.7211 22.1699 22.1811 17.6799 22.1811 12.1699C22.1811 11.0199 21.9911 9.91994 21.6311 8.88994L22.4011 8.11994C23.5711 6.94994 23.5711 5.04994 22.4011 3.87994C21.2311 2.70994 19.3311 2.70994 18.1511 3.87994L17.9511 4.08994C16.6711 3.40994 15.1711 3.41994 13.8911 3.72994L13.3611 3.85994C12.5811 4.03994 11.7811 4.03994 11.0011 3.85994L10.4711 3.72994C9.17109 3.40994 7.65109 3.40994 6.36109 4.10994L6.12109 3.87994C4.95109 2.70994 3.05109 2.70994 1.88109 3.87994C0.701094 5.04994 0.701094 6.94994 1.88109 8.11994L2.70109 8.93994C2.36109 9.95994 2.17109 11.0399 2.17109 12.1699C2.17109 17.6599 6.61109 22.1699 12.1811 22.1699Z" fill="white"/>
</svg>
