<svg width="24" height="24" viewBox="0 0 24 24" fill="none" xmlns="http://www.w3.org/2000/svg">
<path d="M18.12 10C17.84 9.43 17.4 9.17 16.57 9.12V9H18.5C20.44 9 22 7.44 22 5.5C22 3.56 20.44 2 18.5 2H17V4H18.5C19.33 4 20 4.67 20 5.5C20 6.33 19.33 7 18.5 7H5.5C4.67 7 4 6.33 4 5.5C4 4.67 4.67 4 5.5 4H7V2H5.5C3.56 2 2 3.56 2 5.5C2 7.44 3.56 9 5.5 9H7.43V9.12C6.6 9.17 6.17 9.44 5.88 10L5.39 11H2V13H5.28C5.29 13.03 5.3 13.07 5.32 13.1L7.6 19.95C8.02 21.2 9.12 22 10.44 22H13.56C14.9 22 15.99 21.2 16.41 19.95L18.69 13.1L18.72 13H22V11H18.61L18.12 10ZM16.79 12.47L14.51 19.32C14.36 19.76 14.04 20 13.56 20H10.44C9.97 20 9.64 19.76 9.49 19.32L7.21 12.47C7.13 12.22 7.15 11.94 7.27 11.71L8.34 9.55C8.53 9.17 8.83 9 9.24 9H14.77C15.14 9 15.49 9.21 15.66 9.55L16.74 11.71C16.86 11.94 16.88 12.22 16.79 12.47Z" fill="white"/>
</svg>
