<svg width="24" height="24" viewBox="0 0 24 24" fill="none" xmlns="http://www.w3.org/2000/svg">
<path d="M17 12.46C17.81 12.46 18.46 11.81 18.46 11C18.46 10.19 17.81 9.54 17 9.54C16.19 9.54 15.54 10.19 15.54 11C15.54 11.81 16.19 12.46 17 12.46ZM8.62 18L8.89 17.45C9.06 17.13 9.03 16.74 8.83 16.45L6.83 13.45C6.53 12.99 5.91 12.86 5.45 13.17L4 14.13V9.87L5.45 10.83C5.91 11.14 6.53 11.01 6.83 10.55L8.83 7.55C9.03 7.26 9.06 6.87 8.89 6.55L8.62 6H13C15.58 6 17.58 7.5 18.99 9.15C19.69 9.97 20.22 10.79 20.57 11.4C20.7 11.64 20.81 11.84 20.89 12C20.81 12.16 20.7 12.36 20.57 12.6C20.22 13.21 19.69 14.03 18.99 14.85C18.52 15.4 17.98 15.93 17.38 16.4C16.39 15.92 15.54 15.17 14.94 14.23C14.33 13.27 14 12.16 14 11.02H12C12 12.54 12.44 14.03 13.26 15.31C13.59 15.83 13.98 16.31 14.32 16.64C14.8 17.11 15.63 17.18 16.39 16.88L16.45 16.99C15.43 17.68 14.18 18 13 18H8.62ZM7 20H13C16.42 20 18.92 18 20.51 16.15C21.31 15.22 21.91 14.29 22.31 13.59C22.51 13.24 22.66 12.95 22.76 12.74C22.81 12.64 22.85 12.55 22.87 12.49C22.89 12.46 22.9 12.44 22.91 12.42C23.01 12.17 23.03 11.86 22.92 11.6L22.87 11.51C22.85 11.45 22.81 11.36 22.76 11.26C22.66 11.05 22.51 10.76 22.31 10.41C21.91 9.71 21.31 8.78 20.51 7.85C18.92 6 16.42 4 13 4H7C6.65 4 6.33 4.18 6.15 4.47C5.97 4.77 5.95 5.14 6.11 5.45L6.85 6.93L5.72 8.61L3.55 7.17C3.25 6.96 2.85 6.94 2.53 7.12C2.2 7.29 2 7.63 2 8V16C2 16.37 2.2 16.71 2.53 16.88C2.85 17.06 3.25 17.04 3.55 16.83L5.72 15.39L6.85 17.07L6.11 18.55C5.95 18.86 5.97 19.23 6.15 19.53C6.33 19.82 6.65 20 7 20Z" fill="white"/>
</svg>
