<svg width="24" height="24" viewBox="0 0 24 24" fill="none" xmlns="http://www.w3.org/2000/svg">
<path d="M8.7402 4L6.3402 12H10.0002C10.5902 12 11.0502 12.51 10.9902 13.11L10.3502 18.85L17.8402 10H14.0002C13.2502 10 12.7802 9.21 13.1002 8.55L15.3802 4H8.7402ZM14.3002 7.88V8H20.0002C20.8202 8 21.3302 8.97 20.7602 9.65L9.7602 22.65C9.1402 23.38 7.9102 22.9 8.0002 21.89L8.7002 15.67C8.8102 14.71 9.2702 14.23 10.1702 14.12L10.1802 14H5.0002C4.3202 14 3.8602 13.34 4.0402 12.71L7.0402 2.71C7.1702 2.29 7.5602 2 8.0002 2H17.0002C17.7602 2 18.2302 2.8 17.8902 3.45L16.2702 6.69C15.8402 7.56 15.3802 7.88 14.3002 7.88Z" fill="white"/>
</svg>
