<svg width="24" height="24" viewBox="0 0 24 24" fill="none" xmlns="http://www.w3.org/2000/svg">
<path d="M22.69 12.55L23.04 10.58L20.95 10.21C19.71 9.99 19.25 10.27 18.94 11.36L18.82 11.34C18.94 10.91 19 10.46 19 10C19 9.14 18.76 8.34 18.38 7.63L21.54 4.98L20.25 3.45L18.63 4.81C17.66 5.62 17.58 6.15 18.22 7.09L18.12 7.17C17.4 6.12 16.29 5.36 15 5.1V1H13V3.12C13 4.38 13.35 4.78 14.48 4.9V5.05C14.32 5.03 14.16 5 14 5C12.82 5 11.76 5.42 10.9 6.1L7.75 3.45L6.46 4.98L8.09 6.34C9.05 7.15 9.58 7.14 10.4 6.35L10.5 6.43C9.78 7.14 9.28 8.06 9.09 9.09C6.77 9.52 5 11.55 5 14V14.03C2.75 14.28 1 16.18 1 18.5C1 20.99 3.02 23 5.5 23H16C18.77 23 21 20.76 21 18C21 15.85 19.63 14.02 17.72 13.32C18.11 12.88 18.43 12.38 18.64 11.83L22.69 12.55ZM14 7C15.66 7 17 8.34 17 10C17 11.36 16.1 12.49 14.86 12.86C14.43 11.02 12.98 9.58 11.14 9.15C11.51 7.91 12.64 7 14 7ZM19 18C19 19.66 17.66 21 16 21H5.5C4.12 21 3 19.88 3 18.5C3 17.12 4.12 16 5.5 16H6.13C6.44 16 6.75 15.9 6.93 15.66C7.07 15.49 7.13 15.25 7.13 15.04C7.13 14.67 7 14.4 7 14C7 12.34 8.35 11 10 11C11.66 11 13 12.34 13 14C13 14.55 13.45 15 14 15H16C17.66 15 19 16.34 19 18Z" fill="white"/>
</svg>
