<svg width="24" height="24" viewBox="0 0 24 24" fill="none" xmlns="http://www.w3.org/2000/svg">
<path fill-rule="evenodd" clip-rule="evenodd" d="M5.5 6C5.5 4.34315 6.84315 3 8.5 3C10.1569 3 11.5 4.34315 11.5 6C11.5 7.65685 10.1569 9 8.5 9C6.84315 9 5.5 7.65685 5.5 6ZM8.5 5C7.94772 5 7.5 5.44772 7.5 6C7.5 6.55228 7.94772 7 8.5 7C9.05228 7 9.5 6.55228 9.5 6C9.5 5.44772 9.05228 5 8.5 5Z" fill="white"/>
<path fill-rule="evenodd" clip-rule="evenodd" d="M12.5 6C12.5 4.34315 13.8431 3 15.5 3C17.1569 3 18.5 4.34315 18.5 6C18.5 7.65685 17.1569 9 15.5 9C13.8431 9 12.5 7.65685 12.5 6ZM15.5 5C14.9477 5 14.5 5.44772 14.5 6C14.5 6.55228 14.9477 7 15.5 7C16.0523 7 16.5 6.55228 16.5 6C16.5 5.44772 16.0523 5 15.5 5Z" fill="white"/>
<path fill-rule="evenodd" clip-rule="evenodd" d="M0.5 11C0.5 9.34315 1.84315 8 3.5 8C5.15685 8 6.5 9.34315 6.5 11C6.5 12.6569 5.15685 14 3.5 14C1.84315 14 0.5 12.6569 0.5 11ZM3.5 10C2.94772 10 2.5 10.4477 2.5 11C2.5 11.5523 2.94772 12 3.5 12C4.05228 12 4.5 11.5523 4.5 11C4.5 10.4477 4.05228 10 3.5 10Z" fill="white"/>
<path fill-rule="evenodd" clip-rule="evenodd" d="M11.9999 10C9.44389 10 7.67755 11.9087 6.73052 13.8028C6.24491 14.774 5.92941 15.8189 5.80511 16.7777C5.68506 17.7038 5.72591 18.688 6.10551 19.4472C6.45434 20.1449 6.97182 20.6294 7.66939 20.8114C8.29794 20.9753 8.92093 20.8483 9.39965 20.7115C9.65055 20.6398 9.90249 20.5526 10.1355 20.4703L10.2565 20.4275C10.4517 20.3584 10.6353 20.2934 10.8226 20.233C11.2753 20.0869 11.6571 20 11.9999 20C12.3428 20 12.7246 20.0869 13.1773 20.233C13.3646 20.2934 13.5482 20.3584 13.7433 20.4275L13.8644 20.4703C14.0974 20.5526 14.3493 20.6398 14.6002 20.7115C15.0789 20.8483 15.7019 20.9753 16.3305 20.8114C17.0281 20.6294 17.5455 20.1449 17.8944 19.4472C18.274 18.688 18.3148 17.7038 18.1948 16.7777C18.0705 15.8189 17.755 14.774 17.2694 13.8028C16.3223 11.9087 14.556 10 11.9999 10ZM7.89437 18.5528C7.77396 18.312 7.68981 17.7962 7.78852 17.0348C7.88298 16.3061 8.12997 15.476 8.51937 14.6972C9.32234 13.0913 10.556 12 11.9999 12C13.4439 12 14.6775 13.0913 15.4805 14.6972C15.8699 15.476 16.1169 16.3061 16.2114 17.0348C16.3101 17.7962 16.2259 18.312 16.1055 18.5528C15.9601 18.8437 15.855 18.869 15.8284 18.8754L15.8256 18.8761C15.7354 18.8997 15.5459 18.9017 15.1497 18.7885C14.9631 18.7352 14.7619 18.6662 14.53 18.5844L14.4185 18.5449C14.2232 18.4757 14.0081 18.3995 13.7913 18.3295C13.2753 18.1631 12.6571 18 11.9999 18C11.3428 18 10.7246 18.1631 10.2086 18.3295C9.99174 18.3995 9.77671 18.4757 9.58134 18.5449L9.46985 18.5844C9.238 18.6662 9.03681 18.7352 8.85021 18.7885C8.45393 18.9017 8.26443 18.8997 8.17423 18.8761L8.17146 18.8754C8.14485 18.869 8.03981 18.8437 7.89437 18.5528Z" fill="white"/>
<path fill-rule="evenodd" clip-rule="evenodd" d="M20.5 8C18.8431 8 17.5 9.34315 17.5 11C17.5 12.6569 18.8431 14 20.5 14C22.1569 14 23.5 12.6569 23.5 11C23.5 9.34315 22.1569 8 20.5 8ZM19.5 11C19.5 10.4477 19.9477 10 20.5 10C21.0523 10 21.5 10.4477 21.5 11C21.5 11.5523 21.0523 12 20.5 12C19.9477 12 19.5 11.5523 19.5 11Z" fill="white"/>
</svg>
