<svg width="48" height="48" viewBox="0 0 48 48" fill="none" xmlns="http://www.w3.org/2000/svg">
<rect width="48" height="48" rx="12" fill="#2B2D33"/>
<path d="M18 26H20V20.89C20 19.82 19.47 19.25 18.59 19.12V19H31.99V26H33.99V18C33.99 17.44 33.54 17 32.99 17H19C18.45 17 18 17.44 18 18V26Z" fill="#FEE600"/>
<path d="M14 31H16V16.89C16 15.82 15.47 15.25 14.59 15.12V15H29.99V13H15C14.45 13 14 13.44 14 14V31Z" fill="#FEE600"/>
<path d="M23.83 35.24L19.72 31.12L19.62 31.22C20.44 32.46 20.04 33.57 18.98 34.63L17.57 33.22C18.5 32.27 18.83 31 18.1 29.46C17.87 28.97 17.96 28.58 18.28 28.26C18.6 27.94 18.99 27.85 19.48 28.08C21.01 28.81 22.29 28.48 23.23 27.54L24.64 28.95C23.59 30 22.48 30.41 21.23 29.59L21.13 29.69L25.24 33.81L23.83 35.24Z" fill="#FEE600"/>
<path d="M28.17 27.56L32.28 31.68L32.38 31.58C31.56 30.34 31.96 29.23 33.02 28.17L34.43 29.58C33.49 30.52 33.16 31.79 33.89 33.33C34.12 33.82 34.03 34.21 33.71 34.53C33.39 34.85 33 34.94 32.51 34.71C30.98 33.98 29.7 34.31 28.76 35.25L27.35 33.84C28.4 32.79 29.51 32.38 30.76 33.2L30.86 33.1L26.75 28.98L28.17 27.56Z" fill="#FEE600"/>
</svg>
