<svg width="48" height="48" viewBox="0 0 48 48" fill="none" xmlns="http://www.w3.org/2000/svg">
<rect width="48" height="48" rx="12" fill="#2B2D33"/>
<path d="M32.41 32H25V34H32C32.55 34 33 33.55 33 33V15C33 14.45 32.55 14 32 14H18C17.45 14 17 14.45 17 15V21H19V17.89C19 16.82 18.47 16.25 17.59 16.12V16H31V30.11C31 31.18 31.53 31.75 32.41 31.88V32ZM19 31C17.9 31 17 30.1 17 29C17 27.9 17.9 27 19 27C20.1 27 21 27.9 21 29C21 30.1 20.1 31 19 31ZM18 35H20V32.87C21.41 32.51 22.51 31.41 22.87 30H25V28H22.87C22.51 26.59 21.41 25.49 20 25.13V23H18V25.13C16.59 25.49 15.49 26.59 15.13 28H13V30H15.13C15.49 31.41 16.59 32.51 18 32.87V35Z" fill="#FEE600"/>
</svg>
