<svg width="48" height="48" viewBox="0 0 48 48" fill="none" xmlns="http://www.w3.org/2000/svg">
<rect width="48" height="48" rx="12" fill="#2B2D33"/>
<path d="M14.59 16.12V16H28V14H15C14.45 14 14 14.45 14 15V30H16V17.89C16 16.82 15.47 16.25 14.59 16.12Z" fill="#FEE600"/>
<path d="M32.14 26.97H32V19C32 18.45 31.55 18 31 18H19C18.45 18 18 18.45 18 19V33C18 33.55 18.45 34 19 34H31C31.55 34 32 33.55 32 33V32H20V21.89C20 20.82 19.47 20.25 18.59 20.12V20H30V26.97H29.86C29.56 25.51 28.49 25.01 27 25.01V27.01C28.33 27.01 29.46 27.68 30.03 29.28C30.21 29.79 30.55 30 31 30C31.45 30 31.79 29.79 31.97 29.28C32.54 27.68 33.67 27.01 35 27.01V25.01C33.51 25.01 32.44 25.51 32.14 26.97Z" fill="#FEE600"/>
</svg>
