<svg width="48" height="48" viewBox="0 0 48 48" fill="none" xmlns="http://www.w3.org/2000/svg">
<rect width="48" height="48" rx="12" fill="#2B2D33"/>
<path d="M27 36V33C27 32.38 26.63 32 26 32H23V30H28.41V29.88C27.53 29.75 27 29.18 27 28.11V26H29V29C29 29.62 29.37 30 30 30H33V32H27.59V32.12C28.47 32.25 29 32.82 29 33.89V36H27ZM29 24H31V19C31 18.44 30.56 18 30 18H18C17.45 18 17 17.55 17 17C17 16.45 17.45 16 18 16H31V14H18C16.35 14 15 15.34 15 17V33C15 33.55 15.45 34 16 34H21V32H17V18.5H17.12C17.31 19.42 17.91 20 19 20H29V24Z" fill="#FEE600"/>
</svg>
