<svg width="48" height="48" viewBox="0 0 48 48" fill="none" xmlns="http://www.w3.org/2000/svg">
<rect width="48" height="48" rx="12" fill="#2B2D33"/>
<path d="M28 20V19C28 18.41 28.33 18 29 18H31V32.01H17V18.01H20V20H22V19C22 18.41 22.33 18 23 18H26V20H28ZM16 34.01H32C32.55 34.01 33 33.56 33 33.01V17.01C33 16.42 32.58 16 32 16H30.2C28.95 16 28.35 16.77 28.12 17.34H28V14H26V16H24.2C22.95 16 22.35 16.77 22.12 17.34H22V14H20V16.01H16C15.44 16.01 15 16.46 15 17.01V33.01C15 33.56 15.45 34.01 16 34.01Z" fill="#FEE600"/>
</svg>
