<svg width="48" height="48" viewBox="0 0 48 48" fill="none" xmlns="http://www.w3.org/2000/svg">
<rect width="48" height="48" rx="12" fill="#2B2D33"/>
<path d="M19.79 29.88H19.91C19.21 28.42 19 27.7 19 26V23H21V32.17C21 33.14 19.57 33.42 19.07 32.58L15.22 26.13H15.1C15.76 27.51 16 28.31 16 30.01V33H14V23.83C14 22.86 15.44 22.6 15.93 23.42L19.79 29.88ZM23 26.5C23 24.57 24.57 23 26.5 23C28.43 23 30 24.57 30 26.5C30 28.43 28.43 30 26.5 30C24.57 30 23 28.43 23 26.5ZM26.5 25C25.67 25 25 25.67 25 26.5C25 27.33 25.67 28 26.5 28C27.33 28 28 27.33 28 26.5C28 25.67 27.33 25 26.5 25ZM30 33H23V31H30V33ZM18.59 16H32V33H33C33.55 33 34 32.55 34 32V15C34 14.45 33.55 14 33 14H19C18.45 14 18 14.45 18 15V21H20V17.89C20 16.82 19.47 16.25 18.59 16.12V16Z" fill="#FEE600"/>
</svg>
