<svg width="48" height="48" viewBox="0 0 48 48" fill="none" xmlns="http://www.w3.org/2000/svg">
<rect width="48" height="48" rx="12" fill="#2B2D33"/>
<path d="M23.05 31.47L24.47 30.05L23.29 28.88C22.35 27.95 21.85 27.88 20.72 28.16L20.67 28.06C21.67 27.42 22 27 22 25.76V24H20V27.59C20 28.15 20.2 28.61 20.59 29L23.05 31.47ZM21 23C18.24 23 16 25.24 16 28C16 30.76 18.24 33 21 33C23.76 33 26 30.76 26 28C26 25.24 23.76 23 21 23ZM14 28C14 24.13 17.13 21 21 21C24.87 21 28 24.13 28 28C28 31.87 24.87 35 21 35C17.13 35 14 31.87 14 28ZM18.59 15H32V31H29V33H33C33.55 33 34 32.55 34 32V14C34 13.45 33.55 13 33 13H19C18.45 13 18 13.45 18 14V19H20V16.89C20 15.82 19.47 15.25 18.59 15.12V15Z" fill="#FEE600"/>
</svg>
