<svg width="48" height="48" viewBox="0 0 48 48" fill="none" xmlns="http://www.w3.org/2000/svg">
<rect width="48" height="48" rx="12" fill="#2B2D33"/>
<path d="M26 25C26 24.45 26.45 24 27 24C27.55 24 28 24.45 28 25V31H30V25C30 23.34 28.66 22 27 22C25.34 22 24 23.34 24 25V30C24 32.76 26.24 35 29 35C31.76 35 34 32.76 34 30V23H32V30C32 31.66 30.66 33 29 33C27.34 33 26 31.66 26 30V25ZM14.59 16H28V20H30V15C30 14.45 29.55 14 29 14H15C14.45 14 14 14.45 14 15V33C14 33.55 14.45 34 15 34H22V32H16V17.89C16 16.82 15.47 16.25 14.59 16.12V16Z" fill="#FEE600"/>
</svg>
