<svg width="48" height="48" viewBox="0 0 48 48" fill="none" xmlns="http://www.w3.org/2000/svg">
<rect width="48" height="48" rx="12" fill="#2B2D33"/>
<path d="M17 34V31C17 30.38 16.63 30 16 30H13V28H18.41V27.88C17.53 27.75 17 27.18 17 26.11V24H19V27C19 27.62 19.37 28 20 28H23V30H17.59V30.12C18.47 30.25 19 30.82 19 31.89V34H17ZM32.41 32H23V34H32C32.55 34 33 33.55 33 33V15C33 14.45 32.55 14 32 14H18C17.45 14 17 14.45 17 15V22H19V17.89C19 16.82 18.47 16.25 17.59 16.12V16H31V30.11C31 31.18 31.53 31.75 32.41 31.88V32Z" fill="#FEE600"/>
</svg>
