<svg width="48" height="48" viewBox="0 0 48 48" fill="none" xmlns="http://www.w3.org/2000/svg">
<rect width="48" height="48" rx="12" fill="#2B2D33"/>
<path d="M17.21 32.08L25.5 23.79L26.91 25.2L18.91 33.2C18.52 33.59 17.89 33.59 17.5 33.2L14 29.7L15.41 28.29L16.88 29.75C17.63 30.5 17.66 31.28 17.13 32L17.21 32.08ZM33.12 32H24.71V34H32.71C33.26 34 33.71 33.55 33.71 33V15C33.71 14.44 33.26 14 32.71 14H18.71C18.16 14 17.71 14.44 17.71 15V24H19.71V17.89C19.71 16.82 19.18 16.25 18.3 16.12V16H31.71V30.11C31.71 31.18 32.24 31.75 33.12 31.88V32Z" fill="#FEE600"/>
</svg>
