<svg width="48" height="48" viewBox="0 0 48 48" fill="none" xmlns="http://www.w3.org/2000/svg">
<rect width="48" height="48" rx="12" fill="#2B2D33"/>
<path d="M31.5 30H33.5C34.45 30 35 29.47 35 28.5V26.99H33.5V28.5H31.5V23.5H33.5V25.01H35V23.5C35 22.53 34.45 22 33.5 22H31.5C30.54 22 30 22.53 30 23.5V28.5C30 29.47 30.54 30 31.5 30ZM25.5 28.5V23.5H27.5V28.5H25.5ZM25.5 30H27.5C28.45 30 29 29.46 29 28.5V23.5C29 22.54 28.45 22 27.5 22H25.5C24.54 22 24 22.54 24 23.5V28.5C24 29.46 24.54 30 25.5 30ZM19.5 28.5V23.5H21.5V28.5H19.5ZM18 30H21.5C22.45 30 23 29.46 23 28.5V23.5C23 22.54 22.45 22 21.5 22H18V30ZM15 34H29C29.54 34 30 33.55 30 32.99V32H16V17.89C16 16.82 15.47 16.25 14.58 16.12V16H28V20H30V15C30 14.45 29.56 14 29 14H15C14.45 14 14 14.47 14 15V33C14 33.56 14.45 34 15 34Z" fill="#FEE600"/>
</svg>
