<svg width="48" height="48" viewBox="0 0 48 48" fill="none" xmlns="http://www.w3.org/2000/svg">
<rect width="48" height="48" rx="12" fill="#2B2D33"/>
<path d="M34.8 31.5C34.7 30.9 34.5 30.1 34.3 29.4C34.1 28.7 33.9 28 33.6 27.4C33.5 27.1 33.3 26.8 33.1 26.6C32.9 26.3 32.6 26 32 26C31.4 26 31 26.4 30.8 26.6C30.6 26.9 30.5 27.2 30.3 27.5C30 28.1 29.8 28.9 29.5 29.6C29.3 30.1 29.2 30.6 29 31C29 30.9 29 30.8 28.9 30.7V30.6C28.8 30.1 28.7 29.6 28.5 29.1C28.4 28.9 28.3 28.6 28.1 28.4C27.9 28.3 27.5 28 27 28C26.2 28 25.7 28.6 25.5 29C25.3 29.4 25.1 29.8 25 30.2C24.9 30.6 25 31 24.8 31H22C21.4 31 21 31.4 21 32C21 32.6 21.4 33 22 33H25C25.8 33 26.3 32.4 26.5 32C26.7 31.6 26.8 31.2 27 30.8L27.1 31.2C27.2 31.7 27.3 32.2 27.5 32.7C27.6 32.9 27.7 33.2 27.9 33.4C28.1 33.6 28.5 33.9 29 33.9C29.6 33.9 30 33.4 30.2 33.2C30.4 32.9 30.5 32.6 30.7 32.3C31 31.7 31.2 30.9 31.5 30.2C31.7 29.6 31.9 29 32.1 28.6C32.2 28.9 32.4 29.4 32.5 29.8C32.7 30.5 32.8 31.1 32.9 31.7C33 32.3 33.1 32.7 33.1 32.9C33.1 33.4 33.5 33.9 34.1 33.9C34.6 33.9 35.1 33.4 35.1 32.9C35 32.7 34.9 32.1 34.8 31.5Z" fill="#FEE600"/>
<path d="M30.7 18.3L27.7 15.3C27.6 15.2 27.4 15.1 27.2 15L23.2 14C22.9 13.9 22.6 14 22.3 14.3L18.3 18.3L19.7 19.7L23.3 16.1H23.5C24.6 16.4 25 16.3 25.8 15.6L25.9 15.7L15.3 26.3C15.2 26.4 15.1 26.6 15 26.8L14 30.8C13.9 31.2 14 31.5 14.2 31.8C14.4 32.1 14.8 32.1 15.2 32L19.2 31C19.4 31 19.5 30.9 19.7 30.7L30.7 19.7C31.1 19.3 31.1 18.7 30.7 18.3ZM16.2 29.8L16.8 27.3L18.7 29.2L16.2 29.8ZM20 27.6L18.4 26L27 17.4L28.6 19L20 27.6Z" fill="#FEE600"/>
</svg>
