<svg width="48" height="48" viewBox="0 0 48 48" fill="none" xmlns="http://www.w3.org/2000/svg">
<rect width="48" height="48" rx="12" fill="#2B2D33"/>
<path d="M17 32V16H31V32C30.24 32 29.76 30.49 28.49 30.49C27.25 30.49 26.76 31.8 26.28 31.8C25.79 31.8 25.25 30.49 24 30.49C22.75 30.49 22.21 31.8 21.72 31.8C21.24 31.8 20.75 30.49 19.51 30.49C18.21 30.49 17.75 32 17 32ZM17 34C18.61 34 19.08 32.69 19.51 32.69C19.99 32.69 20.48 34 21.72 34C22.97 34 23.52 32.69 24 32.69C24.48 32.69 25.03 34 26.28 34C27.52 34 28.01 32.69 28.49 32.69C28.92 32.69 29.39 34 31 34C32.31 34 33 33.09 33 32V14H15V32C15 33.09 15.69 34 17 34ZM21.01 23.99V21.99H24.01C24.61 21.99 25.01 22.39 25.01 22.99V26.99H27.01V28.99H21.01V26.99H23.01V25.86C23.01 24.8 23.54 24.24 24.42 24.11V23.99H21.01ZM25.51 19.49C25.51 20.32 24.84 20.99 24.01 20.99C23.18 20.99 22.51 20.32 22.51 19.49C22.51 18.66 23.18 17.99 24.01 17.99C24.84 17.99 25.51 18.66 25.51 19.49Z" fill="#FEE600"/>
</svg>
