<svg width="48" height="48" viewBox="0 0 48 48" fill="none" xmlns="http://www.w3.org/2000/svg">
<rect width="48" height="48" rx="12" fill="#2B2D33"/>
<g clip-path="url(#clip0_386_18836)">
<path d="M14 32.01C14 33.09 14.69 34 16 34C17.61 34 18.08 32.69 18.51 32.69C18.99 32.69 19.48 34 20.72 34C21.97 34 22.52 32.69 23 32.69C23.45 32.69 23.95 33.82 25.02 33.98V31.7C24.58 31.39 24.04 30.49 23 30.49C21.75 30.49 21.21 31.8 20.72 31.8C20.24 31.8 19.75 30.49 18.51 30.49C17.21 30.49 16.75 32 16 32V16H30V21.99L32 22V14H14V32.01ZM18 20H28V18H18V20ZM33.61 34L35.02 32.58L33.76 31.32C33.11 30.67 32.42 30.6 31.6 31.18L31.53 31.1C32.43 30.37 33 29.25 33 28C33 25.79 31.21 24 29 24C26.79 24 25 25.79 25 28C25 30.21 26.79 32 29 32C30.16 32 30.46 31.62 30.92 31.62C31.14 31.62 31.3 31.69 31.48 31.87L33.61 34ZM29 30C27.9 30 27 29.1 27 28C27 26.89 27.9 26 29 26C30.11 26 31 26.89 31 28C31 29.1 30.11 30 29 30ZM18 24H25V22H18V24Z" fill="#FEE600"/>
</g>
<defs>
<clipPath id="clip0_386_18836">
<rect width="21.02" height="20" fill="white" transform="translate(14 14)"/>
</clipPath>
</defs>
</svg>
