<svg width="48" height="48" viewBox="0 0 48 48" fill="none" xmlns="http://www.w3.org/2000/svg">
<rect width="48" height="48" rx="12" fill="#2B2D33"/>
<path d="M14 32.01C14 33.09 14.69 34 16 34C17.61 34 18.08 32.69 18.51 32.69C18.99 32.69 19.48 34 20.72 34C21.97 34 22.52 32.69 23 32.69C23.45 32.69 23.95 33.82 25.02 33.98V31.7C24.58 31.39 24.04 30.49 23 30.49C21.75 30.49 21.21 31.8 20.72 31.8C20.24 31.8 19.75 30.49 18.51 30.49C17.21 30.49 16.75 32 16 32V16H30V20.99L32 21V14H14V32.01ZM18 20H28V18H18V20ZM18 24H25V22H18V24Z" fill="#FEE600"/>
<path d="M33.81 25.04L32.4 23.63L26.5 29.52L26.41 29.43C26.94 28.69 26.83 27.97 26.23 27.37L24.79 25.93L23.38 27.35L26.74 30.7C27.16 31.11 27.74 31.11 28.15 30.7L33.81 25.04Z" fill="#FEE600"/>
</svg>
