<svg width="48" height="48" viewBox="0 0 48 48" fill="none" xmlns="http://www.w3.org/2000/svg">
<rect width="48" height="48" rx="12" fill="#2B2D33"/>
<path d="M32.24 29V29.12C30.68 29.42 30.23 29.71 29.37 30.71L26.24 34.35L27.76 35.65L33.76 28.65C34.01 28.35 34.07 27.94 33.91 27.58C33.75 27.23 33.39 27 33 27H28.76V26.88C30.32 26.58 30.77 26.29 31.63 25.29L34.76 21.65L33.24 20.35L27.24 27.35C26.98 27.65 26.92 28.06 27.09 28.42C27.25 28.77 27.61 29 28 29H32.24ZM14.59 16H28V21H30V15C30 14.45 29.55 14 29 14H15C14.45 14 14 14.45 14 15V33C14 33.55 14.45 34 15 34H24V32H16V17.89C16 16.82 15.47 16.25 14.59 16.12V16Z" fill="#FEE600"/>
</svg>
