<svg width="48" height="48" viewBox="0 0 48 48" fill="none" xmlns="http://www.w3.org/2000/svg">
<rect width="48" height="48" rx="12" fill="#2B2D33"/>
<path d="M28 18H18V20H28V18Z" fill="#FEE600"/>
<path d="M18.51 30.49C17.21 30.49 16.75 32 16 32V16H30V23.99L32 24V14H14V32.01C14 33.09 14.69 34 16 34C17.61 34 18.08 32.69 18.51 32.69C18.99 32.69 19.48 34 20.72 34C21.97 34 22.52 32.69 23 32.69V30.49C21.75 30.49 21.21 31.8 20.72 31.8C20.24 31.8 19.75 30.49 18.51 30.49Z" fill="#FEE600"/>
<path d="M28 31C27.27 31 26.63 31.41 26.28 32H25V34H26.28C26.63 34.59 27.27 35 28 35C28.73 35 29.37 34.59 29.72 34H35V32H29.72C29.37 31.41 28.73 31 28 31Z" fill="#FEE600"/>
<path d="M26 22H18V24H26V22Z" fill="#FEE600"/>
<path d="M33.72 27C33.37 26.41 32.73 26 32 26C31.27 26 30.63 26.41 30.28 27H25V29H30.28C30.63 29.59 31.27 30 32 30C32.73 30 33.37 29.59 33.72 29H35V27H33.72Z" fill="#FEE600"/>
</svg>
