<svg width="48" height="48" viewBox="0 0 48 48" fill="none" xmlns="http://www.w3.org/2000/svg">
<rect width="48" height="48" rx="12" fill="#2B2D33"/>
<path d="M17.76 24.35L22.6 30L22.71 29.91C22.22 29.27 22 28.75 22 27.75V24H24V32C24 32.42 23.76 32.81 23.35 32.94C22.95 33.07 22.51 32.97 22.24 32.65L17.4 27L17.29 27.09C17.78 27.73 18 28.25 18 29.25V33H16V25C16 24.58 16.26 24.21 16.65 24.06C17.05 23.92 17.49 24.03 17.76 24.35ZM32 33H26V31H32V33ZM29 26C28.45 26 28 26.45 28 27C28 27.55 28.45 28 29 28C29.55 28 30 27.55 30 27C30 26.45 29.55 26 29 26ZM26 27C26 25.34 27.34 24 29 24C30.66 24 32 25.34 32 27C32 28.66 30.66 30 29 30C27.34 30 26 28.66 26 27ZM14 17H30.96V16.86C29.5 16.56 29 15.49 29 14H30.99C31 15.33 31.68 16.46 33.28 17.03C33.79 17.21 34 17.55 34 18C34 18.45 33.79 18.79 33.28 18.97C31.68 19.54 31 20.68 30.99 22.01H29C29 20.52 29.5 19.44 30.96 19.14V19H14V17Z" fill="#FEE600"/>
</svg>
