<svg width="48" height="48" viewBox="0 0 48 48" fill="none" xmlns="http://www.w3.org/2000/svg">
<rect width="48" height="48" rx="12" fill="#2B2D33"/>
<path d="M18 30.9999C18 29.9099 17.42 29.3099 16.5 29.1199V28.9999H20V26.9999H18C18 25.9099 17.42 25.3099 16.5 25.1199V24.9999H20V22.9999H18C18 21.9099 17.42 21.3099 16.5 21.1199V20.9999H20V18.9999H18V15.9999H22V31.9999H18V30.9999ZM31.5 27.9999H26.5V27.8799C27.42 27.6899 28 27.0899 28 25.9999V18.7699L29.03 17.0199L30 18.7899V25.9999C30 27.0899 30.58 27.6899 31.5 27.8799V27.9999ZM29 33.9999C30.66 33.9999 32 32.6599 32 30.9999V18.8199C32 18.4199 31.95 18.1999 31.79 17.8999L29.94 14.5199C29.76 14.1999 29.44 14.0099 29.08 13.9999C28.72 13.9899 28.38 14.1799 28.2 14.4899L26.23 17.8399C26.05 18.1399 26 18.3699 26 18.8199V30.9999C26 32.6599 27.34 33.9999 29 33.9999ZM29 31.9999C28.45 31.9999 28 31.5499 28 30.9999V29.9999H30V30.9999C30 31.5499 29.55 31.9999 29 31.9999ZM17 33.9999H23C23.52 33.9999 24 33.5999 24 32.9999V14.9999C24 14.4499 23.55 13.9999 23 13.9999H17C16.45 13.9999 16 14.4499 16 14.9999V32.9999C16 33.5499 16.45 33.9999 17 33.9999Z" fill="#FEE600"/>
</svg>
