<svg width="48" height="48" viewBox="0 0 48 48" fill="none" xmlns="http://www.w3.org/2000/svg">
<rect width="48" height="48" rx="12" fill="#2B2D33"/>
<path d="M30.7 18.2999L27.7 15.2999C27.6 15.1999 27.4 15.0999 27.2 14.9999L23.2 13.9999C22.9 13.8999 22.6 13.9999 22.3 14.2999L18.3 18.2999L19.7 19.6999L23.3 16.0999H23.5C24.6 16.3999 25 16.2999 25.8 15.5999L25.9 15.6999L15.3 26.2999C15.2 26.3999 15.1 26.5999 15 26.7999L14 30.7999C13.9 31.1999 14 31.4999 14.2 31.7999C14.4 32.0999 14.8 32.0999 15.2 31.9999L19.2 30.9999C19.4 30.9999 19.5 30.8999 19.7 30.6999L30.7 19.6999C31.1 19.2999 31.1 18.6999 30.7 18.2999ZM16.2 29.7999L16.8 27.2999L18.7 29.1999L16.2 29.7999ZM20 27.5999L18.4 25.9999L27 17.3999L28.6 18.9999L20 27.5999Z" fill="#FEE600"/>
<path d="M32.8 24.7999L25 32.5999L24.9 32.4999C25.4 31.7999 25.4 30.9999 24.7 30.2999L23.7 29.2999L22.3 30.6999L25.3 33.6999C25.7 34.0999 26.3 34.0999 26.7 33.6999L34.2 26.1999L32.8 24.7999Z" fill="#FEE600"/>
</svg>
