<svg width="48" height="48" viewBox="0 0 48 48" fill="none" xmlns="http://www.w3.org/2000/svg">
<rect width="48" height="48" rx="12" fill="#2B2D33"/>
<path d="M33 24H31V29H33V24Z" fill="#FEE600"/>
<path d="M32 30.3C31.2 30.3 30.6 30.9 30.6 31.7C30.6 32.5 31.3 33 32 33C32.7 33 33.4 32.4 33.4 31.6C33.4 30.8 32.8 30.3 32 30.3Z" fill="#FEE600"/>
<path d="M31.7 19.3L28.7 16.3C28.6 16.2 28.4 16.1 28.2 16L24.2 15C23.9 14.9 23.6 15 23.3 15.3L19.3 19.3L20.7 20.7L24.3 17.1H24.5C25.6 17.4 26 17.3 26.8 16.6L26.9 16.7L16.3 27.3C16.2 27.4 16.1 27.6 16 27.8L15 31.8C14.9 32.2 15 32.5 15.2 32.8C15.4 33.1 15.8 33.1 16.2 33L20.2 32C20.4 32 20.5 31.9 20.7 31.7L31.7 20.7C32.1 20.3 32.1 19.7 31.7 19.3ZM17.2 30.8L17.8 28.3L19.7 30.2L17.2 30.8ZM21 28.6L19.4 27L28 18.4L29.6 20L21 28.6Z" fill="#FEE600"/>
</svg>
