<svg width="48" height="48" viewBox="0 0 48 48" fill="none" xmlns="http://www.w3.org/2000/svg">
<rect width="48" height="48" rx="12" fill="#2B2D33"/>
<path d="M29 24H28C27.4 24 27 23.6 27 23V20.66C27.62 19.96 28 19.03 28 18C28 15.77 26.23 14 24 14C21.77 14 20 15.77 20 18C20 19.03 20.38 19.96 21 20.66V23C21 23.6 20.6 24 20 24H19C17.25 24 16 25.25 16 27V30H32V27C32 25.25 30.75 24 29 24ZM21.6 23.88C22.43 23.88 23 23.31 23 22.48V20.6C23 19.97 22.94 19.79 22.53 19.34C22.13 18.91 22 18.48 22 18C22 16.88 22.88 16 24 16C25.12 16 26 16.88 26 18C26 18.48 25.87 18.91 25.47 19.34C25.06 19.79 25 19.97 25 20.6V22.48C25 23.31 25.57 23.88 26.4 23.88V24H21.6V23.88ZM30 28H18V27C18 26.38 18.37 26 19 26H29C29.63 26 30 26.38 30 27V28Z" fill="#FEE600"/>
<path d="M32 32H16V34H32V32Z" fill="#FEE600"/>
</svg>
