<svg width="48" height="48" viewBox="0 0 48 48" fill="none" xmlns="http://www.w3.org/2000/svg">
<rect width="48" height="48" rx="12" fill="#2B2D33"/>
<path d="M32.9 17.7799L31.49 16.3699L22.76 25.0899L22.67 24.9999C23.2 24.2599 23.09 23.5399 22.49 22.9399L21.05 21.4999L19.64 22.9199L23 26.2699C23.42 26.6799 24 26.6799 24.41 26.2699L32.9 17.7799ZM33.63 24.3399C33.85 24.1599 33.98 23.8999 34 23.6099C34.01 23.3299 33.91 23.0499 33.71 22.8499L31.98 21.1199L30.56 22.5399L31.51 23.4799L29.29 25.2799L29.99 27.9199L27.27 28.0599L26.29 30.6099L24 29.1199L21.71 30.6099L20.73 28.0599L18.01 27.9199L18.72 25.2799L16.59 23.5599L18.72 21.8399L18.01 19.2099L20.73 19.0599L21.71 16.5099L24 17.9999L26.56 16.3399L27.66 17.7699L29.09 16.3499L27.57 14.3899C27.25 13.9799 26.67 13.8799 26.24 14.1599L24 15.6199L21.76 14.1599C21.51 13.9999 21.2 13.9599 20.91 14.0499C20.62 14.1399 20.39 14.3599 20.28 14.6399L19.33 17.1299L16.67 17.2699C16.37 17.2899 16.09 17.4399 15.91 17.6799C15.73 17.9299 15.67 18.2399 15.75 18.5299L16.45 21.1099L14.37 22.7799C14.14 22.9699 14 23.2599 14 23.5599C14 23.8599 14.14 24.1499 14.37 24.3399L16.45 26.0099L15.75 28.5899C15.67 28.8799 15.73 29.1899 15.91 29.4399C16.09 29.6799 16.37 29.8299 16.67 29.8499L19.33 29.9899L20.28 32.4799C20.39 32.7599 20.62 32.9799 20.91 33.0699C21.2 33.1599 21.51 33.1199 21.76 32.9599L24 31.4999L26.24 32.9599C26.49 33.1199 26.8 33.1599 27.09 33.0699C27.38 32.9799 27.61 32.7599 27.72 32.4799L28.67 29.9899L31.33 29.8499C31.63 29.8299 31.91 29.6799 32.09 29.4399C32.27 29.1899 32.33 28.8799 32.25 28.5899L31.55 26.0099L33.63 24.3399Z" fill="#FEE600"/>
</svg>
