<svg width="48" height="48" viewBox="0 0 48 48" fill="none" xmlns="http://www.w3.org/2000/svg">
<rect width="48" height="48" rx="12" fill="#2B2D33"/>
<path d="M22.9959 20C22.9959 21.1 22.0959 22 20.9959 22C19.8959 22 18.9959 21.1 18.9959 20C18.9959 18.9 19.8959 18 20.9959 18C22.0959 18 22.9959 18.9 22.9959 20Z" fill="#FEE600"/>
<path fill-rule="evenodd" clip-rule="evenodd" d="M20.9859 14C22.3659 14 23.6959 14.47 24.7759 15.34C25.8459 16.21 26.5859 17.42 26.8659 18.77C27.1459 20.12 26.9559 21.52 26.3259 22.75C25.8059 23.77 24.9859 24.62 23.9959 25.19V28H24.9959C25.5459 28 25.9959 28.45 25.9959 29V33C25.9959 33.55 25.5459 34 24.9959 34H18.9959C18.4459 34 17.9959 33.55 17.9959 33V25.2C17.0059 24.63 16.1959 23.78 15.6659 22.76C15.0359 21.53 14.8459 20.13 15.1259 18.78C15.4059 17.43 16.1459 16.22 17.2059 15.35C18.2759 14.48 19.6059 14 20.9859 14ZM23.9959 30H21.9959V23.93L22.5959 23.67C23.4359 23.3 24.1359 22.65 24.5559 21.84C24.9759 21.02 25.1059 20.09 24.9159 19.19C24.7259 18.29 24.2359 17.48 23.5159 16.91C22.7959 16.31 21.9059 16 20.9859 16C20.0759 16 19.1859 16.32 18.4659 16.9C17.7559 17.48 17.2659 18.29 17.0759 19.19C16.8959 20.09 17.0259 21.02 17.4459 21.84C17.8659 22.66 18.5559 23.3 19.3959 23.67L19.9959 23.93V32H23.9959V30Z" fill="#FEE600"/>
<path d="M33.3059 23.3L34.7159 24.71L30.7259 28.7C30.3359 29.09 29.7059 29.09 29.3159 28.7L26.3259 25.71L27.7359 24.29L28.6959 25.25C29.4459 26 29.4759 26.78 28.9459 27.5L29.0259 27.58L33.3059 23.3Z" fill="#FEE600"/>
</svg>
