<svg width="48" height="48" viewBox="0 0 48 48" fill="none" xmlns="http://www.w3.org/2000/svg">
<rect width="48" height="48" rx="12" fill="#2B2D33"/>
<path d="M23 15.4999H22.88C22.69 16.4199 22.09 16.9999 21 16.9999V18.9999H19V15.4999H18.88C18.69 16.4199 18.09 16.9999 17 16.9999V30.9999H25V32.9999H16C15.45 32.9999 15 32.5499 15 31.9999V15.9999C15 15.4499 15.45 14.9999 16 14.9999H26V16.9999H25V18.9999H23V15.4999ZM25 26.9999H19V28.9999H25V26.9999ZM19 22.9999H25V24.9999H19V22.9999ZM32.5 27.9999H27.5V27.8799C28.42 27.6899 29 27.0899 29 25.9999V18.7699L30.03 17.0199L31 18.7899V25.9999C31 27.0899 31.58 27.6899 32.5 27.8799V27.9999ZM30 33.9999C31.66 33.9999 33 32.6599 33 30.9999V18.8199C33 18.4199 32.95 18.1999 32.79 17.8999L30.94 14.5199C30.76 14.1999 30.44 14.0099 30.08 13.9999C29.72 13.9899 29.38 14.1799 29.2 14.4899L27.23 17.8399C27.05 18.1399 27 18.3699 27 18.8199V30.9999C27 32.6599 28.34 33.9999 30 33.9999ZM30 31.9999C29.45 31.9999 29 31.5499 29 30.9999V29.9999H31V30.9999C31 31.5499 30.55 31.9999 30 31.9999Z" fill="#FEE600"/>
</svg>
