<svg width="48" height="48" viewBox="0 0 48 48" fill="none" xmlns="http://www.w3.org/2000/svg">
<rect width="48" height="48" rx="12" fill="#2B2D33"/>
<path d="M34 26.49C34 25.52 33.46 24.99 32.5 24.99H30.5V23.5H34V22H30.5C29.54 22 29 22.53 29 23.5V24.99C29 25.96 29.54 26.49 30.5 26.49H32.5V28.5H29V30H32.5C33.46 30 34 29.47 34 28.5V26.49ZM24 30H28V28.5H25.5V22H24V30ZM17.4 30H18.99L20.2 27.53L21.41 30H23L21 25.9L22.91 22H21.31L20.2 24.27L19.09 22H17.49L19.4 25.9L17.4 30ZM14 33C14 33.56 14.45 34 15 34H29C29.55 34 30 33.55 30 32.99V32H16V17.89C16 16.82 15.47 16.25 14.59 16.12V16H28V20H30V15C30 14.45 29.56 14 29 14H15C14.46 14 14 14.47 14 15V33Z" fill="#FEE600"/>
</svg>
