<svg width="24" height="24" viewBox="0 0 24 24" fill="none" xmlns="http://www.w3.org/2000/svg">
<path d="M22.33 13H17V11H21V9H7V11H5V9C5 7.9 5.9 7 7 7H21C22.1 7 23 7.9 23 9V19C23 20.1 22.1 21 21 21H7C5.9 21 5 20.1 5 19V17H7V19H21V15C21 14.03 21.48 13.38 22.33 13.12V13ZM1 6C1 4.34 2.34 3 4 3H19V5H4C3.45 5 3 5.45 3 6V17H1V6Z" fill="#FEE600"/>
<path d="M4.98 13.02H11.95V12.88C10.49 12.57 9.99 11.6 9.99 10.01H11.98C11.99 11.34 12.67 12.46 14.27 13.04C14.78 13.22 14.99 13.56 14.99 14.01C14.99 14.46 14.78 14.8 14.27 14.98C12.67 15.56 11.99 16.68 11.98 18.01H9.99C9.99 16.42 10.49 15.45 11.95 15.15V15.01H4.98V13.02Z" fill="#FEE600"/>
</svg>
