<svg width="24" height="24" viewBox="0 0 24 24" fill="none" xmlns="http://www.w3.org/2000/svg">
<path d="M2.67 10H12V8H4V7C4 6.45 4.45 6 5 6H20V4H5C3.34 4 2 5.34 2 7V17C2 18.66 3.34 20 5 20H20V18H5C4.45 18 4 17.55 4 17V12C4 11.03 3.52 10.38 2.67 10.12V10Z" fill="#FEE600"/>
<path d="M22 13.01H17.04V13.15C18.5 13.45 19 14.42 19 16.01H17.01C17 14.68 16.32 13.56 14.72 12.98C14.21 12.8 14 12.46 14 12.01C14 11.56 14.21 11.22 14.72 11.04C16.32 10.46 17 9.34 17.01 8.01H19C19 9.6 18.5 10.57 17.04 10.87V11.01H22V13.01Z" fill="#FEE600"/>
</svg>
