<svg width="24" height="24" viewBox="0 0 24 24" fill="none" xmlns="http://www.w3.org/2000/svg">
<path d="M3.76 12.35L9 18.47H9.17C8.55 17.65 8 16.36 8 14.8V12H10V20.1C10 20.97 8.8 21.3 8.24 20.65L3 14.53H2.83C3.45 15.35 4 16.64 4 18.2V21H2V13C2 12.01 3.17 11.67 3.76 12.35ZM18 21H12V19H18V21ZM14 15C14 14.45 14.45 14 15 14C15.55 14 16 14.45 16 15C16 15.55 15.55 16 15 16C14.45 16 14 15.55 14 15ZM15 12C13.34 12 12 13.34 12 15C12 16.66 13.34 18 15 18C16.66 18 18 16.66 18 15C18 13.34 16.66 12 15 12ZM4 7H20V6C20 5.45 19.55 5 19 5H5C4.45 5 4 5.45 4 6V7ZM21.33 9H4V10H2V6C2 4.34 3.34 3 5 3H19C20.66 3 22 4.34 22 6V19H20V11C20 10.03 20.48 9.38 21.33 9.12V9Z" fill="#FEE600"/>
</svg>
