<svg width="24" height="24" viewBox="0 0 24 24" fill="none" xmlns="http://www.w3.org/2000/svg">
<path d="M16 15C16 15 16 14 16 13C16 12.4 16.4 12 17 12C17.5 12 18 12.5 18 13V15H16ZM4 10C4 9 3.5 8.4 2.7 8.1V8H20V10H22V5C22 3.3 20.7 2 19 2H5C3.3 2 2 3.3 2 5V15C2 16.7 3.3 18 5 18H10V16H5C4.4 16 4 15.6 4 15V10ZM4 6V5C4 4.5 4.4 4 5 4H19C19.5 4 20 4.5 20 5V6H4ZM13 22H21C21.5 22 22 21.6 22 21V16C22 15.5 21.5 15 21 15H20V13C20 11.3 18.7 10 17 10C15.3 10 14 11.3 14 13V15H13C12.4 15 12 15.5 12 16V21C12 21.6 12.4 22 13 22ZM14 17H20V20H14V17Z" fill="#FEE600"/>
</svg>
