<svg width="24" height="24" viewBox="0 0 24 24" fill="none" xmlns="http://www.w3.org/2000/svg">
<path d="M2 19.59L3.41 21L12 12.41L10.59 11L2 19.59ZM4 7V6C4 5.45 4.45 5 5 5H19C19.55 5 20 5.45 20 6V7H4ZM10 21C11.1 21 12 20.1 12 19C12 17.89 11.1 17 10 17C8.89 17 8 17.89 8 19C8 20.1 8.89 21 10 21ZM4 14.99C5.1 14.99 6 14.09 6 12.99C6 11.88 5.1 10.99 4 10.99C2.89 10.99 2 11.88 2 12.99C2 14.09 2.89 14.99 4 14.99ZM14 19H19C20.66 19 22 17.66 22 16V6C22 4.34 20.66 3 19 3H5C3.34 3 2 4.34 2 6V9H21.33V9.12C20.48 9.38 20 10.03 20 11V16C20 16.55 19.55 17 19 17H14V19Z" fill="#FEE600"/>
</svg>
