<svg width="24" height="24" viewBox="0 0 24 24" fill="none" xmlns="http://www.w3.org/2000/svg">
<path d="M20 9.99V15C20 15.55 19.55 16 19 16H12V18H19C20.66 18 22 16.66 22 15V5C22 3.34 20.66 2 19 2H5C3.35 2 2 3.34 2 5V11H4V10C4 9.03 3.52 8.38 2.67 8.12V7.99H21.34V8.12C20.49 8.38 20.01 9.02 20 9.99ZM20 6H4V5C4 4.45 4.45 4 5 4H19C19.55 4 20 4.45 20 5V6Z" fill="#FEE600"/>
<path d="M7 12V18.96H7.14C7.44 17.5 8.41 17 10 17V18.99C8.67 19 7.55 19.68 6.97 21.28C6.79 21.79 6.45 22 6 22C5.55 22 5.21 21.79 5.03 21.28C4.45 19.68 3.33 19 2 18.99V17C3.59 17 4.56 17.5 4.86 18.96H5V12H7Z" fill="#FEE600"/>
</svg>
