<svg width="24" height="24" viewBox="0 0 24 24" fill="none" xmlns="http://www.w3.org/2000/svg">
<path d="M17.5 7.6C17.1 7.1 17 6.8 17 6.3V2C17 1.5 16.5 1 16 1H8C7.5 1 7 1.5 7 2V6.3C7 6.8 6.9 7.1 6.5 7.6C5.6 8.8 5 10.3 5 12C5 13.7 5.6 15.2 6.5 16.4C6.9 16.9 7 17.2 7 17.7V22C7 22.6 7.5 23 8 23H16C16.5 23 17 22.6 17 22V17.7C17 17.2 17.1 16.9 17.5 16.4C18.5 15.2 19 13.7 19 12C19 10.3 18.4 8.8 17.5 7.6ZM9 4.7V3H15V4.7C15 5.3 15.3 5.6 15.8 6L15.7 6.1C14.6 5.4 13.4 5 12 5C10.6 5 9.4 5.4 8.3 6.1L8.2 6C8.7 5.6 9 5.2 9 4.7ZM12 7C14.8 7 17 9.2 17 12C17 14.8 14.8 17 12 17C9.2 17 7 14.8 7 12C7 9.2 9.2 7 12 7ZM15 19.3V21H9V19.3C9 18.7 8.7 18.4 8.2 18L8.3 17.9C9.4 18.6 10.6 19 12 19C13.4 19 14.6 18.6 15.7 17.9L15.8 18C15.3 18.4 15 18.8 15 19.3Z" fill="#FEE600"/>
<path d="M13.3 14.7L14.7 13.3L13 11.6V9H11V12C11 12.3 11.1 12.5 11.3 12.7L13.3 14.7Z" fill="#FEE600"/>
</svg>
