<svg width="24" height="24" viewBox="0 0 24 24" fill="none" xmlns="http://www.w3.org/2000/svg">
<path fill-rule="evenodd" clip-rule="evenodd" d="M8.50005 3.3C7.80005 2.2 6.30005 2 5.30005 2.9L2.80005 5.4C2.30005 6 1.90005 6.7 2.00005 7.6C2.20005 9.4 3.00005 13.4 6.70005 17C10.3 20.6 14.3 21.4 16 21.7C16.9 21.8 17.7 21.5 18.2 20.9L20.7 18.4C21.6 17.5 21.4 15.9 20.3 15.3L17.1 13.4C16.3 12.9 15.3 13.1 14.7 13.7L13.7 14.7C13.3 14.5 12.4 14 11.1 12.7C9.80005 11.2 9.30005 10.4 9.10005 10L10.1 9C10.7 8.4 10.9 7.3 10.4 6.6L8.50005 3.3ZM4.20005 6.8L6.70005 4.3L8.60005 7.5L7.50005 8.7C7.20005 9 6.80005 9.7 7.10005 10.4C7.30005 11.1 8.00005 12.2 9.70005 14C11.4 15.7 12.6 16.4 13.3 16.6C14 16.8 14.6 16.5 15 16.2L16.2 15L19.4 16.9L16.9 19.4C16.7 19.6 16.5 19.7 16.3 19.6C14.8 19.4 11.3 18.7 8.10005 15.5C4.90005 12.4 4.20005 8.9 4.00005 7.4C4.00005 7.2 4.00005 7 4.20005 6.8Z" fill="#FEE600"/>
<path d="M21.7 3.4L17.2 7.9L17.3 8C18.5 7.2 19.7 7.6 20.7 8.6L19.3 10C18.4 9.1 17.1 8.7 15.6 9.5C15.1 9.7 14.7 9.6 14.4 9.3C14 9 13.9 8.6 14.1 8.2C14.8 6.7 14.5 5.4 13.6 4.5L15 3C16.1 4.1 16.5 5.2 15.6 6.4L15.7 6.5L20.3 2L21.7 3.4Z" fill="#FEE600"/>
</svg>
