<svg width="24" height="24" viewBox="0 0 24 24" fill="none" xmlns="http://www.w3.org/2000/svg">
<path fill-rule="evenodd" clip-rule="evenodd" d="M8.50005 3C7.80005 1.9 6.30005 1.7 5.30005 2.6L2.80005 5.1C2.30005 5.7 1.90005 6.4 2.00005 7.3C2.20005 9.1 3.00005 13.1 6.70005 16.7C10.3 20.3 14.3 21.1 16 21.4C16.9 21.5 17.7 21.2 18.2 20.6L20.7 18.1C21.6 17.2 21.4 15.6 20.3 15L17.1 13.1C16.3 12.6 15.3 12.8 14.7 13.4L13.7 14.4C13.3 14.2 12.4 13.7 11.1 12.4C9.80005 11.1 9.30005 10.3 9.10005 9.8L10.1 8.8C10.8 8 10.9 7 10.4 6.2L8.50005 3ZM4.20005 6.5L6.80005 4L8.70005 7.2L7.50005 8.4C7.20005 8.7 6.80005 9.4 7.10005 10.1C7.30005 10.8 8.00005 11.9 9.70005 13.6C11.4 15.3 12.6 16 13.3 16.2C14 16.4 14.6 16.1 15 15.8L16.2 14.6L19.4 16.5L16.9 19C16.7 19.2 16.5 19.3 16.3 19.2C14.8 19 11.3 18.3 8.10005 15.1C4.90005 12.1 4.20005 8.6 4.00005 7.1C4.00005 6.9 4.00005 6.7 4.20005 6.5Z" fill="#FEE600"/>
<path d="M13.2 8.7L17.7 4.2L17.6 4.1C16.4 4.9 15.2 4.5 14.2 3.5L15.7 2C16.6 2.9 17.9 3.3 19.4 2.5C19.9 2.3 20.3 2.4 20.6 2.7C20.9 3 21 3.4 20.8 3.9C20.1 5.4 20.4 6.7 21.3 7.6L19.9 9C18.8 7.9 18.4 6.8 19.3 5.6L19.2 5.5L14.7 10L13.2 8.7Z" fill="#FEE600"/>
</svg>
