<svg width="24" height="24" viewBox="0 0 24 24" fill="none" xmlns="http://www.w3.org/2000/svg">
<path d="M14.6 10V9.9C15.5 9.7 16 9.2 16 8C16 6.3 14.7 5 13 5H7.3L3.6 2.2C3.3 2 2.9 1.9 2.6 2.1C2.2 2.3 2 2.6 2 3V7H4V5L6.4 6.8C6.6 6.9 6.8 7 7 7H13C13.6 7 14 7.5 14 8V10H3C2.4 10 2 10.4 2 11V21C2 21.5 2.4 22 3 22H17C17.6 22 18 21.5 18 21V18.6L20.5 19.9C20.8 20.1 21.2 20 21.5 19.9C21.8 19.7 22 19.4 22 19V12C22 11.6 21.8 11.3 21.5 11.1C21.2 10.9 20.8 10.9 20.5 11.1L18 12.4V11C18 10.4 17.6 10 17 10H14.6ZM16 12V20H4V12H16ZM18 16.3V14.6L20 13.6V17.3L18 16.3ZM13 16.5C13.8 16.5 14.5 15.8 14.5 15C14.5 14.2 13.8 13.5 13 13.5C12.2 13.5 11.5 14.2 11.5 15C11.5 15.8 12.2 16.5 13 16.5Z" fill="#FEE600"/>
</svg>
