<svg width="24" height="24" viewBox="0 0 24 24" fill="none" xmlns="http://www.w3.org/2000/svg">
<path d="M21 9C21 6.2 18.8 4 16 4C14.7 4 13.6 4.5 12.7 5.3C12 3.4 10.2 2 8 2C5.2 2 3 4.2 3 7C3 9.4 4.7 11.4 7 11.9V19C7 19.5 7.5 20 8 20H11V21C11 21.5 11.5 22 12 22H16C16.6 22 17 21.5 17 21V13.9C19.3 13.4 21 11.4 21 9ZM9 18V8H7V11.1H6.9C6.8 10.2 6.7 9.8 6 9.2C5.4 8.6 5 7.9 5 7C5 5.3 6.3 4 8 4C9.7 4 11 5.3 11 7V18H9ZM18.1 11.2C17.4 11.8 17.2 12.2 17.2 13.1H17V10H15V20H13V9C13 7.3 14.3 6 16 6C17.7 6 19 7.3 19 9C19 9.9 18.6 10.6 18.1 11.2Z" fill="#FEE600"/>
</svg>
