<svg width="24" height="24" viewBox="0 0 24 24" fill="none" xmlns="http://www.w3.org/2000/svg">
<path d="M19.9104 11.1C19.9104 10.5 19.9104 10.2 19.9104 10C19.9104 5.6 16.3284 2 11.9502 2C7.57214 2 3.99005 5.6 3.99005 10C3.99005 10.2 3.99005 10.6 3.99005 11.1C3.99005 13.7 2 13.1 2 16V18C2 19.7 3.29353 21 4.98507 21H6.97512C7.47264 21 7.97015 20.5 7.97015 20V14C7.97015 13.4 7.57214 13 6.97512 13H4.98507C4.78607 13 4.68657 13 4.58706 13V12.9C5.28358 12.7 5.9801 12.1 5.9801 11.1C5.9801 10.5 5.9801 10.1 5.9801 10C5.9801 6.7 8.66667 4 11.9502 4C15.2338 4 17.9204 6.7 17.9204 10C17.9204 10.2 17.9204 10.5 17.9204 11.1C17.9204 12.1 18.6169 12.7 19.4129 12.9V13C19.3134 13 19.1144 13 19.0149 13H17.0249C16.5274 13 16.0299 13.5 16.0299 14V20C16.0299 20.6 16.4279 21 17.0249 21H19.0149C20.607 21 22 19.7 22 18V16C21.9005 13.1 19.9104 13.8 19.9104 11.1ZM5.9801 15V19H4.98507C4.48756 19 3.99005 18.5 3.99005 18V16C3.99005 15.4 4.38806 15 4.98507 15H5.9801ZM19.9104 18C19.9104 18.6 19.5124 19 18.9154 19H17.9204V15H18.9154C19.4129 15 19.9104 15.5 19.9104 16V18Z" fill="#FEE600"/>
</svg>
