<svg width="24" height="24" viewBox="0 0 24 24" fill="none" xmlns="http://www.w3.org/2000/svg">
<path d="M12 2C6.5 2 2 6.5 2 12C2 14.2 2.7 16.3 4 18H7C7.6 18 8 17.6 8 17V12C8 11.4 7.6 11 7 11H3V10.9C3.7 10.9 4.1 10.6 4.2 10C5.1 6.6 8.2 4 12 4C15.8 4 18.9 6.6 19.8 10C19.9 10.6 20.3 10.9 21 10.9V11H17C16.4 11 16 11.4 16 12V17C16 17.6 16.4 18 17 18H17.3C15.9 19.2 14 20 12 20V22C17.5 22 22 17.5 22 12C22 6.5 17.5 2 12 2ZM6 16H5.1C4.6 15.1 4.2 14.1 4.1 13H6V16ZM18 13H19.9C19.8 14.1 19.4 15.1 18.9 16H18V13Z" fill="#FEE600"/>
</svg>
