<svg width="24" height="24" viewBox="0 0 24 24" fill="none" xmlns="http://www.w3.org/2000/svg">
<path d="M6.19813 6.17995C4.35942 6.95873 2.69019 8.09958 1.28516 9.53627L2.71503 10.9346C3.93644 9.68572 5.38525 8.69624 6.97814 8.02157C8.57098 7.34693 10.2774 7 12.0001 7C13.7228 7 15.4292 7.34693 17.0221 8.02157C18.6149 8.69624 20.0638 9.68572 21.2852 10.9346L22.715 9.53627C21.31 8.09958 19.6408 6.95872 17.8021 6.17995C15.9633 5.40115 13.9917 5 12.0001 5C10.0085 5 8.03689 5.40115 6.19813 6.17995Z" fill="#FEE600"/>
<path d="M7.7444 9.99709C6.39592 10.5682 5.17213 11.4048 4.1423 12.4578L5.57218 13.8562C6.41838 12.9909 7.42175 12.3057 8.52442 11.8387C9.62703 11.3717 10.808 11.1316 12.0001 11.1316C13.1922 11.1316 14.3732 11.3717 15.4758 11.8387C16.5784 12.3057 17.5818 12.9909 18.428 13.8562L19.8579 12.4578C18.8281 11.4048 17.6043 10.5682 16.2558 9.99709C14.9073 9.42592 13.4611 9.13164 12.0001 9.13164C10.5391 9.13164 9.09294 9.42592 7.7444 9.99709Z" fill="#FEE600"/>
<path d="M9.29068 13.8142C8.43242 14.1777 7.65406 14.7099 6.99944 15.3793L8.42932 16.7777C8.90032 16.2961 9.45826 15.9152 10.0707 15.6559C10.6831 15.3965 11.3386 15.2633 12.0001 15.2633C12.6616 15.2633 13.3171 15.3965 13.9295 15.6559C14.5419 15.9152 15.0999 16.2961 15.5709 16.7777L17.0007 15.3793C16.3461 14.7099 15.5678 14.1777 14.7095 13.8142C13.8512 13.4507 12.9305 13.2633 12.0001 13.2633C11.0697 13.2633 10.149 13.4507 9.29068 13.8142Z" fill="#FEE600"/>
<path d="M12.0001 21C13.1047 21 14.0001 20.1046 14.0001 19C14.0001 17.8954 13.1047 17 12.0001 17C10.8955 17 10.0001 17.8954 10.0001 19C10.0001 20.1046 10.8955 21 12.0001 21Z" fill="#FEE600"/>
</svg>
