<svg width="24" height="24" viewBox="0 0 24 24" fill="none" xmlns="http://www.w3.org/2000/svg">
<path d="M14.9 14.7H14.8C14.4 16 13.2 17 11.5 17C8.9 17 7 14.6 7 12C7 9.4 8.9 7 11.5 7C12.8 7 13.6 7.7 13.9 9.2H14V7H16V12C16 14.1 16.9 15 18 15C19.5 15 20 14.1 20 12C20 7.6 16.4 4 12 4C7.6 4 4 7.6 4 12C4 16.4 7.6 20 12 20H16V22H12C6.5 22 2 17.5 2 12C2 6.5 6.5 2 12 2C17.5 2 22 6.5 22 12C22 15.2 20.6 17 18 17C16.5 17 15.1 16 14.9 14.7ZM14 12C14 10.2 12.8 9 11.5 9C10.2 9 9 10.2 9 12C9 13.8 10.2 15 11.5 15C12.8 15 14 13.8 14 12Z" fill="#FEE600"/>
</svg>
