<svg width="24" height="24" viewBox="0 0 24 24" fill="none" xmlns="http://www.w3.org/2000/svg">
<path d="M10 18.5C10.8 18.5 11.5 17.8 11.5 17C11.5 16.2 10.8 15.5 10 15.5C9.2 15.5 8.5 16.2 8.5 17C8.5 17.8 9.2 18.5 10 18.5ZM3.6 4H14V2H5C3.9 2 3 2.9 3 4V20C3 21.1 3.9 22 5 22H15C16.1 22 17 21.1 17 20V15H15V20H5V5.9C5 4.8 4.5 4.3 3.6 4.1V4Z" fill="#FEE600"/>
<path fill-rule="evenodd" clip-rule="evenodd" d="M15.2 11.2L20.7 5.7L19.3 4.3L14.5 9.1L12.7 7.3L11.3 8.7L13.8 11.2C14.2 11.6 14.8 11.6 15.2 11.2Z" fill="#FEE600"/>
</svg>
