<svg width="24" height="24" viewBox="0 0 24 24" fill="none" xmlns="http://www.w3.org/2000/svg">
<path d="M18.5 12C18.5 11.3096 17.9404 10.75 17.25 10.75C16.5596 10.75 16 11.3096 16 12C16 12.6904 16.5596 13.25 17.25 13.25C17.9404 13.25 18.5 12.6904 18.5 12Z" fill="#FEE600"/>
<path fill-rule="evenodd" clip-rule="evenodd" d="M2 18C2 19.6569 3.34315 21 5 21H19C20.6569 21 22 19.6569 22 18V6C22 4.34315 20.6569 3 19 3L5 3C3.34315 3 2 4.34315 2 6L2 18ZM5 19C4.44772 19 4 18.5523 4 18L4 6C4 5.44772 4.44772 5 5 5L19 5C19.5523 5 20 5.44772 20 6V18C20 18.5523 19.5523 19 19 19H5Z" fill="#FEE600"/>
</svg>
