<svg width="24" height="24" viewBox="0 0 24 24" fill="none" xmlns="http://www.w3.org/2000/svg">
<path d="M12 18.5C12.6904 18.5 13.25 17.9404 13.25 17.25C13.25 16.5596 12.6904 16 12 16C11.3096 16 10.75 16.5596 10.75 17.25C10.75 17.9404 11.3096 18.5 12 18.5Z" fill="#FEE600"/>
<path fill-rule="evenodd" clip-rule="evenodd" d="M6 2C4.34315 2 3 3.34315 3 5V19C3 20.6569 4.34315 22 6 22H18C19.6569 22 21 20.6569 21 19V5C21 3.34315 19.6569 2 18 2H6ZM5 5C5 4.44772 5.44772 4 6 4H18C18.5523 4 19 4.44772 19 5V19C19 19.5523 18.5523 20 18 20H6C5.44772 20 5 19.5523 5 19V5Z" fill="#FEE600"/>
</svg>
