<svg width="24" height="24" viewBox="0 0 24 24" fill="none" xmlns="http://www.w3.org/2000/svg">
<path d="M17.0614 2.60896C16.0908 2.20693 15.0505 2 13.9999 2V4C14.7879 4 15.5681 4.15519 16.296 4.45672C17.024 4.75825 17.6854 5.20021 18.2426 5.75736C18.7997 6.31451 19.2417 6.97595 19.5432 7.7039C19.8447 8.43185 19.9999 9.21207 19.9999 10H21.9999C21.9999 8.94943 21.793 7.90914 21.391 6.93853C20.9889 5.96793 20.3997 5.08601 19.6568 4.34315C18.9139 3.60028 18.032 3.011 17.0614 2.60896Z" fill="#FEE600"/>
<path fill-rule="evenodd" clip-rule="evenodd" d="M5.38717 3.19854C6.30722 2.27849 7.84694 2.46804 8.51638 3.58376L10.4557 6.816C10.9279 7.60295 10.8039 8.61026 10.1549 9.2592L9.12854 10.2856C9.33831 10.7157 9.86454 11.5457 11.1594 12.8405C12.4542 14.1354 13.2843 14.6616 13.7143 14.8714L14.7407 13.845C15.3897 13.196 16.397 13.072 17.1839 13.5442L20.4162 15.4836C21.5319 16.153 21.7214 17.6927 20.8014 18.6128L18.2928 21.1213C17.7364 21.6777 16.933 22.037 16.0524 21.9273C14.3057 21.7098 10.3595 20.8308 6.73804 17.2747C3.08244 13.6852 2.24681 9.66616 2.05647 7.91338C1.96241 7.0472 2.32119 6.26453 2.86545 5.72027L5.38717 3.19854ZM6.80139 4.61275L4.27966 7.13448C4.08939 7.32476 4.0267 7.53092 4.04478 7.69746C4.20515 9.17427 4.92463 12.6911 8.13931 15.8477C11.3465 18.997 14.8229 19.7587 16.2996 19.9426C16.4718 19.9641 16.6849 19.9008 16.8786 19.7071L19.3872 17.1985L16.1549 15.2592L14.9766 16.4375C14.6374 16.7767 14.0183 17.1121 13.3023 16.8642C12.6086 16.6241 11.4667 15.9763 9.74518 14.2547C8.02364 12.5332 7.37584 11.3913 7.13569 10.6976C6.88781 9.98162 7.22324 9.36248 7.56243 9.02328L8.74073 7.84499L6.80139 4.61275Z" fill="#FEE600"/>
<path d="M13.9999 6C14.5252 6 15.0454 6.10346 15.5307 6.30448C16.016 6.5055 16.4569 6.80014 16.8284 7.17157C17.1998 7.54301 17.4944 7.98396 17.6955 8.46927C17.8965 8.95457 17.9999 9.47471 17.9999 10H15.9999C15.9999 9.73736 15.9482 9.47728 15.8477 9.23463C15.7472 8.99198 15.5999 8.7715 15.4142 8.58579C15.2284 8.40007 15.008 8.25275 14.7653 8.15224C14.5227 8.05173 14.2626 8 13.9999 8V6Z" fill="#FEE600"/>
</svg>
