<svg width="24" height="24" viewBox="0 0 24 24" fill="none" xmlns="http://www.w3.org/2000/svg">
<path d="M18.4 19.7C20.6 17.9 22 15.1 22 12C22 8.9 20.6 6.2 18.4 4.3L17.1 5.8C18.9 7.3 20 9.5 20 12C20 14.5 18.9 16.7 17.1 18.1L18.4 19.7ZM15.9 16.6C17.2 15.5 18 13.8 18 12C18 10.2 17.2 8.5 15.9 7.4L14.6 8.9C15.4 9.7 16 10.8 16 12C16 13.2 15.4 14.3 14.6 15.1L15.9 16.6ZM2.6 9H6C6.2 9 6.5 8.9 6.6 8.8L11 5.1V18.8L6.6 15.2C6.5 15.1 6.2 15 6 15H4V10.9C4 9.8 3.5 9.3 2.6 9.1V9ZM12.4 21.9C12.7 21.7 13 21.4 13 21V3C13 2.6 12.8 2.3 12.4 2.1C12.1 1.9 11.7 2 11.4 2.2L5.6 7H3C2.4 7 2 7.5 2 8V16C2 16.6 2.4 17 3 17H5.6L11.3 21.8C11.7 22 12.1 22.1 12.4 21.9Z" fill="#FEE600"/>
</svg>
