<svg width="24" height="24" viewBox="0 0 24 24" fill="none" xmlns="http://www.w3.org/2000/svg">
<path d="M12.9 11.1C13.8 12 14.9 12.8 16.1 13.3C17.3 13.8 19 14.2 21 14.1V14.2C20.1 14.3 19.6 14.6 19.3 15.3C19.1 15.7 18.9 16.1 18.6 16.5C17.7 17.8 16.5 18.9 15 19.4C13.5 20 11.9 20.2 10.4 19.9C8.8 19.6 7.4 18.8 6.3 17.7C5.2 16.6 4.4 15.1 4.1 13.6C3.8 12 4 10.4 4.6 8.9C5.2 7.4 6.2 6.2 7.5 5.3C7.9 5 8.3 4.8 8.7 4.6C9.4 4.3 9.8 3.8 9.8 2.9H9.9C9.8 4.9 10.1 6.6 10.7 7.8C11.3 9 12 10.1 12.9 11.1ZM20 12C18.9 12 17.9 11.8 16.9 11.4C15.9 11 15 10.4 14.3 9.7C13.6 8.9 13 8 12.6 7.1C12.2 6.1 12 5 12 4H12.1L20 12ZM10 21.8C11.9 22.2 13.9 22 15.8 21.2C17.7 20.4 19.2 19.2 20.3 17.5C21.4 15.9 22 14 22 12V11.9C22 11.4 21.8 10.9 21.4 10.5L13.5 2.6C13.1 2.2 12.6 2 12.1 2H12C10 2 8.1 2.6 6.4 3.7C4.8 4.8 3.5 6.3 2.8 8.2C2 10 1.8 12 2.2 13.9C2.6 15.8 3.5 17.6 4.9 19C6.3 20.4 8.1 21.4 10 21.8Z" fill="#FEE600"/>
</svg>
