<svg width="24" height="24" viewBox="0 0 24 24" fill="none" xmlns="http://www.w3.org/2000/svg">
<path d="M6.9 11.2C6.9 8.7 6 8.7 6 7C6 4.8 7.8 3 10 3C12.2 3 14 4.8 14 7C14 8.7 13.1 8.7 13.1 11.2H13V8C13 6.3 11.7 5 10 5C8.3 5 7 6.3 7 8V11.2H6.9ZM9 20V8C9 7.4 9.4 7 10 7C10.6 7 11 7.4 11 8V13.5C11 14.1 11.4 14.5 12 14.5H17C18.1 14.5 19 15.4 19 16.5V20H9ZM8 22H20C20.5 22 21 21.5 21 21V16.5C21 14.3 19.2 12.5 17 12.5H13V12.2C14.8 11.2 16 9.2 16 7C16 3.7 13.3 1 10 1C6.7 1 4 3.7 4 7C4 9.2 5.2 11.2 7 12.2V21C7 21.5 7.5 22 8 22Z" fill="#FEE600"/>
</svg>
