<svg width="24" height="24" viewBox="0 0 24 24" fill="none" xmlns="http://www.w3.org/2000/svg">
<path d="M5 16C4.4 16 4 15.6 4 15V5C4 4.5 4.4 4 5 4H19C19.5 4 20 4.5 20 5V15C20 15.6 19.5 16 19 16H5ZM13 19.9C13 18.8 12.5 18.3 11.6 18.1V18H19C20.6 18 22 16.7 22 15V5C22 3.3 20.6 2 19 2H5C3.3 2 2 3.3 2 5V15C2 16.7 3.3 18 5 18H11V20H8V22H16V20H13V19.9Z" fill="#FEE600"/>
<path fill-rule="evenodd" clip-rule="evenodd" d="M15.6 9.2L10.6 5.7C10.3 5.5 9.9 5.5 9.6 5.6C9.3 5.8 9.1 6.1 9.1 6.5V13.5C9.1 13.9 9.3 14.2 9.6 14.4C9.9 14.6 10.3 14.5 10.6 14.3L15.6 10.8C15.9 10.6 16 10.3 16 10C16.1 9.7 15.9 9.4 15.6 9.2ZM11.1 11.6V8.4L13.3 10L11.1 11.6Z" fill="#FEE600"/>
</svg>
