<svg width="48" height="48" viewBox="0 0 48 48" fill="none" xmlns="http://www.w3.org/2000/svg">
<rect width="48" height="48" rx="12" fill="#2B2D33"/>
<path d="M34 23V19C34 18.45 33.55 18 33 18H29C28.45 18 28 18.45 28 19V24.33H27.87C27.77 23.49 27.16 23 26.4 23H20V19C20 18.45 19.55 18 19 18H15C14.45 18 14 18.45 14 19V23H13V25H14V29C14 29.55 14.45 30 15 30H19C19.55 30 20 29.55 20 29V23.67H20.13C20.23 24.51 20.84 25 21.6 25H28V29C28 29.55 28.45 30 29 30H33C33.55 30 34 29.55 34 29V25H35V23H34ZM18 28H16V20H18V28ZM32 28H30V20H32V28Z" fill="white"/>
</svg>
