<svg width="48" height="48" viewBox="0 0 48 48" fill="none" xmlns="http://www.w3.org/2000/svg">
<rect width="48" height="48" rx="12" fill="#2B2D33"/>
<path d="M30 30C28.9 30 28 29.1 28 28V21C28 19.9 28.9 19 30 19C31.11 19 32 19.9 32 21V28C32 29.1 31.11 30 30 30ZM27.18 25.12C26.39 25.2 26 25.61 26 26.59V28C26 28.7 26.18 29.37 26.5 29.94C25.62 29.9 24.67 29.85 23.77 29.76C22.55 29.63 21.47 29.45 20.72 29.21C20.34 29.08 20 29.01 20 28.87V20C20 18.9 20.9 18 22 18H25.67C25.85 18 26 18.15 26 18.33V23H25C24.45 23 24 22.55 24 22V20H22V22C22 23.66 23.35 25 25 25H27.18V25.12ZM16 28V21H18V28H16ZM29.99 32H30C32.21 32 34 30.21 34 28V21C34 18.79 32.21 17 30 17C29.22 17 28.5 17.22 27.89 17.6C27.58 16.67 26.7 16 25.67 16H22C20.14 16 18.57 17.27 18.13 19H15C14.45 19 14 19.45 14 20V29C14 29.55 14.45 30 15 30H18.33C18.46 30.18 18.61 30.33 18.77 30.45C19.14 30.74 19.62 30.95 20.1 31.11C21.06 31.42 22.31 31.62 23.57 31.75C26.09 32 28.88 32 29.99 32Z" fill="white"/>
</svg>
