<svg width="48" height="48" viewBox="0 0 48 48" fill="none" xmlns="http://www.w3.org/2000/svg">
<rect width="48" height="48" rx="12" fill="#2B2D33"/>
<path d="M27.2414 28H28.5414C27.9814 27.09 27.2814 25.89 27.1014 25.34C27.0114 25.06 27.0014 24.98 27.0014 24.7V21H28.0014V19H20.0014V21H21.0014V24.7C21.0014 24.98 20.9914 25.06 20.9014 25.34C20.7214 25.89 20.0214 27.09 19.4614 28H19.0014C18.5414 28 18.1414 28.31 18.0314 28.76L17.0314 32.76C16.8714 33.41 17.3414 34 18.0014 34H30.0014C30.6614 34 31.1314 33.38 30.9714 32.76L29.9714 28.76C29.8614 28.31 29.4614 28 29.0014 28H20.7614V27.88C21.9314 27.78 22.1114 27.58 22.7214 26.21C22.9614 25.67 23.0014 25.51 23.0014 24.7V21H25.0014V24.7C25.0014 25.51 25.0414 25.67 25.2814 26.21C25.8914 27.58 26.0714 27.78 27.2414 27.88V28ZM24.0014 17C23.4514 17 23.0014 16.55 23.0014 16C23.0014 15.45 23.4514 15 24.0014 15C24.5514 15 25.0014 15.45 25.0014 16C25.0014 16.55 24.5514 17 24.0014 17ZM24.0014 19C25.6514 19 27.0014 17.65 27.0014 16C27.0014 14.35 25.6514 13 24.0014 13C22.3514 13 21.0014 14.35 21.0014 16C21.0014 17.65 22.3514 19 24.0014 19ZM19.2814 32L19.7814 30H28.2214L28.7214 32H19.2814Z" fill="white"/>
</svg>
