<svg width="48" height="48" viewBox="0 0 48 48" fill="none" xmlns="http://www.w3.org/2000/svg">
<rect width="48" height="48" rx="12" fill="#2B2D33"/>
<path d="M31 25V27H29V29H31V30C31 31.65 29.65 33 28 33C26.35 33 25 31.65 25 30V27.87C26.07 27.59 26.98 26.89 27.64 25.98C28.5 24.79 29 23.21 29 21.5C29 19.79 28.5 18.21 27.64 17.02C27.04 16.2 26.25 15.55 25.32 15.22C25.43 15.01 25.5 14.76 25.5 14.5C25.5 13.67 24.83 13 24 13C23.17 13 22.5 13.67 22.5 14.5C22.5 14.76 22.57 15.01 22.69 15.22C21.76 15.55 20.96 16.2 20.36 17.02C19.5 18.21 19 19.79 19 21.5C19 23.21 19.5 24.79 20.36 25.98C21.03 26.89 21.93 27.59 23 27.87V30C23 31.65 21.65 33 20 33C18.35 33 17 31.65 17 30V29H19V27H17V25H15V30C15 32.76 17.25 35 20 35C21.57 35 23.08 34.26 24 33C24.9 34.22 26.41 35 28 35C30.77 35 33 32.76 33 30V25H31ZM21.98 18.2C22.57 17.39 23.3 17 24 17C24.71 17 25.43 17.39 26.02 18.2C26.19 18.44 26.35 18.7 26.48 19C26.19 19.64 25.81 20.14 25.38 20.48C24.93 20.84 24.45 21 24 21C23.55 21 23.07 20.84 22.62 20.48C22.2 20.14 21.81 19.64 21.52 19C21.65 18.7 21.81 18.44 21.98 18.2ZM24 26C22.34 26 21 23.98 21 21.49C21 21.22 20.99 20.96 21 20.7H21.12C21.25 22.26 22.24 23 24 23C25.74 23 26.71 22.3 26.85 20.7H26.96C26.98 20.96 27 21.22 27 21.49C27 23.98 25.66 26 24 26Z" fill="white"/>
</svg>
