<svg width="48" height="48" viewBox="0 0 48 48" fill="none" xmlns="http://www.w3.org/2000/svg">
<rect width="48" height="48" rx="12" fill="#2B2D33"/>
<path d="M23 24H21V30H23V24Z" fill="white"/>
<path d="M29 20H27V15H28V13H20V15H21V18C21 18.97 21.49 19.61 22.33 19.88V20H19C17.9 20 17 20.9 17 22V32C17 33.1 17.9 34 19 34H19.09C19.29 34.58 19.85 35 20.5 35C21.16 35 21.71 34.58 21.92 34H26.09C26.29 34.58 26.85 35 27.5 35C28.15 35 28.71 34.58 28.92 34H29C30.11 34 31 33.1 31 32V22C31 20.9 30.11 20 29 20ZM23 15H25V18C25 18.97 25.49 19.61 26.33 19.88V20H23V15ZM29 32H19V22H29V32Z" fill="white"/>
<path d="M27 24H25V30H27V24Z" fill="white"/>
</svg>
