<svg width="48" height="48" viewBox="0 0 48 48" fill="none" xmlns="http://www.w3.org/2000/svg">
<rect width="48" height="48" rx="12" fill="#2B2D33"/>
<path d="M24.66 17.74V17.66C25.37 17.56 25.83 17.3 26.32 16.81L28.71 14.42L27.29 13L24 16.3L20.71 13L19.29 14.42L21.68 16.81C22.17 17.3 22.63 17.57 23.34 17.66V17.74C19.23 18.08 16 21.51 16 25.71C16 30.13 19.58 33.71 24 33.71C28.42 33.71 32 30.13 32 25.71C32 21.51 28.77 18.08 24.66 17.74ZM24 31.71C20.69 31.71 18 29.02 18 25.71C18 22.4 20.69 19.71 24 19.71C27.32 19.71 30 22.4 30 25.71C30 29.02 27.32 31.71 24 31.71Z" fill="white"/>
<path d="M25 22.71C25 22.1 24.59 21.71 24 21.71H22V23.71H23V27.71H22V29.71H26V27.71H25V22.71Z" fill="white"/>
</svg>
