<svg width="48" height="48" viewBox="0 0 48 48" fill="none" xmlns="http://www.w3.org/2000/svg">
<rect width="48" height="48" rx="12" fill="#2B2D33"/>
<path d="M24.74 28.92L24.73 29.04C27.55 29.2 30.58 30.52 32.46 32.29L31.05 33.71C29.62 32.44 27.08 31 23.76 31C21.1 31 18.51 31.93 16.47 33.71L15.05 32.29C17.42 30.19 20.31 29.11 23.34 29.01C24.8 27.55 25.76 25.18 25.76 23C25.76 21.29 25.25 19.88 24.66 18.82C24.21 18.94 23.75 19.16 23.38 19.53C22.83 20.08 22.61 20.8 22.55 21.44C22.52 21.76 22.53 22.04 22.55 22.24C22.56 22.33 22.57 22.41 22.58 22.46C22.58 22.48 22.59 22.5 22.59 22.51C22.59 22.51 22.59 22.51 21.61 22.71C20.63 22.92 20.63 22.92 20.63 22.92V22.91L20.62 22.9V22.87C20.61 22.84 20.61 22.8 20.6 22.76C20.59 22.68 20.57 22.56 20.56 22.41C20.53 22.12 20.52 21.72 20.56 21.26C20.63 20.5 20.87 19.51 21.52 18.63C21.27 18.73 21.02 18.85 20.76 19C19.6 19.67 18.88 20.58 18.45 21.33C18.23 21.71 18.09 22.04 18.01 22.27C17.97 22.39 17.94 22.47 17.92 22.53C17.91 22.56 17.91 22.58 17.9 22.59V22.6C17.9 22.6 17.9 22.59 16.93 22.37C15.96 22.14 15.96 22.14 15.96 22.14V22.12L15.97 22.08C15.98 22.05 15.99 22.02 16 21.97C16.03 21.87 16.07 21.74 16.13 21.58C16.25 21.26 16.43 20.83 16.71 20.34C17.27 19.37 18.22 18.16 19.76 17.27C20.56 16.8 21.36 16.52 22.1 16.36C21.57 16.15 20.96 16 20.26 16C19.1 16 18.16 16.41 17.5 16.84C17.17 17.05 16.91 17.27 16.75 17.42C16.66 17.5 16.6 17.56 16.56 17.6C16.55 17.62 16.53 17.64 16.53 17.64L16.52 17.65C16.52 17.65 16.52 17.65 15.76 17C15 16.36 15 16.36 15 16.36V16.35L15.01 16.34L15.03 16.31C15.05 16.29 15.08 16.26 15.11 16.23C15.18 16.16 15.27 16.07 15.39 15.96C15.62 15.74 15.97 15.45 16.41 15.16C17.3 14.59 18.61 14 20.26 14C21.91 14 23.22 14.59 24.11 15.16C24.16 15.2 24.21 15.23 24.26 15.26C24.31 15.23 24.36 15.2 24.41 15.16C25.3 14.59 26.61 14 28.26 14C29.91 14 31.22 14.59 32.11 15.16C32.55 15.45 32.9 15.74 33.13 15.96C33.25 16.07 33.34 16.16 33.41 16.23C33.44 16.26 33.47 16.29 33.49 16.31L33.51 16.34L33.52 16.35C33.52 16.36 33.52 16.36 32.76 17C32 17.65 32 17.65 32 17.65L31.99 17.64C31.99 17.64 31.97 17.62 31.95 17.6C31.92 17.56 31.86 17.5 31.77 17.42C31.6 17.27 31.35 17.05 31.02 16.84C30.36 16.41 29.42 16 28.26 16C27.86 16 27.49 16.05 27.15 16.13C27.79 16.43 28.45 16.86 29.06 17.48C30.23 18.64 30.74 19.99 30.96 21.02C31.07 21.53 31.11 21.98 31.13 22.3C31.13 22.46 31.13 22.6 31.13 22.69C31.13 22.74 31.13 22.78 31.12 22.81V22.86C31.12 22.86 31.12 22.86 30.12 22.78C29.13 22.69 29.13 22.7 29.13 22.7V22.69C29.13 22.68 29.13 22.66 29.13 22.63C29.13 22.58 29.13 22.49 29.13 22.38C29.12 22.15 29.09 21.82 29.01 21.44C28.84 20.67 28.47 19.71 27.65 18.89C27.29 18.53 26.9 18.26 26.52 18.05C27.19 19.31 27.76 20.99 27.76 23C27.76 24.92 27.35 26.38 26.47 28C26.08 28.73 25.76 28.94 24.74 28.92Z" fill="white"/>
</svg>
