<svg width="48" height="48" viewBox="0 0 48 48" fill="none" xmlns="http://www.w3.org/2000/svg">
<rect width="48" height="48" rx="12" fill="#2B2D33"/>
<path d="M27.98 21C27.86 19.35 27.65 18.18 27.02 16.58C28.7 17.25 29.98 18.52 30.63 20.04C30.86 20.58 31.05 20.75 31.59 20.88V21H27.98ZM21.48 21V20.88C21.96 20.65 22.08 20.39 22.19 19.69C22.35 18.56 22.79 16.98 23.55 16.25C23.78 16.03 23.94 16 24 16C24.06 16 24.22 16.03 24.45 16.25C25.21 16.98 25.65 18.56 25.81 19.69C25.92 20.39 26.04 20.65 26.52 20.88V21H21.48ZM26.41 29L27.9 23.52C27.97 23.25 27.99 23 27.99 23H31.29V23.12C30.72 23.25 30.47 23.41 30.07 23.96L26.41 29ZM16.42 21V20.88C16.96 20.75 17.15 20.58 17.38 20.04C18.03 18.52 19.31 17.25 20.99 16.58C20.36 18.18 20.15 19.35 20.03 21H16.42ZM24 30.2L22.41 24.35C22.18 23.5 21.98 23.27 21.48 23.12V23H26.52V23.12C26.02 23.27 25.82 23.5 25.59 24.35L24 30.2ZM21.6 29L17.94 23.96C17.54 23.41 17.29 23.25 16.72 23.12V23H20.01C20.01 23 20.04 23.25 20.11 23.52L21.6 29ZM24 35C24.32 35 24.62 34.85 24.81 34.59L32.43 24.11C32.92 23.43 33 22.99 33 22C33 17.43 28.82 14 24 14C19.24 14 15 17.41 15 22C15 22.98 15.07 23.41 15.58 24.11L23.19 34.59C23.38 34.85 23.68 35 24 35Z" fill="white"/>
</svg>
