<svg width="48" height="48" viewBox="0 0 48 48" fill="none" xmlns="http://www.w3.org/2000/svg">
<rect width="48" height="48" rx="12" fill="#2B2D33"/>
<path d="M33 30C33 31.1 32.1 32 31 32H30V30C31.77 30 33 28.77 33 27V25C33 23.23 31.77 22 30 22C27.25 22 25 20.19 25 18V15C25 14.45 24.57 14 24.02 14H17C16.45 14 16 14.44 16 15V19.99C16 21.68 15 22.02 15 23.99V29C15 29.56 15.45 30 16 30H17C17 30.97 17.49 31.61 18.33 31.88V32H14V34H31C33.21 34 35 32.21 35 30H33ZM17 24C17 22.1 18 21.71 18 19.99V16H23.01L23 18C22.98 21.33 26.15 24 30 24C30.66 24 31 24.34 31 25V27C31 27.66 30.66 28 30 28H28C25.91 28 24.94 26 22 26H21C20.34 26 20 26.35 20 27V28H17V24ZM19 32V30H21C21.55 30 22 29.55 22 29V28C24.44 28 25.41 30 28 30C28 30.97 28.49 31.61 29.33 31.88V32H19Z" fill="white"/>
</svg>
