<svg width="48" height="48" viewBox="0 0 48 48" fill="none" xmlns="http://www.w3.org/2000/svg">
<rect width="48" height="48" rx="12" fill="#2B2D33"/>
<path d="M32.38 16.29C31.29 15.2 29.71 14.68 27.96 14.83C27.81 14.6 27.63 14.37 27.43 14.17C25.87 12.61 23.34 12.61 21.77 14.17C20.37 15.57 20.23 17.74 21.34 19.3C21.02 19.87 20.78 20.45 20.61 21.04V21.02L18.15 29.12L14 33.26L15.41 34.67L19.56 30.52L27.66 28.06C28.96 27.67 30.23 26.92 31.33 25.83C34.25 22.91 34.73 18.63 32.38 16.29ZM23.19 15.59C23.97 14.81 25.24 14.81 26.02 15.59C26.8 16.37 26.8 17.63 26.02 18.42C25.24 19.2 23.98 19.21 23.19 18.42C22.41 17.64 22.41 16.36 23.19 15.59ZM22.57 27.53L20.53 28.15L21.15 26.12C21.33 26.4 21.54 26.66 21.78 26.9C22.02 27.14 22.29 27.35 22.57 27.53ZM23.19 25.49C22.34 24.64 22.06 23.31 22.43 21.88C22.64 21.07 22.55 20.77 21.94 20.16L22.04 20.04C23.61 21.37 25.96 21.31 27.44 19.83C28.54 18.73 28.85 17.15 28.4 15.77L28.56 15.73C28.98 16.6 29.27 16.76 30.04 17.07C30.39 17.21 30.7 17.43 30.97 17.71C32.53 19.27 32.06 22.28 29.91 24.43C27.76 26.58 24.76 27.05 23.19 25.49Z" fill="white"/>
</svg>
