<svg width="48" height="48" viewBox="0 0 48 48" fill="none" xmlns="http://www.w3.org/2000/svg">
<rect width="48" height="48" rx="12" fill="#2B2D33"/>
<path d="M18.12 24H20.17C20.65 22.24 21.91 20.99 23.14 20.99V18.99C20.81 18.99 18.69 21.11 18.12 24ZM13.96 24H16.05C17.85 18.76 23.02 15 28.2 15C29.3 15 30 15.6 30 16.52C30 17.32 29.35 18 28.51 18C28.1 18 27.72 17.86 27.4 17.52C27.21 17.31 26.95 17.2 26.68 17.2C26.48 17.2 26.28 17.26 26.11 17.38C25.33 17.9 25 18.93 25 20C25 22.21 26.79 24 29 24H34V22H29C27.9 22 27 21.11 27 20C27 19.38 27.27 18.82 27.79 18.47L27.87 18.52C27.79 18.7 27.76 18.87 27.76 19.01C27.76 19.66 28.14 20 28.76 20C30.47 20 32 18.34 32 16.52C32 14.57 30.49 13 28.2 13C21.95 13 15.81 17.61 13.96 24ZM13 28C13 27.64 13.2 27.29 13.55 27.11L14.21 26.78C14.78 26.5 15.39 26.36 16 26.36C16.61 26.36 17.23 26.5 17.79 26.78L19.11 27.44C19.39 27.58 19.7 27.65 20 27.65C20.31 27.65 20.62 27.58 20.9 27.44L22.21 26.78C22.78 26.49 23.39 26.36 24 26.36C24.61 26.36 25.23 26.5 25.79 26.78L27.11 27.44C27.39 27.58 27.7 27.65 28 27.65C28.31 27.65 28.62 27.58 28.9 27.44L30.21 26.78C30.78 26.49 31.39 26.36 32 26.36C32.61 26.36 33.23 26.5 33.79 26.78L34.45 27.11C34.8 27.29 35 27.64 35 28.01C35 28.16 34.97 28.31 34.9 28.45C34.72 28.8 34.37 29.01 34 29.01C33.85 29.01 33.7 28.97 33.55 28.9L32.9 28.57C32.62 28.43 32.31 28.36 32 28.36C31.7 28.36 31.39 28.43 31.11 28.57L29.79 29.23C29.23 29.51 28.61 29.65 28 29.65C27.39 29.65 26.78 29.52 26.21 29.23L24.9 28.57C24.62 28.43 24.31 28.36 24 28.36C23.7 28.36 23.39 28.43 23.11 28.57L21.79 29.23C21.23 29.51 20.61 29.65 20 29.65C19.39 29.65 18.78 29.52 18.21 29.23L16.9 28.57C16.62 28.43 16.31 28.36 16 28.36C15.7 28.36 15.39 28.43 15.11 28.57L14.45 28.9C14.31 28.97 14.15 29.01 14 29.01C13.64 29.01 13.28 28.8 13.11 28.45C13.04 28.31 13 28.15 13 28ZM13 32C13 31.64 13.2 31.29 13.55 31.11L14.21 30.78C14.78 30.5 15.39 30.36 16 30.36C16.61 30.36 17.23 30.5 17.79 30.78L19.11 31.44C19.39 31.58 19.7 31.65 20 31.65C20.31 31.65 20.62 31.58 20.9 31.44L22.21 30.78C22.78 30.49 23.39 30.36 24 30.36C24.61 30.36 25.23 30.5 25.79 30.78L27.11 31.44C27.39 31.58 27.7 31.65 28 31.65C28.31 31.65 28.62 31.58 28.9 31.44L30.21 30.78C30.78 30.49 31.39 30.36 32 30.36C32.61 30.36 33.23 30.5 33.79 30.78L34.45 31.11C34.8 31.29 35 31.64 35 32.01C35 32.16 34.97 32.31 34.9 32.45C34.72 32.8 34.37 33.01 34 33.01C33.85 33.01 33.7 32.97 33.55 32.9L32.9 32.57C32.62 32.43 32.31 32.36 32 32.36C31.7 32.36 31.39 32.43 31.11 32.57L29.79 33.23C29.23 33.51 28.61 33.65 28 33.65C27.39 33.65 26.78 33.52 26.21 33.23L24.9 32.57C24.62 32.43 24.31 32.36 24 32.36C23.7 32.36 23.39 32.43 23.11 32.57L21.79 33.23C21.23 33.51 20.61 33.65 20 33.65C19.39 33.65 18.78 33.52 18.21 33.23L16.9 32.57C16.62 32.43 16.31 32.36 16 32.36C15.7 32.36 15.39 32.43 15.11 32.57L14.45 32.9C14.31 32.97 14.15 33.01 14 33.01C13.64 33.01 13.28 32.8 13.11 32.45C13.04 32.31 13 32.15 13 32Z" fill="white"/>
</svg>
