<svg width="24" height="24" viewBox="0 0 24 24" fill="none" xmlns="http://www.w3.org/2000/svg">
<path d="M17 6.37V5C17 3.34 15.66 2 14 2C12.35 2 11 3.34 11 5V7C11 7.55 11.45 8 12 8H15.79C19.88 9.95 21.43 15.02 19.08 18.93L18.44 20H15V22H19C19.36 22 19.68 21.82 19.86 21.51L20.79 19.96C23.68 15.15 21.89 8.95 17 6.37ZM15 6H13V5C13 4.45 13.45 4 14 4C14.56 4 15 4.45 15 5V6Z" fill="#FEE600"/>
<path d="M12.41 10.09L11.97 9.89C9.13 8.63 5.88 8.63 3.04 9.89L2.6 10.09C2.24 10.25 2 10.6 2 11V13C2 13.55 2.45 14 3 14H3.33V14.12C2.49 14.33 2 14.9 2 15.85V21C2 21.55 2.45 22 3 22H12C12.56 22 13 21.55 13 21V15.85C13 14.9 12.51 14.33 11.67 14.12V14H12C12.56 14 13 13.55 13 13V11C13 10.6 12.77 10.25 12.41 10.09ZM4 11.65C6.24 10.71 8.77 10.71 11 11.65V12H4V11.65ZM11 20H4V14H11V20Z" fill="#FEE600"/>
</svg>
