<svg width="24" height="24" viewBox="0 0 24 24" fill="none" xmlns="http://www.w3.org/2000/svg">
<path d="M20 19.09V4.91C20.58 4.71 21 4.15 21 3.5C21 2.67 20.33 2 19.5 2C18.85 2 18.29 2.42 18.09 3H5.92C5.71 2.42 5.16 2 4.5 2C3.67 2 3 2.67 3 3.5C3 4.15 3.42 4.71 4 4.91V19.09C3.42 19.29 3 19.85 3 20.5C3 21.33 3.67 22 4.5 22C5.16 22 5.71 21.58 5.92 21H18.09C18.29 21.58 18.85 22 19.5 22C20.33 22 21 21.33 21 20.5C21 19.85 20.58 19.29 20 19.09ZM18 19H6V16.9L14.71 8.21L13.29 6.79L7.1 12.98C6.32 13.76 6.12 14.47 6.12 15.46H6V5H18V19Z" fill="#FEE600"/>
<path d="M10 15.12L11.42 16.54L15.71 12.21L14.29 10.79L10 15.12Z" fill="#FEE600"/>
</svg>
