<svg width="24" height="24" viewBox="0 0 24 24" fill="none" xmlns="http://www.w3.org/2000/svg">
<path d="M10.49 14.02L11.91 15.44L16.2 11.11L14.78 9.69L10.49 14.02Z" fill="#FEE600"/>
<path d="M21 10.5C21 5.81 16.97 2 12 2C7.03 2 3 5.81 3 10.5C3 14.88 6.5 18.47 10.99 18.94V20H5.99V22H17.99V20H12.99V18.95C17.49 18.48 21 14.88 21 10.5ZM5 10.5C5 6.91 8.13 4 12 4C15.87 4 19 6.91 19 10.5C19 14.1 15.87 17 12 17C10.1 17 8.39 16.3 7.13 15.17L15.2 7.11L13.78 5.69L7.19 12.28C6.51 12.96 6.35 13.72 6.55 14.41L6.47 14.48C5.55 13.38 5 12 5 10.5Z" fill="#FEE600"/>
</svg>
