<svg width="24" height="24" viewBox="0 0 24 24" fill="none" xmlns="http://www.w3.org/2000/svg">
<path d="M9 14H11V16H13V14H15V12H13V10H11V12H9V14ZM8.16 6V5.88C8.94 5.72 9.45 5.37 9.83 4.78C10.48 3.77 10.95 3 12 3C13.05 3 13.52 3.77 14.17 4.78C14.55 5.37 15.06 5.72 15.84 5.88V6H8.16ZM4 18V8H20V18H4ZM2 18.98C2 19.56 2.44 20 2.99 20H21.01C21.56 20 22 19.56 22 18.98V6.99C22 6.47 21.56 6 21.01 6H18.17C17.55 6 17.16 5.73 16.8 5.15L15.89 3.67C14.98 2.2 13.66 1 12 1C10.34 1 9.02 2.2 8.11 3.67L7.2 5.15C6.84 5.73 6.45 6 5.83 6H2.99C2.44 6 2 6.47 2 6.99V18.98Z" fill="#FEE600"/>
</svg>
