<svg width="48" height="48" viewBox="0 0 48 48" fill="none" xmlns="http://www.w3.org/2000/svg">
<rect width="48" height="48" rx="12" fill="#FEE600"/>
<path d="M35 24.1L33.4 25.3L32.8 24.5C32.4 24 32.4 23.5 32.4 23.1H32.3C32.2 23.5 32.3 24 31.9 24.5L31.3 25.3L29.7 24.1L30.3 23.3C30.7 22.8 31.1 22.7 31.5 22.5V22.4C31 22.5 30.6 22.6 30 22.5L29 22.1L29.6 20.2L30.5 20.5C31.1 20.7 31.4 21.1 31.7 21.4L31.8 21.3C31.6 21 31.3 20.6 31.3 20V19H33.3V20C33.3 20.6 33 21 32.8 21.4L32.9 21.5C33.2 21.2 33.5 20.8 34.1 20.6L35 20.2L35.6 22.1L34.7 22.4C34.1 22.6 33.6 22.4 33.2 22.3V22.4C33.6 22.6 34.1 22.7 34.4 23.2L35 24.1ZM27 24.1L25.4 25.3L24.8 24.5C24.4 24 24.4 23.5 24.4 23.1H24.3C24.2 23.5 24.3 24 23.9 24.5L23.3 25.3L21.6 24.1L22.2 23.3C22.6 22.8 23 22.7 23.4 22.5V22.4C23 22.5 22.5 22.6 21.9 22.4L21 22.1L21.6 20.2L22.5 20.5C23.1 20.7 23.4 21.1 23.7 21.4L23.8 21.3C23.6 21 23.3 20.6 23.3 20V19H25.3V20C25.3 20.6 25 21 24.8 21.4L24.9 21.5C25.2 21.2 25.5 20.8 26.1 20.6L27 20.2L27.6 22.1L26.7 22.4C26.1 22.6 25.6 22.4 25.2 22.3V22.4C25.6 22.6 26.1 22.7 26.4 23.2L27 24.1ZM19 24.1L17.4 25.3L16.8 24.5C16.4 24 16.4 23.5 16.4 23.1H16.3C16.3 23.5 16.3 24 15.9 24.5L15.2 25.3L13.6 24.1L14.2 23.3C14.6 22.8 15 22.7 15.4 22.5V22.4C15 22.5 14.5 22.6 13.9 22.4L13 22.1L13.6 20.2L14.5 20.5C15.1 20.7 15.4 21.1 15.7 21.4L15.8 21.3C15.6 21 15.3 20.6 15.3 20V19H17.3V20C17.3 20.6 17 21 16.8 21.4L16.9 21.5C17.2 21.2 17.5 20.8 18.1 20.6L19 20.2L19.6 22.1L18.7 22.4C18.1 22.6 17.6 22.4 17.2 22.3V22.4C17.6 22.6 18.1 22.7 18.4 23.2L19 24.1Z" fill="#2B2D33"/>
<path d="M19.3 27H13.3V29H19.3V27Z" fill="#2B2D33"/>
<path d="M27.3 27H21.3V29H27.3V27Z" fill="#2B2D33"/>
<path d="M29.3 27H35.3V29H29.3V27Z" fill="#2B2D33"/>
</svg>
