<svg width="48" height="48" viewBox="0 0 48 48" fill="none" xmlns="http://www.w3.org/2000/svg">
<rect width="48" height="48" rx="12" fill="#FEE600"/>
<path d="M32 24C32 28.4 28.4 32 24 32C22.1 32 20.4 31.4 19.1 30.3L31.3 18.1L31.4 18.2C31 18.8 30.9 19.9 31.3 20.6C31.7 21.6 32 22.8 32 24ZM16 24C16 19.6 19.6 16 24 16C25.9 16 27.6 16.6 28.9 17.7L16.7 29.9L16.6 29.8C17 29.2 17.1 28.1 16.7 27.4C16.3 26.4 16 25.2 16 24ZM24 14C18.5 14 14 18.5 14 24C14 29.5 18.5 34 24 34C29.5 34 34 29.5 34 24C34 18.5 29.5 14 24 14Z" fill="#2B2D33"/>
</svg>
