<svg width="48" height="48" viewBox="0 0 48 48" fill="none" xmlns="http://www.w3.org/2000/svg">
<rect width="48" height="48" rx="12" fill="#FEE600"/>
<path d="M20 21H18V27H20V21Z" fill="#2B2D33"/>
<path d="M22 21H21V27H22V21Z" fill="#2B2D33"/>
<path d="M26 21H27V27H26V21Z" fill="#2B2D33"/>
<path d="M30 21H28V27H30V21Z" fill="#2B2D33"/>
<path d="M23 21H25V27H23V21Z" fill="#2B2D33"/>
<path fill-rule="evenodd" clip-rule="evenodd" d="M24 14C18.4772 14 14 18.4772 14 24C14 29.5228 18.4772 34 24 34C29.5228 34 34 29.5228 34 24C34 18.4772 29.5228 14 24 14ZM16 24C16 19.5817 19.5817 16 24 16C28.4183 16 32 19.5817 32 24C32 28.4183 28.4183 32 24 32C19.5817 32 16 28.4183 16 24Z" fill="#2B2D33"/>
</svg>
