<svg width="48" height="48" viewBox="0 0 48 48" fill="none" xmlns="http://www.w3.org/2000/svg">
<rect width="48" height="48" rx="12" fill="#FEE600"/>
<path d="M33.8001 24.3C34.1001 23.9 34.1001 23.4 33.8001 23.1C30.6001 18.9 27.3001 16.7 24.0001 16.7C22.5001 16.7 21.1001 17.1 19.7001 18L17.7001 16L16.3001 17.4L18.0001 19.1C16.7001 20.1 15.5001 21.4 14.2001 23.1C13.9001 23.5 13.9001 24 14.2001 24.3C17.4001 28.5 20.7001 30.7 24.0001 30.7C25.5001 30.7 26.9001 30.3 28.3001 29.4L30.3001 31.4L31.7001 30L30.0001 28.3C31.3001 27.3 32.5001 26 33.8001 24.3ZM24.0001 28.7C21.8001 28.7 19.5001 27.4 17.1001 24.7C16.5001 24.1 16.1001 23.9 15.1001 23.7V23.6C16.1001 23.5 16.5001 23.3 17.1001 22.6C17.9001 21.7 18.6001 21 19.4001 20.4L26.8001 27.8C25.9001 28.4 24.9001 28.7 24.0001 28.7ZM30.9001 24.7C30.1001 25.6 29.4001 26.3 28.6001 26.9L21.1001 19.4C22.1001 19 23.1001 18.7 24.0001 18.7C26.2001 18.7 28.5001 20 30.9001 22.7C31.5001 23.3 31.9001 23.5 32.9001 23.7V23.8C31.9001 23.9 31.4001 24.1 30.9001 24.7Z" fill="#2B2D33"/>
</svg>
