<svg width="48" height="48" viewBox="0 0 48 48" fill="none" xmlns="http://www.w3.org/2000/svg">
<rect width="48" height="48" rx="12" fill="#FEE600"/>
<path d="M29.7 17.7L32.7 14.7L31.3 13.3L28.3 16.3L29.7 17.7ZM32 22H36V20H32V22ZM23 17H25V13H23V17ZM18.3 17.7L19.7 16.3L16.7 13.3L15.3 14.7L18.3 17.7ZM25 29V25H23V29H19.7C18.7 29 18.2 29.6 17.9 30.4H17.8L19.8 21H28.1L30.1 30.4H30C29.7 29.6 29.2 29 28.2 29H25ZM12 22H16V20H12V22ZM17.2 33L17.6 31H30.2L30.6 33H17.2ZM16 35H32C32.7 35 33.1 34.4 33 33.8L30 19.8C29.9 19.3 29.5 19 29 19H19C18.5 19 18.1 19.3 18 19.8L15 33.8C14.9 34.4 15.3 35 16 35Z" fill="#2B2D33"/>
</svg>
