<svg width="48" height="48" viewBox="0 0 48 48" fill="none" xmlns="http://www.w3.org/2000/svg">
<rect width="48" height="48" rx="12" fill="#FEE600"/>
<path d="M23.9999 21C24.7999 21 25.4999 20.3 25.4999 19.5C25.4999 18.7 24.7999 18 23.9999 18C23.1999 18 22.4999 18.7 22.4999 19.5C22.4999 20.3 23.1999 21 23.9999 21ZM15.8999 24.1C15.8999 23.1 15.7999 22.8 15.1999 22.2L14.2999 21.5C15.5999 19.6 19.2999 15 23.9999 15C28.6999 15 32.3999 19.6 33.6999 21.5L32.7999 22.3C32.1999 22.9 32.0999 23.2 32.0999 24.2H31.9999C31.9999 23.5 31.8999 23.3 31.0999 23C29.2999 22.3 25.8999 21.8 23.9999 21.8C22.0999 21.8 18.6999 22.2 16.8999 22.9C16.0999 23.2 15.9999 23.4 15.9999 24.1H15.8999ZM23.9999 27C20.7999 27 18.8999 26.6 17.9999 26.3V24.7C19.0999 24.4 21.4999 23.7 23.9999 23.7C26.4999 23.7 28.8999 24.3 29.9999 24.7V26.3C29.0999 26.6 27.1999 27 23.9999 27ZM23.9999 33C20.1999 33 18.3999 30.5 17.9999 29.8V28.4C19.1999 28.7 21.0999 29 23.9999 29C26.8999 29 28.7999 28.7 29.9999 28.4V29.8C29.4999 30.5 27.6999 33 23.9999 33ZM23.9999 35C29.5999 35 31.7999 30.6 31.8999 30.4C31.9999 30.3 31.9999 30.1 31.9999 29.7V25.7L35.6999 22.4C35.9999 22.1 36.0999 21.6 35.8999 21.2C35.0999 19.6 30.3999 13 23.9999 13C17.5999 13 12.8999 19.6 12.0999 21.2C11.8999 21.6 11.9999 22.2 12.2999 22.5L15.9999 25.7V29.7C15.9999 30.1 15.9999 30.2 16.0999 30.4C16.1999 30.6 18.3999 35 23.9999 35Z" fill="#2B2D33"/>
</svg>
