<svg width="48" height="48" viewBox="0 0 48 48" fill="none" xmlns="http://www.w3.org/2000/svg">
<rect width="48" height="48" rx="12" fill="#FEE600"/>
<path d="M25 16H29V14H25V16ZM19 16H23V14H19V16ZM17.6 24C17.7 22.5 18.4 20 19 20H29C29.6 20 30.3 22.6 30.4 24H17.6ZM16 33V28.3H16.1C16.2 29.1 16.4 29.6 17.4 29.8L18.1 29.9C18.7 30 19.2 29.8 19.4 29.3C19.6 28.8 19.3 28.2 18.8 28L16 27.3C16 26.8 16.4 26.4 16.8 26H31.1C31.5 26.4 31.9 26.8 31.9 27.3L29.2 28.1C28.7 28.2 28.4 28.8 28.6 29.4C28.8 29.9 29.3 30.1 29.9 30L30.6 29.9C31.6 29.7 31.8 29.2 31.9 28.4H32V33H30V31H18V33H16ZM15 35H19C19.6 35 20 34.5 20 34V31.6H20.1C20.2 32.5 20.8 33 21.9 33H26.1C27.2 33 27.7 32.5 27.9 31.6H28V34C28 34.5 28.4 35 29 35H33C33.5 35 34 34.5 34 34V27.3C34 26.2 33.4 25.2 32.5 24.5C32.3 21.4 31.3 18 29 18H19C16.7 18 15.7 21.6 15.5 24.5C14.6 25.3 14 26.3 14 27.3V34C14 34.5 14.4 35 15 35Z" fill="#2B2D33"/>
</svg>
