<svg width="48" height="48" viewBox="0 0 48 48" fill="none" xmlns="http://www.w3.org/2000/svg">
<rect width="48" height="48" rx="12" fill="#FEE600"/>
<path d="M26 34C26 34.6 26.4 35 27 35H31C31.6 35 32 34.6 32 34V27.3C33.6 26.2 35.3 24.4 35.3 21.7C35.3 20.8 35.1 20.3 34.9 19.8C34.8 19.5 34.7 19.3 34.7 18.9C34.7 18.5 34.9 18 35.2 17.5C35.4 17.3 35.5 17.1 35.6 17C35.7 16.9 35.7 16.9 35.7 16.8C36.1 16.4 36.1 15.8 35.7 15.4L33.6 13.3C33.3 13 32.8 12.9 32.4 13.1C32.4 13.1 32.3 13.1 32.3 13.2C32.2 13.3 32 13.3 31.7 13.4C31.2 13.6 30.6 13.7 30.1 13.7C29.6 13.7 29.2 13.6 29 13.4C28.9 13.4 28.8 13.3 28.8 13.3C28.5 13 28 12.9 27.7 13.1C27.7 13.1 27.6 13.1 27.5 13.2C27.4 13.3 27.2 13.3 26.9 13.4C26.4 13.6 25.8 13.7 25.3 13.7C24.8 13.7 24.4 13.6 24.2 13.4C24.1 13.4 24 13.3 24 13.3C23.6 12.9 23 12.9 22.6 13.3L20.3 15.4C19.9 15.8 19.9 16.4 20.3 16.8C20.3 16.8 20.4 16.9 20.4 17H18C16.9 17 16.3 17.8 15.9 18.5C15.1 20 14.6 22.6 14.5 24.5C14.4 24.6 14.2 24.8 14 25C13.6 25.5 13 26.3 13 27.3V34C13 34.6 13.4 35 14 35H18C18.6 35 19 34.6 19 34V31.6H19.1C19.2 32.5 19.8 33 20.9 33H24.1C25.2 33 25.7 32.5 25.9 31.6H26V34ZM15 33V28.3H15.1C15.2 29.1 15.4 29.6 16.4 29.8L17.1 30C17.7 30.1 18.2 29.9 18.4 29.4C18.6 28.9 18.3 28.3 17.8 28.1L15 27.3C15 26.8 15.4 26.4 15.8 26H22.4C23 26.6 23.7 27.1 24.3 27.5C25.2 28 26 28.4 26.7 28.6C27 28.7 27.3 28.8 27.5 28.8C27.6 28.8 27.7 28.9 27.7 28.9H27.8C27.9 28.9 28.1 28.9 28.2 28.9C28.2 28.9 28.2 28.9 28.3 28.9C28.4 28.9 28.4 28.9 28.5 28.8C28.7 28.7 29 28.7 29.3 28.6C29.5 28.5 29.7 28.4 30 28.3V33H28V31H17V33H15ZM26.8 23.6L27.7 22.9C27.9 22.8 28.1 22.8 28.3 22.9L29.2 23.6C29.6 23.9 30.1 23.5 30 23.1L29.6 21.9C29.5 21.7 29.6 21.5 29.8 21.3L30.8 20.5C31.2 20.2 31 19.6 30.5 19.6H29.3C29.1 19.6 28.9 19.5 28.8 19.3L28.5 18C28.4 17.5 27.7 17.5 27.6 18L27.2 19.2C27.1 19.4 26.9 19.5 26.7 19.5H25.5C25 19.5 24.8 20.1 25.2 20.4L26.2 21.2C26.4 21.3 26.4 21.6 26.4 21.8L26 23C25.9 23.5 26.4 23.8 26.8 23.6ZM28 27C27.9 27 27.6 26.9 27.4 26.8C26.8 26.6 26.1 26.3 25.4 25.9C24 25 22.7 23.7 22.7 21.8C22.7 21.3 22.7 21.1 22.9 20.9C23.2 20.6 23.3 20 23.3 19.1C23.3 18.1 22.8 17.2 22.4 16.6C22.5 16.3 22.4 16.2 22.4 16.2L23.3 15.3C23.8 15.5 24.4 15.7 25.3 15.7C26.2 15.7 27 15.5 27.5 15.3C27.7 15.2 27.8 15.2 27.9 15.1C28 15.1 28 15.2 28.1 15.2C28.6 15.4 29.2 15.7 30.1 15.7C31 15.7 31.8 15.5 32.3 15.3C32.4 15.3 32.5 15.2 32.6 15.2L33.6 16.2C33.5 16.3 33.5 16.4 33.4 16.5C33 17.1 32.5 18 32.5 19C32.5 19.9 32.6 20.5 33 20.8C33.2 21 33.2 21.3 33.2 21.7C33.2 23.6 32 24.9 30.5 25.8C29.8 26.2 29.1 26.5 28.5 26.7C28.4 26.9 28.2 27 28 27ZM16.6 24C16.7 22.7 17.1 19.7 18 19H21.4C21.4 19.4 21.3 19.6 21.2 19.8C21 20.3 20.7 20.8 20.7 21.7C20.7 22.6 20.9 23.3 21.1 24H16.6Z" fill="#2B2D33"/>
</svg>
