<svg width="48" height="48" viewBox="0 0 48 48" fill="none" xmlns="http://www.w3.org/2000/svg">
<rect width="48" height="48" rx="12" fill="#FEE600"/>
<path fill-rule="evenodd" clip-rule="evenodd" d="M31 12L35 12C35.5523 12 36 12.4477 36 13V17H34V14H31V12ZM12 13C12 12.4477 12.4477 12 13 12H17V14H14V17H12V13ZM22.8253 14.077C24.9901 13.792 27.1846 14.3037 29.0001 15.5168C30.8156 16.7298 32.1282 18.5616 32.6933 20.6706C32.8363 21.2041 32.5197 21.7524 31.9862 21.8954C31.4528 22.0383 30.9044 21.7217 30.7615 21.1883C30.3219 19.5479 29.301 18.1232 27.889 17.1797C26.4769 16.2362 24.77 15.8382 23.0863 16.0599C21.4026 16.2816 19.8569 17.1078 18.7371 18.3846C17.6174 19.6614 17 21.3017 17 23C17 23.5523 16.5523 24 16 24C15.4477 24 15 23.5523 15 23C15 20.8165 15.7938 18.7075 17.2334 17.0659C18.6731 15.4243 20.6605 14.362 22.8253 14.077ZM24 20C23.4734 20 22.9561 20.1386 22.5 20.4019C22.0439 20.6652 21.6652 21.0439 21.4019 21.5C21.1386 21.9561 21 22.4734 21 23C21 23.6555 20.8876 24.3923 20.5931 25.0542C20.296 25.722 19.7815 26.3756 18.9585 26.7024L15.8691 27.9294C15.3558 28.1332 14.7745 27.8824 14.5706 27.3691C14.3668 26.8558 14.6176 26.2745 15.1309 26.0706L18.2203 24.8437C18.4233 24.763 18.6141 24.5821 18.7658 24.2412C18.9201 23.8945 19 23.4485 19 23C19 22.1223 19.231 21.2601 19.6699 20.5C20.1087 19.7399 20.7399 19.1087 21.5 18.6699C22.2601 18.231 23.1223 18 24 18C24.8777 18 25.7399 18.231 26.5 18.6699C27.2601 19.1087 27.8913 19.7399 28.3301 20.5C28.5105 20.8125 28.6954 21.1472 28.8212 21.5645C28.9483 21.9865 29 22.4386 29 23C29 25.7963 28.0591 28.6304 25.9234 30.6233C25.079 31.4112 24.1032 32.2329 23.1193 32.8636C22.1677 33.4737 21.0654 34 20 34C19.4477 34 19 33.5523 19 33C19 32.4477 19.4477 32 20 32C20.4705 32 21.1663 31.7399 22.04 31.1799C22.8815 30.6405 23.7582 29.9082 24.5589 29.1611C26.2025 27.6274 27 25.3728 27 23C27 22.5614 26.9593 22.3176 26.9062 22.1415C26.8518 21.9609 26.7687 21.7956 26.5981 21.5C26.3348 21.0439 25.9561 20.6652 25.5 20.4019C25.0439 20.1386 24.5266 20 24 20ZM24 22C24.5523 22 25 22.4477 25 23V23.2918C25 25.9432 23.502 28.367 21.1305 29.5528L18.4472 30.8944C17.9532 31.1414 17.3526 30.9412 17.1056 30.4472C16.8586 29.9532 17.0588 29.3526 17.5528 29.1056L20.2361 27.7639C21.93 26.917 23 25.1857 23 23.2918V23C23 22.4477 23.4477 22 24 22ZM32.1644 23.5136C32.7092 23.6044 33.0772 24.1196 32.9864 24.6644L32.7456 26.1094C32.2158 29.2878 30.4301 32.1196 27.7904 33.9674L26.5735 34.8192C26.121 35.1359 25.4975 35.0259 25.1808 34.5735C24.8641 34.121 24.9741 33.4975 25.4265 33.1808L26.6435 32.3289C28.8432 30.7891 30.3313 28.4292 30.7728 25.7806L31.0136 24.3356C31.1044 23.7908 31.6196 23.4228 32.1644 23.5136ZM14 34V31H12V35C12 35.5523 12.4477 36 13 36H17V34H14ZM34 34V31H36V35C36 35.5523 35.5523 36 35 36H31V34H34Z" fill="#2B2D33"/>
</svg>
