<svg width="48" height="48" viewBox="0 0 48 48" fill="none" xmlns="http://www.w3.org/2000/svg">
<rect width="48" height="48" rx="12" fill="#FEE600"/>
<path fill-rule="evenodd" clip-rule="evenodd" d="M15 16C15 15.4477 15.4477 15 16 15H32C32.5523 15 33 15.4477 33 16V32C33 32.5523 32.5523 33 32 33H31V35H29V33H19V35H17V33H16C15.4477 33 15 32.5523 15 32V16ZM17 17V31H31V27H29V28C29 28.5523 28.5523 29 28 29H20C19.4477 29 19 28.5523 19 28V20C19 19.4477 19.4477 19 20 19H28C28.5523 19 29 19.4477 29 20V21H31V17H17ZM29 25H31V23H29V25ZM21 21V23H23V25H21V27H27V21H21Z" fill="#2B2D33"/>
</svg>
