<svg width="48" height="48" viewBox="0 0 48 48" fill="none" xmlns="http://www.w3.org/2000/svg">
<rect width="48" height="48" rx="12" fill="#FEE600"/>
<path d="M22.3 27.2C22.7 27.6 23.3 27.6 23.7 27.2L29.2 21.7L27.8 20.3L22.1 26L22 25.9C22.4 25.1 22.3 24.3 21.6 23.6L20.2 22.3L18.8 23.7L22.3 27.2ZM23.9 33.1C23.9 32.3 23.5 31.8 22.7 31.4C22.1 31 21.4 30.6 20.6 30C18.7 28.6 17 26.6 17 24V17.7C19.2 17.5 21.6 16.9 24 16C26.4 16.9 28.8 17.5 31 17.7V24C31 26.7 29.3 28.7 27.4 30.1C26.6 30.7 25.9 31.1 25.2 31.4C24.5 31.8 24.1 32.4 24 33.1H23.9ZM24 34C24.2 34 24.4 33.9 24.9 33.7C26 33.2 27.5 32.4 28.5 31.7C30.6 30.2 32.9 27.6 32.9 24V16.7C32.9 16.2 32.5 15.8 32 15.8C29.8 15.8 26.6 15 24.2 14H23.7C21.3 14.9 18.1 15.8 15.9 15.8C15.4 15.8 15 16.2 15 16.7V24C15 27.6 17.3 30.2 19.4 31.7C20.4 32.4 21.9 33.3 23 33.7C23.6 33.9 23.8 34 24 34Z" fill="#2B2D33"/>
</svg>
