<svg width="24" height="24" viewBox="0 0 24 24" fill="none" xmlns="http://www.w3.org/2000/svg">
<path d="M2.59 4.12V4H16V2H3C2.45 2 2 2.45 2 3V18H4V5.89C4 4.82 3.47 4.25 2.59 4.12Z" fill="#2B2D33"/>
<path d="M20.14 14.97H20V7C20 6.45 19.55 6 19 6H7C6.45 6 6 6.45 6 7V21C6 21.55 6.45 22 7 22H19C19.55 22 20 21.55 20 21V20H8V9.89C8 8.82 7.47 8.25 6.59 8.12V8H18V14.97H17.86C17.56 13.51 16.49 13.01 15 13.01V15.01C16.33 15.01 17.46 15.68 18.03 17.28C18.21 17.79 18.55 18 19 18C19.45 18 19.79 17.79 19.97 17.28C20.54 15.68 21.67 15.01 23 15.01V13.01C21.51 13.01 20.44 13.51 20.14 14.97Z" fill="#2B2D33"/>
</svg>
