<svg width="24" height="24" viewBox="0 0 24 24" fill="none" xmlns="http://www.w3.org/2000/svg">
<path d="M20.41 20H13V22H20C20.55 22 21 21.55 21 21V3C21 2.45 20.55 2 20 2H6C5.45 2 5 2.45 5 3V9H7V5.89C7 4.82 6.47 4.25 5.59 4.12V4H19V18.11C19 19.18 19.53 19.75 20.41 19.88V20ZM7 19C5.9 19 5 18.1 5 17C5 15.9 5.9 15 7 15C8.1 15 9 15.9 9 17C9 18.1 8.1 19 7 19ZM6 23H8V20.87C9.41 20.51 10.51 19.41 10.87 18H13V16H10.87C10.51 14.59 9.41 13.49 8 13.13V11H6V13.13C4.59 13.49 3.49 14.59 3.13 16H1V18H3.13C3.49 19.41 4.59 20.51 6 20.87V23Z" fill="#2B2D33"/>
</svg>
