<svg width="24" height="24" viewBox="0 0 24 24" fill="none" xmlns="http://www.w3.org/2000/svg">
<path d="M15 18.5C15.8 18.5 16.5 17.8 16.5 17C16.5 16.2 15.8 15.5 15 15.5C14.2 15.5 13.5 16.2 13.5 17C13.5 17.8 14.2 18.5 15 18.5ZM15 20C13.7 20 12 19.4 10.7 17.9C10.1 17.2 9.7 17.1 9.1 17V16.9C9.7 16.9 10.1 16.7 10.7 16C12 14.5 13.7 13.9 15 13.9C16.3 13.9 18 14.5 19.3 16C19.9 16.7 20.3 16.8 20.9 16.9V17C20.3 17 19.9 17.2 19.3 17.9C18 19.4 16.3 20 15 20ZM15 22C17.5 22 20 20.6 21.3 18.6C21.7 18.1 22 17.5 22 17C22 16.4 21.7 15.9 21.3 15.4C20 13.4 17.5 12 15 12C12.5 12 10.1 13.5 8.7 15.4C8.3 15.9 8 16.4 8 17C8 17.5 8.3 18.1 8.7 18.6C10 20.6 12.5 22 15 22ZM3 22H7V20H4V5.9C4 4.8 3.5 4.3 2.6 4.1V4H16V10H18V3C18 2.4 17.6 2 17 2H3C2.4 2 2 2.4 2 3V21C2 21.5 2.4 22 3 22Z" fill="#2B2D33"/>
</svg>
