<svg width="24" height="24" viewBox="0 0 24 24" fill="none" xmlns="http://www.w3.org/2000/svg">
<path d="M13 17C12.44 17 12 17.45 12 18C12 18.55 12.44 19 13 19C13.55 19 14 18.55 14 18C14 17.45 13.55 17 13 17ZM10 18C10 16.34 11.34 15 13 15C14.3 15 15.41 15.83 15.83 17H21C21.55 17 22 17.45 22 18V21H20V19H15.83C15.41 20.17 14.3 21 13 21C11.34 21 10 19.66 10 18ZM3.59 4H17V13H19V3C19 2.45 18.55 2 18 2H4C3.44 2 3 2.45 3 3V21C3 21.55 3.44 22 4 22H8V20H5V5.89C5 4.82 4.47 4.25 3.59 4.12V4Z" fill="#2B2D33"/>
</svg>
