<svg width="24" height="24" viewBox="0 0 24 24" fill="none" xmlns="http://www.w3.org/2000/svg">
<path d="M23.91 10H22.31L18.4 18H19.99L23.91 10ZM18.49 10L22.41 18H24L20.09 10H18.49ZM8.5 16.5V11.5H10.5V16.5H8.5ZM7 16.5C7 17.46 7.55 18 8.5 18H10.5C11.45 18 12 17.46 12 16.5V11.5C12 10.54 11.46 10 10.5 10H8.5C7.54 10 7 10.54 7 11.5V16.5ZM13 16.5V11.5C13 10.53 13.54 10 14.5 10H16.5C17.46 10 18 10.53 18 11.5V13.01H16.5V11.5H14.5V16.5H16.5V14.99H18V16.5C18 17.47 17.46 18 16.5 18H14.5C13.54 18 13 17.47 13 16.5ZM4 8H6V5.89C6 4.82 5.47 4.25 4.59 4.12V4H18V8H20V3C20 2.45 19.56 2 19 2H5C4.46 2 4 2.47 4 3V8ZM2.5 16.5V11.5H4.5V16.5H2.5ZM1 18H4.5C5.45 18 6 17.46 6 16.5V11.5C6 10.54 5.46 10 4.5 10H1V18ZM20 20H4V21C4 21.56 4.45 22 5 22H19C19.55 22 20 21.55 20 20.99V20Z" fill="#2B2D33"/>
</svg>
