<svg width="24" height="24" viewBox="0 0 24 24" fill="none" xmlns="http://www.w3.org/2000/svg">
<path d="M21.21 16H10.79V15.88C11.8 15.78 12.18 15.5 12.62 14.84C13.28 13.85 14.42 13 16 13C17.58 13 18.72 13.85 19.38 14.84C19.82 15.5 20.2 15.78 21.21 15.88V16ZM14 23C15.66 23 17 21.66 17 20V18H21C21.55 18 22 17.55 22 17C22 13.69 19.31 11 16 11C12.69 11 10 13.69 10 17C10 17.55 10.45 18 11 18H15V20C15 20.57 14.57 21 14 21C13.43 21 13 20.57 13 20H11C11 21.66 12.34 23 14 23ZM3 21H8V19H4V4.89C4 3.82 3.47 3.25 2.59 3.12V3H16V9H18V2C18 1.45 17.55 1 17 1H3C2.45 1 2 1.45 2 2V20C2 20.55 2.45 21 3 21Z" fill="#2B2D33"/>
</svg>
