<svg width="24" height="24" viewBox="0 0 24 24" fill="none" xmlns="http://www.w3.org/2000/svg">
<path d="M20.24 17V17.12C18.68 17.42 18.23 17.71 17.37 18.71L14.24 22.35L15.76 23.65L21.76 16.65C22.01 16.35 22.07 15.94 21.91 15.58C21.75 15.23 21.39 15 21 15H16.76V14.88C18.32 14.58 18.77 14.29 19.63 13.29L22.76 9.65L21.24 8.35L15.24 15.35C14.98 15.65 14.92 16.06 15.09 16.42C15.25 16.77 15.61 17 16 17H20.24ZM2.59 4H16V9H18V3C18 2.45 17.55 2 17 2H3C2.45 2 2 2.45 2 3V21C2 21.55 2.45 22 3 22H12V20H4V5.89C4 4.82 3.47 4.25 2.59 4.12V4Z" fill="#2B2D33"/>
</svg>
