<svg width="24" height="24" viewBox="0 0 24 24" fill="none" xmlns="http://www.w3.org/2000/svg">
<path d="M16 7H8V9H16V7Z" fill="#2B2D33"/>
<path d="M2 3V5H3C3.52 5 4 5.38 4 6V20.4C4 21.3 4.48 21.8 5.3 21.8C6.43 21.8 6.89 20.69 7.33 20.69C7.83 20.69 8.36 22 9.66 22C10.96 22 11.51 20.69 12.01 20.69C12.51 20.69 13.03 22 14.33 22C15.63 22 16.21 20.69 16.71 20.69C17.14 20.69 17.6 21.8 18.72 21.8C19.53 21.8 20 21.3 20 20.4V6C20 5.38 20.48 5 21 5H22V3H2ZM19.33 5.13C18.56 5.4 18 6.1 18 7V19.25C17.59 18.84 17.16 18.69 16.7 18.69C15.4 18.69 14.83 20 14.33 20C13.83 20 13.31 18.69 12.01 18.69C10.71 18.69 10.16 20 9.66 20C9.16 20 8.63 18.69 7.33 18.69C6.86 18.69 6.42 18.85 6 19.28V7C6 6.1 5.44 5.4 4.67 5.13V5H19.33V5.13Z" fill="#2B2D33"/>
<path d="M16 11H8V13H16V11Z" fill="#2B2D33"/>
</svg>
