<svg width="24" height="24" viewBox="0 0 24 24" fill="none" xmlns="http://www.w3.org/2000/svg">
<path d="M2 20.01C2 21.09 2.69 22 4 22C5.61 22 6.08 20.69 6.51 20.69C6.99 20.69 7.48 22 8.72 22C9.97 22 10.52 20.69 11 20.69C11.45 20.69 11.95 21.82 13.02 21.98V19.7C12.58 19.39 12.04 18.49 11 18.49C9.75 18.49 9.21 19.8 8.72 19.8C8.24 19.8 7.75 18.49 6.51 18.49C5.21 18.49 4.75 20 4 20V4H18V8.99L20 9V2H2V20.01ZM6 8H16V6H6V8ZM6 12H13V10H6V12Z" fill="#2B2D33"/>
<path d="M21.81 13.04L20.4 11.63L14.5 17.52L14.41 17.43C14.94 16.69 14.83 15.97 14.23 15.37L12.79 13.93L11.38 15.35L14.74 18.7C15.16 19.11 15.74 19.11 16.15 18.7L21.81 13.04Z" fill="#2B2D33"/>
</svg>
