<svg width="24" height="24" viewBox="0 0 24 24" fill="none" xmlns="http://www.w3.org/2000/svg">
<path d="M13.5 12.99H16.5V14.49H13.5V12.99ZM16.5 18H13.5C12.54 18 12 17.47 12 16.5V11.5C12 10.55 12.55 10 13.5 10H16.5V11.5H13.5V16.5H16.5V18ZM3.5 8H5.5V5.89C5.5 4.82 4.97 4.25 4.09 4.12V4H17.5V8H19.5V3C19.5 2.45 19.06 2 18.5 2H4.5C3.96 2 3.5 2.47 3.5 3V8ZM20 12.99H22.5V14.49H20V12.99ZM7.5 14.5V11.5H9.5V14.5H7.5ZM21 18H19C18.04 18 17.5 17.47 17.5 16.5V11.5C17.5 10.55 18.05 10 19 10H22.5V11.5H19V16.5H21V12.99H22.5V16.5C22.5 17.47 21.96 18 21 18ZM6 18H7.5V16H9.5C10.45 16 11 15.46 11 14.5V11.5C11 10.54 10.46 10 9.5 10H6V18ZM1 18H3.5C4.46 18 5 17.47 5 16.5V10H3.5V16.5H1V18ZM19.5 20H3.5V21C3.5 21.56 3.95 22 4.5 22H18.5C19.05 22 19.5 21.55 19.5 20.99V20Z" fill="#2B2D33"/>
</svg>
