<svg width="24" height="24" viewBox="0 0 24 24" fill="none" xmlns="http://www.w3.org/2000/svg">
<path d="M6 20V6.5H6.12C6.31 7.42 6.91 8 8 8H18V19C18 19.55 17.56 20 17 20H6ZM12 16.78C11.83 16.46 11.6 16.3 11.22 16.18L10.37 15.9C10.13 15.82 10 15.69 10 15.44V13.89C10 12.82 9.47 12.25 8.59 12.12V12H15.41V12.12C14.53 12.25 14 12.82 14 13.89V15.44C14 15.69 13.87 15.82 13.63 15.9L12.78 16.18C12.4 16.3 12.17 16.46 12 16.78ZM12 19C12.86 19 12.7 18.32 13.82 17.95L14.67 17.67C15.59 17.37 16 16.69 16 15.5V11C16 10.45 15.55 10 15 10H9C8.45 10 8 10.45 8 11V15.5C8 16.69 8.41 17.37 9.33 17.67L10.18 17.95C11.3 18.32 11.14 19 12 19ZM5 22H17C18.66 22 20 20.65 20 19V7C20 6.44 19.56 6 19 6H7C6.45 6 6 5.55 6 5C6 4.45 6.45 4 7 4H20V2H7C5.35 2 4 3.34 4 5V21C4 21.55 4.45 22 5 22Z" fill="#2B2D33"/>
</svg>
