<svg width="24" height="24" viewBox="0 0 24 24" fill="none" xmlns="http://www.w3.org/2000/svg">
<path d="M21.0002 12H19.0002V17H21.0002V12Z" fill="#2B2D33"/>
<path d="M20.0002 18.3C19.2002 18.3 18.6002 18.9 18.6002 19.7C18.6002 20.5 19.3002 21 20.0002 21C20.7002 21 21.4002 20.4 21.4002 19.6C21.4002 18.8 20.8002 18.3 20.0002 18.3Z" fill="#2B2D33"/>
<path d="M19.7002 7.3L16.7002 4.3C16.6002 4.2 16.4002 4.1 16.2002 4L12.2002 3C11.9002 2.9 11.6002 3 11.3002 3.3L7.30017 7.3L8.70017 8.7L12.3002 5.1H12.5002C13.6002 5.4 14.0002 5.3 14.8002 4.6L14.9002 4.7L4.30017 15.3C4.20017 15.4 4.10017 15.6 4.00017 15.8L3.00017 19.8C2.90017 20.2 3.00017 20.5 3.20017 20.8C3.40017 21.1 3.80017 21.1 4.20017 21L8.20017 20C8.40017 20 8.50017 19.9 8.70017 19.7L19.7002 8.7C20.1002 8.3 20.1002 7.7 19.7002 7.3ZM5.20017 18.8L5.80017 16.3L7.70017 18.2L5.20017 18.8ZM9.00017 16.6L7.40017 15L16.0002 6.4L17.6002 8L9.00017 16.6Z" fill="#2B2D33"/>
</svg>
