<svg width="24" height="24" viewBox="0 0 24 24" fill="none" xmlns="http://www.w3.org/2000/svg">
<path d="M20.9 5.77998L19.49 4.36998L10.76 13.09L10.67 13C11.2 12.26 11.09 11.54 10.49 10.94L9.05 9.49999L7.64 10.92L11 14.27C11.42 14.68 12 14.68 12.41 14.27L20.9 5.77998ZM21.63 12.34C21.85 12.16 21.98 11.9 22 11.61C22.01 11.33 21.91 11.05 21.71 10.85L19.98 9.11999L18.56 10.54L19.51 11.48L17.29 13.28L17.99 15.92L15.27 16.06L14.29 18.61L12 17.12L9.71 18.61L8.73 16.06L6.01 15.92L6.72 13.28L4.59 11.56L6.72 9.83999L6.01 7.20999L8.73 7.05999L9.71 4.50998L12 5.99998L14.56 4.33998L15.66 5.76998L17.09 4.34998L15.57 2.38999C15.25 1.97999 14.67 1.87999 14.24 2.15999L12 3.61999L9.76 2.15999C9.51 1.99999 9.2 1.95999 8.91 2.04999C8.62 2.13999 8.39 2.35999 8.28 2.63999L7.33 5.12999L4.67 5.26998C4.37 5.28998 4.09 5.43999 3.91 5.67999C3.73 5.92999 3.67 6.23999 3.75 6.52999L4.45 9.10999L2.37 10.78C2.14 10.97 2 11.26 2 11.56C2 11.86 2.14 12.15 2.37 12.34L4.45 14.01L3.75 16.59C3.67 16.88 3.73 17.19 3.91 17.44C4.09 17.68 4.37 17.83 4.67 17.85L7.33 17.99L8.28 20.48C8.39 20.76 8.62 20.98 8.91 21.07C9.2 21.16 9.51 21.12 9.76 20.96L12 19.5L14.24 20.96C14.49 21.12 14.8 21.16 15.09 21.07C15.38 20.98 15.61 20.76 15.72 20.48L16.67 17.99L19.33 17.85C19.63 17.83 19.91 17.68 20.09 17.44C20.27 17.19 20.33 16.88 20.25 16.59L19.55 14.01L21.63 12.34Z" fill="#2B2D33"/>
</svg>
