<svg width="24" height="24" viewBox="0 0 24 24" fill="none" xmlns="http://www.w3.org/2000/svg">
<path d="M16.34 20.61C16.66 20.83 16.82 21.03 16.94 21.5L17.06 21.51C17.19 21.02 17.38 20.8 17.67 20.6L18.32 20.16C18.62 19.96 18.93 19.95 19.41 20.08L19.47 19.97C19.12 19.63 19 19.36 19 18.99V18.26C19 17.89 19.12 17.62 19.47 17.28L19.41 17.17C18.93 17.3 18.63 17.3 18.32 17.09L17.68 16.66C17.37 16.45 17.19 16.23 17.06 15.76H16.94C16.81 16.23 16.63 16.46 16.32 16.66L15.68 17.09C15.36 17.3 15.07 17.3 14.59 17.17L14.53 17.28C14.88 17.62 14.99 17.89 15 18.26V18.99C14.99 19.35 14.88 19.63 14.53 19.97L14.59 20.08C15.07 19.95 15.42 19.98 15.68 20.16L16.34 20.61ZM13.45 16.17L16.45 14.17C16.78 13.95 17.22 13.95 17.55 14.17L20.55 16.17C20.83 16.35 21 16.67 21 17V20.25C21 20.58 20.83 20.9 20.55 21.08L17.55 23.08C17.22 23.3 16.78 23.3 16.45 23.08L13.45 21.08C13.17 20.9 13 20.58 13 20.25V17C13 16.67 13.17 16.35 13.45 16.17ZM13 10H7V12H13V10ZM7 8H17V6H7V8ZM3.59 4H19V13H21V3C21 2.45 20.55 2 20 2H4C3.45 2 3 2.45 3 3V21C3 21.55 3.45 22 4 22H11V20H5V5.89C5 4.82 4.47 4.25 3.59 4.12V4Z" fill="#2B2D33"/>
</svg>
