<svg width="24" height="24" viewBox="0 0 24 24" fill="none" xmlns="http://www.w3.org/2000/svg">
<g clip-path="url(#clip0_345_2826)">
<path d="M10 8C10 9.1 9.1 10 8 10C6.9 10 6 9.1 6 8C6 6.9 6.9 6 8 6C9.1 6 10 6.9 10 8Z" fill="#2B2D33"/>
<path fill-rule="evenodd" clip-rule="evenodd" d="M7.98982 2C9.36982 2 10.6998 2.47 11.7798 3.34C12.8498 4.21 13.5898 5.42 13.8698 6.77C14.1498 8.12 13.9598 9.52 13.3298 10.75C12.8098 11.77 11.9898 12.62 10.9998 13.19V16H11.9998C12.5498 16 12.9998 16.45 12.9998 17V21C12.9998 21.55 12.5498 22 11.9998 22H5.99982C5.44982 22 4.99982 21.55 4.99982 21V13.2C4.00982 12.63 3.19982 11.78 2.66982 10.76C2.03982 9.53 1.84982 8.13 2.12982 6.78C2.40982 5.43 3.14982 4.22 4.20982 3.35C5.27982 2.48 6.60982 2 7.98982 2ZM10.9998 18H8.99982V11.93L9.59982 11.67C10.4398 11.3 11.1398 10.65 11.5598 9.84C11.9798 9.02 12.1098 8.09 11.9198 7.19C11.7298 6.29 11.2398 5.48 10.5198 4.91C9.79982 4.31 8.90982 4 7.98982 4C7.07982 4 6.18982 4.32 5.46982 4.9C4.75982 5.48 4.26982 6.29 4.07982 7.19C3.89982 8.09 4.02982 9.02 4.44982 9.84C4.86982 10.66 5.55982 11.3 6.39982 11.67L6.99982 11.93V20H10.9998V18Z" fill="#2B2D33"/>
<path d="M20.62 18.04L18.92 16.34C18.66 16.08 18.35 16.07 18.08 16.34L16.38 18.04L14.96 16.62L17.8 13.79L17.72 13.7C17.21 14.09 16.67 14.08 16.17 13.58L14.96 12.38L16.38 10.96L18.08 12.66C18.34 12.92 18.65 12.93 18.92 12.66L20.62 10.96L22.04 12.38L19.2 15.21L19.28 15.3C19.79 14.91 20.33 14.92 20.83 15.42L22.04 16.62L20.62 18.04Z" fill="#2B2D33"/>
</g>
<defs>
<clipPath id="clip0_345_2826">
<rect width="20.04" height="20" fill="white" transform="translate(2 2)"/>
</clipPath>
</defs>
</svg>
