<svg width="24" height="24" viewBox="0 0 24 24" fill="none" xmlns="http://www.w3.org/2000/svg">
<path d="M7 15H17.97V14.86C16.51 14.56 16.01 13.49 16.01 12H18C18.01 13.33 18.69 14.46 20.29 15.03C20.8 15.21 21.01 15.55 21.01 16C21.01 16.45 20.8 16.79 20.29 16.97C18.69 17.54 18.01 18.68 18 20.01H16.01C16.01 18.52 16.51 17.44 17.97 17.14V17H7V15ZM12 22V20H4V5H7V7H8C8.58 7 9 6.58 9 6L9.01 4H11V6C11 6.58 11.43 7 12 7H13V5H16V10H18V4C18 3.43 17.57 3 17 3H14.9C13.69 3 13.23 3.46 13.12 4.5H13L13.01 3C13.01 2.43 12.58 2 12.01 2H8.01C7.44 2 7.01 2.43 7.01 3L7 4.5H6.88C6.77 3.46 6.31 3 5.1 3H3C2.43 3 2 3.43 2 4V21C2 21.57 2.43 22 3 22H12Z" fill="#2B2D33"/>
</svg>
