<svg width="24" height="24" viewBox="0 0 24 24" fill="none" xmlns="http://www.w3.org/2000/svg">
<path d="M20.29 14.3L21.7 15.71L16.7 20.71C16.31 21.1 15.68 21.1 15.29 20.71L12.01 17.43L13.42 16.01L14.72 17.31C15.37 17.96 15.45 18.79 14.92 19.51L15 19.59L20.29 14.3ZM11 22V20H5V5H8V7H9C9.58 7 10 6.58 10 6V4H12V6C12 6.58 12.43 7 13 7H14V5H17V13H19V4C19 3.43 18.57 3 18 3H15.9C14.69 3 14.23 3.46 14.12 4.5H14V3C14 2.43 13.57 2 13 2H9C8.43 2 8 2.43 8 3V4.5H7.88C7.77 3.46 7.31 3 6.1 3H4C3.43 3 3 3.43 3 4V21C3 21.57 3.43 22 4 22H11Z" fill="#2B2D33"/>
</svg>
