<svg width="48" height="48" viewBox="0 0 48 48" fill="none" xmlns="http://www.w3.org/2000/svg">
<rect width="48" height="48" rx="12" fill="#2B2D33"/>
<path d="M18.25 22.02L23.97 23.29C24.34 23.37 24.63 23.66 24.71 24.03L25.98 29.75L31.25 16.75L18.25 22.02ZM23.39 24.69L23.31 24.61C22.76 24.92 22.36 24.92 21.7 24.78L14.76 23.24C14.35 23.15 14.04 22.8 14 22.37C13.97 21.95 14.21 21.55 14.61 21.39L32.66 14.07C33.02 13.92 33.44 14.01 33.72 14.28C33.99 14.56 34.08 14.98 33.93 15.34L26.61 33.39C26.45 33.79 26.05 34.03 25.63 34C25.2 33.96 24.85 33.65 24.76 33.23L23.23 26.32C23.08 25.64 23.08 25.24 23.39 24.69Z" fill="white"/>
</svg>
