<svg width="48" height="48" viewBox="0 0 48 48" fill="none" xmlns="http://www.w3.org/2000/svg">
<rect width="48" height="48" rx="12" fill="#2B2D33"/>
<path d="M28.5 32.56V19.72L31.46 18.73C32.1 18.52 32.35 18.11 32.38 17.43H32.5V30.28L29.54 31.26C28.9 31.47 28.65 31.88 28.62 32.56H28.5ZM19 19.31C19.72 19.31 20.31 18.72 20.31 18C20.31 17.28 19.72 16.69 19 16.69C18.28 16.69 17.69 17.28 17.69 18C17.69 18.72 18.28 19.31 19 19.31ZM19.06 23.33H18.94C18.72 22.43 18.5 22.22 17.93 21.65C17.04 20.74 16 19.17 16 17.75C16 16.29 17.28 15 19 15C20.72 15 22 16.29 22 17.75C22 19.18 20.96 20.74 20.05 21.66C19.5 22.23 19.28 22.43 19.06 23.33ZM19 25C19.39 25 19.67 24.82 20.78 23.78C22.28 22.37 24 20.04 24 17.75C24 15.07 21.7 13 19 13C16.3 13 14 15.07 14 17.75C14 20.04 15.72 22.37 17.22 23.78C18.33 24.82 18.61 25 19 25ZM15.43 34.01C15.56 34.01 15.7 33.99 15.84 33.94L21.5 32.05L27.18 33.95C27.29 33.99 27.39 34 27.5 34C27.6 34 27.7 33.99 27.81 33.95L33.72 31.98C34.33 31.78 34.5 31.49 34.5 30.9V16.95C34.5 16.39 34.09 15.99 33.55 15.99C33.43 15.99 33.31 16.01 33.18 16.05L27.46 17.96L25.74 17.53L25.26 19.47L26.5 19.78V31.61L22.5 30.28V27H20.5V30.28L17.54 31.26C16.9 31.47 16.65 31.88 16.62 32.56H16.5V25H14.5V33C14.5 33.63 14.9 34.01 15.43 34.01Z" fill="white"/>
</svg>
