<svg width="48" height="48" viewBox="0 0 48 48" fill="none" xmlns="http://www.w3.org/2000/svg">
<rect width="48" height="48" rx="12" fill="#2B2D33"/>
<path d="M24.67 24.67L25.23 23.54C25.7 22.56 26.06 22.06 26.98 21.11L26.89 21.02C25.94 21.94 25.43 22.29 24.45 22.77L23.33 23.33L22.77 24.45C22.29 25.43 21.94 25.94 21.02 26.89L21.11 26.98C22.06 26.06 22.56 25.7 23.54 25.23L24.67 24.67ZM28.95 19.05C29.25 19.35 29.33 19.82 29.14 20.2L26.31 25.86C26.21 26.06 26.06 26.21 25.86 26.31L20.21 29.13C19.82 29.33 19.36 29.25 19.05 28.95C18.75 28.66 18.67 28.18 18.86 27.8L21.69 22.14C21.79 21.95 21.95 21.79 22.14 21.69L27.8 18.86C28.18 18.67 28.65 18.75 28.95 19.05ZM14 24C14.01 18.47 18.48 13.99 24 14C29.52 14.01 34.01 18.48 34 24C33.99 29.52 29.53 34 24 34C18.48 34 13.99 29.52 14 24ZM24 16C19.58 16 16 19.58 16 24C16 28.42 19.58 32 24 32C28.42 32 32 28.42 32 24C32 19.58 28.42 16 24 16Z" fill="white"/>
</svg>
