<svg width="16" height="19" viewBox="0 0 16 19" fill="none" xmlns="http://www.w3.org/2000/svg">
<g clip-path="url(#clip0_347_3603)">
<path d="M2 16.76V2H14V16.76C12.06 16.11 10.54 14.52 8.98 11.72C8.73 11.27 8.44 11 7.99 11C7.54 11 7.27 11.27 7.02 11.72C5.47 14.51 3.94 16.1 2 16.76ZM0.95 18.93C3.2 18.93 6.57 16.96 7.93 13.69H8.07C9.43 16.95 12.76 18.93 15.05 18.93C15.7 18.93 16 18.5 16 17.81V1C16 0.45 15.55 0 15 0H1C0.45 0 0 0.45 0 1V17.81C0 18.5 0.3 18.93 0.95 18.93Z" fill="#FEE600"/>
</g>
<defs>
<clipPath id="clip0_347_3603">
<rect width="16" height="18.93" fill="white"/>
</clipPath>
</defs>
</svg>
