<svg width="24" height="24" viewBox="0 0 24 24" fill="none" xmlns="http://www.w3.org/2000/svg">
<path d="M16.7702 9.66L15.3502 8.25L14.2202 9.36C13.6802 9.89 13.6002 10.7 14.0402 11.43L13.9502 11.53L10.6802 8.25L9.28017 9.66L10.9602 11.35C11.2802 11.72 11.3102 12.29 10.9002 12.7L9.27017 14.33L10.6802 15.75L11.8102 14.62C12.4002 14.03 12.4402 13.29 11.9902 12.56L12.0802 12.47L15.3502 15.75L16.7602 14.34L15.1202 12.7C14.7102 12.29 14.7102 11.7 15.0602 11.35L16.7702 9.66Z" fill="#FEE600"/>
<path d="M18.0302 4H7.53017C7.20017 4 6.95017 4.12 6.74017 4.38L1.24017 11.38C0.920171 11.78 0.930171 12.23 1.24017 12.62L6.74017 19.62C6.94017 19.88 7.19017 20 7.53017 20H18.0302C19.7002 20 21.0302 18.67 21.0302 17V7C21.0302 5.33 19.7002 4 18.0302 4ZM19.0302 17C19.0302 17.56 18.5902 18 18.0302 18H8.03017L3.30017 12L8.03017 6H18.0302C18.5902 6 19.0302 6.44 19.0302 7V17Z" fill="#FEE600"/>
</svg>
