<svg width="24" height="24" viewBox="0 0 24 24" fill="none" xmlns="http://www.w3.org/2000/svg">
<path d="M20.7099 7.29L16.7099 3.29C16.3199 2.9 15.6799 2.9 15.2899 3.29L4.34987 14.23C4.13987 14.44 4.05987 14.59 3.99987 14.89L3.01987 19.8C2.86987 20.55 3.44987 21.13 4.18987 20.98L9.10987 20C9.40987 19.93 9.54987 19.86 9.75987 19.65L20.7099 8.7C21.0999 8.31 21.0999 7.68 20.7099 7.29ZM16.3299 12.32C15.5599 11.84 14.5699 12.02 13.5799 13L8.50987 18.08L5.29987 18.71L5.92987 15.49L10.9999 10.41C11.9899 9.43 12.1599 8.43 11.6799 7.67L11.7699 7.59L16.4199 12.24L16.3299 12.32ZM17.9099 10.74L17.8299 10.82L13.1699 6.17L13.2599 6.09C14.0199 6.57 15.0199 6.39 15.9999 5.41L18.5899 8C17.6099 8.98 17.4299 9.98 17.9099 10.74Z" fill="#FEE600"/>
</svg>
