<svg width="24" height="24" viewBox="0 0 24 24" fill="none" xmlns="http://www.w3.org/2000/svg">
<path d="M17 7.5L20 5.1V16.5L17 18.9V7.5ZM19.6 2.7V2.8L15.4 6.2C15.1 6.4 15 6.7 15 7V18H6V20H15V21C15 21.9 16 22.3 16.7 21.7L21.6 17.8C21.8 17.6 22 17.3 22 17V3C22 2.4 21.6 2 21 2H6V4H15.2C17 4 18.3 3.6 19.6 2.7Z" fill="#FEE600"/>
<path d="M12.3 12C12.8 11.8 13 11.4 13 11C13 10.5 12.8 10.2 12.3 10C10.6 9.3 9 8 9 6H7C7 8.1 8 9.4 9.6 9.9V10H3V12H9.6V12.1C8 12.6 7 13.9 7 16H9C9 14 10.6 12.7 12.3 12Z" fill="#FEE600"/>
</svg>
