<svg width="24" height="24" viewBox="0 0 24 24" fill="none" xmlns="http://www.w3.org/2000/svg">
<path d="M8 7.5V18.9L5 16.5V5.1L8 7.5ZM5.4 2.7C6.7 3.6 8 4 9.8 4H19V2H4C3.4 2 3 2.4 3 3V17C3 17.3 3.1 17.6 3.4 17.8L8.3 21.7C9 22.3 10 21.9 10 21V20H19V18H10V7C10 6.7 9.9 6.4 9.6 6.2L5.4 2.8V2.7Z" fill="#FEE600"/>
<path d="M21.3 12C21.8 11.8 22 11.4 22 11C22 10.5 21.8 10.2 21.3 10C19.6 9.3 18 8 18 6H16C16 8.1 17 9.4 18.6 9.9V10H12V12H18.6V12.1C17 12.6 16 13.9 16 16H18C18 14 19.6 12.7 21.3 12Z" fill="#FEE600"/>
</svg>
