<svg width="24" height="24" viewBox="0 0 24 24" fill="none" xmlns="http://www.w3.org/2000/svg">
<path d="M19 17C19 18.1 18.1 19 17 19C15.9 19 15 18.1 15 17C15 15.9 15.9 15 17 15C18.1 15 19 15.9 19 17ZM21 17C21 14.8 19.2 13 17 13C15.8 13 14.8 13.4 13.9 14.5C12.9 15.7 12.5 16 11 16H3V18H10.8C11.8 18 12.5 17.6 12.9 16.9H13V17C13 19.2 14.8 21 17 21C19.2 21 21 19.2 21 17ZM5 7C5 5.9 5.9 5 7 5C8.1 5 9 5.9 9 7C9 8.1 8.1 9 7 9C5.9 9 5 8.1 5 7ZM3 7C3 9.2 4.8 11 7 11C8.2 11 9.2 10.6 10.1 9.5C11.2 8.3 11.5 8 13 8H21V6H13.2C12.2 6 11.5 6.4 11.1 7.1H11V7C11 4.8 9.2 3 7 3C4.8 3 3 4.8 3 7Z" fill="#FEE600"/>
</svg>
