<svg width="24" height="24" viewBox="0 0 24 24" fill="none" xmlns="http://www.w3.org/2000/svg">
<path d="M14.39 7.02H9.61C9.05 7.02 8.8 7.75 9.25 8.09L11.64 9.88C11.86 10.05 12.14 10.05 12.36 9.88L14.74 8.09C15.2 7.74 14.97 7.02 14.39 7.02Z" fill="#FEE600"/>
<path d="M19 5.8V3C19 2.42 18.58 2 18 2H6C5.42 2 5 2.42 5 3V5.8C5 8.07 5.62 9.48 7.47 10.8L9.15 12L7.47 13.2C5.62 14.52 5 15.93 5 18.2V21C5 21.58 5.42 22 6 22H18C18.58 22 19 21.58 19 21V18.2C19 15.93 18.38 14.52 16.53 13.2L14.84 12L16.53 10.8C18.38 9.48 19 8.07 19 5.8ZM15.26 9.23L12.98 10.96V13.04L15.26 14.77C16.64 15.82 17 16.47 17 18.2C17 19.1 17.34 19.63 18.33 19.87V20H16.49C14.2 17.16 13.38 16 12 16C10.62 16 9.8 17.16 7.51 20H5.67V19.87C6.66 19.63 7 19.1 7 18.2C7 16.47 7.36 15.83 8.74 14.77L11 13.04V10.96L8.74 9.23C7.36 8.17 7 7.53 7 5.8C7 4.9 6.66 4.37 5.67 4.13V4H18.33V4.13C17.34 4.37 17 4.9 17 5.8C17 7.53 16.64 8.18 15.26 9.23Z" fill="#FEE600"/>
</svg>
