<svg width="24" height="24" viewBox="0 0 24 24" fill="none" xmlns="http://www.w3.org/2000/svg">
<path d="M19 17.4C19 18.4 19.5 19 20.3 19.3V19.4H5V7.4C5 6.4 4.5 5.8 3.7 5.5V5.4H13V3.4H4C3.4 3.4 3 3.9 3 4.4V20.4C3 21 3.4 21.4 4 21.4H20C20.5 21.4 21 21 21 20.4V11.4H19V17.4Z" fill="#FEE600"/>
<path d="M11.3 11.7L17.9 5.1L17.7 5C16.5 5.8 15.4 5.5 14.3 4.4L15.7 3C16.6 3.9 17.9 4.2 19.5 3.5C20 3.3 20.4 3.4 20.7 3.7C21 4 21.1 4.4 20.9 4.9C20.2 6.4 20.5 7.7 21.4 8.7L20 10.1C18.9 9 18.5 7.9 19.4 6.7L19.3 6.6L12.7 13.2L11.3 11.7Z" fill="#FEE600"/>
</svg>
