<svg width="24" height="24" viewBox="0 0 24 24" fill="none" xmlns="http://www.w3.org/2000/svg">
<path d="M17.25 7.37L18.75 6.04C20.15 7.63 21 9.72 21 12C21 16.97 16.97 21 12 21C7.03 21 3 16.97 3 12C3 7.03 7.03 3 12 3V2.86C10.54 2.56 10.04 1.49 10.04 0H12.03C12.04 1.33 12.72 2.46 14.32 3.03C14.83 3.21 15.04 3.55 15.04 4C15.04 4.45 14.83 4.79 14.32 4.97C12.72 5.54 12.04 6.67 12.03 8H10.04C10.04 6.51 10.54 5.44 12 5.14V5C8.13 5 5 8.13 5 12C5 15.87 8.13 19 12 19C15.87 19 19 15.86 19 12C19 10.23 18.34 8.6 17.25 7.37Z" fill="#FEE600"/>
</svg>
