<svg width="24" height="24" viewBox="0 0 24 24" fill="none" xmlns="http://www.w3.org/2000/svg">
<path d="M13.6 9.6V6H11.6V11.6C11.6 12.1 11.8 12.6 12.2 13L15.4 16.2L16.8 14.8L15.1 13.1C14.2 12.2 13.5 11.9 12.3 12.2V12.1C13.3 11.4 13.6 10.9 13.6 9.6Z" fill="#FEE600"/>
<path d="M12.6 2C7.1 2 2.6 6.5 2.6 12C2.6 14.7 3.7 17.2 5.5 19L5.4 19.1C4.2 18.3 3.1 18.6 2 19.7L3.4 21.1C4.3 20.2 5.6 19.9 7.2 20.6C7.7 20.8 8.1 20.7 8.4 20.4C8.7 20.1 8.8 19.7 8.6 19.2C7.9 17.7 8.2 16.4 9.1 15.4L7.7 14C6.6 15.1 6.2 16.2 7.1 17.4L7 17.5C5.6 16.1 4.7 14.1 4.7 11.9C4.7 7.5 8.3 3.9 12.7 3.9C17.1 3.9 20.7 7.5 20.7 11.9C20.7 16.3 17.1 19.9 12.7 19.9C12 19.9 11.4 19.8 10.7 19.6V21.6C11.4 21.7 12 21.8 12.7 21.8C18.2 21.8 22.7 17.3 22.7 11.8C22.6 6.5 18.2 2 12.6 2Z" fill="#FEE600"/>
</svg>
