<svg width="24" height="24" viewBox="0 0 24 24" fill="none" xmlns="http://www.w3.org/2000/svg">
<path d="M4 11.6C4 7.2 7.6 3.6 12 3.6C14.2 3.6 16.2 4.5 17.6 5.9L17.5 6C16.3 5.2 15.2 5.5 14.1 6.6L15.5 8C16.4 7.1 17.7 6.8 19.3 7.5C19.8 7.7 20.2 7.6 20.5 7.3C20.8 7 20.9 6.6 20.7 6.1C20 4.6 20.3 3.3 21.2 2.3L19.7 1C18.6 2.1 18.2 3.2 19.1 4.4L19 4.5C17.2 2.7 14.7 1.6 12 1.6C6.5 1.6 2 6.1 2 11.6C2 12.3 2.1 13 2.2 13.6H4.2C4.1 13 4 12.3 4 11.6Z" fill="#FEE600"/>
<path d="M21.8 9.6H19.8C20 10.2 20.1 10.9 20.1 11.6C20.1 16 16.5 19.6 12.1 19.6C9.9 19.6 7.9 18.7 6.5 17.3L6.6 17.2C7.8 18 8.9 17.7 10 16.6L8.6 15.2C7.7 16.1 6.4 16.4 4.8 15.7C4.3 15.5 3.9 15.6 3.6 15.9C3.3 16.2 3.2 16.6 3.4 17.1C4.1 18.6 3.8 19.9 2.9 20.9L4.3 22.3C5.4 21.2 5.8 20.1 4.9 18.9L5 18.8C6.8 20.6 9.3 21.7 12 21.7C17.5 21.7 22 17.2 22 11.7C22 10.9 21.9 10.3 21.8 9.6Z" fill="#FEE600"/>
<path d="M14.1 8.1L12.4 9.8C12.1 10.1 11.8 10.1 11.6 9.8L9.9 8.1L8.5 9.5L9.7 10.7C10.2 11.2 10.7 11.2 11.3 10.8L11.4 10.9L8.6 13.7L10 15.1L11.7 13.4C12 13.1 12.3 13.1 12.5 13.4L14.2 15.1L15.6 13.7L14.4 12.5C13.9 12 13.4 12 12.9 12.4L12.8 12.3L15.6 9.5L14.1 8.1Z" fill="#FEE600"/>
</svg>
