<svg width="24" height="24" viewBox="0 0 24 24" fill="none" xmlns="http://www.w3.org/2000/svg">
<path d="M20 3H4C3.5 3 3 3.5 3 4V20C3 20.6 3.5 21 4 21H20C20.5 21 21 20.6 21 20V4C21 3.5 20.5 3 20 3ZM20.4 9.1C19.5 9.2 19 9.8 19 10.9V19H5V10.9C5 9.8 4.5 9.3 3.6 9.1V9H7.8C9.2 8.6 9.5 7 9.5 7H5V5H19V7H14.5C14.5 7 14.9 8.6 16.3 9H20.4V9.1Z" fill="#FEE600"/>
<path d="M13 7.7C12.8 7.2 12.5 7 12 7C11.5 7 11.2 7.2 11 7.7C10.3 9.4 9 11 7 11V13C9.1 13 10.4 12 10.9 10.4H11V17H13V10.4H13.1C13.6 12 14.9 13 17 13V11C15 11 13.7 9.4 13 7.7Z" fill="#FEE600"/>
</svg>
