<svg width="24" height="24" viewBox="0 0 24 24" fill="none" xmlns="http://www.w3.org/2000/svg">
<path fill-rule="evenodd" clip-rule="evenodd" d="M12 2C12.3632 2 12.6978 2.19689 12.8742 2.51436L22.8742 20.5144C23.0462 20.8241 23.0416 21.2017 22.8619 21.5071C22.6822 21.8125 22.3543 22 22 22H2C1.64568 22 1.31781 21.8125 1.13813 21.5071C0.958444 21.2017 0.95377 20.8241 1.12584 20.5144L11.1258 2.51436C11.3022 2.19689 11.6368 2 12 2ZM11 15V10H13V15H11ZM10.75 17.5C10.75 18.1904 11.3096 18.75 12 18.75C12.6904 18.75 13.25 18.1904 13.25 17.5C13.25 16.8096 12.6904 16.25 12 16.25C11.3096 16.25 10.75 16.8096 10.75 17.5Z" fill="#FEE600"/>
</svg>
