<svg width="48" height="48" viewBox="0 0 48 48" fill="none" xmlns="http://www.w3.org/2000/svg">
<rect width="48" height="48" rx="12" fill="#2B2D33"/>
<path d="M19 26H17V29H14V31H17V34H19V31H22V29H19V26Z" fill="#FEE600"/>
<path d="M32.03 16.01H30.03C29.06 16.01 28.42 16.5 28.15 17.34H28.03V14H26.03V16.01H24.03C23.06 16.01 22.42 16.5 22.15 17.34H22.03V14H20.03V16H16.03C15.45 16 15.03 16.41 15.03 17V24H31.03V30H24V32H32.03C32.62 32 33.03 31.59 33.03 31V17C33.03 16.41 32.62 16.01 32.03 16.01ZM31.03 22H17.03V18H20.03V20H22.03V19.01C22.03 18.46 22.38 18.01 23.03 18.01H26.03V20H28.03V19.01C28.03 18.46 28.38 18.01 29.03 18.01H31.03V22Z" fill="#FEE600"/>
<path d="M29.64 27.01C29.64 26.12 28.92 25.4 28.03 25.4C27.15 25.4 26.43 26.12 26.43 27.01C26.43 27.89 27.15 28.61 28.03 28.61C28.92 28.61 29.64 27.9 29.64 27.01Z" fill="#FEE600"/>
</svg>
