<svg width="48" height="48" viewBox="0 0 48 48" fill="none" xmlns="http://www.w3.org/2000/svg">
<rect width="48" height="48" rx="12" fill="#2B2D33"/>
<path d="M27 28V22C27 21.07 26.48 20.38 25.67 20.12V20H32V26C32 26.93 32.52 27.62 33.33 27.88V28H27ZM16 28V22C16 21.07 15.48 20.38 14.67 20.12V20H21V26C21 26.93 21.52 27.62 22.33 27.88V28H16ZM15 30H22C22.6 30 23 29.6 23 29V19C23 18.4 22.6 18 22 18H15C14.4 18 14 18.4 14 19V29C14 29.6 14.4 30 15 30ZM26 30H33C33.6 30 34 29.6 34 29V19C34 18.4 33.6 18 33 18H26C25.4 18 25 18.4 25 19V29C25 29.6 25.4 30 26 30Z" fill="#FEE600"/>
</svg>
