<svg width="48" height="48" viewBox="0 0 48 48" fill="none" xmlns="http://www.w3.org/2000/svg">
<rect width="48" height="48" rx="12" fill="#2B2D33"/>
<path d="M20.21 22.28L18.79 23.7L22.29 27.2C22.68 27.59 23.32 27.59 23.71 27.2L28.71 22.2L27.29 20.78L22.07 26.01L21.98 25.92C22.41 25.12 22.25 24.31 21.6 23.66L20.21 22.28ZM21.41 33.66C22.24 33.88 23.11 34 24 34C24.89 34 25.76 33.88 26.59 33.66L26.07 31.73C25.41 31.91 24.72 32 24 32C23.28 32 22.59 31.91 21.93 31.73L21.41 33.66ZM29 32.66C30.52 31.78 31.78 30.52 32.66 29L30.93 28C30.23 29.21 29.21 30.23 28 30.93L29 32.66ZM15.34 29C16.22 30.52 17.48 31.78 19 32.66L20 30.93C18.79 30.23 17.77 29.21 17.07 28L15.34 29ZM34 24C34 23.11 33.88 22.24 33.66 21.41L31.73 21.93C31.91 22.59 32 23.28 32 24C32 24.72 31.91 25.41 31.73 26.07L33.66 26.59C33.88 25.76 34 24.89 34 24ZM14.34 21.41C14.12 22.24 14 23.11 14 24C14 24.89 14.12 25.76 14.34 26.59L16.27 26.07C16.09 25.41 16 24.72 16 24C16 23.28 16.09 22.59 16.27 21.93L14.34 21.41ZM19 15.34C17.48 16.22 16.22 17.48 15.34 19L17.07 20C17.77 18.79 18.79 17.77 20 17.07L19 15.34ZM32.66 19C31.78 17.48 30.52 16.22 29 15.34L28 17.07C29.21 17.77 30.23 18.79 30.93 20L32.66 19ZM24 14C23.11 14 22.24 14.12 21.41 14.34L21.93 16.27C22.59 16.09 23.28 16 24 16C24.72 16 25.41 16.09 26.07 16.27L26.59 14.34C25.76 14.12 24.89 14 24 14Z" fill="#FEE600"/>
</svg>
