<svg width="48" height="48" viewBox="0 0 48 48" fill="none" xmlns="http://www.w3.org/2000/svg">
<rect width="48" height="48" rx="12" fill="#2B2D33"/>
<path d="M28.7702 21.66L27.3502 20.25L26.2202 21.36C25.6802 21.89 25.6002 22.7 26.0402 23.43L25.9502 23.53L22.6802 20.25L21.2802 21.66L22.9602 23.35C23.2802 23.72 23.3102 24.29 22.9002 24.7L21.2702 26.33L22.6802 27.75L23.8102 26.62C24.4002 26.03 24.4402 25.29 23.9902 24.56L24.0802 24.47L27.3502 27.75L28.7602 26.34L27.1202 24.7C26.7102 24.29 26.7102 23.7 27.0602 23.35L28.7702 21.66Z" fill="#FEE600"/>
<path d="M30.0302 16H19.5302C19.2002 16 18.9502 16.12 18.7402 16.38L13.2402 23.38C12.9202 23.78 12.9302 24.23 13.2402 24.62L18.7402 31.62C18.9402 31.88 19.1902 32 19.5302 32H30.0302C31.7002 32 33.0302 30.67 33.0302 29V19C33.0302 17.33 31.7002 16 30.0302 16ZM31.0302 29C31.0302 29.56 30.5902 30 30.0302 30H20.0302L15.3002 24L20.0302 18H30.0302C30.5902 18 31.0302 18.44 31.0302 19V29Z" fill="#FEE600"/>
</svg>
