<svg width="48" height="48" viewBox="0 0 48 48" fill="none" xmlns="http://www.w3.org/2000/svg">
<rect width="48" height="48" rx="12" fill="#2B2D33"/>
<path d="M32.33 31H21V23C21 22.07 20.48 21.38 19.67 21.12V21H31V29C31 29.93 31.52 30.62 32.33 30.88V31ZM16 29H17V19C17 18.07 16.48 17.38 15.67 17.12V17H29V16C29 15.41 28.6 15 28 15H16C15.4 15 15 15.41 15 16V28C15 28.6 15.4 29 16 29ZM20 33H32C32.6 33 33 32.6 33 32V20C33 19.41 32.6 19 32 19H20C19.4 19 19 19.41 19 20V32C19 32.6 19.4 33 20 33Z" fill="#FEE600"/>
</svg>
