<svg width="48" height="48" viewBox="0 0 48 48" fill="none" xmlns="http://www.w3.org/2000/svg">
<rect width="48" height="48" rx="12" fill="#2B2D33"/>
<path d="M23 32.4899L22.88 32.5499C22.6 31.4799 22.14 30.8099 21.2 30.2799L17 27.9099V21.2099L23 24.5799V32.4899ZM17.03 18.9299V18.8099C18.13 19.0499 18.91 18.9999 19.82 18.4899L24 16.1499L29.96 19.4999L24 22.8499L17.03 18.9299ZM31 23.2999V27.9099L25 31.2899V24.5799L32.01 20.6399L32.12 20.7099C31.34 21.4899 30.99 22.2199 31 23.2999ZM23.51 33.8699C23.81 34.0399 24.19 34.0399 24.49 33.8699L32.49 29.3699C32.81 29.1899 33 28.8599 33 28.4999V19.4999C33 19.1399 32.81 18.8099 32.49 18.6299L24.49 14.1299C24.19 13.9599 23.81 13.9599 23.51 14.1299L15.51 18.6299C15.19 18.8099 15 19.1399 15 19.4999V28.4999C15 28.8599 15.19 29.1899 15.51 29.3699L23.51 33.8699Z" fill="#FEE600"/>
</svg>
