<svg width="48" height="48" viewBox="0 0 48 48" fill="none" xmlns="http://www.w3.org/2000/svg">
<rect width="48" height="48" rx="12" fill="#2B2D33"/>
<path d="M20.25 25.25C20.9404 25.25 21.5 24.6904 21.5 24C21.5 23.3096 20.9404 22.75 20.25 22.75C19.5596 22.75 19 23.3096 19 24C19 24.6904 19.5596 25.25 20.25 25.25Z" fill="#FEE600"/>
<path d="M25.25 24C25.25 24.6904 24.6904 25.25 24 25.25C23.3096 25.25 22.75 24.6904 22.75 24C22.75 23.3096 23.3096 22.75 24 22.75C24.6904 22.75 25.25 23.3096 25.25 24Z" fill="#FEE600"/>
<path d="M27.75 25.25C28.4404 25.25 29 24.6904 29 24C29 23.3096 28.4404 22.75 27.75 22.75C27.0596 22.75 26.5 23.3096 26.5 24C26.5 24.6904 27.0596 25.25 27.75 25.25Z" fill="#FEE600"/>
<path fill-rule="evenodd" clip-rule="evenodd" d="M24 14C18.4772 14 14 18.4772 14 24C14 29.5228 18.4772 34 24 34C29.5228 34 34 29.5228 34 24C34 18.4772 29.5228 14 24 14ZM16 24C16 19.5817 19.5817 16 24 16C28.4183 16 32 19.5817 32 24C32 28.4183 28.4183 32 24 32C19.5817 32 16 28.4183 16 24Z" fill="#FEE600"/>
</svg>
