<svg width="48" height="48" viewBox="0 0 48 48" fill="none" xmlns="http://www.w3.org/2000/svg">
<rect width="48" height="48" rx="12" fill="#2B2D33"/>
<path d="M23 30.96V21H25V30.96H25.14C25.44 29.5 26.51 29 28 29V30.99C26.67 31 25.54 31.68 24.97 33.28C24.79 33.79 24.45 34 24 34C23.55 34 23.21 33.79 23.03 33.28C22.46 31.68 21.33 31 20 30.99V29C21.49 29 22.56 29.5 22.86 30.96H23ZM29 28C31.76 28 34 25.76 34 23C34 20.76 32.51 18.82 30.42 18.21C29.32 15.69 26.82 14 24 14C20.43 14 17.49 16.67 17.06 20.12C15.3 20.54 14 22.12 14 24C14 26.21 15.79 28 18 28H21V26H18C16.9 26 16 25.11 16 24C16 22.9 16.9 22 18 22C18.65 22 19 21.59 19 21C19 18.24 21.24 16 24 16C26.15 16 28.04 17.38 28.73 19.38C28.85 19.73 29.15 19.98 29.51 20.05C30.93 20.33 32 21.54 32 23C32 24.66 30.66 26 29 26H27V28H29Z" fill="#FEE600"/>
</svg>
