<svg width="48" height="48" viewBox="0 0 48 48" fill="none" xmlns="http://www.w3.org/2000/svg">
<rect width="48" height="48" rx="12" fill="#2B2D33"/>
<path d="M21.2998 25.7997L14.2995 32.8L15.6995 34.2L22.6998 27.1997L21.2998 25.7997Z" fill="#FEE600"/>
<path d="M15.5 28.5C16.3284 28.5 17 27.8284 17 27C17 26.1716 16.3284 25.5 15.5 25.5C14.6716 25.5 14 26.1716 14 27C14 27.8284 14.6716 28.5 15.5 28.5Z" fill="#FEE600"/>
<path d="M21.5 34.5C22.3284 34.5 23 33.8284 23 33C23 32.1716 22.3284 31.5 21.5 31.5C20.6716 31.5 20 32.1716 20 33C20 33.8284 20.6716 34.5 21.5 34.5Z" fill="#FEE600"/>
<path d="M32.53 15.01H30.53C29.56 15.01 28.92 15.5 28.65 16.34H28.53V13H26.53V15.01H24.53C23.56 15.01 22.92 15.5 22.65 16.34H22.53V13H20.53V15H16.53C15.95 15 15.53 15.41 15.53 16V23H31.53V29H24.5V31H32.53C33.12 31 33.53 30.59 33.53 30V16C33.53 15.41 33.12 15.01 32.53 15.01ZM31.53 21H17.53V17H20.53V19H22.53V18.01C22.53 17.46 22.88 17.01 23.53 17.01H26.53V19H28.53V18.01C28.53 17.46 28.88 17.01 29.53 17.01H31.53V21Z" fill="#FEE600"/>
</svg>
