<svg width="48" height="48" viewBox="0 0 48 48" fill="none" xmlns="http://www.w3.org/2000/svg">
<rect width="48" height="48" rx="12" fill="#2B2D33"/>
<path d="M32.7099 19.2901L28.7099 15.2901C28.3199 14.9001 27.6799 14.9001 27.2899 15.2901L16.3499 26.2301C16.1399 26.4401 16.0599 26.5901 15.9999 26.8901L15.0199 31.8001C14.8699 32.5501 15.4499 33.1301 16.1899 32.9801L21.1099 32.0001C21.4099 31.9301 21.5499 31.8601 21.7599 31.6501L32.7099 20.7001C33.0999 20.3101 33.0999 19.6801 32.7099 19.2901ZM28.3299 24.3201C27.5599 23.8401 26.5699 24.0201 25.5799 25.0001L20.5099 30.0801L17.2999 30.7101L17.9299 27.4901L22.9999 22.4101C23.9899 21.4301 24.1599 20.4301 23.6799 19.6701L23.7699 19.5901L28.4199 24.2401L28.3299 24.3201ZM29.9099 22.7401L29.8299 22.8201L25.1699 18.1701L25.2599 18.0901C26.0199 18.5701 27.0199 18.3901 27.9999 17.4101L30.5899 20.0001C29.6099 20.9801 29.4299 21.9801 29.9099 22.7401Z" fill="#FEE600"/>
</svg>
