<svg width="48" height="48" viewBox="0 0 48 48" fill="none" xmlns="http://www.w3.org/2000/svg">
<rect width="48" height="48" rx="12" fill="#2B2D33"/>
<path d="M29 19.5L32 17.1V28.5L29 30.9V19.5ZM31.6 14.7V14.8L27.4 18.2C27.1 18.4 27 18.7 27 19V30H18V32H27V33C27 33.9 28 34.3 28.7 33.7L33.6 29.8C33.8 29.6 34 29.3 34 29V15C34 14.4 33.6 14 33 14H18V16H27.2C29 16 30.3 15.6 31.6 14.7Z" fill="#FEE600"/>
<path d="M24.3 24C24.8 23.8 25 23.4 25 23C25 22.5 24.8 22.2 24.3 22C22.6 21.3 21 20 21 18H19C19 20.1 20 21.4 21.6 21.9V22H15V24H21.6V24.1C20 24.6 19 25.9 19 28H21C21 26 22.6 24.7 24.3 24Z" fill="#FEE600"/>
</svg>
