<svg width="48" height="48" viewBox="0 0 48 48" fill="none" xmlns="http://www.w3.org/2000/svg">
<rect width="48" height="48" rx="12" fill="#2B2D33"/>
<path d="M13.3999 23.11L16.9899 26.3C17.6599 26.88 18.3899 27.1 19.1199 27.04L19.1599 27.17C18.5299 27.54 18.0699 28.14 17.8699 29.02L16.8399 33.69C16.6199 34.68 17.5999 35.33 18.4299 34.85L22.5799 32.44C23.3499 31.98 23.7799 31.34 23.9399 30.63H24.0699C24.2299 31.34 24.6599 31.99 25.4299 32.44L29.5799 34.85C30.4099 35.33 31.3899 34.68 31.1699 33.69L30.1399 29.02C29.9499 28.14 29.4799 27.54 28.8499 27.17L28.8899 27.04C29.6099 27.1 30.3499 26.89 31.0099 26.3L34.5999 23.11C35.3199 22.47 35.0199 21.34 33.9899 21.24L29.2199 20.77C28.3099 20.68 27.5799 20.95 27.0299 21.44L26.9399 21.37C27.2399 20.7 27.2599 19.93 26.8999 19.09L24.9799 14.71C24.7599 14.21 24.4199 14 23.9899 14C23.5599 14 23.2399 14.21 23.0199 14.71L21.0999 19.09C20.7399 19.92 20.7499 20.7 21.0599 21.36L20.9599 21.44C20.4199 20.95 19.6899 20.7 18.7799 20.77L13.9999 21.24C12.9799 21.34 12.6699 22.47 13.3999 23.11Z" fill="#FEE600"/>
</svg>
