<svg width="48" height="48" viewBox="0 0 48 48" fill="none" xmlns="http://www.w3.org/2000/svg">
<rect width="48" height="48" rx="12" fill="#2B2D33"/>
<path fill-rule="evenodd" clip-rule="evenodd" d="M16 15C15.4 15 15 15.4 15 16V22C15 22.6 15.4 23 16 23H22C22.6 23 23 22.6 23 22V16C23 15.4 22.6 15 22 15H16ZM17 17H21V21H17V17Z" fill="#FEE600"/>
<path fill-rule="evenodd" clip-rule="evenodd" d="M16 25C15.4 25 15 25.4 15 26V32C15 32.6 15.4 33 16 33H22C22.6 33 23 32.6 23 32V26C23 25.4 22.6 25 22 25H16ZM17 27H21V31H17V27Z" fill="#FEE600"/>
<path fill-rule="evenodd" clip-rule="evenodd" d="M25 16C25 15.4 25.4 15 26 15H32C32.6 15 33 15.4 33 16V22C33 22.6 32.6 23 32 23H26C25.4 23 25 22.6 25 22V16ZM27 21H31V17H27V21Z" fill="#FEE600"/>
<path fill-rule="evenodd" clip-rule="evenodd" d="M26 25C25.4 25 25 25.4 25 26V32C25 32.6 25.4 33 26 33H32C32.6 33 33 32.6 33 32V26C33 25.4 32.6 25 32 25H26ZM27 27H31V31H27V27Z" fill="#FEE600"/>
</svg>
