<svg width="48" height="48" viewBox="0 0 48 48" fill="none" xmlns="http://www.w3.org/2000/svg">
<rect width="48" height="48" rx="12" fill="#2B2D33"/>
<path d="M15.7 19H21V17H16C15.5 17 15 17.5 15 18V33C15 33.6 15.5 34 16 34H32C32.5 34 33 33.6 33 33V18C33 17.5 32.5 17 32 17H27V19H31V30C31 31 31.5 31.6 32.3 31.9V32H17V21C17 20 16.5 19.4 15.7 19.1V19Z" fill="#FEE600"/>
<path d="M25 15V26H25.1C25.4 24.5 26.4 24 28 24V26C26.7 26 25.6 26.7 25 28.3C24.8 28.8 24.5 29 24 29C23.6 29 23.2 28.8 23 28.3C22.5 26.7 21.3 26 20 26V24C21.6 24 22.6 24.5 22.9 26H23V15H25Z" fill="#FEE600"/>
</svg>
