<svg width="48" height="48" viewBox="0 0 48 48" fill="none" xmlns="http://www.w3.org/2000/svg">
<rect width="48" height="48" rx="12" fill="#2B2D33"/>
<path d="M13 23H21V21H13V23ZM28 19H13V17H28V19ZM23 28C23 25.2 25.2 23 28 23C30.8 23 33 25.2 33 28C33 30.8 30.8 33 28 33C25.2 33 23 30.8 23 28ZM28 21C24.1 21 21 24.1 21 28C21 31.9 24.1 35 28 35C31.9 35 35 31.9 35 28C35 24.1 31.9 21 28 21ZM26.6 25.2C26.6 24.4 27.2 23.8 28 23.8C28.8 23.8 29.4 24.4 29.4 25.2C29.4 26 28.8 26.6 28 26.6C27.2 26.6 26.6 26 26.6 25.2ZM29 31.5V27.5H27V31.5H29ZM13 15H28V13H13V15Z" fill="#FEE600"/>
</svg>
