<svg width="48" height="48" viewBox="0 0 48 48" fill="none" xmlns="http://www.w3.org/2000/svg">
<rect width="48" height="48" rx="12" fill="#2B2D33"/>
<path d="M24.06 24.49C24.15 25.3 24.54 25.91 25.42 26.58L26 27.02V28.01H22V27.02L22.58 26.58C23.46 25.91 23.85 25.3 23.94 24.49H24.06ZM24.06 23.53H23.94C23.85 22.72 23.46 22.11 22.58 21.44L22 21V20.01H26V21L25.42 21.44C24.54 22.11 24.15 22.72 24.06 23.53ZM21 30.01H27C27.57 30.01 28 29.58 28 29.01V26.51C28 26.16 27.93 25.97 27.65 25.75L26.53 24.9C25.85 24.39 25.85 23.63 26.53 23.12L27.66 22.26C27.93 22.05 28 21.85 28 21.51V19.01C28 18.44 27.57 18.01 27 18.01H21C20.43 18.01 20 18.44 20 19.01V21.51C20 21.85 20.07 22.05 20.35 22.27L21.47 23.12C22.18 23.65 22.18 24.37 21.47 24.9L20.34 25.76C20.07 25.97 20 26.16 20 26.51V29.01C20 29.58 20.43 30.01 21 30.01ZM24 32C19.58 32 16 28.42 16 24C16 19.58 19.58 16 24 16C28.42 16 32 19.58 32 24C32 28.42 28.42 32 24 32ZM24 34C29.52 34 34 29.52 34 24C34 18.48 29.52 14 24 14C18.48 14 14 18.48 14 24C14 29.52 18.48 34 24 34Z" fill="#FEE600"/>
</svg>
