<svg width="48" height="48" viewBox="0 0 48 48" fill="none" xmlns="http://www.w3.org/2000/svg">
<rect width="48" height="48" rx="12" fill="#2B2D33"/>
<path d="M19 16H29V14H19V16ZM17 20H31V18H17V20ZM24 27.75L19 24H29L24 27.75ZM17 32V28C17 26.22 16.75 25.42 15.65 24.13L15.72 24.04L23.4 29.8C23.8 30.1 24.2 30.1 24.6 29.8L32.28 24.04L32.35 24.13C31.25 25.42 31 26.22 31 28V32H17ZM16 34H32C32.57 34 33 33.57 33 33V23C33 22.43 32.57 22 32 22H16C15.43 22 15 22.43 15 23V33C15 33.57 15.43 34 16 34Z" fill="#FEE600"/>
</svg>
