<svg width="48" height="48" viewBox="0 0 48 48" fill="none" xmlns="http://www.w3.org/2000/svg">
<rect width="48" height="48" rx="12" fill="#2B2D33"/>
<path d="M24 20.73L17.91 16H30.09L24 20.73ZM15 28H18V26H16V19.32C16 17.97 15.67 17.13 14.73 16.21L14.8 16.11L23.39 22.79C23.75 23.07 24.25 23.07 24.61 22.79L33.2 16.11L33.27 16.21C32.33 17.13 32 17.97 32 19.32V26H30V28H33C33.55 28 34 27.55 34 27V15C34 14.45 33.55 14 33 14H15C14.45 14 14 14.45 14 15V27C14 27.55 14.45 28 15 28Z" fill="#FEE600"/>
<path d="M23 35V28.03H22.86C22.56 29.49 21.59 29.99 20 29.99V28C21.33 27.99 22.45 27.31 23.03 25.71C23.21 25.2 23.55 24.99 24 24.99C24.45 24.99 24.79 25.2 24.97 25.71C25.55 27.31 26.67 27.99 28 28V29.99C26.41 29.99 25.44 29.49 25.14 28.03H25V35H23Z" fill="#FEE600"/>
</svg>
