<svg width="48" height="48" viewBox="0 0 48 48" fill="none" xmlns="http://www.w3.org/2000/svg">
<rect width="48" height="48" rx="12" fill="#2B2D33"/>
<path d="M32.01 24.01C32.01 28.43 28.43 32.01 24.01 32.01C22.16 32.01 20.46 31.38 19.1 30.33L31.31 18.12L31.39 18.21C30.96 18.8 30.92 19.9 31.25 20.6C31.74 21.64 32.01 22.79 32.01 24.01ZM16 24C16 19.58 19.58 16 24 16C25.85 16 27.55 16.63 28.91 17.68L16.7 29.89L16.62 29.8C17.05 29.21 17.09 28.11 16.76 27.41C16.27 26.37 16 25.22 16 24ZM24 14C18.48 14 14 18.48 14 24C14 29.52 18.48 34 24 34C29.52 34 34 29.52 34 24C34 18.48 29.52 14 24 14Z" fill="#FEE600"/>
</svg>
