<svg width="48" height="48" viewBox="0 0 48 48" fill="none" xmlns="http://www.w3.org/2000/svg">
<rect width="48" height="48" rx="12" fill="#2B2D33"/>
<path d="M25.6 21.6V18H23.6V23.6C23.6 24.1 23.8 24.6 24.2 25L27.4 28.2L28.8 26.8L27.1 25.1C26.2 24.2 25.5 23.9 24.3 24.2V24.1C25.3 23.4 25.6 22.9 25.6 21.6Z" fill="#FEE600"/>
<path d="M24.6 14C19.1 14 14.6 18.5 14.6 24C14.6 26.7 15.7 29.2 17.5 31L17.4 31.1C16.2 30.3 15.1 30.6 14 31.7L15.4 33.1C16.3 32.2 17.6 31.9 19.2 32.6C19.7 32.8 20.1 32.7 20.4 32.4C20.7 32.1 20.8 31.7 20.6 31.2C19.9 29.7 20.2 28.4 21.1 27.4L19.7 26C18.6 27.1 18.2 28.2 19.1 29.4L19 29.5C17.6 28.1 16.7 26.1 16.7 23.9C16.7 19.5 20.3 15.9 24.7 15.9C29.1 15.9 32.7 19.5 32.7 23.9C32.7 28.3 29.1 31.9 24.7 31.9C24 31.9 23.4 31.8 22.7 31.6V33.6C23.4 33.7 24 33.8 24.7 33.8C30.2 33.8 34.7 29.3 34.7 23.8C34.6 18.5 30.2 14 24.6 14Z" fill="#FEE600"/>
</svg>
