<svg width="48" height="48" viewBox="0 0 48 48" fill="none" xmlns="http://www.w3.org/2000/svg">
<rect width="48" height="48" rx="12" fill="#2B2D33"/>
<path d="M16 23.6C16 19.2 19.6 15.6 24 15.6C26.2 15.6 28.2 16.5 29.6 17.9L29.5 18C28.3 17.2 27.2 17.5 26.1 18.6L27.5 20C28.4 19.1 29.7 18.8 31.3 19.5C31.8 19.7 32.2 19.6 32.5 19.3C32.8 19 32.9 18.6 32.7 18.1C32 16.6 32.3 15.3 33.2 14.3L31.7 13C30.6 14.1 30.2 15.2 31.1 16.4L31 16.5C29.2 14.7 26.7 13.6 24 13.6C18.5 13.6 14 18.1 14 23.6C14 24.3 14.1 25 14.2 25.6H16.2C16.1 25 16 24.3 16 23.6Z" fill="#FEE600"/>
<path d="M33.8 21.6H31.8C32 22.2 32.1 22.9 32.1 23.6C32.1 28 28.5 31.6 24.1 31.6C21.9 31.6 19.9 30.7 18.5 29.3L18.6 29.2C19.8 30 20.9 29.7 22 28.6L20.6 27.2C19.7 28.1 18.4 28.4 16.8 27.7C16.3 27.5 15.9 27.6 15.6 27.9C15.3 28.2 15.2 28.6 15.4 29.1C16.1 30.6 15.8 31.9 14.9 32.9L16.3 34.3C17.4 33.2 17.8 32.1 16.9 30.9L17 30.8C18.8 32.6 21.3 33.7 24 33.7C29.5 33.7 34 29.2 34 23.7C34 22.9 33.9 22.3 33.8 21.6Z" fill="#FEE600"/>
</svg>
