<svg width="48" height="48" viewBox="0 0 48 48" fill="none" xmlns="http://www.w3.org/2000/svg">
<rect width="48" height="48" rx="12" fill="#2B2D33"/>
<path d="M31.4999 24C31.4999 23.8 31.4999 23.6 31.4999 23.5L34.0999 21.6L33.9999 20.9C33.9999 20.8 33.7999 19.9 33.0999 18.7C32.3999 17.5 31.7999 17 31.6999 16.9L31.1999 16.5L28.1999 17.8C27.8999 17.6 27.5999 17.4 27.2999 17.3L26.8999 14L26.2999 13.8C26.1999 13.8 25.2999 13.5 23.9999 13.5C22.6999 13.5 21.7999 13.8 21.6999 13.8L21.0999 14L20.6999 17.3C20.3999 17.4 20.0999 17.6 19.7999 17.8L16.7999 16.5L16.2999 16.9C16.1999 17 15.5999 17.6 14.8999 18.8C14.2999 19.9 13.9999 20.8 13.9999 20.9L13.8999 21.5L16.4999 23.4C16.4999 23.6 16.4999 23.8 16.4999 23.9C16.4999 24 16.4999 24.3 16.4999 24.4L13.8999 26.3L13.9999 27.1C13.9999 27.2 14.1999 28.1 14.8999 29.3C15.5999 30.4 16.1999 31.1 16.2999 31.1L16.7999 31.5L19.7999 30.2C20.0999 30.4 20.3999 30.6 20.6999 30.7L21.0999 34L21.6999 34.2C21.7999 34.2 22.6999 34.5 23.9999 34.5C25.2999 34.5 26.1999 34.2 26.2999 34.2L26.8999 34L27.2999 30.8C27.5999 30.6 27.8999 30.5 28.1999 30.3L31.1999 31.6L31.6999 31.2C31.7999 31.1 32.4999 30.5 33.0999 29.4C33.6999 28.3 33.9999 27.4 33.9999 27.2L34.0999 26.6L31.4999 24.7C31.4999 24.4 31.4999 24.2 31.4999 24ZM31.7999 27.3C31.6999 27.6 31.4999 27.9 31.2999 28.3C31.0999 28.7 30.8999 29 30.6999 29.2L27.8999 28L27.3999 28.4C26.9999 28.8 26.4999 29 25.8999 29.2L25.2999 29.4L24.9999 32.5C24.3999 32.6 23.3999 32.6 22.7999 32.5L22.4999 29.4L21.9999 29.1C21.4999 28.9 20.9999 28.6 20.4999 28.3L19.9999 27.9L17.1999 29.1C16.9999 28.9 16.7999 28.6 16.5999 28.2C16.3999 27.8 16.1999 27.5 16.0999 27.2L18.5999 25.4L18.4999 24.8C18.4999 24.5 18.3999 24.2 18.3999 24C18.3999 23.8 18.3999 23.4 18.4999 23.2L18.5999 22.6L16.1999 20.7C16.2999 20.4 16.4999 20.1 16.6999 19.7C16.8999 19.3 17.0999 19 17.2999 18.8L20.0999 20L20.5999 19.6C20.9999 19.4 21.4999 19.1 21.9999 18.9L22.5999 18.7L22.8999 15.6C23.4999 15.5 24.4999 15.5 25.0999 15.6L25.3999 18.7L25.9999 18.9C26.4999 19.1 26.9999 19.4 27.4999 19.7L27.9999 20.1L30.7999 18.9C30.9999 19.1 31.1999 19.4 31.3999 19.8C31.5999 20.2 31.7999 20.5 31.8999 20.8L29.3999 22.6L29.4999 23.2C29.4999 23.5 29.5999 23.8 29.5999 24C29.5999 24.2 29.5999 24.6 29.4999 24.8L29.3999 25.4L31.7999 27.3Z" fill="#FEE600"/>
<path d="M23.9999 26C25.1045 26 25.9999 25.1046 25.9999 24C25.9999 22.8954 25.1045 22 23.9999 22C22.8953 22 21.9999 22.8954 21.9999 24C21.9999 25.1046 22.8953 26 23.9999 26Z" fill="#FEE600"/>
</svg>
