<svg width="48" height="48" viewBox="0 0 48 48" fill="none" xmlns="http://www.w3.org/2000/svg">
<rect width="48" height="48" rx="12" fill="#2B2D33"/>
<path d="M22.86 24.04C22.56 25.5 21.49 26 20 26V24.01C21.33 24 22.46 23.32 23.03 21.72C23.21 21.21 23.55 21 24 21C24.45 21 24.79 21.21 24.97 21.72C25.54 23.32 26.67 24 28 24.01V26C26.51 26 25.44 25.5 25.14 24.04H25V34H23V24.04H22.86ZM29 28C31.76 28 34 25.76 34 23C34 20.76 32.51 18.82 30.42 18.21C29.32 15.69 26.82 14 24 14C20.43 14 17.49 16.67 17.06 20.12C15.3 20.54 14 22.12 14 24C14 26.21 15.79 28 18 28H19V26H18C16.9 26 16 25.11 16 24C16 22.9 16.9 22 18 22C18.65 22 19 21.59 19 21C19 18.24 21.24 16 24 16C26.15 16 28.04 17.38 28.73 19.38C28.85 19.73 29.15 19.98 29.51 20.05C30.93 20.33 32 21.54 32 23C32 24.66 30.66 26 29 26V28Z" fill="#FEE600"/>
</svg>
