<svg width="48" height="48" viewBox="0 0 48 48" fill="none" xmlns="http://www.w3.org/2000/svg">
<rect width="48" height="48" rx="12" fill="#2B2D33"/>
<path d="M23 25V19H25V25H23Z" fill="#FEE600"/>
<path d="M24 29C23.3096 29 22.75 28.4404 22.75 27.75C22.75 27.0596 23.3096 26.5 24 26.5C24.6904 26.5 25.25 27.0596 25.25 27.75C25.25 28.4404 24.6904 29 24 29Z" fill="#FEE600"/>
<path fill-rule="evenodd" clip-rule="evenodd" d="M24 34C18.4772 34 14 29.5228 14 24C14 18.4772 18.4772 14 24 14C29.5228 14 34 18.4772 34 24C34 29.5228 29.5228 34 24 34ZM24 32C28.4183 32 32 28.4183 32 24C32 19.5817 28.4183 16 24 16C19.5817 16 16 19.5817 16 24C16 28.4183 19.5817 32 24 32Z" fill="#FEE600"/>
</svg>
