<svg width="24" height="24" viewBox="0 0 24 24" fill="none" xmlns="http://www.w3.org/2000/svg">
<path fill-rule="evenodd" clip-rule="evenodd" d="M14.6 18.8L16 22.4C16.2 22.8 16.5 23 17 23C17.4 23 17.8 22.7 17.9 22.3L21.4 11.8C21.5 11.4 21.4 11 21.2 10.8C20.9 10.5 20.5 10.4 20.2 10.6L9.7 14.1C9.3 14.2 9 14.6 9 15C9 15.4 9.2 15.8 9.6 16L13.2 17.4L11.3 19.3L12.7 20.7L14.6 18.8ZM15.4 16.1L12.9 15.1L18.9 13.1L16.9 19.1L15.9 16.6C15.8 16.4 15.6 16.2 15.4 16.1Z" fill="white"/>
<path d="M3 22H9V20H4V5.9C4 4.8 3.5 4.3 2.6 4.1V4H16V9H18V3C18 2.5 17.5 2 17 2H3C2.4 2 2 2.5 2 3V21C2 21.6 2.4 22 3 22Z" fill="white"/>
</svg>
