<svg width="24" height="24" viewBox="0 0 24 24" fill="none" xmlns="http://www.w3.org/2000/svg">
<path d="M15 13C13.35 13 12 14.34 12 16C12 17.66 13.35 19 15 19C16.66 19 18 17.66 18 16C18 14.34 16.66 13 15 13ZM20.46 20.04L21.71 21.29L20.3 22.71L18.24 20.65C17.91 20.32 17.58 20.33 17.1 20.54C16.55 20.79 15.87 21 15 21C12.24 21 10 18.76 10 16C10 13.24 12.24 11 15 11C17.77 11 20 13.24 20 16C20 17.53 19.31 18.9 18.23 19.82L18.31 19.89C19.13 19.31 19.82 19.39 20.46 20.04ZM4 5.89C4 4.82 3.47 4.25 2.59 4.12V4H16V9H18V3C18 2.44 17.55 2 17 2H3C2.45 2 2 2.44 2 3V21C2 21.55 2.45 22 3 22H9V20H4V5.89Z" fill="white"/>
</svg>
