<svg width="24" height="24" viewBox="0 0 24 24" fill="none" xmlns="http://www.w3.org/2000/svg">
<path d="M3 22H6C6.27 22 6.52 21.89 6.71 21.71L14.71 13.71C15.1 13.32 15.1 12.68 14.71 12.29L11.71 9.29C11.32 8.9 10.68 8.9 10.29 9.29L2.29 17.29C2.11 17.48 2 17.73 2 18V21C2 21.55 2.45 22 3 22ZM4 20V18.41L9.67 12.74C10.42 11.99 10.45 11.21 9.92 10.49L10 10.41L12.59 13L5.59 20H4ZM12 22H21C21.55 22 22 21.55 22 21V3C22 2.45 21.55 2 21 2H7C6.45 2 6 2.45 6 3V9H8V5.89C8 4.82 7.47 4.25 6.59 4.12V4H20V18.11C20 19.18 20.53 19.75 21.41 19.88V20H12V22Z" fill="white"/>
</svg>
