<svg width="24" height="24" viewBox="0 0 24 24" fill="none" xmlns="http://www.w3.org/2000/svg">
<path d="M8 5.89C8 4.82 7.47 4.25 6.59 4.12V4H20V20H15V22H21C21.56 22 22 21.55 22 21V3C22 2.45 21.56 2 21 2H7C6.45 2 6 2.45 6 3V10H8V5.89ZM10.58 22L7.71 19.12C7.27 18.68 6.74 18.66 6.29 19.12L3.42 22L2 20.58L6.58 16L6.5 15.92C5.78 16.45 5.01 16.42 4.25 15.66L2 13.42L3.42 12L6.29 14.88C6.73 15.32 7.26 15.34 7.71 14.88L10.58 12L12 13.42L7.42 18L7.5 18.08C8.22 17.55 8.99 17.58 9.75 18.34L12 20.58L10.58 22Z" fill="white"/>
</svg>
