<svg width="24" height="24" viewBox="0 0 24 24" fill="none" xmlns="http://www.w3.org/2000/svg">
<g clip-path="url(#clip0_348_5027)">
<path d="M15 18.5L19.21 21.05L19.32 21C18.76 20.47 18.79 19.82 19.42 19.44L21 18.5V15.49L16.79 12.94L16.68 12.99C17.24 13.52 17.21 14.17 16.58 14.55L15 15.49V18.5ZM5 5.89C5 4.82 4.47 4.25 3.59 4.12V4H17V9H19V3C19 2.44 18.55 2 18 2H4C3.45 2 3 2.44 3 3V21C3 21.55 3.45 22 4 22H10V20H5V5.89ZM17.48 11.64C17.8 11.45 18.2 11.45 18.52 11.64L22.52 14.07C22.82 14.25 23 14.58 23 14.92V19.07C23 19.42 22.82 19.74 22.52 19.92L18.52 22.35C18.2 22.54 17.8 22.54 17.48 22.35L13.48 19.92C13.18 19.74 13 19.42 13 19.07V14.92C13 14.58 13.18 14.25 13.48 14.07L17.48 11.64Z" fill="white"/>
</g>
<defs>
<clipPath id="clip0_348_5027">
<rect width="20" height="20.49" fill="white" transform="translate(3 2)"/>
</clipPath>
</defs>
</svg>
