<svg width="24" height="24" viewBox="0 0 24 24" fill="none" xmlns="http://www.w3.org/2000/svg">
<path d="M16.5 23.5C16.83 23.5 17.21 23.32 17.62 23.12C20.25 21.84 22 19.98 22 17.5V14C22 13.45 21.55 13 21 13C19.91 13 18.42 12.19 17.14 11.23C16.94 11.08 16.72 11 16.5 11C16.28 11 16.06 11.08 15.86 11.23C14.58 12.19 13.09 13 12 13C11.45 13 11 13.45 11 14V17.5C11 19.98 12.74 21.86 15.38 23.12C15.79 23.32 16.17 23.5 16.5 23.5ZM16.5 21.43C14.38 20.37 13 19.31 13 17.5V16.89C13 15.82 12.47 15.25 11.59 15.12V15C13.17 15 14.38 14.62 16.5 13.24C18.62 14.62 19.83 15 21.41 15V15.12C20.53 15.25 20 15.82 20 16.89V17.5C20 19.31 18.62 20.37 16.5 21.43ZM3 22H9V20H4V5.89C4 4.82 3.47 4.25 2.59 4.12V4H16V9H18V3C18 2.45 17.55 2 17 2H3C2.45 2 2 2.45 2 3V21C2 21.55 2.45 22 3 22Z" fill="white"/>
</svg>
