<svg width="24" height="24" viewBox="0 0 24 24" fill="none" xmlns="http://www.w3.org/2000/svg">
<g clip-path="url(#clip0_348_5058)">
<path d="M2 20.01C2 21.09 2.69 22 4 22C5.61 22 6.08 20.69 6.51 20.69C6.99 20.69 7.48 22 8.72 22C9.97 22 10.52 20.69 11 20.69C11.45 20.69 11.95 21.82 13.02 21.98V19.7C12.58 19.39 12.04 18.49 11 18.49C9.75 18.49 9.21 19.8 8.72 19.8C8.24 19.8 7.75 18.49 6.51 18.49C5.21 18.49 4.75 20 4 20V4H18V9.99L20 10V2H2V20.01ZM6 8H16V6H6V8ZM21.61 22L23.02 20.58L21.76 19.32C21.11 18.67 20.42 18.6 19.6 19.18L19.53 19.1C20.43 18.37 21 17.25 21 16C21 13.79 19.21 12 17 12C14.79 12 13 13.79 13 16C13 18.21 14.79 20 17 20C18.16 20 18.46 19.62 18.92 19.62C19.14 19.62 19.3 19.69 19.48 19.87L21.61 22ZM17 18C15.9 18 15 17.1 15 16C15 14.89 15.9 14 17 14C18.11 14 19 14.89 19 16C19 17.1 18.11 18 17 18ZM6 12H13V10H6V12Z" fill="white"/>
</g>
<defs>
<clipPath id="clip0_348_5058">
<rect width="21.02" height="20" fill="white" transform="translate(2 2)"/>
</clipPath>
</defs>
</svg>
