<svg width="24" height="24" viewBox="0 0 24 24" fill="none" xmlns="http://www.w3.org/2000/svg">
<path d="M18.7002 6.29999L15.7002 3.29999C15.6002 3.19999 15.4002 3.09999 15.2002 2.99999L11.2002 1.99999C10.9002 1.89999 10.6002 1.99999 10.3002 2.29999L6.30017 6.29999L7.70017 7.69999L11.3002 4.09999H11.5002C12.6002 4.39999 13.0002 4.29999 13.8002 3.59999L13.9002 3.69999L3.30017 14.3C3.20017 14.4 3.10017 14.6 3.00017 14.8L2.00017 18.8C1.90017 19.2 2.00017 19.5 2.20017 19.8C2.40017 20.1 2.80017 20.1 3.20017 20L7.20017 19C7.40017 19 7.50017 18.9 7.70017 18.7L18.7002 7.69999C19.1002 7.29999 19.1002 6.69999 18.7002 6.29999ZM4.20017 17.8L4.80017 15.3L6.70017 17.2L4.20017 17.8ZM8.00017 15.6L6.40017 14L15.0002 5.39999L16.6002 6.99999L8.00017 15.6Z" fill="white"/>
<path d="M20.8002 12.8L13.0002 20.6L12.9002 20.5C13.4002 19.8 13.4002 19 12.7002 18.3L11.7002 17.3L10.3002 18.7L13.3002 21.7C13.7002 22.1 14.3002 22.1 14.7002 21.7L22.2002 14.2L20.8002 12.8Z" fill="white"/>
</svg>
