<svg width="24" height="24" viewBox="0 0 24 24" fill="none" xmlns="http://www.w3.org/2000/svg">
<path d="M22.8 5.3L19.8 2.3C19.7 2.2 19.5 2.1 19.3 2L15.3 1C15 0.9 14.6 1 14.4 1.3L10.4 5.3L11.8 6.7L15.4 3.1H15.6C16.7 3.4 17.1 3.3 17.9 2.6L18 2.7L7.3 13.3C7.2 13.4 7.1 13.6 7 13.8L6 17.8C5.9 18.2 6 18.5 6.2 18.8C6.4 19.1 6.8 19.1 7.2 19L11.2 18C11.4 18 11.5 17.9 11.7 17.7L18.4 11H20V19.1C20 20.2 20.5 20.7 21.4 20.9V21H4V12.9C4 11.8 3.5 11.3 2.6 11.1V11H7V9H3C2.5 9 2 9.5 2 10V22C2 22.5 2.5 23 3 23H21C21.5 23 22 22.5 22 22V10C22 9.5 21.5 9 21 9H20.4L22.7 6.7C23.1 6.3 23.1 5.7 22.8 5.3ZM8.3 16.8L8.9 14.3L10.8 16.2L8.3 16.8ZM12 14.6L10.4 13L19 4.4L20.6 6L12 14.6Z" fill="white"/>
</svg>
