<svg width="24" height="24" viewBox="0 0 24 24" fill="none" xmlns="http://www.w3.org/2000/svg">
<path d="M5 16C6.07 16 7 15.07 7 14C7 12.93 6.07 12 5 12C3.94 12 3 12.93 3 14C3 15.07 3.94 16 5 16ZM11 22C12.07 22 13 21.07 13 20C13 18.93 12.07 18 11 18C9.94 18 9 18.93 9 20C9 21.07 9.94 22 11 22ZM4.4 22.01L13 13.42L11.6 12.02L3 20.61L4.4 22.01ZM19 18.11C19 19.18 19.53 19.75 20.41 19.88V20H15V22H20C20.55 22 21 21.55 21 21V3C21 2.45 20.55 2 20 2H6C5.45 2 5 2.45 5 3V10H7V5.89C7 4.82 6.47 4.25 5.59 4.12V4H19V18.11Z" fill="white"/>
</svg>
