<svg width="24" height="24" viewBox="0 0 24 24" fill="none" xmlns="http://www.w3.org/2000/svg">
<path d="M17 12H16C15.4 12 15 11.6 15 11V8.66C15.62 7.96 16 7.03 16 6C16 3.77 14.23 2 12 2C9.77 2 8 3.77 8 6C8 7.03 8.38 7.96 9 8.66V11C9 11.6 8.6 12 8 12H7C5.25 12 4 13.25 4 15V18H20V15C20 13.25 18.75 12 17 12ZM9.6 11.88C10.43 11.88 11 11.31 11 10.48V8.6C11 7.97 10.94 7.79 10.53 7.34C10.13 6.91 10 6.48 10 6C10 4.88 10.88 4 12 4C13.12 4 14 4.88 14 6C14 6.48 13.87 6.91 13.47 7.34C13.06 7.79 13 7.97 13 8.6V10.48C13 11.31 13.57 11.88 14.4 11.88V12H9.6V11.88ZM18 16H6V15C6 14.38 6.37 14 7 14H17C17.63 14 18 14.38 18 15V16Z" fill="white"/>
<path d="M20 20H4V22H20V20Z" fill="white"/>
</svg>
