<svg width="24" height="24" viewBox="0 0 24 24" fill="none" xmlns="http://www.w3.org/2000/svg">
<path d="M9.99591 8C9.99591 9.1 9.09591 10 7.99591 10C6.89591 10 5.99591 9.1 5.99591 8C5.99591 6.9 6.89591 6 7.99591 6C9.09591 6 9.99591 6.9 9.99591 8Z" fill="white"/>
<path fill-rule="evenodd" clip-rule="evenodd" d="M7.98591 2C9.36591 2 10.6959 2.47 11.7759 3.34C12.8459 4.21 13.5859 5.42 13.8659 6.77C14.1459 8.12 13.9559 9.52 13.3259 10.75C12.8059 11.77 11.9859 12.62 10.9959 13.19V16H11.9959C12.5459 16 12.9959 16.45 12.9959 17V21C12.9959 21.55 12.5459 22 11.9959 22H5.99591C5.44591 22 4.99591 21.55 4.99591 21V13.2C4.00591 12.63 3.19591 11.78 2.66591 10.76C2.03591 9.53 1.84591 8.13 2.12591 6.78C2.40591 5.43 3.14591 4.22 4.20591 3.35C5.27591 2.48 6.60591 2 7.98591 2ZM10.9959 18H8.99591V11.93L9.59591 11.67C10.4359 11.3 11.1359 10.65 11.5559 9.84C11.9759 9.02 12.1059 8.09 11.9159 7.19C11.7259 6.29 11.2359 5.48 10.5159 4.91C9.79591 4.31 8.90591 4 7.98591 4C7.07591 4 6.18591 4.32 5.46591 4.9C4.75591 5.48 4.26591 6.29 4.07591 7.19C3.89591 8.09 4.02591 9.02 4.44591 9.84C4.86591 10.66 5.55591 11.3 6.39591 11.67L6.99591 11.93V20H10.9959V18Z" fill="white"/>
<path d="M20.3059 11.3L21.7159 12.71L17.7259 16.7C17.3359 17.09 16.7059 17.09 16.3159 16.7L13.3259 13.71L14.7359 12.29L15.6959 13.25C16.4459 14 16.4759 14.78 15.9459 15.5L16.0259 15.58L20.3059 11.3Z" fill="white"/>
</svg>
