<svg width="24" height="24" viewBox="0 0 24 24" fill="none" xmlns="http://www.w3.org/2000/svg">
<path d="M14 8C14 9.10457 13.1046 10 12 10C10.8954 10 10 9.10457 10 8C10 6.89543 10.8954 6 12 6C13.1046 6 14 6.89543 14 8Z" fill="white"/>
<path fill-rule="evenodd" clip-rule="evenodd" d="M11.9925 2C13.3706 1.99827 14.7073 2.47099 15.7779 3.33872C16.8485 4.20645 17.5878 5.41629 17.8715 6.76489C18.1552 8.11349 17.966 9.51864 17.3357 10.7442C16.8069 11.7724 15.99 12.619 15 13.1915V16H16C16.5523 16 17 16.4477 17 17V21C17 21.5523 16.5523 22 16 22H10C9.44772 22 9.00001 21.5523 9.00001 21V13.1997C8.00887 12.6273 7.20035 11.78 6.67125 10.7576C6.03787 9.53366 5.84513 8.12899 6.12542 6.77968C6.40571 5.43037 7.14194 4.21868 8.21039 3.34825C9.27883 2.47783 10.6143 2.00174 11.9925 2ZM15 18H13V11.9255L13.5983 11.663C14.443 11.2924 15.1386 10.6432 15.5571 9.82945C15.9773 9.01243 16.1035 8.07566 15.9143 7.17659C15.7252 6.27753 15.2324 5.47097 14.5186 4.89248C13.8049 4.314 12.9137 3.99885 11.995 4C11.0762 4.00116 10.1859 4.31855 9.47359 4.89883C8.7613 5.47912 8.27047 6.28691 8.08361 7.18645C7.89675 8.086 8.02525 9.02244 8.44751 9.8384C8.87077 10.6563 9.55916 11.3031 10.3994 11.6692L11 11.9308V20H15V18Z" fill="white"/>
</svg>
