<svg width="24" height="24" viewBox="0 0 24 24" fill="none" xmlns="http://www.w3.org/2000/svg">
<path d="M15 4H19V10H21V3C21 2.45 20.55 2 20 2H15V4ZM15 22H20C20.55 22 21 21.55 21 21V14H19V18.11C19 19.18 19.53 19.75 20.41 19.88V20H15V22ZM5 10H7V5.89C7 4.82 6.47 4.25 5.59 4.12V4H11V2H6C5.45 2 5 2.45 5 3V10Z" fill="white"/>
<path d="M7 14V19.97H7.14C7.44 18.51 8.51 18.01 10 18.01V20.01C8.67 20.01 7.54 20.68 6.97 22.28C6.79 22.79 6.45 23 6 23C5.55 23 5.21 22.79 5.03 22.28C4.46 20.68 3.33 20.01 2 20.01V18.01C3.49 18.01 4.56 18.51 4.86 19.97H5V14H7Z" fill="white"/>
</svg>
