<svg width="24" height="24" viewBox="0 0 24 24" fill="none" xmlns="http://www.w3.org/2000/svg">
<path d="M11 3.50001H10.88C10.69 4.42001 10.09 5.00001 9 5.00001V7.00001H7V3.50001H6.88C6.69 4.42001 6.09 5.00001 5 5.00001V19H13V21H4C3.45 21 3 20.55 3 20V4.00001C3 3.45001 3.45 3.00001 4 3.00001H14V5.00001H13V7.00001H11V3.50001ZM13 15H7V17H13V15ZM7 11H13V13H7V11ZM20.5 16H15.5V15.88C16.42 15.69 17 15.09 17 14V6.77001L18.03 5.02001L19 6.79001V14C19 15.09 19.58 15.69 20.5 15.88V16ZM18 22C19.66 22 21 20.66 21 19V6.82001C21 6.42001 20.95 6.20001 20.79 5.90001L18.94 2.52001C18.76 2.20001 18.44 2.01001 18.08 2.00001C17.72 1.99001 17.38 2.18001 17.2 2.49001L15.23 5.84001C15.05 6.14001 15 6.37001 15 6.82001V19C15 20.66 16.34 22 18 22ZM18 20C17.45 20 17 19.55 17 19V18H19V19C19 19.55 18.55 20 18 20Z" fill="white"/>
</svg>
