<svg width="48" height="48" viewBox="0 0 48 48" fill="none" xmlns="http://www.w3.org/2000/svg">
<rect width="48" height="48" rx="12" fill="#FEE600"/>
<path d="M18.03 31.28C18.23 31.78 18.55 32 19 32C19.45 32 19.77 31.78 19.97 31.28C20.66 29.56 21.99 28 24 28V26C21.93 26 20.57 27.01 20.14 28.58H20V16H18V28.58H17.87C17.44 27.01 16.08 26 14 26V28C16.01 28 17.34 29.56 18.03 31.28Z" fill="#2B2D33"/>
<path d="M29.97 16.72C29.77 16.22 29.45 16 29 16C28.55 16 28.23 16.22 28.03 16.72C27.34 18.44 26.01 20 24 20V22C26.07 22 27.43 20.99 27.86 19.42H28V32H30V19.42H30.13C30.56 20.99 31.92 22 34 22V20C31.99 20 30.66 18.44 29.97 16.72Z" fill="#2B2D33"/>
</svg>
