<svg width="48" height="48" viewBox="0 0 48 48" fill="none" xmlns="http://www.w3.org/2000/svg">
<rect width="48" height="48" rx="12" fill="#FEE600"/>
<path d="M16.72 18.03C16.22 18.23 16 18.55 16 19C16 19.45 16.22 19.77 16.72 19.97C18.44 20.66 20 21.99 20 24H22C22 21.93 20.99 20.57 19.42 20.14V20H32V18H19.42V17.87C20.99 17.44 22 16.08 22 14H20C20 16.01 18.44 17.34 16.72 18.03Z" fill="#2B2D33"/>
<path d="M31.28 29.97C31.78 29.77 32 29.45 32 29C32 28.55 31.78 28.23 31.28 28.03C29.56 27.34 28 26.01 28 24H26C26 26.07 27.01 27.43 28.58 27.86V28H16V30H28.58V30.13C27.01 30.56 26 31.92 26 34H28C28 31.99 29.56 30.66 31.28 29.97Z" fill="#2B2D33"/>
</svg>
