<svg width="48" height="48" viewBox="0 0 48 48" fill="none" xmlns="http://www.w3.org/2000/svg">
<rect width="48" height="48" rx="12" fill="#FEE600"/>
<path d="M25.69 24.06V23.94C28.69 22.55 31 19.81 31 16H29C29 18.96 27.41 20.98 23.72 23.03C23.27 23.28 23 23.55 23 24C23 24.45 23.27 24.74 23.72 24.99C27.41 27.04 29 29.04 29 32H31C31 28.19 28.69 25.45 25.69 24.06ZM18.69 24.06V23.94C21.69 22.55 24 19.81 24 16H22C22 18.96 20.41 20.98 16.72 23.03C16.27 23.28 16 23.55 16 24C16 24.45 16.27 24.74 16.72 24.99C20.41 27.04 22 29.04 22 32H24C24 28.19 21.69 25.45 18.69 24.06Z" fill="#2B2D33"/>
</svg>
