<svg width="48" height="48" viewBox="0 0 48 48" fill="none" xmlns="http://www.w3.org/2000/svg">
<rect width="48" height="48" rx="12" fill="#FEE600"/>
<path d="M22.31 23.94V24.06C19.31 25.45 17 28.19 17 32H19C19 29.04 20.59 27.02 24.28 24.97C24.73 24.72 25 24.45 25 24C25 23.55 24.73 23.26 24.28 23.01C20.59 20.96 19 18.96 19 16H17C17 19.81 19.31 22.55 22.31 23.94ZM29.31 23.94V24.06C26.31 25.45 24 28.19 24 32H26C26 29.04 27.59 27.02 31.28 24.97C31.73 24.72 32 24.45 32 24C32 23.55 31.73 23.26 31.28 23.01C27.59 20.96 26 18.96 26 16H24C24 19.81 26.31 22.55 29.31 23.94Z" fill="#2B2D33"/>
</svg>
