<svg width="48" height="48" viewBox="0 0 48 48" fill="none" xmlns="http://www.w3.org/2000/svg">
<rect width="48" height="48" rx="12" fill="#FEE600"/>
<path d="M33.29 23.04C31.69 22.47 31.01 21.34 31 20.01H29.01C29.01 21.5 29.51 22.57 30.97 22.87V23.01H25V17.04H25.14C25.44 18.5 26.51 19 28 19V17.01C26.67 17 25.54 16.32 24.97 14.72C24.79 14.21 24.45 14 24 14C23.55 14 23.21 14.21 23.03 14.72C22.46 16.32 21.33 17 20 17.01V19C21.49 19 22.56 18.5 22.86 17.04H23V23.01H17.04V22.87C18.5 22.57 19 21.5 19 20.01H17.01C17 21.34 16.32 22.47 14.72 23.04C14.21 23.22 14 23.56 14 24.01C14 24.46 14.21 24.8 14.72 24.98C16.32 25.55 17 26.68 17.01 28.02H19C19 26.52 18.5 25.45 17.04 25.15V25.01H23V30.97H22.86C22.56 29.51 21.49 29.01 20 29.01V31C21.33 31.01 22.46 31.69 23.03 33.29C23.21 33.8 23.55 34.01 24 34.01C24.45 34.01 24.79 33.8 24.97 33.29C25.54 31.69 26.67 31.01 28 31V29.01C26.51 29.01 25.44 29.51 25.14 30.97H25V25.01H30.97V25.15C29.51 25.45 29.01 26.52 29.01 28.02H31C31.01 26.68 31.69 25.55 33.29 24.98C33.8 24.8 34.01 24.46 34.01 24.01C34.01 23.56 33.8 23.22 33.29 23.04Z" fill="#2B2D33"/>
</svg>
