<svg width="48" height="48" viewBox="0 0 48 48" fill="none" xmlns="http://www.w3.org/2000/svg">
<rect width="48" height="48" rx="12" fill="#FEE600"/>
<path d="M16 24C16 19.58 19.58 16 24 16C28.42 16 32 19.58 32 24C32 26.13 31.16 28.15 29.66 29.65L31.07 31.06C32.95 29.18 34 26.65 34 24C34 18.48 29.53 14 24 14C18.47 14 14 18.48 14 24C14 26.65 15.05 29.18 16.93 31.06L18.34 29.65C16.84 28.15 16 26.13 16 24Z" fill="#2B2D33"/>
<path d="M24.96 19.71C24.76 19.21 24.44 18.99 23.99 18.99C23.54 18.99 23.22 19.21 23.02 19.71C22.33 21.43 21 22.99 18.99 22.99V24.99C21.06 24.99 22.42 23.98 22.85 22.41H22.99V32.99H24.99V22.41H25.12C25.55 23.98 26.91 24.99 28.99 24.99V22.99C26.98 22.99 25.65 21.43 24.96 19.71Z" fill="#2B2D33"/>
</svg>
