<svg width="24" height="24" viewBox="0 0 24 24" fill="none" xmlns="http://www.w3.org/2000/svg">
<path d="M16.94 4.28001C17.33 3.89001 17.96 3.89001 18.35 4.28001L18.52 4.45001C18.91 4.84001 18.91 5.48001 18.52 5.87001L17.64 6.75001L16.06 5.16001L16.94 4.28001ZM14.64 9.75001L13.06 8.16001L14.64 6.57001L16.23 8.16001L14.64 9.75001ZM11.64 12.75L10.06 11.16L11.64 9.57001L13.23 11.16L11.64 12.75ZM11.29 20.16V20.04C12.61 20.04 13.49 19.86 14.5 19.35L16.03 18.58C16.28 18.46 16.58 18.51 16.77 18.7C17.03 18.96 17.03 19.36 16.77 19.62L16.56 19.84C16.33 20.06 16.08 20.16 15.81 20.16H11.29ZM6.93998 16.04L6.75998 15.87C6.35998 15.49 6.36998 14.84 6.75998 14.45L8.63998 12.57L10.23 14.16L8.34998 16.04C7.95998 16.43 7.33998 16.42 6.93998 16.04ZM5.67998 22.16H15.81C16.64 22.16 17.32 21.9 17.95 21.27L18.19 21.03C19.22 20 19.22 18.32 18.19 17.29C17.38 16.48 16.15 16.29 15.14 16.8L8.40998 20.16H5.67998C5.41998 20.16 5.18998 20.02 5.07998 19.79C4.94998 19.53 4.99998 19.22 5.19998 19.02L6.23998 17.98C7.36998 18.58 8.79998 18.4 9.75998 17.45L19.94 7.28001C21.11 6.11001 21.14 4.18001 19.94 3.04001L19.76 2.87001C18.56 1.73001 16.69 1.70001 15.52 2.87001L5.34998 13.04C4.32998 14.06 4.03998 15.95 5.32998 17.18L5.25998 17.26C4.75998 17.02 4.14998 17.24 3.78998 17.6C2.96998 18.42 2.76998 19.66 3.28998 20.68C3.74998 21.58 4.65998 22.16 5.67998 22.16Z" fill="white"/>
</svg>
