<svg width="24" height="24" viewBox="0 0 24 24" fill="none" xmlns="http://www.w3.org/2000/svg">
<path d="M12 20.99C11.72 20.99 11.44 20.93 11.19 20.82L5.19 18.15C4.32 17.76 4 17.29 4 16.27V15.52H4.12C4.3 16.51 4.83 16.99 5.87 16.99H14V14.99H4V11.54H4.12C4.3 12.52 4.83 12.99 5.87 12.99H18V10.99H4V7.54H4.12C4.3 8.52 4.83 8.99 5.87 8.99H10V6.99H4.1C4.21 6.48 4.57 6.11 5.19 5.84L11.19 3.18C11.44 3.07 11.72 3.01 12 3.01C12.27 3.01 12.55 3.06 12.81 3.18L18.81 5.84C19.58 6.18 20 6.83 20 7.67V16.32C20 17.16 19.58 17.81 18.81 18.15L12.81 20.82C12.55 20.94 12.27 20.99 12 20.99ZM12 23C12.55 23 13.1 22.88 13.62 22.65L19.62 19.98C21.12 19.31 22 17.95 22 16.32V7.67C22 6.04 21.12 4.69 19.62 4.02L13.62 1.35C13.1 1.12 12.55 1 12 1C11.44 1 10.89 1.12 10.37 1.35L4.37 4.02C2.86 4.69 2 6.04 2 7.67V16.32C2 17.95 2.86 19.31 4.37 19.98L10.37 22.65C10.89 22.88 11.44 23 12 23Z" fill="white"/>
</svg>
