<svg width="24" height="24" viewBox="0 0 24 24" fill="none" xmlns="http://www.w3.org/2000/svg">
<path d="M11.94 9.72C11.94 10.74 11.81 11.52 11.36 12.54L9.03 17.85L7 17.03V22.55H2V20.55H5V15.55C5 14.84 5.72 14.36 6.37 14.62L7.97 15.26L11.09 8.15C11.44 7.35 12.57 7.35 12.92 8.15L16.03 15.26L17.63 14.62C18.29 14.36 19 14.84 19 15.55V20.55H22V22.55H17V17.03L14.97 17.84L12.64 12.53C12.19 11.51 12.06 10.73 12.06 9.71H11.94V9.72ZM11.07 2.52L11.69 1.22C11.83 0.919995 12.18 0.919995 12.32 1.22L12.93 2.52L14.33 2.74C14.66 2.79 14.75 3.1 14.53 3.33L13.5 4.38L13.74 5.84C13.8 6.18 13.5 6.35 13.23 6.2L12 5.53L10.78 6.2C10.51 6.36 10.2 6.18 10.26 5.84L10.5 4.38L9.48 3.34C9.26 3.11 9.34 2.8 9.68 2.75L11.07 2.52Z" fill="white"/>
</svg>
