<svg width="24" height="24" viewBox="0 0 24 24" fill="none" xmlns="http://www.w3.org/2000/svg">
<path d="M6 19.88V6C6 5.03 5.51 4.39 4.67 4.12V4H19.33V4.12C18.49 4.39 18 5.03 18 6V19.88L16.45 19.11C16.17 18.97 15.84 18.96 15.55 19.11L14 19.88L12.45 19.11C12.17 18.97 11.84 18.96 11.55 19.11L10 19.88L8.45 19.11C8.17 18.97 7.84 18.96 7.55 19.11L6 19.88ZM8.9 16.49L16.5 8.9L15.1 7.5L7.5 15.09L8.9 16.49ZM15 16.85C15.99 16.85 16.85 15.99 16.85 15C16.85 14.01 15.99 13.15 15 13.15C14.02 13.15 13.15 14.01 13.15 15C13.15 15.99 14.02 16.85 15 16.85ZM9 10.85C9.99 10.85 10.85 9.99 10.85 9C10.85 8.01 9.99 7.15 9 7.15C8.02 7.15 7.15 8.01 7.15 9C7.15 9.99 8.02 10.85 9 10.85ZM5 22H6C6.16 22 6.31 21.96 6.45 21.89L8 21.12L9.55 21.89C9.84 22.04 10.17 22.03 10.45 21.89L12 21.12L13.55 21.89C13.84 22.04 14.17 22.03 14.45 21.89L16 21.12L17.55 21.89C17.69 21.96 17.85 22 18 22H19C19.55 22 20 21.55 20 21V4H22V2H2V4H4V21C4 21.55 4.45 22 5 22Z" fill="white"/>
</svg>
