<svg width="24" height="24" viewBox="0 0 24 24" fill="none" xmlns="http://www.w3.org/2000/svg">
<path d="M2 19H9.97V19.14C8.51 19.45 8 20.51 8 22H10C10.01 20.68 10.69 19.53 12.29 18.97C12.8 18.79 13 18.45 13 17.99C13 17.54 12.8 17.2 12.29 17.02C10.69 16.45 10.01 15.32 10 14H8C8 15.48 8.51 16.56 9.97 16.86V17H2V19ZM17 11.33V7C17 6.45 16.55 6 16 6H13V4H15V2H11V6H8C7.45 6 7 6.45 7 7V11.33H6.88C6.75 10.49 6.19 10 5.26 10H3C2.45 10 2 10.45 2 11V15H4V12H8C8.55 12 9 11.55 9 11V8H15V11C15 11.55 15.45 12 16 12H20V22H22V11C22 10.45 21.55 10 21 10H18.74C17.81 10 17.25 10.49 17.12 11.33H17ZM17 14V16H15V14H17ZM17 20V18H15V20H17ZM11 10H13V13H11V10Z" fill="white"/>
</svg>
