<svg width="48" height="48" viewBox="0 0 48 48" fill="none" xmlns="http://www.w3.org/2000/svg">
<rect width="48" height="48" rx="12" fill="#FEE600"/>
<path d="M32.99 17.87C32.92 17.32 32.54 17 32 17H31V15C31 14.41 30.58 14 30 14H26C25.4 14 25 14.41 25 15V17H23V15C23 14.41 22.58 14 22 14H18C17.4 14 17 14.41 17 15V17H16C15.45 17 15.08 17.32 15.01 17.87L13.01 32.87C12.93 33.46 13.39 34 14 34H22C22.58 34 23.04 33.51 23 32.91L22.1 23H25.91L25.01 32.91C24.94 33.53 25.45 34 26 34H34C34.63 34 35.07 33.43 34.99 32.87L32.99 17.87ZM15.14 32L15.41 30H20.73L20.91 32H15.14ZM21 21C20.37 21 19.95 21.43 20.01 22.09L20.68 29.43H20.55C20.45 28.53 19.83 28 18.77 28H17.39C16.33 28 15.71 28.53 15.61 29.43H15.48L16.88 19H18C18.6 19 19 18.6 19 18V16H21V18C21 18.6 21.4 19 22 19H26C26.6 19 27 18.6 27 18V16H29V18C29 18.6 29.4 19 30 19H31.13L32.52 29.43H32.4C32.3 28.53 31.68 28 30.62 28H29.24C28.18 28 27.56 28.53 27.46 29.43H27.33L28 22.09C28.06 21.43 27.61 21 27 21H21ZM27.1 32L27.28 30H32.59L32.86 32H27.1Z" fill="#2B2D33"/>
</svg>
