<svg width="48" height="48" viewBox="0 0 48 48" fill="none" xmlns="http://www.w3.org/2000/svg">
<rect width="48" height="48" rx="12" fill="#FEE600"/>
<path d="M21.67 26.8C20.74 25.88 19.56 25.5 18.5 25.5C17.39 25.5 16.37 25.9 15.59 26.57L15.51 26.48C16.44 25.78 16.8 25.29 16.99 24.2L17.69 20.32C17.77 19.85 18.19 19.5 18.67 19.5H19C19.55 19.5 20 19.05 20 18.5V17.5C20 16.67 20.67 16 21.5 16C22.32 16 23 16.67 23 17.5V18.49H25V17.5C25 16.67 25.68 16 26.5 16C27.33 16 28 16.67 28 17.5V18.5C28 19.05 28.45 19.5 29 19.5H29.33C29.81 19.5 30.23 19.85 30.31 20.32L31.01 24.2C31.21 25.29 31.56 25.78 32.49 26.48L32.41 26.57C31.63 25.9 30.61 25.5 29.5 25.5C28.44 25.5 27.26 25.88 26.33 26.8L26.25 26.72C26.9 25.97 27 25.55 27 24.48V22.5C27 21.95 26.55 21.5 26 21.5H22C21.45 21.5 21 21.95 21 22.5V24.48C21 25.55 21.1 25.97 21.75 26.72L21.67 26.8ZM29.5 32.5C28.12 32.5 27 31.38 27 30C27 28.62 28.12 27.5 29.5 27.5C30.88 27.5 32 28.62 32 30C32 31.38 30.88 32.5 29.5 32.5ZM18.5 32.5C17.12 32.5 16 31.38 16 30C16 28.62 17.12 27.5 18.5 27.5C19.88 27.5 21 28.62 21 30C21 31.38 19.88 32.5 18.5 32.5ZM18.5 34.5C20.98 34.5 23 32.48 23 30V23.5H25V30C25 32.48 27.02 34.5 29.5 34.5C31.98 34.5 34 32.48 34 30C34 29.71 33.97 29.42 33.92 29.15L32.28 19.96C32.07 18.77 31.15 17.84 30 17.58V17.5C30 15.56 28.44 14 26.5 14C25.52 14 24.64 14.4 24 15.05C23.36 14.4 22.48 14 21.5 14C19.56 14 18 15.56 18 17.5V17.58C16.85 17.84 15.93 18.77 15.72 19.96L14.08 29.15C14.03 29.42 14 29.71 14 30C14 32.48 16.02 34.5 18.5 34.5Z" fill="#2B2D33"/>
</svg>
