<svg width="48" height="48" viewBox="0 0 48 48" fill="none" xmlns="http://www.w3.org/2000/svg">
<rect width="48" height="48" rx="12" fill="#FEE600"/>
<path d="M32.67 29V28.88C33.51 28.61 34 27.97 34 27V18C34 17.45 33.55 17 33 17H29C29 16.45 28.55 16 28 16H24C23.45 16 23 16.45 23 17H20C20 16.45 19.55 16 19 16H15C14.45 16 14 16.45 14 17V27C14 27.97 14.49 28.61 15.33 28.88V29H13V31H16V33H18V31H30V33H32V31H35V29H32.67ZM18 29H16V18H18V29ZM23 29H20V19H23V29ZM27 29H25V18H27V29ZM29 29V19H32V29H29Z" fill="#2B2D33"/>
</svg>
