<svg width="48" height="48" viewBox="0 0 48 48" fill="none" xmlns="http://www.w3.org/2000/svg">
<rect width="48" height="48" rx="12" fill="#FEE600"/>
<path d="M32.89 14.71L31.89 14.21C31.61 14.07 31.3 14 30.99 14C30.69 14 30.38 14.07 30.1 14.21L29 14.77L27.89 14.21C27.61 14.07 27.3 14 26.99 14C26.69 14 26.38 14.07 26.1 14.21L25 14.77L23.89 14.21C23.61 14.07 23.3 14 22.99 14C22.69 14 22.38 14.07 22.1 14.21L21 14.77L19.89 14.21C19.61 14.07 19.31 14 19 14C18.69 14 18.39 14.07 18.1 14.21L17.1 14.71C16.42 15.05 16 15.74 16 16.5V18.21H15.88C15.61 17.37 14.97 16.88 14 16.88H12V18.88H16V30.45H15.88C15.61 29.61 14.97 29.12 14 29.12H12V31.12H16V31.5C16 32.26 16.42 32.95 17.1 33.29L18.1 33.79C18.39 33.93 18.69 34 19 34C19.31 34 19.61 33.93 19.89 33.79L21 33.23L22.1 33.79C22.38 33.93 22.69 34 22.99 34C23.3 34 23.61 33.93 23.89 33.79L25 33.23L26.1 33.79C26.38 33.93 26.69 34 26.99 34C27.3 34 27.61 33.93 27.89 33.79L29 33.23L30.1 33.79C30.38 33.93 30.69 34 30.99 34C31.3 34 31.61 33.93 31.89 33.79L32.89 33.29C33.57 32.95 34 32.26 34 31.5V16.5C34 15.74 33.57 15.05 32.89 14.71ZM20 31.5L19 32L18 31.5V16.5L19 16L20 16.5V31.5ZM24 31.5L23 32L22 31.5V16.5L23 16L24 16.5V31.5ZM28 31.5L27 32L26 31.5V16.5L27 16L28 16.5V31.5ZM32 31.5L31 32L30 31.5V16.5L31 16L32 16.5V31.5Z" fill="#2B2D33"/>
</svg>
