<svg width="48" height="48" viewBox="0 0 48 48" fill="none" xmlns="http://www.w3.org/2000/svg">
<rect width="48" height="48" rx="12" fill="#FEE600"/>
<path d="M16.03 32L23.13 25.98C23.39 25.76 23.66 25.64 23.95 25.64C24.22 25.64 24.52 25.75 24.84 25.99L31.92 32H16.03ZM14.96 30.29C14.31 30.84 14 31.5 14 32.13C14 33.13 14.75 34 16.03 34H31.92C33.2 34 34 33.06 34 32.05C34 31.5 33.75 30.93 33.21 30.47L25.7 24.09C25.12 23.6 24.97 23.39 24.97 23C24.97 21.96 27.97 21.16 27.97 18C27.97 15.8 26.17 14 23.97 14C21.77 14 19.97 15.8 19.97 18H21.97C21.97 16.89 22.86 16 23.97 16C25.08 16 25.97 16.89 25.97 18C25.97 20.36 22.97 20.82 22.97 23.13C22.97 23.77 23.11 24.25 23.48 24.73L23.4 24.81C23.11 24.68 22.81 24.61 22.5 24.61C21.95 24.61 21.39 24.81 20.92 25.21L14.96 30.29Z" fill="#2B2D33"/>
</svg>
