<svg width="48" height="48" viewBox="0 0 48 48" fill="none" xmlns="http://www.w3.org/2000/svg">
<rect width="48" height="48" rx="12" fill="#FEE600"/>
<path d="M32.58 24.2299C32.84 24.4199 33 24.7099 33 25.0399V25.9999H17V17.9999H18.03C18.19 19.1299 19.16 19.9999 20.34 19.9999H21.77C22.85 19.9999 23.84 19.4199 24.37 18.4799L26.74 20.1499L26.68 20.2399C26.12 19.9699 25.66 19.9399 25.21 20.3799L24.29 21.2899L25.71 22.7099L27.65 20.7699L29.68 22.2099L29.62 22.2999C29.06 22.0299 28.6 21.9999 28.15 22.4399L27.23 23.3499L28.65 24.7699L30.59 22.8299L32.58 24.2299ZM17 29.9999V27.9999H33V29.9999H17ZM16 31.9999H34C34.55 31.9999 35 31.5499 35 30.9999V25.0399C35 24.0599 34.52 23.1499 33.72 22.5799L24.58 16.1799C24.34 16.0099 24.04 15.9599 23.76 16.0299C23.47 16.0999 23.24 16.2899 23.11 16.5499L22.66 17.4499C22.49 17.7899 22.14 17.9999 21.77 17.9999H20.34C20.15 17.9999 20 17.8499 20 17.6699C20 16.7499 19.26 15.9999 18.34 15.9999H16C15.45 15.9999 15 16.4499 15 16.9999V30.9999C15 31.5499 15.45 31.9999 16 31.9999Z" fill="#2B2D33"/>
</svg>
