<svg width="48" height="48" viewBox="0 0 48 48" fill="none" xmlns="http://www.w3.org/2000/svg">
<rect width="48" height="48" rx="12" fill="#FEE600"/>
<path d="M34 17H31V16C31 13.78 29.22 12 27 12C24.79 12 23 13.78 23 16V17H21C18.79 17 17 18.78 17 21V22H14C12.9 22 12 22.9 12 24V34C12 35.1 12.9 36 14 36H28C29.11 36 30 35.11 30 34V32H34C35.11 32 36 31.11 36 30V19C36 17.89 35.11 17 34 17ZM27 14C28.12 14 29 14.88 29 16V17H25V16C25 14.88 25.88 14 27 14ZM19 21C19 19.88 19.88 19 21 19C22.12 19 23 19.88 23 21V22H20.86C19.95 22 19.35 22.46 19.12 23.33H19V21ZM28 34H14V24H17V26H19V24H23V26H25V24H28V34ZM34 30H30V24C30 22.89 29.11 22 28 22H26.86C25.95 22 25.35 22.46 25.12 23.33H25V21C25 20.27 24.79 19.59 24.45 19H34V30Z" fill="#2B2D33"/>
</svg>
