<svg width="48" height="48" viewBox="0 0 48 48" fill="none" xmlns="http://www.w3.org/2000/svg">
<rect width="48" height="48" rx="12" fill="#FEE600"/>
<path d="M31.9201 18.21L34.7101 15.42L33.2901 14L30.5001 16.8L29.7101 16C29.5301 15.81 29.2701 15.71 29.0001 15.71H24.0001C23.7401 15.71 23.4801 15.81 23.2901 16L14.2901 25C13.9001 25.39 13.9001 26.03 14.2901 26.42L22.2901 34.42C22.6901 34.82 23.3201 34.81 23.7101 34.42L32.7101 25.42C32.9001 25.23 33.0001 24.98 33.0001 24.71V19.71C33.0001 19.44 32.9001 19.19 32.7101 19L31.9201 18.21ZM31.0001 20.42V24.3L23.0001 32.3L16.4201 25.71L24.4201 17.71H28.3001C29.3101 17.71 29.5701 17.55 30.0201 17.13L30.1101 17.21L28.5901 18.71C28.5601 18.71 28.5301 18.71 28.5001 18.71C27.6701 18.71 27.0001 19.38 27.0001 20.21C27.0001 21.04 27.6701 21.71 28.5001 21.71C29.3301 21.71 30.0001 21.04 30.0001 20.21C30.0001 20.18 30.0001 20.15 30.0001 20.13L31.5001 18.61L31.5801 18.7C31.1601 19.15 31.0001 19.41 31.0001 20.42Z" fill="#2B2D33"/>
</svg>
