<svg width="24" height="24" viewBox="0 0 24 24" fill="none" xmlns="http://www.w3.org/2000/svg">
<path d="M5 16H11V14H6V11.4C6 10.63 5.63 10.18 5 10.12V10H14V8H6V4H18V8H20V4C20 2.9 19.11 2 18 2H6C4.9 2 4 2.9 4 4V8H2V10H4V14H2V16H4V20C4 21.1 4.9 22 6 22H11V20H6V17.4C6 16.63 5.63 16.18 5 16.12V16ZM15.41 22C15.76 22 16.09 21.82 16.28 21.47L17 20.12L17.72 21.47C17.91 21.82 18.24 22 18.59 22C19.02 22 19.57 21.65 20 21.36C20.92 20.74 22 19.58 22 17.8C22 15.36 20.03 13.2 17.78 10.38C17.59 10.14 17.3 10 17 10C16.7 10 16.41 10.13 16.22 10.38C14.03 13.18 12 15.38 12 17.8C12 19.58 13.08 20.74 14 21.36C14.43 21.65 14.98 22 15.41 22ZM15.01 19.61C14.46 19.25 14 18.62 14 17.8C14 15.81 15.69 14.42 17 12.65C18.31 14.42 20 15.81 20 17.8C20 18.62 19.54 19.25 18.99 19.61L17.88 17.53C17.68 17.16 17.41 16.96 17 16.96C16.59 16.96 16.32 17.16 16.12 17.53L15.01 19.61Z" fill="#2B2D33"/>
</svg>
