<svg width="24" height="24" viewBox="0 0 24 24" fill="none" xmlns="http://www.w3.org/2000/svg">
<path d="M20.0001 6.23999L15.6701 5.50999C15.0401 5.39999 14.5001 5.86999 14.5001 6.49999V12.09L11.8001 14.79L13.2101 16.21L16.2101 13.21C16.4001 13.02 16.5001 12.77 16.5001 12.5H20.5001V14.68C20.1901 14.57 19.8501 14.5 19.5001 14.5C17.8501 14.5 16.5001 15.84 16.5001 17.5C16.5001 17.85 16.5701 18.19 16.6801 18.5H16.5501C16.3201 17.73 15.9301 17.5 15.1001 17.5H9.90007C9.07007 17.5 8.68007 17.73 8.45007 18.5H8.31007C8.42007 18.19 8.49007 17.85 8.49007 17.5C8.49007 16.73 8.20007 16.03 7.73007 15.5H8.50007C8.77007 15.5 9.02007 15.39 9.21007 15.21L13.2101 11.21C13.4001 11.02 13.5001 10.77 13.5001 10.5V8.76999C13.5001 7.60999 12.8301 6.54999 11.7701 6.05999L5.43007 3.08999C5.04007 2.91999 4.59007 2.99999 4.30007 3.28999L1.30007 6.28999C1.00007 6.58999 0.920073 7.03999 1.10007 7.41999L4.06007 13.77C4.21007 14.09 4.41007 14.38 4.66007 14.62C3.41007 14.99 2.50007 16.14 2.50007 17.5C2.50007 19.16 3.85007 20.5 5.50007 20.5C6.38007 20.5 7.17007 20.11 7.72007 19.5H17.2801C17.8301 20.11 18.6201 20.5 19.5001 20.5C21.1601 20.5 22.5001 19.16 22.5001 17.5V9.18999C22.5001 7.72999 21.4401 6.47999 20.0001 6.23999ZM3.94007 8.77999L3.21007 7.20999L5.21007 5.19999L6.79007 5.93999L3.94007 8.77999ZM5.50007 18.5C4.95007 18.5 4.50007 18.05 4.50007 17.5C4.50007 16.95 4.95007 16.5 5.50007 16.5C6.06007 16.5 6.50007 16.95 6.50007 17.5C6.50007 18.05 6.06007 18.5 5.50007 18.5ZM6.78007 13.5C6.39007 13.5 6.03007 13.27 5.87007 12.92L4.84007 10.71L8.71007 6.83999L10.9301 7.86999C11.2801 8.02999 11.5001 8.38999 11.5001 8.76999V10.09L8.09007 13.5H6.78007ZM18.4001 10.5C17.3401 10.5 16.7201 11.03 16.6201 11.93H16.5001V7.67999L19.6701 8.20999C20.1501 8.28999 20.5001 8.70999 20.5001 9.18999V10.5H18.4001ZM20.5001 17.5C20.5001 18.05 20.0601 18.5 19.5001 18.5C18.9501 18.5 18.5001 18.05 18.5001 17.5C18.5001 16.95 18.9501 16.5 19.5001 16.5C20.0501 16.5 20.5001 16.94 20.5001 17.49V17.5Z" fill="#2B2D33"/>
</svg>
