<svg width="24" height="24" viewBox="0 0 24 24" fill="none" xmlns="http://www.w3.org/2000/svg">
<path d="M12 16H10V18H12V16Z" fill="#2B2D33"/>
<path d="M20 13C20 12.45 19.55 12 19 12H10V9C10 8.45 9.55 8 9 8H6.57V7.88C7.47 7.78 8 7.16 8 6.1V6C8 4.89 8.91 4 10 4H21V2H10C7.78 2 6 3.8 6 6V8H5C4.45 8 4 8.45 4 9V20H2V22H22V20H20V13ZM6 10H8V12H6V10ZM19.43 20H4.57V19.88C5.47 19.78 6 19.16 6 18.1V14H18V18.1C18 19.16 18.53 19.78 19.43 19.88V20Z" fill="#2B2D33"/>
<path d="M22 6H12V8H22V6Z" fill="#2B2D33"/>
<path d="M16 16H14V18H16V16Z" fill="#2B2D33"/>
</svg>
