<svg width="24" height="24" viewBox="0 0 24 24" fill="none" xmlns="http://www.w3.org/2000/svg">
<path d="M21.9 9C21.72 8.1 21.28 7.29 20.68 6.64L20.78 6.54C21.21 6.88 21.58 6.83 21.95 6.46L22.66 5.76L21.24 4.34L19.75 5.83C19.02 5.35 18.15 5.06 17.22 5.02V4.88C17.77 4.82 18 4.52 18 4V3H16V5.1C15.09 5.28 14.29 5.72 13.64 6.32L13.54 6.22C13.88 5.79 13.83 5.42 13.46 5.05L12.76 4.34L11.34 5.76L12.83 7.25C12.35 7.98 12.07 8.85 12.03 9.78H11.89C11.82 9.23 11.52 9 11 9H10V11H12.1C12.55 13.22 14.45 14.88 16.78 14.98V15.12C16.23 15.18 16 15.48 16 16V17H18V14.9C18.9 14.72 19.71 14.28 20.36 13.68L20.46 13.78C20.12 14.21 20.17 14.58 20.54 14.95L21.24 15.66L22.66 14.24L21.17 12.75C21.65 12.02 21.94 11.15 21.98 10.22H22.12C22.18 10.77 22.48 11 23 11H24V9H21.9ZM17 13C15.35 13 14 11.66 14 10C14 8.34 15.35 7 17 7C18.66 7 20 8.34 20 10C20 11.66 18.66 13 17 13Z" fill="#2B2D33"/>
<path d="M7.22 10.02V9.88C7.77 9.82 8 9.52 8 9V8H6V10.1C5.1 10.28 4.29 10.72 3.64 11.32L3.54 11.22C3.88 10.79 3.83 10.42 3.46 10.05L2.76 9.34L1.34 10.76L2.83 12.25C2.35 12.98 2.06 13.85 2.02 14.78H1.88C1.82 14.23 1.52 14 1 14H0V16H2.1C2.28 16.9 2.72 17.71 3.32 18.36L3.22 18.46C2.79 18.12 2.42 18.17 2.05 18.54L1.34 19.24L2.76 20.66L4.25 19.17C4.98 19.65 5.85 19.94 6.78 19.98V20.12C6.23 20.18 6 20.48 6 21V22H8V19.9C8.91 19.72 9.71 19.28 10.36 18.68L10.46 18.78C10.12 19.21 10.17 19.58 10.54 19.95L11.24 20.66L12.66 19.24L11.17 17.75C11.65 17.02 11.93 16.15 11.97 15.22H12.11C12.18 15.77 12.48 16 13 16H14V14H11.9C11.45 11.78 9.55 10.12 7.22 10.02ZM7 18C5.34 18 4 16.66 4 15C4 13.34 5.34 12 7 12C8.65 12 10 13.34 10 15C10 16.66 8.65 18 7 18Z" fill="#2B2D33"/>
</svg>
