<svg width="24" height="24" viewBox="0 0 24 24" fill="none" xmlns="http://www.w3.org/2000/svg">
<path d="M15.01 21H9.00997V23H15.01V21Z" fill="#2B2D33"/>
<path d="M8 10H10C10 8.84 10.89 8 12 8L11.99 6C9.78 6 8 7.72 8 10Z" fill="#2B2D33"/>
<path d="M12 2C7.5 2 4 5.58 4 10C4 12.4 5.09 14.72 7.01 16.24V17C7.01 18.15 7.85 19 9.01 19H15.01C16.16 19 17.01 18.15 17.01 17V16.24C18.93 14.7 20 12.39 20 10C20 5.56 16.48 2 12 2ZM15.62 14.77L15.01 15.22V17.3H14.8932C14.7294 17.1786 14.3696 17 13.67 17H10.35C9.6504 17 9.2907 17.1786 9.1268 17.3H9.01V15.22L8.46 14.82C6.94 13.72 6 11.92 6 10C6 6.66 8.62 4 12 4C15.36 4 18 6.64 18 10C18 11.93 17.04 13.73 15.62 14.77Z" fill="#2B2D33"/>
</svg>
