<svg width="24" height="24" viewBox="0 0 24 24" fill="none" xmlns="http://www.w3.org/2000/svg">
<path d="M19.7 11.8V11.67H20C20.58 11.67 21 11.25 21 10.67V5C21 4.43 20.57 4 20 4H12C11.56 4 11.23 4.23 11.07 4.63L9.32 9H7V6H8V4H4V6H5V7.26C5 8.15 5.49 8.7 6.33 8.88V9H4C3.42 9 3 9.42 3 10V13.09C3 13.67 3.42 14.09 4 14.09H4.3V14.22C2.96 14.71 2 15.98 2 17.5C2 19.44 3.56 21 5.5 21C6.9 21 8.09 20.18 8.65 19H13.01C13.92 20.21 15.36 21 16.99 21C19.76 21 21.99 18.77 21.99 16C22 14.23 21.08 12.69 19.7 11.8ZM5.5 19C4.67 19 4 18.33 4 17.5C4 16.67 4.67 16 5.5 16C6.33 16 7 16.67 7 17.5C7 18.33 6.33 19 5.5 19ZM8.95 17C8.71 15.3 7.27 14 5.5 14C5.33 14 5.16 14.03 5 14.05V11H9.8C10.41 11 10.75 10.81 10.93 10.37L12.68 6H19V11.42C18.39 11.15 17.71 11 17 11C14.23 11 12 13.23 12 16C12 16.34 12.04 16.68 12.1 17H8.95ZM17 19C15.34 19 14 17.66 14 16C14 14.34 15.34 13 17 13C18.66 13 20 14.34 20 16C20 17.66 18.66 19 17 19Z" fill="#2B2D33"/>
<path d="M17 14.65C16.26 14.65 15.65 15.26 15.65 16C15.65 16.74 16.26 17.35 17 17.35C17.74 17.35 18.35 16.74 18.35 16C18.35 15.26 17.74 14.65 17 14.65Z" fill="#2B2D33"/>
</svg>
