<svg width="24" height="24" viewBox="0 0 24 24" fill="none" xmlns="http://www.w3.org/2000/svg">
<path d="M13.15 2.44C12.78 2.16 12.37 2 12 2C11.61 2 11.18 2.2 10.86 2.44C7.73 4.76 4 9.87 4 14C4 18.42 7.58 22 12 22C16.42 22 20 18.42 20 14C20 9.87 16.31 4.84 13.15 2.44ZM12 20C11.18 20 10.41 19.83 9.7 19.54L9.74 19.43C10.6 19.81 12.74 20.09 14.14 18.65C15.33 17.42 16 15.79 16 14H14C14 16.6 11.99 18.71 8.62 18.95C7.04 17.87 6 16.06 6 14C6 10.77 8.96 6.54 12 4.08C15.06 6.54 18 10.8 18 14C18 17.31 15.32 20 12 20Z" fill="#2B2D33"/>
</svg>
