<svg width="48" height="48" viewBox="0 0 48 48" fill="none" xmlns="http://www.w3.org/2000/svg">
<rect width="48" height="48" rx="12" fill="#FEE600"/>
<path d="M13 18V29C13 30.1 13.89 31 15 31H15.17C15.58 32.17 16.69 33 18 33C19.31 33 20.42 32.17 20.83 31H27.17C27.58 32.17 28.7 33 30 33C31.31 33 32.42 32.17 32.83 31H33C34.11 31 35 30.1 35 29V24C35 23.62 34.79 23.27 34.45 23.11L30.86 21.31L30.16 18.51C29.94 17.62 29.14 17 28.22 17H25V16H23V17H14C13.45 17 13 17.45 13 18ZM15 19H28.22L29.03 22.24C29.1 22.53 29.29 22.76 29.55 22.89L33 24.62V29H32.83C32.42 27.83 31.31 27 30 27C28.7 27 27.58 27.83 27.17 29H20.83C20.42 27.83 19.31 27 18 27C16.69 27 15.58 27.83 15.17 29H15V19ZM30 31C29.45 31 29 30.55 29 30C29 29.45 29.45 29 30 29C30.55 29 31 29.45 31 30C31 30.55 30.55 31 30 31ZM22 27H24V25H26V23H24V21H22V23H20V25H22V27ZM18 31C17.45 31 17 30.55 17 30C17 29.45 17.45 29 18 29C18.55 29 19 29.45 19 30C19 30.55 18.55 31 18 31Z" fill="#2B2D33"/>
</svg>
