<svg width="48" height="48" viewBox="0 0 48 48" fill="none" xmlns="http://www.w3.org/2000/svg">
<rect width="48" height="48" rx="12" fill="#FEE600"/>
<path d="M14 25V23H18C18.43 23 18.81 23.27 18.95 23.68L20.42 28.09C20.81 29.26 20.79 29.98 20.42 31.25H20.54L26.05 14.68C26.18 14.28 26.57 14 27 14C27.43 14 27.82 14.28 27.95 14.68L30.72 23H34V25H30C29.57 25 29.19 24.73 29.05 24.32L27.58 19.91C27.19 18.74 27.21 18.02 27.58 16.75H27.46L21.95 33.32C21.81 33.72 21.43 34 21 34C20.57 34 20.19 33.72 20.05 33.32L17.28 25H14Z" fill="#2B2D33"/>
</svg>
