<svg width="48" height="48" viewBox="0 0 48 48" fill="none" xmlns="http://www.w3.org/2000/svg">
<rect width="48" height="48" rx="12" fill="#FEE600"/>
<path d="M22.49 26.02L23.91 27.44L28.2 23.11L26.78 21.69L22.49 26.02Z" fill="#2B2D33"/>
<path d="M33 22.5C33 17.81 28.97 14 24 14C19.03 14 15 17.81 15 22.5C15 26.88 18.5 30.47 22.99 30.94V32H17.99V34H29.99V32H24.99V30.95C29.49 30.48 33 26.88 33 22.5ZM17 22.5C17 18.91 20.13 16 24 16C27.87 16 31 18.91 31 22.5C31 26.1 27.87 29 24 29C22.1 29 20.39 28.3 19.13 27.17L27.2 19.11L25.78 17.69L19.19 24.28C18.51 24.96 18.35 25.72 18.55 26.41L18.47 26.48C17.55 25.38 17 24 17 22.5Z" fill="#2B2D33"/>
</svg>
