<svg width="48" height="48" viewBox="0 0 48 48" fill="none" xmlns="http://www.w3.org/2000/svg">
<rect width="48" height="48" rx="12" fill="#FEE600"/>
<path d="M21 26H23V28H25V26H27V24H25V22H23V24H21V26ZM20.16 18V17.88C20.94 17.72 21.45 17.37 21.83 16.78C22.48 15.77 22.95 15 24 15C25.05 15 25.52 15.77 26.17 16.78C26.55 17.37 27.06 17.72 27.84 17.88V18H20.16ZM16 30V20H32V30H16ZM14 30.98C14 31.56 14.44 32 14.99 32H33.01C33.56 32 34 31.56 34 30.98V18.99C34 18.47 33.56 18 33.01 18H30.17C29.55 18 29.16 17.73 28.8 17.15L27.89 15.67C26.98 14.2 25.66 13 24 13C22.34 13 21.02 14.2 20.11 15.67L19.2 17.15C18.84 17.73 18.45 18 17.83 18H14.99C14.44 18 14 18.47 14 18.99V30.98Z" fill="#2B2D33"/>
</svg>
