<svg width="48" height="48" viewBox="0 0 48 48" fill="none" xmlns="http://www.w3.org/2000/svg">
<rect width="48" height="48" rx="12" fill="#FEE600"/>
<path d="M33.99 22.5L32.98 13.89C32.94 13.51 32.68 13.18 32.32 13.06C31.95 12.93 31.55 13.02 31.28 13.3L28.07 16.5H21.9L18.7 13.3C18.42 13.02 18.02 12.93 17.66 13.06C17.3 13.18 17.04 13.51 17 13.89L16.23 20.5L16.21 20.65C16.08 21.6 16.53 22.17 17.35 22.38L17.34 22.5H17.1C16.49 22.5 16 22.99 16 23.6V25.5H14.1C13.49 25.5 13 25.99 13 26.6V30.4C13 31.01 13.49 31.5 14.1 31.5H16V33.4C16 34.01 16.49 34.5 17.1 34.5H20.9C21.51 34.5 22 34.01 22 33.4V31.5H23.9C24.51 31.5 25 31.01 25 30.4V29.17H25.12C25.33 30.01 25.9 30.5 26.85 30.5H28C32.17 30.5 34.56 27.31 33.99 22.5ZM23 29.5H20V32.5H18V29.5H15V27.5H18V24.5H20V27.5H23V29.5ZM28 28.5H25V26.6C25 25.99 24.51 25.5 23.9 25.5H22V23.6C22 22.99 21.51 22.5 20.9 22.5H18L18.24 20.5L18.74 16.17L20.78 18.21C20.97 18.4 21.22 18.5 21.49 18.5H28.49C28.76 18.5 29.02 18.39 29.2 18.21L31.24 16.17L31.99 22.56C32.45 26.44 31.06 28.5 28 28.5Z" fill="#2B2D33"/>
</svg>
