<svg width="48" height="48" viewBox="0 0 48 48" fill="none" xmlns="http://www.w3.org/2000/svg">
<rect width="48" height="48" rx="12" fill="#2B2D33"/>
<path d="M33 16H27C26.4 16 26 16.4 26 17V21.3H25.85C25.55 20.6 24.9 20 24 20H21C20.4 20 20 20.4 20 21V25.3H19.85C19.55 24.6 18.9 24 18 24H15C14.4 24 14 24.4 14 25V31C14 31.6 14.4 32 15 32H33C33.6 32 34 31.6 34 31V17C34 16.4 33.6 16 33 16ZM20 30H16V26H19C19.6 26 20 26.5 20 27V30ZM26 30H22V22H25C25.6 22 26 22.5 26 23V30ZM32 30H28V18H32V30Z" fill="white"/>
</svg>
