<svg width="48" height="48" viewBox="0 0 48 48" fill="none" xmlns="http://www.w3.org/2000/svg">
<rect width="48" height="48" rx="12" fill="#2B2D33"/>
<path d="M32.88 15.9C33.09 15.41 33.02 15.02 32.7 14.7C32.38 14.38 32 14.31 31.5 14.52C29.8 15.26 27.75 15.41 26.34 14L24.93 15.41C26.34 16.82 28.07 17.12 29.48 16.32L29.58 16.42L18.79 27.2L20.2 28.61L30.99 17.83L31.08 17.92C30.28 19.34 30.57 21.06 32 22.49L33.41 21.08C31.99 19.65 32.15 17.61 32.88 15.9Z" fill="white"/>
<path d="M14.67 31.41V31.29C15.44 31.02 16 30.31 16 29.41V15.41H14V32.41C14 32.96 14.45 33.41 15 33.41H32V31.41H14.67Z" fill="white"/>
</svg>
