<svg width="48" height="48" viewBox="0 0 48 48" fill="none" xmlns="http://www.w3.org/2000/svg">
<rect width="48" height="48" rx="12" fill="#2B2D33"/>
<path d="M28 30V25C28 24.5 28.4 24 29 24H32V30H28ZM22 30V18H26V30H22ZM16 30V22H19C19.6 22 20 22.5 20 23V30H16ZM14 31C14 31.6 14.4 32 15 32H33C33.6 32 34 31.6 34 31V23C34 22.4 33.6 22 33 22H30C29.1 22 28.45 22.6 28.15 23.3H28V17C28 16.4 27.6 16 27 16H21C20.4 16 20 16.4 20 17V21.3H19.85C19.55 20.6 18.9 20 18 20H15C14.4 20 14 20.4 14 21V31Z" fill="white"/>
</svg>
