<svg width="24" height="24" viewBox="0 0 24 24" fill="none" xmlns="http://www.w3.org/2000/svg">
<path d="M4.6 10V9.9C5.5 9.8 6 9.2 6 8.1V7C6 6.4 6.4 6 7 6H7.2C7.6 7.2 8.7 8 10 8H12C13.7 8 15 6.7 15 5C15 3.3 13.7 2 12 2H10C8.7 2 7.6 2.8 7.2 4H7C5.3 4 4 5.3 4 7V10H3C2.4 10 2 10.4 2 11V21C2 21.5 2.4 22 3 22H17C17.6 22 18 21.5 18 21V20L20.4 21.8C21.1 22.3 22 21.8 22 21V11C22 10.2 21.1 9.7 20.4 10.2L18 11.9V11C18 10.4 17.6 10 17 10H4.6ZM10 6C9.4 6 9 5.5 9 5C9 4.5 9.4 4 10 4H12C12.6 4 13 4.5 13 5C13 5.5 12.6 6 12 6H10ZM20 19L18 17.5V14.4L20 12.9V19ZM13 16.5C13.8 16.5 14.5 15.8 14.5 15C14.5 14.2 13.8 13.5 13 13.5C12.2 13.5 11.5 14.2 11.5 15C11.5 15.8 12.2 16.5 13 16.5ZM4 20V12H16V20H4Z" fill="#2B2D33"/>
</svg>
