<svg width="24" height="24" viewBox="0 0 24 24" fill="none" xmlns="http://www.w3.org/2000/svg">
<path d="M9 8H11C11 7.4 11.4 7 12 7C12.6 7 13 7.4 13 8C13 8.3 12.9 8.5 12.7 8.7L12.1 9.3C11.2 10.2 11 10.6 11 12V12.5H13V12C13 11.3 13.1 11.1 13.6 10.7L14.2 10.1C14.7 9.6 15 8.8 15 8C15 6.3 13.7 5 12 5C10.3 5 9 6.3 9 8ZM12 16.5C12.8 16.5 13.5 15.8 13.5 15C13.5 14.2 12.8 13.5 12 13.5C11.2 13.5 10.5 14.2 10.5 15C10.5 15.8 11.2 16.5 12 16.5ZM4 18V4H20V18H12C11.8 18 11.6 18.1 11.4 18.2L9 20V19C9 18.5 8.6 18 8 18H4ZM3 2C2.4 2 2 2.4 2 3V19C2 19.5 2.4 20 3 20H5.9C6.5 20 6.9 19.6 6.9 19H7V22C7 23 7.9 23.3 8.7 22.7L12.3 20H21C21.5 20 22 19.5 22 19V3C22 2.4 21.5 2 21 2H3Z" fill="#2B2D33"/>
</svg>
