<svg width="24" height="24" viewBox="0 0 24 24" fill="none" xmlns="http://www.w3.org/2000/svg">
<path d="M1.3 2.3C1.5 2.1 1.7 2 2 2H22C22.6 2 23 2.4 23 3V19C23 19.6 22.6 20 22 20H7V18H21V4H3V9H1V3C1 2.7 1.1 2.5 1.3 2.3Z" fill="#2B2D33"/>
<path d="M12 12.6L9.8 14.8L8.4 13.3L10.6 11.1L9.8 10.4V8.9L9.3 8.3V9.6L8.8 10.1L7 8.3L6.5 8.7C6.5 8.4 6.6 7.3 7.4 6.5C8.3 5.6 9.3 6 9.6 6.4L11.4 8.3L11 8.7L12 9.7L13 8.7L12.5 8.2L14.3 6.3C14.6 6 15.6 5.6 16.5 6.4C17.3 7.2 17.4 8.2 17.4 8.6L17 8.3L15.2 10.2L14.7 9.7V8.3L14.2 8.8V10.3L13.4 11.1L17 14.8L15.6 16.3L12 12.6Z" fill="#2B2D33"/>
<path d="M1 13H3C3 12.4 3.4 12 4 12C4.6 12 5 12.4 5 13C5 13.3 4.9 13.5 4.7 13.7L4.1 14.3C3.1 15.3 3 15.7 3 17V17.5H5V17C5 16.3 5.1 16.1 5.6 15.7L6.2 15.1C6.7 14.6 7 13.8 7 13C7 11.3 5.7 10 4 10C2.3 10 1 11.3 1 13Z" fill="#2B2D33"/>
<path d="M4 21.5C4.82843 21.5 5.5 20.8284 5.5 20C5.5 19.1716 4.82843 18.5 4 18.5C3.17157 18.5 2.5 19.1716 2.5 20C2.5 20.8284 3.17157 21.5 4 21.5Z" fill="#2B2D33"/>
</svg>
