<svg width="24" height="24" viewBox="0 0 24 24" fill="none" xmlns="http://www.w3.org/2000/svg">
<path d="M6.00001 11C6.00001 11.5523 5.55229 12 5.00001 12C4.44772 12 4.00001 11.5523 4.00001 11C4.00001 10.4477 4.44772 10 5.00001 10C5.55229 10 6.00001 10.4477 6.00001 11Z" fill="#2B2D33"/>
<path d="M9.00001 12C9.55229 12 10 11.5523 10 11C10 10.4477 9.55229 10 9.00001 10C8.44772 10 8.00001 10.4477 8.00001 11C8.00001 11.5523 8.44772 12 9.00001 12Z" fill="#2B2D33"/>
<path d="M19.5 9.25C19.5 9.94036 18.9404 10.5 18.25 10.5C17.5597 10.5 17 9.94036 17 9.25C17 8.55964 17.5597 8 18.25 8C18.9404 8 19.5 8.55964 19.5 9.25Z" fill="#2B2D33"/>
<path d="M7.00001 14C7.55229 14 8.00001 13.5523 8.00001 13C8.00001 12.4477 7.55229 12 7.00001 12C6.44772 12 6.00001 12.4477 6.00001 13C6.00001 13.5523 6.44772 14 7.00001 14Z" fill="#2B2D33"/>
<path d="M16.5 11.25C16.5 11.9404 15.9404 12.5 15.25 12.5C14.5597 12.5 14 11.9404 14 11.25C14 10.5596 14.5597 10 15.25 10C15.9404 10 16.5 10.5596 16.5 11.25Z" fill="#2B2D33"/>
<path d="M7.00001 10C7.55229 10 8.00001 9.55229 8.00001 9C8.00001 8.44771 7.55229 8 7.00001 8C6.44772 8 6.00001 8.44771 6.00001 9C6.00001 9.55229 6.44772 10 7.00001 10Z" fill="#2B2D33"/>
<path fill-rule="evenodd" clip-rule="evenodd" d="M1.06368 8.14888C1.86225 6.01934 3.36079 4 6.00001 4C7.04864 4 7.87894 4.24174 8.63936 4.46314C8.72686 4.48861 8.81385 4.51394 8.89973 4.53848C9.72937 4.77552 10.6296 5 12 5C13.3704 5 14.2706 4.77552 15.1003 4.53848C15.1862 4.51392 15.2729 4.48868 15.3605 4.46318C16.1209 4.24179 16.9514 4 18 4C20.6392 4 22.1378 6.01934 22.9363 8.14888C23.7459 10.3077 24 12.9425 24 15L24 15.0264C24.0001 15.525 24.0003 16.6389 23.7115 17.6497C23.5634 18.1681 23.3169 18.7445 22.8822 19.2034C22.4194 19.6919 21.7851 20 21 20C18.721 20 17.4648 18.8725 16.4156 17.9308C16.3465 17.8688 16.2782 17.8075 16.2106 17.7474C15.6571 17.2553 15.1487 16.8343 14.5133 16.5231C13.8925 16.219 13.1066 16 12 16C10.8935 16 10.1076 16.219 9.48675 16.5231C8.85135 16.8343 8.34295 17.2553 7.78937 17.7474C7.72178 17.8075 7.65352 17.8688 7.58437 17.9308C6.53526 18.8725 5.27903 20 3.00001 20C2.21495 20 1.58058 19.6919 1.1178 19.2034C0.683109 18.7445 0.436585 18.1681 0.288482 17.6497C-0.000315577 16.6389 -9.49301e-05 15.525 3.7752e-06 15.0264L7.62938e-06 15C7.62938e-06 12.9425 0.254138 10.3077 1.06368 8.14888ZM2.93634 8.85112C2.24588 10.6923 2.00001 13.0575 2.00001 15C2.00001 15.5153 2.00555 16.3793 2.21153 17.1003C2.31343 17.4569 2.4419 17.693 2.56971 17.8279C2.66943 17.9331 2.78506 18 3.00001 18C4.5005 18 5.23635 17.344 6.30783 16.3887L6.46064 16.2526C7.03206 15.7447 7.71116 15.1657 8.60701 14.7269C9.51746 14.281 10.6066 14 12 14C13.3935 14 14.4826 14.281 15.393 14.7269C16.2889 15.1657 16.968 15.7447 17.5394 16.2526L17.6922 16.3887C18.7637 17.344 19.4995 18 21 18C21.215 18 21.3306 17.9331 21.4303 17.8279C21.5581 17.693 21.6866 17.4569 21.7885 17.1003C21.9945 16.3793 22 15.5153 22 15C22 13.0575 21.7541 10.6923 21.0637 8.85112C20.3623 6.98066 19.3608 6 18 6C17.2494 6 16.6854 6.16281 15.9063 6.38771C15.8234 6.41165 15.738 6.4363 15.6497 6.46152C14.7294 6.72448 13.6296 7 12 7C10.3704 7 9.27065 6.72448 8.35029 6.46152C8.26213 6.43634 8.17689 6.41173 8.09408 6.38782C7.31502 6.16293 6.75061 6 6.00001 6C4.63923 6 3.63776 6.98066 2.93634 8.85112Z" fill="#2B2D33"/>
</svg>
