<svg width="24" height="24" viewBox="0 0 24 24" fill="none" xmlns="http://www.w3.org/2000/svg">
<path d="M12 15C14.2 15 16 13.2 16 11V5C16 2.8 14.2 1 12 1C9.8 1 8 2.8 8 5V11C8 13.2 9.8 15 12 15ZM10 5C10 3.9 10.9 3 12 3C13.1 3 14 3.9 14 5V11C14 12.1 13.1 13 12 13C10.9 13 10 12.1 10 11V5Z" fill="#2B2D33"/>
<path d="M18 8V11C18 14.3 15.3 17 12 17C8.7 17 6 14.3 6 11V8H4V11C4 14.7 6.6 17.9 10 18.8C10.7 19 11 19.3 11 20V21H8V23H16V21H13V20.1C13 19.5 12.7 19.1 12 19.1V19C16.4 19 20 15.4 20 11V8H18Z" fill="#2B2D33"/>
</svg>
