<svg width="24" height="24" viewBox="0 0 24 24" fill="none" xmlns="http://www.w3.org/2000/svg">
<path d="M9 13V9H11V13H9Z" fill="#2B2D33"/>
<path fill-rule="evenodd" clip-rule="evenodd" d="M10 16C13.9 16 17 12.9 17 9C17 5.1 13.9 2 10 2C6.1 2 3 5.1 3 9C3 12.9 6.1 16 10 16ZM15 9C15 11.8 12.8 14 10 14C7.2 14 5 11.8 5 9C5 6.2 7.2 4 10 4C12.8 4 15 6.2 15 9Z" fill="#2B2D33"/>
<path d="M20 4H17V2H20C21.1 2 22 2.9 22 4V20C22 21.1 21.1 22 20 22H10C8.9 22 8 21.1 8 20V18H10V20H20V4Z" fill="#2B2D33"/>
<path d="M10 8.1C10.8284 8.1 11.5 7.42843 11.5 6.6C11.5 5.77157 10.8284 5.1 10 5.1C9.17157 5.1 8.5 5.77157 8.5 6.6C8.5 7.42843 9.17157 8.1 10 8.1Z" fill="#2B2D33"/>
<path d="M15 18.5C15.8284 18.5 16.5 17.8284 16.5 17C16.5 16.1716 15.8284 15.5 15 15.5C14.1716 15.5 13.5 16.1716 13.5 17C13.5 17.8284 14.1716 18.5 15 18.5Z" fill="#2B2D33"/>
</svg>
