<svg width="24" height="24" viewBox="0 0 24 24" fill="none" xmlns="http://www.w3.org/2000/svg">
<path d="M18.6 13.6C20.1 12.2 21 10.2 21 8C21 5.8 20.1 3.8 18.7 2.4L17.3 3.8C18.3 4.9 19 6.3 19 8C19 9.7 18.3 11.1 17.2 12.2L18.6 13.6ZM15.8 10.8C16.6 10.1 17 9.1 17 8C17 6.9 16.6 5.9 15.8 5.2L14.4 6.6C14.8 7 15 7.4 15 8C15 8.6 14.8 9.1 14.4 9.4L15.8 10.8ZM10 18.5C10.8 18.5 11.5 17.8 11.5 17C11.5 16.2 10.8 15.5 10 15.5C9.2 15.5 8.5 16.2 8.5 17C8.5 17.8 9.2 18.5 10 18.5ZM3.6 4H14V2H5C3.9 2 3 2.9 3 4V20C3 21.1 3.9 22 5 22H15C16.1 22 17 21.1 17 20V15H15V20H5V5.9C5 4.8 4.5 4.3 3.6 4.1V4Z" fill="#2B2D33"/>
</svg>
