<svg width="24" height="24" viewBox="0 0 24 24" fill="none" xmlns="http://www.w3.org/2000/svg">
<path d="M13 3V12H13.1C13.4 10.5 14.5 10 16 10V12C14.7 12 13.5 12.7 13 14.3C12.8 14.8 12.5 15 12 15C11.5 15 11.2 14.8 11 14.3C10.5 12.7 9.3 12 8 12V10C9.5 10 10.6 10.5 10.9 12H11V3H13Z" fill="#2B2D33"/>
<path d="M4 18H20C20.6 18 21 17.5 21 17V6C21 5.4 20.6 5 20 5H15V7H19V16H5V8.9C5 7.8 4.5 7.3 3.6 7.1V7H9V5H4C3.4 5 3 5.4 3 6V17C3 17.5 3.4 18 4 18Z" fill="#2B2D33"/>
<path d="M1 20V21C1 21.5 1.4 22 2 22H22C22.6 22 23 21.5 23 21V20H1Z" fill="#2B2D33"/>
</svg>
