<svg width="24" height="24" viewBox="0 0 24 24" fill="none" xmlns="http://www.w3.org/2000/svg">
<path fill-rule="evenodd" clip-rule="evenodd" d="M11.06 7.10826C9.7279 6.2757 8 7.23338 8 8.80425V15.1958C8 16.7666 9.7279 17.7243 11.06 16.8918L16.1732 13.696C17.4265 12.9127 17.4265 11.0873 16.1732 10.304L11.06 7.10826ZM10 8.80425L15.1132 12L10 15.1958V8.80425Z" fill="#2B2D33"/>
<path fill-rule="evenodd" clip-rule="evenodd" d="M12 2C6.47715 2 2 6.47715 2 12C2 17.5228 6.47715 22 12 22C17.5228 22 22 17.5228 22 12C22 6.47715 17.5228 2 12 2ZM4 12C4 7.58172 7.58172 4 12 4C16.4183 4 20 7.58172 20 12C20 16.4183 16.4183 20 12 20C7.58172 20 4 16.4183 4 12Z" fill="#2B2D33"/>
</svg>
