<svg width="24" height="24" viewBox="0 0 24 24" fill="none" xmlns="http://www.w3.org/2000/svg">
<path d="M20.8 9.8C21.6 9.1 22 8.1 22 7C22 5.9 21.6 4.9 20.8 4.2C20 3.5 19.1 3 18 3C16.9 3 15.9 3.4 15.2 4.2L16.6 5.6C17 5.2 17.5 5 18 5C18.5 5 19 5.2 19.4 5.6C19.8 6 20 6.5 20 7C20 7.5 19.8 8 19.4 8.4L20.8 9.8ZM18.1 17.7C17.7 17.6 17.1 17.5 16.4 17.1C15 16.4 13.2 15.1 11.5 13.4C9.9 11.7 8.6 10 7.9 8.6C7.5 7.8 7.3 7.3 7.3 6.8C7.3 6.6 7.3 6.5 7.3 6.4V6.3C7.3 6.3 7.3 6.3 7.4 6.3C7.5 6.3 7.6 6.3 7.8 6.3C8.2 6.3 8.8 6.5 9.5 6.9C10.7 7.5 12.2 8.5 13.6 9.9L12.3 11.3L13.7 12.7L15.1 11.3C16.5 12.8 17.5 14.2 18.1 15.4C18.5 16.1 18.6 16.7 18.7 17.1C18.7 17.3 18.7 17.4 18.7 17.5V17.6C18.7 17.6 18.7 17.6 18.6 17.6C18.5 17.7 18.4 17.7 18.1 17.7ZM13 20C10.9 20 8.8 19.2 7.3 17.7C5.8 16.2 5 14.1 5 12C5 10.8 5.3 9.7 5.7 8.6C5.8 8.9 6 9.2 6.1 9.4C6.9 11.1 8.4 13 10.2 14.8C12 16.6 13.9 18 15.6 18.9C15.9 19 16.1 19.2 16.4 19.3C15.3 19.7 14.2 20 13 20ZM15.6 10.8L17.9 8.5L16.5 7.1L15.1 8.5C13.5 7 11.9 5.8 10.4 5.1C9.6 4.7 8.8 4.4 8.1 4.3C7.4 4.2 6.6 4.3 6 4.9C4 6.8 3 9.3 3 12C3 14.7 4 17.2 5.9 19.1C7.8 21 10.3 22 13 22C15.7 22 18.2 21 20.1 19.1C20.7 18.5 20.8 17.7 20.7 17C20.6 16.3 20.3 15.5 19.9 14.6C19.3 13.5 18.5 12.2 17.6 11.2C17.1 10.5 16.4 10.5 15.6 10.8Z" fill="#2B2D33"/>
</svg>
