<svg width="24" height="24" viewBox="0 0 24 24" fill="none" xmlns="http://www.w3.org/2000/svg">
<path d="M11.5 12.1C12.3 12.4 13.1 12.3 13.6 11.7L14.6 10.7L13.2 9.3L11.7 10.9C11.3 11.3 10.7 11.3 10.3 10.9L6.09995 6.6C5.69995 6.2 5.09995 6.2 4.69995 6.6C1.19995 10.1 1.19995 15.8 4.69995 19.3C8.19995 22.8 13.9 22.8 17.4 19.3C17.8 18.9 17.8 18.3 17.4 17.9L11.5 12.1ZM5.39995 8.8L15.2 18.6C12.5 20.6 8.49995 20.4 6.09995 17.9C3.59995 15.4 3.29995 11.6 5.39995 8.8ZM14 4C15.5 4 17.1 4.6 18.2 5.8C19.3 7 20 8.4 20 10H22C22 8 21.2 5.9 19.7 4.4C18.1 2.8 16.1 2 14 2V4ZM14 8C14.5 8 15 8.2 15.4 8.6C15.8 9 16 9.5 16 10H18C18 9 17.6 8 16.8 7.2C16.1 6.4 15 6 14 6V8Z" fill="#2B2D33"/>
</svg>
