<svg width="24" height="24" viewBox="0 0 24 24" fill="none" xmlns="http://www.w3.org/2000/svg">
<path d="M17 18C17.8 18 18.5 17.3 18.5 16.5C18.5 15.7 17.8 15 17 15C16.2 15 15.5 15.7 15.5 16.5C15.5 17.3 16.2 18 17 18ZM15.5 10H18.5V12H15.5V10ZM18.5 6H15.5V8H18.5V6ZM6.7 18.1C5.8 18.1 5.2 18.3 4.7 19.3L4.1 20.5L5.9 21.4L7.6 18H10V16H4V6H10V4H3C2.4 4 2 4.5 2 5V17C2 17.6 2.4 18 3 18H6.7V18.1ZM14 4V17C14 18.7 15.3 20 17 20C18.7 20 20 18.7 20 17V4H14ZM12 3C12 2.4 12.4 2 13 2H21C21.5 2 22 2.4 22 3V17C22 19.8 19.8 22 17 22C14.2 22 12 19.8 12 17V3Z" fill="#2B2D33"/>
</svg>
