<svg width="24" height="24" viewBox="0 0 24 24" fill="none" xmlns="http://www.w3.org/2000/svg">
<path d="M6 14H8V8.89C8 7.82 7.47 7.25 6.59 7.12V7H19.99V14H21.99V6C21.99 5.44 21.54 5 20.99 5H7C6.45 5 6 5.44 6 6V14Z" fill="#FEE600"/>
<path d="M2 19H4V4.89C4 3.82 3.47 3.25 2.59 3.12V3H17.99V1H3C2.45 1 2 1.44 2 2V19Z" fill="#FEE600"/>
<path d="M11.83 23.24L7.72 19.12L7.62 19.22C8.44 20.46 8.04 21.57 6.98 22.63L5.57 21.22C6.5 20.27 6.83 19 6.1 17.46C5.87 16.97 5.96 16.58 6.28 16.26C6.6 15.94 6.99 15.85 7.48 16.08C9.01 16.81 10.29 16.48 11.23 15.54L12.64 16.95C11.59 18 10.48 18.41 9.23 17.59L9.13 17.69L13.24 21.81L11.83 23.24Z" fill="#FEE600"/>
<path d="M16.17 15.56L20.28 19.68L20.38 19.58C19.56 18.34 19.96 17.23 21.02 16.17L22.43 17.58C21.49 18.52 21.16 19.79 21.89 21.33C22.12 21.82 22.03 22.21 21.71 22.53C21.39 22.85 21 22.94 20.51 22.71C18.98 21.98 17.7 22.31 16.76 23.25L15.35 21.84C16.4 20.79 17.51 20.38 18.76 21.2L18.86 21.1L14.75 16.98L16.17 15.56Z" fill="#FEE600"/>
</svg>
