<svg width="24" height="24" viewBox="0 0 24 24" fill="none" xmlns="http://www.w3.org/2000/svg">
<path d="M7.79 17.88H7.91C7.21 16.42 7 15.7 7 14V11H9V20.17C9 21.14 7.57 21.42 7.07 20.58L3.22 14.13H3.1C3.76 15.51 4 16.31 4 18.01V21H2V11.83C2 10.86 3.44 10.6 3.93 11.42L7.79 17.88ZM11 14.5C11 12.57 12.57 11 14.5 11C16.43 11 18 12.57 18 14.5C18 16.43 16.43 18 14.5 18C12.57 18 11 16.43 11 14.5ZM14.5 13C13.67 13 13 13.67 13 14.5C13 15.33 13.67 16 14.5 16C15.33 16 16 15.33 16 14.5C16 13.67 15.33 13 14.5 13ZM18 21H11V19H18V21ZM6.59 4H20V21H21C21.55 21 22 20.55 22 20V3C22 2.45 21.55 2 21 2H7C6.45 2 6 2.45 6 3V9H8V5.89C8 4.82 7.47 4.25 6.59 4.12V4Z" fill="#FEE600"/>
</svg>
