<svg width="24" height="24" viewBox="0 0 24 24" fill="none" xmlns="http://www.w3.org/2000/svg">
<path d="M22.8002 19.5C22.7002 18.9 22.5002 18.1 22.3002 17.4C22.1002 16.7 21.9002 16 21.6002 15.4C21.5002 15.1 21.3002 14.8 21.1002 14.6C20.9002 14.3 20.6002 14 20.0002 14C19.4002 14 19.0002 14.4 18.8002 14.6C18.6002 14.9 18.5002 15.2 18.3002 15.5C18.0002 16.1 17.8002 16.9 17.5002 17.6C17.3002 18.1 17.2002 18.6 17.0002 19C17.0002 18.9 17.0002 18.8 16.9002 18.7V18.6C16.8002 18.1 16.7002 17.6 16.5002 17.1C16.4002 16.9 16.3002 16.6 16.1002 16.4C15.9002 16.3 15.5002 16 15.0002 16C14.2002 16 13.7002 16.6 13.5002 17C13.3002 17.4 13.1002 17.8 13.0002 18.2C12.9002 18.6 13.0002 19 12.8002 19H10.0002C9.40017 19 9.00017 19.4 9.00017 20C9.00017 20.6 9.40017 21 10.0002 21H13.0002C13.8002 21 14.3002 20.4 14.5002 20C14.7002 19.6 14.8002 19.2 15.0002 18.8L15.1002 19.2C15.2002 19.7 15.3002 20.2 15.5002 20.7C15.6002 20.9 15.7002 21.2 15.9002 21.4C16.1002 21.6 16.5002 21.9 17.0002 21.9C17.6002 21.9 18.0002 21.4 18.2002 21.2C18.4002 20.9 18.5002 20.6 18.7002 20.3C19.0002 19.7 19.2002 18.9 19.5002 18.2C19.7002 17.6 19.9002 17 20.1002 16.6C20.2002 16.9 20.4002 17.4 20.5002 17.8C20.7002 18.5 20.8002 19.1 20.9002 19.7C21.0002 20.3 21.1002 20.7 21.1002 20.9C21.1002 21.4 21.5002 21.9 22.1002 21.9C22.6002 21.9 23.1002 21.4 23.1002 20.9C23.0002 20.7 22.9002 20.1 22.8002 19.5Z" fill="#FEE600"/>
<path d="M18.7002 6.3L15.7002 3.3C15.6002 3.2 15.4002 3.1 15.2002 3L11.2002 2C10.9002 1.9 10.6002 2 10.3002 2.3L6.30017 6.3L7.70017 7.7L11.3002 4.1H11.5002C12.6002 4.4 13.0002 4.3 13.8002 3.6L13.9002 3.7L3.30017 14.3C3.20017 14.4 3.10017 14.6 3.00017 14.8L2.00017 18.8C1.90017 19.2 2.00017 19.5 2.20017 19.8C2.40017 20.1 2.80017 20.1 3.20017 20L7.20017 19C7.40017 19 7.50017 18.9 7.70017 18.7L18.7002 7.7C19.1002 7.3 19.1002 6.7 18.7002 6.3ZM4.20017 17.8L4.80017 15.3L6.70017 17.2L4.20017 17.8ZM8.00017 15.6L6.40017 14L15.0002 5.4L16.6002 7L8.00017 15.6Z" fill="#FEE600"/>
</svg>
