<svg width="24" height="24" viewBox="0 0 24 24" fill="none" xmlns="http://www.w3.org/2000/svg">
<path d="M4 5.89C4 4.82 3.47 4.25 2.59 4.12V4H16V9H18V3C18 2.45 17.55 2 17 2H3C2.45 2 2 2.45 2 3V21C2 21.55 2.45 22 3 22H8V20H4V5.89Z" fill="#FEE600"/>
<path d="M16 11C15.16 11 14.37 11.17 13.64 11.48L14.43 13.32C14.91 13.11 15.44 13 16 13C18.21 13 20 14.79 20 17C20 19.21 18.21 21 16 21C13.79 21 12 19.21 12 16.98V15.97H12.14C12.44 17.43 13.51 17.93 15 17.93V15.93C13.67 15.93 12.54 15.26 11.97 13.66C11.79 13.15 11.45 12.94 11 12.94C10.55 12.94 10.21 13.15 10.03 13.66C9.46 15.26 8.33 15.93 7 15.93V17.93C8.49 17.93 9.56 17.43 9.86 15.97H10V16.98C10 20.31 12.69 23 16 23C19.31 23 22 20.31 22 17C22 13.69 19.31 11 16 11Z" fill="#FEE600"/>
</svg>
