<svg width="24" height="24" viewBox="0 0 24 24" fill="none" xmlns="http://www.w3.org/2000/svg">
<path d="M11.05 19.47L12.47 18.05L11.29 16.88C10.35 15.95 9.85 15.88 8.72 16.16L8.67 16.06C9.67 15.42 10 15 10 13.76V12H8V15.59C8 16.15 8.2 16.61 8.59 17L11.05 19.47ZM9 11C6.24 11 4 13.24 4 16C4 18.76 6.24 21 9 21C11.76 21 14 18.76 14 16C14 13.24 11.76 11 9 11ZM2 16C2 12.13 5.13 9 9 9C12.87 9 16 12.13 16 16C16 19.87 12.87 23 9 23C5.13 23 2 19.87 2 16ZM6.59 3H20V19H17V21H21C21.55 21 22 20.55 22 20V2C22 1.45 21.55 1 21 1H7C6.45 1 6 1.45 6 2V7H8V4.89C8 3.82 7.47 3.25 6.59 3.12V3Z" fill="#FEE600"/>
</svg>
