<svg width="24" height="24" viewBox="0 0 24 24" fill="none" xmlns="http://www.w3.org/2000/svg">
<path d="M19 2H5C4.4 2 4 2.4 4 3V21C4 21.6 4.4 22 5 22H14C14.3 22 14.5 21.9 14.7 21.7L19.7 16.7C19.9 16.5 20 16.3 20 16V3C20 2.4 19.6 2 19 2ZM14 19.6V16H17.6L14 19.6ZM19.2 14H13C12.4 14 12 14.4 12 15V21.2H11.9C11.9 20.5 11.5 20 10.4 20H6V4H18V12.4C18 13.5 18.6 13.9 19.2 13.9V14Z" fill="#FEE600"/>
<path d="M15.7 7.8L13.3 7.6L12.4 5.4C12.3 5.3 12.2 5.2 12 5.2C11.9 5.2 11.7 5.3 11.7 5.4L10.7 7.6L8.4 7.8C8.2 7.8 8.1 7.9 8 8.1C8 8.2 8 8.4 8.1 8.5L9.9 10L9.4 12.3C9.4 12.5 9.4 12.6 9.5 12.7C9.6 12.8 9.8 12.8 9.9 12.7L11.9 11.5L13.9 12.7C14 12.8 14.2 12.8 14.3 12.7C14.4 12.6 14.5 12.5 14.4 12.3L14.1 10L15.9 8.4C16 8.4 16 8.2 16 8.1C15.9 7.9 15.8 7.8 15.7 7.8Z" fill="#FEE600"/>
</svg>
