<svg width="24" height="24" viewBox="0 0 24 24" fill="none" xmlns="http://www.w3.org/2000/svg">
<path d="M19.5 18H21.5C22.45 18 23 17.47 23 16.5V14.99H21.5V16.5H19.5V11.5H21.5V13.01H23V11.5C23 10.53 22.45 10 21.5 10H19.5C18.54 10 18 10.53 18 11.5V16.5C18 17.47 18.54 18 19.5 18ZM13.5 16.5V11.5H15.5V16.5H13.5ZM13.5 18H15.5C16.45 18 17 17.46 17 16.5V11.5C17 10.54 16.45 10 15.5 10H13.5C12.54 10 12 10.54 12 11.5V16.5C12 17.46 12.54 18 13.5 18ZM7.5 16.5V11.5H9.5V16.5H7.5ZM6 18H9.5C10.45 18 11 17.46 11 16.5V11.5C11 10.54 10.45 10 9.5 10H6V18ZM3 22H17C17.54 22 18 21.55 18 20.99V20H4V5.89C4 4.82 3.47 4.25 2.58 4.12V4H16V8H18V3C18 2.45 17.56 2 17 2H3C2.45 2 2 2.47 2 3V21C2 21.56 2.45 22 3 22Z" fill="#FEE600"/>
</svg>
