<svg width="24" height="24" viewBox="0 0 24 24" fill="none" xmlns="http://www.w3.org/2000/svg">
<path d="M5 20V4H19V20C18.24 20 17.76 18.49 16.49 18.49C15.25 18.49 14.76 19.8 14.28 19.8C13.79 19.8 13.25 18.49 12 18.49C10.75 18.49 10.21 19.8 9.72 19.8C9.24 19.8 8.75 18.49 7.51 18.49C6.21 18.49 5.75 20 5 20ZM5 22C6.61 22 7.08 20.69 7.51 20.69C7.99 20.69 8.48 22 9.72 22C10.97 22 11.52 20.69 12 20.69C12.48 20.69 13.03 22 14.28 22C15.52 22 16.01 20.69 16.49 20.69C16.92 20.69 17.39 22 19 22C20.31 22 21 21.09 21 20V2H3V20C3 21.09 3.69 22 5 22ZM9.01 11.99V9.99H12.01C12.61 9.99 13.01 10.39 13.01 10.99V14.99H15.01V16.99H9.01V14.99H11.01V13.86C11.01 12.8 11.54 12.24 12.42 12.11V11.99H9.01ZM13.51 7.49C13.51 8.32 12.84 8.99 12.01 8.99C11.18 8.99 10.51 8.32 10.51 7.49C10.51 6.66 11.18 5.99 12.01 5.99C12.84 5.99 13.51 6.66 13.51 7.49Z" fill="#FEE600"/>
</svg>
