<svg width="24" height="24" viewBox="0 0 24 24" fill="none" xmlns="http://www.w3.org/2000/svg">
<path d="M11 18.49C9.75 18.49 9.21 19.8 8.72 19.8C8.24 19.8 7.75 18.49 6.51 18.49C5.21 18.49 4.75 20 4 20V4H18V11H20V2H2V20.01C2 21.09 2.69 22 4 22C5.61 22 6.08 20.69 6.51 20.69C6.99 20.69 7.48 22 8.72 22C9.97 22 10.52 20.69 11 20.69V18.49ZM20.57 14.93L17.57 12.93C17.24 12.71 16.8 12.71 16.47 12.93L13.47 14.93C13.19 15.11 13.02 15.43 13.02 15.76V19C13.02 19.33 13.19 19.65 13.47 19.83L16.47 21.83C16.8 22.05 17.24 22.05 17.57 21.83L20.57 19.83C20.85 19.65 21.02 19.33 21.02 19V15.75C21.02 15.43 20.85 15.11 20.57 14.93ZM19.49 18.71L19.43 18.82C18.95 18.69 18.64 18.7 18.34 18.9L17.69 19.34C17.4 19.54 17.21 19.76 17.08 20.25L16.96 20.24C16.84 19.77 16.68 19.57 16.36 19.35L15.7 18.9C15.44 18.72 15.09 18.69 14.61 18.82L14.55 18.71C14.9 18.37 15.02 18.09 15.02 17.73V17C15.02 16.63 14.9 16.36 14.55 16.02L14.61 15.91C15.09 16.04 15.38 16.04 15.7 15.83L16.34 15.4C16.65 15.19 16.83 14.97 16.96 14.5H17.08C17.21 14.97 17.39 15.19 17.7 15.4L18.34 15.83C18.65 16.04 18.95 16.04 19.43 15.91L19.49 16.02C19.14 16.36 19.02 16.63 19.02 17V17.73C19.02 18.11 19.14 18.38 19.49 18.71ZM6 8H16V6H6V8ZM6 12H13V10H6V12Z" fill="#FEE600"/>
</svg>
