<svg width="24" height="24" viewBox="0 0 24 24" fill="none" xmlns="http://www.w3.org/2000/svg">
<path d="M16 6H6V8H16V6Z" fill="#FEE600"/>
<path d="M6.51 18.49C5.21 18.49 4.75 20 4 20V4H18V11.99L20 12V2H2V20.01C2 21.09 2.69 22 4 22C5.61 22 6.08 20.69 6.51 20.69C6.99 20.69 7.48 22 8.72 22C9.97 22 10.52 20.69 11 20.69V18.49C9.75 18.49 9.21 19.8 8.72 19.8C8.24 19.8 7.75 18.49 6.51 18.49Z" fill="#FEE600"/>
<path d="M16 19C15.27 19 14.63 19.41 14.28 20H13V22H14.28C14.63 22.59 15.27 23 16 23C16.73 23 17.37 22.59 17.72 22H23V20H17.72C17.37 19.41 16.73 19 16 19Z" fill="#FEE600"/>
<path d="M14 10H6V12H14V10Z" fill="#FEE600"/>
<path d="M21.72 15C21.37 14.41 20.73 14 20 14C19.27 14 18.63 14.41 18.28 15H13V17H18.28C18.63 17.59 19.27 18 20 18C20.73 18 21.37 17.59 21.72 17H23V15H21.72Z" fill="#FEE600"/>
</svg>
