<svg width="24" height="24" viewBox="0 0 24 24" fill="none" xmlns="http://www.w3.org/2000/svg">
<path d="M7 8H17V6H7V8ZM7 12H15V10H7V12ZM5 20V4H19V20C18.24 20 17.76 18.49 16.49 18.49C15.25 18.49 14.76 19.8 14.28 19.8C13.79 19.8 13.25 18.49 12 18.49C10.75 18.49 10.21 19.8 9.72 19.8C9.24 19.8 8.75 18.49 7.51 18.49C6.21 18.49 5.75 20 5 20ZM7 16H16V14H7V16ZM5 22C6.61 22 7.08 20.69 7.51 20.69C7.99 20.69 8.48 22 9.72 22C10.97 22 11.52 20.69 12 20.69C12.48 20.69 13.03 22 14.28 22C15.52 22 16.01 20.69 16.49 20.69C16.92 20.69 17.39 22 19 22C20.31 22 21 21.09 21 20V2H3V20C3 21.09 3.69 22 5 22Z" fill="#FEE600"/>
</svg>
