<svg width="24" height="24" viewBox="0 0 24 24" fill="none" xmlns="http://www.w3.org/2000/svg">
<path d="M19.5 12.99H22V14.49H19.5V12.99ZM12.5 14.5V11.5H14.5V14.5H12.5ZM20.5 18H18.5C17.54 18 17 17.47 17 16.5V11.5C17 10.55 17.55 10 18.5 10H22V11.5H18.5V16.5H20.5V12.99H22V16.5C22 17.47 21.46 18 20.5 18ZM11 18H12.5V16H14.5C15.45 16 16 15.46 16 14.5V11.5C16 10.54 15.46 10 14.5 10H11V18ZM6 18H8.5C9.46 18 10 17.47 10 16.5V10H8.5V16.5H6V18ZM19 20.99V20H5V5.89C5 4.82 4.47 4.25 3.59 4.12V4H17V8H19V3C19 2.45 18.56 2 18 2H4C3.46 2 3 2.47 3 3V21C3 21.56 3.45 22 4 22H18C18.55 22 19 21.55 19 20.99Z" fill="#FEE600"/>
</svg>
