<svg width="24" height="24" viewBox="0 0 24 24" fill="none" xmlns="http://www.w3.org/2000/svg">
<path d="M5.76 12.35L10.6 18L10.71 17.91C10.22 17.27 10 16.75 10 15.75V12H12V20C12 20.42 11.76 20.81 11.35 20.94C10.95 21.07 10.51 20.97 10.24 20.65L5.4 15L5.29 15.09C5.78 15.73 6 16.25 6 17.25V21H4V13C4 12.58 4.26 12.21 4.65 12.06C5.05 11.92 5.49 12.03 5.76 12.35ZM20 21H14V19H20V21ZM17 14C16.45 14 16 14.45 16 15C16 15.55 16.45 16 17 16C17.55 16 18 15.55 18 15C18 14.45 17.55 14 17 14ZM14 15C14 13.34 15.34 12 17 12C18.66 12 20 13.34 20 15C20 16.66 18.66 18 17 18C15.34 18 14 16.66 14 15ZM2 5H18.96V4.86C17.5 4.56 17 3.49 17 2H18.99C19 3.33 19.68 4.46 21.28 5.03C21.79 5.21 22 5.55 22 6C22 6.45 21.79 6.79 21.28 6.97C19.68 7.54 19 8.68 18.99 10.01H17C17 8.52 17.5 7.44 18.96 7.14V7H2V5Z" fill="#FEE600"/>
</svg>
