<svg width="24" height="24" viewBox="0 0 24 24" fill="none" xmlns="http://www.w3.org/2000/svg">
<path d="M6 19C6 17.91 5.42 17.31 4.5 17.12V17H8V15H6C6 13.91 5.42 13.31 4.5 13.12V13H8V11H6C6 9.91001 5.42 9.31001 4.5 9.12001V9.00001H8V7.00001H6V4.00001H10V20H6V19ZM19.5 16H14.5V15.88C15.42 15.69 16 15.09 16 14V6.77001L17.03 5.02001L18 6.79001V14C18 15.09 18.58 15.69 19.5 15.88V16ZM17 22C18.66 22 20 20.66 20 19V6.82001C20 6.42001 19.95 6.20001 19.79 5.90001L17.94 2.52001C17.76 2.20001 17.44 2.01001 17.08 2.00001C16.72 1.99001 16.38 2.18001 16.2 2.49001L14.23 5.84001C14.05 6.14001 14 6.37001 14 6.82001V19C14 20.66 15.34 22 17 22ZM17 20C16.45 20 16 19.55 16 19V18H18V19C18 19.55 17.55 20 17 20ZM5 22H11C11.52 22 12 21.6 12 21V3.00001C12 2.45001 11.55 2.00001 11 2.00001H5C4.45 2.00001 4 2.45001 4 3.00001V21C4 21.55 4.45 22 5 22Z" fill="#FEE600"/>
</svg>
