<svg width="24" height="24" viewBox="0 0 24 24" fill="none" xmlns="http://www.w3.org/2000/svg">
<path d="M22 14.49C22 13.52 21.46 12.99 20.5 12.99H18.5V11.5H22V10H18.5C17.54 10 17 10.53 17 11.5V12.99C17 13.96 17.54 14.49 18.5 14.49H20.5V16.5H17V18H20.5C21.46 18 22 17.47 22 16.5V14.49ZM12 18H16V16.5H13.5V10H12V18ZM5.4 18H6.99L8.2 15.53L9.41 18H11L9 13.9L10.91 10H9.31L8.2 12.27L7.09 10H5.49L7.4 13.9L5.4 18ZM2 21C2 21.56 2.45 22 3 22H17C17.55 22 18 21.55 18 20.99V20H4V5.89C4 4.82 3.47 4.25 2.59 4.12V4H16V8H18V3C18 2.45 17.56 2 17 2H3C2.46 2 2 2.47 2 3V21Z" fill="#FEE600"/>
</svg>
