<svg width="48" height="48" viewBox="0 0 48 48" fill="none" xmlns="http://www.w3.org/2000/svg">
<rect width="48" height="48" rx="12" fill="#2B2D33"/>
<path d="M35 26.1L33.4 27.3L32.8 26.5C32.4 26 32.4 25.5 32.4 25.1H32.3C32.2 25.5 32.3 26 31.9 26.5L31.3 27.3L29.7 26.1L30.3 25.3C30.7 24.8 31.1 24.7 31.5 24.5V24.4C31 24.5 30.6 24.6 30 24.5L29 24.1L29.6 22.2L30.5 22.5C31.1 22.7 31.4 23.1 31.7 23.4L31.8 23.3C31.6 23 31.3 22.6 31.3 22V21H33.3V22C33.3 22.6 33 23 32.8 23.4L32.9 23.5C33.2 23.2 33.5 22.8 34.1 22.6L35 22.2L35.6 24.1L34.7 24.4C34.1 24.6 33.6 24.4 33.2 24.3V24.4C33.6 24.6 34.1 24.7 34.4 25.2L35 26.1ZM27 26.1L25.4 27.3L24.8 26.5C24.4 26 24.4 25.5 24.4 25.1H24.3C24.2 25.5 24.3 26 23.9 26.5L23.3 27.3L21.6 26.1L22.2 25.3C22.6 24.8 23 24.7 23.4 24.5V24.4C23 24.5 22.5 24.6 21.9 24.4L21 24.1L21.6 22.2L22.5 22.5C23.1 22.7 23.4 23.1 23.7 23.4L23.8 23.3C23.6 23 23.3 22.6 23.3 22V21H25.3V22C25.3 22.6 25 23 24.8 23.4L24.9 23.5C25.2 23.2 25.5 22.8 26.1 22.6L27 22.2L27.6 24.1L26.7 24.4C26.1 24.6 25.6 24.4 25.2 24.3V24.4C25.6 24.6 26.1 24.7 26.4 25.2L27 26.1ZM19 26.1L17.4 27.3L16.8 26.5C16.4 26 16.4 25.5 16.4 25.1H16.3C16.3 25.5 16.3 26 15.9 26.5L15.2 27.3L13.6 26.1L14.2 25.3C14.6 24.8 15 24.7 15.4 24.5V24.4C15 24.5 14.5 24.6 13.9 24.4L13 24.1L13.6 22.2L14.5 22.5C15.1 22.7 15.4 23.1 15.7 23.4L15.8 23.3C15.6 23 15.3 22.6 15.3 22V21H17.3V22C17.3 22.6 17 23 16.8 23.4L16.9 23.5C17.2 23.2 17.5 22.8 18.1 22.6L19 22.2L19.6 24.1L18.7 24.4C18.1 24.6 17.6 24.4 17.2 24.3V24.4C17.6 24.6 18.1 24.7 18.4 25.2L19 26.1Z" fill="white"/>
</svg>
