<svg width="48" height="48" viewBox="0 0 48 48" fill="none" xmlns="http://www.w3.org/2000/svg">
<rect width="48" height="48" rx="12" fill="#2B2D33"/>
<path d="M24.31 25.72C25.51 25.72 26.74 25.4 27.97 24.78L29.61 26.42L31.03 25L29.72 23.69C30.85 22.84 31.98 21.72 33.11 20.31C33.27 20.11 33.36 19.91 33.36 19.71C33.36 19.51 33.27 19.31 33.11 19.11C30.17 15.43 27.19 13.69 24.31 13.69C23.11 13.69 21.9 14.02 20.69 14.66L19.03 13L17.61 14.42L18.94 15.75C17.82 16.61 16.67 17.72 15.51 19.11C15.35 19.31 15.26 19.51 15.26 19.71C15.26 19.91 15.35 20.11 15.51 20.31C18.54 23.92 21.43 25.72 24.31 25.72ZM24.31 15.7C26.2 15.7 28.09 16.78 30.26 18.9C30.64 19.27 31.02 19.5 31.66 19.65V19.77C31.02 19.92 30.64 20.14 30.26 20.52C29.57 21.21 28.91 21.77 28.26 22.23L22.18 16.15C22.9 15.85 23.6 15.7 24.31 15.7ZM16.96 19.65C17.6 19.5 17.98 19.27 18.36 18.9C19.06 18.21 19.72 17.65 20.37 17.18L26.45 23.26C25.72 23.56 25.01 23.7 24.3 23.7C22.41 23.7 20.51 22.64 18.35 20.51C17.97 20.13 17.59 19.91 16.95 19.76V19.65H16.96Z" fill="white"/>
<path d="M33.19 31.17L33.22 31.06C33.51 31.13 33.8 31.22 34.14 31.22C34.32 31.22 34.51 31.19 34.73 31.12L35.64 30.82L35.01 28.93L34.09 29.23C33.47 29.43 33.22 29.81 32.91 30.15L32.82 30.08C33.05 29.69 33.32 29.34 33.32 28.71V27.71H31.32V28.71C31.32 29.34 31.59 29.69 31.82 30.08L31.73 30.15C31.42 29.81 31.17 29.43 30.55 29.23L29.63 28.93L29 30.82L29.92 31.12C30.14 31.19 30.33 31.22 30.51 31.22C30.84 31.22 31.12 31.13 31.41 31.07L31.44 31.18C31.03 31.37 30.61 31.48 30.24 31.99L29.63 32.82L31.24 34.02L31.86 33.17C32.22 32.68 32.21 32.25 32.26 31.8H32.37C32.42 32.25 32.4 32.69 32.78 33.21L33.37 34.02L34.99 32.84L34.4 31.98C34.05 31.47 33.61 31.36 33.19 31.17Z" fill="white"/>
<path d="M18.14 31.22C18.32 31.22 18.51 31.19 18.73 31.12L19.64 30.82L19.01 28.93L18.09 29.23C17.47 29.43 17.22 29.81 16.91 30.15L16.82 30.08C17.05 29.69 17.32 29.34 17.32 28.71V27.71H15.32V28.71C15.32 29.34 15.59 29.69 15.82 30.08L15.73 30.15C15.42 29.81 15.17 29.43 14.55 29.23L13.63 28.93L13 30.82L13.92 31.12C14.14 31.19 14.33 31.22 14.51 31.22C14.84 31.22 15.12 31.13 15.41 31.07L15.44 31.18C15.03 31.37 14.61 31.48 14.24 31.99L13.63 32.82L15.24 34.02L15.86 33.17C16.22 32.68 16.21 32.25 16.26 31.8H16.37C16.42 32.25 16.4 32.69 16.78 33.21L17.37 34.02L18.99 32.84L18.4 31.98C18.05 31.47 17.61 31.36 17.19 31.17L17.22 31.06C17.51 31.13 17.8 31.22 18.14 31.22Z" fill="white"/>
<path d="M26.14 31.22C26.32 31.22 26.51 31.19 26.73 31.12L27.64 30.82L27.01 28.93L26.09 29.23C25.47 29.43 25.22 29.81 24.91 30.15L24.82 30.08C25.05 29.69 25.32 29.34 25.32 28.71V27.71H23.32V28.71C23.32 29.34 23.59 29.69 23.82 30.08L23.73 30.15C23.42 29.81 23.17 29.43 22.55 29.23L21.63 28.93L21 30.82L21.92 31.12C22.14 31.19 22.33 31.22 22.51 31.22C22.84 31.22 23.12 31.13 23.41 31.07L23.44 31.18C23.03 31.37 22.61 31.48 22.24 31.99L21.63 32.82L23.24 34.02L23.86 33.17C24.22 32.68 24.21 32.25 24.26 31.8H24.37C24.42 32.25 24.4 32.69 24.78 33.21L25.37 34.02L26.99 32.84L26.4 31.98C26.05 31.47 25.61 31.36 25.19 31.17L25.22 31.06C25.51 31.13 25.8 31.22 26.14 31.22Z" fill="white"/>
</svg>
