<svg width="48" height="48" viewBox="0 0 48 48" fill="none" xmlns="http://www.w3.org/2000/svg">
<rect width="48" height="48" rx="12" fill="#2B2D33"/>
<path fill-rule="evenodd" clip-rule="evenodd" d="M14 15C14 14.4477 14.4477 14 15 14H19C19.5523 14 20 14.4477 20 15V19C20 19.5523 19.5523 20 19 20H15C14.4477 20 14 19.5523 14 19V15ZM16 16V18H18V16H16Z" fill="white"/>
<path fill-rule="evenodd" clip-rule="evenodd" d="M28 15C28 14.4477 28.4477 14 29 14H33C33.5523 14 34 14.4477 34 15V19C34 19.5523 33.5523 20 33 20H29C28.4477 20 28 19.5523 28 19V15ZM30 16V18H32V16H30Z" fill="white"/>
<path fill-rule="evenodd" clip-rule="evenodd" d="M15 28C14.4477 28 14 28.4477 14 29V33C14 33.5523 14.4477 34 15 34H19C19.5523 34 20 33.5523 20 33V29C20 28.4477 19.5523 28 19 28H15ZM16 32V30H18V32H16Z" fill="white"/>
<path d="M22 14H24V16H22V14Z" fill="white"/>
<path d="M24 18V16H26V20H24V22H22V18H24Z" fill="white"/>
<path fill-rule="evenodd" clip-rule="evenodd" d="M22 24V22H18V24H16V22H14V24H16V26H20V28H24V30H22V34H24V32H28V34H30V32H34V30H30V28H32V26H34V24H32V22H28V20H26V22H24V24H22ZM26 24H24V28H26V30H28V32H30V30H28V28H30V26H32V24H30V26H28V28H26V24ZM26 24H28V22H26V24ZM22 24V26H20V24H22Z" fill="white"/>
</svg>
