<svg width="48" height="48" viewBox="0 0 48 48" fill="none" xmlns="http://www.w3.org/2000/svg">
<rect width="48" height="48" rx="12" fill="#2B2D33"/>
<path d="M24.0001 25C23.4001 25 23.0001 24.6 23.0001 24C23.0001 23.4 23.4001 23 24.0001 23C24.6001 23 25.0001 23.4 25.0001 24C25.0001 24.6 24.6001 25 24.0001 25ZM24.0001 27C25.7001 27 27.0001 25.7 27.0001 24C27.0001 22.3 25.7001 21 24.0001 21C22.3001 21 21.0001 22.3 21.0001 24C21.0001 25.7 22.3001 27 24.0001 27ZM24.0001 29C21.8001 29 19.5001 27.7 17.1001 25C16.5001 24.4 16.1001 24.2 15.1001 24V23.9C16.1001 23.8 16.5001 23.6 17.1001 22.9C19.5001 20.3 21.8001 19 24.0001 19C26.2001 19 28.5001 20.3 30.9001 23C31.5001 23.6 31.9001 23.8 32.9001 24V24.1C31.9001 24.2 31.5001 24.4 30.9001 25.1C28.5001 27.7 26.2001 29 24.0001 29ZM24.0001 31C27.3001 31 30.6001 28.8 33.8001 24.6C34.1001 24.2 34.1001 23.7 33.8001 23.4C30.6001 19.2 27.3001 17 24.0001 17C20.7001 17 17.4001 19.2 14.2001 23.4C13.9001 23.8 13.9001 24.3 14.2001 24.6C17.4001 28.8 20.7001 31 24.0001 31Z" fill="white"/>
</svg>
