<svg width="48" height="48" viewBox="0 0 48 48" fill="none" xmlns="http://www.w3.org/2000/svg">
<rect width="48" height="48" rx="12" fill="#2B2D33"/>
<path d="M23.9999 21C24.7999 21 25.4999 20.3 25.4999 19.5C25.4999 18.7 24.7999 18 23.9999 18C23.1999 18 22.4999 18.7 22.4999 19.5C22.4999 20.3 23.1999 21 23.9999 21ZM15.8999 24.4C15.8999 23.1 15.6999 22.6 15.1999 21.9L14.2999 21L16.7999 17.6L23.9999 15.1L31.1999 17.6L33.6999 21L32.7999 22C32.1999 22.6 32.0999 23.1 32.0999 24.5H31.9999C31.9999 23.8 31.8999 23.6 31.0999 23.3C29.0999 22.4 25.8999 22 23.9999 22C22.0999 22 18.8999 22.4 16.8999 23.2C16.0999 23.5 15.9999 23.7 15.9999 24.4H15.8999ZM23.9999 27C20.7999 27 18.8999 26.6 17.9999 26.3V24.9C19.0999 24.6 21.3999 24 23.9999 24C26.5999 24 28.8999 24.6 29.9999 24.9V26.2C29.0999 26.6 27.1999 27 23.9999 27ZM23.9999 33C20.1999 33 18.3999 30.5 17.9999 29.8V28.4C19.1999 28.7 21.0999 29 23.9999 29C26.8999 29 28.7999 28.7 29.9999 28.4V29.8C29.5999 30.5 27.6999 33 23.9999 33ZM23.9999 35C29.5999 35 31.7999 30.7 31.8999 30.5C31.9999 30.4 31.9999 30.2 31.9999 30V25.8L35.6999 21.7C35.9999 21.3 35.9999 20.8 35.7999 20.4L32.6999 16.1C32.5999 15.9 32.3999 15.8 32.1999 15.8L24.2999 13C24.0999 12.9 23.8999 12.9 23.5999 13L15.7999 15.8C15.5999 15.9 15.4999 16 15.2999 16.2L12.1999 20.5C11.8999 20.9 11.9999 21.4 12.2999 21.8L15.9999 25.9V30.1C15.9999 30.3 15.9999 30.4 16.0999 30.6C16.1999 30.7 18.4999 35 23.9999 35Z" fill="white"/>
</svg>
