<svg width="48" height="48" viewBox="0 0 48 48" fill="none" xmlns="http://www.w3.org/2000/svg">
<rect width="48" height="48" rx="12" fill="#2B2D33"/>
<path d="M29.0002 15.5168C27.1847 14.3037 24.9901 13.792 22.8253 14.077C20.6605 14.362 18.6731 15.4243 17.2335 17.0659C15.7938 18.7075 15 20.8165 15 23C15 23.5523 15.4477 24 16 24C16.5523 24 17 23.5523 17 23C17 21.3018 17.6174 19.6614 18.7372 18.3846C19.8569 17.1078 21.4026 16.2816 23.0863 16.0599C24.7701 15.8382 26.477 16.2362 27.889 17.1797C29.3011 18.1232 30.322 19.5479 30.7615 21.1883C30.9045 21.7218 31.4528 22.0383 31.9863 21.8954C32.5197 21.7525 32.8363 21.2041 32.6934 20.6707C32.1282 18.5616 30.8157 16.7299 29.0002 15.5168Z" fill="white"/>
<path d="M25 23C25 22.4477 24.5523 22 24 22C23.4478 22 23 22.4477 23 23V23.2918C23 25.1857 21.93 26.917 20.2361 27.7639L17.5528 29.1056C17.0588 29.3526 16.8586 29.9532 17.1056 30.4472C17.3526 30.9412 17.9533 31.1414 18.4472 30.8944L21.1305 29.5528C23.502 28.367 25 25.9432 25 23.2918V23Z" fill="white"/>
<path d="M32.1644 23.5136C32.7092 23.6044 33.0772 24.1196 32.9864 24.6644L32.7456 26.1094C32.2159 29.2877 30.4302 32.1195 27.7904 33.9674L26.5735 34.8192C26.121 35.1359 25.4975 35.0259 25.1808 34.5734C24.8641 34.121 24.9741 33.4975 25.4266 33.1807L26.6435 32.3289C28.8433 30.789 30.3314 28.4292 30.7728 25.7806L31.0136 24.3356C31.1044 23.7908 31.6197 23.4228 32.1644 23.5136Z" fill="white"/>
<path d="M22.5 20.4019C22.9561 20.1386 23.4734 20 24 20C24.5266 20 25.044 20.1386 25.5 20.4019C25.9561 20.6652 26.3348 21.0439 26.5981 21.5C26.7688 21.7956 26.8518 21.9609 26.9062 22.1415C26.9593 22.3176 27 22.5614 27 23C27 25.3728 26.2025 27.6274 24.5589 29.1611C23.7582 29.9082 22.8815 30.6405 22.04 31.1799C21.1664 31.7399 20.4705 32 20 32C19.4477 32 19 32.4477 19 33C19 33.5523 19.4477 34 20 34C21.0655 34 22.1677 33.4737 23.1194 32.8636C24.1032 32.2329 25.0791 31.4112 25.9234 30.6233C28.0591 28.6304 29 25.7963 29 23C29 22.4386 28.9483 21.9865 28.8212 21.5645C28.6955 21.1472 28.5106 20.8125 28.3301 20.5C27.8913 19.7399 27.2601 19.1087 26.5 18.6699C25.7399 18.231 24.8777 18 24 18C23.1223 18 22.2601 18.231 21.5 18.6699C20.7399 19.1087 20.1087 19.7399 19.6699 20.5C19.2311 21.2601 19 22.1223 19 23C19 23.4485 18.9201 23.8945 18.7658 24.2412C18.6142 24.5821 18.4233 24.763 18.2203 24.8437L15.1309 26.0706C14.6176 26.2745 14.3668 26.8558 14.5706 27.3691C14.7745 27.8824 15.3558 28.1332 15.8691 27.9294L18.9585 26.7024C19.7816 26.3756 20.296 25.722 20.5931 25.0542C20.8877 24.3923 21 23.6555 21 23C21 22.4734 21.1386 21.9561 21.4019 21.5C21.6653 21.0439 22.044 20.6652 22.5 20.4019Z" fill="white"/>
</svg>
