<svg width="24" height="24" viewBox="0 0 24 24" fill="none" xmlns="http://www.w3.org/2000/svg">
<path d="M20.49 1.97998L16.94 1.12998C15.79 0.849982 15.2 0.959982 14.86 2.04998C14.48 3.25998 13.34 4.13998 12 4.13998C10.66 4.13998 9.52 3.25998 9.14 2.04998C8.81 0.989982 8.26 0.839982 7.06 1.12998L3.52 1.97998C2.6 2.19998 2 2.93998 2 3.91998V8.13998C2 9.28998 2.85 10.14 4 10.14H5V21.14C5 22.24 5.9 23.14 7 23.14H17C18.11 23.14 19 22.24 19 21.14V10.14H20C21.11 10.14 22 9.28998 22 8.13998V3.91998C22 2.93998 21.44 2.20998 20.49 1.97998ZM17 21.14H13V17.14H11V21.14H7V13.81H7.12C7.39 14.65 8.03 15.13 8.99 15.14H15C15.97 15.14 16.61 14.65 16.88 13.81H17V21.14ZM20 8.13998H17V13.14H7V8.13998H4V3.91998L7.4 3.09998C8.03 4.59998 9.37 5.70998 11 6.03998V8.13998H13V6.03998C14.63 5.70998 15.97 4.59998 16.6 3.09998L20 3.91998V8.13998Z" fill="#FEE600"/>
</svg>
