<svg width="24" height="24" viewBox="0 0 24 24" fill="none" xmlns="http://www.w3.org/2000/svg">
<path d="M21.2 3.02003L16.2 2.02003C15.89 1.96003 15.58 2.02003 15.35 2.21003C15.12 2.40003 15 2.69003 15 2.99003C15 4.17003 14.27 5.00003 13 5.00003C11.77 5.00003 11 4.19003 11 3.00003C11 2.69003 10.91 2.41003 10.66 2.21003C10.42 2.02003 10.11 1.96003 9.81 2.02003L4.81 3.02003C4.34 3.11003 4 3.52003 4 4.00003V9.00003C4 9.55003 4.45 10 5 10H6C6 10.97 6.49 11.61 7.33 11.88V12H5C3.35 12 2 13.34 2 15C2 15.77 2.29 16.47 2.77 17C2.29 17.53 2 18.23 2 19C2 20.66 3.35 22 5 22H13C14.66 22 16 20.66 16 19C16 18.65 15.93 18.31 15.82 18H19C19.55 18 20 17.55 20 17V10H21C21.55 10 22 9.55003 22 9.00003V4.00003C22 3.52003 21.67 3.11003 21.2 3.02003ZM13 20H5C4.45 20 4 19.55 4 19C4 18.45 4.45 18 5 18H13C13.55 18 14 18.45 14 19C14 19.55 13.55 20 13 20ZM13 16H5C4.45 16 4 15.55 4 15C4 14.45 4.45 14 5 14H13C13.55 14 14 14.45 14 15C14 15.55 13.55 16 13 16ZM20 8.00003H19C18.45 8.00003 18 8.45003 18 9.00003V16H15.82C15.93 15.69 16 15.35 16 15C16 13.34 14.66 12 13 12H8V9.00003C8 8.45003 7.55 8.00003 7 8.00003H6V4.82003L9.19 4.18003C9.71 5.99003 11.1 7.00003 13 7.00003C14.91 7.00003 16.3 5.97003 16.82 4.18003L20 4.82003V8.00003Z" fill="#FEE600"/>
</svg>
