<svg width="24" height="24" viewBox="0 0 24 24" fill="none" xmlns="http://www.w3.org/2000/svg">
<path d="M4 19.28V16.65L12 13.09L20 16.65V19.28H19.88C19.61 18.52 18.9 18.01 18 18.01H6C5.1 18.01 4.39 18.52 4.12 19.28H4ZM2 22H4V21C4 20.45 4.45 20 5 20H19C19.55 20 20 20.45 20 21V22H22V16.1C22 15.56 21.82 15.27 21.33 15.05L13 11.35V9.87C14.76 9.43 16 7.9 16 6C16 3.75 14.24 2 12 2C9.75 2 8 3.75 8 6H10C10 4.86 10.85 4 12 4C13.14 4 14 4.86 14 6C14 7.14 13.14 8 12 8C11.39 8 11 8.4 11 9V11.34L2.67 15.05C2.15 15.28 2 15.56 2 16.1V22Z" fill="#FEE600"/>
</svg>
