<svg width="24" height="24" viewBox="0 0 24 24" fill="none" xmlns="http://www.w3.org/2000/svg">
<path d="M20.58 12.2299C20.84 12.4199 21 12.7099 21 13.0399V13.9999H5V5.99989H6.03C6.19 7.12989 7.16 7.99989 8.34 7.99989H9.77C10.85 7.99989 11.84 7.41989 12.37 6.47989L14.74 8.14989L14.68 8.23989C14.12 7.96989 13.66 7.93989 13.21 8.37989L12.29 9.28989L13.71 10.7099L15.65 8.76989L17.68 10.2099L17.62 10.2999C17.06 10.0299 16.6 9.99989 16.15 10.4399L15.23 11.3499L16.65 12.7699L18.59 10.8299L20.58 12.2299ZM5 17.9999V15.9999H21V17.9999H5ZM4 19.9999H22C22.55 19.9999 23 19.5499 23 18.9999V13.0399C23 12.0599 22.52 11.1499 21.72 10.5799L12.58 4.17989C12.34 4.00989 12.04 3.95989 11.76 4.02989C11.47 4.09989 11.24 4.28989 11.11 4.54989L10.66 5.44989C10.49 5.78989 10.14 5.99989 9.77 5.99989H8.34C8.15 5.99989 8 5.84989 8 5.66989C8 4.74989 7.26 3.99989 6.34 3.99989H4C3.45 3.99989 3 4.44989 3 4.99989V18.9999C3 19.5499 3.45 19.9999 4 19.9999Z" fill="#FEE600"/>
</svg>
