<svg width="24" height="24" viewBox="0 0 24 24" fill="none" xmlns="http://www.w3.org/2000/svg">
<path d="M17.68 11.2099L15.65 9.76989L13.71 11.7099L12.29 10.2899L13.21 9.37989C13.66 8.93989 14.12 8.96989 14.68 9.23989L14.74 9.14989L12.37 7.47989C11.84 8.41989 10.85 8.99989 9.77 8.99989H8.34C7.16 8.99989 6.19 8.12989 6.03 6.99989H5V16.9999H18.03C19.67 16.9999 21 15.6699 21 14.0299C21 13.7099 20.85 13.4199 20.58 13.2299L18.59 11.8299L16.65 13.7699L15.23 12.3499L16.15 11.4399C16.6 10.9999 17.06 11.0299 17.62 11.2999L17.68 11.2099ZM11.76 5.02989C12.04 4.95989 12.34 5.00989 12.58 5.17989L21.73 11.5899C22.53 12.1499 23 13.0599 23 14.0299C23 16.7799 20.78 18.9999 18.03 18.9999H4C3.45 18.9999 3 18.5499 3 17.9999V5.99989C3 5.44989 3.45 4.99989 4 4.99989H6.34C7.26 4.99989 8 5.74989 8 6.66989C8 6.84989 8.15 6.99989 8.34 6.99989H9.77C10.14 6.99989 10.49 6.78989 10.66 6.44989L11.11 5.54989C11.24 5.28989 11.47 5.09989 11.76 5.02989Z" fill="#FEE600"/>
</svg>
