<svg width="24" height="24" viewBox="0 0 24 24" fill="none" xmlns="http://www.w3.org/2000/svg">
<path d="M8.71378 11.9965L7.29251 13.4177L11.2947 17.4199L12.716 15.9987L8.71378 11.9965Z" fill="#FEE600"/>
<path d="M11.7138 8.99648L10.2925 10.4177L14.2947 14.4199L15.716 12.9987L11.7138 8.99648Z" fill="#FEE600"/>
<path d="M19.9201 6.21L22.7101 3.42L21.2901 2L18.5001 4.8L17.7101 4C17.5301 3.81 17.2701 3.71 17.0001 3.71H12.0001C11.7401 3.71 11.4801 3.81 11.2901 4L2.29006 13C1.90006 13.39 1.90006 14.03 2.29006 14.42L10.2901 22.42C10.6901 22.82 11.3201 22.81 11.7101 22.42L20.7101 13.42C20.9001 13.23 21.0001 12.98 21.0001 12.71V7.71C21.0001 7.44 20.9001 7.19 20.7101 7L19.9201 6.21ZM19.0001 8.42V12.3L11.0001 20.3L4.42006 13.71L12.4201 5.71H16.3001C17.3101 5.71 17.5701 5.55 18.0201 5.13L18.1101 5.21L16.5901 6.71C16.5601 6.71 16.5301 6.71 16.5001 6.71C15.6701 6.71 15.0001 7.38 15.0001 8.21C15.0001 9.04 15.6701 9.71 16.5001 9.71C17.3301 9.71 18.0001 9.04 18.0001 8.21C18.0001 8.18 18.0001 8.15 18.0001 8.13L19.5001 6.61L19.5801 6.7C19.1601 7.15 19.0001 7.41 19.0001 8.42Z" fill="#FEE600"/>
</svg>
