<svg width="48" height="48" viewBox="0 0 48 48" fill="none" xmlns="http://www.w3.org/2000/svg">
<rect width="48" height="48" rx="12" fill="#FEE600"/>
<path d="M35.64 19.23L29.64 14.23C29.27 13.92 28.73 13.92 28.36 14.23L22.36 19.23C22.13 19.42 22 19.7 22 20V21H24V20.47L29 16.3L34 20.47V22H33V26H31V22H29V26H28V28H34C34.55 28 35 27.55 35 27V22H36V20C36 19.7 35.87 19.42 35.64 19.23Z" fill="#2B2D33"/>
<path d="M25.45 24.11L19.45 21.11C19.17 20.96 18.84 20.96 18.55 21.11L12.55 24.11C12.22 24.27 12 24.62 12 25V26C12 26.6 12.44 27 13 27H14V33H12V35H26V33H24V29C24 28.03 23.51 27.39 22.67 27.12V27H25C25.57 27 26 26.6 26 26V25C26 24.62 25.79 24.27 25.45 24.11ZM16 33V29C16 28.03 15.51 27.39 14.67 27.12V27H18V33H16ZM22 33H20V29C20 28.03 19.51 27.39 18.67 27.12V27H22V33ZM14.84 25L19 23.12L23.17 25H14.84Z" fill="#2B2D33"/>
</svg>
