<svg width="48" height="48" viewBox="0 0 48 48" fill="none" xmlns="http://www.w3.org/2000/svg">
<rect width="48" height="48" rx="12" fill="#FEE600"/>
<path d="M14 31H20.97V31.14C19.51 31.45 19 32.51 19 34H21C21.01 32.68 21.69 31.53 23.29 30.97C23.8 30.79 24 30.45 24 29.99C24 29.54 23.8 29.2 23.29 29.02C21.69 28.45 21.01 27.3 21 25.98H19C19 27.46 19.51 28.56 20.97 28.86V29H14V31ZM33 33V27H31V33H33ZM26 27H28V33H26V27ZM17.07 21C15.92 21.64 15.51 21.88 14.7 21.88V22H33.3V21.88C32.51 21.88 32.17 21.69 30.94 21L24 17.14L17.07 21ZM23.51 15.13C23.81 14.96 24.18 14.96 24.48 15.13L33.48 20.13C33.8 20.3 34 20.64 34 21V23C34 23.55 33.55 24 33 24H15C14.44 24 14 23.55 14 23V21C14 20.64 14.19 20.3 14.51 20.13L23.51 15.13Z" fill="#2B2D33"/>
</svg>
