<svg width="48" height="48" viewBox="0 0 48 48" fill="none" xmlns="http://www.w3.org/2000/svg">
<rect width="48" height="48" rx="12" fill="#FEE600"/>
<path d="M17 25.38C18.83 23.25 21.39 22 24 22C26.61 22 29.17 23.25 31 25.38V28H33V21.5C33 20.75 32.89 20.44 32.36 19.87C30.25 17.6 27.17 16 24 16C20.83 16 17.73 17.59 15.64 19.87C15.11 20.44 15 20.75 15 21.5V28H17V25.38ZM31 21.38V23.9H30.88C30.88 22.84 30.62 22.22 29.62 21.61C29.1 21.29 28.55 21.04 28 20.81V18.99C29.12 19.57 30.14 20.38 31 21.38ZM26 18.24V20.22C25.34 20.09 24.67 20 24 20C23.32 20 22.66 20.09 22 20.22V18.24C22.65 18.08 23.32 18 24 18C24.67 18 25.34 18.08 26 18.24ZM20 18.99V20.81C19.44 21.04 18.9 21.29 18.38 21.61C17.38 22.22 17.12 22.84 17.12 23.9H17V21.38C17.86 20.38 18.88 19.57 20 18.99Z" fill="#2B2D33"/>
<path d="M19 28H21C21 26.94 22.24 26 24 26C25.76 26 27 26.94 27 28H29C29 25.77 26.86 24 24 24C21.14 24 19 25.77 19 28Z" fill="#2B2D33"/>
<path d="M33.45 30.1L32.89 29.82C31.69 29.22 30.27 29.26 29.11 29.92L28.49 30.28C27.88 30.63 27.12 30.63 26.51 30.28L25.99 29.98C24.76 29.27 23.25 29.27 22.02 29.98L21.49 30.28C20.88 30.63 20.12 30.63 19.51 30.28L18.89 29.92C17.73 29.26 16.31 29.22 15.12 29.82L14.55 30.1C14.06 30.35 13.86 30.95 14.11 31.44C14.35 31.94 14.96 32.14 15.45 31.89L16.01 31.61C16.61 31.31 17.32 31.33 17.9 31.66L18.52 32.01C19.75 32.72 21.26 32.72 22.49 32.01L23.01 31.71C23.62 31.36 24.38 31.36 24.99 31.71L25.52 32.01C26.75 32.72 28.26 32.72 29.49 32.01L30.1 31.66C30.68 31.33 31.39 31.31 31.99 31.61L32.55 31.89C33.05 32.14 33.65 31.94 33.9 31.44C34.14 30.95 33.94 30.35 33.45 30.1Z" fill="#2B2D33"/>
</svg>
