<svg width="48" height="48" viewBox="0 0 48 48" fill="none" xmlns="http://www.w3.org/2000/svg">
<rect width="48" height="48" rx="12" fill="#FEE600"/>
<path d="M27 26.52V25H28V23H24V25H25V27.99C26.12 27.99 27 28.87 27 29.99C27 31.11 26.12 31.99 25 31.99C23.88 31.99 23 31.11 23 29.99H21C21 32.21 22.78 33.99 25 33.99C27.22 33.99 29 32.21 29 29.99C29 28.5 28.2 27.21 27 26.52Z" fill="#2B2D33"/>
<path d="M32.74 18.31L30.88 15.52C30.65 15.17 30.34 15 29.9 15H15V17H18.46L19.31 18.28C19.61 18.73 19.86 18.88 20.43 18.88V19H15V21H33V19.2C33 18.8 32.94 18.61 32.74 18.31ZM24.65 17.72L23.8 19H22.19L20.86 17H25.77V17.12C25.2 17.12 24.95 17.27 24.65 17.72ZM31.44 19H26.21L27.54 17H29.47L30.32 18.28C30.62 18.73 30.87 18.88 31.44 18.88V19Z" fill="#2B2D33"/>
</svg>
