<svg width="48" height="48" viewBox="0 0 48 48" fill="none" xmlns="http://www.w3.org/2000/svg">
<rect width="48" height="48" rx="12" fill="#FEE600"/>
<path d="M25 22H23V20C22.37 20 22 19.56 22 19C22 18.7 22.14 18.41 22.38 18.22L27.38 14.22C27.74 13.93 28.26 13.93 28.63 14.22L33.63 18.22C33.87 18.41 34 18.7 34 19C34 19.56 33.63 20 33 20V25C33 25.57 32.56 26 32 26H28V24H31V20.6C31 19.92 31.22 19.6 32 19.6V19.48L28 16.28L24 19.48V19.6C24.78 19.6 25 19.92 25 20.6V22ZM16.27 21.93C17.03 19.17 19.18 17.01 21.93 16.28L21.41 14.34C17.95 15.28 15.28 17.96 14.34 21.42L16.27 21.93ZM27.34 33.43C29.84 32.54 31.89 30.7 33.03 28.31L31.22 27.45C30.31 29.36 28.67 30.84 26.67 31.54L27.34 33.43ZM16 33H24C24.56 33 25 32.57 25 32V27C25.63 27 26 26.56 26 26C26 25.7 25.87 25.41 25.63 25.22L20.63 21.22C20.26 20.93 19.74 20.93 19.38 21.22L14.38 25.22C14.14 25.41 14 25.7 14 26C14 26.56 14.37 27 15 27V32C15 32.56 15.43 33 16 33ZM17 31V27.6C17 26.92 16.78 26.6 16 26.6V26.48L20 23.28L24 26.48V26.6C23.22 26.6 23 26.92 23 27.6V31H17Z" fill="#2B2D33"/>
</svg>
