<svg width="48" height="48" viewBox="0 0 48 48" fill="none" xmlns="http://www.w3.org/2000/svg">
<rect width="48" height="48" rx="12" fill="#2B2D33"/>
<g clip-path="url(#clip0_386_17284)">
<path d="M26.7801 26H21.2501V25.88C22.2801 25.78 22.6601 25.41 22.7501 24.44L23.0101 21.59C23.0501 21.18 22.8301 20.79 22.4601 20.61L19.4601 19.11L18.5601 20.89L20.9501 22.09L20.5201 26.91C20.4601 27.56 20.8901 28 21.5101 28H26.5101C27.1501 28 27.5701 27.56 27.5101 26.91L27.0701 22.09L29.4601 20.89L28.5601 19.11L25.5601 20.61C25.2001 20.79 24.9801 21.18 25.0201 21.59L25.2801 24.44C25.3701 25.41 25.7501 25.78 26.7801 25.88V26ZM24.0101 32C20.8601 32 17.7101 30.38 16.0701 27.8L17.4701 20.78C17.5501 20.37 17.3701 19.95 17.0001 19.73C16.4101 19.38 16.0101 18.73 16.0101 18C16.0101 16.9 16.9101 16 18.0101 16C18.5501 16 19.0301 16.21 19.3901 16.55C19.6801 16.83 20.1201 16.91 20.4901 16.74C21.4301 16.31 22.6101 16 24.0101 16C25.4101 16 26.6001 16.31 27.5401 16.74C27.9101 16.91 28.3401 16.83 28.6301 16.55C28.9901 16.21 29.4801 16 30.0101 16C31.1201 16 32.0101 16.9 32.0101 18C32.0101 18.73 31.6201 19.38 31.0201 19.73C30.6601 19.94 30.4701 20.37 30.5501 20.78L31.9501 27.8C30.3101 30.38 27.1601 32 24.0101 32ZM24.0101 34C28.0101 34 31.5101 32.09 33.8401 28.57C34.0201 28.3 34.0501 28.08 33.9901 27.8L32.6401 21.02C33.4801 20.29 34.0101 19.21 34.0101 18C34.0101 15.79 32.2201 14 30.0101 14C29.1901 14 28.4201 14.25 27.7801 14.68C26.7201 14.28 25.4601 14 24.0101 14C22.5701 14 21.3001 14.28 20.2401 14.68C19.6101 14.25 18.8401 14 18.0101 14C15.8001 14 14.0101 15.79 14.0101 18C14.0101 19.21 14.5501 20.29 15.3901 21.02L14.0301 27.8C13.9701 28.08 13.9901 28.29 14.1801 28.57C16.5001 32.09 20.0101 34 24.0101 34Z" fill="#FEE600"/>
</g>
<defs>
<clipPath id="clip0_386_17284">
<rect width="20.02" height="20" fill="white" transform="translate(14 14)"/>
</clipPath>
</defs>
</svg>
