<svg width="48" height="48" viewBox="0 0 48 48" fill="none" xmlns="http://www.w3.org/2000/svg">
<rect width="48" height="48" rx="12" fill="#2B2D33"/>
<path d="M22.0003 25.55L23.4103 24.13C23.6003 23.95 23.8603 23.84 24.1203 23.84C26.6403 23.84 28.5803 25.88 29.7503 28.66C30.3603 26.75 30.2603 24.99 29.9503 23.6C29.7303 22.63 29.4103 21.84 29.1403 21.29C29.0103 21.01 28.8903 20.8 28.8103 20.66C28.7703 20.59 28.7403 20.54 28.7203 20.51C28.7103 20.5 28.7103 20.49 28.7003 20.49C28.7003 20.48 28.7003 20.48 28.7003 20.48L28.6903 20.47C28.3903 20.03 28.5003 19.42 28.9303 19.11L30.8603 17.69C29.9003 17.57 28.7203 17.62 27.5503 18.17C27.1903 18.34 26.7703 18.29 26.4703 18.03L26.4403 18.01C26.4203 17.99 26.3803 17.96 26.3303 17.92C26.2303 17.84 26.0703 17.72 25.8703 17.59C25.4703 17.32 24.8803 16.97 24.1803 16.68C22.7603 16.08 20.9403 15.7 19.0603 16.39C18.8803 16.45 18.6803 16.47 18.4903 16.42L16.7803 16.02C16.5603 15.97 16.3403 16.03 16.1903 16.19C15.9103 16.46 15.9503 16.92 16.2703 17.14L21.7003 21.03C22.1103 21.32 22.2403 21.87 22.0003 22.31C21.5703 23.11 21.4403 23.72 21.4403 24.19C21.4403 24.78 21.6203 25.21 22.0003 25.55ZM28.5203 31.13C27.8603 28.88 26.4303 26.13 24.5103 25.87L22.8303 27.55C22.6403 27.74 22.3903 27.84 22.1303 27.84C21.4803 27.84 19.4303 26.68 19.4303 24.18C19.4303 23.58 19.5603 22.91 19.8603 22.17L15.1003 18.77C13.7803 17.83 13.6203 15.92 14.7703 14.77C15.4203 14.13 16.3403 13.87 17.2303 14.07L18.6703 14.41C21.0803 13.63 23.3403 14.15 24.9603 14.83C25.8103 15.19 26.5003 15.6 26.9803 15.93C27.0903 16 27.1803 16.06 27.2603 16.12C28.8003 15.54 30.2903 15.57 31.4003 15.75C32.0303 15.85 32.5603 15.99 32.9303 16.12C33.1103 16.18 33.2603 16.24 33.3703 16.29C33.4203 16.31 33.4603 16.33 33.4903 16.34C33.5103 16.35 33.5203 16.35 33.5303 16.36H33.5503V16.37C33.8703 16.52 34.0803 16.82 34.1203 17.17C34.1503 17.52 34.0003 17.87 33.7103 18.07L30.8303 20.19C30.8703 20.26 30.9003 20.34 30.9403 20.42C31.2603 21.07 31.6403 22.01 31.9003 23.16C32.3303 25.07 32.4003 27.58 31.3003 30.23C30.9403 31.09 31.1903 31.84 32.4403 31.84H34.0003C34.6003 31.84 35.0003 32.25 35.0003 32.84V33.84H31.7003C30.6103 33.84 30.1703 33.66 30.0603 32.42H29.9403C29.8203 33.68 29.3903 33.84 28.3003 33.84H25.0003V32.84C25.0003 32.25 25.4203 31.84 26.0003 31.84H28.0003C28.4603 31.84 28.6603 31.59 28.5203 31.13Z" fill="#FEE600"/>
</svg>
