<svg width="48" height="48" viewBox="0 0 48 48" fill="none" xmlns="http://www.w3.org/2000/svg">
<rect width="48" height="48" rx="12" fill="#2B2D33"/>
<path d="M29 24.46C29.81 24.46 30.46 23.81 30.46 23C30.46 22.19 29.81 21.54 29 21.54C28.19 21.54 27.54 22.19 27.54 23C27.54 23.81 28.19 24.46 29 24.46ZM20.62 30L20.89 29.45C21.06 29.13 21.03 28.74 20.83 28.45L18.83 25.45C18.53 24.99 17.91 24.86 17.45 25.17L16 26.13V21.87L17.45 22.83C17.91 23.14 18.53 23.01 18.83 22.55L20.83 19.55C21.03 19.26 21.06 18.87 20.89 18.55L20.62 18H25C27.58 18 29.58 19.5 30.99 21.15C31.69 21.97 32.22 22.79 32.57 23.4C32.7 23.64 32.81 23.84 32.89 24C32.81 24.16 32.7 24.36 32.57 24.6C32.22 25.21 31.69 26.03 30.99 26.85C30.52 27.4 29.98 27.93 29.38 28.4C28.39 27.92 27.54 27.17 26.94 26.23C26.33 25.27 26 24.16 26 23.02H24C24 24.54 24.44 26.03 25.26 27.31C25.59 27.83 25.98 28.31 26.32 28.64C26.8 29.11 27.63 29.18 28.39 28.88L28.45 28.99C27.43 29.68 26.18 30 25 30H20.62ZM19 32H25C28.42 32 30.92 30 32.51 28.15C33.31 27.22 33.91 26.29 34.31 25.59C34.51 25.24 34.66 24.95 34.76 24.74C34.81 24.64 34.85 24.55 34.87 24.49C34.89 24.46 34.9 24.44 34.91 24.42C35.01 24.17 35.03 23.86 34.92 23.6L34.87 23.51C34.85 23.45 34.81 23.36 34.76 23.26C34.66 23.05 34.51 22.76 34.31 22.41C33.91 21.71 33.31 20.78 32.51 19.85C30.92 18 28.42 16 25 16H19C18.65 16 18.33 16.18 18.15 16.47C17.97 16.77 17.95 17.14 18.11 17.45L18.85 18.93L17.72 20.61L15.55 19.17C15.25 18.96 14.85 18.94 14.53 19.12C14.2 19.29 14 19.63 14 20V28C14 28.37 14.2 28.71 14.53 28.88C14.85 29.06 15.25 29.04 15.55 28.83L17.72 27.39L18.85 29.07L18.11 30.55C17.95 30.86 17.97 31.23 18.15 31.53C18.33 31.82 18.65 32 19 32Z" fill="#FEE600"/>
</svg>
