<svg width="48" height="48" viewBox="0 0 48 48" fill="none" xmlns="http://www.w3.org/2000/svg">
<rect width="48" height="48" rx="12" fill="#2B2D33"/>
<path d="M17.2004 18.9C14.4004 21.7 14.4004 25.1 16.3004 27C17.4004 28.1 18.5004 28.2 19.5004 27.7L19.6004 27.8L15.5004 31.9L17.0004 33.4L21.0004 29.3L21.1004 29.4C20.6004 30.4 20.7004 31.5 21.8004 32.6C23.7004 34.5 27.2004 34.4 29.9004 31.7C33.3004 28.3 33.5004 24 33.9004 15C24.9004 15.4 20.6004 15.6 17.2004 18.9ZM28.5004 30.2C26.5004 32.2 24.3004 32.2 22.8004 30.7C21.7004 29.6 21.8004 28.4 22.8004 27.4L28.3004 22L26.9004 20.6L21.5004 26C20.5004 27 19.3004 27.1 18.2004 26C16.7004 24.6 16.7004 22.3 18.6004 20.3C21.2004 17.7 24.3004 17.4 31.8004 17C31.5004 24.5 31.2004 27.6 28.5004 30.2Z" fill="#FEE600"/>
</svg>
