<svg width="48" height="48" viewBox="0 0 48 48" fill="none" xmlns="http://www.w3.org/2000/svg">
<rect width="48" height="48" rx="12" fill="#2B2D33"/>
<path d="M30.92 25H35V23H32.88C31.62 23 31.22 23.35 31.1 24.48H30.98C30.99 24.32 31 24.16 31 24C31 22.43 30.48 20.98 29.6 19.82L32.49 16.93L31.07 15.51L29.57 17.01C28.68 17.9 28.65 18.44 29.36 19.32L29.27 19.4C28.2 18.17 26.7 17.32 25 17.08V13H23V15.12C23 16.38 23.35 16.78 24.48 16.9V17.02C24.32 17.01 24.16 17 24 17C22.43 17 20.99 17.52 19.82 18.4L16.93 15.51L15.51 16.93L17.01 18.43C17.9 19.32 18.44 19.35 19.32 18.64L19.41 18.73C18.17 19.8 17.32 21.3 17.08 23H13V25H15.12C16.38 25 16.78 24.65 16.9 23.52H17.02C17.01 23.68 17 23.84 17 24C17 25.57 17.52 27.02 18.4 28.18L15.51 31.07L16.93 32.49L18.43 30.99C19.32 30.1 19.35 29.56 18.64 28.68L18.73 28.59C19.8 29.83 21.3 30.68 23 30.92V35H25V32.88C25 31.62 24.65 31.22 23.52 31.1V30.98C23.68 30.99 23.84 31 24 31C25.57 31 27.02 30.48 28.18 29.6L31.07 32.49L32.49 31.07L30.99 29.57C30.1 28.68 29.56 28.65 28.68 29.36L28.6 29.27C29.83 28.2 30.68 26.7 30.92 25ZM24 29C21.24 29 19 26.76 19 24C19 21.24 21.24 19 24 19C26.76 19 29 21.24 29 24C29 26.76 26.76 29 24 29Z" fill="#FEE600"/>
</svg>
