<svg width="48" height="48" viewBox="0 0 48 48" fill="none" xmlns="http://www.w3.org/2000/svg">
<rect width="48" height="48" rx="12" fill="#2B2D33"/>
<path fill-rule="evenodd" clip-rule="evenodd" d="M17.5 18C17.5 16.3431 18.8431 15 20.5 15C22.1569 15 23.5 16.3431 23.5 18C23.5 19.6569 22.1569 21 20.5 21C18.8431 21 17.5 19.6569 17.5 18ZM20.5 17C19.9477 17 19.5 17.4477 19.5 18C19.5 18.5523 19.9477 19 20.5 19C21.0523 19 21.5 18.5523 21.5 18C21.5 17.4477 21.0523 17 20.5 17Z" fill="#FEE600"/>
<path fill-rule="evenodd" clip-rule="evenodd" d="M24.5 18C24.5 16.3431 25.8431 15 27.5 15C29.1569 15 30.5 16.3431 30.5 18C30.5 19.6569 29.1569 21 27.5 21C25.8431 21 24.5 19.6569 24.5 18ZM27.5 17C26.9477 17 26.5 17.4477 26.5 18C26.5 18.5523 26.9477 19 27.5 19C28.0523 19 28.5 18.5523 28.5 18C28.5 17.4477 28.0523 17 27.5 17Z" fill="#FEE600"/>
<path fill-rule="evenodd" clip-rule="evenodd" d="M12.5 23C12.5 21.3431 13.8431 20 15.5 20C17.1569 20 18.5 21.3431 18.5 23C18.5 24.6569 17.1569 26 15.5 26C13.8431 26 12.5 24.6569 12.5 23ZM15.5 22C14.9477 22 14.5 22.4477 14.5 23C14.5 23.5523 14.9477 24 15.5 24C16.0523 24 16.5 23.5523 16.5 23C16.5 22.4477 16.0523 22 15.5 22Z" fill="#FEE600"/>
<path fill-rule="evenodd" clip-rule="evenodd" d="M23.9999 22C21.4439 22 19.6775 23.9087 18.7305 25.8028C18.2449 26.774 17.9294 27.8189 17.8051 28.7777C17.6851 29.7038 17.7259 30.688 18.1055 31.4472C18.4543 32.1449 18.9718 32.6294 19.6694 32.8114C20.2979 32.9753 20.9209 32.8483 21.3997 32.7115C21.6506 32.6398 21.9025 32.5526 22.1355 32.4703L22.2565 32.4275C22.4517 32.3584 22.6353 32.2934 22.8226 32.233C23.2753 32.0869 23.6571 32 23.9999 32C24.3428 32 24.7246 32.0869 25.1773 32.233C25.3646 32.2934 25.5482 32.3584 25.7433 32.4275L25.8644 32.4703C26.0974 32.5526 26.3493 32.6398 26.6002 32.7115C27.0789 32.8483 27.7019 32.9753 28.3305 32.8114C29.0281 32.6294 29.5455 32.1449 29.8944 31.4472C30.274 30.688 30.3148 29.7038 30.1948 28.7777C30.0705 27.8189 29.755 26.774 29.2694 25.8028C28.3223 23.9087 26.556 22 23.9999 22ZM19.8944 30.5528C19.774 30.312 19.6898 29.7962 19.7885 29.0348C19.883 28.3061 20.13 27.476 20.5194 26.6972C21.3223 25.0913 22.556 24 23.9999 24C25.4439 24 26.6775 25.0913 27.4805 26.6972C27.8699 27.476 28.1169 28.3061 28.2114 29.0348C28.3101 29.7962 28.2259 30.312 28.1055 30.5528C27.9601 30.8437 27.855 30.869 27.8284 30.8754L27.8256 30.8761C27.7354 30.8997 27.5459 30.9017 27.1497 30.7885C26.9631 30.7352 26.7619 30.6662 26.53 30.5844L26.4185 30.5449C26.2232 30.4757 26.0081 30.3995 25.7913 30.3295C25.2753 30.1631 24.6571 30 23.9999 30C23.3428 30 22.7246 30.1631 22.2086 30.3295C21.9917 30.3995 21.7767 30.4757 21.5813 30.5449L21.4698 30.5844C21.238 30.6662 21.0368 30.7352 20.8502 30.7885C20.4539 30.9017 20.2644 30.8997 20.1742 30.8761L20.1715 30.8754C20.1448 30.869 20.0398 30.8437 19.8944 30.5528Z" fill="#FEE600"/>
<path fill-rule="evenodd" clip-rule="evenodd" d="M32.5 20C30.8431 20 29.5 21.3431 29.5 23C29.5 24.6569 30.8431 26 32.5 26C34.1569 26 35.5 24.6569 35.5 23C35.5 21.3431 34.1569 20 32.5 20ZM31.5 23C31.5 22.4477 31.9477 22 32.5 22C33.0523 22 33.5 22.4477 33.5 23C33.5 23.5523 33.0523 24 32.5 24C31.9477 24 31.5 23.5523 31.5 23Z" fill="#FEE600"/>
</svg>
