<svg width="48" height="48" viewBox="0 0 48 48" fill="none" xmlns="http://www.w3.org/2000/svg">
<rect width="48" height="48" rx="12" fill="#FEE600"/>
<path d="M34.59 14.9C33.4 13.71 31.44 13.7 30.28 14.87L27.28 17.9L18.12 15.09C17.74 14.97 17.39 15.06 17.12 15.34L16.17 16.32C15.72 16.79 15.77 17.37 16.23 17.76L21.42 22.34C21.85 22.72 22.29 22.66 22.74 22.37L22.82 22.44L19.52 25.84L16.06 25.29C15.7 25.24 15.45 25.33 15.21 25.58L13.29 27.57C12.82 28.06 12.92 28.85 13.55 29.15L19.35 31.85C19.72 32.02 20.13 31.98 20.45 31.71L25.57 27.36L31.71 33.63C31.9 33.82 32.16 33.93 32.43 33.93C32.69 33.93 32.96 33.81 33.15 33.62L34.09 32.66C34.34 32.4 34.43 32.03 34.34 31.68L31.61 22.27L34.58 19.18C35.75 18.01 35.76 16.07 34.59 14.9ZM18.83 17.4L24.23 19.05C25.02 19.29 25.66 19.13 26.38 18.67L26.46 18.73L23.64 21.62L18.83 17.4ZM29.77 21.29C29.52 21.55 29.42 21.92 29.53 22.27L32.11 31.18L26.34 25.29C25.97 24.92 25.38 24.89 24.98 25.23L19.66 29.77L15.66 27.99L16.35 27.28L19.61 27.9C20.07 27.99 20.31 27.9 20.57 27.63L28.29 19.73L31.69 16.29C32.11 15.87 32.75 15.88 33.18 16.3C33.59 16.72 33.59 17.35 33.18 17.77L29.77 21.29Z" fill="#2B2D33"/>
</svg>
