<svg width="48" height="48" viewBox="0 0 48 48" fill="none" xmlns="http://www.w3.org/2000/svg">
<rect width="48" height="48" rx="12" fill="#FEE600"/>
<path d="M30.19 23.02L29.18 17H31.5C32.05 17 32.5 17.45 32.5 18C32.5 18.55 32.05 19 31.5 19H31V21H31.5C33.16 21 34.5 19.66 34.5 18C34.5 16.34 33.16 15 31.5 15H28C27.39 15 26.92 15.54 27.01 16.16L27.49 19H19.62L18.9 17.55C18.73 17.21 18.38 17 18 17H14V19H17.44L18.68 21.88C18.99 22.59 19.28 22.89 19.96 23.27L19.9 23.38C19.31 23.14 18.67 23 18 23C15.24 23 13 25.24 13 28C13 30.76 15.24 33 18 33C20.76 33 23 30.76 23 28C23 27.49 22.9 27 22.76 26.54L25.16 25.23C25.73 24.92 26.14 24.59 26.66 24.12L26.75 24.23C25.69 25.15 25 26.49 25 28C25 30.76 27.24 33 30 33C32.76 33 35 30.76 35 28C35 25.3 32.86 23.12 30.19 23.02ZM18 31C16.34 31 15 29.66 15 28C15 26.34 16.34 25 18 25C18.77 25 19.47 25.29 20.01 25.77L17.52 27.12L18.48 28.88L20.96 27.52C20.99 27.68 21 27.84 21 28C21 29.66 19.66 31 18 31ZM22.03 24.67L20.5 21H27.82L27.9 21.46L22.03 24.67ZM30 31C28.34 31 27 29.66 27 28C27 26.87 27.63 25.89 28.55 25.37L29.02 28.16L30.99 27.84L30.52 25.05C31.93 25.29 33 26.52 33 28C33 29.66 31.66 31 30 31Z" fill="#2B2D33"/>
</svg>
