<svg width="48" height="48" viewBox="0 0 48 48" fill="none" xmlns="http://www.w3.org/2000/svg">
<rect width="48" height="48" rx="12" fill="#FEE600"/>
<path d="M33.95 15.6C33.9 15.41 33.81 15.15 33.62 14.9C33.2 14.35 32.5 14 31.5 14C30.51 14 29.81 14.35 29.39 14.9C29.2 15.15 29.11 15.41 29.06 15.6C29.03 15.7 29.02 15.78 29.01 15.85C29.01 15.88 29.01 15.91 29.01 15.94C29 15.95 29 15.96 29 15.97V18C29 18.55 29.45 19 30 19H30.5V22C30.5 22.55 30.95 23 31.5 23H34V21H32.5V19H33C33.56 19 34 18.55 34 18V15.97C34 15.96 34 15.95 34 15.94C34 15.91 34 15.88 34 15.85C33.99 15.78 33.97 15.7 33.95 15.6ZM32 17H31V16.09C31.05 16.06 31.19 16 31.5 16C31.82 16 31.95 16.06 32 16.09V17Z" fill="#2B2D33"/>
<path d="M32.49 24.84L29.69 24.14L27.17 19.11C26.83 18.43 26.14 18 25.38 18H18.66C17.86 18 17.14 18.48 16.82 19.21L14.16 25.42C14.06 25.67 14 25.93 14 26.21V30C14 30.87 14.45 31.52 15.13 31.82C15.49 33.07 16.64 34 18 34C19.3 34 20.4 33.16 20.81 32H27.18C27.6 33.16 28.7 34 29.99 34C31.35 34 32.5 33.07 32.86 31.82C33.55 31.52 34 30.87 34 30V26.78C34 25.76 33.47 25.08 32.49 24.84ZM24 20H25.38L27.38 24H24V20ZM18.66 20H22V24H16.95L18.66 20ZM18 32C17.45 32 17 31.55 17 31C17 30.45 17.45 30 18 30C18.55 30 19 30.45 19 31C19 31.55 18.55 32 18 32ZM27.19 30H20.81C20.4 28.84 19.3 28 18 28C16.89 28 15.93 28.62 15.41 29.51L15.3 29.45C15.58 28.96 16 28.38 16 27.63V26H28.55C29.01 26 29.12 26.02 29.38 26.09L32 26.78V27.63C32 28.38 32.42 28.96 32.7 29.45L32.59 29.51C32.07 28.62 31.11 28 30 28C28.7 28 27.6 28.84 27.19 30ZM30 32C29.45 32 29 31.55 29 31C29 30.45 29.45 30 30 30C30.55 30 31 30.45 31 31C31 31.55 30.55 32 30 32Z" fill="#2B2D33"/>
</svg>
