<svg width="48" height="48" viewBox="0 0 48 48" fill="none" xmlns="http://www.w3.org/2000/svg">
<rect width="48" height="48" rx="12" fill="#FEE600"/>
<path d="M34.45 17.11V17.1H34.44L34.41 17.09C34.39 17.08 34.37 17.07 34.33 17.05C34.27 17.02 34.17 16.98 34.05 16.92C33.81 16.82 33.47 16.69 33.07 16.55C32.87 16.49 32.65 16.42 32.42 16.35C32.41 16.29 32.39 16.23 32.38 16.17C32.17 15.28 31.68 14.49 30.99 13.91C30.3 13.33 29.43 13.01 28.53 13C27.64 12.99 26.77 13.3 26.06 13.87C25.36 14.44 24.87 15.22 24.64 16.1C24.56 16.4 24.52 16.7 24.51 17H18C16.93 17 16.27 17.8 15.89 18.46C15.49 19.16 15.22 20.05 15.02 20.9C14.71 22.25 14.56 23.68 14.51 24.5C14.36 24.63 14.18 24.8 14 25C13.57 25.48 13 26.3 13 27.33V34C13 34.55 13.44 35 14 35H18C18.55 35 19 34.55 19 34V33H26V34C26 34.55 26.45 35 27 35H31C31.55 35 32 34.55 32 34V30.11L32.45 29.88C32.78 29.72 33 29.38 33 29V24.62L34.45 23.89C34.79 23.72 35 23.38 35 23V18C35 17.62 34.79 17.27 34.45 17.11ZM26.58 16.6C26.7 16.12 26.97 15.71 27.32 15.43C27.67 15.14 28.09 15 28.52 15C28.94 15 29.36 15.16 29.71 15.45C29.89 15.6 30.05 15.79 30.18 16C30.12 16 30.06 16 30 16C28.85 16 27.73 16.28 26.93 16.55C26.8 16.6 26.67 16.64 26.56 16.68C26.56 16.66 26.57 16.63 26.58 16.6ZM16.97 21.35C17.15 20.57 17.37 19.9 17.63 19.45C17.76 19.22 17.87 19.1 17.94 19.04C17.98 19.01 17.99 19 18 19H25V23C25 23.38 25.22 23.72 25.55 23.89L25.77 24H16.56C16.63 23.27 16.75 22.29 16.97 21.35ZM30.95 30.75C30.37 31.11 30 31.59 30 32.29V33H28V31H17V33H15V28.29H15.12C15.14 29.1 15.5 29.55 15.94 29.7L17.1 30.1C17.62 30.28 18.19 29.99 18.36 29.47C18.53 28.94 18.26 28.38 17.73 28.2L15 27.28C15.02 26.99 15.19 26.66 15.49 26.34C15.61 26.2 15.73 26.09 15.84 26H25.69C26.35 26 26.74 25.64 26.88 25H27V29C27 29.38 27.22 29.72 27.55 29.89L29.55 30.89C29.69 30.96 29.85 31 30 31C30.15 31 30.31 30.96 30.45 30.89L30.95 30.64V30.75ZM33 22.38L31.55 23.11C31.22 23.27 31 23.62 31 24V28.38L30 28.88L29 28.38V24C29 23.62 28.79 23.27 28.45 23.11L27 22.38V18.65C27.16 18.59 27.35 18.52 27.57 18.45C28.27 18.22 29.15 18 30 18C30.12 18 30.24 18 30.36 18.01C30.35 18.04 30.34 18.06 30.33 18.09C30.14 18.57 29.84 18.93 29.49 19.14C29.01 19.43 28.86 20.04 29.14 20.51C29.43 20.99 30.04 21.14 30.51 20.86C31.31 20.38 31.86 19.64 32.19 18.83C32.24 18.69 32.29 18.55 32.33 18.41C32.37 18.43 32.4 18.44 32.43 18.45C32.65 18.52 32.84 18.59 33 18.65V22.38Z" fill="#2B2D33"/>
</svg>
