<svg width="48" height="48" viewBox="0 0 48 48" fill="none" xmlns="http://www.w3.org/2000/svg">
<rect width="48" height="48" rx="12" fill="#FEE600"/>
<path d="M17 18C16.45 18 16 18.45 16 19V29C16 29.55 16.45 30 17 30H31C31.55 30 32 29.55 32 29V19C32 18.45 31.55 18 31 18H17ZM14 19C14 17.34 15.34 16 17 16H31C32.66 16 34 17.34 34 19V29C34 30.66 32.66 32 31 32H17C15.34 32 14 30.66 14 29V19ZM29 27H26V25H29V27ZM26 23H30V21H26V23ZM21 22C20.45 22 20 22.45 20 23C20 23.55 20.45 24 21 24C21.55 24 22 23.55 22 23C22 22.45 21.55 22 21 22ZM18 22.89C18 21.29 19.34 20 21 20C22.66 20 24 21.29 24 22.89C24 24.08 23.37 25.08 22.08 25.29V25.41C24.03 25.48 25 26.65 25 28H23C23 27.8 22.73 27 21 27C19.27 27 19 27.8 19 28H17C17 26.65 17.97 25.48 19.92 25.41V25.29C18.63 25.08 18 24.08 18 22.89Z" fill="#2B2D33"/>
</svg>
