<svg width="48" height="48" viewBox="0 0 48 48" fill="none" xmlns="http://www.w3.org/2000/svg">
<rect width="48" height="48" rx="12" fill="#FEE600"/>
<path d="M32.02 25.36L32.07 25.25C32.7 25.23 33.09 24.93 33.28 24.36L33.95 22.32C33.98 22.21 34 22.11 34 22C34 19.2 31.27 17 27 17H24V19H26V20.38L24.76 21H21.42L19.71 19.29C19.58 19.16 19.42 19.07 19.24 19.03L15.24 18.03C14.94 17.96 14.63 18.02 14.39 18.21C14.14 18.4 14 18.69 14 19V22C14 22.33 14.17 22.65 14.45 22.83L17 24.54V25.04C15.3 25.28 14 26.74 14 28.5C14 30.43 15.57 32 17.5 32C19.43 32 21 30.43 21 28.5C21 28.27 20.97 28.04 20.92 27.81L21.11 27.86L21.91 29.45C22.08 29.79 22.42 30 22.8 30H27.35C27.91 31.18 29.1 32 30.5 32C32.44 32 34 30.44 34 28.5C34 27.11 33.19 25.92 32.02 25.36ZM17.5 30C16.67 30 16 29.33 16 28.5C16 27.67 16.67 27 17.5 27C18.33 27 19 27.67 19 28.5C19 29.33 18.33 30 17.5 30ZM23.42 28L22.7 26.55C22.56 26.29 22.33 26.1 22.04 26.03L19 25.27V24C19 23.67 18.83 23.35 18.56 23.17L16 21.46V20.28L18.49 20.9L20.29 22.71C20.48 22.89 20.74 23 21 23H25C25.16 23 25.31 22.96 25.45 22.89L27.45 21.89C27.79 21.73 28 21.38 28 21V20.39C28 19.74 27.62 19.22 26.93 19.13V19.01C29.46 18.99 31.08 19.8 31.73 21H30V23H31.61L31.28 24H30C29.66 24 29.34 24.18 29.15 24.47L26.95 28H23.42ZM30.5 30C29.65 30 28.99 29.31 29.01 28.47L29.8 27.2C30.01 27.08 30.25 27 30.5 27C31.33 27 32 27.67 32 28.5C32 29.33 31.33 30 30.5 30Z" fill="#2B2D33"/>
</svg>
