<svg width="48" height="48" viewBox="0 0 48 48" fill="none" xmlns="http://www.w3.org/2000/svg">
<rect width="48" height="48" rx="12" fill="#FEE600"/>
<path d="M17.22 22L17.82 19H26.35L28.86 22H17.22ZM16.86 27.46L15.48 24H32.52L31.14 27.46C31.13 27.45 31.12 27.44 31.11 27.44L29.79 26.78C28.66 26.22 27.34 26.22 26.21 26.78L24.9 27.44C24.33 27.72 23.67 27.72 23.11 27.44L21.79 26.78C20.66 26.22 19.34 26.22 18.21 26.78L16.9 27.44C16.88 27.44 16.87 27.45 16.86 27.46ZM16.29 33.27C17.43 33.84 18.81 33.61 19.71 32.71C20 32.42 20.45 32.35 20.82 32.53L22.21 33.23C23.34 33.79 24.66 33.79 25.79 33.23L27.18 32.53C27.55 32.35 28 32.42 28.29 32.71C29.2 33.61 30.57 33.84 31.71 33.27L32.45 32.9C32.94 32.65 33.14 32.05 32.9 31.56C32.65 31.06 32.05 30.86 31.55 31.11L30.82 31.48C30.45 31.66 30 31.59 29.71 31.3C28.81 30.4 27.43 30.17 26.29 30.74L24.9 31.44C24.33 31.72 23.67 31.72 23.11 31.44L21.71 30.74C20.57 30.17 19.2 30.4 18.29 31.3C18 31.59 17.55 31.66 17.18 31.48L16.45 31.11C15.95 30.86 15.35 31.06 15.11 31.56C14.86 32.05 15.06 32.65 15.55 32.9L16.29 33.27ZM14.21 29.23C15.34 29.79 16.66 29.79 17.79 29.23L19.11 28.57C19.67 28.29 20.33 28.29 20.9 28.57L22.21 29.23C23.34 29.79 24.66 29.79 25.79 29.23L27.11 28.57C27.67 28.29 28.33 28.29 28.9 28.57L30.21 29.23C31.34 29.79 32.66 29.79 33.79 29.23L34.45 28.9C34.94 28.65 35.14 28.05 34.9 27.56C34.65 27.06 34.05 26.86 33.55 27.11L32.57 27.6L32.52 27.54C33.18 27.12 33.59 26.74 33.89 25.98L34.93 23.38C35.05 23.07 35.02 22.72 34.83 22.44C34.64 22.17 34.33 22 34 22H31.47L27.58 17.36C27.39 17.14 27.11 17 26.81 17H24V15H22V17H20V15H18V17H17C16.52 17 16.11 17.34 16.02 17.81L15.18 22H14C13.67 22 13.36 22.17 13.17 22.44C12.99 22.72 12.95 23.07 13.07 23.38L14.12 25.98C14.42 26.74 14.83 27.12 15.49 27.54L15.44 27.6L14.45 27.11C13.95 26.86 13.35 27.06 13.11 27.56C12.86 28.05 13.06 28.65 13.55 28.9L14.21 29.23Z" fill="#2B2D33"/>
</svg>
