<svg width="48" height="48" viewBox="0 0 48 48" fill="none" xmlns="http://www.w3.org/2000/svg">
<rect width="48" height="48" rx="12" fill="#FEE600"/>
<path d="M27 24H25V26H27V24Z" fill="#2B2D33"/>
<path d="M21 22H19V24H21V22Z" fill="#2B2D33"/>
<path d="M23 24H21V26H23V24Z" fill="#2B2D33"/>
<path d="M25 22H23V24H25V22Z" fill="#2B2D33"/>
<path d="M33.36 28L32.12 19.7C31.97 18.72 31.13 18 30.14 18H17.86C16.87 18 16.04 18.72 15.89 19.7L14.64 28H13V30H35V28H33.36ZM32.41 28H15.59V27.88C16.47 27.71 16.75 27.38 16.89 26.46L17.86 20H30.14L31.11 26.46C31.25 27.38 31.53 27.71 32.41 27.88V28Z" fill="#2B2D33"/>
<path d="M29 22H27V24H29V22Z" fill="#2B2D33"/>
</svg>
