<svg width="48" height="48" viewBox="0 0 48 48" fill="none" xmlns="http://www.w3.org/2000/svg">
<rect width="48" height="48" rx="12" fill="#FEE600"/>
<path d="M27.18 17H24L21.29 14.29C21.11 14.11 20.85 14 20.59 14H18.73C18.46 14 18.32 14.32 18.51 14.51L19.98 15.98C20.59 16.59 21.23 16.78 22.18 16.88V17H19C17.45 17 16 18.45 16 20V33C16 33.55 16.45 34 17 34H21C21.55 34 22 33.55 22 33H26C26 33.55 26.45 34 27 34H31C31.55 34 32 33.55 32 33V20C32 18.44 30.55 17 29 17L26.29 14.29C26.11 14.11 25.85 14 25.59 14H23.73C23.46 14 23.32 14.32 23.51 14.51L24.98 15.98C25.59 16.59 26.23 16.78 27.18 16.88V17ZM24 25C21.93 25 19.54 24.64 18 24.2V20C18 19.55 18.55 19 19 19H29C29.45 19 30 19.56 30 20V24.2C28.49 24.63 26.09 25 24 25ZM18 32V29.62L18.55 29.89C19.05 30.14 19.65 29.94 19.9 29.45C20.14 28.95 19.94 28.35 19.45 28.11L18 27.38V26.25C19.76 26.68 21.85 27 24 27C26.13 27 28.2 26.69 30 26.25V27.38L28.55 28.11C28.06 28.35 27.86 28.95 28.11 29.45C28.35 29.94 28.95 30.14 29.45 29.89L30 29.62V32H28V31H20V32H18Z" fill="#2B2D33"/>
</svg>
