<svg width="48" height="48" viewBox="0 0 48 48" fill="none" xmlns="http://www.w3.org/2000/svg">
<rect width="48" height="48" rx="12" fill="#2B2D33"/>
<path d="M19 30H31C31.55 30 32 29.55 32 29V15C32 14.45 31.55 14 31 14H17C16.45 14 16 14.45 16 15V31C16 32.66 17.34 34 19 34H32V32H19C18.45 32 18 31.55 18 31C18 30.45 18.45 30 19 30ZM16.91 28.85L16.82 28.76C17.77 27.86 18 27.5 18 26.26V16H30V28H19C18.18 28 17.45 28.33 16.91 28.85Z" fill="#FEE600"/>
<path d="M28 18H20V20H28V18Z" fill="#FEE600"/>
<path d="M28 22H20V24H28V22Z" fill="#FEE600"/>
</svg>
