<svg width="48" height="48" viewBox="0 0 48 48" fill="none" xmlns="http://www.w3.org/2000/svg">
<rect width="48" height="48" rx="12" fill="#2B2D33"/>
<path d="M31.3097 21.17C31.2497 20.98 31.2497 20.78 31.3097 20.59L31.6697 19.43C32.2097 17.66 31.0297 15.82 29.1997 15.57L28.1897 15.44C27.9397 15.4 27.7197 15.28 27.5597 15.09L26.6997 14.07C25.4997 12.64 23.2997 12.64 22.0997 14.07L21.2497 15.09C21.0897 15.28 20.8597 15.4 20.6097 15.44L19.5997 15.57C17.7697 15.82 16.5897 17.66 17.1397 19.43L17.4897 20.59C17.5497 20.78 17.5497 20.98 17.4897 21.17L17.1397 22.33C16.6097 24.03 17.6897 25.78 19.3997 26.14V33.88C19.3997 34.23 19.5797 34.55 19.8697 34.73C20.1697 34.91 20.5397 34.93 20.8497 34.77L24.3997 33L27.9497 34.77C28.2597 34.93 28.6297 34.91 28.9297 34.73C29.2197 34.55 29.3997 34.23 29.3997 33.88V26.14C31.1097 25.79 32.1897 24.03 31.6697 22.33L31.3097 21.17ZM27.3997 29.28V32.26L24.8497 30.99C24.5697 30.84 24.2397 30.84 23.9497 30.99L21.3997 32.26V29.28C21.3997 27.38 20.9497 26.74 19.9697 26.36V26.24L20.6097 26.32C20.8597 26.36 21.0897 26.48 21.2497 26.67L22.0997 27.69C23.2997 29.12 25.4997 29.12 26.6997 27.69L27.5597 26.67C27.7197 26.48 27.9397 26.36 28.1897 26.32L28.8297 26.24V26.36C27.8497 26.74 27.3997 27.38 27.3997 29.28ZM29.3997 21.76L29.7497 22.92C29.9397 23.51 29.5397 24.12 28.9297 24.2L27.9197 24.34C27.1797 24.44 26.4997 24.81 26.0197 25.39L25.1697 26.41C24.7697 26.89 24.0397 26.89 23.6397 26.41L22.7797 25.39C22.2997 24.81 21.6197 24.44 20.8797 24.34L19.8697 24.2C19.2597 24.12 18.8697 23.51 19.0497 22.92L19.3997 21.76C19.5797 21.19 19.5797 20.57 19.3997 20L19.0497 18.84C18.8697 18.25 19.2597 17.64 19.8697 17.56L20.8797 17.42C21.6197 17.32 22.2997 16.95 22.7797 16.37L23.6397 15.35C24.0397 14.87 24.7697 14.87 25.1697 15.35L26.0197 16.37C26.4997 16.95 27.1797 17.32 27.9197 17.42L28.9297 17.56C29.5397 17.64 29.9397 18.25 29.7497 18.84L29.3997 20C29.2197 20.57 29.2197 21.19 29.3997 21.76Z" fill="#FEE600"/>
</svg>
