<svg width="48" height="48" viewBox="0 0 48 48" fill="none" xmlns="http://www.w3.org/2000/svg">
<rect width="48" height="48" rx="12" fill="#2B2D33"/>
<path d="M33.4099 20.4001C33.4099 17.8301 32.5199 15.3401 30.8699 13.3801C30.4399 12.8701 29.9199 12.8801 29.4599 13.3401L28.7799 14.0201C30.4699 15.7101 31.4099 18.0101 31.4099 20.4001C31.4099 25.3501 27.3599 29.4001 22.4099 29.4001C20.6499 29.4001 18.9399 28.8901 17.4799 27.9401C18.1799 27.3501 18.2199 26.5701 17.8599 25.8901L17.9499 25.8101C19.1599 26.8101 20.7099 27.4001 22.3999 27.4001C26.2899 27.3901 29.3999 24.2801 29.3999 20.4001C29.3999 16.5301 26.2799 13.4001 22.3999 13.4001C18.5299 13.4001 15.4099 16.5401 15.3999 20.4001C15.3899 22.3401 16.1799 24.0901 17.4499 25.3601L15.3499 27.4601C14.8899 27.9201 14.8799 28.4401 15.3799 28.8701C17.3199 30.5401 19.8299 31.4101 22.3999 31.4101L22.4099 32.4001L19.4099 32.4101V34.4001H27.4099L27.3999 32.4001H24.3999V31.2301C29.6399 30.2401 33.4099 25.7201 33.4099 20.4001ZM17.4099 20.4001C17.4199 17.6401 19.6399 15.4001 22.4099 15.4001C25.1699 15.4001 27.3999 17.6401 27.4099 20.4001C27.4199 23.1701 25.1699 25.4001 22.4099 25.4001C19.6399 25.4001 17.3999 23.1701 17.4099 20.4001Z" fill="#FEE600"/>
</svg>
