<svg width="24" height="24" viewBox="0 0 24 24" fill="none" xmlns="http://www.w3.org/2000/svg">
<path d="M14.9885 16.71H16.9885V12.71H14.9885V16.71ZM10.9885 16.71H12.9885V12.71H10.9885V16.71ZM5.80847 18.71L4.20847 10.71H19.7685L18.1685 18.71H5.80847ZM6.98847 16.71H8.98847V12.71H6.98847V16.71ZM4.98847 20.71H18.9885C19.5285 20.71 19.8685 20.42 19.9685 19.91L21.9285 10.11C22.0385 9.58 21.9385 9.24 21.5485 8.85L14.6985 2L13.2785 3.42L17.6085 7.74C18.3285 8.46 19.0085 8.59 20.0285 8.59V8.71H3.95847V8.59C4.97847 8.59 5.65847 8.46 6.37847 7.74L10.6985 3.42L9.27847 2L2.40847 8.82C1.99847 9.23 1.93847 9.57 2.04847 10.11L4.00847 19.91C4.10847 20.42 4.45847 20.71 4.98847 20.71Z" fill="white"/>
</svg>
