<svg width="24" height="24" viewBox="0 0 24 24" fill="none" xmlns="http://www.w3.org/2000/svg">
<path d="M21 11H17V7H19C19.55 7 20 6.55 20 6V2C20 1.45 19.55 1 19 1H14C13.74 1 13.47 1.1 13.29 1.29L11 3.59L8.71 1.29C8.53 1.1 8.27 1 8 1H3C2.45 1 2 1.45 2 2V6C2 6.55 2.45 7 3 7H5V15C5 15.55 5.45 16 6 16H10V22C10 22.55 10.45 23 11 23H21C21.55 23 22 22.55 22 22V12C22 11.45 21.55 11 21 11ZM10 12V15.33H9.88C9.61 14.49 8.97 14 8 14H7V5H4V3H7.59L10.29 5.71C10.68 6.1 11.32 6.1 11.71 5.71L14.42 3H18V5H15V9C15 9.97 15.49 10.61 16.33 10.88V11H11C10.45 11 10 11.45 10 12ZM20 21H17V15H15V21H12V13H20V21Z" fill="white"/>
</svg>
