<svg width="24" height="24" viewBox="0 0 24 24" fill="none" xmlns="http://www.w3.org/2000/svg">
<path d="M19.5 21C20.3284 21 21 20.3284 21 19.5C21 18.6716 20.3284 18 19.5 18C18.6716 18 18 18.6716 18 19.5C18 20.3284 18.6716 21 19.5 21Z" fill="white"/>
<path d="M19.6054 13.0063L13.0082 19.6035L14.4082 21.0036L21.0055 14.4063L19.6054 13.0063Z" fill="white"/>
<path d="M19 6H17.86C16.91 6 16.34 6.49 16.12 7.33H16V5C16 2.76 14.2 1 12 1C9.78 1 8 2.79 8 5V6H5C3.9 6 3 6.9 3 8V19C3 20.1 3.9 21 5 21H11V19H5V8H8V10H10V8H14V10H16V8H19V11.01H21V8C21 6.9 20.11 6 19 6ZM10.12 7.33H10V5C10 3.86 10.9 3 12 3C13.1 3 14 3.86 14 5V6H11.86C10.91 6 10.34 6.49 10.12 7.33Z" fill="white"/>
<path d="M14.5 16.01C15.3284 16.01 16 15.3384 16 14.51C16 13.6816 15.3284 13.01 14.5 13.01C13.6716 13.01 13 13.6816 13 14.51C13 15.3384 13.6716 16.01 14.5 16.01Z" fill="white"/>
</svg>
