<svg width="24" height="24" viewBox="0 0 24 24" fill="none" xmlns="http://www.w3.org/2000/svg">
<path d="M20.4001 2.76C18.0401 0.409998 14.2501 0.409998 11.9001 2.76L1.29006 13.37C0.900059 13.76 0.900059 14.39 1.29006 14.78L8.36006 21.85C8.77006 22.24 9.39006 22.24 9.78006 21.85L16.8501 14.78C17.1701 14.46 17.2301 13.98 17.0301 13.59L14.9501 9.84C14.5901 9.2 14.3501 8.78 14.2301 8.45C14.1201 8.21 14.0801 8.06 14.1101 7.91C14.1101 7.82 14.1601 7.69 14.3701 7.43C14.5801 7.15 14.9201 6.81 15.4401 6.29C15.8201 5.91 16.4701 5.9 16.8601 6.29C17.2501 6.68 17.2401 7.32 16.8601 7.7L16.7901 7.77C15.8201 8.74 15.8201 10.32 16.7901 11.3C17.7801 12.27 19.3601 12.27 20.3301 11.3L20.3901 11.24C22.7301 8.9 22.7401 5.1 20.4001 2.76ZM18.9701 9.83L18.9101 9.89C18.7201 10.08 18.4001 10.09 18.2101 9.88C18.0101 9.69 18.0201 9.37 18.2101 9.19L18.2601 9.12C19.4401 7.95 19.4401 6.04 18.2601 4.88C17.1001 3.71 15.1901 3.71 14.0201 4.88L13.9901 4.92C13.5101 5.39 13.0901 5.81 12.8001 6.19C12.4701 6.61 12.2001 7.05 12.1301 7.61C12.0101 7.97 12.1701 8.72 12.3701 9.22C12.5601 9.67 12.8501 10.18 13.1701 10.77L14.9001 13.9L11.9001 16.9L11.4301 17.38L9.08006 19.73L3.42006 14.07L13.3201 4.17C14.8901 2.6 17.4201 2.61 18.9801 4.17C20.5301 5.74 20.5301 8.27 18.9701 9.83Z" fill="white"/>
<path d="M6.24006 11.25L5.77006 11.72L5.85006 11.8C5.42006 12.55 5.47006 13.3 6.24006 14.07L9.07006 16.9C9.84006 17.67 10.5901 17.73 11.3401 17.29L11.4201 17.38L11.9001 16.9L9.07006 14.07L6.24006 11.25Z" fill="white"/>
</svg>
