<svg width="24" height="24" viewBox="0 0 24 24" fill="none" xmlns="http://www.w3.org/2000/svg">
<path d="M2.5 13V13.12C3.43 13.12 4 13.61 4 14.66V15H6V13H2.5ZM10 9H18V7H10V9ZM22 5H10V3H22V5ZM12.74 17.85L12.15 13.15L16.85 13.74L16.29 14.29C15.9 14.68 15.9 15.32 16.29 15.71L18.59 18L17 19.59L14.71 17.29C14.32 16.9 13.69 16.9 13.29 17.29L12.74 17.85ZM11.13 11.01C10.42 10.92 9.93 11.47 10.01 12.12L11.01 20.12C11.12 20.99 12.12 21.3 12.71 20.71L14 19.41L16.29 21.71C16.69 22.1 17.32 22.1 17.71 21.71L20.71 18.71C21.1 18.32 21.1 17.68 20.71 17.29L18.42 15L19.71 13.71C20.32 13.1 19.97 12.11 19.13 12.01L11.13 11.01ZM2 12C2 11.45 2.45 11 3 11H7C7.55 11 8 11.45 8 12V16C8 16.55 7.55 17 7 17H3C2.45 17 2 16.55 2 16V12ZM2.5 5V5.12C3.43 5.12 4 5.61 4 6.66V7H6V5H2.5ZM2 4C2 3.45 2.45 3 3 3H7C7.55 3 8 3.45 8 4V8C8 8.55 7.55 9 7 9H3C2.45 9 2 8.55 2 8V4Z" fill="white"/>
</svg>
