<svg width="48" height="48" viewBox="0 0 48 48" fill="none" xmlns="http://www.w3.org/2000/svg">
<rect width="48" height="48" rx="12" fill="#2B2D33"/>
<g clip-path="url(#clip0_386_14873)">
<path d="M34.55 18.99L28.89 13.33C28.43 12.87 27.89 12.89 27.48 13.33C25.62 15.33 24.75 17.21 26.65 18.44L26.57 18.56C24.33 17.46 21.58 17.82 19.7 19.7C17.82 21.58 17.46 24.32 18.57 26.56L18.44 26.64C17.22 24.76 15.36 25.59 13.33 27.47C12.89 27.88 12.87 28.42 13.33 28.88L18.99 34.54C19.47 35.02 19.99 34.98 20.4 34.54C22.26 32.54 23.13 30.67 21.23 29.44L21.29 29.3C23.54 30.42 26.29 30.06 28.18 28.18C30.07 26.29 30.43 23.54 29.3 21.29L29.43 21.23C30.65 23.11 32.51 22.28 34.54 20.4C34.99 20 35.03 19.47 34.55 18.99ZM19.65 32.38L15.51 28.24C17.12 26.91 18.69 27.18 19.7 28.19C20.71 29.2 20.98 30.77 19.65 32.38ZM26.77 26.77C25.19 28.35 22.69 28.35 21.11 26.77C19.53 25.19 19.53 22.69 21.11 21.11C22.69 19.53 25.19 19.53 26.77 21.11C28.35 22.69 28.35 25.19 26.77 26.77ZM28.19 19.7C27.18 18.69 26.91 17.12 28.24 15.51L32.38 19.65C30.77 20.98 29.2 20.71 28.19 19.7Z" fill="white"/>
</g>
<defs>
<clipPath id="clip0_386_14873">
<rect width="21.89" height="21.89" fill="white" transform="translate(13 13)"/>
</clipPath>
</defs>
</svg>
