<svg width="48" height="48" viewBox="0 0 48 48" fill="none" xmlns="http://www.w3.org/2000/svg">
<rect width="48" height="48" rx="12" fill="#2B2D33"/>
<path d="M26 19.37V17C26 16.45 26.44 16 27 16H30V17C30 17.55 29.55 18 29 18H27.43C26.61 18 26.12 18.44 26.12 19.37H26ZM18 22H23V19C23 17.34 21.65 16 20 16H15V19C15 20.66 16.34 22 18 22ZM20.88 21.37C20.88 20.44 20.39 20 19.57 20H18C17.44 20 17 19.55 17 19V18H20C20.55 18 21 18.45 21 19V21.37H20.88ZM20.88 32L20.13 26H29.86L29.11 32H20.88ZM20 34H30C30.52 34 30.93 33.64 30.99 33.12L31.99 25.12C32.07 24.49 31.61 24 31 24H26V20H29C30.65 20 32 18.66 32 17V14H27C25.34 14 24 15.34 24 17V24H19C18.36 24 17.92 24.5 18 25.12L19 33.12C19.06 33.64 19.47 34 20 34Z" fill="white"/>
</svg>
