<svg width="48" height="48" viewBox="0 0 48 48" fill="none" xmlns="http://www.w3.org/2000/svg">
<rect width="48" height="48" rx="12" fill="#2B2D33"/>
<path d="M33.7 28.88C33.44 29.2 33.1 29.49 32.73 29.77L31.02 22.96L31.27 21.5L32.05 21.89C32.44 22.09 32.9 22.01 33.21 21.71L34.21 20.71C34.49 20.42 34.58 20.01 34.43 19.63C33.9 18.24 33.04 16.46 32.21 15.21C31.74 14.5 31.21 14 30.5 14C26.99 14 24.86 16.32 24.54 20H20.33C19.85 18.76 18.78 18 17.5 18C15.85 18 14.5 19.35 14.5 21V23H16.5V21C16.5 20.46 16.96 20 17.5 20C18 20 18.45 20.37 18.5 20.9L16.76 27.82C16.47 28.98 16.71 29.9 17.64 30.45L17.61 30.56C16.64 30.09 15.83 29.53 15.29 28.88L14 30.42C16.05 32.65 19.98 34 24.5 34C29.01 34 32.95 32.65 35 30.43L33.7 28.88ZM20.28 22H25.5C26.11 22 26.5 21.58 26.5 21C26.5 18.12 27.61 16.12 30.3 16C31.1 17.08 31.68 18.26 32.33 19.75L32.3 19.78L31.01 19.14C30.35 18.81 29.63 19.16 29.48 20.04L29.14 22.04C29.02 22.79 29.01 23.13 29.18 23.8L30.55 29.28C30.76 30.11 31.37 30.36 32.27 29.94L32.32 30.06C31.57 30.54 30.67 30.94 29.64 31.26C28.68 26.72 26.93 25 24.5 25C22.31 25 20.66 26.39 19.74 29.72C19.47 30.68 19.74 31.27 20.82 31.48L20.79 31.6C19.82 31.39 18.9 31.12 18.09 30.77L20.28 22ZM24.49 32C23.4 32 22.33 31.89 21.31 31.71C22.12 27.89 23.05 27 24.5 27C25.72 27 26.58 27.63 27.3 30.12C27.58 31.08 28.05 31.47 29.12 31.29L29.15 31.4C27.75 31.78 26.17 32 24.49 32Z" fill="white"/>
</svg>
