<svg width="48" height="48" viewBox="0 0 48 48" fill="none" xmlns="http://www.w3.org/2000/svg">
<rect width="48" height="48" rx="12" fill="#2B2D33"/>
<path d="M21 25C19.32 25 18 23.7 18 22H25C25.6 22 26 21.6 26 21V16H28C30.21 16 32 17.79 32 20V22C32 23.66 30.66 25 29 25H21ZM30 32C29.45 32 29 31.55 29 31C29 30.45 29.45 30 30 30C30.55 30 31 30.45 31 31C31 31.55 30.55 32 30 32ZM19 34C20.31 34 21.42 33.17 21.83 32H27.17C27.58 33.17 28.7 34 30 34C31.66 34 33 32.66 33 31C33 29.34 31.66 28 30 28C28.7 28 27.58 28.83 27.17 30H21.83C21.42 28.83 20.31 28 19 28C17.35 28 16 29.34 16 31C16 32.66 17.35 34 19 34ZM19 32C18.45 32 18 31.55 18 31C18 30.45 18.45 30 19 30C19.55 30 20 30.45 20 31C20 31.55 19.55 32 19 32ZM21 27H29C31.76 27 34 24.76 34 22V20C34 16.69 31.32 14 28 14H25C24.45 14 24 14.45 24 15V21.33L24.67 20H19.9C18.84 20 18.22 20.53 18.12 21.43H18V20C18 17.77 16.25 16 14 16V18C15.15 18 16 18.88 16 20V22C16 24.8 18.21 27 21 27Z" fill="white"/>
</svg>
