<svg width="24" height="24" viewBox="0 0 24 24" fill="none" xmlns="http://www.w3.org/2000/svg">
<path d="M17.92 9.98L18.03 10.03C18.38 9.24 19.14 9.06 19.87 9.36C21.7 10.1 23 11.9 23 14C23 16.77 20.76 19 18 19H6.5C3.5 19 1 16.58 1 13.5C1 10.48 3.5 8.01 6.38 8.01C6.62 8.01 6.86 8.02 7.09 8.04L7.11 7.93C6.35 7.46 6.3 6.86 6.78 6.05C7.91 4.15 9.79 3 12 3C15.27 3 18 5.66 18 9C18 9.34 17.97 9.67 17.92 9.98ZM12 5C9.84 5 8 6.77 8 9C8 9.59 7.58 10 7 10H6.5C4.61 10 3 11.55 3 13.5C3 15.4 4.53 17 6.5 17H18C19.66 17 21 15.64 21 14C21 12.35 19.65 11 18 11C17.71 11 17.43 11.04 17.15 11.13C16.79 11.24 16.39 11.17 16.12 10.91C15.84 10.64 15.81 10.29 15.89 9.93C15.96 9.63 16 9.32 16 9C16 6.79 14.21 5 12 5Z" fill="#2B2D33"/>
</svg>
