<svg width="24" height="24" viewBox="0 0 24 24" fill="none" xmlns="http://www.w3.org/2000/svg">
<path d="M7 12C7 16.42 10.58 20 15 20C15.96 20 16.78 19.85 17.7 19.52V19.4C16.59 19.68 16.13 19.32 15.62 18.76C13.99 16.98 13 14.6 13 12C13 9.4 13.99 7.02 15.62 5.24C16.13 4.68 16.59 4.32 17.7 4.6V4.48C16.78 4.15 15.96 4 15 4C10.58 4 7 7.58 7 12ZM5 12C5 6.48 9.47 2 15 2C16.59 2 18.1 2.37 19.44 3.04C19.78 3.21 20 3.56 20 3.94C20 4.32 19.78 4.66 19.44 4.83C16.81 6.14 15 8.86 15 12C15 15.14 16.81 17.86 19.44 19.17C19.78 19.34 20 19.68 20 20.06C20 20.44 19.78 20.79 19.44 20.96C18.1 21.63 16.59 22 15 22C9.47 22 5 17.52 5 12Z" fill="#2B2D33"/>
</svg>
