<svg width="24" height="24" viewBox="0 0 24 24" fill="none" xmlns="http://www.w3.org/2000/svg">
<path d="M18.92 13H23V11H20.88C19.62 11 19.22 11.35 19.1 12.48H18.98C18.99 12.32 19 12.16 19 12C19 10.43 18.48 8.98 17.6 7.82L20.49 4.93L19.07 3.51L17.57 5.01C16.68 5.9 16.65 6.44 17.36 7.32L17.27 7.4C16.2 6.17 14.7 5.32 13 5.08V1H11V3.12C11 4.38 11.35 4.78 12.48 4.9V5.02C12.32 5.01 12.16 5 12 5C10.43 5 8.99 5.52 7.82 6.4L4.93 3.51L3.51 4.93L5.01 6.43C5.9 7.32 6.44 7.35 7.32 6.64L7.41 6.73C6.17 7.8 5.32 9.3 5.08 11H1V13H3.12C4.38 13 4.78 12.65 4.9 11.52H5.02C5.01 11.68 5 11.84 5 12C5 13.57 5.52 15.02 6.4 16.18L3.51 19.07L4.93 20.49L6.43 18.99C7.32 18.1 7.35 17.56 6.64 16.68L6.73 16.59C7.8 17.83 9.3 18.68 11 18.92V23H13V20.88C13 19.62 12.65 19.22 11.52 19.1V18.98C11.68 18.99 11.84 19 12 19C13.57 19 15.02 18.48 16.18 17.6L19.07 20.49L20.49 19.07L18.99 17.57C18.1 16.68 17.56 16.65 16.68 17.36L16.6 17.27C17.83 16.2 18.68 14.7 18.92 13ZM12 17C9.24 17 7 14.76 7 12C7 9.24 9.24 7 12 7C14.76 7 17 9.24 17 12C17 14.76 14.76 17 12 17Z" fill="#2B2D33"/>
</svg>
