<svg width="24" height="24" viewBox="0 0 24 24" fill="none" xmlns="http://www.w3.org/2000/svg">
<path d="M13.12 16.7C13.23 17.71 13.63 18 14.66 18H16C18.76 18 21 15.76 21 13C21 10.92 19.73 9.14 17.93 8.39C17.98 8.1 18 7.8 18 7.5C18 4.46 15.54 2 12.5 2C9.56 2 7.16 4.3 7.01 7.21C4.7 7.86 3 9.98 3 12.5C3 15.54 5.46 18 8.5 18H11V22H17V20H13V16.7H13.12ZM11 13V16H8.5C6.57 16 5 14.43 5 12.5C5 10.69 6.37 9.2 8.14 9.02C8.74 8.96 9.12 8.48 9.03 7.91C9.01 7.78 9 7.64 9 7.5C9 5.57 10.57 4 12.5 4C14.43 4 16 5.57 16 7.5C16 7.93 15.92 8.34 15.78 8.72C15.57 9.3 15.87 9.93 16.54 10.05C17.94 10.3 19 11.53 19 13C19 14.66 17.66 16 16 16H13V13H11Z" fill="#2B2D33"/>
</svg>
