<svg width="48" height="48" viewBox="0 0 48 48" fill="none" xmlns="http://www.w3.org/2000/svg">
<rect width="48" height="48" rx="12" fill="#2B2D33"/>
<path d="M34 21.1C34 17.11 31.18 14 27.33 14C22.84 14 19 18.21 19 22.9C19 24.36 19.38 25.7 20.05 26.81L18.63 27.93C18.37 28.13 18.25 28.41 18.25 28.7C18.25 29.05 18.43 29.39 18.75 29.58L21.26 31.04L21.21 31.15C20.69 30.93 20.3 30.84 19.98 30.84C19.61 30.84 19.31 30.96 18.98 31.14C17.8 31.79 16.34 32 15 32V34C17.95 34 20.61 33.05 22.02 31.47L23.95 32.58C24.11 32.67 24.28 32.72 24.45 32.72C24.93 32.72 25.37 32.37 25.44 31.86L25.71 30C30.19 29.96 34 25.77 34 21.1ZM25.87 28C25.22 28 24.61 27.88 24.06 27.65L23.67 30.11L21.03 28.59L23 27.03C21.77 26.09 20.99 24.51 20.99 22.69C20.99 19.22 23.78 16 27.13 16C29.92 16 32.01 18.32 32.01 21.31C32.01 24.79 29.21 28 25.87 28Z" fill="#FEE600"/>
</svg>
