<svg width="48" height="48" viewBox="0 0 48 48" fill="none" xmlns="http://www.w3.org/2000/svg">
<rect width="48" height="48" rx="12" fill="#2B2D33"/>
<g clip-path="url(#clip0_386_17870)">
<path d="M34.5502 18.99L28.8902 13.33C28.4302 12.87 27.8902 12.89 27.4802 13.33C25.6202 15.33 24.7502 17.21 26.6502 18.44L26.5702 18.56C24.3302 17.46 21.5802 17.82 19.7002 19.7C17.8202 21.58 17.4602 24.32 18.5702 26.56L18.4402 26.64C17.2202 24.76 15.3602 25.59 13.3302 27.47C12.8902 27.88 12.8702 28.42 13.3302 28.88L18.9902 34.54C19.4702 35.02 19.9902 34.98 20.4002 34.54C22.2602 32.54 23.1302 30.67 21.2302 29.44L21.2902 29.3C23.5402 30.42 26.2902 30.06 28.1802 28.18C30.0702 26.29 30.4302 23.54 29.3002 21.29L29.4302 21.23C30.6502 23.11 32.5102 22.28 34.5402 20.4C34.9902 20 35.0302 19.47 34.5502 18.99ZM19.6502 32.38L15.5102 28.24C17.1202 26.91 18.6902 27.18 19.7002 28.19C20.7102 29.2 20.9802 30.77 19.6502 32.38ZM26.7702 26.77C25.1902 28.35 22.6902 28.35 21.1102 26.77C19.5302 25.19 19.5302 22.69 21.1102 21.11C22.6902 19.53 25.1902 19.53 26.7702 21.11C28.3502 22.69 28.3502 25.19 26.7702 26.77ZM28.1902 19.7C27.1802 18.69 26.9102 17.12 28.2402 15.51L32.3802 19.65C30.7702 20.98 29.2002 20.71 28.1902 19.7Z" fill="#FEE600"/>
</g>
<defs>
<clipPath id="clip0_386_17870">
<rect width="21.89" height="21.89" fill="white" transform="translate(13 13)"/>
</clipPath>
</defs>
</svg>
