<svg width="48" height="48" viewBox="0 0 48 48" fill="none" xmlns="http://www.w3.org/2000/svg">
<rect width="48" height="48" rx="12" fill="#2B2D33"/>
<path d="M34.4999 18.94L28.8299 13.28C28.3399 12.78 27.4299 12.97 27.1899 13.68L26.5099 15.65C26.2199 16.52 26.3999 17.05 26.9999 17.65L26.9099 17.74C25.1599 17.14 23.1699 17.53 21.7699 18.94L18.9299 21.78C17.5199 23.19 17.1399 25.17 17.7399 26.91L17.6499 27C17.0499 26.4 16.5099 26.22 15.6499 26.51L13.6799 27.19C12.9699 27.43 12.7799 28.34 13.2799 28.83L18.9399 34.5C19.4399 35 20.3499 34.81 20.5899 34.11L21.2599 32.12C21.5499 31.26 21.3699 30.72 20.7699 30.12L20.8499 30.04C22.5899 30.66 24.5799 30.27 25.9999 28.85L28.8399 26.01C30.2399 24.61 30.6599 22.62 30.0399 20.85L30.1199 20.77C30.7199 21.37 31.2599 21.55 32.1199 21.26L34.1099 20.59C34.8199 20.35 34.9999 19.44 34.4999 18.94ZM19.2099 31.94L15.8399 28.56L18.1499 27.8C18.3699 28.17 18.6199 28.52 18.9399 28.84C19.2599 29.16 19.6099 29.41 19.9699 29.62L19.2099 31.94ZM27.4299 24.6L24.5899 27.43C23.3899 28.63 21.5599 28.63 20.3499 27.43C19.1499 26.22 19.1499 24.39 20.3499 23.19L23.1799 20.35C24.3799 19.16 26.2199 19.15 27.4199 20.35C28.6599 21.59 28.6099 23.42 27.4299 24.6ZM29.6199 19.97C29.3999 19.6 29.1499 19.25 28.8299 18.93C28.5099 18.61 28.1599 18.37 27.7999 18.15L28.5599 15.84L31.9399 19.21L29.6199 19.97Z" fill="#FEE600"/>
</svg>
