<svg width="48" height="48" viewBox="0 0 48 48" fill="none" xmlns="http://www.w3.org/2000/svg">
<rect width="48" height="48" rx="12" fill="#2B2D33"/>
<path d="M17 20.31H17.62V19.94C18.51 19.93 19 19.47 19 18.56V17C19 16.45 19.45 16 20 16H28C28.55 16 29 16.45 29 17V18.56C29 19.47 29.49 19.93 30.38 19.94V20.31H31V17C31 15.34 29.65 14 28 14H20C18.35 14 17 15.34 17 17V20.31ZM17 32V24H16C15.45 24 15 23.55 15 23C15 22.45 15.45 22 16 22H17C18.16 22 19 22.84 19 24V30H21V27H27V30H29V24C29 22.84 29.85 22 31 22H32C32.55 22 33 22.45 33 23C33 23.55 32.55 24 32 24H31V32H17ZM16 34H32C32.55 34 33 33.55 33 33V25.83C34.2 25.41 35 24.27 35 23C35 21.34 33.66 20 32 20H31C29.25 20 27 21.32 27 24V26.4H26.88C26.88 25.47 26.36 25 25.35 25H22.65C21.64 25 21.12 25.47 21.12 26.4H21V24C21 21.32 18.75 20 17 20H16C14.34 20 13 21.34 13 23C13 24.27 13.8 25.41 15 25.83V33C15 33.55 15.45 34 16 34Z" fill="#FEE600"/>
</svg>
