<svg width="48" height="48" viewBox="0 0 48 48" fill="none" xmlns="http://www.w3.org/2000/svg">
<rect width="48" height="48" rx="12" fill="#2B2D33"/>
<path d="M18.0298 16H27.9698L25.4198 19H20.5798L18.0298 16ZM29.9998 19H27.2298V18.88C28.0498 18.77 28.4398 18.55 28.8798 18L30.7798 15.62C31.0198 15.32 31.0598 14.92 30.8998 14.57C30.7398 14.22 30.3898 14 29.9998 14H15.9998C15.6198 14 15.2698 14.22 15.0998 14.57C14.9298 14.91 14.9798 15.32 15.2198 15.62L17.1198 18C17.5598 18.55 17.9498 18.77 18.7698 18.88V19H16.9998V21H29.9998C30.6198 21 30.9998 21.38 30.9998 22V25H32.9998V22C32.9998 20.26 31.7398 19 29.9998 19ZM16.9998 25H28.9998V23H16.9998V25ZM18.0298 32L20.5798 29H25.4198L27.9698 32H18.0298ZM15.9998 34H29.9998C30.3898 34 30.7398 33.78 30.8998 33.43C31.0698 33.09 31.0198 32.68 30.7798 32.38L28.8798 30C28.4398 29.45 28.0498 29.23 27.2298 29.12V29H28.9998V27H16.9998V29H18.7698V29.12C17.9498 29.23 17.5598 29.45 17.1198 30L15.2198 32.38C14.9798 32.68 14.9298 33.09 15.0998 33.43C15.2698 33.78 15.6198 34 15.9998 34Z" fill="#FEE600"/>
</svg>
