<svg width="24" height="24" viewBox="0 0 24 24" fill="none" xmlns="http://www.w3.org/2000/svg">
<path d="M19 15C20.66 15 22 13.66 22 12C22 10.34 20.66 9 19 9H16.57C16.73 8.64 16.86 8.26 16.93 7.85C18.1 7.53 19 6.31 19 5C19 3.35 17.66 2 16 2C15.32 2 14.82 2.17 14.28 2.55C13.55 2.19 12.8 2 12 2C11.2 2 10.46 2.19 9.73 2.55C9.3 2.21 8.66 2 8 2C6.33 2 5 3.36 5 5C5 6.3 5.84 7.48 7.08 7.85C7.15 8.26 7.28 8.64 7.44 9H5C3.34 9 2 10.34 2 12C2 13.65 3.34 15 5 15H6V16.29C4.76 16.79 4 17.82 4 19C4 20.66 5.57 22 7.5 22C8.98 22 10.34 21.18 10.81 20H13.19C13.67 21.18 15.02 22 16.5 22C18.44 22 20 20.66 20 19C20 17.82 19.24 16.79 18 16.29V15H19ZM7 5C7 4.5 7.41 4 8 4C8.33 4 8.61 4.14 8.8 4.4C9.12 4.84 9.76 4.93 10.2 4.6C10.69 4.22 11.37 4 12 4C12.59 4 13.29 4.21 13.8 4.6C14.24 4.93 14.88 4.84 15.2 4.4C15.38 4.15 15.69 4 16 4C16.54 4 17 4.4 17 5C17 5.53 16.59 6 16 6H15V7C15 8.65 13.65 10 12 10C10.35 10 9 8.65 9 7V6H8C7.44 6 7 5.53 7 5ZM7.5 20C6.71 20 6 19.53 6 19C6 18.47 6.71 18 7.5 18C8.3 18 9 18.47 9 19C9 19.53 8.3 20 7.5 20ZM16.5 20C15.71 20 15 19.53 15 19C15 18.47 15.71 18 16.5 18C17.3 18 18 18.47 18 19C18 19.53 17.3 20 16.5 20ZM17 13C16.45 13 16 13.45 16 14V16.03C14.7 16.2 13.6 16.97 13.19 18H10.81C10.4 16.97 9.3 16.2 8 16.03V14C8 13.45 7.55 13 7 13H5C4.45 13 4 12.55 4 12C4 11.45 4.45 11 5 11H6C7.04 11 7.54 10.48 7.54 9.48H7.66C8.53 11 10.17 12 12 12C13.85 12 15.47 11.01 16.34 9.48H16.46C16.46 10.48 16.96 11 18 11H19C19.55 11 20 11.45 20 12C20 12.55 19.55 13 19 13H17Z" fill="#2B2D33"/>
</svg>
