<svg width="24" height="24" viewBox="0 0 24 24" fill="none" xmlns="http://www.w3.org/2000/svg">
<path d="M22.4999 6.93999L16.8299 1.27999C16.3399 0.779993 15.4299 0.969993 15.1899 1.67999L14.5099 3.64999C14.2199 4.51999 14.3999 5.04999 14.9999 5.64999L14.9099 5.73999C13.1599 5.13999 11.1699 5.52999 9.76993 6.93999L6.92993 9.77999C5.51993 11.19 5.13993 13.17 5.73993 14.91L5.64993 15C5.04993 14.4 4.50993 14.22 3.64993 14.51L1.67993 15.19C0.969932 15.43 0.779932 16.34 1.27993 16.83L6.93993 22.5C7.43993 23 8.34993 22.81 8.58993 22.11L9.25993 20.12C9.54993 19.26 9.36993 18.72 8.76993 18.12L8.84993 18.04C10.5899 18.66 12.5799 18.27 13.9999 16.85L16.8399 14.01C18.2399 12.61 18.6599 10.62 18.0399 8.84999L18.1199 8.76999C18.7199 9.36999 19.2599 9.54999 20.1199 9.25999L22.1099 8.58999C22.8199 8.34999 22.9999 7.43999 22.4999 6.93999ZM7.20993 19.94L3.83993 16.56L6.14993 15.8C6.36993 16.17 6.61993 16.52 6.93993 16.84C7.25993 17.16 7.60993 17.41 7.96993 17.62L7.20993 19.94ZM15.4299 12.6L12.5899 15.43C11.3899 16.63 9.55993 16.63 8.34993 15.43C7.14993 14.22 7.14993 12.39 8.34993 11.19L11.1799 8.34999C12.3799 7.15999 14.2199 7.14999 15.4199 8.34999C16.6599 9.58999 16.6099 11.42 15.4299 12.6ZM17.6199 7.96999C17.3999 7.59999 17.1499 7.24999 16.8299 6.92999C16.5099 6.60999 16.1599 6.36999 15.7999 6.14999L16.5599 3.83999L19.9399 7.20999L17.6199 7.96999Z" fill="#2B2D33"/>
</svg>
