<svg width="24" height="24" viewBox="0 0 24 24" fill="none" xmlns="http://www.w3.org/2000/svg">
<path d="M21.7 16.88C21.44 17.2 21.1 17.49 20.73 17.77L19.02 10.96L19.27 9.5L20.05 9.89C20.44 10.09 20.9 10.01 21.21 9.71L22.21 8.71C22.49 8.42 22.58 8.01 22.43 7.63C21.9 6.24 21.04 4.46 20.21 3.21C19.74 2.5 19.21 2 18.5 2C14.99 2 12.86 4.32 12.54 8H8.33C7.85 6.76 6.78 6 5.5 6C3.85 6 2.5 7.35 2.5 9V11H4.5V9C4.5 8.46 4.96 8 5.5 8C6 8 6.45 8.37 6.5 8.9L4.76 15.82C4.47 16.98 4.71 17.9 5.64 18.45L5.61 18.56C4.64 18.09 3.83 17.53 3.29 16.88L2 18.42C4.05 20.65 7.98 22 12.5 22C17.01 22 20.95 20.65 23 18.43L21.7 16.88ZM8.28 10H13.5C14.11 10 14.5 9.58 14.5 9C14.5 6.12 15.61 4.12 18.3 4C19.1 5.08 19.68 6.26 20.33 7.75L20.3 7.78L19.01 7.14C18.35 6.81 17.63 7.16 17.48 8.04L17.14 10.04C17.02 10.79 17.01 11.13 17.18 11.8L18.55 17.28C18.76 18.11 19.37 18.36 20.27 17.94L20.32 18.06C19.57 18.54 18.67 18.94 17.64 19.26C16.68 14.72 14.93 13 12.5 13C10.31 13 8.66 14.39 7.74 17.72C7.47 18.68 7.74 19.27 8.82 19.48L8.79 19.6C7.82 19.39 6.9 19.12 6.09 18.77L8.28 10ZM12.49 20C11.4 20 10.33 19.89 9.31 19.71C10.12 15.89 11.05 15 12.5 15C13.72 15 14.58 15.63 15.3 18.12C15.58 19.08 16.05 19.47 17.12 19.29L17.15 19.4C15.75 19.78 14.17 20 12.49 20Z" fill="#2B2D33"/>
</svg>
