<svg width="24" height="24" viewBox="0 0 24 24" fill="none" xmlns="http://www.w3.org/2000/svg">
<path fill-rule="evenodd" clip-rule="evenodd" d="M17.0303 0.46967C16.7374 0.176777 16.2626 0.176777 15.9697 0.46967L14.7654 1.67391C13.9379 1.24335 12.9974 1 12 1C11.0026 1 10.0621 1.24335 9.23457 1.67391L8.03033 0.46967C7.73744 0.176777 7.26256 0.176777 6.96967 0.46967C6.67678 0.762563 6.67678 1.23744 6.96967 1.53033L7.98268 2.54334C6.76524 3.64147 6 5.23137 6 7H18C18 5.23137 17.2348 3.64147 16.0173 2.54334L17.0303 1.53033C17.3232 1.23744 17.3232 0.762563 17.0303 0.46967ZM11 4C11 4.55228 10.5523 5 10 5C9.44772 5 9 4.55228 9 4C9 3.44772 9.44772 3 10 3C10.5523 3 11 3.44772 11 4ZM14 5C14.5523 5 15 4.55228 15 4C15 3.44772 14.5523 3 14 3C13.4477 3 13 3.44772 13 4C13 4.55228 13.4477 5 14 5Z" fill="#FEE600"/>
<path d="M3.5 8C2.67157 8 2 8.67157 2 9.5V14.5C2 15.3284 2.67157 16 3.5 16C4.32843 16 5 15.3284 5 14.5V9.5C5 8.67157 4.32843 8 3.5 8Z" fill="#FEE600"/>
<path d="M8 18V21.5C8 22.3284 8.67157 23 9.5 23C10.3284 23 11 22.3284 11 21.5V18H13V21.5C13 22.3284 13.6716 23 14.5 23C15.3284 23 16 22.3284 16 21.5V18H17C17.5523 18 18 17.5523 18 17V8H6V17C6 17.5523 6.44772 18 7 18H8Z" fill="#FEE600"/>
<path d="M20.5 8C19.6716 8 19 8.67157 19 9.5V14.5C19 15.3284 19.6716 16 20.5 16C21.3284 16 22 15.3284 22 14.5V9.5C22 8.67157 21.3284 8 20.5 8Z" fill="#FEE600"/>
</svg>
