<svg width="24" height="24" viewBox="0 0 24 24" fill="none" xmlns="http://www.w3.org/2000/svg">
<path fill-rule="evenodd" clip-rule="evenodd" d="M12 8C12 5.2 9.8 3 7 3H4C3.4 3 3 3.4 3 4V20C3 20.6 3.4 21 4 21H7C9.8 21 12 18.8 12 16C12 14.4 11.2 12.9 10 12C11.2 11.1 12 9.6 12 8ZM10 16C10 17.7 8.7 19 7 19H5V13H7C8.7 13 10 14.3 10 16ZM7 11H5V5H7C8.7 5 10 6.3 10 8C10 9.7 8.7 11 7 11Z" fill="#FEE600"/>
<path fill-rule="evenodd" clip-rule="evenodd" d="M17 19C15.9 19 15 18.1 15 17V16H20C20.3 16 20.5 15.9 20.7 15.7C20.9 15.5 21 15.3 21 15V13C21 10.8 19.2 9 17 9C14.8 9 13 10.8 13 13V17C13 19.2 14.8 21 17 21C19.2 21 21 19.2 21 17H19C19 18.1 18.1 19 17 19ZM15 13C15 11.9 15.9 11 17 11C18.1 11 19 11.9 19 13V14H15V13Z" fill="#FEE600"/>
<path d="M14 6H20V8H14V6Z" fill="#FEE600"/>
</svg>
