<svg width="24" height="24" viewBox="0 0 24 24" fill="none" xmlns="http://www.w3.org/2000/svg">
<path d="M8.29 15.29L9.71 16.71L12 14.41L14.29 16.71L15.71 15.29L13.42 13L15.71 10.71L14.29 9.29L12 11.59L9.71 9.29L8.29 10.71L10.59 13L8.29 15.29ZM8.2 6V5.88C8.91 5.72 9.41 5.35 9.84 4.7L10.28 4.03C10.77 3.28 11.23 3 12 3C12.77 3 13.23 3.28 13.72 4.03L14.16 4.7C14.59 5.35 15.09 5.72 15.8 5.88V6H8.2ZM4 18V8H20V18H4ZM2 19C2 19.55 2.45 20 3 20H21C21.55 20 22 19.55 22 19V7C22 6.45 21.55 6 21 6H18.2C17.62 6 17.2 5.73 16.8 5.1L15.44 3C14.59 1.69 13.41 1 12 1C10.59 1 9.41 1.69 8.56 3L7.2 5.1C6.8 5.73 6.38 6 5.8 6H3C2.4 6 2 6.4 2 7V19Z" fill="#FEE600"/>
</svg>
