<svg width="24" height="24" viewBox="0 0 24 24" fill="none" xmlns="http://www.w3.org/2000/svg">
<path d="M12 2C6.47 2 2 6.48 2 12V22H4V12.97C4 12.33 4.3 12 4.87 12H6V14.99C6 18.4 8.59 20.99 12 20.99C15.41 20.99 18 18.4 18 14.99V9.71L17.24 9.52C15.8 9.15 14 7.5 14 5.99H12C12 8.34 9.6 10 7 10H5.72C4.84 10 4.38 10.47 4.17 11.17H4.04C4.46 7.18 7.84 4 12 4C16.43 4 20 7.6 20 12V22H22V12C22 6.47 17.51 2 12 2ZM13.08 8.93C13.65 9.68 14.78 10.66 16 11.17V14.99C16 17.3 14.31 18.99 12 18.99C9.69 18.99 8 17.3 8 14.99V11.9C10.4 11.63 12.02 10.54 13.08 8.93Z" fill="#FEE600"/>
</svg>
