<svg width="24" height="24" viewBox="0 0 24 24" fill="none" xmlns="http://www.w3.org/2000/svg">
<path d="M16.45 3C14.63 3 13.01 3.97 12.04 5.67H11.96C10.99 3.97 9.37 3 7.55 3C4.26 3 2 5.62 2 8.83C2 13.16 6.32 17.73 11.01 21.61C11.3 21.85 11.64 22 12 22C12.36 22 12.7 21.85 12.99 21.61C17.68 17.73 22 13.16 22 8.83C22 5.62 19.74 3 16.45 3ZM4 8.83C4 6.71 5.27 5 7.55 5C8.85 5 10.04 5.89 10.89 7.14C10.91 7.17 10.93 7.18 10.94 7.21L10.01 10.87C9.95 11.09 10.01 11.31 10.13 11.5L11.91 14.17L11.01 19.01C7.29 15.64 4 12.06 4 8.83ZM13.07 18.93L13.98 14.19C14.04 13.88 13.99 13.68 13.87 13.5L12.13 10.91L12.98 7.31C13.02 7.25 13.06 7.2 13.11 7.14C13.96 5.89 15.15 5 16.45 5C18.73 5 20 6.71 20 8.83C20 12.03 16.76 15.58 13.07 18.93Z" fill="#FEE600"/>
</svg>
