<svg width="24" height="24" viewBox="0 0 24 24" fill="none" xmlns="http://www.w3.org/2000/svg">
<path d="M12 19.89C7.89 16.27 4 12.34 4 8.83C4 6.71 5.27 5 7.55 5C8.85 5 10.04 5.89 10.89 7.14C11.19 7.58 11.49 7.88 12 7.88C12.51 7.88 12.81 7.58 13.11 7.14C13.96 5.89 15.15 5 16.45 5C18.73 5 20 6.71 20 8.83C20 12.34 16.11 16.27 12 19.89ZM12 22C12.36 22 12.7 21.85 12.99 21.61C17.68 17.73 22 13.16 22 8.83C22 5.62 19.74 3 16.45 3C14.63 3 13.01 3.97 12.04 5.67H11.96C10.99 3.97 9.37 3 7.55 3C4.26 3 2 5.62 2 8.83C2 13.16 6.32 17.73 11.01 21.61C11.3 21.85 11.64 22 12 22Z" fill="#FEE600"/>
</svg>
