<svg width="24" height="24" viewBox="0 0 24 24" fill="none" xmlns="http://www.w3.org/2000/svg">
<path d="M9.9 16H10.9L12.19 14.28C12.61 14.41 13.01 14.57 13.4 14.78V12.57C12.7 12.29 11.98 12.12 11.22 12.04V11.93C13.59 11.54 15.4 9.48 15.4 7C15.4 4.24 13.16 2 10.4 2C7.64 2 5.4 4.24 5.4 7C5.4 9.48 7.21 11.54 9.58 11.93V12.04C6.39 12.36 3.7 14.52 2.67 17.5C2.28 18.63 2.18 19.85 2.08 21.05L2 22H4.01L4.08 21.05C4.17 19.85 4.26 18.71 4.75 17.66C5.54 15.97 6.94 14.77 8.6 14.27L9.9 16ZM7.4 7C7.4 5.34 8.74 4 10.4 4C12.06 4 13.4 5.34 13.4 7C13.4 8.66 12.06 10 10.4 10C8.74 10 7.4 8.66 7.4 7Z" fill="#FEE600"/>
<path d="M11.4 17H9.4V22H11.4V17Z" fill="#FEE600"/>
<path d="M18.54 18.97H18.4V13H16.4V18.97H16.26C15.95 17.51 14.89 17 13.4 17V19C14.72 19.01 15.87 19.69 16.43 21.29C16.61 21.8 16.95 22 17.41 22C17.86 22 18.2 21.8 18.38 21.29C18.95 19.69 20.1 19.01 21.42 19V17C19.94 17 18.84 17.51 18.54 18.97Z" fill="#FEE600"/>
</svg>
