<svg width="24" height="24" viewBox="0 0 24 24" fill="none" xmlns="http://www.w3.org/2000/svg">
<path d="M15.0138 4.47939C15.3878 4.0257 15.6981 3.48022 15.8898 2.89167C16.0657 2.352 16.1427 1.77506 16.0794 1.19749L16.0577 1L15.86 1.00805C15.3371 1.02936 14.7625 1.20138 14.2276 1.47648C13.6944 1.75063 13.1965 2.12901 12.8253 2.5639C12.4665 2.97971 12.1323 3.52852 11.9259 4.12993C11.7485 4.64675 11.6643 5.20521 11.7372 5.75688L11.7598 5.92795L11.9316 5.94134C12.493 5.9851 13.0571 5.85289 13.5717 5.60741C14.1324 5.33993 14.6365 4.93567 15.0138 4.47939Z" fill="#FEE600"/>
<path d="M17.5268 11.6155C17.5041 9.33094 19.3358 8.19754 19.5253 8.08028C19.5342 8.07479 19.5356 8.07414 19.5364 8.07372C19.5372 8.07335 19.5376 8.07315 19.5421 8.07023L19.7256 7.95175L19.6027 7.77196C19.1369 7.09017 18.5702 6.63558 18.0115 6.33279C17.1345 5.85749 16.2765 5.75882 15.8646 5.74091C14.8837 5.64338 13.9561 6.00905 13.1979 6.30798C12.749 6.48496 12.3639 6.63682 12.1026 6.63682C11.8069 6.63682 11.4126 6.48032 10.9699 6.30467C10.3443 6.05641 9.62908 5.77258 8.87083 5.78633C8.00474 5.79932 7.17268 6.05017 6.44542 6.49095C5.71484 6.93375 5.08995 7.56835 4.64285 8.34596C3.84195 9.73575 3.66779 11.4186 3.87614 13.0752C4.12945 15.0891 4.94933 17.0698 5.89206 18.431C6.30969 19.035 6.76799 19.6768 7.29108 20.1669C7.83784 20.6791 8.45305 21.0249 9.16251 20.9986C9.77692 20.9741 10.2042 20.7924 10.6452 20.6045C11.1137 20.4049 11.6 20.1977 12.3609 20.1977C13.0851 20.1977 13.548 20.398 13.993 20.5906C14.4597 20.7925 14.9088 20.9868 15.5946 20.9739C16.3222 20.9604 16.9112 20.6348 17.4269 20.1525C17.925 19.6867 18.3469 19.0828 18.7609 18.4779C19.6734 17.1445 20.0774 15.8504 20.1369 15.6595C20.1393 15.6521 20.1398 15.65 20.14 15.6491C20.1402 15.648 20.1397 15.6492 20.1419 15.6428L20.2046 15.4553L20.0158 15.3771C19.8869 15.3244 17.5508 14.3697 17.5268 11.6155Z" fill="#FEE600"/>
</svg>
