<svg width="24" height="24" viewBox="0 0 24 24" fill="none" xmlns="http://www.w3.org/2000/svg">
<path d="M17.2967 3.84922L13.7965 7.34936L15.2178 8.77063L18.718 5.27049L17.2967 3.84922Z" fill="#FEE600"/>
<path d="M6.89 15.03C7.57 14.39 8 13.49 8 12.49C8 10.56 6.43 8.99 4.5 8.99C2.57 8.99 1 10.56 1 12.49C1 14.3 2.39 15.78 4.16 15.96L4.21 16.1C2.08 17.34 1 19.65 1 23H3C3 18.82 4.82 17 9 17V15C8.26 15 7.58 15.06 6.94 15.16L6.89 15.03ZM3 12.49C3 11.66 3.67 10.99 4.5 10.99C5.33 10.99 6 11.66 6 12.49C6 13.32 5.33 13.99 4.5 13.99C3.67 13.99 3 13.32 3 12.49Z" fill="#FEE600"/>
<path d="M19.79 16.11L19.85 15.96C21.61 15.78 23 14.3 23 12.49C23 10.56 21.43 8.99 19.5 8.99C17.57 8.99 16 10.56 16 12.49C16 13.5 16.43 14.4 17.12 15.04L17.07 15.17C16.59 15.09 16.09 15.04 15.56 15.01L12.99 10.98L11.31 12.06L14.46 17.01C19.03 16.85 21 18.65 21 23H23C23 19.66 21.91 17.35 19.79 16.11ZM19.5 10.99C20.33 10.99 21 11.66 21 12.49C21 13.32 20.33 13.99 19.5 13.99C18.67 13.99 18 13.32 18 12.49C18 11.66 18.67 10.99 19.5 10.99Z" fill="#FEE600"/>
<path d="M13 2H11V7H13V2Z" fill="#FEE600"/>
<path d="M6.71079 3.8421L5.28952 5.26337L8.78966 8.76351L10.2109 7.34224L6.71079 3.8421Z" fill="#FEE600"/>
</svg>
