<svg width="24" height="24" viewBox="0 0 24 24" fill="none" xmlns="http://www.w3.org/2000/svg">
<path d="M13.22 14.91V14.77C14.55 14.27 15.5 13 15.5 11.5C15.5 9.57 13.93 8 12 8C10.07 8 8.5 9.57 8.5 11.5C8.5 13 9.45 14.27 10.78 14.77V14.91C7.4 15.51 5.5 18.57 5.5 21.8H7.5C7.5 19 9.23 16.8 12 16.8C14.77 16.8 16.5 19 16.5 21.8H18.5C18.5 18.57 16.6 15.51 13.22 14.91ZM12 10C12.83 10 13.5 10.67 13.5 11.5C13.5 12.33 12.83 13 12 13C11.17 13 10.5 12.33 10.5 11.5C10.5 10.67 11.17 10 12 10Z" fill="#FEE600"/>
<path d="M7 11.8V9.65C8.18 9.09 9 7.89 9 6.5C9 4.57 7.43 3 5.5 3C3.57 3 2 4.57 2 6.5C2 8.16 3.16 9.54 4.71 9.9V10.04C1.68 10.87 0 13.76 0 16.8H2C2 14 3.73 11.8 6.5 11.8H7ZM4 6.5C4 5.67 4.67 5 5.5 5C6.33 5 7 5.67 7 6.5C7 7.33 6.33 8 5.5 8C4.67 8 4 7.33 4 6.5Z" fill="#FEE600"/>
<path d="M19.29 10.04V9.9C20.84 9.54 22 8.16 22 6.5C22 4.57 20.43 3 18.5 3C16.57 3 15 4.57 15 6.5C15 7.89 15.82 9.09 17 9.65V11.8H17.5C20.27 11.8 22 14 22 16.8H24C24 13.76 22.32 10.87 19.29 10.04ZM18.5 5C19.33 5 20 5.67 20 6.5C20 7.33 19.33 8 18.5 8C17.67 8 17 7.33 17 6.5C17 5.67 17.67 5 18.5 5Z" fill="#FEE600"/>
</svg>
