<svg width="24" height="24" viewBox="0 0 24 24" fill="none" xmlns="http://www.w3.org/2000/svg">
<path d="M5 11C5 9.61 5.35 9 6.62 9H14.1C16.58 9 17.84 7.54 16.83 6.09L16.91 6C18.43 7.54 19 9.38 19 11V13C19 16.89 15.83 20 12 20C8.13 20 5 16.87 5 13V11ZM5.54 8.22C6.83 5.43 9.51 4 12 4C13.09 4 14.13 4.25 15.06 4.7C16.41 5.34 16.2 7 14.5 7H7.92C6.76 7 6.26 7.36 5.65 8.22H5.54ZM15.5 13C16.33 13 17 12.33 17 11.5C17 10.67 16.33 10 15.5 10C14.67 10 14 10.67 14 11.5C14 12.33 14.67 13 15.5 13ZM8.5 13C9.33 13 10 12.33 10 11.5C10 10.67 9.33 10 8.5 10C7.67 10 7 10.67 7 11.5C7 12.33 7.67 13 8.5 13ZM11 18H13C14.1 18 15 17.1 15 16H9C9 17.1 9.89 18 11 18ZM12 22C16.97 22 21 17.97 21 13V11C21 6.03 16.97 2 12 2C7.03 2 3 6.03 3 11V13C3 17.97 7.03 22 12 22Z" fill="#FEE600"/>
</svg>
