<svg width="24" height="24" viewBox="0 0 24 24" fill="none" xmlns="http://www.w3.org/2000/svg">
<path d="M22.23 16.95L21.23 15.45C21.04 15.17 20.73 15 20.39 15H14.39C14.06 15 13.75 15.17 13.56 15.45L12.56 16.95C12.3 17.34 12.33 17.89 12.69 18.21L16.69 21.73C17.11 22.1 17.68 22.1 18.1 21.73L22.1 18.21C22.46 17.89 22.49 17.34 22.23 16.95ZM17.39 19.7L14.7 17.35L14.93 17H19.86L20.1 17.35L17.39 19.7Z" fill="#FEE600"/>
<path d="M10.21 11.93C12.58 11.54 14.39 9.48 14.39 7C14.39 4.24 12.15 2 9.39 2C6.63 2 4.39 4.24 4.39 7C4.39 9.48 6.2 11.54 8.57 11.93V12.04C5.38 12.36 2.69 14.52 1.66 17.5C1.27 18.63 1.16 19.85 1.07 21.05L1 22H3.01L3.07 21.05C3.15 19.85 3.25 18.71 3.74 17.66C4.8 15.39 6.96 14 9.39 14C10.46 14 11.49 14.27 12.39 14.78V12.58C11.7 12.3 10.97 12.12 10.21 12.04V11.93ZM6.39 7C6.39 5.34 7.73 4 9.39 4C11.05 4 12.39 5.34 12.39 7C12.39 8.66 11.05 10 9.39 10C7.73 10 6.39 8.66 6.39 7Z" fill="#FEE600"/>
</svg>
