<svg width="24" height="24" viewBox="0 0 24 24" fill="none" xmlns="http://www.w3.org/2000/svg">
<path d="M11.4 14.34V12.26C11.01 12.15 10.62 12.08 10.22 12.04V11.93C12.59 11.54 14.4 9.48 14.4 7C14.4 4.24 12.16 2 9.4 2C6.64 2 4.4 4.24 4.4 7C4.4 9.48 6.21 11.54 8.58 11.93V12.04C5.39 12.36 2.7 14.52 1.67 17.5C1.28 18.63 1.18 19.85 1.08 21.05L1 22H3.01L3.08 21.05C3.17 19.85 3.26 18.71 3.75 17.66C4.81 15.39 6.97 14 9.4 14C10.09 14 10.76 14.11 11.4 14.34ZM15.4 16C16.47 16 17.4 15.07 17.4 14C17.4 12.93 16.47 12 15.4 12C14.34 12 13.4 12.93 13.4 14C13.4 15.07 14.34 16 15.4 16ZM21.4 22C22.47 22 23.4 21.07 23.4 20C23.4 18.93 22.47 18 21.4 18C20.34 18 19.4 18.93 19.4 20C19.4 21.07 20.34 22 21.4 22ZM14.8 22.01L23.4 13.42L22 12.02L13.4 20.61L14.8 22.01ZM6.4 7C6.4 5.34 7.74 4 9.4 4C11.06 4 12.4 5.34 12.4 7C12.4 8.66 11.06 10 9.4 10C7.74 10 6.4 8.66 6.4 7Z" fill="#FEE600"/>
</svg>
