<svg width="24" height="24" viewBox="0 0 24 24" fill="none" xmlns="http://www.w3.org/2000/svg">
<path d="M14.9996 3L16.1996 7C16.3996 7.6 16.8996 8 17.4996 8H19.9996L16.3996 3H14.9996ZM13.7996 18.3L19.7996 10H17.4996C16.8996 10 16.2996 10.4 16.0996 11L13.7996 18.3ZM8.49961 10.1C9.29961 10.4 10.0996 10.9 10.2996 12L11.9996 18.3L13.6996 12C13.9996 11 14.6996 10.4 15.4996 10.1V10H8.49961V10.1ZM8.29961 8H15.6996V7.9C14.7996 7.6 14.1996 6.9 13.8996 6L12.9996 3H10.9996L10.0996 6C9.79961 6.9 9.09961 7.6 8.29961 7.9V8ZM4.09961 10L10.0996 18.3L7.89961 11C7.69961 10.4 7.09961 10 6.49961 10H4.09961ZM3.89961 8H6.39961C6.99961 8 7.59961 7.6 7.79961 7L8.99961 3H7.49961L3.89961 8ZM1.19961 9.6C0.899609 9.2 0.899609 8.7 1.19961 8.4L6.19961 1.4C6.39961 1.1 6.59961 1 6.99961 1H16.9996C17.3996 1 17.5996 1.1 17.7996 1.4L22.7996 8.4C22.9996 8.8 23.0996 9.2 22.7996 9.6L12.7996 22.6C12.3996 23.1 11.5996 23.1 11.2996 22.6L1.19961 9.6Z" fill="#FEE600"/>
</svg>
