<svg width="24" height="24" viewBox="0 0 24 24" fill="none" xmlns="http://www.w3.org/2000/svg">
<path d="M4.43 9.44C6.83 9.02 8.83 7.32 9.44 4.29H9.56C10.17 7.32 12.17 9.02 14.57 9.44V9.56C12.17 9.98 10.17 11.68 9.56 14.71H9.44C8.83 11.68 6.83 9.98 4.43 9.56V9.44ZM19 24C19.3 24 19.55 23.75 19.55 23.44C19.55 21.3 21.29 19.56 23.44 19.56C23.75 19.56 24 19.31 24 19C24 18.69 23.75 18.44 23.44 18.44C21.29 18.44 19.55 16.7 19.55 14.56C19.55 14.25 19.3 14 19 14C18.69 14 18.44 14.25 18.44 14.56C18.44 16.7 16.7 18.44 14.55 18.44C14.25 18.44 14 18.69 14 19C14 19.31 14.25 19.56 14.55 19.56C16.7 19.56 18.44 21.3 18.44 23.44C18.44 23.75 18.69 24 19 24ZM9.5 19C10.05 19 10.5 18.55 10.5 18C10.5 13.86 13.86 10.5 18 10.5C18.55 10.5 19 10.05 19 9.5C19 8.95 18.55 8.5 18 8.5C13.86 8.5 10.5 5.14 10.5 1C10.5 0.45 10.05 0 9.5 0C8.95 0 8.5 0.45 8.5 1C8.5 5.14 5.14 8.5 1 8.5C0.45 8.5 0 8.95 0 9.5C0 10.05 0.45 10.5 1 10.5C5.14 10.5 8.5 13.86 8.5 18C8.5 18.55 8.95 19 9.5 19Z" fill="#FEE600"/>
</svg>
