<svg width="24" height="24" viewBox="0 0 24 24" fill="none" xmlns="http://www.w3.org/2000/svg">
<path fill-rule="evenodd" clip-rule="evenodd" d="M22.1347 2.72726C22.4216 2.96289 22.5543 3.33805 22.4795 3.70165L18.9795 20.7017C18.9116 21.0314 18.6824 21.3048 18.3695 21.4292C18.0567 21.5536 17.7023 21.5123 17.4265 21.3192L13.0529 18.2577L10.6402 20.2682C10.3863 20.4798 10.0443 20.5523 9.72638 20.4618C9.4085 20.3714 9.15583 20.1298 9.05132 19.8162L7.20413 14.2747L2.15826 12.4398C1.77162 12.2992 1.51054 11.9362 1.50031 11.5249C1.49008 11.1136 1.73278 10.738 2.11195 10.5784L21.1119 2.57836C21.4541 2.4343 21.8479 2.49163 22.1347 2.72726ZM9.21113 13.9711L9.807 15.7587L10.0238 14.7831C10.0621 14.6107 10.1454 14.4515 10.2652 14.3217L12.0391 12.4L9.21113 13.9711ZM11.6122 16.8548L12.3598 16.2318C12.7065 15.9429 13.2038 15.922 13.5735 16.1808L17.3273 18.8084L20.1375 5.1587L5.23878 11.4319L7.91308 12.4043L16.5144 7.62584C16.9437 7.38733 17.4826 7.49587 17.7862 7.88196C18.0897 8.26805 18.0679 8.81741 17.7348 9.17828L11.9177 15.4801L11.6122 16.8548Z" fill="#FEE600"/>
</svg>
