<svg width="24" height="24" viewBox="0 0 24 24" fill="none" xmlns="http://www.w3.org/2000/svg">
<path fill-rule="evenodd" clip-rule="evenodd" d="M9.59961 15.9C9.79961 16 9.89961 16 10.0996 16C10.1996 16 10.3996 16 10.5996 15.9L15.7996 12.9C16.0996 12.7 16.2996 12.4 16.2996 12C16.2996 11.6 16.0996 11.3 15.7996 11.1L10.5996 8.10001C10.2996 7.90001 9.89961 7.90001 9.59961 8.10001C9.29961 8.30001 9.09961 8.60001 9.09961 9.00001V15C9.09961 15.4 9.29961 15.7 9.59961 15.9ZM13.2996 12L11.0996 13.3V10.7L13.2996 12Z" fill="#FEE600"/>
<path fill-rule="evenodd" clip-rule="evenodd" d="M2 12C2 18.7 3.1 19 12 19C20.9 19 22 18.7 22 12C22 5.3 20.9 5 12 5C3.1 5 2 5.3 2 12ZM4.8 7.6C5.7 7 8.2 7 12 7C15.8 7 18.3 7 19.2 7.6C19.9 8.1 20 9.1 20 12C20 14.9 19.9 15.9 19.2 16.4C18.3 17 15.8 17 12 17C8.2 17 5.7 17 4.8 16.4C4.1 15.9 4 14.9 4 12C4 9.1 4.1 8.1 4.8 7.6Z" fill="#FEE600"/>
</svg>
