<svg width="48" height="48" viewBox="0 0 48 48" fill="none" xmlns="http://www.w3.org/2000/svg">
<rect width="48" height="48" rx="12" fill="#2B2D33"/>
<path d="M14 31.9999V33.9999H34V31.9999H14ZM16 24.9999H18V29.9999H16V24.9999ZM32 29.9999V24.9999H30V29.9999H32ZM23 24.9999H25V29.9999H23V24.9999ZM17.07 19.9999C15.92 20.6399 15.51 20.8799 14.7 20.8799V20.9999H33.3V20.8799C32.51 20.8799 32.17 20.6899 30.94 19.9999L24 16.1399L17.07 19.9999ZM23.51 14.1299C23.81 13.9599 24.18 13.9599 24.48 14.1299L33.48 19.1299C33.8 19.2999 34 19.6399 34 19.9999V21.9999C34 22.5499 33.55 22.9999 33 22.9999H15C14.44 22.9999 14 22.5499 14 21.9999V19.9999C14 19.6399 14.19 19.2999 14.51 19.1299L23.51 14.1299Z" fill="#FEE600"/>
</svg>
