<svg width="48" height="48" viewBox="0 0 48 48" fill="none" xmlns="http://www.w3.org/2000/svg">
<rect width="48" height="48" rx="12" fill="#2B2D33"/>
<path d="M17.0001 25.38C18.8301 23.25 21.3901 22 24.0001 22C26.6101 22 29.1701 23.25 31.0001 25.38V28H33.0001V21.5C33.0001 20.75 32.8901 20.44 32.3601 19.87C30.2501 17.6 27.1701 16 24.0001 16C20.8301 16 17.7301 17.59 15.6401 19.87C15.1101 20.44 15.0001 20.75 15.0001 21.5V28H17.0001V25.38ZM31.0001 21.38V23.9H30.8801C30.8801 22.84 30.6201 22.22 29.6201 21.61C29.1001 21.29 28.5501 21.04 28.0001 20.81V18.99C29.1201 19.57 30.1401 20.38 31.0001 21.38ZM26.0001 18.24V20.22C25.3401 20.09 24.6701 20 24.0001 20C23.3201 20 22.6601 20.09 22.0001 20.22V18.24C22.6501 18.08 23.3201 18 24.0001 18C24.6701 18 25.3401 18.08 26.0001 18.24ZM20.0001 18.99V20.81C19.4401 21.04 18.9001 21.29 18.3801 21.61C17.3801 22.22 17.1201 22.84 17.1201 23.9H17.0001V21.38C17.8601 20.38 18.8801 19.57 20.0001 18.99Z" fill="#FEE600"/>
<path d="M19.0001 28H21.0001C21.0001 26.94 22.2401 26 24.0001 26C25.7601 26 27.0001 26.94 27.0001 28H29.0001C29.0001 25.77 26.8601 24 24.0001 24C21.1401 24 19.0001 25.77 19.0001 28Z" fill="#FEE600"/>
<path d="M33.4501 30.1L32.8901 29.82C31.6901 29.22 30.2701 29.26 29.1101 29.92L28.4901 30.28C27.8801 30.63 27.1201 30.63 26.5101 30.28L25.9901 29.98C24.7601 29.27 23.2501 29.27 22.0201 29.98L21.4901 30.28C20.8801 30.63 20.1201 30.63 19.5101 30.28L18.8901 29.92C17.7301 29.26 16.3101 29.22 15.1201 29.82L14.5501 30.1C14.0601 30.35 13.8601 30.95 14.1101 31.44C14.3501 31.94 14.9601 32.14 15.4501 31.89L16.0101 31.61C16.6101 31.31 17.3201 31.33 17.9001 31.66L18.5201 32.01C19.7501 32.72 21.2601 32.72 22.4901 32.01L23.0101 31.71C23.6201 31.36 24.3801 31.36 24.9901 31.71L25.5201 32.01C26.7501 32.72 28.2601 32.72 29.4901 32.01L30.1001 31.66C30.6801 31.33 31.3901 31.31 31.9901 31.61L32.5501 31.89C33.0501 32.14 33.6501 31.94 33.9001 31.44C34.1401 30.95 33.9401 30.35 33.4501 30.1Z" fill="#FEE600"/>
</svg>
