<svg width="48" height="48" viewBox="0 0 48 48" fill="none" xmlns="http://www.w3.org/2000/svg">
<rect width="48" height="48" rx="12" fill="#2B2D33"/>
<path d="M26 22H28V20H26V22ZM24 30V18H32V20H30V22H32V24H30V26H32V30H28V28H26V30H24ZM26 26H28V24H26V26ZM18 26H20V24H18V26ZM22 17V21.33H21.88C21.61 20.49 20.98 20 20 20H15C14.45 20 14 20.45 14 21V31C14 31.55 14.45 32 15 32H33C33.55 32 34 31.55 34 31V17C34 16.45 33.55 16 33 16H23C22.45 16 22 16.45 22 17ZM16 22H22V30H20V28H18V30H16V22Z" fill="#FEE600"/>
</svg>
