<svg width="48" height="48" viewBox="0 0 48 48" fill="none" xmlns="http://www.w3.org/2000/svg">
<rect width="48" height="48" rx="12" fill="#2B2D33"/>
<path d="M26 22.67V29H22V24H24C24.97 24 25.61 23.51 25.88 22.67H26ZM26 29.67V33H28V19.41L29 18.41L30 19.41V33H32V31H34V29H32V24H34V22H32V19C32 18.73 31.9 18.48 31.71 18.29L29.71 16.29C29.32 15.9 28.69 15.9 28.29 16.29L26.29 18.29C26.11 18.48 26 18.73 26 19V22H22V19C22 18.73 21.9 18.48 21.71 18.29L19.71 16.29C19.32 15.9 18.69 15.9 18.29 16.29L16.29 18.29C16.11 18.48 16 18.73 16 19V22H14V24H16V29H14V31H16V33H18V19.41L19 18.41L20 19.41V33H22V31H24C24.97 31 25.61 30.51 25.88 29.67H26Z" fill="#FEE600"/>
</svg>
