<svg width="48" height="48" viewBox="0 0 48 48" fill="none" xmlns="http://www.w3.org/2000/svg">
<rect width="48" height="48" rx="12" fill="#2B2D33"/>
<path d="M29 21.67C28.07 20.29 26.18 19 24 19C21.82 19 19.93 20.29 19 21.67V29H21V22.37C21.63 21.66 22.69 21 24 21C25.31 21 26.37 21.66 27 22.37V29H29V21.67ZM24 28.5C23.11 28.5 22.53 27.83 22.53 27.07C22.53 26.12 23.01 25.67 23.51 23.93C23.6 23.61 23.79 23.5 24 23.5C24.21 23.5 24.4 23.61 24.49 23.93C24.98 25.67 25.47 26.12 25.47 27.07C25.47 27.83 24.89 28.5 24 28.5ZM34 31V33H14V31H34ZM32.33 17H15.67V17.12C16.51 17.39 17 18.03 17 19V29H15V17H14V15H34V17H33V29H31V19C31 18.03 31.49 17.39 32.33 17.12V17Z" fill="#FEE600"/>
</svg>
