<svg width="48" height="48" viewBox="0 0 48 48" fill="none" xmlns="http://www.w3.org/2000/svg">
<rect width="48" height="48" rx="12" fill="#2B2D33"/>
<path d="M25.15 26.15L25.74 30.85L26.29 30.29C26.69 29.9 27.32 29.9 27.71 30.29L30 32.59L31.59 31L29.29 28.71C28.9 28.32 28.9 27.68 29.29 27.29L29.85 26.74L25.15 26.15ZM23.26 24.26C23.48 24.04 23.8 23.97 24.13 24.01L32.13 25.01C32.5 25.06 32.82 25.31 32.95 25.68C33.07 26.04 32.98 26.44 32.71 26.71L31.42 28L33.71 30.29C34.1 30.68 34.1 31.32 33.71 31.71L30.71 34.71C30.32 35.1 29.69 35.1 29.29 34.71L27 32.41L25.71 33.71C25.44 33.98 25.04 34.07 24.68 33.95C24.32 33.82 24.06 33.5 24.01 33.12L23.01 25.12C22.97 24.8 23.05 24.48 23.26 24.26ZM23 16.36L30.32 23.23L31.69 21.77L23.69 14.27C23.3 13.91 22.71 13.91 22.32 14.27L14.32 21.67C14.12 21.86 14 22.12 14 22.4V24C14 24.6 14.47 25 15 25H16V32C16 32.55 16.45 33 17 33H22V31H18V23H14.9V22.88C15.68 22.88 16.11 22.74 16.69 22.2L23 16.36Z" fill="#FEE600"/>
</svg>
