<svg width="48" height="48" viewBox="0 0 48 48" fill="none" xmlns="http://www.w3.org/2000/svg">
<rect width="48" height="48" rx="12" fill="#2B2D33"/>
<path d="M31 16H33V14H31V16ZM27 16H29V14H27V16ZM23 16H25V14H23V16ZM19 16H21V14H19V16ZM20 24H28V22H20V24ZM15 16H17V14H15V16ZM21.88 33.33C21.76 32.49 21.15 32 20.26 32H18V20H30V32H27.74C26.85 32 26.24 32.49 26.12 33.33H26V30H22V33.33H21.88ZM20 28H28V26H20V28ZM17 34H31C31.55 34 32 33.55 32 33V19C32 18.45 31.55 18 31 18H17C16.45 18 16 18.45 16 19V33C16 33.55 16.45 34 17 34Z" fill="#FEE600"/>
</svg>
