<svg width="48" height="48" viewBox="0 0 48 48" fill="none" xmlns="http://www.w3.org/2000/svg">
<rect width="48" height="48" rx="12" fill="#2B2D33"/>
<path d="M33 14V32H35V34H25V32H27V29H29V32H31V15H21V25H19V14C19 13.45 19.45 13 20 13H32C32.55 13 33 13.45 33 14ZM14 32H20.97V32.14C19.51 32.45 19 33.51 19 35H21C21.01 33.68 21.69 32.53 23.29 31.97C23.8 31.79 24 31.45 24 30.99C24 30.54 23.8 30.2 23.29 30.02C21.69 29.45 21.01 28.3 21 26.98H19C19 28.46 19.51 29.56 20.97 29.86V30H14V32ZM23 19H29V17H23V19ZM29 27H23V25H29V27ZM23 23H29V21H23V23Z" fill="#FEE600"/>
</svg>
