<svg width="24" height="24" viewBox="0 0 24 24" fill="none" xmlns="http://www.w3.org/2000/svg">
<path d="M7 14H5V17H2V19H5V22H7V19H10V17H7V14Z" fill="white"/>
<path d="M20.03 4.01H18.03C17.06 4.01 16.42 4.5 16.15 5.34H16.03V2H14.03V4.01H12.03C11.06 4.01 10.42 4.5 10.15 5.34H10.03V2H8.03V4H4.03C3.45 4 3.03 4.41 3.03 5V12H19.03V18H12V20H20.03C20.62 20 21.03 19.59 21.03 19V5C21.03 4.41 20.62 4.01 20.03 4.01ZM19.03 10H5.03V6H8.03V8H10.03V7.01C10.03 6.46 10.38 6.01 11.03 6.01H14.03V8H16.03V7.01C16.03 6.46 16.38 6.01 17.03 6.01H19.03V10Z" fill="white"/>
<path d="M17.64 15.01C17.64 14.12 16.92 13.4 16.03 13.4C15.15 13.4 14.43 14.12 14.43 15.01C14.43 15.89 15.15 16.61 16.03 16.61C16.92 16.61 17.64 15.9 17.64 15.01Z" fill="white"/>
</svg>
