<svg width="24" height="24" viewBox="0 0 24 24" fill="none" xmlns="http://www.w3.org/2000/svg">
<path d="M16.95 8.46L15.54 7.05L13.41 9.17C12.78 9.81 12.68 10.7 13.03 11.43L12.94 11.53L8.46 7.05L7.05 8.46L9.88 11.29C10.25 11.66 10.32 12.27 9.88 12.71L7.05 15.54L8.46 16.95L10.59 14.83C11.22 14.19 11.32 13.3 10.97 12.57L11.06 12.47L15.54 16.95L16.95 15.54L14.12 12.71C13.75 12.34 13.68 11.73 14.12 11.29L16.95 8.46Z" fill="white"/>
<path d="M12 2C6.48 2 2 6.48 2 12C2 17.52 6.48 22 12 22C17.52 22 22 17.52 22 12C22 6.48 17.52 2 12 2ZM12 20C7.58 20 4 16.42 4 12C4 7.58 7.58 4 12 4C16.42 4 20 7.58 20 12C20 16.42 16.42 20 12 20Z" fill="white"/>
</svg>
