<svg width="24" height="24" viewBox="0 0 24 24" fill="none" xmlns="http://www.w3.org/2000/svg">
<path d="M12 2C6.48 2 2 6.48 2 12C2 17.52 6.48 22 12 22C17.52 22 22 17.52 22 12C22 6.48 17.52 2 12 2ZM14.12 12.71L16.95 15.54L15.54 16.95L11.06 12.47L10.97 12.57C11.32 13.3 11.22 14.19 10.59 14.83L8.46 16.95L7.05 15.54L9.88 12.71C10.32 12.27 10.25 11.66 9.88 11.29L7.05 8.46L8.46 7.05L12.94 11.53L13.03 11.43C12.68 10.7 12.78 9.81 13.41 9.17L15.54 7.05L16.95 8.46L14.12 11.29C13.68 11.73 13.75 12.34 14.12 12.71Z" fill="white"/>
</svg>
