<svg width="24" height="24" viewBox="0 0 24 24" fill="none" xmlns="http://www.w3.org/2000/svg">
<path d="M8.25 13.25C8.94036 13.25 9.5 12.6904 9.5 12C9.5 11.3096 8.94036 10.75 8.25 10.75C7.55964 10.75 7 11.3096 7 12C7 12.6904 7.55964 13.25 8.25 13.25Z" fill="white"/>
<path d="M13.25 12C13.25 12.6904 12.6904 13.25 12 13.25C11.3096 13.25 10.75 12.6904 10.75 12C10.75 11.3096 11.3096 10.75 12 10.75C12.6904 10.75 13.25 11.3096 13.25 12Z" fill="white"/>
<path d="M15.75 13.25C16.4404 13.25 17 12.6904 17 12C17 11.3096 16.4404 10.75 15.75 10.75C15.0596 10.75 14.5 11.3096 14.5 12C14.5 12.6904 15.0596 13.25 15.75 13.25Z" fill="white"/>
<path fill-rule="evenodd" clip-rule="evenodd" d="M12 2C6.47715 2 2 6.47715 2 12C2 17.5228 6.47715 22 12 22C17.5228 22 22 17.5228 22 12C22 6.47715 17.5228 2 12 2ZM4 12C4 7.58172 7.58172 4 12 4C16.4183 4 20 7.58172 20 12C20 16.4183 16.4183 20 12 20C7.58172 20 4 16.4183 4 12Z" fill="white"/>
</svg>
