<svg width="24" height="24" viewBox="0 0 24 24" fill="none" xmlns="http://www.w3.org/2000/svg">
<path d="M15 20V14C15 13.03 14.51 12.39 13.67 12.12V12H20V18C20 18.97 20.49 19.61 21.33 19.88V20H15ZM15 6V4H20V6H15ZM14 8H21C21.55 8 22 7.55 22 7V3C22 2.45 21.55 2 21 2H14C13.45 2 13 2.45 13 3V7C13 7.55 13.45 8 14 8ZM4 12V6C4 5.03 3.51 4.39 2.67 4.12V4H9V10C9 10.97 9.49 11.61 10.33 11.88V12H4ZM3 14H10C10.55 14 11 13.55 11 13V3C11 2.45 10.55 2 10 2H3C2.45 2 2 2.45 2 3V13C2 13.55 2.45 14 3 14ZM4 20V18H9V20H4ZM3 22H10C10.55 22 11 21.55 11 21V17C11 16.45 10.55 16 10 16H3C2.45 16 2 16.45 2 17V21C2 21.55 2.45 22 3 22ZM14 22H21C21.55 22 22 21.55 22 21V11C22 10.45 21.55 10 21 10H14C13.45 10 13 10.45 13 11V21C13 21.55 13.45 22 14 22Z" fill="white"/>
</svg>
