<svg width="24" height="24" viewBox="0 0 24 24" fill="none" xmlns="http://www.w3.org/2000/svg">
<path d="M9.29977 13.7997L2.29948 20.8L3.69953 22.2L10.6998 15.1997L9.29977 13.7997Z" fill="white"/>
<path d="M3.5 16.5C4.32843 16.5 5 15.8284 5 15C5 14.1716 4.32843 13.5 3.5 13.5C2.67157 13.5 2 14.1716 2 15C2 15.8284 2.67157 16.5 3.5 16.5Z" fill="white"/>
<path d="M9.5 22.5C10.3284 22.5 11 21.8284 11 21C11 20.1716 10.3284 19.5 9.5 19.5C8.67157 19.5 8 20.1716 8 21C8 21.8284 8.67157 22.5 9.5 22.5Z" fill="white"/>
<path d="M20.53 3.01H18.53C17.56 3.01 16.92 3.5 16.65 4.34H16.53V1H14.53V3.01H12.53C11.56 3.01 10.92 3.5 10.65 4.34H10.53V1H8.53V3H4.53C3.95 3 3.53 3.41 3.53 4V11H19.53V17H12.5V19H20.53C21.12 19 21.53 18.59 21.53 18V4C21.53 3.41 21.12 3.01 20.53 3.01ZM19.53 9H5.53V5H8.53V7H10.53V6.01C10.53 5.46 10.88 5.01 11.53 5.01H14.53V7H16.53V6.01C16.53 5.46 16.88 5.01 17.53 5.01H19.53V9Z" fill="white"/>
</svg>
