<svg width="24" height="24" viewBox="0 0 24 24" fill="none" xmlns="http://www.w3.org/2000/svg">
<path d="M1.39991 11.11L4.98991 14.3C5.65991 14.88 6.38991 15.1 7.11991 15.04L7.15991 15.17C6.52991 15.54 6.06991 16.14 5.86991 17.02L4.83991 21.69C4.61991 22.68 5.59991 23.33 6.42991 22.85L10.5799 20.44C11.3499 19.98 11.7799 19.34 11.9399 18.63H12.0699C12.2299 19.34 12.6599 19.99 13.4299 20.44L17.5799 22.85C18.4099 23.33 19.3899 22.68 19.1699 21.69L18.1399 17.02C17.9499 16.14 17.4799 15.54 16.8499 15.17L16.8899 15.04C17.6099 15.1 18.3499 14.89 19.0099 14.3L22.5999 11.11C23.3199 10.47 23.0199 9.34 21.9899 9.24L17.2199 8.77C16.3099 8.68 15.5799 8.95 15.0299 9.44L14.9399 9.37C15.2399 8.7 15.2599 7.93 14.8999 7.09L12.9799 2.71C12.7599 2.21 12.4199 2 11.9899 2C11.5599 2 11.2399 2.21 11.0199 2.71L9.09991 7.09C8.73991 7.92 8.74991 8.7 9.05991 9.36L8.95991 9.44C8.41991 8.95 7.68991 8.7 6.77991 8.77L1.99991 9.24C0.979913 9.34 0.669913 10.47 1.39991 11.11Z" fill="white"/>
</svg>
