<svg width="24" height="24" viewBox="0 0 24 24" fill="none" xmlns="http://www.w3.org/2000/svg">
<path fill-rule="evenodd" clip-rule="evenodd" d="M12 2C6.47715 2 2 6.47715 2 12C2 17.5228 6.47715 22 12 22C17.5228 22 22 17.5228 22 12C22 6.47715 17.5228 2 12 2ZM9 9.75537C9.01758 8.9248 9.30322 8.26343 9.85693 7.77124C10.4282 7.25708 11.2104 7 12.2036 7C13.1396 7 13.8977 7.2373 14.4778 7.71191C15.0491 8.18213 15.3347 8.79517 15.3347 9.55103C15.3347 10.4871 14.8645 11.2319 13.9241 11.7856C13.4846 12.0405 13.188 12.269 13.0342 12.4712C12.8804 12.6733 12.8035 12.937 12.8035 13.2622V13.6116H11.0566L11.0435 13.2292C10.9995 12.7195 11.072 12.2954 11.261 11.957C11.4456 11.6362 11.7686 11.3396 12.23 11.0671C12.6562 10.8123 12.9463 10.5837 13.1001 10.3816C13.2583 10.1794 13.3374 9.92236 13.3374 9.61035C13.3374 9.29395 13.2231 9.03467 12.9946 8.83252C12.7617 8.63037 12.4585 8.5293 12.085 8.5293C11.707 8.5293 11.4016 8.64136 11.1687 8.86548C10.9358 9.08521 10.8083 9.38184 10.7864 9.75537H9ZM13.25 15.75C13.25 16.4404 12.6904 17 12 17C11.3096 17 10.75 16.4404 10.75 15.75C10.75 15.0596 11.3096 14.5 12 14.5C12.6904 14.5 13.25 15.0596 13.25 15.75Z" fill="white"/>
</svg>
