<svg width="24" height="24" viewBox="0 0 24 24" fill="none" xmlns="http://www.w3.org/2000/svg">
<path d="M5.91 19.93C6.26 20.2 6.62 20.44 7 20.66C7.38 20.88 7.77 21.07 8.17 21.24L8.94 19.39C8.62 19.26 8.3 19.1 8 18.93C7.7 18.75 7.41 18.56 7.13 18.35L5.91 19.93ZM3.34 17C3.12 16.62 2.93 16.23 2.76 15.83L4.61 15.06C4.74 15.38 4.9 15.7 5.07 16C5.25 16.3 5.44 16.59 5.65 16.87L4.07 18.09C3.8 17.74 3.56 17.38 3.34 17ZM2.09 10.69C2.03 11.13 2 11.56 2 12C2 12.44 2.03 12.87 2.09 13.31L4.07 13.04C4.02 12.7 4 12.35 4 12C4 11.65 4.02 11.3 4.07 10.96L2.09 10.69ZM3.34 7C3.56 6.62 3.8 6.26 4.07 5.91L5.65 7.13C5.44 7.41 5.25 7.7 5.07 8C4.9 8.3 4.74 8.62 4.61 8.94L2.76 8.17C2.93 7.77 3.12 7.38 3.34 7ZM8.17 2.76C7.77 2.93 7.38 3.12 7 3.34C6.62 3.56 6.26 3.8 5.91 4.07L7.13 5.65C7.41 5.44 7.7 5.25 8 5.07C8.3 4.9 8.62 4.74 8.94 4.61L8.17 2.76ZM10.69 21.91L10.96 19.93C11.3 19.98 11.65 20 12 20C16.42 20 20 16.42 20 12C20 7.58 16.42 4 12 4C11.66 4 11.32 4.02 10.99 4.06L10.72 2.08C11.14 2.03 11.57 2 12 2C17.52 2 22 6.48 22 12C22 17.52 17.52 22 12 22C11.56 22 11.12 21.97 10.69 21.91ZM11.72 12.21C12.91 11.94 13.61 12.25 14.49 13.13L16.21 14.84L14.79 16.26L11.59 13.05C11.22 12.67 11 12.17 11 11.64V6.01H13V9.61C13 10.85 12.69 11.45 11.67 12.11L11.72 12.21Z" fill="white"/>
</svg>
