<svg width="24" height="24" viewBox="0 0 24 24" fill="none" xmlns="http://www.w3.org/2000/svg">
<path d="M20.71 11.2901L12.71 3.29006C12.32 2.90006 11.69 2.90006 11.3 3.29006L3.3 11.2901C3.11 11.4801 3 11.7301 3 12.0001V20.0001C3 20.5501 3.45 21.0001 4 21.0001H10C10.55 21.0001 11 20.5501 11 20.0001V16.0001H13V20.0001C13 20.5501 13.45 21.0001 14 21.0001H20C20.55 21.0001 21 20.5501 21 20.0001V12.0001C21 11.7301 20.89 11.4801 20.71 11.2901ZM20.31 19.0001H15V15.0001C15 14.4501 14.55 14.0001 14 14.0001H10C9.45 14.0001 9 14.4501 9 15.0001V19.0001H3.67V18.8801C4.44 18.6001 5 17.8701 5 17.0001V12.4101L12 5.41006L18.98 12.4101V17.0001C18.98 17.8701 19.54 18.6001 20.31 18.8801V19.0001Z" fill="white"/>
</svg>
