<svg width="24" height="24" viewBox="0 0 24 24" fill="none" xmlns="http://www.w3.org/2000/svg">
<path d="M19.33 18H6V17C6 16.03 5.51 15.39 4.67 15.12V15H18V16C18 16.97 18.49 17.61 19.33 17.88V18ZM19.33 9H6V8C6 7.03 5.51 6.39 4.67 6.12V6H18V7C18 7.97 18.49 8.61 19.33 8.88V9ZM4 10C4 10.55 4.45 11 5 11H19C19.55 11 20 10.55 20 10V5C20 4.45 19.55 4 19 4H5C4.45 4 4 4.45 4 5V10ZM4 19C4 19.55 4.45 20 5 20H19C19.55 20 20 19.55 20 19V14C20 13.45 19.55 13 19 13H5C4.45 13 4 13.45 4 14V19Z" fill="white"/>
</svg>
