<svg width="24" height="24" viewBox="0 0 24 24" fill="none" xmlns="http://www.w3.org/2000/svg">
<path d="M1 11H9V9H1V11ZM16 7H1V5H16V7ZM11 16C11 13.2 13.2 11 16 11C18.8 11 21 13.2 21 16C21 18.8 18.8 21 16 21C13.2 21 11 18.8 11 16ZM16 9C12.1 9 9 12.1 9 16C9 19.9 12.1 23 16 23C19.9 23 23 19.9 23 16C23 12.1 19.9 9 16 9ZM14.6 13.2C14.6 12.4 15.2 11.8 16 11.8C16.8 11.8 17.4 12.4 17.4 13.2C17.4 14 16.8 14.6 16 14.6C15.2 14.6 14.6 14 14.6 13.2ZM17 19.5V15.5H15V19.5H17ZM1 3H16V1H1V3Z" fill="white"/>
</svg>
