<svg width="24" height="24" viewBox="0 0 24 24" fill="none" xmlns="http://www.w3.org/2000/svg">
<path d="M20.01 12.01C20.01 16.43 16.43 20.01 12.01 20.01C10.16 20.01 8.46 19.38 7.1 18.33L19.31 6.12L19.39 6.21C18.96 6.8 18.92 7.9 19.25 8.6C19.74 9.64 20.01 10.79 20.01 12.01ZM4 12C4 7.58 7.58 4 12 4C13.85 4 15.55 4.63 16.91 5.68L4.7 17.89L4.62 17.8C5.05 17.21 5.09 16.11 4.76 15.41C4.27 14.37 4 13.22 4 12ZM12 2C6.48 2 2 6.48 2 12C2 17.52 6.48 22 12 22C17.52 22 22 17.52 22 12C22 6.48 17.52 2 12 2Z" fill="white"/>
</svg>
