<svg width="24" height="24" viewBox="0 0 24 24" fill="none" xmlns="http://www.w3.org/2000/svg">
<path d="M21.8202 20H5.88022C4.57022 20 3.84022 20.4 3.06022 21.35H2.93022L10.9402 6.97C11.5602 5.85 11.6102 4.95 11.1802 3.8L11.2402 3.69L19.2202 18.08C19.8502 19.22 20.5502 19.66 21.7702 19.88L21.8202 20ZM11.0002 15H13.0002V10H11.0002V15ZM12.0002 18.75C12.6902 18.75 13.2502 18.19 13.2502 17.5C13.2502 16.81 12.6902 16.25 12.0002 16.25C11.3102 16.25 10.7502 16.81 10.7502 17.5C10.7502 18.19 11.3102 18.75 12.0002 18.75ZM2.00022 22H22.0002C22.8602 22 23.2502 21.16 22.8002 20.35L12.8702 2.51C12.4902 1.83 11.5102 1.83 11.1302 2.51L1.16022 20.43C0.750222 21.16 1.14022 22 2.00022 22Z" fill="white"/>
</svg>
