<svg width="24" height="24" viewBox="0 0 24 24" fill="none" xmlns="http://www.w3.org/2000/svg">
<path d="M5.37183 21.7272L12 15.0433L18.6282 21.7272L21.2577 19.0782L14.6285 12.3919L16.0113 10.9963V8.24085L16.9723 7.27127V9.6743L17.8079 10.5177L21.1687 7.12736L22 7.9654C21.9937 7.33319 21.8686 5.50348 20.3295 3.97799C18.669 2.36682 16.8757 3.09275 16.2625 3.71192L12.9043 7.10058L13.7607 7.96373L12 9.74056L10.2389 7.96373L11.0957 7.10058L7.73685 3.71192C7.12361 3.09275 5.33035 2.36682 3.66982 3.97799C2.13108 5.50348 2.00597 7.33319 2 7.9654L2.83126 7.12736L6.1918 10.5177L7.02771 9.6743V7.27127L7.98805 8.24085V10.9963L9.37083 12.3919L2.74199 19.0782L5.37183 21.7272Z" fill="#2B2D33"/>
</svg>
