<svg width="48" height="48" viewBox="0 0 48 48" fill="none" xmlns="http://www.w3.org/2000/svg">
<rect width="48" height="48" rx="12" fill="#2B2D33"/>
<path d="M20 21.99C20 21.44 20.45 20.99 21 20.99C21.55 20.99 22 21.44 22 21.99C22 22.55 21.55 22.99 21 22.99C20.45 22.99 20 22.55 20 21.99ZM20 31.4V27.99C20 27.44 20.45 26.99 21 26.99C21.55 26.99 22 27.44 22 27.99V32.29L20 31.4ZM18 21.99C18 23.65 19.35 24.99 21 24.99C22.66 24.99 24 23.65 24 21.99C24 20.34 22.66 18.99 21 18.99C19.35 18.99 18 20.34 18 21.99ZM16 28.32V19.67C16 18.79 16.38 18.2 17.19 17.84L23.19 15.18C23.45 15.06 23.73 15.01 24 15.01C24.28 15.01 24.56 15.07 24.81 15.18L30.81 17.84C31.43 18.11 31.79 18.48 31.9 18.99H26V20.99H30.13C31.17 20.99 31.7 20.52 31.88 19.54H32V22.99H26V24.99H30.13C31.17 24.99 31.7 24.52 31.88 23.54H32V26.99H26V28.99H30.13C31.17 28.99 31.7 28.51 31.88 27.52H32V28.27C32 29.29 31.68 29.76 30.81 30.15L24.81 32.82C24.56 32.93 24.28 32.99 24 32.99V27.99C24 26.34 22.66 24.99 21 24.99C19.35 24.99 18 26.34 18 27.99V30.51L17.19 30.15C16.39 29.8 16 29.2 16 28.32ZM14 28.32C14 29.95 14.86 31.3 16.38 31.98L22.38 34.65C22.9 34.88 23.45 35 24 35C24.56 35 25.11 34.88 25.63 34.65L31.63 31.98C33.14 31.31 34 29.95 34 28.32V19.67C34 18.04 33.14 16.69 31.63 16.02L25.63 13.35C25.11 13.12 24.56 13 24 13C23.45 13 22.9 13.12 22.38 13.35L16.38 16.02C14.86 16.7 14 18.04 14 19.67V28.32Z" fill="#FEE600"/>
</svg>
