<svg width="48" height="48" viewBox="0 0 48 48" fill="none" xmlns="http://www.w3.org/2000/svg">
<rect width="48" height="48" rx="12" fill="#2B2D33"/>
<path d="M28.94 16.2799C29.33 15.8899 29.96 15.8899 30.35 16.2799L30.52 16.4499C30.91 16.8399 30.91 17.4799 30.52 17.8699L29.64 18.7499L28.06 17.1599L28.94 16.2799ZM26.64 21.7499L25.06 20.1599L26.64 18.5699L28.23 20.1599L26.64 21.7499ZM23.64 24.7499L22.06 23.1599L23.64 21.5699L25.23 23.1599L23.64 24.7499ZM23.29 32.1599V32.0399C24.61 32.0399 25.49 31.8599 26.5 31.3499L28.03 30.5799C28.28 30.4599 28.58 30.5099 28.77 30.6999C29.03 30.9599 29.03 31.3599 28.77 31.6199L28.56 31.8399C28.33 32.0599 28.08 32.1599 27.81 32.1599H23.29ZM18.94 28.0399L18.76 27.8699C18.36 27.4899 18.37 26.8399 18.76 26.4499L20.64 24.5699L22.23 26.1599L20.35 28.0399C19.96 28.4299 19.34 28.4199 18.94 28.0399ZM17.68 34.1599H27.81C28.64 34.1599 29.32 33.8999 29.95 33.2699L30.19 33.0299C31.22 31.9999 31.22 30.3199 30.19 29.2899C29.38 28.4799 28.15 28.2899 27.14 28.7999L20.41 32.1599H17.68C17.42 32.1599 17.19 32.0199 17.08 31.7899C16.95 31.5299 17 31.2199 17.2 31.0199L18.24 29.9799C19.37 30.5799 20.8 30.3999 21.76 29.4499L31.94 19.2799C33.11 18.1099 33.14 16.1799 31.94 15.0399L31.76 14.8699C30.56 13.7299 28.69 13.6999 27.52 14.8699L17.35 25.0399C16.33 26.0599 16.04 27.9499 17.33 29.1799L17.26 29.2599C16.76 29.0199 16.15 29.2399 15.79 29.5999C14.97 30.4199 14.77 31.6599 15.29 32.6799C15.75 33.5799 16.66 34.1599 17.68 34.1599Z" fill="#FEE600"/>
</svg>
