<svg width="48" height="48" viewBox="0 0 48 48" fill="none" xmlns="http://www.w3.org/2000/svg">
<rect width="48" height="48" rx="12" fill="#2B2D33"/>
<path d="M28 31V29H30V27H28V25H30V23H28V21H30V19H24V17H32V31H28ZM22 25H24V23H22V25ZM16 31V21H26V31H20V27H18V31H16ZM22 29H24V27H22V29ZM18 25H20V23H18V25ZM23.33 19H20V17H18V19H15C14.45 19 14 19.45 14 20V32C14 32.55 14.45 33 15 33H33C33.55 33 34 32.55 34 32V16C34 15.45 33.55 15 33 15H23C22.45 15 22 15.45 22 16V17C22 17.97 22.49 18.61 23.33 18.88V19Z" fill="#FEE600"/>
</svg>
