<svg width="48" height="48" viewBox="0 0 48 48" fill="none" xmlns="http://www.w3.org/2000/svg">
<rect width="48" height="48" rx="12" fill="#2B2D33"/>
<path d="M18 31.88V18C18 17.03 17.51 16.39 16.67 16.12V16H31.33V16.12C30.49 16.39 30 17.03 30 18V31.88L28.45 31.11C28.17 30.97 27.84 30.96 27.55 31.11L26 31.88L24.45 31.11C24.17 30.97 23.84 30.96 23.55 31.11L22 31.88L20.45 31.11C20.17 30.97 19.84 30.96 19.55 31.11L18 31.88ZM20.9 28.49L28.5 20.9L27.1 19.5L19.5 27.09L20.9 28.49ZM27 28.85C27.99 28.85 28.85 27.99 28.85 27C28.85 26.01 27.99 25.15 27 25.15C26.02 25.15 25.15 26.01 25.15 27C25.15 27.99 26.02 28.85 27 28.85ZM21 22.85C21.99 22.85 22.85 21.99 22.85 21C22.85 20.01 21.99 19.15 21 19.15C20.02 19.15 19.15 20.01 19.15 21C19.15 21.99 20.02 22.85 21 22.85ZM17 34H18C18.16 34 18.31 33.96 18.45 33.89L20 33.12L21.55 33.89C21.84 34.04 22.17 34.03 22.45 33.89L24 33.12L25.55 33.89C25.84 34.04 26.17 34.03 26.45 33.89L28 33.12L29.55 33.89C29.69 33.96 29.85 34 30 34H31C31.55 34 32 33.55 32 33V16H34V14H14V16H16V33C16 33.55 16.45 34 17 34Z" fill="#FEE600"/>
</svg>
