<svg width="24" height="24" viewBox="0 0 24 24" fill="none" xmlns="http://www.w3.org/2000/svg">
<g clip-path="url(#clip0_347_2829)">
<path d="M14.7801 14H9.25008V13.88C10.2801 13.78 10.6601 13.41 10.7501 12.44L11.0101 9.59C11.0501 9.18 10.8301 8.79 10.4601 8.61L7.46008 7.11L6.56008 8.89L8.95008 10.09L8.52008 14.91C8.46008 15.56 8.89008 16 9.51008 16H14.5101C15.1501 16 15.5701 15.56 15.5101 14.91L15.0701 10.09L17.4601 8.89L16.5601 7.11L13.5601 8.61C13.2001 8.79 12.9801 9.18 13.0201 9.59L13.2801 12.44C13.3701 13.41 13.7501 13.78 14.7801 13.88V14ZM12.0101 20C8.86008 20 5.71008 18.38 4.07008 15.8L5.47008 8.78C5.55008 8.37 5.37008 7.95 5.00008 7.73C4.41008 7.38 4.01008 6.73 4.01008 6C4.01008 4.9 4.91008 4 6.01008 4C6.55008 4 7.03008 4.21 7.39008 4.55C7.68008 4.83 8.12008 4.91 8.49008 4.74C9.43008 4.31 10.6101 4 12.0101 4C13.4101 4 14.6001 4.31 15.5401 4.74C15.9101 4.91 16.3401 4.83 16.6301 4.55C16.9901 4.21 17.4801 4 18.0101 4C19.1201 4 20.0101 4.9 20.0101 6C20.0101 6.73 19.6201 7.38 19.0201 7.73C18.6601 7.94 18.4701 8.37 18.5501 8.78L19.9501 15.8C18.3101 18.38 15.1601 20 12.0101 20ZM12.0101 22C16.0101 22 19.5101 20.09 21.8401 16.57C22.0201 16.3 22.0501 16.08 21.9901 15.8L20.6401 9.02C21.4801 8.29 22.0101 7.21 22.0101 6C22.0101 3.79 20.2201 2 18.0101 2C17.1901 2 16.4201 2.25 15.7801 2.68C14.7201 2.28 13.4601 2 12.0101 2C10.5701 2 9.30008 2.28 8.24008 2.68C7.61008 2.25 6.84008 2 6.01008 2C3.80008 2 2.01008 3.79 2.01008 6C2.01008 7.21 2.55008 8.29 3.39008 9.02L2.03008 15.8C1.97008 16.08 1.99008 16.29 2.18008 16.57C4.50008 20.09 8.01008 22 12.0101 22Z" fill="#FEE600"/>
</g>
<defs>
<clipPath id="clip0_347_2829">
<rect width="20.02" height="20" fill="white" transform="translate(2 2)"/>
</clipPath>
</defs>
</svg>
