<svg width="24" height="24" viewBox="0 0 24 24" fill="none" xmlns="http://www.w3.org/2000/svg">
<path d="M16 12.25C16.69 12.25 17.25 11.69 17.25 11C17.25 10.31 16.69 9.74997 16 9.74997C15.3 9.74997 14.75 10.31 14.75 11C14.75 11.69 15.3 12.25 16 12.25ZM12 21C10.54 21 9.32 20.65 8 19.93C6.91 19.33 6.84 19.2 5.84 19.12V19H9C9 17.7 8.3 17 7 17H5.07C4.86 16.63 4.77 16.45 4.58 16.02C4.31 15.39 3.97 15.16 3.2 15.12V15H8C8 13.7 7.3 13 6 13H4L4.78 5.19997L7.29 7.70997C7.48 7.88997 7.73 7.99997 8 7.99997H16C16.26 7.99997 16.52 7.88997 16.7 7.70997L19.22 5.19997L20 13H18C16.7 13 16 13.7 16 15H20.8V15.12C20.03 15.16 19.7 15.39 19.42 16.02C19.23 16.45 19.14 16.63 18.93 17H17C15.7 17 15 17.7 15 19H18.16V19.12C17.16 19.2 17.09 19.33 16 19.93C14.68 20.66 13.46 21 12 21ZM8 12.25C8.69 12.25 9.25 11.69 9.25 11C9.25 10.31 8.69 9.74997 8 9.74997C7.3 9.74997 6.75 10.31 6.75 11C6.75 11.69 7.3 12.25 8 12.25ZM12 16.25C12.69 16.25 13.25 15.69 13.25 15C13.25 14.31 12.69 13.75 12 13.75C11.3 13.75 10.75 14.31 10.75 15C10.75 15.69 11.3 16.25 12 16.25ZM12 23C15.27 23 18.17 21.43 20 19H21C22.3 19 23 18.2 23 17H21.16C21.44 16.36 21.66 15.7 21.8 15H22C23.3 15 24 14.2 24 13H22C22 12.97 21.99 12.93 21.99 12.9L20.99 2.89997C20.95 2.51997 20.7 2.18997 20.33 2.05997C19.97 1.92997 19.56 2.01997 19.29 2.28997L15.58 5.99997H8.41L4.7 2.28997C4.43 2.01997 4.02 1.92997 3.66 2.05997C3.3 2.18997 3.04 2.51997 3 2.89997L2 12.9C2 12.93 2 12.97 2 13H0C0 14.2 0.69 15 2 15H2.2C2.34 15.7 2.55 16.36 2.83 17H1C1 18.2 1.69 19 3 19H4C5.82 21.43 8.72 23 12 23Z" fill="#FEE600"/>
</svg>
