<svg width="24" height="24" viewBox="0 0 24 24" fill="none" xmlns="http://www.w3.org/2000/svg">
<path d="M9.99986 13.55L11.4099 12.13C11.5999 11.95 11.8599 11.84 12.1199 11.84C14.6399 11.84 16.5799 13.88 17.7499 16.66C18.3599 14.75 18.2599 12.99 17.9499 11.6C17.7299 10.63 17.4099 9.83997 17.1399 9.28997C17.0099 9.00997 16.8899 8.79997 16.8099 8.65997C16.7699 8.58997 16.7399 8.53997 16.7199 8.50997C16.7099 8.49997 16.7099 8.48997 16.6999 8.48997C16.6999 8.47997 16.6999 8.47997 16.6999 8.47997L16.6899 8.46997C16.3899 8.02997 16.4999 7.41997 16.9299 7.10997L18.8599 5.68997C17.8999 5.56997 16.7199 5.61997 15.5499 6.16997C15.1899 6.33997 14.7699 6.28997 14.4699 6.02997L14.4399 6.00997C14.4199 5.98997 14.3799 5.95997 14.3299 5.91997C14.2299 5.83997 14.0699 5.71997 13.8699 5.58997C13.4699 5.31997 12.8799 4.96997 12.1799 4.67997C10.7599 4.07997 8.93986 3.69997 7.05986 4.38997C6.87986 4.44997 6.67986 4.46997 6.48986 4.41997L4.77986 4.01997C4.55986 3.96997 4.33986 4.02997 4.18986 4.18997C3.90986 4.45997 3.94986 4.91997 4.26986 5.13997L9.69986 9.02997C10.1099 9.31997 10.2399 9.86997 9.99986 10.31C9.56986 11.11 9.43986 11.72 9.43986 12.19C9.43986 12.78 9.61986 13.21 9.99986 13.55ZM16.5199 19.13C15.8599 16.88 14.4299 14.13 12.5099 13.87L10.8299 15.55C10.6399 15.74 10.3899 15.84 10.1299 15.84C9.47986 15.84 7.42986 14.68 7.42986 12.18C7.42986 11.58 7.55986 10.91 7.85986 10.17L3.09986 6.76997C1.77986 5.82997 1.61986 3.91997 2.76986 2.76997C3.41986 2.12997 4.33986 1.86997 5.22986 2.06997L6.66986 2.40997C9.07986 1.62997 11.3399 2.14997 12.9599 2.82997C13.8099 3.18997 14.4999 3.59997 14.9799 3.92997C15.0899 3.99997 15.1799 4.05997 15.2599 4.11997C16.7999 3.53997 18.2899 3.56997 19.3999 3.74997C20.0299 3.84997 20.5599 3.98997 20.9299 4.11997C21.1099 4.17997 21.2599 4.23997 21.3699 4.28997C21.4199 4.30997 21.4599 4.32997 21.4899 4.33997C21.5099 4.34997 21.5199 4.34997 21.5299 4.35997H21.5499V4.36997C21.8699 4.51997 22.0799 4.81997 22.1199 5.16997C22.1499 5.51997 21.9999 5.86997 21.7099 6.06997L18.8299 8.18997C18.8699 8.25997 18.8999 8.33997 18.9399 8.41997C19.2599 9.06997 19.6399 10.01 19.8999 11.16C20.3299 13.07 20.3999 15.58 19.2999 18.23C18.9399 19.09 19.1899 19.84 20.4399 19.84H21.9999C22.5999 19.84 22.9999 20.25 22.9999 20.84V21.84H19.6999C18.6099 21.84 18.1699 21.66 18.0599 20.42H17.9399C17.8199 21.68 17.3899 21.84 16.2999 21.84H12.9999V20.84C12.9999 20.25 13.4199 19.84 13.9999 19.84H15.9999C16.4599 19.84 16.6599 19.59 16.5199 19.13Z" fill="#FEE600"/>
</svg>
