<svg width="24" height="24" viewBox="0 0 24 24" fill="none" xmlns="http://www.w3.org/2000/svg">
<path d="M5.19995 6.9C2.39995 9.7 2.39995 13.1 4.29995 15C5.39995 16.1 6.49995 16.2 7.49995 15.7L7.59995 15.8L3.49995 19.9L4.99995 21.4L8.99995 17.3L9.09995 17.4C8.59995 18.4 8.69995 19.5 9.79995 20.6C11.6999 22.5 15.1999 22.4 17.8999 19.7C21.2999 16.3 21.4999 12 21.8999 3C12.8999 3.4 8.59995 3.6 5.19995 6.9ZM16.4999 18.2C14.4999 20.2 12.2999 20.2 10.7999 18.7C9.69995 17.6 9.79995 16.4 10.7999 15.4L16.2999 10L14.8999 8.6L9.49995 14C8.49995 15 7.29995 15.1 6.19995 14C4.69995 12.6 4.69995 10.3 6.59995 8.3C9.19995 5.7 12.2999 5.4 19.7999 5C19.4999 12.5 19.1999 15.6 16.4999 18.2Z" fill="#FEE600"/>
</svg>
