<svg width="24" height="24" viewBox="0 0 24 24" fill="none" xmlns="http://www.w3.org/2000/svg">
<path d="M20.58 7H22.72V5H20.58C20.13 3.28 18.55 2 16.52 2C14.8 2 13.7 2.53 12.11 4.27L2 15.29L3.48 16.65L6.56 13.29L6.65 13.37C6.1 14.24 6.13 15.06 7 15.89C8.25 17.08 9.89 17.85 11.72 17.98V20H5.72V22H19.72V20H13.72V17.85C17.14 17.15 19.72 14.13 19.72 10.5C19.72 9.93 19.64 9.39 19.51 8.86C20.03 8.36 20.39 7.72 20.58 7ZM18.91 9.49C17.99 10.07 17.8 10.51 17.61 11.62C17.09 14.12 14.88 16 12.22 16C9.94 16 7.99 14.61 7.16 12.64L13.59 5.62C14.79 4.31 15.34 4 16.52 4C17.83 4 18.72 4.89 18.72 6C18.72 7.11 17.83 8 16.72 8H14.72V10H16.72C17.5 10 18.22 9.77 18.84 9.38L18.91 9.49Z" fill="#FEE600"/>
</svg>
