<svg width="24" height="24" viewBox="0 0 24 24" fill="none" xmlns="http://www.w3.org/2000/svg">
<path d="M17.92 7.98L18.03 8.03C18.38 7.24 19.14 7.06 19.87 7.36C21.7 8.1 23 9.9 23 12C23 14.77 20.76 17 18 17H6.5C3.5 17 1 14.58 1 11.5C1 8.48 3.5 6.01 6.38 6.01C6.62 6.01 6.86 6.02 7.09 6.04L7.11 5.93C6.35 5.46 6.3 4.86 6.78 4.05C7.91 2.15 9.79 1 12 1C15.27 1 18 3.66 18 7C18 7.34 17.97 7.67 17.92 7.98ZM4.11 19.45L6.11 23.45L7.9 22.56L5.9 18.56L4.11 19.45ZM16.11 23.45L14.11 19.45L15.9 18.56L17.9 22.56L16.11 23.45ZM9.11 19.45L11.11 23.45L12.9 22.56L10.9 18.56L9.11 19.45ZM21.11 23.45L19.11 19.45L20.9 18.56L22.9 22.56L21.11 23.45ZM12 3C9.84 3 8 4.77 8 7C8 7.59 7.58 8 7 8H6.5C4.61 8 3 9.55 3 11.5C3 13.4 4.53 15 6.5 15H18C19.66 15 21 13.64 21 12C21 10.35 19.65 9 18 9C17.71 9 17.43 9.04 17.15 9.13C16.79 9.24 16.39 9.17 16.12 8.91C15.84 8.64 15.81 8.29 15.89 7.93C15.96 7.63 16 7.32 16 7C16 4.79 14.21 3 12 3Z" fill="#FEE600"/>
</svg>
