<svg width="24" height="24" viewBox="0 0 24 24" fill="none" xmlns="http://www.w3.org/2000/svg">
<path d="M13 14H11V16.77L8.61 15.38L7.61 17.12L10 18.5L7.61 19.88L8.61 21.62L11 20.23V23H13V20.23L15.4 21.62L16.4 19.88L14 18.5L16.4 17.12L15.4 15.38L13 16.77V14ZM18 18V16C19.66 16 21 14.64 21 13C21 11.35 19.65 10 18 10C17.71 10 17.43 10.04 17.15 10.13C16.79 10.24 16.39 10.17 16.12 9.91C15.84 9.64 15.81 9.29 15.89 8.93C15.96 8.63 16 8.32 16 8C16 5.79 14.21 4 12 4C9.84 4 8 5.77 8 8C8 8.59 7.58 9 7 9H6.5C4.61 9 3 10.55 3 12.5C3 14.4 4.53 16 6.5 16V18C3.5 18 1 15.58 1 12.5C1 9.48 3.5 7.01 6.38 7.01C6.62 7.01 6.86 7.02 7.09 7.04L7.11 6.93C6.35 6.46 6.3 5.86 6.78 5.05C7.91 3.15 9.79 2 12 2C15.27 2 18 4.66 18 8C18 8.34 17.97 8.67 17.92 8.98L18.03 9.03C18.38 8.24 19.14 8.06 19.87 8.36C21.7 9.1 23 10.9 23 13C23 15.77 20.76 18 18 18Z" fill="#FEE600"/>
</svg>
