<svg width="24" height="24" viewBox="0 0 24 24" fill="none" xmlns="http://www.w3.org/2000/svg">
<path d="M5.06 8.42H4.94C4.83 7.18 4.39 7 3.3 7H1V8C1 8.59 1.4 9 2 9H3.2C3.74 9 4 9.26 4 9.8V14.4C4 16.08 5.21 17 6.6 17C11.04 17 9.97 11 15.6 11C18.75 11 21 13.49 21 17H23C23 12.39 19.88 9 15.6 9C9.3 9 8.91 15 6.6 15C6.19 15 6 14.79 6 14.4V9.8C6 9.26 6.26 9 6.8 9H8C8.58 9 9 8.59 9 8V7H6.7C5.61 7 5.18 7.16 5.06 8.42ZM15 7H17C17 6.61 17.07 6.22 17.23 5.86C17.38 5.49 17.6 5.16 17.88 4.88C18.15 4.6 18.48 4.38 18.85 4.23C19.21 4.08 19.6 4 20 4V2C19.34 2 18.69 2.13 18.08 2.38C17.48 2.64 16.93 3 16.46 3.47C16.29 3.64 16.14 3.82 16 4C15.86 3.82 15.7 3.64 15.53 3.47C15.07 3 14.52 2.64 13.91 2.38C13.3 2.13 12.65 2 12 2V4C12.39 4 12.78 4.08 13.14 4.23C13.51 4.38 13.84 4.6 14.12 4.88C14.4 5.16 14.62 5.49 14.77 5.86C14.92 6.22 15 6.61 15 7ZM18 17.25C18.69 17.25 19.25 16.7 19.25 16C19.25 15.31 18.69 14.75 18 14.75C17.3 14.75 16.75 15.31 16.75 16C16.75 16.7 17.3 17.25 18 17.25ZM7.21 21.23C8.33 21.79 9.66 21.79 10.79 21.23L12.1 20.57C12.67 20.29 13.33 20.29 13.89 20.57L15.21 21.23C16.33 21.79 17.66 21.79 18.79 21.23L20.1 20.57C20.67 20.29 21.33 20.29 21.89 20.57L22.55 20.9C23.04 21.15 23.64 20.95 23.89 20.45C24.14 19.96 23.94 19.36 23.44 19.11L22.79 18.78C21.66 18.22 20.33 18.22 19.21 18.78L17.89 19.44C17.33 19.72 16.67 19.72 16.1 19.44L14.79 18.78C13.66 18.22 12.33 18.22 11.21 18.78L9.89 19.44C9.33 19.72 8.67 19.72 8.1 19.44L6.79 18.78C5.66 18.22 4.33 18.22 3.21 18.78L2.55 19.11C2.06 19.36 1.86 19.96 2.1 20.45C2.35 20.95 2.95 21.15 3.44 20.9L4.1 20.57C4.67 20.29 5.33 20.29 5.89 20.57L7.21 21.23Z" fill="#FEE600"/>
</svg>
