<svg width="24" height="24" viewBox="0 0 24 24" fill="none" xmlns="http://www.w3.org/2000/svg">
<path d="M4.72 6.03C4.22 6.23 4 6.55 4 7C4 7.45 4.22 7.77 4.72 7.97C6.44 8.66 8 9.99 8 12H10C10 9.93 8.99 8.57 7.42 8.14V8H20V6H7.42V5.87C8.99 5.44 10 4.08 10 2H8C8 4.01 6.44 5.34 4.72 6.03Z" fill="#2B2D33"/>
<path d="M19.28 17.97C19.78 17.77 20 17.45 20 17C20 16.55 19.78 16.23 19.28 16.03C17.56 15.34 16 14.01 16 12H14C14 14.07 15.01 15.43 16.58 15.86V16H4V18H16.58V18.13C15.01 18.56 14 19.92 14 22H16C16 19.99 17.56 18.66 19.28 17.97Z" fill="#2B2D33"/>
</svg>
