<svg width="24" height="24" viewBox="0 0 24 24" fill="none" xmlns="http://www.w3.org/2000/svg">
<path d="M11.99 4C16.41 4 19.99 7.58 19.99 12C19.99 16.42 16.41 20 11.99 20C9.86 20 7.84 19.16 6.34 17.66L4.93 19.07C6.81 20.95 9.34 22 11.99 22C17.51 22 21.99 17.53 21.99 12C21.99 6.47 17.51 2 11.99 2C9.34 2 6.81 3.05 4.93 4.93L6.34 6.34C7.84 4.84 9.86 4 11.99 4Z" fill="#2B2D33"/>
<path d="M16.28 12.96C16.78 12.76 17 12.44 17 11.99C17 11.54 16.78 11.22 16.28 11.02C14.56 10.33 13 9 13 6.99H11C11 9.06 12.01 10.42 13.58 10.85V10.99H3V12.99H13.58V13.12C12.01 13.55 11 14.91 11 16.99H13C13 14.98 14.56 13.65 16.28 12.96Z" fill="#2B2D33"/>
</svg>
