<svg width="48" height="48" viewBox="0 0 48 48" fill="none" xmlns="http://www.w3.org/2000/svg">
<rect width="48" height="48" rx="12" fill="#2B2D33"/>
<path d="M21.05 17.55L21 17.44C21.81 17.14 22 16.85 22 16C22 15.45 22.45 15 23 15H25C25.55 15 26 15.45 26 16C26 16.85 26.19 17.14 27 17.44L26.95 17.55C25.7 17.1 24.9 17 24 17C23.1 17 22.3 17.1 21.05 17.55ZM22.44 25C22.01 25 21.63 24.72 21.49 24.32L20.18 20.37C21.22 19.52 22.55 19 24 19C25.45 19 26.79 19.52 27.82 20.37L26.51 24.32C26.37 24.72 25.99 25 25.56 25H25V23H23V25H22.44ZM18 32V25C18 23.99 18.25 23.05 18.69 22.21L19.6 24.95C20.01 26.17 21.15 27 22.44 27H23V29H25V27H25.56C26.85 27 28 26.17 28.41 24.95L29.32 22.21C29.75 23.05 30 23.99 30 25V32H18ZM17 34H31C31.55 34 32 33.55 32 33V25C32 22.04 30.39 19.45 28 18.07V16C28 14.34 26.66 13 25 13H23C21.35 13 20 14.34 20 16V18.07C17.61 19.45 16 22.04 16 25V33C16 33.55 16.45 34 17 34Z" fill="#FEE600"/>
</svg>
