<svg width="48" height="48" viewBox="0 0 48 48" fill="none" xmlns="http://www.w3.org/2000/svg">
<rect width="48" height="48" rx="12" fill="#2B2D33"/>
<path d="M16 27C16 28.1 16.9 29 18 29H32V27H27V13H25.82C21.83 14.2 18.99 17.65 18.99 22.12C18.99 23.38 19.24 24.58 19.55 25.44C19.91 26.41 20.49 26.88 21.69 26.88V27H16ZM20.99 22.13C20.99 19.22 22.46 16.83 25 15.48V27H22.74C21.61 25.69 20.99 24.02 20.99 22.13Z" fill="#FEE600"/>
<path d="M34.45 30.75L33.79 30.42C33.23 30.14 32.61 30 32 30C31.39 30 30.78 30.13 30.21 30.42L28.9 31.08C28.62 31.22 28.31 31.29 28 31.29C27.7 31.29 27.39 31.22 27.11 31.08L25.79 30.42C25.23 30.14 24.61 30 24 30C23.39 30 22.78 30.13 22.21 30.42L20.9 31.08C20.62 31.22 20.31 31.29 20 31.29C19.7 31.29 19.39 31.22 19.11 31.08L17.79 30.42C17.23 30.14 16.61 30 16 30C15.39 30 14.78 30.14 14.21 30.42L13.55 30.75C13.2 30.93 13 31.28 13 31.64C13 31.79 13.04 31.95 13.11 32.09C13.28 32.44 13.64 32.65 14 32.65C14.15 32.65 14.31 32.61 14.45 32.54L15.11 32.21C15.39 32.07 15.7 32 16 32C16.31 32 16.62 32.07 16.9 32.21L18.21 32.87C18.78 33.16 19.39 33.29 20 33.29C20.61 33.29 21.23 33.15 21.79 32.87L23.11 32.21C23.39 32.07 23.7 32 24 32C24.31 32 24.62 32.07 24.9 32.21L26.21 32.87C26.78 33.16 27.39 33.29 28 33.29C28.61 33.29 29.23 33.15 29.79 32.87L31.11 32.21C31.39 32.07 31.7 32 32 32C32.31 32 32.62 32.07 32.9 32.21L33.55 32.54C33.7 32.61 33.85 32.65 34 32.65C34.37 32.65 34.72 32.44 34.9 32.09C34.97 31.95 35 31.8 35 31.65C35 31.28 34.8 30.93 34.45 30.75Z" fill="#FEE600"/>
</svg>
