<svg width="48" height="48" viewBox="0 0 48 48" fill="none" xmlns="http://www.w3.org/2000/svg">
<rect width="48" height="48" rx="12" fill="#2B2D33"/>
<path d="M26 24.94C25.42 24.94 24.94 25.42 24.94 26C24.94 26.58 25.42 27.06 26 27.06C26.58 27.06 27.06 26.58 27.06 26C27.06 25.42 26.58 24.94 26 24.94Z" fill="#FEE600"/>
<path d="M28.94 26C28.94 26.58 29.42 27.06 30 27.06C30.58 27.06 31.06 26.58 31.06 26C31.06 25.42 30.58 24.94 30 24.94C29.42 24.94 28.94 25.42 28.94 26Z" fill="#FEE600"/>
<path d="M28 26.94C27.42 26.94 26.94 27.42 26.94 28C26.94 28.58 27.42 29.06 28 29.06C28.58 29.06 29.06 28.58 29.06 28C29.06 27.42 28.58 26.94 28 26.94Z" fill="#FEE600"/>
<path d="M27.5 21C25.34 21 23.44 22.05 22.26 23.67L22.16 23.6C23.38 22.21 22.5 22.03 22.5 21C22.5 19.93 23 18.04 23 17C23 14.54 21.39 13 19.5 13C17.61 13 16 14.54 16 17C16 18.05 16.5 19.93 16.5 21C16.5 22.48 14 24.82 14 28C14 30.83 15.13 33.27 16.77 34H22.24C22.77 33.76 23.23 33.36 23.69 32.76C24.76 33.54 26.07 34 27.5 34C31.09 34 34 31.09 34 27.5C34 23.91 31.09 21 27.5 21ZM21.69 32H17.31C16.5 31.32 16 29.8 16 28C16 25.31 18.5 23.36 18.5 21C18.5 19.7 18 18.1 18 17C18 15.67 18.63 15 19.5 15C20.37 15 21 15.67 21 17C21 18.04 20.5 19.75 20.5 21C20.5 21.64 20.68 22.32 21.06 23.09C21.25 23.49 21.49 23.91 21.72 24.32L21.78 24.42C21.28 25.34 21 26.39 21 27.5C21 28.93 21.47 30.25 22.25 31.33C22.1 31.57 21.96 31.73 21.69 32ZM27.5 32C25.01 32 23 29.99 23 27.5C23 25.02 25.02 23 27.5 23C29.99 23 32 25.01 32 27.5C32 29.99 29.99 32 27.5 32Z" fill="#FEE600"/>
</svg>
