<svg width="48" height="48" viewBox="0 0 48 48" fill="none" xmlns="http://www.w3.org/2000/svg">
<rect width="48" height="48" rx="12" fill="#2B2D33"/>
<path d="M32 28C30.34 28 29 29.34 29 31C29 32.66 30.34 34 32 34C33.66 34 35 32.66 35 31C35 29.34 33.66 28 32 28ZM32 32C31.45 32 31 31.55 31 31C31 30.45 31.45 30 32 30C32.55 30 33 30.45 33 31C33 31.55 32.55 32 32 32Z" fill="#FEE600"/>
<path d="M22 26.06V21.69L29.35 18.94C29.74 18.79 30 18.42 30 18C30 17.58 29.74 17.21 29.35 17.06L21.35 14.06C21.05 13.95 20.7 13.99 20.43 14.18C20.16 14.36 20 14.67 20 15V26.06C17.4 26.35 15 27.77 15 30C15 32.49 18.02 34 21 34C23.95 34 27 32.51 27 30C27 27.77 24.6 26.35 22 26.06ZM22 16.44L26.15 18L22 19.56V16.44ZM21 32C19.42 32 17 31.26 17 30C17 29.32 17.71 28.78 18.63 28.44C19.38 28.15 19.88 27.8 19.88 26.74H20V30H22V26.74H22.12C22.12 27.8 22.62 28.15 23.37 28.44C24.29 28.78 25 29.32 25 30C25 31.25 22.62 32 21 32Z" fill="#FEE600"/>
</svg>
