<svg width="48" height="48" viewBox="0 0 48 48" fill="none" xmlns="http://www.w3.org/2000/svg">
<rect width="48" height="48" rx="12" fill="#2B2D33"/>
<path d="M16.4 20H19V18H13V20H15.32L16.61 23.2C15.81 23.44 15.06 23.87 14.47 24.46C13.53 25.4 13 26.67 13 28C13 29.33 13.53 30.6 14.47 31.54C15.4 32.47 16.68 33 18 33H29.5C30.35 33 31.17 32.69 31.81 32.13C32.45 31.57 32.86 30.8 32.97 29.96C33.02 29.57 33.01 29.19 32.93 28.81L30.53 16.5C30.35 15.59 30.01 15.25 29.01 15.12V15H33V13H25V15H28.18L30.41 26.12L30.32 26.09C30.25 26.07 30.14 26.04 30 25.99C29.71 25.91 29.31 25.79 28.81 25.64C27.83 25.35 26.49 24.97 25.09 24.58C23.69 24.19 22.22 23.8 20.97 23.51C20.13 23.31 19.33 23.14 18.7 23.06L18.08 21.5C17.72 20.6 17.42 20.25 16.4 20.12V20ZM15.88 25.88C16.44 25.32 17.25 25 18 25C18.36 25 19.25 25.16 20.52 25.46C21.73 25.74 23.17 26.12 24.56 26.51C25.95 26.89 27.27 27.27 28.25 27.56C28.74 27.71 29.14 27.83 29.42 27.91C29.56 27.95 29.67 27.99 29.75 28.01L29.86 28.04L29.87 28.05H29.89C30.25 28.05 30.55 28.36 30.75 28.67C30.95 28.97 31.04 29.33 30.99 29.7C30.94 30.06 30.76 30.39 30.49 30.63C30.22 30.87 29.87 31 29.5 31H18C17.21 31 16.44 30.68 15.88 30.12C15.32 29.56 15 28.8 15 28C15 27.2 15.32 26.44 15.88 25.88ZM18 29.34C18.74 29.34 19.34 28.74 19.34 28C19.34 27.26 18.74 26.66 18 26.66C17.26 26.66 16.66 27.26 16.66 28C16.66 28.74 17.26 29.34 18 29.34Z" fill="#FEE600"/>
</svg>
