<svg width="48" height="48" viewBox="0 0 48 48" fill="none" xmlns="http://www.w3.org/2000/svg">
<rect width="48" height="48" rx="12" fill="#2B2D33"/>
<path d="M20.5 22.93L25.16 15.47C25.56 14.83 26.5 14.85 26.87 15.5L34.87 29.5C35.25 30.17 34.76 31 34.01 31H14.01C13.26 31 12.77 30.23 13.11 29.55L18.11 19.55C18.48 18.82 19.55 18.82 19.9 19.55L20.31 20.4C20.84 21.49 20.86 21.85 20.4 22.87L20.5 22.93ZM28.03 21.56L26.66 22.75C26.3 23.07 25.76 23.08 25.38 22.78L23.76 21.48L21.85 24.53C21.66 24.84 21.32 25.02 20.96 25C20.6 24.98 20.27 24.77 20.11 24.45L19.01 22.24L15.62 29H32.28L28.03 21.56ZM24.83 19.78L25.98 20.7L27.02 19.79L25.97 17.95L24.83 19.78Z" fill="#FEE600"/>
</svg>
