<svg width="48" height="48" viewBox="0 0 48 48" fill="none" xmlns="http://www.w3.org/2000/svg">
<rect width="48" height="48" rx="12" fill="#2B2D33"/>
<path d="M24 30C21.8 30 20 31.8 20 34H22C22 32.9 22.9 32 24 32C25.1 32 26 32.9 26 34H28C28 31.8 26.2 30 24 30Z" fill="#FEE600"/>
<path d="M31.85 32.97L29.4 28.99C29 28.33 28.77 28.2 27.94 28.12V28H30V26H27.6L25 18.2V17H26V15H25V13H23V15H22V17H23V18.2L20.4 26H18V28H20.06V28.12C19.23 28.2 19 28.33 18.6 28.99L16.15 32.97C16.05 33.13 16 33.31 16 33.5V34H18V33.78L21.56 28H26.44L30 33.78V34H32V33.5C32 33.31 31.95 33.13 31.85 32.97ZM21.5 26V25.88C22.23 25.8 22.56 25.57 22.75 25L24 21.2L25.25 25C25.44 25.57 25.77 25.8 26.5 25.88V26H21.5Z" fill="#FEE600"/>
</svg>
