<svg width="48" height="48" viewBox="0 0 48 48" fill="none" xmlns="http://www.w3.org/2000/svg">
<rect width="48" height="48" rx="12" fill="#2B2D33"/>
<path d="M31.68 17.0099C29.96 15.2899 27.57 14.6099 25.18 14.9299C25.02 14.6599 24.83 14.4099 24.6 14.1799C23.04 12.6099 20.51 12.6099 18.95 14.1799C17.59 15.5399 17.42 17.6399 18.43 19.1899C16.32 22.2999 16.24 26.2399 18.3 28.9699L14 33.2699L15.41 34.6799L19.71 30.3799C22.89 32.7699 27.72 32.2699 30.97 29.0299C34.48 25.5099 34.79 20.1199 31.68 17.0099ZM20.36 15.5899C21.14 14.8099 22.41 14.8099 23.19 15.5899C23.97 16.3699 23.97 17.6399 23.19 18.4199C22.41 19.1999 21.14 19.1999 20.36 18.4199C19.58 17.6399 19.58 16.3699 20.36 15.5899ZM29.55 27.6099C26.82 30.3499 22.7 30.6599 20.36 28.3199C18.75 26.6999 18.39 24.2499 19.22 21.9999C19.54 21.1099 19.63 20.6799 18.86 19.9199L18.95 19.8299C20.51 21.3999 23.04 21.3999 24.6 19.8299C25.74 18.6999 26.04 17.0499 25.52 15.6399L25.65 15.6099C26.07 16.5699 26.42 16.8099 27.2 16.9099C28.35 17.0799 29.42 17.5799 30.26 18.4199C32.6 20.7599 32.29 24.8799 29.55 27.6099Z" fill="#FEE600"/>
</svg>
