<svg width="48" height="48" viewBox="0 0 48 48" fill="none" xmlns="http://www.w3.org/2000/svg">
<rect width="48" height="48" rx="12" fill="#2B2D33"/>
<path d="M29.24 20L24.1 17.14L18.96 20H29.24ZM23.75 27.88V28H24.91C26.2 27.99 26.89 27.95 27.55 27.77C28.17 27.61 28.77 27.36 29.32 27.04C29.95 26.67 30.57 26.14 31.19 25.54C31.56 25.17 31.88 24.84 32.18 24.52C32.41 24.28 32.64 24.04 32.89 23.79L34.31 25.21C34.14 25.37 33.93 25.59 33.7 25.83C33.35 26.2 32.95 26.62 32.58 26.97C31.93 27.61 31.17 28.28 30.33 28.77C30.22 28.83 30.1 28.9 29.98 28.96L32.81 31.79L31.39 33.21L27.93 29.74C27.16 30 26.33 30 24.98 30H23.1C21.58 30 20.95 30.01 20.35 30.16C19.82 30.28 19.31 30.45 18.82 30.68C18.21 30.98 17.82 31.24 17.34 31.62C17.18 31.74 17.01 31.88 16.81 32.04C16.4 32.37 15.87 32.79 15.2 33.3L14 31.7C14.65 31.21 15.11 30.84 15.51 30.52C15.72 30.35 15.91 30.2 16.11 30.04C16.67 29.6 17.18 29.25 17.96 28.88C18.59 28.58 19.25 28.36 19.92 28.21C20.79 28.02 21.69 28 23.1 28V22H15.1C14.64 22 14.24 21.69 14.13 21.25C14.02 20.81 14.21 20.35 14.61 20.13L23.1 15.41V14H25.1V15.41L33.58 20.13C33.98 20.35 34.18 20.81 34.07 21.25C33.95 21.69 33.55 22 33.1 22H25.1V26.48C25.1 27.35 24.71 27.79 23.75 27.88Z" fill="#FEE600"/>
</svg>
