<svg width="48" height="48" viewBox="0 0 48 48" fill="none" xmlns="http://www.w3.org/2000/svg">
<rect width="48" height="48" rx="12" fill="#2B2D33"/>
<path d="M25 22H23V26H25V22Z" fill="#FEE600"/>
<path d="M32 19.43L30.58 18.01L28.9 19.69C27.8 18.83 26.46 18.25 25 18.07V16H27V14H21V16H23V16.4C23 17.22 23.49 17.75 24.33 17.88V18.02C24.22 18.01 24.11 18 24 18C22.15 18 20.45 18.63 19.1 19.69L17.42 18.01L16 19.43L17.68 21.11C16.63 22.46 16 24.16 16 26C16 30.42 19.58 34 24 34C28.42 34 32 30.42 32 26C32 24.16 31.37 22.46 30.32 21.11L32 19.43ZM24 32C20.69 32 18 29.32 18 26C18 22.68 20.69 20 24 20C27.32 20 30 22.68 30 26C30 29.32 27.32 32 24 32Z" fill="#FEE600"/>
</svg>
