<svg width="48" height="48" viewBox="0 0 48 48" fill="none" xmlns="http://www.w3.org/2000/svg">
<rect width="48" height="48" rx="12" fill="#2B2D33"/>
<path d="M29 18.37V17C29 15.34 27.66 14 26 14C24.35 14 23 15.34 23 17V19C23 19.55 23.45 20 24 20H27.79C31.88 21.95 33.43 27.02 31.08 30.93L30.44 32H27V34H31C31.36 34 31.68 33.82 31.86 33.51L32.79 31.96C35.68 27.15 33.89 20.95 29 18.37ZM27 18H25V17C25 16.45 25.45 16 26 16C26.56 16 27 16.45 27 17V18Z" fill="#FEE600"/>
<path d="M24.41 22.09L23.97 21.89C21.13 20.63 17.88 20.63 15.04 21.89L14.6 22.09C14.24 22.25 14 22.6 14 23V25C14 25.55 14.45 26 15 26H15.33V26.12C14.49 26.33 14 26.9 14 27.85V33C14 33.55 14.45 34 15 34H24C24.56 34 25 33.55 25 33V27.85C25 26.9 24.51 26.33 23.67 26.12V26H24C24.56 26 25 25.55 25 25V23C25 22.6 24.77 22.25 24.41 22.09ZM16 23.65C18.24 22.71 20.77 22.71 23 23.65V24H16V23.65ZM23 32H16V26H23V32Z" fill="#FEE600"/>
</svg>
