<svg width="48" height="48" viewBox="0 0 48 48" fill="none" xmlns="http://www.w3.org/2000/svg">
<rect width="48" height="48" rx="12" fill="#2B2D33"/>
<path d="M33 14.01H24C23.4 14.01 22.95 14.47 23 15.08L24 28.08C24.04 28.6 24.48 29.01 25 29.01V33.01C25 33.56 25.45 34.01 26 34.01H31C31.55 34.01 32 33.56 32 33.01V29.01C32.53 29.01 32.96 28.6 33 28.08L34 15.08C34.05 14.45 33.57 14.01 33 14.01ZM31.93 16.01L31.07 27.01H25.93L25.08 16.01H31.93ZM31.33 29.12C30.49 29.33 30 29.9 30 30.85V32.01H27V30.85C27 29.9 26.51 29.33 25.67 29.12V29.01H31.33V29.12Z" fill="#FEE600"/>
<path d="M21 22.01V17.01C21 16.61 20.8 16.29 20.45 16.12L16.45 14.12C15.8 13.78 15 14.18 15 15.01V22.01C14.45 22.01 14 22.46 14 23.01V33.01C14 33.56 14.45 34.01 15 34.01H21C21.55 34.01 22 33.56 22 33.01V23.01C22 22.46 21.55 22.01 21 22.01ZM17 16.63L19 17.63V22.01H17V16.63ZM20 32.01H16V24.01H20V32.01Z" fill="#FEE600"/>
</svg>
