<svg width="48" height="48" viewBox="0 0 48 48" fill="none" xmlns="http://www.w3.org/2000/svg">
<rect width="48" height="48" rx="12" fill="#2B2D33"/>
<path d="M32 31.09V16.91C32.58 16.71 33 16.15 33 15.5C33 14.67 32.33 14 31.5 14C30.85 14 30.29 14.42 30.09 15H17.92C17.71 14.42 17.16 14 16.5 14C15.67 14 15 14.67 15 15.5C15 16.15 15.42 16.71 16 16.91V31.09C15.42 31.29 15 31.85 15 32.5C15 33.33 15.67 34 16.5 34C17.16 34 17.71 33.58 17.92 33H30.09C30.29 33.58 30.85 34 31.5 34C32.33 34 33 33.33 33 32.5C33 31.85 32.58 31.29 32 31.09ZM30 31H18V28.9L26.71 20.21L25.29 18.79L19.1 24.98C18.32 25.76 18.12 26.47 18.12 27.46H18V17H30V31Z" fill="#FEE600"/>
<path d="M22 27.12L23.42 28.54L27.71 24.21L26.29 22.79L22 27.12Z" fill="#FEE600"/>
</svg>
