<svg width="24" height="25" viewBox="0 0 24 25" fill="none" xmlns="http://www.w3.org/2000/svg">
<path d="M21.9099 11.55L19.9099 7.55C19.7399 7.21 19.3899 7 19.0099 7H17.0099V9H18.3899L19.3899 11H4.62994L5.62994 9H8.00994V7H5.00994C4.62994 7 4.28994 7.21 4.11994 7.55L2.11994 11.55C1.76994 12.25 2.19994 13 3.00994 13V22C3.00994 22.55 3.45994 23 4.00994 23H20.0099C20.5599 23 21.0099 22.55 21.0099 22V13C21.8299 13 22.2499 12.23 21.9099 11.55ZM11.0099 21H9.00994V17H11.0099V21ZM15.0099 21H13.0099V17H15.0099V21ZM20.3399 13.12C19.4999 13.26 19.0099 13.8 19.0099 14.7V21H17.0099V16C17.0099 15.45 16.5599 15 16.0099 15H8.00994C7.45994 15 7.00994 15.45 7.00994 16V21H5.00994V14.7C5.00994 13.8 4.51994 13.26 3.67994 13.12V13H20.3399V13.12Z" fill="#2B2D33"/>
<path d="M12.0099 9C13.6799 9 15.0099 7.67 15.0099 6H17.0099V4H15.0099V3H9.00994V6C9.00994 7.67 10.3399 9 12.0099 9ZM11.0099 5H13.0099V6C13.0099 6.56 12.5699 7 12.0099 7C11.4499 7 11.0099 6.56 11.0099 6V5Z" fill="#2B2D33"/>
</svg>
