<svg width="24" height="24" viewBox="0 0 24 24" fill="none" xmlns="http://www.w3.org/2000/svg">
<path d="M8 11C7.44 11 7 10.53 7 10C7 9.65 7.2 9.31 7.5 9.13C7.94 8.87 8 8.54 8 8C8 6.94 8.42 5.92 9.17 5.17C9.92 4.42 10.94 4 12 4C13.06 4 14.08 4.42 14.83 5.17C15.58 5.92 16 6.94 16 8C16 8.5 16.05 8.87 16.5 9.13C16.82 9.32 17 9.63 17 10C17 10.57 16.54 11 16 11C15.44 11 15 10.54 15 10C15 9.45 14.55 9 14 9C13.45 9 13 9.45 13 10C13 10.57 12.55 11 12 11C11.45 11 11 10.56 11 10C11 9.43 10.56 9 10 9C9.45 9 9.01 9.44 9 9.99V10C9 10.56 8.56 11 8 11ZM14.07 14.58L12.28 20H11.72L9.91 14.59C9.53 13.44 9.23 13.16 8 13.06V12.94C8.92 12.94 9.47 12.71 10 12.24C10.55 12.73 11.26 13 12 13C12.74 13 13.45 12.73 14 12.24C14.53 12.71 15.08 12.94 16 12.94V13.06C14.77 13.16 14.47 13.38 14.07 14.58ZM11 22H13C13.43 22 13.81 21.72 13.95 21.32L16.75 12.9C18.03 12.61 19 11.39 19 10C19 9.16 18.63 8.31 18 7.76C17.94 6.26 17.31 4.83 16.24 3.76C15.12 2.63 13.59 2 12 2C10.41 2 8.88 2.63 7.76 3.76C6.69 4.83 6.07 6.26 6.01 7.76C5.37 8.32 5 9.14 5 10C5 11.37 5.96 12.6 7.25 12.9L10.05 21.32C10.19 21.72 10.57 22 11 22Z" fill="#2B2D33"/>
</svg>
