<svg width="24" height="24" viewBox="0 0 24 24" fill="none" xmlns="http://www.w3.org/2000/svg">
<path d="M11 5.91V10H13V5.91H13.12C13.26 7.32 14.1 7.81 14.38 8.17C14.77 8.68 15 9.31 15 10V11.59C16.79 12.32 18 13.78 18 15.5C18 18.01 15.35 20 12 20C8.66 20 6 18.01 6 15.5C6 13.8 7.2 12.35 9 11.61V10C9 9.31 9.23 8.68 9.62 8.17C9.9 7.81 10.74 7.32 10.88 5.91H11ZM4 15.5C4 19.11 7.55 22 12 22C16.45 22 20 19.11 20 15.5C20 13.4 18.83 11.56 17 10.41V10C17 7.58 15.28 5.56 13 5.1V4H15V2H12C11.45 2 11 2.45 11 3V5.1C8.72 5.56 7 7.58 7 10V10.43C5.17 11.58 4 13.41 4 15.5Z" fill="#2B2D33"/>
</svg>
