<svg width="24" height="24" viewBox="0 0 24 24" fill="none" xmlns="http://www.w3.org/2000/svg">
<path d="M16 19.55V6.73L18.96 5.75C19.6 5.54 19.85 5.13 19.88 4.45H20V17.27L17.04 18.25C16.4 18.46 16.15 18.87 16.12 19.55H16ZM10 17.27V5.4L14 6.73V18.6L10 17.27ZM4 19.55V6.73L6.96 5.75C7.6 5.54 7.85 5.13 7.88 4.45H8V17.27L5.04 18.25C4.4 18.46 4.15 18.87 4.12 19.55H4ZM2 19.99C2 20.62 2.4 21 2.93 21C3.06 21 3.2 20.98 3.34 20.93L9 19.04L14.68 20.94C14.79 20.98 14.89 20.99 15 20.99C15.1 20.99 15.2 20.98 15.31 20.94L21.22 18.97C21.83 18.77 22 18.48 22 17.89V4.01C22 3.38 21.6 3 21.07 3C20.94 3 20.8 3.02 20.66 3.07L15 4.96L9.32 3.06C9.21 3.02 9.11 3.01 9 3.01C8.9 3.01 8.8 3.02 8.69 3.06L2.78 5.03C2.17 5.23 2 5.52 2 6.11V19.99Z" fill="#2B2D33"/>
</svg>
