<svg width="24" height="24" viewBox="0 0 24 24" fill="none" xmlns="http://www.w3.org/2000/svg">
<path d="M16.5 20.56V7.72L19.46 6.73C20.1 6.52 20.35 6.11 20.38 5.43H20.5V18.28L17.54 19.26C16.9 19.47 16.65 19.88 16.62 20.56H16.5ZM7 7.31C7.72 7.31 8.31 6.72 8.31 6C8.31 5.28 7.72 4.69 7 4.69C6.28 4.69 5.69 5.28 5.69 6C5.69 6.72 6.28 7.31 7 7.31ZM7.06 11.33H6.94C6.72 10.43 6.5 10.22 5.93 9.65C5.04 8.74 4 7.17 4 5.75C4 4.29 5.28 3 7 3C8.72 3 10 4.29 10 5.75C10 7.18 8.96 8.74 8.05 9.66C7.5 10.23 7.28 10.43 7.06 11.33ZM7 13C7.39 13 7.67 12.82 8.78 11.78C10.28 10.37 12 8.04 12 5.75C12 3.07 9.7 1 7 1C4.3 1 2 3.07 2 5.75C2 8.04 3.72 10.37 5.22 11.78C6.33 12.82 6.61 13 7 13ZM3.43 22.01C3.56 22.01 3.7 21.99 3.84 21.94L9.5 20.05L15.18 21.95C15.29 21.99 15.39 22 15.5 22C15.6 22 15.7 21.99 15.81 21.95L21.72 19.98C22.33 19.78 22.5 19.49 22.5 18.9V4.95C22.5 4.39 22.09 3.99 21.55 3.99C21.43 3.99 21.31 4.01 21.18 4.05L15.46 5.96L13.74 5.53L13.26 7.47L14.5 7.78V19.61L10.5 18.28V15H8.5V18.28L5.54 19.26C4.9 19.47 4.65 19.88 4.62 20.56H4.5V13H2.5V21C2.5 21.63 2.9 22.01 3.43 22.01Z" fill="#2B2D33"/>
</svg>
