<svg width="24" height="24" viewBox="0 0 24 24" fill="none" xmlns="http://www.w3.org/2000/svg">
<path d="M7 14.31C7.72 14.31 8.31 13.72 8.31 13C8.31 12.28 7.72 11.69 7 11.69C6.28 11.69 5.69 12.28 5.69 13C5.69 13.72 6.28 14.31 7 14.31ZM7.06 18.33H6.94C6.72 17.43 6.5 17.22 5.93 16.65C5.03 15.75 4 14.17 4 12.75C4 11.29 5.28 10 7 10C8.72 10 10 11.29 10 12.75C10 14.18 8.97 15.74 8.05 16.66C7.49 17.22 7.28 17.43 7.06 18.33ZM19 4C20.1 4 21 4.9 21 6C21 6.95 20.43 7.97 19.72 8.85C19.47 9.16 19.22 9.43 19 9.65C18.78 9.43 18.52 9.16 18.27 8.85C17.56 7.97 17 6.95 17 6C17 4.9 17.89 4 19 4ZM18.37 11.78C18.55 11.93 18.78 12 19 12C19.22 12 19.44 11.93 19.62 11.78H19.63L19.67 11.74C19.69 11.72 19.73 11.69 19.78 11.65C19.87 11.57 20 11.46 20.15 11.31C20.46 11.02 20.86 10.61 21.27 10.1C22.06 9.13 23 7.65 23 6C23 3.79 21.21 2 19 2C16.79 2 15 3.79 15 6C15 7.65 15.93 9.13 16.72 10.1C17.13 10.61 17.54 11.02 17.84 11.31C17.99 11.46 18.12 11.57 18.21 11.65C18.26 11.69 18.3 11.72 18.32 11.74L18.36 11.77L18.37 11.78ZM6.4 19.8C6.75 20.07 7.24 20.07 7.6 19.8L7.61 19.79L7.65 19.76C7.69 19.73 7.74 19.69 7.8 19.64C7.92 19.55 8.08 19.41 8.28 19.23C8.68 18.88 9.22 18.37 9.75 17.75C10.79 16.55 12 14.75 12 12.75C12 10.07 9.7 8 7 8C4.3 8 2 10.07 2 12.75C2 14.75 3.2 16.55 4.24 17.75C4.78 18.37 5.31 18.88 5.71 19.23C5.91 19.41 6.08 19.55 6.2 19.64C6.26 19.69 6.3 19.73 6.34 19.76L6.38 19.79L6.39 19.8H6.4ZM19 12H16.23C15.1 12 14.06 12.64 13.55 13.66C12.55 15.65 14 18 16.23 18H18.17C19.06 18 19.5 19.08 18.87 19.71C18.69 19.89 18.43 20 18.17 20H6V22H18.17C18.96 22 19.73 21.68 20.29 21.12C22.18 19.23 20.84 16 18.17 16H16.23C15.49 16 15.01 15.22 15.34 14.55C15.51 14.21 15.85 14 16.23 14H19V12Z" fill="#2B2D33"/>
</svg>
