<svg width="24" height="24" viewBox="0 0 24 24" fill="none" xmlns="http://www.w3.org/2000/svg">
<path d="M12.67 12.67L13.23 11.54C13.7 10.56 14.06 10.06 14.98 9.11002L14.89 9.02002C13.94 9.94002 13.43 10.29 12.45 10.77L11.33 11.33L10.77 12.45C10.29 13.43 9.94002 13.94 9.02002 14.89L9.11002 14.98C10.06 14.06 10.56 13.7 11.54 13.23L12.67 12.67ZM16.95 7.05002C17.25 7.35002 17.33 7.82002 17.14 8.20002L14.31 13.86C14.21 14.06 14.06 14.21 13.86 14.31L8.21002 17.13C7.82002 17.33 7.36002 17.25 7.05002 16.95C6.75002 16.66 6.67002 16.18 6.86002 15.8L9.69002 10.14C9.79002 9.95002 9.95002 9.79002 10.14 9.69002L15.8 6.86002C16.18 6.67002 16.65 6.75002 16.95 7.05002ZM2.00002 12C2.01002 6.47002 6.48002 1.99002 12 2.00002C17.52 2.01002 22.01 6.48002 22 12C21.99 17.52 17.53 22 12 22C6.48002 22 1.99002 17.52 2.00002 12ZM12 4.00002C7.58002 4.00002 4.00002 7.58002 4.00002 12C4.00002 16.42 7.58002 20 12 20C16.42 20 20 16.42 20 12C20 7.58002 16.42 4.00002 12 4.00002Z" fill="#2B2D33"/>
</svg>
