<svg width="48" height="48" viewBox="0 0 48 48" fill="none" xmlns="http://www.w3.org/2000/svg">
<rect width="48" height="48" rx="12" fill="#2B2D33"/>
<path d="M17.9401 29.81V15.95H29.9401V28.93C26.9401 28.95 29.9401 17.95 23.4401 17.95C20.9401 17.95 19.9401 19.95 19.9401 22.95C19.9401 25.95 20.4401 27.59 20.4401 27.59C18.9401 27.95 18.2201 29.25 17.9401 29.81ZM23.4401 26.09C21.9401 26.09 21.9401 25.09 21.9401 23.09C21.9401 21.09 21.9401 20.09 23.4401 20.09C24.9401 20.09 25.6501 21.09 25.6501 23.09C25.6501 24.75 24.9401 26.09 23.4401 26.09ZM21.7001 30.95C20.4901 30.9 20.1801 29.72 22.4401 28.95C22.4401 28.95 22.4501 28.26 22.4401 28.07C23.4401 28.45 25.4401 28.23 26.5201 26.49L26.6901 26.61C26.2701 27.25 25.8501 27.95 26.3801 28.92L26.9401 29.95C26.9401 29.95 25.9401 29.95 25.4401 30.95H21.7001ZM15.4401 34.45C16.4401 35.45 17.6501 34.53 17.8601 33.95H30.0301C30.2301 34.53 31.4401 35.45 32.4401 34.45C33.4401 33.45 32.5201 32.24 31.9401 32.03V15.86C32.5201 15.65 33.4401 14.45 32.4401 13.45C31.4401 12.45 30.2301 13.36 30.0301 13.95H17.8601C17.6501 13.36 16.4401 12.45 15.4401 13.45C14.4401 14.45 15.3601 15.65 15.9401 15.86V32.03C15.3601 32.24 14.4401 33.45 15.4401 34.45Z" fill="#FEE600"/>
</svg>
