<svg width="48" height="48" viewBox="0 0 48 48" fill="none" xmlns="http://www.w3.org/2000/svg">
<rect width="48" height="48" rx="12" fill="#2B2D33"/>
<path d="M25.5601 19.1601L25.6401 19.0901C26.3001 19.5901 26.9801 19.4401 27.5401 18.8801L30.5101 15.9101L32.6201 15.3801L32.0901 17.5001L27.9901 21.6001L25.5601 19.1601ZM17.0101 20.6001L15.4201 19.0101L19.0001 15.4201L32.5901 29.0101L29.0001 32.6001L27.4201 31.0101L28.7101 29.7201L27.2801 28.3001L26.0001 29.6001L24.4201 28.0101L26.7101 25.7201L25.3001 24.3001L23.0001 26.6001L21.4301 25.0101L22.7101 23.7201L21.2801 22.3001L19.9901 23.6001L18.4301 22.0101L20.7201 19.7201L19.3001 18.2901L17.0101 20.6001ZM16.1201 31.7201C15.7301 31.3301 15.7301 30.6901 16.1201 30.3001L18.8701 27.5501C19.4301 26.9901 19.5801 26.3101 19.0801 25.6501L19.1501 25.5701L21.6001 28.0001L17.7001 31.8901C17.3101 32.2701 16.6801 32.2701 16.2901 31.8901L16.1201 31.7201ZM14.7201 33.1301L14.8901 33.3001C16.0501 34.4701 17.9601 34.4701 19.1301 33.3001L23.0101 29.4201L28.3001 34.7201C28.6901 35.1101 29.3201 35.1101 29.7101 34.7201L34.7201 29.7101C35.1101 29.3301 35.1101 28.6901 34.7201 28.3001L29.4301 23.0101L33.7201 18.7201C33.8501 18.5901 33.9401 18.4301 33.9801 18.2501L34.9801 14.2501C35.0701 13.9101 34.9701 13.5401 34.7201 13.3001C34.4701 13.0501 34.1001 12.9501 33.7701 13.0301L29.7601 14.0401C29.5901 14.0701 29.4201 14.1701 29.3001 14.2901L25.0001 18.6001L19.7001 13.3001C19.3201 12.9101 18.6801 12.9101 18.2901 13.3001L13.2801 18.3001C12.9001 18.6901 12.9001 19.3301 13.2801 19.7201L18.5901 25.0101L14.7101 28.8901C13.5501 30.0501 13.5501 31.9601 14.7201 33.1301Z" fill="#FEE600"/>
</svg>
