<svg width="48" height="48" viewBox="0 0 48 48" fill="none" xmlns="http://www.w3.org/2000/svg">
<rect width="48" height="48" rx="12" fill="#2B2D33"/>
<path d="M30 33V31.56H30.12C30.29 32.35 30.54 32.64 31.25 33.08L32.44 33.83C33.12 34.26 34 33.8 34 33V24C34 23.19 33.12 22.74 32.44 23.17L31.25 23.92C30.54 24.36 30.29 24.65 30.12 25.44H30V24C30 23.45 29.55 23 29 23C29.63 22.16 30 21.13 30 20C30 17.24 27.76 15 25 15C23 15 21.28 16.17 20.48 17.86C19.8 17.32 18.94 17 18 17C15.79 17 14 18.79 14 21C14 21.77 14.22 22.48 14.59 23.09C14.24 23.25 14 23.59 14 24V33C14 33.55 14.45 34 15 34H29C29.55 34 30 33.55 30 33ZM25 23C23.34 23 22 21.66 22 20C22 18.34 23.34 17 25 17C26.66 17 28 18.34 28 20C28 21.66 26.66 23 25 23ZM32 31.12L30 29.77V27.23L32 25.88V31.12ZM18 23C16.9 23 16 22.1 16 21C16 19.9 16.9 19 18 19C19.11 19 20 19.9 20 21C20 22.1 19.11 23 18 23ZM16 32V25H28V32H16Z" fill="#FEE600"/>
</svg>
