<svg width="48" height="48" viewBox="0 0 48 48" fill="none" xmlns="http://www.w3.org/2000/svg">
<rect width="48" height="48" rx="12" fill="#2B2D33"/>
<path d="M31 23.1201C31 23.7001 31.07 23.8901 31.5 24.3001L31.43 24.3901C30.57 23.8801 29.14 23.9401 28.23 24.1801C27.26 24.4301 26.4 24.9001 25.81 25.5301C25.22 26.1601 24.81 27.0601 25.09 28.0201C25.37 28.9701 26.17 29.5301 26.98 29.7901C27.81 30.0601 28.8 30.0701 29.77 29.8201C30.74 29.5701 31.6 29.1001 32.19 28.4701C32.67 27.9501 33 27.2601 33 26.5001V15.0001C33 14.6701 32.84 14.3601 32.56 14.1701C32.29 13.9901 31.94 13.9501 31.63 14.0701L21.63 18.0701C21.25 18.2201 21 18.5901 21 19.0001V27.1201C21 27.7001 21.07 27.8901 21.5 28.3001L21.43 28.3901C20.57 27.8801 19.14 27.9401 18.23 28.1801C17.26 28.4301 16.4 28.9001 15.81 29.5301C15.22 30.1601 14.81 31.0601 15.09 32.0201C15.37 32.9701 16.17 33.5301 16.98 33.7901C17.81 34.0601 18.8 34.0701 19.77 33.8201C20.74 33.5701 21.6 33.1001 22.19 32.4701C22.67 31.9501 23 31.2601 23 30.5001V23.6801L31 20.4801V23.1201ZM23 21.5201V19.6801L31 16.4801V18.3201L23 21.5201ZM27.59 27.8901C27.14 27.7501 27.04 27.5501 27.01 27.4701C26.99 27.4101 26.98 27.2101 27.27 26.9001C27.56 26.5901 28.06 26.2801 28.72 26.1101C29.38 25.9401 29.98 25.9801 30.41 26.1101C30.86 26.2501 30.96 26.4501 30.99 26.5301C31.01 26.5901 31.02 26.7901 30.73 27.1001C30.44 27.4101 29.94 27.7201 29.28 27.8901C28.62 28.0601 28.02 28.0201 27.59 27.8901ZM17.59 31.8901C17.14 31.7501 17.04 31.5501 17.01 31.4701C16.99 31.4101 16.98 31.2101 17.27 30.9001C17.56 30.5901 18.06 30.2801 18.72 30.1101C19.38 29.9401 19.98 29.9801 20.41 30.1101C20.86 30.2501 20.96 30.4501 20.99 30.5301C21.01 30.5901 21.02 30.7901 20.73 31.1001C20.44 31.4101 19.94 31.7201 19.28 31.8901C18.62 32.0601 18.02 32.0201 17.59 31.8901Z" fill="#FEE600"/>
</svg>
