<svg width="48" height="48" viewBox="0 0 48 48" fill="none" xmlns="http://www.w3.org/2000/svg">
<rect width="48" height="48" rx="12" fill="#2B2D33"/>
<path d="M16.1101 22.55C15.9401 22.89 15.9701 23.3 16.2001 23.6C18.8001 27 19.0001 28.48 19.0001 33C19.0001 33.55 19.4501 34 20.0001 34H23.4801C24.3201 34 25.0001 33.32 25.0001 32.48H25.1201C25.1201 33.32 25.8001 34 26.6401 34H28.0001C28.5501 34 29.0001 33.55 29.0001 33C29.0001 28.51 29.2201 26.97 31.8001 23.6C32.0301 23.3 32.0701 22.89 31.9001 22.55L29.0001 16.76V14H27.0001V17C27.0001 17.16 27.0401 17.31 27.1101 17.45L29.8301 22.9C27.4601 26.22 27.0801 27.95 27.0101 32H25.0001V25.73C25.6001 25.39 26.0001 24.74 26.0001 24C26.0001 22.9 25.1101 22 24.0001 22C22.9001 22 22.0001 22.9 22.0001 24C22.0001 24.74 22.4001 25.39 23.0001 25.73V32H21.0001C20.9701 28.05 20.4701 26.11 18.1701 22.9L20.9001 17.45C20.9701 17.31 21.0001 17.16 21.0001 17V14H19.0001V16.76L16.1101 22.55Z" fill="#FEE600"/>
</svg>
