<svg width="48" height="48" viewBox="0 0 48 48" fill="none" xmlns="http://www.w3.org/2000/svg">
<rect width="48" height="48" rx="12" fill="#2B2D33"/>
<path d="M23.9 26C23.97 25.67 24 25.34 24 25C24 22.24 21.76 20 19 20C17.57 20 16.54 20.72 16.12 22H16V18H32V20C31.61 20 31.22 20.08 30.85 20.23C30.54 20.36 30.25 20.54 30 20.76C29.75 20.54 29.46 20.36 29.15 20.23C28.79 20.08 28.4 20 28 20C27.61 20 27.22 20.08 26.85 20.23C26.49 20.38 26.16 20.6 25.88 20.88C25.6 21.16 25.38 21.49 25.23 21.85C25.08 22.22 25 22.61 25 23H27C27 22.87 27.03 22.74 27.08 22.62C27.13 22.5 27.2 22.39 27.29 22.29C27.39 22.2 27.5 22.13 27.62 22.08C27.74 22.03 27.87 22 28 22C28.13 22 28.26 22.03 28.38 22.08C28.51 22.13 28.62 22.2 28.71 22.29C28.8 22.39 28.87 22.5 28.92 22.62C28.98 22.74 29 22.87 29 23C29 23.55 29.45 24 30 24C30.55 24 31 23.55 31 23C31 22.87 31.03 22.74 31.08 22.62C31.13 22.5 31.2 22.39 31.29 22.29C31.39 22.2 31.5 22.13 31.62 22.08C31.74 22.03 31.87 22 32 22V26H23.9ZM16 30V28H32V30H16ZM16.17 26C16.06 25.68 16 25.34 16 25C16 23.34 17.35 22 19 22C20.62 22 22 23.31 22 25C22 25.34 21.94 25.68 21.83 26H16.17ZM15 32H33C33.55 32 34 31.55 34 31V17C34 16.45 33.55 16 33 16H15C14.45 16 14 16.45 14 17V31C14 31.55 14.45 32 15 32Z" fill="#FEE600"/>
</svg>
