<svg width="48" height="48" viewBox="0 0 48 48" fill="none" xmlns="http://www.w3.org/2000/svg">
<rect width="48" height="48" rx="12" fill="#2B2D33"/>
<path d="M21 31V33H27V31H21Z" fill="#FEE600"/>
<path d="M19 31H15V33H19V31Z" fill="#FEE600"/>
<path d="M14 15V17H15V29H17V27C18.19 27.07 19 27.66 19 29H21C21 27.76 20.55 26.63 19.62 25.91C20.94 24.76 21.68 22.99 21.92 20.66C22.48 20.85 23.17 21 24 21C24.83 21 25.52 20.85 26.08 20.66C26.32 22.99 27.06 24.76 28.38 25.91C27.45 26.63 27 27.76 27 29H29C29 27.66 29.81 27.07 31 27V29H33V17H34V15H14ZM31.89 25.13C28.83 25.1 28 22.13 28 19C28 18.6 27.76 18.23 27.38 18.08C27.01 17.92 26.59 18 26.3 18.28V18.29C26.28 18.3 26.25 18.33 26.21 18.36C26.13 18.42 25.99 18.51 25.8 18.61C25.43 18.79 24.83 19 24 19C23.17 19 22.57 18.79 22.2 18.61C22.01 18.51 21.87 18.42 21.79 18.36C21.75 18.33 21.72 18.3 21.7 18.29V18.28C21.41 18 20.99 17.92 20.62 18.08C20.24 18.23 20 18.6 20 19C20 22.13 19.17 25.1 16.11 25.13V25.01C16.77 24.82 17 24.39 17 23.67V17H31V23.67C31 24.39 31.23 24.82 31.89 25.01V25.13Z" fill="#FEE600"/>
<path d="M33 31H29V33H33V31Z" fill="#FEE600"/>
</svg>
