<svg width="48" height="48" viewBox="0 0 48 48" fill="none" xmlns="http://www.w3.org/2000/svg">
<rect width="48" height="48" rx="12" fill="#2B2D33"/>
<path d="M31 30V25.6C31 24.81 30.62 24.22 29.8 24.11V24H33V22H25V20C25 19.45 24.55 19 24 19C23.45 19 23 19.45 23 20V22H15V24H17V30H19V25.6C19 24.81 18.62 24.22 17.8 24.11V24H21V30H23V25.6C23 24.81 22.62 24.22 21.8 24.11V24H25V30H27V25.6C27 24.81 26.62 24.22 25.8 24.11V24H29V30H31ZM33 34V32H15V34H33ZM31.65 19.94L24 17.07L16.35 19.94C15.73 20.17 15 19.73 15 19V17C15 16.45 15.45 16 16 16C16.55 16 17 16.45 17 17V17.56L23.65 15.06C23.88 14.98 24.13 14.98 24.35 15.06L31 17.56V17C31 16.45 31.45 16 32 16C32.55 16 33 16.45 33 17V19C33 19.7 32.31 20.17 31.65 19.94Z" fill="#FEE600"/>
</svg>
