<svg width="24" height="24" viewBox="0 0 24 24" fill="none" xmlns="http://www.w3.org/2000/svg">
<path fill-rule="evenodd" clip-rule="evenodd" d="M8.49978 9.4C8.29978 9.2 7.99978 9 7.69978 9C7.39978 9 7.09978 9.2 6.89978 9.4L4.99978 12.2L1.79978 13.2C1.49978 13.3 1.19978 13.5 1.09978 13.9C0.999777 14.3 1.09978 14.6 1.29978 14.8L3.39978 17.5L3.29978 20.9C3.29978 21.2 3.39978 21.5 3.69978 21.7C3.99978 21.9 4.29978 21.9 4.59978 21.8L7.79978 20.7L10.9998 21.8C11.2998 21.9 11.6998 21.9 11.8998 21.7C12.1998 21.5 12.2998 21.2 12.2998 20.9L12.1998 17.5L14.2998 14.8C14.4998 14.5 14.5998 14.2 14.4998 13.9C14.3998 13.6 14.0998 13.3 13.7998 13.2L10.5998 12.2L8.49978 9.4ZM6.39978 13.7L7.69978 11.8L8.99978 13.7C9.09978 13.9 9.29978 14 9.49978 14.1L11.6998 14.7L10.2998 16.5C10.1998 16.7 10.0998 16.9 10.0998 17.1L10.1998 19.4L7.99978 18.7C7.79978 18.6 7.49978 18.6 7.29978 18.7L5.09978 19.5L5.19978 17.2C5.19978 17 5.09978 16.7 4.99978 16.6L3.59978 14.8L5.79978 14.2C6.09978 14 6.29978 13.9 6.39978 13.7Z" fill="#FEE600"/>
<path d="M19.6998 15.5C19.6998 14.8 19.9998 14.4 20.6998 14.1V14H17.6998C17.1998 14 16.6998 13.6 16.6998 13V9C16.6998 8.4 17.1998 8 17.6998 8H20.6998V7.9C19.9998 7.7 19.6998 7.3 19.6998 6.5V5H3.69978V11H1.69978V4C1.69978 3.4 2.19978 3 2.69978 3H20.6998C21.2998 3 21.6998 3.4 21.6998 4V8C22.2998 8 22.6998 8.4 22.6998 9V13C22.6998 13.6 22.2998 14 21.6998 14V18C21.6998 18.6 21.2998 19 20.6998 19H14.6998V17H19.6998V15.5ZM18.6998 12H20.6998V10H18.6998V12Z" fill="#FEE600"/>
</svg>
