<svg width="24" height="24" viewBox="0 0 24 24" fill="none" xmlns="http://www.w3.org/2000/svg">
<path d="M12 16C14.35 16 16 13.62 16 11C16 8.41 14.37 6 12 6C9.65 6 8 8.38 8 11C8 13.59 9.63 16 12 16ZM12 8C13.19 8 14 9.56 14 11C14 12.41 13.21 14 12 14C10.81 14 10 12.44 10 11C10 9.59 10.79 8 12 8Z" fill="#FEE600"/>
<path d="M1 2V4H3C3.6 4 4 4.4 4 5V21C4 21.55 4.44 22 5 22H19C19.55 22 20 21.55 20 21V5C20 4.4 20.4 4 21 4H23V2H1ZM6 20V18C7.12 18 8 18.91 8 20H6ZM18 20H16C16 18.91 16.88 18 18 18V20ZM19.33 4.12C18.49 4.39 18 5.03 18 6V14.02C18 15.13 18.43 15.69 19.39 15.88V16H18C15.78 16 14 17.8 14 20H10C10 17.82 8.24 16 6 16H4.61V15.88C5.57 15.69 6 15.13 6 14.02V6C6 5.03 5.51 4.39 4.67 4.12V4H19.33V4.12Z" fill="#FEE600"/>
</svg>
