<svg width="24" height="24" viewBox="0 0 24 24" fill="none" xmlns="http://www.w3.org/2000/svg">
<path d="M3 17V16.88C3.58 16.88 4 16.51 4 15.88V12.12C4 11.49 3.58 11.12 3 11.12V11H4.5C5.32 11 6 10.33 6 9.5V8H6.12C6.12 8.58 6.49 9 7.12 9H16.88C17.51 9 17.88 8.58 17.88 8H18V9.5C18 10.33 18.68 11 19.5 11H21V11.12C20.42 11.12 20 11.49 20 12.12V15.88C20 16.51 20.42 16.88 21 16.88V17H19.5C18.68 17 18 17.67 18 18.5V20H17.88C17.88 19.42 17.51 19 16.88 19H7.12C6.49 19 6.12 19.42 6.12 20H6V18.5C6 17.67 5.32 17 4.5 17H3ZM2 20C2 20.55 2.45 21 3 21H21C21.56 21 22 20.55 22 20V8C22 7.45 21.56 7 21 7H3C2.45 7 2 7.45 2 8V20ZM20 3H4V5H20V3Z" fill="#FEE600"/>
</svg>
