<svg width="24" height="24" viewBox="0 0 24 24" fill="none" xmlns="http://www.w3.org/2000/svg">
<path d="M10.37 11.54C11.98 12.34 13 13.97 13 16C13 18.9 10.9 21 8 21H4C3.4 21 3 20.6 3 20V4C3 3.4 3.4 3 4 3H7C9.9 3 12 5.1 12 8C12 9.44 11.46 10.65 10.37 11.54ZM3.59 5V5.12C4.47 5.25 5 5.82 5 6.89V11H7C8.8 11 10 9.8 10 8C10 6.2 8.8 5 7 5H3.59ZM15 21H17V11C17 9.84 17.8 9 19 9H22V7H19.4C18.26 7 17.49 7.64 17.12 9H17V7H15V21ZM5 14.89V19H8C9.8 19 11 17.8 11 16C11 14.2 9.8 13 8 13H3.59V13.12C4.47 13.25 5 13.82 5 14.89Z" fill="#FEE600"/>
</svg>
