<svg width="24" height="24" viewBox="0 0 24 24" fill="none" xmlns="http://www.w3.org/2000/svg">
<path d="M16.88 15H14V17H21C21.56 17 22 16.59 22 16V4C22 3.45 21.56 3 21 3H3C2.45 3 2 3.45 2 4V13H4V8.12C4 7.49 3.58 7.12 3 7.12V7H4.5C5.32 7 6 6.33 6 5.5V4H6.12C6.12 4.58 6.49 5 7.12 5H16.88C17.51 5 17.88 4.58 17.88 4H18V5.5C18 6.33 18.68 7 19.5 7H21V7.12C20.42 7.12 20 7.49 20 8.12V11.88C20 12.51 20.42 12.88 21 12.88V13H19.5C18.68 13 18 13.67 18 14.5V16H17.88C17.88 15.42 17.51 15 16.88 15Z" fill="#FEE600"/>
<path d="M12 19H5.03V19.14C6.49 19.44 6.99 20.51 6.99 22H4.99C4.99 20.67 4.32 19.54 2.72 18.97C2.21 18.79 2 18.45 2 18C2 17.55 2.21 17.21 2.72 17.03C4.32 16.46 4.99 15.33 4.99 14H6.99C6.99 15.49 6.49 16.56 5.03 16.86V17H12V19Z" fill="#FEE600"/>
</svg>
