<svg width="24" height="24" viewBox="0 0 24 24" fill="none" xmlns="http://www.w3.org/2000/svg">
<path d="M10 16V18H14.97V18.14C13.51 18.44 13.01 19.54 13.01 21.02H15C15.01 19.7 15.69 18.55 17.29 17.98C17.8 17.8 18 17.46 18 17.01C18 16.55 17.8 16.21 17.29 16.03C15.69 15.47 15.01 14.32 15 13H13.01C13.01 14.49 13.51 15.55 14.97 15.86V16H10ZM9 16H4.03V15.86C5.49 15.55 5.99 14.49 5.99 13H4C3.99 14.32 3.31 15.47 1.71 16.03C1.2 16.22 1 16.55 1 17.01C1 17.46 1.2 17.8 1.71 17.98C3.31 18.55 3.99 19.7 4 21.02H5.99C5.99 19.54 5.49 18.44 4.03 18.14V18H9V16ZM20 18H21C21.55 18 22 17.56 22 17V13C22.55 13 23 12.56 23 12V8C23 7.45 22.55 7 22 7V3C22 2.45 21.55 2 21 2H3C2.44 2 2 2.45 2 3V11H4V4H20V7H18C17.44 7 17 7.45 17 8V12C17 12.56 17.44 13 18 13H20V18ZM19 11V9H21V11H19Z" fill="#FEE600"/>
</svg>
