<svg width="24" height="24" viewBox="0 0 24 24" fill="none" xmlns="http://www.w3.org/2000/svg">
<path d="M20 12H22V3C22 2.5 21.6 2 21 2H3C2.4 2 2 2.5 2 3V12H4V7.1C4 6.5 3.6 6.1 3 6.1V6H4.5C5.3 6 6 5.3 6 4.5V3H6.1C6.1 3.6 6.5 4 7.1 4H16.9C17.5 4 17.9 3.6 17.9 3H18V4.5C18 5.3 18.7 6 19.5 6H21V6.1C20.4 6.1 20 6.5 20 7.1V12Z" fill="#FEE600"/>
<path d="M11 18H5V18.1C6.5 18.4 7 19.5 7 21H5C5 19.7 4.3 18.5 2.7 18C2.2 17.8 2 17.4 2 17C2 16.6 2.2 16.2 2.7 16C4.3 15.5 5 14.3 5 13H7C7 14.5 6.5 15.6 5 15.9V16H11V18Z" fill="#FEE600"/>
<path d="M13 16H19V15.9C17.5 15.6 17 14.5 17 13H19C19 14.3 19.7 15.5 21.3 16C21.8 16.2 22 16.5 22 17C22 17.4 21.8 17.8 21.3 18C19.7 18.6 19 19.7 19 21H17C17 19.5 17.5 18.4 19 18.1V18H13V16Z" fill="#FEE600"/>
</svg>
