<svg width="24" height="24" viewBox="0 0 24 24" fill="none" xmlns="http://www.w3.org/2000/svg">
<path d="M17 11V9H19V11H17ZM9.75 10.01C9.75 10.7 10.31 11.26 11 11.26C11.69 11.26 12.25 10.7 12.25 10.01C12.25 9.32 11.69 8.76 11 8.76C10.31 8.76 9.75 9.32 9.75 10.01ZM9 13V7H15V13H9ZM17 19H20C20.55 19 21 18.55 21 18V2C21 1.45 20.55 1 20 1H4C3.45 1 3 1.45 3 2V18C3 18.55 3.45 19 4 19H7V17H5V3H19V5C19 6 19.6 6.68 20.5 6.88V7H17V6C17 5.45 16.55 5 16 5H8C7.45 5 7 5.45 7 6V14C7 14.55 7.45 15 8 15H16C16.55 15 17 14.55 17 14V13H20.5V13.12C19.6 13.32 19 14 19 15V17H17V19Z" fill="#FEE600"/>
<path d="M13 15.99V20.96H13.14C13.44 19.5 14.51 19 16 19V21C14.67 21 13.54 21.67 12.97 23.27C12.79 23.79 12.45 24 12 24C11.55 24 11.21 23.79 11.03 23.28C10.46 21.68 9.33 21.01 8 21.01V19.01C9.49 19.01 10.56 19.51 10.86 20.97H11V16H13V15.99Z" fill="#FEE600"/>
</svg>
