<svg width="24" height="25" viewBox="0 0 24 25" fill="none" xmlns="http://www.w3.org/2000/svg">
<path d="M14 4C16.2091 4 18 5.79086 18 8H16C16 6.89543 15.1046 6 14 6H10C8.89543 6 8 6.89543 8 8V9C8 10.1046 8.89543 11 10 11H14C16.2091 11 18 12.7909 18 15V16C18 18.2091 16.2091 20 14 20H14.1772C14.1185 20.0026 14.0594 20.0039 14 20.0039H11.6V20.1039C12.4 20.4039 13 21.1039 13 22.0039V24.0039H11V21.0039C11 20.4039 10.6 20.0039 10 20.0039C9.94061 20.0039 9.88153 20.0026 9.82275 20H10C7.79086 20 6 18.2091 6 16H8C8 17.1046 8.89543 18 10 18H14C15.1046 18 16 17.1046 16 16V15C16 13.8954 15.1046 13 14 13H10C7.79086 13 6 11.2091 6 9V8C6 5.79086 7.79086 4 10 4H12.4V3.9C11.6 3.6 11 2.9 11 2V0H13V3C13 3.6 13.4 4 14 4Z" fill="#FEE600"/>
</svg>
