<svg width="24" height="24" viewBox="0 0 24 24" fill="none" xmlns="http://www.w3.org/2000/svg">
<path d="M14.6 19C11.759 19 9.355 17.382 8.246 15H14.1L15.2 13H7.658C7.613 12.674 7.59 12.34 7.59 12C7.59 11.66 7.613 11.326 7.658 11H16.11L17.21 9H8.246C9.355 6.618 11.759 5 14.6 5C16.56 5 18.32 5.76 19.58 7.03L21 5.61C19.38 3.98 17.12 3 14.6 3C10.915 3 7.801 5.118 6.394 8.226C5.968 8.857 5.594 9 4.65 9H3V11H3.42C4.598 11 5.241 10.818 5.662 10.14H5.776C5.654 10.739 5.59 11.361 5.59 12C5.59 12.089 5.591 12.177 5.594 12.265C5.39 12.816 5.041 13 4.15 13H3V15H4.02C4.889 15 5.535 14.675 5.678 13.94H5.792C6.661 18.02 10.227 21 14.6 21C17.12 21 19.38 20.02 21 18.39L19.58 16.97C18.31 18.24 16.56 19 14.6 19Z" fill="#FEE600"/>
</svg>
