<svg width="24" height="24" viewBox="0 0 24 24" fill="none" xmlns="http://www.w3.org/2000/svg">
<path d="M11.81 10H16.89C17.52 10 17.89 9.58 17.89 9H18.01V10.5C18.01 11.33 18.69 12 19.51 12H21.01V12.12C20.43 12.12 20.01 12.49 20.01 13.12V16.88C20.01 17.51 20.43 17.88 21.01 17.88V18H19.51C18.69 18 18.01 18.67 18.01 19.5V21H17.89C17.89 20.42 17.52 20 16.89 20H7.13C6.5 20 6.13 20.42 6.13 21H6.01V19.5C6.01 18.67 5.33 18 4.51 18H3.01V17.88C3.59 17.88 4.01 17.51 4.01 16.88V14H2.01V21C2.01 21.55 2.46 22 3.01 22H21.01C21.57 22 22.01 21.55 22.01 21V9C22.01 8.73 21.91 8.48 21.72 8.29C21.53 8.1 21.28 8 21.01 8H18.54L15.43 3.34C14.84 2.46 13.99 2 12.88 2H2.01V4H12.88C13.29 4 13.58 4.16 13.77 4.45L14.96 6.23C15.6 7.19 16.09 7.63 17.56 7.88V8H11.12C9.19 8 8.65 10.06 10.16 11.23L12.73 13.23C13.69 13.98 13.03 14.93 12.04 14.42L6.19 11.38C4.52 10.51 4 9.49 4 6.99H2C2 10.21 2.89 11.93 5.27 13.16L11.12 16.19C14.37 17.87 16.94 13.96 13.95 11.65L11.81 10Z" fill="#FEE600"/>
</svg>
