<svg width="24" height="24" viewBox="0 0 24 24" fill="none" xmlns="http://www.w3.org/2000/svg">
<path d="M20 12H22C22 6.5 17.5 2 12 2V4C16.5 4 20 7.6 20 12Z" fill="#FEE600"/>
<path d="M21.3 16C19.7 15.4 19 14.3 19 13H17C17 14.6 17.5 15.6 19 15.9V16H12V18H19V18.1C17.5 18.4 17 19.4 17 21H19C19 19.7 19.7 18.6 21.3 18C21.8 17.8 22 17.5 22 17C22 16.6 21.8 16.2 21.3 16Z" fill="#FEE600"/>
<path d="M6 16V11.6H6.1C6.2 12.5 6.8 13 7.9 13H10V11H6V10H9C10.7 10 12 8.7 12 7C12 5.3 10.7 4 9 4H4V8H2V10H4V11H2V13H4V16H6ZM6 6H9C9.6 6 10 6.4 10 7C10 7.6 9.6 8 9 8H6V6Z" fill="#FEE600"/>
<path d="M4.9 19.1C6.7 20.9 9.2 22 12 22V20C9.8 20 7.8 19.1 6.3 17.7L4.9 19.1Z" fill="#FEE600"/>
</svg>
