<svg width="24" height="24" viewBox="0 0 24 24" fill="none" xmlns="http://www.w3.org/2000/svg">
<path d="M4 15C5.07 15 6 14.07 6 13C6 11.93 5.07 11 4 11C2.94 11 2 11.93 2 13C2 14.07 2.94 15 4 15ZM10 21C11.07 21 12 20.07 12 19C12 17.93 11.07 17 10 17C8.94 17 8 17.93 8 19C8 20.07 8.94 21 10 21ZM3.4 21.01L12 12.42L10.6 11.02L2 19.61L3.4 21.01ZM14 13V11H18V13H14ZM8 9H18V7H8V9ZM21 17H14V19H21C21.55 19 22 18.56 22 18V4C22 3.45 21.55 3 21 3H3C2.45 3 2 3.45 2 4V9H4V6.48C4 5.74 3.73 5.34 3 5.12V5H20V15.52C20 16.26 20.27 16.66 21 16.88V17Z" fill="#FEE600"/>
</svg>
