<svg width="24" height="24" viewBox="0 0 24 24" fill="none" xmlns="http://www.w3.org/2000/svg">
<path d="M14 8H9V12H7V14H9V15H7V17H9V19H11V15.6H11.1C11.2 16.5 11.8 17 12.9 17H15V15H11V14H14C15.7 14 17 12.7 17 11C17 9.3 15.7 8 14 8ZM14 12H11V10H14C14.6 10 15 10.4 15 11C15 11.6 14.6 12 14 12Z" fill="#FEE600"/>
<path d="M22 13C22 7.4 17.6 3 12 3C6.4 3 2 7.4 2 13C2 15.8 3.1 18.2 4.8 20H2V22H22V20H19.2C20.9 18.2 22 15.8 22 13ZM15.9 20H8.1C5.7 18.7 4 16 4 13C4 8.5 7.5 5 12 5C16.5 5 20 8.5 20 13C20 16 18.4 18.7 15.9 20Z" fill="#FEE600"/>
</svg>
