<svg width="25" height="24" viewBox="0 0 25 24" fill="none" xmlns="http://www.w3.org/2000/svg">
<path d="M12 7C9.24 7 7 9.24 7 12C7 15.06 9.24 17 12 17C14.76 17 17 14.76 17 12C17 9.24 14.76 7 12 7ZM12 15C10.34 15 9 13.66 9 12C9 10.34 10.34 9 12 9C13.66 9 15 10.34 15 12C15 13.66 13.66 15 12 15Z" fill="white"/>
<path d="M23.14 11C22.56 11 22.27 11.16 22.15 11.51H22.03C21.79 6.55 17.93 2.54 13.04 2.05V0H11.04V0.9C11.04 1.48 11.2 1.77 11.55 1.89V2.01C6.59 2.25 2.58 6.11 2.09 11H0V13H0.9C1.48 13 1.77 12.84 1.89 12.49H2.01C2.25 17.45 6.11 21.46 11 21.95V24H13V23.1C13 22.52 12.84 22.23 12.49 22.11V21.99C17.45 21.75 21.46 17.89 21.95 13H24.04V11H23.14ZM12 20C7.58 20 4 16.42 4 12C4 7.58 7.58 4 12 4C16.42 4 20 7.58 20 12C20 16.42 16.42 20 12 20Z" fill="white"/>
</svg>
