<svg width="24" height="24" viewBox="0 0 24 24" fill="none" xmlns="http://www.w3.org/2000/svg">
<path d="M20.2201 7.06C19.4101 7.17 19.2101 7.24 18.5801 8H13.0001V6H18.5801C19.2101 6.76 19.4101 6.83 20.2201 6.94V7.06ZM3.78006 11.06V10.94C4.59006 10.83 4.79006 10.76 5.42006 10H11.0001V12H5.42006C4.79006 11.24 4.59006 11.17 3.78006 11.06ZM7.00006 22H17.0001V20H13.0001V10H19.0001C19.2701 10 19.5201 9.89 19.7101 9.71L21.7101 7.71C22.1001 7.32 22.1001 6.68 21.7101 6.29L19.7101 4.29C19.5201 4.11 19.2701 4 19.0001 4H13.0001V2H11.0001V8H5.10006C4.72006 8 4.53006 8.05 4.29006 8.29L2.29006 10.29C1.90006 10.68 1.90006 11.32 2.29006 11.71L4.29006 13.71C4.52006 13.94 4.72006 14 5.10006 14H11.0001V20H7.00006V22Z" fill="white"/>
</svg>
