<svg width="24" height="24" viewBox="0 0 24 24" fill="none" xmlns="http://www.w3.org/2000/svg">
<path d="M7.01 14.9C7.04 14.93 7.08 14.98 7.17 15.05C7.43 15.27 7.84 15.51 8.28 15.71C9.4 16.21 10.77 16.5 12 16.5C13.23 16.5 14.6 16.21 15.72 15.71C16.15 15.53 16.54 15.29 16.83 15.05C16.9 15 16.97 14.94 16.99 14.9C16.95 14.56 16.74 14.1 16.47 13.75C16.07 13.25 15.58 13 15 13H9C8.42 13 7.93 13.25 7.53 13.75C7.26 14.1 7.05 14.56 7.01 14.9ZM16.53 17.54C15.1 18.18 13.29 18.53 11.75 18.47V18.59C12.65 18.66 13 19.09 13 20H17V22H7V20H11V18.45C9.78 18.34 8.53 18.02 7.47 17.54C6.77 17.22 6.24 16.9 5.87 16.57C5.3 16.08 5 15.53 5 15C5 14.21 5.38 13.24 5.97 12.5C6.74 11.54 7.83 11 9 11H15C16.17 11 17.26 11.54 18.03 12.5C18.62 13.24 19 14.21 19 15C19 15.54 18.7 16.09 18.14 16.57C17.74 16.91 17.21 17.23 16.53 17.54ZM10.5 6C10.5 4.92 11.19 4 12 4C12.82 4 13.5 4.91 13.5 6C13.5 7.09 12.82 8 12 8C11.19 8 10.5 7.08 10.5 6ZM12 2C10.07 2 8.5 3.79 8.5 6C8.5 8.21 10.07 10 12 10C13.94 10 15.5 8.21 15.5 6C15.5 3.78 13.94 2 12 2Z" fill="#2B2D33"/>
</svg>
