<svg width="24" height="24" viewBox="0 0 24 24" fill="none" xmlns="http://www.w3.org/2000/svg">
<path d="M13.56 7.16L13.64 7.09C14.3 7.59 14.98 7.44 15.54 6.88L18.51 3.91L20.62 3.38L20.09 5.5L15.99 9.6L13.56 7.16ZM5.01 8.6L3.42 7.01L7 3.42L20.59 17.01L17 20.6L15.42 19.01L16.71 17.72L15.28 16.3L14 17.6L12.42 16.01L14.71 13.72L13.3 12.3L11 14.6L9.43 13.01L10.71 11.72L9.27999 10.3L7.99 11.6L6.43 10.01L8.72 7.72L7.3 6.29L5.01 8.6ZM4.12 19.72C3.73 19.33 3.73 18.69 4.12 18.3L6.87 15.55C7.43 14.99 7.58 14.31 7.08 13.65L7.15 13.57L9.6 16L5.7 19.89C5.31 20.27 4.68 20.27 4.29 19.89L4.12 19.72ZM2.72 21.13L2.89 21.3C4.04999 22.47 5.96 22.47 7.13 21.3L11.01 17.42L16.3 22.72C16.69 23.11 17.32 23.11 17.71 22.72L22.72 17.71C23.11 17.33 23.11 16.69 22.72 16.3L17.43 11.01L21.72 6.72C21.85 6.59 21.94 6.43 21.98 6.25L22.98 2.25C23.07 1.91 22.97 1.54 22.72 1.3C22.47 1.05 22.1 0.949996 21.77 1.03L17.76 2.04C17.59 2.07 17.42 2.17 17.3 2.29L13 6.6L7.7 1.3C7.31999 0.909996 6.68 0.909996 6.29 1.3L1.28 6.3C0.899995 6.69 0.899995 7.33 1.28 7.72L6.59 13.01L2.71 16.89C1.55 18.05 1.55 19.96 2.72 21.13Z" fill="#2B2D33"/>
</svg>
