<svg width="24" height="24" viewBox="0 0 24 24" fill="none" xmlns="http://www.w3.org/2000/svg">
<path d="M10.92 15.75C9.91 15.75 9.34 15.89 8.41 16.64L8.32 16.56L15.92 8.96L14.5 7.54L6.81 15.24L6.72 15.16C7.54 14.15 7.71 13.63 7.71 12.54V10.16L9.12 8.75H10.71C11.26 8.75 11.71 8.3 11.71 7.75V6.16L13.42 4.46C13.43 4.45 13.49 4.41 13.63 4.35C13.79 4.29 14.01 4.22 14.28 4.17C14.83 4.06 15.51 4 16.21 4C16.91 4 17.59 4.06 18.14 4.17C18.41 4.22 18.63 4.29 18.79 4.35C18.93 4.41 18.99 4.45 19 4.46C19.01 4.47 19.05 4.53 19.11 4.67C19.17 4.83 19.24 5.05 19.29 5.32C19.4 5.87 19.46 6.55 19.46 7.25C19.46 7.95 19.4 8.63 19.29 9.18C19.24 9.45 19.17 9.67 19.11 9.83C19.05 9.97 19.01 10.03 19 10.04L16.3 12.75H14.71C14.16 12.75 13.71 13.2 13.71 13.75V15.34L13.3 15.75H10.92ZM7.71 21.75H20.71V19.75H7.71V21.75ZM3.42 21.46L7.12 17.75H13.71C13.97 17.75 14.23 17.64 14.42 17.46L15.42 16.46C15.6 16.27 15.71 16.02 15.71 15.75V14.75H16.71C16.97 14.75 17.23 14.64 17.42 14.46L20.42 11.46C20.68 11.2 20.85 10.87 20.97 10.57C21.09 10.27 21.18 9.92 21.25 9.57C21.39 8.87 21.46 8.05 21.46 7.25C21.46 6.45 21.39 5.63 21.25 4.93C21.18 4.58 21.09 4.23 20.97 3.93C20.85 3.63 20.68 3.3 20.42 3.04C20.16 2.78 19.83 2.61 19.53 2.49C19.23 2.37 18.88 2.28 18.53 2.21C17.83 2.07 17.01 2 16.21 2C15.41 2 14.59 2.07 13.89 2.21C13.54 2.28 13.19 2.37 12.88 2.49C12.59 2.61 12.26 2.78 12 3.04L10 5.04C9.81 5.23 9.71 5.48 9.71 5.75V6.75H8.71C8.44 6.75 8.19 6.86 8 7.04L6 9.04C5.81 9.23 5.71 9.48 5.71 9.75V16.34L2 20.04L3.42 21.46Z" fill="#2B2D33"/>
</svg>
