<svg width="24" height="24" viewBox="0 0 24 24" fill="none" xmlns="http://www.w3.org/2000/svg">
<path d="M18 21V19.56H18.12C18.29 20.35 18.54 20.64 19.25 21.08L20.44 21.83C21.12 22.26 22 21.8 22 21V12C22 11.19 21.12 10.74 20.44 11.17L19.25 11.92C18.54 12.36 18.29 12.65 18.12 13.44H18V12C18 11.45 17.55 11 17 11C17.63 10.16 18 9.13 18 8C18 5.24 15.76 3 13 3C11 3 9.28 4.17 8.48 5.86C7.8 5.32 6.94 5 6 5C3.79 5 2 6.79 2 9C2 9.77 2.22 10.48 2.59 11.09C2.24 11.25 2 11.59 2 12V21C2 21.55 2.45 22 3 22H17C17.55 22 18 21.55 18 21ZM13 11C11.34 11 10 9.66 10 8C10 6.34 11.34 5 13 5C14.66 5 16 6.34 16 8C16 9.66 14.66 11 13 11ZM20 19.12L18 17.77V15.23L20 13.88V19.12ZM6 11C4.9 11 4 10.1 4 9C4 7.9 4.9 7 6 7C7.11 7 8 7.9 8 9C8 10.1 7.11 11 6 11ZM4 20V13H16V20H4Z" fill="#2B2D33"/>
</svg>
