<svg width="24" height="24" viewBox="0 0 24 24" fill="none" xmlns="http://www.w3.org/2000/svg">
<path d="M11.9 14C11.97 13.67 12 13.34 12 13C12 10.24 9.76 8 7 8C5.57 8 4.54 8.72 4.12 10H4V6H20V8C19.61 8 19.22 8.08 18.85 8.23C18.54 8.36 18.25 8.54 18 8.76C17.75 8.54 17.46 8.36 17.15 8.23C16.79 8.08 16.4 8 16 8C15.61 8 15.22 8.08 14.85 8.23C14.49 8.38 14.16 8.6 13.88 8.88C13.6 9.16 13.38 9.49 13.23 9.85C13.08 10.22 13 10.61 13 11H15C15 10.87 15.03 10.74 15.08 10.62C15.13 10.5 15.2 10.39 15.29 10.29C15.39 10.2 15.5 10.13 15.62 10.08C15.74 10.03 15.87 10 16 10C16.13 10 16.26 10.03 16.38 10.08C16.51 10.13 16.62 10.2 16.71 10.29C16.8 10.39 16.87 10.5 16.92 10.62C16.98 10.74 17 10.87 17 11C17 11.55 17.45 12 18 12C18.55 12 19 11.55 19 11C19 10.87 19.03 10.74 19.08 10.62C19.13 10.5 19.2 10.39 19.29 10.29C19.39 10.2 19.5 10.13 19.62 10.08C19.74 10.03 19.87 10 20 10V14H11.9ZM4 18V16H20V18H4ZM4.17 14C4.06 13.68 4 13.34 4 13C4 11.34 5.35 10 7 10C8.62 10 10 11.31 10 13C10 13.34 9.94 13.68 9.83 14H4.17ZM3 20H21C21.55 20 22 19.55 22 19V5C22 4.45 21.55 4 21 4H3C2.45 4 2 4.45 2 5V19C2 19.55 2.45 20 3 20Z" fill="#2B2D33"/>
</svg>
