<svg width="24" height="24" viewBox="0 0 24 24" fill="none" xmlns="http://www.w3.org/2000/svg">
<path d="M8.87 8V7.88C9.63 7.83 10 7.4 10 6.73V4H20V10C20 11.29 19.57 12.54 18.75 13.46C18.29 13.99 17.67 14.38 17.16 14.59C16.45 14.89 16.2 15.22 15.99 16.01L15.87 16C15.97 15.67 16 15.43 16 15.01V12.24C16.17 12.3 16.34 12.36 16.5 12.43C16.8 12.55 17.06 12.66 17.25 12.75C17.35 12.8 17.43 12.83 17.48 12.86L17.54 12.89H17.55C17.55 12.89 17.55 12.89 18 12C18.45 11.11 18.45 11.11 18.45 11.11V11.1H18.44L18.42 11.09L18.39 11.08L18.35 11.06C18.29 11.03 18.2 10.99 18.09 10.94C17.88 10.84 17.58 10.7 17.25 10.57C16.92 10.44 16.54 10.3 16.17 10.19C16.11 10.18 16.06 10.16 16 10.15V9C16 8.45 15.55 8 15 8H8.87ZM17 8.2C17.66 8.2 18.2 7.66 18.2 7C18.2 6.34 17.66 5.8 17 5.8C16.34 5.8 15.8 6.34 15.8 7C15.8 7.66 16.34 8.2 17 8.2ZM13 8.2C13.66 8.2 14.2 7.66 14.2 7C14.2 6.34 13.66 5.8 13 5.8C12.34 5.8 11.8 6.34 11.8 7C11.8 7.66 12.34 8.2 13 8.2ZM11 14.2C11.66 14.2 12.2 13.66 12.2 13C12.2 12.34 11.66 11.8 11 11.8C10.34 11.8 9.8 12.34 9.8 13C9.8 13.66 10.34 14.2 11 14.2ZM7 14.2C7.66 14.2 8.2 13.66 8.2 13C8.2 12.34 7.66 11.8 7 11.8C6.34 11.8 5.8 12.34 5.8 13C5.8 13.66 6.34 14.2 7 14.2ZM11 14.2C11.66 14.2 12.2 13.66 12.2 13C12.2 12.34 11.66 11.8 11 11.8C10.34 11.8 9.8 12.34 9.8 13C9.8 13.66 10.34 14.2 11 14.2ZM9 20C7.27 20 6.05 19.36 5.25 18.46C4.43 17.54 4 16.29 4 15V10H14V15C14 15.65 13.89 16.3 13.67 16.9C13.46 17.47 13.16 18.01 12.75 18.46C11.95 19.36 10.73 20 9 20ZM9 18C9.39 18 9.81 17.91 10.17 17.81C10.54 17.7 10.92 17.56 11.25 17.43C11.58 17.3 11.88 17.16 12.09 17.06C12.2 17.01 12.29 16.97 12.35 16.94C12.38 16.93 12.4 16.92 12.42 16.91L12.44 16.9H12.45V16.89C12.45 16.89 12.45 16.89 12 16L11.55 15.11H11.54L11.48 15.14C11.43 15.17 11.35 15.2 11.25 15.25C11.06 15.34 10.8 15.45 10.5 15.57C10.21 15.69 9.9 15.8 9.62 15.88C9.32 15.97 9.11 16 9 16C8.89 16 8.68 15.97 8.39 15.88C8.1 15.8 7.79 15.69 7.5 15.57C7.21 15.45 6.94 15.34 6.75 15.25C6.65 15.2 6.58 15.17 6.52 15.14L6.47 15.11H6.45C6.45 15.11 6.45 15.11 6 16C5.55 16.89 5.55 16.89 5.55 16.89L5.56 16.9L5.58 16.91C5.6 16.92 5.62 16.93 5.65 16.94C5.72 16.97 5.8 17.01 5.91 17.06C6.12 17.16 6.42 17.3 6.75 17.43C7.09 17.56 7.46 17.7 7.84 17.81C8.19 17.91 8.61 18 9 18ZM9 22C11.27 22 13.05 21.14 14.25 19.79C14.98 18.97 15.47 18 15.75 16.97C17.66 16.8 19.18 15.99 20.25 14.79C21.43 13.46 22 11.71 22 10V3C22 2.45 21.55 2 21 2H9C8.45 2 8 2.45 8 3V8H3C2.45 8 2 8.45 2 9V15C2 16.71 2.57 18.46 3.75 19.79C4.95 21.14 6.73 22 9 22Z" fill="#2B2D33"/>
</svg>
