<svg width="48" height="48" viewBox="0 0 48 48" fill="none" xmlns="http://www.w3.org/2000/svg">
<rect width="48" height="48" rx="12" fill="#FEE600"/>
<path d="M25 18L23 16V18H21V13H23L25 15V13H27V18H25Z" fill="#2B2D33"/>
<path d="M29.8 15.7998L28.7 17.4998C30 18.3998 31 19.6998 31.6 21.0998C31.9 22.1998 31.3 22.9998 30.2 22.9998H29V24.9998H30.1C31 24.9998 31.65 24.3998 31.85 23.5998H32V23.8998C32 27.2998 29.9 30.1998 26.9 31.3998C25.8 31.6998 25 31.0998 25 29.9998V28.9998H23V29.9998C23 30.8998 23.6 31.65 24.4 31.85V31.9998H24C20.6 31.9998 17.7 29.8998 16.6 26.8998C16.3 25.6998 16.9 24.8998 18 24.8998H19V22.8998H18C17 22.8998 16.25 23.4998 16.15 24.2998H16V23.8998C16 21.1998 17.3 18.7998 19.4 17.3998L18.2 15.7998C15.7 17.5998 14 20.5998 14 23.9998C14 29.4998 18.5 33.9998 24 33.9998C29.5 33.9998 34 29.4998 34 23.9998C34 20.5998 32.3 17.5998 29.8 15.7998Z" fill="#2B2D33"/>
<path fill-rule="evenodd" clip-rule="evenodd" d="M21.9001 22.3001L19.1001 27.5001C18.9001 27.9001 19.0001 28.4001 19.3001 28.7001C19.6001 29.0001 20.1001 29.1001 20.5001 28.9001L25.7001 26.1001C25.9001 26.0001 26.0001 25.9001 26.1001 25.7001L28.9001 20.5001C29.1001 20.1001 29.0001 19.6001 28.7001 19.3001C28.4001 19.0001 27.9001 18.9001 27.5001 19.1001L22.3001 21.9001C22.1607 21.9699 22.0699 22.0882 21.9938 22.1874C21.9607 22.2304 21.9304 22.2699 21.9001 22.3001ZM23.5001 23.5001L25.5001 22.4001L24.4001 24.4001L22.4001 25.5001L23.5001 23.5001Z" fill="#2B2D33"/>
</svg>
