<svg width="48" height="48" viewBox="0 0 48 48" fill="none" xmlns="http://www.w3.org/2000/svg">
<rect width="48" height="48" rx="12" fill="#FEE600"/>
<path d="M33.19 25.03C31.59 24.47 30.91 23.32 30.9 22H28.9C28.9 23.49 29.41 24.55 30.87 24.86V25H23.89V17.03H24.03C24.33 18.49 25.43 19 26.91 19V17C25.59 16.99 24.44 16.31 23.87 14.71C23.69 14.2 23.35 14 22.9 14C22.44 14 22.1 14.2 21.92 14.71C21.36 16.31 20.21 16.99 18.89 17V19C20.38 19 21.44 18.49 21.75 17.03H21.89V25.6L17.15 30.34L17.05 30.24C17.87 28.99 17.46 27.85 16.41 26.81L15 28.22C15.92 29.16 16.25 30.46 15.53 31.99C15.3 32.48 15.39 32.86 15.71 33.18C16.04 33.51 16.42 33.6 16.91 33.37C18.44 32.65 19.73 32.97 20.67 33.89L22.08 32.48C21.03 31.43 19.92 31.04 18.67 31.85L18.57 31.75L23.32 27H30.87V27.14C29.41 27.44 28.9 28.54 28.9 30.02H30.9C30.91 28.7 31.59 27.55 33.19 26.98C33.7 26.8 33.9 26.46 33.9 26.01C33.9 25.55 33.7 25.21 33.19 25.03Z" fill="#2B2D33"/>
</svg>
