<svg width="48" height="48" viewBox="0 0 48 48" fill="none" xmlns="http://www.w3.org/2000/svg">
<rect width="48" height="48" rx="12" fill="#FEE600"/>
<path d="M24 19C21.24 19 19 21.24 19 24C19 27.06 21.24 29 24 29C26.76 29 29 26.76 29 24C29 21.24 26.76 19 24 19ZM24 27C22.34 27 21 25.66 21 24C21 22.34 22.34 21 24 21C25.66 21 27 22.34 27 24C27 25.66 25.66 27 24 27Z" fill="#2B2D33"/>
<path d="M35.14 23C34.56 23 34.27 23.16 34.15 23.51H34.03C33.79 18.55 29.93 14.54 25.04 14.05V12H23.04V12.9C23.04 13.48 23.2 13.77 23.55 13.89V14.01C18.59 14.25 14.58 18.11 14.09 23H12V25H12.9C13.48 25 13.77 24.84 13.89 24.49H14.01C14.25 29.45 18.11 33.46 23 33.95V36H25V35.1C25 34.52 24.84 34.23 24.49 34.11V33.99C29.45 33.75 33.46 29.89 33.95 25H36.04V23H35.14ZM24 32C19.58 32 16 28.42 16 24C16 19.58 19.58 16 24 16C28.42 16 32 19.58 32 24C32 28.42 28.42 32 24 32Z" fill="#2B2D33"/>
</svg>
