<svg width="48" height="48" viewBox="0 0 48 48" fill="none" xmlns="http://www.w3.org/2000/svg">
<rect width="48" height="48" rx="12" fill="#FEE600"/>
<path d="M21.25 28.19C19.58 28.44 18.31 28.88 17.57 29.37C17.21 29.61 17.07 29.81 17.02 29.91C17 29.96 17 29.99 17 30C17 30.02 17 30.05 17.03 30.1C17.09 30.22 17.25 30.43 17.63 30.67C17.99 30.9 18.5 31.14 19.16 31.34C20.47 31.76 22.16 32 23.95 32C25.73 32 27.44 31.77 28.76 31.37C29.43 31.17 29.95 30.93 30.33 30.7C30.72 30.45 30.9 30.25 30.96 30.12C30.99 30.06 31 30.02 31 30.01C31 29.99 31 29.97 30.98 29.93C30.94 29.83 30.82 29.64 30.47 29.39C29.76 28.91 28.51 28.46 26.85 28.21L27.15 26.23C28.94 26.5 30.54 27.01 31.61 27.75C32.14 28.12 32.6 28.59 32.84 29.18C33.09 29.8 33.05 30.46 32.73 31.05C32.44 31.61 31.94 32.05 31.39 32.39C30.82 32.75 30.13 33.04 29.35 33.28C27.79 33.76 25.88 34.01 23.94 34C22 33.99 20.1 33.74 18.56 33.25C17.79 33.01 17.1 32.71 16.55 32.35C16 32 15.51 31.55 15.23 30.98C14.94 30.38 14.92 29.72 15.19 29.11C15.45 28.53 15.92 28.07 16.46 27.71C17.55 26.98 19.16 26.48 20.96 26.21L21.25 28.19ZM24 16C22.9 16 22 16.9 22 18C22 19.1 22.9 20 24 20C25.11 20 26 19.1 26 18C26 16.9 25.11 16 24 16ZM25 23.44V30H23V21.87C21.28 21.43 20 19.86 20 18C20 15.79 21.79 14 24 14C26.21 14 28 15.79 28 18C28 20.21 26.21 22 24 22V22.12C24.7 22.21 25 22.66 25 23.44Z" fill="#2B2D33"/>
</svg>
