<svg width="48" height="48" viewBox="0 0 48 48" fill="none" xmlns="http://www.w3.org/2000/svg">
<rect width="48" height="48" rx="12" fill="#FEE600"/>
<path d="M20.8801 31C20.3301 31 19.8801 31.45 19.8801 32C19.8901 32.54 20.3401 33 20.8801 33C21.4501 33 21.8801 32.55 21.8801 32C21.8901 31.45 21.4401 31 20.8801 31ZM25.0101 15.03L24.9301 15.11C25.4801 15.73 25.6101 15.97 25.8801 16.81L26.3201 18.14L28.0301 16.43L26.7101 15.98C25.8801 15.71 25.6401 15.58 25.0101 15.03ZM23.1801 13.28C23.4501 13.03 23.8401 12.93 24.2101 13.05L30.2101 15.04C30.5401 15.15 30.7901 15.42 30.8701 15.77C30.9501 16.11 30.8501 16.46 30.6001 16.7L29.3001 18L32.0901 20.79C33.8601 22.56 33.8601 25.44 32.0901 27.21C30.3201 28.98 27.4501 28.98 25.6801 27.2L20.9301 22.46C19.8001 21.33 17.9701 21.32 16.8401 22.46C15.7101 23.6 15.7201 25.41 16.8501 26.54L19.6001 29.29C19.9901 29.1 20.4201 29 20.8801 29C22.5401 28.99 23.8801 30.33 23.8801 32C23.8801 33.65 22.5401 35 20.8801 35C19.2201 35 17.8801 33.66 17.8801 32C17.8801 31.53 17.9901 31.1 18.1801 30.71L15.4301 27.96C13.5201 26.05 13.5201 22.94 15.4301 21.03C17.3401 19.12 20.4301 19.13 22.3401 21.04L27.0901 25.79C28.0801 26.78 29.6901 26.78 30.6801 25.79C31.6701 24.8 31.6601 23.19 30.6701 22.2L27.8701 19.4L26.5801 20.7C26.3501 20.95 26.0001 21.05 25.6601 20.97C25.3201 20.89 25.0501 20.64 24.9401 20.32L22.9401 14.32C22.8201 13.96 22.9101 13.55 23.1801 13.28Z" fill="#2B2D33"/>
</svg>
