<svg width="48" height="48" viewBox="0 0 48 48" fill="none" xmlns="http://www.w3.org/2000/svg">
<rect width="48" height="48" rx="12" fill="#FEE600"/>
<path d="M19 26.31C19.72 26.31 20.31 25.72 20.31 25C20.31 24.28 19.72 23.69 19 23.69C18.28 23.69 17.69 24.28 17.69 25C17.69 25.72 18.28 26.31 19 26.31ZM19.06 30.33H18.94C18.72 29.43 18.5 29.22 17.93 28.65C17.03 27.75 16 26.17 16 24.75C16 23.29 17.28 22 19 22C20.72 22 22 23.29 22 24.75C22 26.18 20.97 27.74 20.05 28.66C19.49 29.22 19.28 29.43 19.06 30.33ZM31 16C32.1 16 33 16.9 33 18C33 18.95 32.43 19.97 31.72 20.85C31.47 21.16 31.22 21.43 31 21.65C30.78 21.43 30.52 21.16 30.27 20.85C29.56 19.97 29 18.95 29 18C29 16.9 29.89 16 31 16ZM30.37 23.78C30.55 23.93 30.78 24 31 24C31.22 24 31.44 23.93 31.62 23.78H31.63L31.67 23.74C31.69 23.72 31.73 23.69 31.78 23.65C31.87 23.57 32 23.46 32.15 23.31C32.46 23.02 32.86 22.61 33.27 22.1C34.06 21.13 35 19.65 35 18C35 15.79 33.21 14 31 14C28.79 14 27 15.79 27 18C27 19.65 27.93 21.13 28.72 22.1C29.13 22.61 29.54 23.02 29.84 23.31C29.99 23.46 30.12 23.57 30.21 23.65C30.26 23.69 30.3 23.72 30.32 23.74L30.36 23.77L30.37 23.78ZM18.4 31.8C18.75 32.07 19.24 32.07 19.6 31.8L19.61 31.79L19.65 31.76C19.69 31.73 19.74 31.69 19.8 31.64C19.92 31.55 20.08 31.41 20.28 31.23C20.68 30.88 21.22 30.37 21.75 29.75C22.79 28.55 24 26.75 24 24.75C24 22.07 21.7 20 19 20C16.3 20 14 22.07 14 24.75C14 26.75 15.2 28.55 16.24 29.75C16.78 30.37 17.31 30.88 17.71 31.23C17.91 31.41 18.08 31.55 18.2 31.64C18.26 31.69 18.3 31.73 18.34 31.76L18.38 31.79L18.39 31.8H18.4ZM31 24H28.23C27.1 24 26.06 24.64 25.55 25.66C24.55 27.65 26 30 28.23 30H30.17C31.06 30 31.5 31.08 30.87 31.71C30.69 31.89 30.43 32 30.17 32H18V34H30.17C30.96 34 31.73 33.68 32.29 33.12C34.18 31.23 32.84 28 30.17 28H28.23C27.49 28 27.01 27.22 27.34 26.55C27.51 26.21 27.85 26 28.23 26H31V24Z" fill="#2B2D33"/>
</svg>
