<svg width="48" height="48" viewBox="0 0 48 48" fill="none" xmlns="http://www.w3.org/2000/svg">
<rect width="48" height="48" rx="12" fill="#FEE600"/>
<path d="M31.97 25C31.6 27.96 29.6 30.68 26.03 31.81L25.98 31.72C26.88 30.9 27.48 29.92 27.68 28.8C27.94 27.37 27.97 26.28 28 25H31.97ZM16.06 25H20.03C20.06 26.28 20.09 27.37 20.35 28.8C20.55 29.92 21.15 30.9 22.05 31.72L22 31.81C18.43 30.68 16.43 27.96 16.06 25ZM31.97 23H28C27.97 21.72 27.94 20.63 27.68 19.2C27.48 18.08 26.88 17.1 25.98 16.28L26.03 16.19C29.6 17.32 31.6 20.04 31.97 23ZM22.01 23C22.05 20.56 22.37 18.33 23.02 16.06C23.34 16.02 23.67 16 24 16C24.33 16 24.66 16.02 24.98 16.06C25.63 18.32 25.96 20.55 26 23H22.01ZM16.06 23C16.43 20.04 18.43 17.32 22 16.19L22.05 16.28C21.15 17.1 20.55 18.08 20.35 19.2C20.08 20.63 20.06 21.72 20.03 23H16.06ZM24 32C23.67 32 23.34 31.98 23.01 31.94C22.45 29.42 22.13 27.17 22.03 25H25.97C25.87 27.22 25.55 29.48 24.99 31.94C24.67 31.98 24.34 32 24 32ZM24 34C29.52 34 34 29.52 34 24C34 18.48 29.52 14 24 14C18.48 14 14 18.48 14 24C14 29.52 18.48 34 24 34Z" fill="#2B2D33"/>
</svg>
