<svg width="48" height="48" viewBox="0 0 48 48" fill="none" xmlns="http://www.w3.org/2000/svg">
<rect width="48" height="48" rx="12" fill="#FEE600"/>
<path d="M32.28 20.71L29.98 22.24L27.21 19.47L28.78 17.11L27.12 16L23.5 21.43C23.09 22.04 23.06 22.34 23.35 22.93L23.27 23.05C22.76 22.85 22.23 22.71 21.69 22.71C19.24 22.71 18.05 24.53 17.25 26.96C16.89 28.06 16.56 29.09 15.63 30.16C15.29 30.55 15 30.89 15 31.26C15 31.72 15.32 32.09 15.95 32.3C17.01 32.65 18.11 32.8 19.17 32.8C22.67 32.8 26.55 30.84 26.55 27.58C26.55 27.13 26.45 26.69 26.3 26.25L26.46 26.14C26.97 26.48 27.3 26.42 28.03 25.94L33.39 22.37L32.28 20.71ZM19.17 30.8C18.7 30.8 18.23 30.79 17.46 30.71C18.62 29.72 18.96 28.47 19.23 27.56C19.67 26.01 20.21 24.71 21.69 24.71C23.15 24.71 24.55 26.14 24.55 27.58C24.55 29.6 21.5 30.8 19.17 30.8ZM25.73 25.08C25.37 24.54 24.92 24.07 24.4 23.68L26.07 21.17L28.27 23.38L25.73 25.08Z" fill="#2B2D33"/>
</svg>
