<svg width="48" height="48" viewBox="0 0 48 48" fill="none" xmlns="http://www.w3.org/2000/svg">
<rect width="48" height="48" rx="12" fill="#FEE600"/>
<path d="M19.01 26.9C19.04 26.93 19.08 26.98 19.17 27.05C19.43 27.27 19.84 27.51 20.28 27.71C21.4 28.21 22.77 28.5 24 28.5C25.23 28.5 26.6 28.21 27.72 27.71C28.15 27.53 28.54 27.29 28.83 27.05C28.9 27 28.97 26.94 28.99 26.9C28.95 26.56 28.74 26.1 28.47 25.75C28.07 25.25 27.58 25 27 25H21C20.42 25 19.93 25.25 19.53 25.75C19.26 26.1 19.05 26.56 19.01 26.9ZM28.53 29.54C27.1 30.18 25.29 30.53 23.75 30.47V30.59C24.65 30.66 25 31.09 25 32H29V34H19V32H23V30.45C21.78 30.34 20.53 30.02 19.47 29.54C18.77 29.22 18.24 28.9 17.87 28.57C17.3 28.08 17 27.53 17 27C17 26.21 17.38 25.24 17.97 24.5C18.74 23.54 19.83 23 21 23H27C28.17 23 29.26 23.54 30.03 24.5C30.62 25.24 31 26.21 31 27C31 27.54 30.7 28.09 30.14 28.57C29.74 28.91 29.21 29.23 28.53 29.54ZM22.5 18C22.5 16.92 23.19 16 24 16C24.82 16 25.5 16.91 25.5 18C25.5 19.09 24.82 20 24 20C23.19 20 22.5 19.08 22.5 18ZM24 14C22.07 14 20.5 15.79 20.5 18C20.5 20.21 22.07 22 24 22C25.94 22 27.5 20.21 27.5 18C27.5 15.78 25.94 14 24 14Z" fill="#2B2D33"/>
</svg>
