<svg width="48" height="48" viewBox="0 0 48 48" fill="none" xmlns="http://www.w3.org/2000/svg">
<rect width="48" height="48" rx="12" fill="#FEE600"/>
<path d="M25.56 19.16L25.64 19.09C26.3 19.59 26.98 19.44 27.54 18.88L30.51 15.91L32.62 15.38L32.09 17.5L27.99 21.6L25.56 19.16ZM17.01 20.6L15.42 19.01L19 15.42L32.59 29.01L29 32.6L27.42 31.01L28.71 29.72L27.28 28.3L26 29.6L24.42 28.01L26.71 25.72L25.3 24.3L23 26.6L21.43 25.01L22.71 23.72L21.28 22.3L19.99 23.6L18.43 22.01L20.72 19.72L19.3 18.29L17.01 20.6ZM16.12 31.72C15.73 31.33 15.73 30.69 16.12 30.3L18.87 27.55C19.43 26.99 19.58 26.31 19.08 25.65L19.15 25.57L21.6 28L17.7 31.89C17.31 32.27 16.68 32.27 16.29 31.89L16.12 31.72ZM14.72 33.13L14.89 33.3C16.05 34.47 17.96 34.47 19.13 33.3L23.01 29.42L28.3 34.72C28.69 35.11 29.32 35.11 29.71 34.72L34.72 29.71C35.11 29.33 35.11 28.69 34.72 28.3L29.43 23.01L33.72 18.72C33.85 18.59 33.94 18.43 33.98 18.25L34.98 14.25C35.07 13.91 34.97 13.54 34.72 13.3C34.47 13.05 34.1 12.95 33.77 13.03L29.76 14.04C29.59 14.07 29.42 14.17 29.3 14.29L25 18.6L19.7 13.3C19.32 12.91 18.68 12.91 18.29 13.3L13.28 18.3C12.9 18.69 12.9 19.33 13.28 19.72L18.59 25.01L14.71 28.89C13.55 30.05 13.55 31.96 14.72 33.13Z" fill="#2B2D33"/>
</svg>
