<svg width="48" height="48" viewBox="0 0 48 48" fill="none" xmlns="http://www.w3.org/2000/svg">
<rect width="48" height="48" rx="12" fill="#FEE600"/>
<path d="M22.92 27.75C21.91 27.75 21.34 27.89 20.41 28.64L20.32 28.56L27.92 20.96L26.5 19.54L18.81 27.24L18.72 27.16C19.54 26.15 19.71 25.63 19.71 24.54V22.16L21.12 20.75H22.71C23.26 20.75 23.71 20.3 23.71 19.75V18.16L25.42 16.46C25.43 16.45 25.49 16.41 25.63 16.35C25.79 16.29 26.01 16.22 26.28 16.17C26.83 16.06 27.51 16 28.21 16C28.91 16 29.59 16.06 30.14 16.17C30.41 16.22 30.63 16.29 30.79 16.35C30.93 16.41 30.99 16.45 31 16.46C31.01 16.47 31.05 16.53 31.11 16.67C31.17 16.83 31.24 17.05 31.29 17.32C31.4 17.87 31.46 18.55 31.46 19.25C31.46 19.95 31.4 20.63 31.29 21.18C31.24 21.45 31.17 21.67 31.11 21.83C31.05 21.97 31.01 22.03 31 22.04L28.3 24.75H26.71C26.16 24.75 25.71 25.2 25.71 25.75V27.34L25.3 27.75H22.92ZM19.71 33.75H32.71V31.75H19.71V33.75ZM15.42 33.46L19.12 29.75H25.71C25.97 29.75 26.23 29.64 26.42 29.46L27.42 28.46C27.6 28.27 27.71 28.02 27.71 27.75V26.75H28.71C28.97 26.75 29.23 26.64 29.42 26.46L32.42 23.46C32.68 23.2 32.85 22.87 32.97 22.57C33.09 22.27 33.18 21.92 33.25 21.57C33.39 20.87 33.46 20.05 33.46 19.25C33.46 18.45 33.39 17.63 33.25 16.93C33.18 16.58 33.09 16.23 32.97 15.93C32.85 15.63 32.68 15.3 32.42 15.04C32.16 14.78 31.83 14.61 31.53 14.49C31.23 14.37 30.88 14.28 30.53 14.21C29.83 14.07 29.01 14 28.21 14C27.41 14 26.59 14.07 25.89 14.21C25.54 14.28 25.19 14.37 24.88 14.49C24.59 14.61 24.26 14.78 24 15.04L22 17.04C21.81 17.23 21.71 17.48 21.71 17.75V18.75H20.71C20.44 18.75 20.19 18.86 20 19.04L18 21.04C17.81 21.23 17.71 21.48 17.71 21.75V28.34L14 32.04L15.42 33.46Z" fill="#2B2D33"/>
</svg>
