<svg width="48" height="48" viewBox="0 0 48 48" fill="none" xmlns="http://www.w3.org/2000/svg">
<rect width="48" height="48" rx="12" fill="#FEE600"/>
<path d="M16.11 22.55C15.94 22.89 15.97 23.3 16.2 23.6C18.8 27 19 28.48 19 33C19 33.55 19.45 34 20 34H23.48C24.32 34 25 33.32 25 32.48H25.12C25.12 33.32 25.8 34 26.64 34H28C28.55 34 29 33.55 29 33C29 28.51 29.22 26.97 31.8 23.6C32.03 23.3 32.07 22.89 31.9 22.55L29 16.76V14H27V17C27 17.16 27.04 17.31 27.11 17.45L29.83 22.9C27.46 26.22 27.08 27.95 27.01 32H25V25.73C25.6 25.39 26 24.74 26 24C26 22.9 25.11 22 24 22C22.9 22 22 22.9 22 24C22 24.74 22.4 25.39 23 25.73V32H21C20.97 28.05 20.47 26.11 18.17 22.9L20.9 17.45C20.97 17.31 21 17.16 21 17V14H19V16.76L16.11 22.55Z" fill="#2B2D33"/>
</svg>
