<svg width="48" height="48" viewBox="0 0 48 48" fill="none" xmlns="http://www.w3.org/2000/svg">
<rect width="48" height="48" rx="12" fill="#FEE600"/>
<path d="M20 24C21.1046 24 22 23.1046 22 22C22 20.8954 21.1046 20 20 20C18.8954 20 18 20.8954 18 22C18 23.1046 18.8954 24 20 24Z" fill="#2B2D33"/>
<path d="M33 16H15C14.45 16 14 16.45 14 17V31C14 31.55 14.45 32 15 32H33C33.55 32 34 31.55 34 31V17C34 16.45 33.55 16 33 16ZM32 30H20.53V29.89C21.54 29.71 21.9 29.52 22.66 28.76L25 26.41L26.29 27.71C26.68 28.1 27.32 28.1 27.71 27.71L30.76 24.65C31.52 23.89 31.71 23.53 31.89 22.52H32V30ZM32 20.59L27 25.59L25.71 24.29C25.32 23.9 24.68 23.9 24.29 24.29L18.59 30H16V18H32V20.59Z" fill="#2B2D33"/>
</svg>
