<svg width="48" height="48" viewBox="0 0 48 48" fill="none" xmlns="http://www.w3.org/2000/svg">
<rect width="48" height="48" rx="12" fill="#FEE600"/>
<path d="M20.87 20V19.88C21.63 19.83 22 19.4 22 18.73V16H32V22C32 23.29 31.57 24.54 30.75 25.46C30.29 25.99 29.67 26.38 29.16 26.59C28.45 26.89 28.2 27.22 27.99 28.01L27.87 28C27.97 27.67 28 27.43 28 27.01V24.24C28.17 24.3 28.34 24.36 28.5 24.43C28.8 24.55 29.06 24.66 29.25 24.75C29.35 24.8 29.43 24.83 29.48 24.86L29.54 24.89H29.55C29.55 24.89 29.55 24.89 30 24C30.45 23.11 30.45 23.11 30.45 23.11V23.1H30.44L30.42 23.09L30.39 23.08L30.35 23.06C30.29 23.03 30.2 22.99 30.09 22.94C29.88 22.84 29.58 22.7 29.25 22.57C28.92 22.44 28.54 22.3 28.17 22.19C28.11 22.18 28.06 22.16 28 22.15V21C28 20.45 27.55 20 27 20H20.87ZM29 20.2C29.66 20.2 30.2 19.66 30.2 19C30.2 18.34 29.66 17.8 29 17.8C28.34 17.8 27.8 18.34 27.8 19C27.8 19.66 28.34 20.2 29 20.2ZM25 20.2C25.66 20.2 26.2 19.66 26.2 19C26.2 18.34 25.66 17.8 25 17.8C24.34 17.8 23.8 18.34 23.8 19C23.8 19.66 24.34 20.2 25 20.2ZM23 26.2C23.66 26.2 24.2 25.66 24.2 25C24.2 24.34 23.66 23.8 23 23.8C22.34 23.8 21.8 24.34 21.8 25C21.8 25.66 22.34 26.2 23 26.2ZM19 26.2C19.66 26.2 20.2 25.66 20.2 25C20.2 24.34 19.66 23.8 19 23.8C18.34 23.8 17.8 24.34 17.8 25C17.8 25.66 18.34 26.2 19 26.2ZM23 26.2C23.66 26.2 24.2 25.66 24.2 25C24.2 24.34 23.66 23.8 23 23.8C22.34 23.8 21.8 24.34 21.8 25C21.8 25.66 22.34 26.2 23 26.2ZM21 32C19.27 32 18.05 31.36 17.25 30.46C16.43 29.54 16 28.29 16 27V22H26V27C26 27.65 25.89 28.3 25.67 28.9C25.46 29.47 25.16 30.01 24.75 30.46C23.95 31.36 22.73 32 21 32ZM21 30C21.39 30 21.81 29.91 22.17 29.81C22.54 29.7 22.92 29.56 23.25 29.43C23.58 29.3 23.88 29.16 24.09 29.06C24.2 29.01 24.29 28.97 24.35 28.94C24.38 28.93 24.4 28.92 24.42 28.91L24.44 28.9H24.45V28.89C24.45 28.89 24.45 28.89 24 28L23.55 27.11H23.54L23.48 27.14C23.43 27.17 23.35 27.2 23.25 27.25C23.06 27.34 22.8 27.45 22.5 27.57C22.21 27.69 21.9 27.8 21.62 27.88C21.32 27.97 21.11 28 21 28C20.89 28 20.68 27.97 20.39 27.88C20.1 27.8 19.79 27.69 19.5 27.57C19.21 27.45 18.94 27.34 18.75 27.25C18.65 27.2 18.58 27.17 18.52 27.14L18.47 27.11H18.45C18.45 27.11 18.45 27.11 18 28C17.55 28.89 17.55 28.89 17.55 28.89L17.56 28.9L17.58 28.91C17.6 28.92 17.62 28.93 17.65 28.94C17.72 28.97 17.8 29.01 17.91 29.06C18.12 29.16 18.42 29.3 18.75 29.43C19.09 29.56 19.46 29.7 19.84 29.81C20.19 29.91 20.61 30 21 30ZM21 34C23.27 34 25.05 33.14 26.25 31.79C26.98 30.97 27.47 30 27.75 28.97C29.66 28.8 31.18 27.99 32.25 26.79C33.43 25.46 34 23.71 34 22V15C34 14.45 33.55 14 33 14H21C20.45 14 20 14.45 20 15V20H15C14.45 20 14 20.45 14 21V27C14 28.71 14.57 30.46 15.75 31.79C16.95 33.14 18.73 34 21 34Z" fill="#2B2D33"/>
</svg>
