<svg width="48" height="48" viewBox="0 0 48 48" fill="none" xmlns="http://www.w3.org/2000/svg">
<rect width="48" height="48" rx="12" fill="#FEE600"/>
<path d="M31 27C32.66 27 34 25.66 34 24C34 22.34 32.66 21 31 21H28.57C28.73 20.64 28.86 20.26 28.93 19.85C30.1 19.53 31 18.31 31 17C31 15.35 29.66 14 28 14C27.32 14 26.82 14.17 26.28 14.55C25.55 14.19 24.8 14 24 14C23.2 14 22.46 14.19 21.73 14.55C21.3 14.21 20.66 14 20 14C18.33 14 17 15.36 17 17C17 18.3 17.84 19.48 19.08 19.85C19.15 20.26 19.28 20.64 19.44 21H17C15.34 21 14 22.34 14 24C14 25.65 15.34 27 17 27H18V28.29C16.76 28.79 16 29.82 16 31C16 32.66 17.57 34 19.5 34C20.98 34 22.34 33.18 22.81 32H25.19C25.67 33.18 27.02 34 28.5 34C30.44 34 32 32.66 32 31C32 29.82 31.24 28.79 30 28.29V27H31ZM19 17C19 16.5 19.41 16 20 16C20.33 16 20.61 16.14 20.8 16.4C21.12 16.84 21.76 16.93 22.2 16.6C22.69 16.22 23.37 16 24 16C24.59 16 25.29 16.21 25.8 16.6C26.24 16.93 26.88 16.84 27.2 16.4C27.38 16.15 27.69 16 28 16C28.54 16 29 16.4 29 17C29 17.53 28.59 18 28 18H27V19C27 20.65 25.65 22 24 22C22.35 22 21 20.65 21 19V18H20C19.44 18 19 17.53 19 17ZM19.5 32C18.71 32 18 31.53 18 31C18 30.47 18.71 30 19.5 30C20.3 30 21 30.47 21 31C21 31.53 20.3 32 19.5 32ZM28.5 32C27.71 32 27 31.53 27 31C27 30.47 27.71 30 28.5 30C29.3 30 30 30.47 30 31C30 31.53 29.3 32 28.5 32ZM29 25C28.45 25 28 25.45 28 26V28.03C26.7 28.2 25.6 28.97 25.19 30H22.81C22.4 28.97 21.3 28.2 20 28.03V26C20 25.45 19.55 25 19 25H17C16.45 25 16 24.55 16 24C16 23.45 16.45 23 17 23H18C19.04 23 19.54 22.48 19.54 21.48H19.66C20.53 23 22.17 24 24 24C25.85 24 27.47 23.01 28.34 21.48H28.46C28.46 22.48 28.96 23 30 23H31C31.55 23 32 23.45 32 24C32 24.55 31.55 25 31 25H29Z" fill="#2B2D33"/>
</svg>
