<svg width="48" height="48" viewBox="0 0 48 48" fill="none" xmlns="http://www.w3.org/2000/svg">
<rect width="48" height="48" rx="12" fill="#FEE600"/>
<path d="M24 26.12C22.61 27.83 22.05 31.07 22.01 33.08C22 33.65 21.57 34 21.11 34C20.92 34 20.83 34 20.47 33.87C17.53 32.78 16 30 16 27C16 22.57 19.71 18.26 23.01 14.62C23.39 14.2 23.58 14 24 14C24.42 14 24.61 14.2 24.99 14.62C28.29 18.26 32 22.57 32 27C32 30 30.47 32.78 27.47 33.89C27.17 34 27.08 34 26.89 34C26.43 34 26 33.65 25.99 33.08C25.95 31.07 25.39 27.83 24 26.12ZM24 16.43C21.15 19.91 17.94 23.27 18.01 27C18.05 28.96 18.74 31.3 21.35 32.08L21.37 31.97C20.37 31.45 20.23 30.81 20.43 29.64C20.82 27.35 22.22 24 24 24C25.78 24 27.18 27.35 27.57 29.64C27.77 30.81 27.63 31.45 26.63 31.97L26.65 32.08C29.26 31.3 29.95 28.96 29.99 27C30.06 23.27 26.85 19.91 24 16.43Z" fill="#2B2D33"/>
</svg>
