<svg width="48" height="48" viewBox="0 0 48 48" fill="none" xmlns="http://www.w3.org/2000/svg">
<rect width="48" height="48" rx="12" fill="#FEE600"/>
<path d="M16 31V18.4H16.12C16.18 19.35 16.86 20 17.87 20H26V22H28V19C28 18.45 27.55 18 27 18H17C16.45 18 16 17.55 16 17C16 16.45 16.45 16 17 16H28V14H17C15.35 14 14 15.34 14 17V31C14 32.71 15.31 34 17 34H22V32H17C16.4 32 16 31.6 16 31Z" fill="#2B2D33"/>
<path d="M30.42 25.01H29.41C29.41 23.91 30.31 23.01 31.41 23.01V21.01C29.21 21.01 27.41 22.81 27.41 25.01H26.59C24.27 25.01 23 26.67 23 28.89C23 31.42 24.84 34 27.14 34C27.63 34 28.05 33.89 28.5 33.56C28.94 33.88 29.38 34 29.86 34C32.21 34 34 31.39 34 28.86C34 26.62 32.69 25.01 30.42 25.01ZM29.87 32C29.16 32 29.13 31.36 28.5 31.36C27.9 31.36 27.79 32 27.13 32C25.96 32 25 30.2 25 28.88C25 27.74 25.44 27.01 26.61 27.01H30.39C31.57 27.01 32 27.78 32 28.87C32 30.23 31.03 32 29.87 32Z" fill="#2B2D33"/>
</svg>
