<svg width="48" height="48" viewBox="0 0 48 48" fill="none" xmlns="http://www.w3.org/2000/svg">
<rect width="48" height="48" rx="12" fill="#FEE600"/>
<path d="M19.1999 25L20.8399 16H27.1699L28.7999 25H19.1999ZM17.0199 25.82C16.8899 26.43 17.3699 27 17.9999 27H22.9999V32H18.9999V34H28.9999V32H24.9999V29C24.9999 27.98 24.5099 27.34 23.6699 27.12V27H26.9999V30H28.9999V29C28.9999 27.98 28.5099 27.34 27.6699 27.12V27H29.9999C30.6599 27 31.0899 26.4 30.9899 25.82L28.9899 14.82C28.8999 14.35 28.4899 14 27.9999 14H19.9999C19.5199 14 19.0999 14.35 19.0199 14.82L17.0199 25.82Z" fill="#2B2D33"/>
</svg>
