<svg width="48" height="48" viewBox="0 0 48 48" fill="none" xmlns="http://www.w3.org/2000/svg">
<rect width="48" height="48" rx="12" fill="#FEE600"/>
<path d="M21 21C21 21.59 20.59 22 20 22H19V15H17V20C17 20.97 17.49 21.61 18.33 21.88V22H16C15.41 22 15 21.59 15 21V15H13V21C13 22.7 14.3 24 16 24H17V35H19V24H20C21.7 24 23 22.7 23 21V15H21V21Z" fill="#2B2D33"/>
<path d="M30 14C27.24 14 25 16.86 25 20C25 23.37 26.79 25 29 25V35H31V25C33.21 25 35 23.37 35 20C35 16.86 32.76 14 30 14ZM31 23H29C27.9 23 27 22.23 27 20C27 17.92 28.35 16 30 16C31.65 16 33 17.92 33 20C33 22.23 32.1 23 31 23Z" fill="#2B2D33"/>
</svg>
