<svg width="48" height="48" viewBox="0 0 48 48" fill="none" xmlns="http://www.w3.org/2000/svg">
<rect width="48" height="48" rx="12" fill="#FEE600"/>
<path d="M22 20C22 20.59 21.59 21 21 21H20V14H18V19C18 19.97 18.49 20.61 19.33 20.88V21H17C16.41 21 16 20.59 16 20V14H14V20C14 21.7 15.3 23 17 23H18V34H20V23H21C22.7 23 24 21.7 24 20V14H22V20Z" fill="#2B2D33"/>
<path d="M28 14C27.41 14 27 14.41 27 15V34H29V28C31.76 28 34 26.3 34 23C34 17.67 31.16 14 28 14ZM29 26V16.25C30.51 16.99 32 19.33 32 23C32 25.14 30.66 26 29 26Z" fill="#2B2D33"/>
</svg>
