<svg width="48" height="48" viewBox="0 0 48 48" fill="none" xmlns="http://www.w3.org/2000/svg">
<rect width="48" height="48" rx="12" fill="#FEE600"/>
<path d="M18.0301 16H27.9701L25.4201 19H20.5801L18.0301 16ZM30.0001 19H27.2301V18.88C28.0501 18.77 28.4401 18.55 28.8801 18L30.7801 15.62C31.0201 15.32 31.0601 14.92 30.9001 14.57C30.7401 14.22 30.3901 14 30.0001 14H16.0001C15.6201 14 15.2701 14.22 15.1001 14.57C14.9301 14.91 14.9801 15.32 15.2201 15.62L17.1201 18C17.5601 18.55 17.9501 18.77 18.7701 18.88V19H17.0001V21H30.0001C30.6201 21 31.0001 21.38 31.0001 22V25H33.0001V22C33.0001 20.26 31.7401 19 30.0001 19ZM17.0001 25H29.0001V23H17.0001V25ZM18.0301 32L20.5801 29H25.4201L27.9701 32H18.0301ZM16.0001 34H30.0001C30.3901 34 30.7401 33.78 30.9001 33.43C31.0701 33.09 31.0201 32.68 30.7801 32.38L28.8801 30C28.4401 29.45 28.0501 29.23 27.2301 29.12V29H29.0001V27H17.0001V29H18.7701V29.12C17.9501 29.23 17.5601 29.45 17.1201 30L15.2201 32.38C14.9801 32.68 14.9301 33.09 15.1001 33.43C15.2701 33.78 15.6201 34 16.0001 34Z" fill="#2B2D33"/>
</svg>
