<svg width="48" height="48" viewBox="0 0 48 48" fill="none" xmlns="http://www.w3.org/2000/svg">
<rect width="48" height="48" rx="12" fill="#FEE600"/>
<path d="M14 14V16H15V33C15 33.55 15.45 34 16 34H20C20.55 34 21 33.55 21 33V32H27V33C27 33.55 27.45 34 28 34H32C32.55 34 33 33.55 33 33V16H34V14H14ZM17 16H23C23 20.09 22.4 23.1 19.51 27H17V16ZM19 32H17V29H19V32ZM21 30V28.2C23.09 25.28 24.15 22.85 24.64 20.33H24.76C24.41 22.45 24.53 24.1 25.2 25.37C25.64 26.22 26.23 27.13 27 28.2V30H21ZM31 32H29V29H31V32ZM31 27H28.49C25.6 23.1 25 20.09 25 16H31V27Z" fill="#2B2D33"/>
</svg>
