<svg width="24" height="24" viewBox="0 0 24 24" fill="none" xmlns="http://www.w3.org/2000/svg">
<path d="M9.9 16H10.9L12.19 14.27C12.61 14.4 13.02 14.56 13.4 14.78V12.58C12.71 12.3 11.98 12.12 11.22 12.04V11.93C13.59 11.54 15.4 9.48 15.4 7C15.4 4.24 13.16 2 10.4 2C7.64 2 5.4 4.24 5.4 7C5.4 9.48 7.21 11.54 9.58 11.93V12.04C6.39 12.36 3.7 14.52 2.67 17.5C2.28 18.63 2.18 19.85 2.08 21.05L2 22H4.01L4.08 21.05C4.17 19.85 4.26 18.71 4.75 17.66C5.54 15.97 6.94 14.77 8.6 14.27L9.9 16ZM7.4 7C7.4 5.34 8.74 4 10.4 4C12.06 4 13.4 5.34 13.4 7C13.4 8.66 12.06 10 10.4 10C8.74 10 7.4 8.66 7.4 7Z" fill="#2B2D33"/>
<path d="M18.4 17V14H16.4V17H13.4V19H16.4V22H18.4V19H21.4V17H18.4Z" fill="#2B2D33"/>
<path d="M11.4 17H9.4V22H11.4V17Z" fill="#2B2D33"/>
</svg>
