<svg width="24" height="24" viewBox="0 0 24 24" fill="none" xmlns="http://www.w3.org/2000/svg">
<path d="M16.64 5C17.05 5 17.42 5.25 17.57 5.63L19.97 11.63C20.23 12.29 19.75 13 19.04 13H13V15H14.22L14.74 17.1C14.87 17.61 14.81 18.14 14.58 18.6L14.36 19.03C14.29 19.18 14.17 19.29 14.03 19.37C13.67 19.54 13.24 19.41 13.04 19.07L9.86 13.5C9.69 13.19 9.36 13 9 13H8V6.54L10.3 5H16.64ZM6 5V14H4V5H6ZM19.04 15C21.16 15 22.62 12.86 21.83 10.89L19.43 4.89C18.97 3.75 17.87 3 16.64 3H10C9.8 3 9.61 3.06 9.44 3.17L8 4.13V4C8 3.45 7.55 3 7 3H3C2.44 3 2 3.45 2 4V15C2 15.55 2.44 16 3 16H7C7.55 16 8 15.55 8 15H8.42L11.31 20.06C12.03 21.33 13.62 21.81 14.92 21.16C15.45 20.89 15.89 20.46 16.15 19.93L16.36 19.5C16.81 18.61 16.92 17.58 16.68 16.62C16.42 15.57 16.09 15.31 15.02 15.12V15H19.04Z" fill="#2B2D33"/>
</svg>
