<svg width="24" height="24" viewBox="0 0 24 24" fill="none" xmlns="http://www.w3.org/2000/svg">
<path d="M6.45 7.06L7.4 8.28C7.87 8.88 8.12 9.02 8.58 9.05L8.62 9.16C8.26 9.45 8.13 9.71 8.11 10.47L8.06 12.02C8.05 12.35 8.21 12.66 8.47 12.85C8.74 13.05 9.09 13.1 9.4 12.99L10.84 12.47C11.56 12.21 11.77 12.01 11.94 11.58H12.06C12.22 12.01 12.43 12.22 13.14 12.47L14.6 12.99C14.92 13.1 15.26 13.05 15.53 12.85C15.79 12.66 15.95 12.35 15.94 12.02L15.89 10.49C15.86 9.72 15.74 9.46 15.38 9.16L15.42 9.05C15.88 9.03 16.15 8.89 16.6 8.3L17.54 7.07C17.74 6.81 17.81 6.46 17.71 6.15C17.61 5.83 17.36 5.59 17.04 5.5L15.57 5.07C14.83 4.85 14.54 4.9 14.15 5.14L14.06 5.07C14.18 4.63 14.13 4.34 13.71 3.72L12.83 2.43C12.64 2.16 12.33 2 12 2C11.67 2 11.36 2.16 11.18 2.43L10.32 3.7C9.89 4.33 9.83 4.62 9.95 5.07L9.85 5.14C9.47 4.88 9.18 4.83 8.46 5.05L6.96 5.5C6.65 5.59 6.4 5.83 6.29 6.15C6.18 6.46 6.25 6.8 6.45 7.06ZM19 5H21V3H19V5ZM20 12V10H22V12H20ZM20 14H22V12H24V10H22V8H20V10H18V12H20V14ZM10.1 10.61L10.15 8.95C10.16 8.72 10.08 8.5 9.94 8.32L8.93 7L10.52 6.53C10.74 6.47 10.93 6.33 11.06 6.14L12 4.77L12.94 6.14C13.07 6.33 13.26 6.47 13.48 6.53L15.07 7L14.06 8.32C13.92 8.5 13.84 8.72 13.85 8.95L13.9 10.61L12.34 10.06C12.12 9.98 11.88 9.99 11.67 10.06L10.1 10.61ZM20 20H22V18H20V20ZM3 5H5V3H3V5ZM15 22H17V20.82C17 19.63 17.2 19 17.84 18.04L18.83 16.55L17.17 15.45L16.18 16.93C15.32 18.22 15 19.23 15 20.82V22ZM11 22H13V14H11V22ZM2 10H4V8H2V10ZM4 12H6V10H4V12ZM0 12H2V10H0V12ZM2 14H4V12H2V14ZM7 22H9V20.82C9 19.23 8.7 18.21 7.83 16.93L6.83 15.45L5.17 16.55L6.16 18.04C6.8 19 7 19.63 7 20.82V22ZM2 20H4V18H2V20Z" fill="#2B2D33"/>
</svg>
