<svg width="24" height="24" viewBox="0 0 24 24" fill="none" xmlns="http://www.w3.org/2000/svg">
<path d="M4 16V4H20V16H13.3C12.95 16 12.66 16.06 12.27 16.25L8 18.38V17C8 16.43 7.55 16 7 16H4ZM3 2C2.45 2 2 2.44 2 3V17C2 17.57 2.46 18 3 18H6V20.1C6 20.95 6.71 21.26 7.45 20.89L13.24 18H21C21.52 18 22 17.59 22 17V3C22 2.45 21.55 2 21 2H3ZM13.96 8C14.44 8 15 8.5 15 9.07C15 9.39 14.88 9.66 14.66 9.85L12 12.17L9.34 9.85C9.12 9.65 9 9.38 9 9.07C9 8.52 9.53 8 10.04 8C10.31 8 10.55 8.13 10.7 8.35L11.17 9.05C11.35 9.33 11.67 9.5 12 9.5C12.34 9.5 12.65 9.33 12.83 9.05L13.3 8.35C13.45 8.13 13.69 8 13.96 8ZM12.06 7.84H11.94C11.83 6.67 11.15 6 10.04 6C8.46 6 7 7.4 7 9.07C7 9.97 7.37 10.78 8.03 11.35L11.34 14.25C11.72 14.58 12.28 14.58 12.66 14.25L15.98 11.35C16.63 10.78 17 9.96 17 9.07C17 7.41 15.57 6 13.96 6C12.85 6 12.17 6.67 12.06 7.84Z" fill="#2B2D33"/>
</svg>
