<svg width="24" height="24" viewBox="0 0 24 24" fill="none" xmlns="http://www.w3.org/2000/svg">
<path d="M12 20C9.14 20 6.49 18.47 5.07 16L3.34 17C5.09 20.06 8.41 22 12 22C15.57 22 18.87 20.09 20.66 17L18.92 16C17.5 18.48 14.86 20 12 20Z" fill="#2B2D33"/>
<path d="M21.79 10C20.9 5.42 16.77 2 12 2C7.28 2 3.19 5.29 2.2 10H1V12H4.05C4.29 13.7 5.73 15 7.5 15C8.88 15 10.08 14.18 10.65 13H13.35C13.91 14.18 15.1 15 16.5 15C18.24 15 19.7 13.7 19.95 12H23V10H21.79ZM7.5 13C6.67 13 6 12.33 6 11.5C6 10.67 6.67 10 7.5 10C8.32 10 9 10.67 9 11.5C9 12.33 8.32 13 7.5 13ZM13.05 11H10.95C10.7 9.3 9.24 8 7.5 8C6.17 8 5.02 8.75 4.43 9.84H4.3C4.48 9.2 4.74 8.58 5.06 8.01C6.44 5.61 9.03 4 12 4C14.97 4 17.56 5.62 18.94 8.02C19.27 8.59 19.52 9.2 19.7 9.84H19.56C18.96 8.75 17.81 8 16.5 8C14.73 8 13.29 9.3 13.05 11ZM16.5 13C15.67 13 15 12.33 15 11.5C15 10.67 15.67 10 16.5 10C17.32 10 18 10.67 18 11.5C18 12.33 17.32 13 16.5 13Z" fill="#2B2D33"/>
<path d="M15 16H9V18H15V16Z" fill="#2B2D33"/>
</svg>
