<svg width="24" height="24" viewBox="0 0 24 24" fill="none" xmlns="http://www.w3.org/2000/svg">
<path d="M13.73 8.44H20.14C21.68 8.44 22.54 9.68 22.02 11.12L19.48 18.12C19.16 19 18.54 19.44 17.5 19.44H10L7 17.94V18.44C7 19.01 6.57 19.44 6 19.44H3C2.43 19.44 2 19.01 2 18.44V8.44C2 7.87 2.43 7.44 3 7.44H6C6.57 7.44 7 7.87 7 8.44H9L12.18 2.88C12.52 2.28 13.08 2 13.71 2C14.38 2 14.94 2.33 15.26 2.96L15.47 3.39C15.8 4.07 15.9 4.84 15.71 5.58L15.39 6.82C15.13 7.87 14.8 8.13 13.73 8.32V8.44Z" fill="#2B2D33"/>
</svg>
