<svg width="20" height="20" viewBox="0 0 20 20" fill="none" xmlns="http://www.w3.org/2000/svg">
<path d="M6.5 9C7.32843 9 8 8.32843 8 7.5C8 6.67157 7.32843 6 6.5 6C5.67157 6 5 6.67157 5 7.5C5 8.32843 5.67157 9 6.5 9Z" fill="#2B2D33"/>
<path d="M13.5 9C14.3284 9 15 8.32843 15 7.5C15 6.67157 14.3284 6 13.5 6C12.6716 6 12 6.67157 12 7.5C12 8.32843 12.6716 9 13.5 9Z" fill="#2B2D33"/>
<path d="M10 0C4.48 0 0 4.48 0 10C0 15.52 4.48 20 10 20C15.52 20 20 15.52 20 10C20 4.48 15.52 0 10 0ZM10 2C14.08 2 17.44 5.05 17.93 9H13.5H6.5H2.07C2.56 5.05 5.92 2 10 2ZM10 18C5.58 18 2 14.42 2 10C2 9.85 2.01 9.71 2.02 9.56H2.14C2.38 10.4 2.69 11 4.24 11H15.76C17.31 11 17.62 10.4 17.86 9.56H17.98C17.99 9.71 18 9.85 18 10C18 14.42 14.42 18 10 18Z" fill="#2B2D33"/>
</svg>
