<svg width="24" height="24" viewBox="0 0 24 24" fill="none" xmlns="http://www.w3.org/2000/svg">
<path d="M21 2H3C2.45 2 2 2.45 2 3V21C2 21.55 2.45 22 3 22H21C21.55 22 22 21.55 22 21V3C22 2.45 21.55 2 21 2ZM20 13H18V15H20V20H4V4H9V8H11V4H20V13Z" fill="#2B2D33"/>
<path d="M8.2 9C6.43 9 5 10.43 5 12.2C5 14.29 6.75 15.58 9.28 15.51V15.63C8.58 15.73 8.13 15.88 7.57 16.31L6.4 17.2L7.6 18.8L11 16.25L14.4 18.8L15.6 17.2L14.43 16.31C13.87 15.88 13.42 15.73 12.72 15.63V15.51C15.25 15.58 17 14.29 17 12.2C17 10.43 15.57 9 13.8 9C12.64 9 11.31 9.62 11.06 11.28H10.94C10.69 9.62 9.36 9 8.2 9ZM8.16 13.41C7.4 13.26 7 12.77 7 12.2C7 11.54 7.54 11 8.2 11C8.97 11 9.31 11.51 9.55 12.46L9.88 13.76L8.16 13.41ZM13.8 11C14.46 11 15 11.54 15 12.2C15 12.77 14.6 13.26 13.84 13.41L12.12 13.76L12.45 12.46C12.69 11.51 13.03 11 13.8 11Z" fill="#2B2D33"/>
</svg>
