<svg width="24" height="24" viewBox="0 0 24 24" fill="none" xmlns="http://www.w3.org/2000/svg">
<path d="M20.33 12V12.13C19.56 12.4 19 13.1 19 14V20H13V12H20.33ZM13 6V5C13 4.45 13.45 4 14 4C14.55 4 15 4.45 15 5V6H13ZM13 10V8H20V10H13ZM9 6V5C9 4.45 9.45 4 10 4C10.55 4 11 4.45 11 5V6H9ZM4 10V8H11V10H4ZM3.67 12H11V20H5V14C5 13.1 4.44 12.4 3.67 12.13V12ZM4 22H20C20.55 22 21 21.55 21 21V12C21.55 12 22 11.55 22 11V7C22 6.45 21.55 6 21 6H17V5C17 3.34 15.66 2 14 2C13.23 2 12.53 2.29 12 2.76C11.47 2.29 10.77 2 10 2C8.34 2 7 3.34 7 5V6H3C2.45 6 2 6.45 2 7V11C2 11.55 2.45 12 3 12V21C3 21.55 3.45 22 4 22Z" fill="#2B2D33"/>
</svg>
