<svg width="24" height="24" viewBox="0 0 24 24" fill="none" xmlns="http://www.w3.org/2000/svg">
<path d="M10.97 13.36C9.85 12.5 8.49 12.01 7 12.01C3.04 12.01 0 15.47 0 20H2C2 16.57 4.14 14 7 14C8.09 14 9.07 14.37 9.88 15.03C10.18 14.41 10.54 13.85 10.97 13.36ZM7 12.16H7.77V11.82H7V12.16ZM7 10C5.84 10 5 9.16 5 8C5 6.85 5.84 6 7 6C8.15 6 9 6.85 9 8C9 9.16 8.15 10 7 10ZM7 12C9.25 12 11 10.26 11 8C11 5.75 9.25 4 7 4C4.74 4 3 5.75 3 8C3 10.26 4.74 12 7 12ZM6.23 12.16H7V11.82H6.23V12.16ZM17 12.16H17.77V11.82H17V12.16ZM17 10C15.84 10 15 9.16 15 8C15 6.85 15.84 6 17 6C18.15 6 19 6.85 19 8C19 9.16 18.15 10 17 10ZM17 12C19.25 12 21 10.26 21 8C21 5.75 19.25 4 17 4C14.74 4 13 5.75 13 8C13 10.26 14.74 12 17 12ZM16.23 12.16H17V11.82H16.23V12.16ZM10 20H12C12 16.57 14.14 14 17 14C19.85 14 22 16.57 22 20H24C24 15.47 20.95 12.01 17 12.01C13.04 12.01 10 15.47 10 20Z" fill="#2B2D33"/>
</svg>
