<svg width="24" height="24" viewBox="0 0 24 24" fill="none" xmlns="http://www.w3.org/2000/svg">
<path d="M11.94 18.69C11.06 15.52 8.57 12.97 5.39 12.06V11.94C8.57 11.03 11.06 8.48 11.94 5.31H12.06C12.94 8.48 15.43 11.03 18.61 11.94V12.06C15.43 12.97 12.94 15.52 12.06 18.69H11.94ZM12 24C12.6 24 13 23.6 13 23C13 17.5 17.5 13 23 13C23.6 13 24 12.6 24 12C24 11.4 23.6 11 23 11C17.5 11 13 6.5 13 1C13 0.4 12.6 0 12 0C11.4 0 11 0.4 11 1C11 6.5 6.5 11 1 11C0.4 11 0 11.4 0 12C0 12.6 0.4 13 1 13C6.5 13 11 17.5 11 23C11 23.6 11.4 24 12 24Z" fill="#2B2D33"/>
</svg>
