<svg width="24" height="24" viewBox="0 0 24 24" fill="none" xmlns="http://www.w3.org/2000/svg">
<path d="M2 17V19H7.97V19.14C6.51 19.44 6 20.52 6 22H8C8.01 20.68 8.69 19.55 10.29 18.98C10.8 18.8 11 18.45 11 18C11 17.54 10.8 17.21 10.29 17.03C8.69 16.47 8.01 15.32 8 14H6C6 15.49 6.51 16.55 7.97 16.86V17H2ZM9.62 14.78C10.52 14.27 11.55 14 12.62 14C15.05 14 17.21 15.39 18.27 17.66C18.76 18.71 18.85 19.85 18.94 21.05L19.01 22H21.02L20.94 21.05C20.84 19.85 20.74 18.63 20.35 17.5C19.32 14.52 16.63 12.36 13.44 12.04V11.93C15.81 11.54 17.62 9.48 17.62 7C17.62 4.24 15.38 2 12.62 2C9.86 2 7.62 4.24 7.62 7C7.62 9.48 9.43 11.54 11.8 11.93V12.04C11.04 12.12 10.31 12.3 9.62 12.58V14.78ZM15.62 7C15.62 8.66 14.28 10 12.62 10C10.96 10 9.62 8.66 9.62 7C9.62 5.34 10.96 4 12.62 4C14.28 4 15.62 5.34 15.62 7Z" fill="#2B2D33"/>
</svg>
