<svg width="24" height="24" viewBox="0 0 24 24" fill="none" xmlns="http://www.w3.org/2000/svg">
<path fill-rule="evenodd" clip-rule="evenodd" d="M5.68662 17.3844C5.12742 16.8563 4.69324 15.9962 4.40417 14.904C4.11908 13.8269 4 12.6177 4 11.5C4 10.3823 4.1191 9.17319 4.4042 8.09616C4.69328 7.0041 5.12746 6.14404 5.68664 5.61589C6.25169 5.08221 7.17893 4.66403 8.35479 4.38641C9.51105 4.11341 10.8058 4 12 4C13.1942 4 14.489 4.11341 15.6452 4.38641C16.8211 4.66403 17.7483 5.08221 18.3134 5.61589C18.8725 6.14404 19.3067 7.0041 19.5958 8.09615C19.8809 9.17317 20 10.3823 20 11.5C20 12.6178 19.8809 13.8269 19.5958 14.9041C19.3068 15.9962 18.8726 16.8563 18.3134 17.3845C17.7482 17.9182 16.8209 18.3365 15.6452 18.6141C14.489 18.8871 13.1943 19.0004 12.0003 19C11.5383 18.9999 11.059 18.9828 10.5767 18.9457C10.339 18.9274 10.1026 18.9946 9.91005 19.1353L8 20.5309V19.2575C8 18.8352 7.73474 18.4584 7.33718 18.316C6.62682 18.0616 6.06966 17.7462 5.68662 17.3844ZM2 11.5C2 12.7435 2.13087 14.1317 2.47075 15.4158C2.80665 16.6849 3.37247 17.9499 4.31338 18.8385C4.79523 19.2936 5.37678 19.6508 6 19.9321V22.5C6 22.8765 6.21149 23.2211 6.5472 23.3916C6.88292 23.5621 7.28593 23.5296 7.58995 23.3074L10.796 20.965C11.2047 20.9888 11.6082 20.9999 11.9997 21C13.3057 21.0004 14.761 20.8778 16.1047 20.5606C17.4289 20.2479 18.7516 19.7215 19.6866 18.8385C20.6275 17.9499 21.1934 16.6849 21.5293 15.4158C21.8691 14.1317 22 12.7435 22 11.5C22 10.2565 21.8691 8.86839 21.5292 7.58435C21.1933 6.31535 20.6275 5.05049 19.6866 4.1619C18.7517 3.27884 17.4289 2.75256 16.1048 2.43993C14.761 2.12266 13.3058 2 12 2C10.6942 2 9.23895 2.12266 7.89521 2.43993C6.57107 2.75256 5.24831 3.27884 4.31336 4.1619C3.37254 5.05049 2.80672 6.31537 2.4708 7.58437C2.1309 8.8684 2 10.2565 2 11.5ZM11.1412 6.42889C12.0314 6.19037 12.9687 6.19037 13.8588 6.42889C14.749 6.66741 15.5607 7.13604 16.2123 7.78769C16.864 8.43934 17.3326 9.25104 17.5711 10.1412C17.8097 11.0314 17.8097 11.9686 17.5711 12.8588L16.1222 12.4706C16.2926 11.8347 16.2926 11.1653 16.1222 10.5294C15.9519 9.8936 15.6171 9.31381 15.1517 8.84835C14.6862 8.38289 14.1064 8.04815 13.4706 7.87778C12.8348 7.70741 12.1653 7.70741 11.5294 7.87778L11.1412 6.42889ZM11.2883 9.34371C11.7545 9.21877 12.2455 9.21877 12.7118 9.34371C13.1781 9.46864 13.6032 9.71412 13.9446 10.0555C14.2859 10.3968 14.5314 10.822 14.6563 11.2882C14.7813 11.7545 14.7813 12.2455 14.6563 12.7118L13.2074 12.3235C13.2642 12.1116 13.2642 11.8884 13.2074 11.6765C13.1506 11.4645 13.0391 11.2713 12.8839 11.1161C12.7288 10.961 12.5355 10.8494 12.3235 10.7926C12.1116 10.7358 11.8884 10.7358 11.6765 10.7926L11.2883 9.34371ZM7.90148 9.50487C8.19961 9.47535 8.49528 9.58105 8.70712 9.79289L9.70712 10.7929C9.89466 10.9804 10 11.2348 10 11.5C10 11.7652 9.89466 12.0196 9.70713 12.2071L9.28102 12.6332C9.49073 12.9632 9.7979 13.3837 10.2071 13.7929C10.6164 14.2021 11.0368 14.5093 11.3668 14.719L11.7929 14.2929C11.9804 14.1054 12.2348 14 12.5 14C12.7652 14 13.0196 14.1054 13.2071 14.2929L14.2071 15.2929C14.419 15.5047 14.5247 15.8004 14.4951 16.0985C14.4656 16.3967 14.304 16.6659 14.0547 16.8321L14.0457 16.8379L14.0351 16.8448L14.0251 16.8511L14.0104 16.8601C13.9924 16.8711 13.971 16.8835 13.9463 16.897C13.8969 16.924 13.8341 16.9552 13.7583 16.9871C13.6065 17.0511 13.4023 17.118 13.1493 17.1587C12.6341 17.2417 11.9583 17.2096 11.1626 16.8836L11.1492 16.878L11.1391 16.8736L11.1373 16.8728L11.1351 16.8718L11.1296 16.8694L11.114 16.8623C11.1016 16.8566 11.0853 16.8491 11.0654 16.8396C11.0255 16.8206 10.971 16.7939 10.904 16.7593C10.7702 16.6901 10.5856 16.5887 10.368 16.4534C9.9349 16.1843 9.35975 15.7739 8.79291 15.2071C8.22608 14.6403 7.81577 14.0651 7.54658 13.632C7.41134 13.4144 7.30995 13.2298 7.24074 13.096C7.20609 13.029 7.17939 12.9745 7.16042 12.9346C7.15094 12.9147 7.14338 12.8984 7.13772 12.886L7.13066 12.8704L7.12818 12.8649L7.12721 12.8627L7.12679 12.8618C7.12337 12.854 7.11968 12.8453 7.11645 12.8374C6.79041 12.0417 6.7583 11.3659 6.84131 10.8507C6.88206 10.5977 6.94892 10.3935 7.01288 10.2417C7.04482 10.1659 7.07605 10.1031 7.103 10.0537C7.11648 10.029 7.12892 10.0076 7.13988 9.98957C7.14536 9.98053 7.15048 9.97233 7.15517 9.96495L7.1619 9.9545L7.16351 9.95206L7.16502 9.94975L7.16651 9.94749L7.16724 9.94638L7.16797 9.9453C7.33415 9.69603 7.60334 9.53439 7.90148 9.50487ZM14.0457 16.8379L14.0525 16.8335L14.0503 16.835L14.0457 16.8379Z" fill="#2B2D33"/>
</svg>
