<svg width="24" height="24" viewBox="0 0 24 24" fill="none" xmlns="http://www.w3.org/2000/svg">
<path d="M12.93 16H12.26C9.78 16 8.14 15.96 6.8 16.88C5.51 17.77 4.91 19.34 4.02 21.58L4 21.63L5.86 22.37C6.56 20.62 7.08 19.12 7.94 18.53C8.79 17.96 10.18 18 12.31 18H12.93V16ZM14.93 12.47H14.81C14.81 13.46 14.17 14 12.93 14C10.72 14 8.93 12.21 8.93 10V8H10.93V10C10.93 11.1 11.83 12 12.93 12C14.07 12 14.93 10.96 14.93 9.58C12.84 9 11.93 7.59 11.93 5H13.93C13.93 6.8 14.93 8 16.93 8V19C16.93 19.55 17.38 20 17.93 20H18.93V9C18.93 5.63 16.29 3 12.93 3C9.56 3 6.93 5.63 6.93 9V15H4.93V9C4.93 4.53 8.46 1 12.93 1C17.39 1 20.93 4.53 20.93 9V22H17.93C16.27 22 14.93 20.66 14.93 19V12.47Z" fill="#2B2D33"/>
</svg>
