<svg width="24" height="24" viewBox="0 0 24 24" fill="none" xmlns="http://www.w3.org/2000/svg">
<path d="M19 19.59L16.71 17.29C16.32 16.9 15.68 16.89 15.29 17.29L14.74 17.85L14.15 13.15L18.85 13.74L18.29 14.29C17.9 14.68 17.9 15.32 18.29 15.71L20.59 18L19 19.59ZM18.29 21.71C18.68 22.11 19.32 22.1 19.71 21.71L22.71 18.71C23.1 18.32 23.1 17.68 22.71 17.29L20.42 15L21.71 13.71C22.29 13.13 21.96 12.11 21.13 12.01L13.13 11.01C12.8 10.97 12.47 11.03 12.26 11.26C12.05 11.48 11.97 11.8 12.01 12.12L13.01 20.12C13.11 20.95 14.12 21.3 14.71 20.71L16 19.41L18.29 21.71ZM9 9.59L8.1 8.69C7.72 8.31 7.4 8.2 6.88 8.12V8H11.12V8.12C10.6 8.2 10.28 8.31 9.9 8.69L9 9.59ZM8.29 11.71C8.68 12.1 9.31 12.1 9.7 11.71L11.7 9.71C11.89 9.52 12 9.27 12 9V7C12 6.45 11.55 6 11 6H7C6.44 6 6 6.45 6 7V9C6 9.27 6.1 9.52 6.29 9.71L8.29 11.71ZM5 16H10V14H5C4.44 14 4 13.55 4 13V5C4 4.45 4.44 4 5 4H19C19.55 4 20 4.45 20 5V10H22V5C22 3.34 20.65 2 19 2H5C3.34 2 2 3.34 2 5V13C2 14.66 3.34 16 5 16Z" fill="#FEE600"/>
</svg>
