<svg width="24" height="24" viewBox="0 0 24 24" fill="none" xmlns="http://www.w3.org/2000/svg">
<path d="M12 19.98L8.5 18.92L9.79 16.66C10.23 15.89 9.73 15.01 8.84 15.01C5.62 15.01 3.01 12.41 3 9.19L5.93 9.68C7.73 9.98 9 9.3 9 7.47C9 5.87 8.2 5.03 7.36 5.03C6.92 5.03 6.6 5.14 6.26 5.38L6.16 5.32C7.22 4.25 7.65 4 8.4 4C9.07 4 9.69 4.34 10.06 4.89L11.09 6.43C11.31 6.76 11.66 6.93 12 6.92C12.34 6.93 12.69 6.76 12.91 6.43L13.94 4.89C14.31 4.34 14.93 4 15.6 4C16.35 4 16.78 4.25 17.84 5.32L17.74 5.38C17.4 5.14 17.08 5.03 16.64 5.03C15.8 5.03 15 5.87 15 7.47C15 9.3 16.27 9.98 18.07 9.68L21 9.19C20.99 12.41 18.38 15.01 15.16 15.01C14.27 15.01 13.77 15.89 14.21 16.66L15.5 18.92L12 19.98ZM12 22C12.14 22 12.29 21.98 12.43 21.94L17.16 20.51C17.87 20.3 18.17 19.56 17.8 18.91L16.64 16.88C20.26 16.19 23 13 23 9.18V8.12C23 7.37 22.46 6.92 21.68 7.05L17.44 7.75C17.16 7.8 17 7.66 17 7.43C17 6.86 17.24 6.43 17.77 6.11L19.51 5.06C19.87 4.84 19.91 4.5 19.63 4.22L18.58 3.17C17.79 2.38 16.81 2 15.6 2C14.26 2 12.99 2.65 12.27 3.78L12 4.2L11.73 3.78C10.98 2.67 9.74 2 8.4 2C7.19 2 6.21 2.38 5.42 3.17L4.37 4.22C4.09 4.5 4.13 4.84 4.49 5.06L6.23 6.11C6.76 6.43 7 6.86 7 7.43C7 7.66 6.84 7.8 6.56 7.75L2.32 7.05C1.54 6.92 1 7.37 1 8.12V9.18C1 13 3.74 16.19 7.36 16.88L6.2 18.91C5.83 19.56 6.13 20.3 6.84 20.51L11.57 21.94C11.71 21.98 11.86 22 12 22Z" fill="#FEE600"/>
</svg>
