<svg width="24" height="24" viewBox="0 0 24 24" fill="none" xmlns="http://www.w3.org/2000/svg">
<path d="M17.6 4C18.26 4 18.75 3.62 18.88 2.97H19V20H5V4H5.6C6.26 4 6.75 3.62 6.88 2.97H7V6H9V4H9.6C10.26 4 10.75 3.62 10.88 2.97H11V6H13V4H13.6C14.26 4 14.75 3.62 14.88 2.97H15V6H17V4H17.6ZM8.9 17.99L16.5 10.4L15.1 9L7.5 16.59L8.9 17.99ZM15 18.35C15.99 18.35 16.85 17.49 16.85 16.5C16.85 15.51 15.99 14.65 15 14.65C14.02 14.65 13.15 15.51 13.15 16.5C13.15 17.49 14.02 18.35 15 18.35ZM9 12.35C9.99 12.35 10.85 11.49 10.85 10.5C10.85 9.51 9.99 8.65 9 8.65C8.02 8.65 7.15 9.51 7.15 10.5C7.15 11.49 8.02 12.35 9 12.35ZM4 22H20C20.55 22 21 21.55 21 21V3C21 2.45 20.55 2 20 2H4C3.45 2 3 2.45 3 3V21C3 21.55 3.45 22 4 22Z" fill="#FEE600"/>
</svg>
