<svg width="24" height="24" viewBox="0 0 24 24" fill="none" xmlns="http://www.w3.org/2000/svg">
<path d="M17 11.33V7C17 6.45 16.55 6 16 6H13V4H15V2H11V6H8C7.45 6 7 6.45 7 7V11.33H6.88C6.75 10.49 6.19 10 5.26 10H3C2.45 10 2 10.45 2 11V22H4V12H8C8.55 12 9 11.55 9 11V8H15V11C15 11.55 15.45 12 16 12H20V22H22V11C22 10.45 21.55 10 21 10H18.74C17.81 10 17.25 10.49 17.12 11.33H17ZM7 14H9V16H7V14ZM13 14H11V16H13V14ZM17 14V16H15V14H17ZM9 18H7V20H9V18ZM11 18H13V22H11V18ZM17 20V18H15V20H17ZM11 10H13V12H11V10Z" fill="#FEE600"/>
</svg>
