<svg width="48" height="48" viewBox="0 0 48 48" fill="none" xmlns="http://www.w3.org/2000/svg">
<rect width="48" height="48" rx="12" fill="#2B2D33"/>
<path d="M24 14C18.43 14 14 18.43 14 24C14 29.57 18.43 34 24 34C29.57 34 34 29.57 34 24C34 18.43 29.57 14 24 14ZM31.4 20.95L24.88 23.11L27.05 16.59C29.03 17.4 30.6 18.97 31.4 20.95ZM31.98 24.51C31.75 28.72 28.29 32 24 32C19.54 32 16 28.46 16 24C16 19.71 19.26 16.27 23.49 16.02C24.65 15.95 25 15.56 25.46 14.64L25.58 14.67L22.49 23.97C22.1 25.15 22.85 25.9 24.03 25.51L33.36 22.41L33.4 22.52C32.46 22.93 32.04 23.44 31.98 24.51Z" fill="#FEE600"/>
</svg>
