<svg width="24" height="24" viewBox="0 0 24 24" fill="none" xmlns="http://www.w3.org/2000/svg">
<path d="M17.7 5.7L20.7 2.7L19.3 1.3L16.3 4.3L17.7 5.7ZM20 10H24V8H20V10ZM11 5H13V1H11V5ZM6.3 5.7L7.7 4.3L4.7 1.3L3.3 2.7L6.3 5.7ZM13 17V13H11V17H7.7C6.7 17 6.2 17.6 5.9 18.4H5.8L7.8 9H16.1L18.1 18.4H18C17.7 17.6 17.2 17 16.2 17H13ZM0 10H4V8H0V10ZM5.2 21L5.6 19H18.2L18.6 21H5.2ZM4 23H20C20.7 23 21.1 22.4 21 21.8L18 7.8C17.9 7.3 17.5 7 17 7H7C6.5 7 6.1 7.3 6 7.8L3 21.8C2.9 22.4 3.3 23 4 23Z" fill="#FEE600"/>
</svg>
