<svg width="24" height="24" viewBox="0 0 24 24" fill="none" xmlns="http://www.w3.org/2000/svg">
<path d="M14 22C14 22.6 14.4 23 15 23H19C19.6 23 20 22.6 20 22V15.3C21.6 14.2 23.3 12.4 23.3 9.70002C23.3 8.80002 23.1 8.30002 22.9 7.80002C22.8 7.50002 22.7 7.30002 22.7 6.90002C22.7 6.50002 22.9 6.00002 23.2 5.50002C23.4 5.30002 23.5 5.10002 23.6 5.00002C23.7 4.90002 23.7 4.90002 23.7 4.80002C24.1 4.40002 24.1 3.80002 23.7 3.40002L21.6 1.30002C21.3 1.00002 20.8 0.900024 20.4 1.10002C20.4 1.10002 20.3 1.10002 20.3 1.20002C20.2 1.30002 20 1.30002 19.7 1.40002C19.2 1.60002 18.6 1.70002 18.1 1.70002C17.6 1.70002 17.2 1.60002 17 1.40002C16.9 1.40002 16.8 1.30002 16.8 1.30002C16.5 1.00002 16 0.900024 15.7 1.10002C15.7 1.10002 15.6 1.10002 15.5 1.20002C15.4 1.30002 15.2 1.30002 14.9 1.40002C14.4 1.60002 13.8 1.70002 13.3 1.70002C12.8 1.70002 12.4 1.60002 12.2 1.40002C12.1 1.40002 12 1.30002 12 1.30002C11.6 0.900024 11 0.900024 10.6 1.30002L8.3 3.40002C7.9 3.80002 7.9 4.40002 8.3 4.80002C8.3 4.80002 8.4 4.90002 8.4 5.00002H6C4.9 5.00002 4.3 5.80002 3.9 6.50002C3.1 8.00002 2.6 10.6 2.5 12.5C2.4 12.6 2.2 12.8 2 13C1.6 13.5 1 14.3 1 15.3V22C1 22.6 1.4 23 2 23H6C6.6 23 7 22.6 7 22V19.6H7.1C7.2 20.5 7.8 21 8.9 21H12.1C13.2 21 13.7 20.5 13.9 19.6H14V22ZM3 21V16.3H3.1C3.2 17.1 3.4 17.6 4.4 17.8L5.1 18C5.7 18.1 6.2 17.9 6.4 17.4C6.6 16.9 6.3 16.3 5.8 16.1L3 15.3C3 14.8 3.4 14.4 3.8 14H10.4C11 14.6 11.7 15.1 12.3 15.5C13.2 16 14 16.4 14.7 16.6C15 16.7 15.3 16.8 15.5 16.8C15.6 16.8 15.7 16.9 15.7 16.9H15.8C15.9 16.9 16.1 16.9 16.2 16.9C16.2 16.9 16.2 16.9 16.3 16.9C16.4 16.9 16.4 16.9 16.5 16.8C16.7 16.7 17 16.7 17.3 16.6C17.5 16.5 17.7 16.4 18 16.3V21H16V19H5V21H3ZM14.8 11.6L15.7 10.9C15.9 10.8 16.1 10.8 16.3 10.9L17.2 11.6C17.6 11.9 18.1 11.5 18 11.1L17.6 9.90002C17.5 9.70002 17.6 9.50002 17.8 9.30002L18.8 8.50002C19.2 8.20002 19 7.60002 18.5 7.60002H17.3C17.1 7.60002 16.9 7.50002 16.8 7.30002L16.5 6.00002C16.4 5.50002 15.7 5.50002 15.6 6.00002L15.2 7.20002C15.1 7.40002 14.9 7.50002 14.7 7.50002H13.5C13 7.50002 12.8 8.10002 13.2 8.40002L14.2 9.20002C14.4 9.30002 14.4 9.60002 14.4 9.80002L14 11C13.9 11.5 14.4 11.8 14.8 11.6ZM16 15C15.9 15 15.6 14.9 15.4 14.8C14.8 14.6 14.1 14.3 13.4 13.9C12 13 10.7 11.7 10.7 9.80002C10.7 9.30002 10.7 9.10002 10.9 8.90002C11.2 8.60002 11.3 8.00002 11.3 7.10002C11.3 6.10002 10.8 5.20002 10.4 4.60002C10.5 4.30002 10.4 4.20002 10.4 4.20002L11.3 3.30002C11.8 3.50002 12.4 3.70002 13.3 3.70002C14.2 3.70002 15 3.50002 15.5 3.30002C15.7 3.20002 15.8 3.20002 15.9 3.10002C16 3.10002 16 3.20002 16.1 3.20002C16.6 3.40002 17.2 3.70002 18.1 3.70002C19 3.70002 19.8 3.50002 20.3 3.30002C20.4 3.30002 20.5 3.20002 20.6 3.20002L21.6 4.20002C21.5 4.30002 21.5 4.40002 21.4 4.50002C21 5.10002 20.5 6.00002 20.5 7.00002C20.5 7.90002 20.6 8.50002 21 8.80002C21.2 9.00002 21.2 9.30002 21.2 9.70002C21.2 11.6 20 12.9 18.5 13.8C17.8 14.2 17.1 14.5 16.5 14.7C16.4 14.9 16.2 15 16 15ZM4.6 12C4.7 10.7 5.1 7.70002 6 7.00002H9.4C9.4 7.40002 9.3 7.60002 9.2 7.80002C9 8.30002 8.7 8.80002 8.7 9.70002C8.7 10.6 8.9 11.3 9.1 12H4.6Z" fill="#FEE600"/>
</svg>
