<svg width="24" height="24" viewBox="0 0 24 24" fill="none" xmlns="http://www.w3.org/2000/svg">
<path d="M11.9999 8.99999C12.7999 8.99999 13.4999 8.29999 13.4999 7.49999C13.4999 6.69999 12.7999 5.99999 11.9999 5.99999C11.1999 5.99999 10.4999 6.69999 10.4999 7.49999C10.4999 8.29999 11.1999 8.99999 11.9999 8.99999ZM3.89994 12.4C3.89994 11.1 3.69994 10.6 3.19994 9.89999L2.29994 8.99999L4.79994 5.59999L11.9999 3.09999L19.1999 5.59999L21.6999 8.99999L20.7999 9.99999C20.1999 10.6 20.0999 11.1 20.0999 12.5H19.9999C19.9999 11.8 19.8999 11.6 19.0999 11.3C17.0999 10.4 13.8999 9.99999 11.9999 9.99999C10.0999 9.99999 6.89994 10.4 4.89994 11.2C4.09994 11.5 3.99994 11.7 3.99994 12.4H3.89994ZM11.9999 15C8.79994 15 6.89994 14.6 5.99994 14.3V12.9C7.09994 12.6 9.39994 12 11.9999 12C14.5999 12 16.8999 12.6 17.9999 12.9V14.2C17.0999 14.6 15.1999 15 11.9999 15ZM11.9999 21C8.19994 21 6.39994 18.5 5.99994 17.8V16.4C7.19994 16.7 9.09994 17 11.9999 17C14.8999 17 16.7999 16.7 17.9999 16.4V17.8C17.5999 18.5 15.6999 21 11.9999 21ZM11.9999 23C17.5999 23 19.7999 18.7 19.8999 18.5C19.9999 18.4 19.9999 18.2 19.9999 18V13.8L23.6999 9.69999C23.9999 9.29999 23.9999 8.79999 23.7999 8.39999L20.6999 4.09999C20.5999 3.89999 20.3999 3.79999 20.1999 3.79999L12.2999 0.999988C12.0999 0.899988 11.8999 0.899988 11.5999 0.999988L3.79994 3.79999C3.59994 3.89999 3.49994 3.99999 3.29994 4.19999L0.199938 8.49999C-0.100062 8.89999 -6.23465e-05 9.39999 0.299938 9.79999L3.99994 13.9V18.1C3.99994 18.3 3.99994 18.4 4.09994 18.6C4.19994 18.7 6.49994 23 11.9999 23Z" fill="#FEE600"/>
</svg>
