<svg width="24" height="24" viewBox="0 0 24 24" fill="none" xmlns="http://www.w3.org/2000/svg">
<path d="M17.0002 3.5168C15.1847 2.30372 12.9901 1.79202 10.8253 2.07702C8.6605 2.36202 6.67314 3.42429 5.23347 5.06591C3.79381 6.70753 3.00003 8.81655 3.00003 11C3.00003 11.5523 3.44775 12 4.00003 12C4.55231 12 5.00003 11.5523 5.00003 11C5.00003 9.30176 5.61741 7.66142 6.73715 6.3846C7.85689 5.10778 9.40262 4.28157 11.0863 4.05991C12.7701 3.83824 14.477 4.23623 15.889 5.17974C17.3011 6.12324 18.322 7.5479 18.7615 9.18829C18.9045 9.72176 19.4528 10.0383 19.9863 9.8954C20.5197 9.75246 20.8363 9.20412 20.6934 8.67065C20.1282 6.56158 18.8157 4.72987 17.0002 3.5168Z" fill="#FEE600"/>
<path d="M13 11C13 10.4477 12.5523 10 12 10C11.4478 10 11 10.4477 11 11V11.2918C11 13.1857 9.93002 14.917 8.2361 15.7639L5.55282 17.1056C5.05884 17.3526 4.85862 17.9532 5.10561 18.4472C5.3526 18.9412 5.95327 19.1414 6.44725 18.8944L9.13053 17.5528C11.502 16.367 13 13.9432 13 11.2918V11Z" fill="#FEE600"/>
<path d="M20.1644 11.5136C20.7092 11.6044 21.0772 12.1196 20.9864 12.6644L20.7456 14.1094C20.2159 17.2877 18.4302 20.1195 15.7904 21.9674L14.5735 22.8192C14.121 23.1359 13.4975 23.0259 13.1808 22.5734C12.8641 22.121 12.9741 21.4975 13.4266 21.1807L14.6435 20.3289C16.8433 18.789 18.3314 16.4292 18.7728 13.7806L19.0136 12.3356C19.1044 11.7908 19.6197 11.4228 20.1644 11.5136Z" fill="#FEE600"/>
<path d="M10.5 8.40192C10.9561 8.13862 11.4734 8 12 8C12.5266 8 13.044 8.13862 13.5 8.40192C13.9561 8.66523 14.3348 9.04394 14.5981 9.5C14.7688 9.79561 14.8518 9.96086 14.9062 10.1415C14.9593 10.3176 15 10.5614 15 11C15 13.3728 14.2025 15.6274 12.5589 17.1611C11.7582 17.9082 10.8815 18.6405 10.04 19.1799C9.16635 19.7399 8.47051 20 8.00002 20C7.44774 20 7.00002 20.4477 7.00002 21C7.00002 21.5523 7.44774 22 8.00002 22C9.06547 22 10.1677 21.4737 11.1194 20.8636C12.1032 20.2329 13.0791 19.4112 13.9234 18.6233C16.0591 16.6304 17 13.7963 17 11C17 10.4386 16.9483 9.98645 16.8212 9.56453C16.6955 9.14721 16.5106 8.81246 16.3301 8.5C15.8913 7.7399 15.2601 7.10871 14.5 6.66987C13.7399 6.23103 12.8777 6 12 6C11.1223 6 10.2601 6.23103 9.50002 6.66987C8.73993 7.10871 8.10874 7.7399 7.6699 8.5C7.23105 9.2601 7.00002 10.1223 7.00002 11C7.00002 11.4485 6.9201 11.8945 6.76585 12.2412C6.61416 12.5821 6.42334 12.763 6.22033 12.8437L3.13092 14.0706C2.61763 14.2745 2.36678 14.8558 2.57063 15.3691C2.77449 15.8824 3.35584 16.1332 3.86913 15.9294L6.95854 14.7024C7.78156 14.3756 8.29603 13.722 8.59314 13.0542C8.88766 12.3923 9.00002 11.6555 9.00002 11C9.00002 10.4734 9.13864 9.95606 9.40195 9.5C9.66525 9.04394 10.044 8.66523 10.5 8.40192Z" fill="#FEE600"/>
</svg>
