<svg width="24" height="24" viewBox="0 0 24 24" fill="none" xmlns="http://www.w3.org/2000/svg">
<path d="M5 13.38C6.83 11.25 9.39 10 12 10C14.61 10 17.17 11.25 19 13.38V16H21V9.5C21 8.75 20.89 8.44 20.36 7.87C18.25 5.6 15.17 4 12 4C8.83 4 5.73 5.59 3.64 7.87C3.11 8.44 3 8.75 3 9.5V16H5V13.38ZM19 9.38V11.9H18.88C18.88 10.84 18.62 10.22 17.62 9.61C17.1 9.29 16.55 9.04 16 8.81V6.99C17.12 7.57 18.14 8.38 19 9.38ZM14 6.24V8.22C13.34 8.09 12.67 8 12 8C11.32 8 10.66 8.09 10 8.22V6.24C10.65 6.08 11.32 6 12 6C12.67 6 13.34 6.08 14 6.24ZM8 6.99V8.81C7.44 9.04 6.9 9.29 6.38 9.61C5.38 10.22 5.12 10.84 5.12 11.9H5V9.38C5.86 8.38 6.88 7.57 8 6.99Z" fill="white"/>
<path d="M7 16H9C9 14.94 10.24 14 12 14C13.76 14 15 14.94 15 16H17C17 13.77 14.86 12 12 12C9.14 12 7 13.77 7 16Z" fill="white"/>
<path d="M21.45 18.1L20.89 17.82C19.69 17.22 18.27 17.26 17.11 17.92L16.49 18.28C15.88 18.63 15.12 18.63 14.51 18.28L13.99 17.98C12.76 17.27 11.25 17.27 10.02 17.98L9.49 18.28C8.88 18.63 8.12 18.63 7.51 18.28L6.89 17.92C5.73 17.26 4.31 17.22 3.12 17.82L2.55 18.1C2.06 18.35 1.86 18.95 2.11 19.44C2.35 19.94 2.96 20.14 3.45 19.89L4.01 19.61C4.61 19.31 5.32 19.33 5.9 19.66L6.52 20.01C7.75 20.72 9.26 20.72 10.49 20.01L11.01 19.71C11.62 19.36 12.38 19.36 12.99 19.71L13.52 20.01C14.75 20.72 16.26 20.72 17.49 20.01L18.1 19.66C18.68 19.33 19.39 19.31 19.99 19.61L20.55 19.89C21.05 20.14 21.65 19.94 21.9 19.44C22.14 18.95 21.94 18.35 21.45 18.1Z" fill="white"/>
</svg>
