<svg width="24" height="24" viewBox="0 0 24 24" fill="none" xmlns="http://www.w3.org/2000/svg">
<path d="M14 10.67V17H10V12H12C12.97 12 13.61 11.51 13.88 10.67H14ZM14 17.67V21H16V7.41L17 6.41L18 7.41V21H20V19H22V17H20V12H22V10H20V7C20 6.73 19.9 6.48 19.71 6.29L17.71 4.29C17.32 3.9 16.69 3.9 16.29 4.29L14.29 6.29C14.11 6.48 14 6.73 14 7V10H10V7C10 6.73 9.9 6.48 9.71 6.29L7.71 4.29C7.32 3.9 6.69 3.9 6.29 4.29L4.29 6.29C4.11 6.48 4 6.73 4 7V10H2V12H4V17H2V19H4V21H6V7.41L7 6.41L8 7.41V21H10V19H12C12.97 19 13.61 18.51 13.88 17.67H14Z" fill="white"/>
</svg>
