<svg width="24" height="24" viewBox="0 0 24 24" fill="none" xmlns="http://www.w3.org/2000/svg">
<path d="M13.15 14.15L13.74 18.85L14.29 18.29C14.69 17.9 15.32 17.9 15.71 18.29L18 20.59L19.59 19L17.29 16.71C16.9 16.32 16.9 15.68 17.29 15.29L17.85 14.74L13.15 14.15ZM11.26 12.26C11.48 12.04 11.8 11.97 12.13 12.01L20.13 13.01C20.5 13.06 20.82 13.31 20.95 13.68C21.07 14.04 20.98 14.44 20.71 14.71L19.42 16L21.71 18.29C22.1 18.68 22.1 19.32 21.71 19.71L18.71 22.71C18.32 23.1 17.69 23.1 17.29 22.71L15 20.41L13.71 21.71C13.44 21.98 13.04 22.07 12.68 21.95C12.32 21.82 12.06 21.5 12.01 21.12L11.01 13.12C10.97 12.8 11.05 12.48 11.26 12.26ZM11 4.36L18.32 11.23L19.69 9.77L11.69 2.27C11.3 1.91 10.71 1.91 10.32 2.27L2.32 9.67C2.12 9.86 2 10.12 2 10.4V12C2 12.6 2.47 13 3 13H4V20C4 20.55 4.45 21 5 21H10V19H6V11H2.9V10.88C3.68 10.88 4.11 10.74 4.69 10.2L11 4.36Z" fill="white"/>
</svg>
