<svg width="24" height="24" viewBox="0 0 24 24" fill="none" xmlns="http://www.w3.org/2000/svg">
<g clip-path="url(#clip0_348_4573)">
<path d="M16.4 19H13.4V17H16.4V14H18.4V17H21.4V19H18.4V22H16.4V19ZM14.4 14.78V12.57C13.71 12.3 12.98 12.12 12.22 12.04V11.93C14.59 11.54 16.4 9.48 16.4 7C16.4 4.24 14.16 2 11.4 2C8.64 2 6.4 4.24 6.4 7C6.4 9.48 8.21 11.54 10.58 11.93V12.04C7.39 12.36 4.7 14.52 3.67 17.5C3.28 18.63 3.18 19.85 3.08 21.05L3 22H5.01L5.08 21.05C5.17 19.85 5.26 18.71 5.75 17.66C6.81 15.39 8.97 14 11.4 14C12.47 14 13.49 14.27 14.4 14.78ZM8.4 7C8.4 5.34 9.74 4 11.4 4C13.06 4 14.4 5.34 14.4 7C14.4 8.66 13.06 10 11.4 10C9.74 10 8.4 8.66 8.4 7Z" fill="white"/>
</g>
<defs>
<clipPath id="clip0_348_4573">
<rect width="18.4" height="20" fill="white" transform="translate(3 2)"/>
</clipPath>
</defs>
</svg>
