<svg width="24" height="24" viewBox="0 0 24 24" fill="none" xmlns="http://www.w3.org/2000/svg">
<path d="M13.4 17H11.4V22H13.4V17Z" fill="white"/>
<path d="M20.72 21.05C20.62 19.85 20.52 18.63 20.13 17.5C19.1 14.52 16.41 12.36 13.22 12.04V11.93C15.59 11.54 17.4 9.48 17.4 7C17.4 4.24 15.16 2 12.4 2C9.64 2 7.4 4.24 7.4 7C7.4 9.48 9.21 11.54 11.58 11.93V12.04C8.39 12.36 5.7 14.52 4.67 17.5C4.28 18.63 4.18 19.85 4.08 21.05L4 22H6.01L6.08 21.05C6.17 19.85 6.26 18.71 6.75 17.66C7.54 15.97 8.94 14.77 10.6 14.27L11.9 16H12.9L14.2 14.27C15.86 14.77 17.26 15.97 18.05 17.66C18.54 18.71 18.63 19.85 18.72 21.05L18.79 22H20.8L20.72 21.05ZM9.4 7C9.4 5.34 10.74 4 12.4 4C14.06 4 15.4 5.34 15.4 7C15.4 8.66 14.06 10 12.4 10C10.74 10 9.4 8.66 9.4 7Z" fill="white"/>
</svg>
