<svg width="24" height="24" viewBox="0 0 24 24" fill="none" xmlns="http://www.w3.org/2000/svg">
<path d="M12 2C6.5 2 2 6.5 2 12C2 17.5 6.5 22 12 22C17.5 22 22 17.5 22 12C21.9 6.5 17.4 2 12 2ZM18.3 7.2C19.2 8.4 19.8 9.8 19.9 11.4C19.2 11.3 18.5 11.2 17.8 11.2C16.8 11.2 15.8 11.3 14.9 11.5C14.7 10.9 14.4 10.3 14.1 9.7C15.6 9 17 8.2 18.3 7.2ZM16.9 5.7C15.8 6.6 14.5 7.3 13.2 7.9C12.5 6.6 11.7 5.3 10.8 4.1C11.2 4 11.6 4 12 4C13.8 4 15.5 4.6 16.9 5.7ZM8.8 4.7C9.7 6 10.6 7.3 11.4 8.7C9.5 9.3 7.5 9.7 5.5 9.7C5.1 9.7 4.8 9.7 4.4 9.7C5.1 7.4 6.7 5.6 8.8 4.7ZM4 12C4 11.9 4 11.7 4 11.6C4.5 11.6 4.9 11.7 5.4 11.7C7.7 11.7 10 11.3 12.2 10.5C12.4 11 12.7 11.5 12.9 12C10.1 12.9 7.6 14.7 5.8 17C4.7 15.7 4 13.9 4 12ZM7.2 18.4C8.8 16.3 11.1 14.7 13.6 13.9C14.2 15.7 14.7 17.5 14.9 19.4C14 19.8 13 20 12 20C10.2 20 8.6 19.4 7.2 18.4ZM16.8 18.3C16.5 16.6 16.1 15 15.5 13.4C16.2 13.3 17 13.2 17.7 13.2C18.4 13.2 19 13.3 19.7 13.4C19.4 15.4 18.3 17.1 16.8 18.3Z" fill="white"/>
</svg>
