<svg width="24" height="24" viewBox="0 0 24 24" fill="none" xmlns="http://www.w3.org/2000/svg">
<path d="M6.99995 4H4.99995V6H6.99995V4Z" fill="white"/>
<path d="M4.99995 6H2.99995V8H4.99995V6Z" fill="white"/>
<path d="M4.99995 2H2.99995V4H4.99995V2Z" fill="white"/>
<path d="M19 11H17V13H19V11Z" fill="white"/>
<path d="M15.86 8.56C17.5 6.92 19.72 5.99 22.04 5.98L22.03 3.98C19.18 3.99 16.46 5.13 14.44 7.14L13.29 8.29L14.71 9.71L15.86 8.56Z" fill="white"/>
<path d="M16 2H14V4H16V2Z" fill="white"/>
<path d="M21 13H19V15H21V13Z" fill="white"/>
<path d="M15.94 17.34C15.59 14.65 13.51 11.5 11.12 10.01C12.28 7.63 12.19 4.82 10.87 2.5L9.12995 3.5C10.13 5.25 10.19 7.37 9.30995 9.16C8.83995 9.01 8.39995 8.93 7.98995 8.88C7.32995 8.81 6.76995 8.84 6.37995 8.9C6.17995 8.93 6.01995 8.96 5.89995 8.99C5.80995 9.01 5.70995 9.04 5.62995 9.07C5.35995 9.18 5.14995 9.4 5.04995 9.68L1.04995 21.68C0.929953 22.04 1.01995 22.43 1.28995 22.7C1.54995 22.97 1.93995 23.07 2.29995 22.96L15.3 18.96C15.7 18.83 15.98 18.47 16 18.05C16.01 17.81 15.98 17.58 15.94 17.34ZM6.76995 10.87C9.32995 10.49 11.99 12.81 13.24 15.43L7.68995 13.11C6.87995 12.77 6.20995 13.16 5.94995 13.7L5.83995 13.67L6.76995 10.87ZM5.58995 14.4L13.09 17.54L10.11 18.46L6.40995 16.91C5.59995 16.57 4.92995 16.96 4.66995 17.5L4.55995 17.47L5.58995 14.4ZM4.31995 18.21L7.11995 19.38L3.55995 20.47L4.31995 18.21Z" fill="white"/>
<path d="M2.99995 4H0.999953V6H2.99995V4Z" fill="white"/>
<path d="M21 9H19V11H21V9Z" fill="white"/>
<path d="M18 21H16V23H18V21Z" fill="white"/>
<path d="M17.87 17.01L18.13 18.99C19.05 18.87 19.97 19.21 20.59 19.91L21.25 20.66L22.75 19.34L22.09 18.58C21.03 17.39 19.45 16.8 17.87 17.01Z" fill="white"/>
<path d="M23 11H21V13H23V11Z" fill="white"/>
</svg>
