<svg width="24" height="24" viewBox="0 0 24 24" fill="none" xmlns="http://www.w3.org/2000/svg">
<path d="M12 21.29C9.14 21.29 6.49 19.76 5.07 17.29L3.34 18.29C5.09 21.35 8.41 23.29 12 23.29C15.57 23.29 18.87 21.38 20.66 18.29L18.92 17.29C17.5 19.77 14.86 21.29 12 21.29Z" fill="white"/>
<path d="M22 13.02C21.94 10.71 21.09 8.6 19.72 6.94L21.99 4.68L20.57 3.25L19.21 4.62C18.8 5.03 18.72 5.51 19.02 6L18.93 6.09C18.42 5.6 17.85 5.17 17.24 4.79L18.61 1.85L16.78 1L15.97 2.74C15.72 3.27 15.82 3.76 16.26 4.11L16.2 4.23C14.92 3.64 13.5 3.29 12 3.29C6.56 3.29 2.14 7.63 2 13.04C3.13 13.83 4.52 14.29 6 14.29C8.5 14.29 10.69 12.97 11.93 10.99H12.07C13.31 12.97 15.5 14.29 18 14.29C19.48 14.29 20.85 13.82 21.98 13.03L22 13.02ZM13 7.29H11C11 10.05 8.76 12.29 6 12.29C5.34 12.29 4.71 12.15 4.13 11.91C4.77 8.16 8.01 5.29 12 5.29C15.94 5.29 19.22 8.16 19.87 11.91C19.29 12.14 18.67 12.29 18 12.29C15.24 12.29 13 10.05 13 7.29Z" fill="white"/>
<path d="M15 17.29H9V19.29H15V17.29Z" fill="white"/>
</svg>
