<svg width="24" height="24" viewBox="0 0 24 24" fill="none" xmlns="http://www.w3.org/2000/svg">
<path d="M5.99853 20.0001V18.0001H17.9985V20.0001H5.99853ZM4.49853 8.5001L7.89853 11.3001C8.39853 11.7001 9.19852 11.5001 9.49853 10.9001L11.9985 4.6001L14.5985 10.9001C14.7985 11.5001 15.5985 11.7001 16.1985 11.3001L19.5985 8.5001L18.2985 15.0001C18.1985 15.8001 17.7985 16.0001 17.1985 16.0001H6.79853C6.09853 16.0001 5.79853 15.8001 5.69853 15.0001L4.49853 8.5001ZM1.99853 6.2001L3.49853 14.0001C3.69853 14.9001 4.29853 15.67 5.39853 15.87V16.0001H4.99853C4.49853 16.0001 3.99853 16.4001 3.99853 17.0001V21.0001C3.99853 21.5001 4.49853 22.0001 4.99853 22.0001H18.9985C19.4985 22.0001 19.9985 21.5001 19.9985 21.0001V17.0001C19.9985 16.4001 19.4985 16.0001 18.9985 16.0001H18.5985V15.87C19.6985 15.67 20.3985 14.9001 20.4985 14.0001L21.9985 6.2001C22.1985 5.3001 21.1985 4.6001 20.3985 5.2001L15.9985 8.9001L12.9985 1.7001C12.5985 0.900098 11.4985 0.900098 11.1985 1.7001L8.19852 8.9001L3.59853 5.2001C2.89853 4.6001 1.79853 5.2001 1.99853 6.2001Z" fill="white"/>
</svg>
