<svg width="24" height="24" viewBox="0 0 24 24" fill="none" xmlns="http://www.w3.org/2000/svg">
<path d="M12.3297 0.82765C12.1708 0.595821 11.8287 0.595821 11.6698 0.82765L10.7019 2.23997L9.05959 2.72409C8.79001 2.80355 8.68429 3.12894 8.85567 3.35168L9.89976 4.70866L9.85269 6.42018C9.84496 6.70112 10.1218 6.90222 10.3866 6.80806L11.9998 6.2344L13.613 6.80806C13.8778 6.90222 14.1546 6.70113 14.1468 6.42018L14.0998 4.70866L15.1438 3.35169C15.3152 3.12894 15.2095 2.80355 14.9399 2.72409L13.2976 2.23997L12.3297 0.82765Z" fill="white"/>
<path d="M4.32971 4.32765C4.17083 4.09582 3.82869 4.09582 3.66981 4.32765L2.70189 5.73997L1.05959 6.22409C0.790012 6.30355 0.684288 6.62894 0.855673 6.85168L1.89976 8.20866L1.85269 9.92018C1.84496 10.2011 2.12175 10.4022 2.38656 10.3081L3.99976 9.7344L5.61297 10.3081C5.87777 10.4022 6.15456 10.2011 6.14683 9.92018L6.09976 8.20866L7.14385 6.85169C7.31523 6.62894 7.20951 6.30355 6.93993 6.22409L5.29763 5.73997L4.32971 4.32765Z" fill="white"/>
<path d="M19.6698 4.32765C19.8287 4.09582 20.1708 4.09582 20.3297 4.32765L21.2976 5.73997L22.9399 6.22409C23.2095 6.30355 23.3152 6.62894 23.1438 6.85169L22.0998 8.20866L22.1468 9.92018C22.1546 10.2011 21.8778 10.4022 21.613 10.3081L19.9998 9.7344L18.3866 10.3081C18.1218 10.4022 17.845 10.2011 17.8527 9.92018L17.8998 8.20866L16.8557 6.85168C16.6843 6.62894 16.79 6.30355 17.0596 6.22409L18.7019 5.73997L19.6698 4.32765Z" fill="white"/>
<path fill-rule="evenodd" clip-rule="evenodd" d="M8.36898 10.5137C9.41661 9.75364 10.693 9.34622 12 9.34622C13.307 9.34622 14.5834 9.75364 15.631 10.5137C16.6795 11.2743 17.4436 12.3487 17.7917 13.5773C18.1402 14.8068 18.0492 16.111 17.5354 17.2838C17.1084 18.2583 16.405 19.1357 15.5 19.7654L15.5 21.3462C15.5 21.6806 15.3329 21.9928 15.0547 22.1783L13.5547 23.1783C13.3904 23.2878 13.1974 23.3462 13 23.3462H11C10.8026 23.3462 10.6096 23.2878 10.4453 23.1783L8.9453 22.1783C8.6671 21.9928 8.5 21.6806 8.5 21.3462L8.5 19.7654C7.59502 19.1357 6.89157 18.2583 6.46465 17.2838C5.95083 16.111 5.85981 14.8068 6.20827 13.5773C6.55645 12.3487 7.3205 11.2743 8.36898 10.5137ZM12 11.3462C11.1057 11.3462 10.2422 11.6256 9.54341 12.1325C8.84545 12.6389 8.35404 13.3409 8.13248 14.1227C7.91119 14.9035 7.96797 15.7312 8.29656 16.4813C8.63332 17.2499 9.22966 17.923 9.97913 18.3321L10.5 18.6164L10.5 20.811L11.3028 21.3462H12.6972L13.5 20.811L13.5 18.6164L14.0209 18.3321C14.7703 17.923 15.3667 17.2499 15.7034 16.4813C16.032 15.7312 16.0888 14.9035 15.8675 14.1227C15.646 13.3409 15.1546 12.6389 14.4566 12.1325C13.7578 11.6256 12.8943 11.3462 12 11.3462Z" fill="white"/>
</svg>
