<svg width="24" height="24" viewBox="0 0 24 24" fill="none" xmlns="http://www.w3.org/2000/svg">
<path d="M10.3 19.45L8 17.91V11.45H9C9.36 11.45 9.69 11.26 9.86 10.95L13.04 5.38C13.24 5.04 13.67 4.91 14.03 5.08C14.17 5.16 14.29 5.27 14.36 5.42L14.58 5.85C14.81 6.31 14.87 6.84 14.74 7.35L14.22 9.45H13V11.45H19.04C19.75 11.45 20.23 12.16 19.97 12.82L17.57 18.82C17.42 19.2 17.05 19.45 16.64 19.45H10.3ZM4 19.45V10.45H6V19.45H4ZM15.02 9.45V9.33C16.09 9.14 16.42 8.88 16.68 7.83C16.92 6.87 16.81 5.84 16.36 4.95L16.15 4.52C15.89 3.99 15.45 3.56 14.92 3.29C13.62 2.64 12.03 3.12 11.31 4.39L8.42 9.45H8C8 8.9 7.55 8.45 7 8.45H3C2.44 8.45 2 8.9 2 9.45V20.45C2 21 2.44 21.45 3 21.45H7C7.55 21.45 8 21 8 20.45V20.32L9.44 21.28C9.61 21.39 9.8 21.45 10 21.45H16.64C17.87 21.45 18.97 20.7 19.43 19.56L21.83 13.56C22.62 11.59 21.16 9.45 19.04 9.45H15.02Z" fill="white"/>
</svg>
