<svg width="24" height="24" viewBox="0 0 24 24" fill="none" xmlns="http://www.w3.org/2000/svg">
<path d="M12.8 22C8.81 22 5.63 18.97 5.4 14.96C5.29 13.03 5.9 11.26 7.12 9.96C8.25 8.76 9.77 8.1 11.4 8.1C14.24 8.1 16.3 10.16 16.3 13C16.3 15.55 14.49 17.4 12 17.4V15.4C13.38 15.4 14.3 14.44 14.3 13C14.3 11.24 13.16 10.1 11.4 10.1C10.33 10.1 9.33 10.54 8.58 11.33C7.74 12.22 7.32 13.47 7.4 14.84C7.57 17.83 9.84 20 12.8 20C17.04 20 20 16.83 20 12.3C20 7.57 16.56 4 12 4C7.51 4 4 7.6 4 12.2H2C2 6.48 6.39 2 12 2C17.7 2 22 6.43 22 12.3C22 17.92 18.13 22 12.8 22Z" fill="white"/>
</svg>
