<svg width="24" height="24" viewBox="0 0 24 24" fill="none" xmlns="http://www.w3.org/2000/svg">
<path d="M12 2C6.48 2 2 6.48 2 12C2 17.52 6.48 22 12 22C17.53 22 22 17.52 22 12C22 6.48 17.53 2 12 2ZM7.61 18.68C8.01 16.44 9.61 14.81 12 14.81C14.39 14.81 15.99 16.45 16.39 18.69C15.13 19.51 13.62 20 12 20C10.38 20 8.87 19.51 7.61 18.68ZM12 11.01C11.17 11.01 10.5 10.34 10.5 9.51C10.5 8.68 11.17 8.01 12 8.01C12.83 8.01 13.5 8.68 13.5 9.51C13.5 10.34 12.83 11.01 12 11.01ZM18.06 17.22C17.32 15.08 15.67 13.35 13.22 12.92V12.78C14.55 12.28 15.5 11.01 15.5 9.51C15.5 7.58 13.93 6.01 12 6.01C10.07 6.01 8.5 7.58 8.5 9.51C8.5 11.01 9.45 12.28 10.78 12.78V12.92C8.33 13.35 6.68 15.08 5.94 17.22C4.73 15.82 4 14 4 12C4 7.58 7.58 4 12 4C16.42 4 20 7.58 20 12C20 14 19.27 15.82 18.06 17.22Z" fill="white"/>
</svg>
