<svg width="24" height="24" viewBox="0 0 24 24" fill="none" xmlns="http://www.w3.org/2000/svg">
<path d="M10.4 17H8.4V22H10.4V17Z" fill="white"/>
<path d="M14.4 7C14.4 4.24 12.16 2 9.4 2C6.64 2 4.4 4.24 4.4 7C4.4 9.48 6.21 11.54 8.58 11.93V12.04C5.39 12.36 2.7 14.52 1.67 17.5C1.28 18.63 1.18 19.85 1.08 21.05L1 22H3.01L3.08 21.05C3.17 19.85 3.26 18.71 3.75 17.66C4.54 15.97 5.94 14.77 7.6 14.27L8.9 16H9.9L11.19 14.27C11.61 14.4 12.02 14.56 12.4 14.78V12.58C11.71 12.3 10.98 12.12 10.22 12.04V11.93C12.59 11.54 14.4 9.48 14.4 7ZM9.4 10C7.74 10 6.4 8.66 6.4 7C6.4 5.34 7.74 4 9.4 4C11.06 4 12.4 5.34 12.4 7C12.4 8.66 11.06 10 9.4 10Z" fill="white"/>
<path d="M20.85 18.03C21.2 17.44 21.4 16.74 21.4 16C21.4 13.79 19.61 12 17.4 12C15.2 12 13.4 13.79 13.4 16C13.4 18.21 15.2 20 17.4 20C18.15 20 18.84 19.8 19.44 19.45L21.7 21.71L23.11 20.3L20.85 18.03ZM17.4 18C16.3 18 15.4 17.11 15.4 16C15.4 14.9 16.3 14 17.4 14C18.51 14 19.4 14.9 19.4 16C19.4 17.11 18.51 18 17.4 18Z" fill="white"/>
</svg>
