<svg width="24" height="24" viewBox="0 0 24 24" fill="none" xmlns="http://www.w3.org/2000/svg">
<path d="M15.75 22.11L14.11 20.93L15.3 19.31C15.67 18.79 16.1 18.67 16.51 18.49L16.48 18.38C16.03 18.48 15.63 18.62 15.05 18.43L13.1 17.79L13.75 15.89L15.67 16.52C16.27 16.72 16.51 17.08 16.81 17.41L16.91 17.35C16.68 16.95 16.4 16.6 16.4 15.95V14H18.4V15.96C18.4 16.61 18.11 16.97 17.88 17.37L17.98 17.43C18.28 17.09 18.53 16.73 19.13 16.53L21.03 15.92L21.65 17.82L19.74 18.44C19.14 18.63 18.73 18.48 18.29 18.38L18.25 18.49C18.67 18.68 19.1 18.8 19.49 19.33L20.64 20.93L19.04 22.1L17.89 20.52C17.49 19.99 17.52 19.53 17.48 19.07H17.36C17.31 19.53 17.34 19.98 16.97 20.47L15.75 22.11ZM13.4 14.78V12.58C12.71 12.3 11.98 12.12 11.22 12.04V11.93C13.59 11.54 15.4 9.48 15.4 7C15.4 4.24 13.16 2 10.4 2C7.64 2 5.4 4.24 5.4 7C5.4 9.48 7.21 11.54 9.58 11.93V12.04C6.39 12.36 3.7 14.52 2.67 17.5C2.28 18.63 2.18 19.85 2.08 21.05L2 22H4.01L4.08 21.05C4.17 19.85 4.26 18.71 4.75 17.66C5.81 15.39 7.97 14 10.4 14C11.47 14 12.5 14.27 13.4 14.78ZM7.4 7C7.4 5.34 8.74 4 10.4 4C12.06 4 13.4 5.34 13.4 7C13.4 8.66 12.06 10 10.4 10C8.74 10 7.4 8.66 7.4 7Z" fill="white"/>
</svg>
