<svg width="24" height="24" viewBox="0 0 24 24" fill="none" xmlns="http://www.w3.org/2000/svg">
<path d="M18.06 10.14C18.43 8.85 18.69 7.45 18.84 6H20.91C20.6 7.65 19.46 9.26 18.06 10.14ZM12 15C11.02 15 9.75 14.12 8.67 11.77C7.72 9.73 7.13 6.97 7.02 4H16.98C16.87 6.97 16.28 9.73 15.34 11.77C14.25 14.12 12.98 15 12 15ZM5.94 10.14C4.48 9.17 3.4 7.65 3.09 6H5.16C5.31 7.45 5.57 8.85 5.94 10.14ZM11 20V18.6C11 17.79 10.63 17.15 9.93 16.54V16.42C10.62 16.8 11.29 17 12 17C12.71 17 13.38 16.8 14.07 16.42V16.54C13.37 17.15 13 17.79 13 18.6V20H11ZM7 22H17V20H15V15.72C15.8 14.99 16.48 14 17.04 12.85C20.36 11.75 23 8.68 23 5C23 4.44 22.55 4 22 4H20.74C19.62 4 19.25 4.37 19 5.38H18.88C18.98 3.87 19 3.43 19 3C19 2.44 18.55 2 18 2H6C5.45 2 5 2.44 5 3C5 3.43 5.02 3.87 5.12 5.38H5C4.75 4.37 4.38 4 3.26 4H2C1.45 4 1 4.44 1 5C1 8.67 3.71 11.75 6.97 12.85C7.52 14 8.21 14.99 9 15.72V20H7V22Z" fill="white"/>
</svg>
