<svg width="24" height="24" viewBox="0 0 24 24" fill="none" xmlns="http://www.w3.org/2000/svg">
<g clip-path="url(#clip0_348_4575)">
<path d="M18.13 14.42C17.95 14.15 17.65 14.15 17.47 14.42L16.21 16.26L14.08 16.89C13.76 16.98 13.69 17.26 13.88 17.51L15.23 19.28L15.17 21.5C15.16 21.83 15.44 21.99 15.71 21.89L17.8 21.14L19.9 21.89C20.16 21.98 20.44 21.83 20.43 21.5L20.37 19.28L21.72 17.51C21.91 17.26 21.84 16.98 21.52 16.89L19.39 16.26L18.13 14.42ZM13.4 14.78V12.57C12.71 12.3 11.98 12.12 11.22 12.04V11.93C13.59 11.54 15.4 9.48 15.4 7C15.4 4.24 13.16 2 10.4 2C7.64 2 5.4 4.24 5.4 7C5.4 9.48 7.21 11.54 9.58 11.93V12.04C6.39 12.36 3.7 14.52 2.67 17.5C2.28 18.63 2.18 19.85 2.08 21.05L2 22H4.01L4.08 21.05C4.17 19.85 4.26 18.71 4.75 17.66C5.81 15.39 7.97 14 10.4 14C11.47 14 12.49 14.27 13.4 14.78ZM7.4 7C7.4 5.34 8.74 4 10.4 4C12.06 4 13.4 5.34 13.4 7C13.4 8.66 12.06 10 10.4 10C8.74 10 7.4 8.66 7.4 7Z" fill="white"/>
</g>
<defs>
<clipPath id="clip0_348_4575">
<rect width="19.82" height="20" fill="white" transform="translate(2 2)"/>
</clipPath>
</defs>
</svg>
