<svg width="24" height="24" viewBox="0 0 24 24" fill="none" xmlns="http://www.w3.org/2000/svg">
<path fill-rule="evenodd" clip-rule="evenodd" d="M1.0009 6.0424L1.00105 6.04593L1.00152 6.05638L1.00329 6.0907C1.00486 6.11943 1.0073 6.15976 1.01092 6.2109C1.01815 6.31317 1.03014 6.45884 1.04952 6.64162C1.08824 7.00683 1.15666 7.52208 1.27623 8.1364C1.51439 9.36004 1.96043 11.0028 2.79674 12.642C3.63401 14.283 4.8776 15.9492 6.72145 17.1698C8.57615 18.3975 10.9757 19.1324 14.0434 18.9991C14.5783 18.9758 15 18.5354 15 18V17.473V16.9701C15.1749 17.1482 15.3315 17.3276 15.4691 17.4997C15.6892 17.7748 15.8534 18.0214 15.9608 18.196C16.0144 18.283 16.0533 18.3513 16.0775 18.3952C16.0897 18.4171 16.0981 18.4329 16.1027 18.4419L16.1069 18.4499C16.2767 18.7875 16.622 19 17 19H22C22.3603 19 22.6927 18.8062 22.8702 18.4927C23.0477 18.1792 23.0429 17.7944 22.8575 17.4855C22.7005 17.2239 22.5539 16.9776 22.4147 16.7438C21.8734 15.8344 20.6647 14.1056 19.3274 12.4316C20.3577 11.054 21.0997 9.646 21.5994 8.53541C21.8936 7.88174 22.1068 7.32456 22.2473 6.92766C22.3177 6.72904 22.37 6.57011 22.4053 6.45876C22.423 6.40307 22.4364 6.35924 22.4458 6.32826L22.4567 6.29154L22.4599 6.28062L22.4613 6.27576C22.4613 6.27576 22.4615 6.27478 22.4749 6.22259L22.4615 6.27478C22.5477 5.97307 22.4873 5.64839 22.2984 5.39787C22.1094 5.14736 21.8138 5.00007 21.5 5.00006H17C16.5537 5.00006 16.1613 5.29588 16.0386 5.72499L16.0374 5.72905L16.0306 5.75197C16.0241 5.77344 16.0139 5.807 15.9998 5.85134C15.9717 5.94009 15.9285 6.0716 15.8703 6.23535C15.7535 6.56387 15.5781 7.01678 15.3452 7.51173C15.2389 7.73762 15.1236 7.96559 15 8.19017V6.0007C15 5.44841 14.5523 5.00006 14 5.00006H9C8.65342 5.00006 8.33155 5.17951 8.14935 5.47433C7.96714 5.76915 7.95058 6.13729 8.10557 6.44727L9 8.23613V10.9709C8.97917 10.9479 8.95828 10.9246 8.93733 10.9009C8.13649 9.99328 7.22611 8.44193 6.99589 5.90952C6.94907 5.39447 6.51724 5.00009 6.00005 5.00006H2.00042C1.72828 5.00007 1.46744 5.11099 1.27889 5.30724C1.09034 5.50349 0.989923 5.7681 1.0008 6.04003L1.0009 6.0424ZM3.11061 7.00004C3.1434 7.22389 3.1855 7.47738 3.2394 7.75431C3.45436 8.85878 3.85207 10.3097 4.57826 11.733C5.30349 13.1545 6.34114 14.5195 7.82542 15.5021C9.11791 16.3577 10.7967 16.9553 13 17.0105V15.708V15C13 14.6534 13.1795 14.3316 13.4743 14.1494C13.7691 13.9671 14 14 14.4472 14.1056C15.1081 14.2616 16.4306 15.5 17.0309 16.2503C17.2552 16.5307 17.4351 16.7892 17.571 17H20.2373C19.3274 15.708 18.5 14.5 17.2929 13.2071C16.9272 12.8414 16.9007 12.2572 17.2318 11.8598C18.4055 10.4513 19.2366 8.91247 19.7756 7.71468C19.8911 7.45798 19.9927 7.21815 20.0809 7.00006H17.7207C17.5884 7.36469 17.4001 7.84221 17.1548 8.36334C16.6363 9.46513 15.8011 10.8991 14.6 11.8C14.297 12.0272 13.8916 12.0638 13.5528 11.8944C13.214 11.725 13 11.3787 13 10.9999V7.00006H10.618L10.8944 7.55285C10.9639 7.6917 11 7.84482 11 8.00006V13C11 13.2621 10.8973 13.5105 10.7191 13.695C10.6687 13.7471 10.6123 13.7941 10.5505 13.8348C10.2699 14.0199 9.91504 14.0516 9.60608 13.9192L9.60489 13.9186L9.60362 13.9181L9.60084 13.9169L9.5943 13.914L9.5774 13.9065C9.56688 13.9017 9.55418 13.8959 9.53938 13.8888L9.52881 13.8838C9.49005 13.8653 9.43878 13.8397 9.37666 13.8064C9.25247 13.7399 9.08448 13.6425 8.88617 13.5088C8.4897 13.2414 7.96999 12.8274 7.43766 12.2241C6.80673 11.5091 6.17046 10.5417 5.69813 9.2638C5.45154 8.59663 5.24964 7.84481 5.1165 7.00005L3.13307 7.00004L3.11061 7.00004Z" fill="white"/>
</svg>
