<svg width="24" height="24" viewBox="0 0 24 24" fill="none" xmlns="http://www.w3.org/2000/svg">
<path fill-rule="evenodd" clip-rule="evenodd" d="M5.91241 4.06648C7.83715 2.58957 10.2332 1.86275 12.6541 2.02142C15.0749 2.1801 17.3556 3.21345 19.0711 4.92895C20.7866 6.64444 21.8199 8.92509 21.9786 11.346C22.1373 13.7669 21.4105 16.1629 19.9336 18.0876C18.4566 20.0124 16.3304 21.3346 13.9509 21.8079C11.7798 22.2397 9.45199 22.1273 7.38924 21.0773L2.78737 22.4578C2.43501 22.5635 2.05305 22.4673 1.79292 22.2071C1.53279 21.947 1.43649 21.565 1.5422 21.2127L2.92274 16.6108C1.87274 14.548 1.76032 12.2202 2.19217 10.0491C2.66548 7.66964 3.98767 5.54338 5.91241 4.06648ZM7.12994 5.65318C8.66973 4.47166 10.5865 3.8902 12.5233 4.01714C14.46 4.14408 16.2845 4.97076 17.6569 6.34316C19.0293 7.71556 19.856 9.54008 19.9829 11.4768C20.1098 13.4135 19.5284 15.3303 18.3469 16.8701C17.1653 18.4099 15.4643 19.4677 13.5607 19.8463C11.5865 20.239 9.62587 20.0727 8 19.134L7.62614 18.9181L3.99149 20.0085L5.08187 16.3739L4.86603 16C3.92734 14.3741 3.76104 12.4135 4.15374 10.4393C4.53239 8.53572 5.59014 6.83471 7.12994 5.65318ZM9.39443 7.55279C9.22504 7.214 8.87877 7 8.5 7C8.12123 7 7.77452 7.21489 7.60513 7.55367L7.6045 7.55493L7.60271 7.55854L7.59703 7.57003L7.57796 7.6092C7.56208 7.6421 7.54005 7.68837 7.51392 7.745C7.46199 7.85752 7.39214 8.01457 7.32152 8.19111C7.25175 8.36555 7.17611 8.57167 7.1166 8.77997C7.06144 8.97304 7 9.23526 7 9.5C7 9.76474 7.06144 10.027 7.1166 10.22C7.17611 10.4283 7.25175 10.6344 7.32152 10.8089C7.39214 10.9854 7.46199 11.1425 7.51392 11.255C7.53955 11.3105 7.56123 11.3561 7.57704 11.3889L7.58894 11.4208C7.61042 11.4776 7.64123 11.5556 7.68242 11.6517C7.76472 11.8438 7.88887 12.1091 8.06334 12.4231C8.41172 13.0502 8.96496 13.8792 9.79289 14.7071C10.6651 15.5793 11.5541 16.0304 12.2463 16.2612C12.5906 16.376 12.8842 16.4356 13.1008 16.4665C13.2092 16.482 13.2987 16.4904 13.3661 16.4949C13.3998 16.4971 13.4281 16.4984 13.4505 16.4991L13.4798 16.4998L13.491 16.5L13.4958 16.5L13.498 16.5H13.5151C13.7023 16.5133 13.8673 16.5174 14 16.52C14.3905 16.5277 14.6016 16.52 15 16.5C15.2899 16.5 15.5439 16.4103 15.7025 16.3435C15.8775 16.2698 16.0382 16.1795 16.1647 16.1017C16.294 16.0221 16.4058 15.9442 16.4847 15.8869C16.5246 15.8578 16.5573 15.8331 16.5811 15.8149L16.61 15.7925L16.6192 15.7852L16.6224 15.7827L16.6247 15.7809C16.886 15.5718 17.0255 15.2458 16.9962 14.9124C16.9668 14.579 16.7727 14.2824 16.4789 14.1221L15.1039 13.3721C14.6972 13.1503 14.1915 13.2368 13.8817 13.581L13.115 14.433C13.0437 14.4151 12.9645 14.3924 12.8787 14.3638C12.4459 14.2196 11.8349 13.9207 11.2071 13.2929C10.535 12.6208 10.0883 11.9498 9.81166 11.4519C9.76665 11.3709 9.72627 11.2946 9.69025 11.224L10.2071 10.7071C10.5115 10.4027 10.5869 9.93778 10.3944 9.55279L9.39443 7.55279Z" fill="white"/>
</svg>
