<svg width="48" height="48" viewBox="0 0 48 48" fill="none" xmlns="http://www.w3.org/2000/svg">
<rect width="48" height="48" rx="12" fill="#FEE600"/>
<path d="M24 14C18.48 14 14 18.48 14 24C14 29.52 18.48 34 24 34C29.52 34 34 29.52 34 24C34 18.48 29.52 14 24 14ZM24 32C19.58 32 16 28.42 16 24C16 19.58 19.58 16 24 16C28.42 16 32 19.58 32 24C32 28.42 28.42 32 24 32Z" fill="#2B2D33"/>
<path d="M26 23C25.48 23 25 22.62 25 22V18H23V21C23 21.9 23.56 22.6 24.33 22.87V23H18V25H22C22.52 25 23 25.38 23 26V30H25V27C25 26.1 24.44 25.4 23.67 25.13V25H30V23H26Z" fill="#2B2D33"/>
</svg>
