<svg width="48" height="48" viewBox="0 0 48 48" fill="none" xmlns="http://www.w3.org/2000/svg">
<rect width="48" height="48" rx="12" fill="#FEE600"/>
<path d="M16 24C16 19.58 19.58 16 24 16C28.42 16 32 19.58 32 24C32 28.42 28.42 32 24 32C19.58 32 16 28.42 16 24ZM24 14C18.48 14 14 18.48 14 24C14 29.52 18.48 34 24 34C29.52 34 34 29.52 34 24C34 18.48 29.52 14 24 14ZM20.21 22.29L18.79 23.71L22.29 27.21C22.68 27.6 23.32 27.6 23.71 27.21L28.71 22.21L27.29 20.79L22.07 26.02L21.98 25.93C22.41 25.13 22.25 24.32 21.6 23.67L20.21 22.29Z" fill="#303030"/>
</svg>
