<svg width="48" height="48" viewBox="0 0 48 48" fill="none" xmlns="http://www.w3.org/2000/svg">
<rect width="48" height="48" rx="12" fill="#FEE600"/>
<path d="M24 14C18.48 14 14 18.48 14 24C14 29.52 18.48 34 24 34C29.52 34 34 29.52 34 24C34 18.48 29.52 14 24 14ZM26.12 24.71L28.95 27.54L27.54 28.95L23.06 24.47L22.97 24.57C23.32 25.3 23.22 26.19 22.59 26.83L20.46 28.95L19.05 27.54L21.88 24.71C22.32 24.27 22.25 23.66 21.88 23.29L19.05 20.46L20.46 19.05L24.94 23.53L25.03 23.43C24.68 22.7 24.78 21.81 25.41 21.17L27.54 19.05L28.95 20.46L26.12 23.29C25.68 23.73 25.75 24.34 26.12 24.71Z" fill="#303030"/>
</svg>
