<svg width="48" height="48" viewBox="0 0 48 48" fill="none" xmlns="http://www.w3.org/2000/svg">
<rect width="48" height="48" rx="12" fill="#FEE600"/>
<path d="M27 32V26C27 25.03 26.51 24.39 25.67 24.12V24H32V30C32 30.97 32.49 31.61 33.33 31.88V32H27ZM27 18V16H32V18H27ZM26 20H33C33.55 20 34 19.55 34 19V15C34 14.45 33.55 14 33 14H26C25.45 14 25 14.45 25 15V19C25 19.55 25.45 20 26 20ZM16 24V18C16 17.03 15.51 16.39 14.67 16.12V16H21V22C21 22.97 21.49 23.61 22.33 23.88V24H16ZM15 26H22C22.55 26 23 25.55 23 25V15C23 14.45 22.55 14 22 14H15C14.45 14 14 14.45 14 15V25C14 25.55 14.45 26 15 26ZM16 32V30H21V32H16ZM15 34H22C22.55 34 23 33.55 23 33V29C23 28.45 22.55 28 22 28H15C14.45 28 14 28.45 14 29V33C14 33.55 14.45 34 15 34ZM26 34H33C33.55 34 34 33.55 34 33V23C34 22.45 33.55 22 33 22H26C25.45 22 25 22.45 25 23V33C25 33.55 25.45 34 26 34Z" fill="#2B2D33"/>
</svg>
