<svg width="48" height="48" viewBox="0 0 48 48" fill="none" xmlns="http://www.w3.org/2000/svg">
<rect width="48" height="48" rx="12" fill="#FEE600"/>
<path d="M22.9 30.75C22.9 31.9875 21.91 33 20.7 33C19.49 33 18.5 31.9875 18.5 30.75C18.5 29.5125 19.49 28.5 20.7 28.5C21.91 28.5 22.9 29.5125 22.9 30.75ZM20.7 21.75C19.49 21.75 18.5 22.7625 18.5 24C18.5 25.2375 19.49 26.25 20.7 26.25C21.91 26.25 22.9 25.2375 22.9 24C22.9 22.7625 21.91 21.75 20.7 21.75ZM20.7 15C19.49 15 18.5 16.0125 18.5 17.25C18.5 18.4875 19.49 19.5 20.7 19.5C21.91 19.5 22.9 18.4875 22.9 17.25C22.9 16.0125 21.91 15 20.7 15ZM27.3 19.5C28.51 19.5 29.5 18.4875 29.5 17.25C29.5 16.0125 28.51 15 27.3 15C26.09 15 25.1 16.0125 25.1 17.25C25.1 18.4875 26.09 19.5 27.3 19.5ZM27.3 21.75C26.09 21.75 25.1 22.7625 25.1 24C25.1 25.2375 26.09 26.25 27.3 26.25C28.51 26.25 29.5 25.2375 29.5 24C29.5 22.7625 28.51 21.75 27.3 21.75ZM27.3 28.5C26.09 28.5 25.1 29.5125 25.1 30.75C25.1 31.9875 26.09 33 27.3 33C28.51 33 29.5 31.9875 29.5 30.75C29.5 29.5125 28.51 28.5 27.3 28.5Z" fill="#2B2D33"/>
</svg>
