<svg width="48" height="48" viewBox="0 0 48 48" fill="none" xmlns="http://www.w3.org/2000/svg">
<rect width="48" height="48" rx="12" fill="#FEE600"/>
<path d="M32.7099 19.29L28.7099 15.29C28.3199 14.9 27.6799 14.9 27.2899 15.29L16.3499 26.23C16.1399 26.44 16.0599 26.59 15.9999 26.89L15.0199 31.8C14.8699 32.55 15.4499 33.13 16.1899 32.98L21.1099 32C21.4099 31.93 21.5499 31.86 21.7599 31.65L32.7099 20.7C33.0999 20.31 33.0999 19.68 32.7099 19.29ZM28.3299 24.32C27.5599 23.84 26.5699 24.02 25.5799 25L20.5099 30.08L17.2999 30.71L17.9299 27.49L22.9999 22.41C23.9899 21.43 24.1599 20.43 23.6799 19.67L23.7699 19.59L28.4199 24.24L28.3299 24.32ZM29.9099 22.74L29.8299 22.82L25.1699 18.17L25.2599 18.09C26.0199 18.57 27.0199 18.39 27.9999 17.41L30.5899 20C29.6099 20.98 29.4299 21.98 29.9099 22.74Z" fill="#303030"/>
</svg>
