<svg width="48" height="48" viewBox="0 0 48 48" fill="none" xmlns="http://www.w3.org/2000/svg">
<rect width="48" height="48" rx="12" fill="#FEE600"/>
<path d="M24.6 24.8C24.24 25.07 23.76 25.07 23.4 24.8L14.82 18.35L14.75 18.45C15.66 19.25 16 20.11 16 21.32V30H32V21.32C32 20.11 32.34 19.25 33.25 18.45L33.18 18.35L24.6 24.8ZM30.33 18H17.67L24 22.75L30.33 18ZM33 16C33.55 16 34 16.45 34 17V31C34 31.55 33.55 32 33 32H15C14.45 32 14 31.55 14 31V17C14 16.45 14.45 16 15 16H33Z" fill="#2B2D33"/>
</svg>
