<svg width="48" height="48" viewBox="0 0 48 48" fill="none" xmlns="http://www.w3.org/2000/svg">
<rect width="48" height="48" rx="12" fill="#FEE600"/>
<path d="M20 19.5V30.9L17 28.5V17.1L20 19.5ZM17.4 14.7C18.7 15.6 20 16 21.8 16H31V14H16C15.4 14 15 14.4 15 15V29C15 29.3 15.1 29.6 15.4 29.8L20.3 33.7C21 34.3 22 33.9 22 33V32H31V30H22V19C22 18.7 21.9 18.4 21.6 18.2L17.4 14.8V14.7Z" fill="#2B2D33"/>
<path d="M33.3 24C33.8 23.8 34 23.4 34 23C34 22.5 33.8 22.2 33.3 22C31.6 21.3 30 20 30 18H28C28 20.1 29 21.4 30.6 21.9V22H24V24H30.6V24.1C29 24.6 28 25.9 28 28H30C30 26 31.6 24.7 33.3 24Z" fill="#2B2D33"/>
</svg>
