<svg width="48" height="48" viewBox="0 0 48 48" fill="none" xmlns="http://www.w3.org/2000/svg">
<rect width="48" height="48" rx="12" fill="#FEE600"/>
<path d="M16.5468 22.5948L21.896 22.1237L23.9897 17.1618L26.1042 22.1237L31.4535 22.5948L27.4128 26.1121L28.6166 31.3776L24.0106 28.5931L19.3836 31.3776L20.5875 26.1121L16.5468 22.5948ZM13.3958 22.6053L16.9864 25.7981C17.6564 26.3843 18.3892 26.6041 19.1115 26.5413L19.1533 26.6669C18.5253 27.0333 18.0646 27.6405 17.8658 28.5198L16.8399 33.1991C16.62 34.1935 17.604 34.8426 18.431 34.361L22.5765 31.9429C23.3511 31.4823 23.7803 30.8437 23.9373 30.1319H24.0629C24.22 30.8437 24.6492 31.4927 25.4238 31.9429L29.5692 34.361C30.3962 34.8426 31.3802 34.1935 31.1604 33.1991L30.1345 28.5198C29.9461 27.6405 29.475 27.0333 28.8469 26.6669L28.8888 26.5413C29.6111 26.6041 30.3439 26.3948 31.0138 25.7981L34.6044 22.6053C35.3267 21.9667 35.0232 20.8362 33.9973 20.7315L29.2238 20.2604C28.313 20.1662 27.5803 20.4384 27.0359 20.9304L26.9417 20.8571C27.2453 20.1871 27.2662 19.4125 26.8998 18.575L24.9841 14.1889C24.7643 13.6864 24.4189 13.4771 23.9897 13.4771C23.5605 13.4771 23.2359 13.6864 23.0161 14.1889L21.1004 18.575C20.7445 19.4125 20.755 20.1871 21.0586 20.8571L20.9643 20.9304C20.42 20.4384 19.6872 20.1871 18.7765 20.2604L14.003 20.7315C12.9771 20.8362 12.6735 21.9667 13.3958 22.6053Z" fill="#303030"/>
</svg>
