<svg width="48" height="48" viewBox="0 0 48 48" fill="none" xmlns="http://www.w3.org/2000/svg">
<rect width="48" height="48" rx="12" fill="#FEE600"/>
<path d="M25.25 27.75C25.25 28.4404 24.6904 29 24 29C23.3096 29 22.75 28.4404 22.75 27.75C22.75 27.0596 23.3096 26.5 24 26.5C24.6904 26.5 25.25 27.0596 25.25 27.75Z" fill="#2B2D33"/>
<path d="M21.8569 19.7712C21.3032 20.2634 21.0176 20.9248 21 21.7554H22.7864C22.8083 21.3818 22.9358 21.0852 23.1687 20.8655C23.4016 20.6414 23.707 20.5293 24.085 20.5293C24.4585 20.5293 24.7617 20.6304 24.9946 20.8325C25.2231 21.0347 25.3374 21.2939 25.3374 21.6104C25.3374 21.9224 25.2583 22.1794 25.1001 22.3816C24.9463 22.5837 24.6562 22.8123 24.23 23.0671C23.7686 23.3396 23.4456 23.6362 23.261 23.957C23.072 24.2954 22.9995 24.7195 23.0435 25.2292L23.0566 25.6116H24.8035V25.2622C24.8035 24.937 24.8804 24.6733 25.0342 24.4712C25.188 24.269 25.4846 24.0405 25.9241 23.7856C26.8645 23.2319 27.3347 22.4871 27.3347 21.551C27.3347 20.7952 27.0491 20.1821 26.4778 19.7119C25.8977 19.2373 25.1396 19 24.2036 19C23.2104 19 22.4282 19.2571 21.8569 19.7712Z" fill="#2B2D33"/>
<path fill-rule="evenodd" clip-rule="evenodd" d="M14 24C14 18.4772 18.4772 14 24 14C29.5228 14 34 18.4772 34 24C34 29.5228 29.5228 34 24 34C18.4772 34 14 29.5228 14 24ZM24 16C19.5817 16 16 19.5817 16 24C16 28.4183 19.5817 32 24 32C28.4183 32 32 28.4183 32 24C32 19.5817 28.4183 16 24 16Z" fill="#2B2D33"/>
</svg>
