<svg width="48" height="48" viewBox="0 0 48 48" fill="none" xmlns="http://www.w3.org/2000/svg">
<rect width="48" height="48" rx="12" fill="#FEE600"/>
<path d="M24 14C18.48 14 14 18.48 14 24C14 29.52 18.48 34 24 34C29.52 34 34 29.52 34 24C34 18.48 29.52 14 24 14ZM24 18.01C24.83 18.01 25.5 18.68 25.5 19.51C25.5 20.34 24.83 21.01 24 21.01C23.17 21.01 22.5 20.34 22.5 19.51C22.5 18.68 23.17 18.01 24 18.01ZM27 30.01H21V28.01H23V25.88C23 24.82 23.53 24.26 24.41 24.13V24.01H21V22.01H24C24.6 22.01 25 22.41 25 23.01V28.01H27V30.01Z" fill="#2B2D33"/>
</svg>
