<svg width="48" height="48" viewBox="0 0 48 48" fill="none" xmlns="http://www.w3.org/2000/svg">
<rect width="48" height="48" rx="12" fill="#FEE600"/>
<path d="M16 17C16 16.4477 16.4477 16 17 16H19C19.5523 16 20 16.4477 20 17V19C20 19.5523 19.5523 20 19 20H17C16.4477 20 16 19.5523 16 19V17Z" fill="#2B2D33"/>
<path d="M16 23C16 22.4477 16.4477 22 17 22H19C19.5523 22 20 22.4477 20 23V25C20 25.5523 19.5523 26 19 26H17C16.4477 26 16 25.5523 16 25V23Z" fill="#2B2D33"/>
<path d="M23 16C22.4477 16 22 16.4477 22 17V19C22 19.5523 22.4477 20 23 20H25C25.5523 20 26 19.5523 26 19V17C26 16.4477 25.5523 16 25 16H23Z" fill="#2B2D33"/>
<path d="M22 23C22 22.4477 22.4477 22 23 22H25C25.5523 22 26 22.4477 26 23V25C26 25.5523 25.5523 26 25 26H23C22.4477 26 22 25.5523 22 25V23Z" fill="#2B2D33"/>
<path d="M23 28C22.4477 28 22 28.4477 22 29V31C22 31.5523 22.4477 32 23 32H25C25.5523 32 26 31.5523 26 31V29C26 28.4477 25.5523 28 25 28H23Z" fill="#2B2D33"/>
<path d="M28 17C28 16.4477 28.4477 16 29 16H31C31.5523 16 32 16.4477 32 17V19C32 19.5523 31.5523 20 31 20H29C28.4477 20 28 19.5523 28 19V17Z" fill="#2B2D33"/>
<path d="M29 22C28.4477 22 28 22.4477 28 23V25C28 25.5523 28.4477 26 29 26H31C31.5523 26 32 25.5523 32 25V23C32 22.4477 31.5523 22 31 22H29Z" fill="#2B2D33"/>
</svg>
