<svg width="48" height="48" viewBox="0 0 48 48" fill="none" xmlns="http://www.w3.org/2000/svg">
<rect width="48" height="48" rx="12" fill="#FEE600"/>
<path d="M31.33 30H18V29C18 28.03 17.51 27.39 16.67 27.12V27H30V28C30 28.97 30.49 29.61 31.33 29.88V30ZM31.33 21H18V20C18 19.03 17.51 18.39 16.67 18.12V18H30V19C30 19.97 30.49 20.61 31.33 20.88V21ZM16 22C16 22.55 16.45 23 17 23H31C31.55 23 32 22.55 32 22V17C32 16.45 31.55 16 31 16H17C16.45 16 16 16.45 16 17V22ZM16 31C16 31.55 16.45 32 17 32H31C31.55 32 32 31.55 32 31V26C32 25.45 31.55 25 31 25H17C16.45 25 16 25.45 16 26V31Z" fill="#2B2D33"/>
</svg>
