<svg width="48" height="48" viewBox="0 0 48 48" fill="none" xmlns="http://www.w3.org/2000/svg">
<rect width="48" height="48" rx="12" fill="#FEE600"/>
<path d="M32 32.01H16V25.33C16 23.98 15.67 23.14 14.73 22.22L14.8 22.12L23.39 28.8C23.75 29.08 24.25 29.08 24.61 28.8L33.2 22.12L33.27 22.22C32.33 23.14 32 23.98 32 25.33V32.01ZM15 20.01C14.45 20.01 14 20.46 14 21.01V33.01C14 33.56 14.45 34.01 15 34.01H33C33.55 34.01 34 33.56 34 33.01V21.01C34 20.46 33.55 20.01 33 20.01H27V22.01H30.13L24 26.76L17.87 22.01H21V20.01H15Z" fill="#2B2D33"/>
<path d="M23 23.01V16.04H22.86C22.56 17.5 21.59 18 20 18V16.01C21.33 16 22.45 15.32 23.03 13.72C23.21 13.21 23.55 13 24 13C24.45 13 24.79 13.21 24.97 13.72C25.55 15.32 26.67 16 28 16.01V18C26.41 18 25.44 17.5 25.14 16.04H25V23.01H23Z" fill="#2B2D33"/>
</svg>
