<svg width="48" height="48" viewBox="0 0 48 48" fill="none" xmlns="http://www.w3.org/2000/svg">
<rect width="48" height="48" rx="12" fill="#FEE600"/>
<path d="M27 19H33V21H27V19ZM33 23H23V25H33V23ZM33 31H23V33H33V31ZM33 27H23V29H33V27ZM33 15H23V17H33V15Z" fill="#2B2D33"/>
<path d="M23.3 19C21.7 18.4 21 17.3 21 16H19C19 17.6 19.5 18.6 21 18.9V19H16C15.4 19 15 19.4 15 20V33H17V21H21V21.1C19.5 21.4 19 22.4 19 24H21C21 22.7 21.7 21.5 23.3 21C23.8 20.8 24 20.4 24 20C24 19.5 23.8 19.2 23.3 19Z" fill="#2B2D33"/>
</svg>
