<svg width="48" height="48" viewBox="0 0 48 48" fill="none" xmlns="http://www.w3.org/2000/svg">
<rect width="48" height="48" rx="12" fill="#FEE600"/>
<path d="M31.8296 19.82L27.5896 15.58C26.8096 14.8 25.5396 14.8 24.7596 15.58L21.2796 19.05C21.0796 19.25 20.5596 19.47 20.2696 19.47L16.5396 19.51C15.5696 19.53 15.2296 20.09 15.1296 20.34C15.0296 20.59 14.8596 21.24 15.5496 21.93L19.7996 26.18L15.2896 30.69C14.8996 31.08 14.8996 31.71 15.2896 32.1C15.4896 32.3 15.7396 32.39 15.9996 32.39C16.2596 32.39 16.5096 32.3 16.7096 32.1L19.8296 28.98C20.3996 28.41 20.5596 27.62 20.1796 26.79L20.2996 26.67L25.4696 31.84C25.8796 32.25 26.2696 32.36 26.5796 32.36C26.7896 32.36 26.9596 32.31 27.0596 32.27C27.3096 32.17 27.8896 31.83 27.8996 30.85L27.9396 27.12C27.9396 26.83 28.1596 26.31 28.3596 26.11L31.8296 22.64C32.6096 21.86 32.6096 20.61 31.8296 19.82Z" fill="#2B2D33"/>
</svg>
