<svg width="48" height="48" viewBox="0 0 48 48" fill="none" xmlns="http://www.w3.org/2000/svg">
<rect width="48" height="48" rx="12" fill="#FEE600"/>
<path d="M25.2501 16.09L30.4101 21.24L26.9401 24.7C26.3601 25.28 25.9401 26.29 25.9301 27.1L25.9101 29.45L17.9501 21.49L20.3001 21.47C21.1101 21.46 22.1401 21.02 22.7001 20.46L24.7801 18.39C25.3501 17.82 25.5101 17.03 25.1301 16.2L25.2501 16.09ZM31.8301 19.82L27.5901 15.58C26.8101 14.8 25.5401 14.8 24.7601 15.58L21.2801 19.05C21.0801 19.25 20.5601 19.47 20.2701 19.47L16.5401 19.51C15.5701 19.53 15.2301 20.09 15.1301 20.34C15.0301 20.59 14.8601 21.24 15.5501 21.93L19.8001 26.18L15.2901 30.69C14.9001 31.08 14.9001 31.71 15.2901 32.1C15.4901 32.3 15.7401 32.39 16.0001 32.39C16.2601 32.39 16.5101 32.3 16.7101 32.1L19.8301 28.98C20.4001 28.41 20.5601 27.62 20.1801 26.79L20.3001 26.67L25.4701 31.84C25.8801 32.25 26.2701 32.36 26.5801 32.36C26.7901 32.36 26.9601 32.31 27.0601 32.27C27.3101 32.17 27.8901 31.83 27.9001 30.85L27.9401 27.12C27.9401 26.83 28.1601 26.31 28.3601 26.11L31.8301 22.64C32.6101 21.86 32.6101 20.61 31.8301 19.82Z" fill="#2B2D33"/>
</svg>
