<svg width="48" height="48" viewBox="0 0 48 48" fill="none" xmlns="http://www.w3.org/2000/svg">
<rect width="48" height="48" rx="12" fill="#FEE600"/>
<path d="M30.6 29.2C30 28.6 29.3 28.6 28.8 28.7L28.7 28.6C30.1 27.1 31 25.2 31 23C31 18.6 27.4 15 23 15C18.6 15 15 18.6 15 23C15 27.4 18.6 31 23 31C24.2 31 25.3 30.7 26.4 30.2C26.4 30.2 28 29.3 29.2 30.5C30.6 31.9 31.8 33.1 31.8 33.1L33.2 31.7C33.2 31.8 32 30.6 30.6 29.2ZM23 29C19.7 29 17 26.3 17 23C17 19.7 19.7 17 23 17C26.3 17 29 19.7 29 23C29 26.3 26.3 29 23 29Z" fill="#303030"/>
</svg>
