<svg width="48" height="48" viewBox="0 0 48 48" fill="none" xmlns="http://www.w3.org/2000/svg">
<rect width="48" height="48" rx="12" fill="#FEE600"/>
<path d="M33.8202 32H17.8802C16.5702 32 15.8402 32.4 15.0602 33.35H14.9302L22.9402 18.97C23.5602 17.85 23.6102 16.95 23.1802 15.8L23.2402 15.69L31.2202 30.08C31.8502 31.22 32.5502 31.66 33.7702 31.88L33.8202 32ZM23.0002 27H25.0002V22H23.0002V27ZM24.0002 30.75C24.6902 30.75 25.2502 30.19 25.2502 29.5C25.2502 28.81 24.6902 28.25 24.0002 28.25C23.3102 28.25 22.7502 28.81 22.7502 29.5C22.7502 30.19 23.3102 30.75 24.0002 30.75ZM14.0002 34H34.0002C34.8602 34 35.2502 33.16 34.8002 32.35L24.8702 14.51C24.4902 13.83 23.5102 13.83 23.1302 14.51L13.1602 32.43C12.7502 33.16 13.1402 34 14.0002 34Z" fill="#2B2D33"/>
</svg>
