<svg width="48" height="48" viewBox="0 0 48 48" fill="none" xmlns="http://www.w3.org/2000/svg">
<rect width="48" height="48" rx="12" fill="#FEE600"/>
<path fill-rule="evenodd" clip-rule="evenodd" d="M24 34C18.4772 34 14 29.5228 14 24C14 18.4772 18.4772 14 24 14C29.5228 14 34 18.4772 34 24C34 29.5228 29.5228 34 24 34ZM23 19V25H25V19H23ZM24 29C23.3096 29 22.75 28.4404 22.75 27.75C22.75 27.0596 23.3096 26.5 24 26.5C24.6904 26.5 25.25 27.0596 25.25 27.75C25.25 28.4404 24.6904 29 24 29Z" fill="#2B2D33"/>
</svg>
