<svg width="48" height="48" viewBox="0 0 48 48" fill="none" xmlns="http://www.w3.org/2000/svg">
<rect width="48" height="48" rx="12" fill="#2B2D33"/>
<path fill-rule="evenodd" clip-rule="evenodd" d="M29.0303 12.4697C28.7374 12.1768 28.2626 12.1768 27.9697 12.4697L26.7654 13.6739C25.9379 13.2433 24.9974 13 24 13C23.0026 13 22.0621 13.2433 21.2346 13.6739L20.0303 12.4697C19.7374 12.1768 19.2626 12.1768 18.9697 12.4697C18.6768 12.7626 18.6768 13.2374 18.9697 13.5303L19.9827 14.5433C18.7652 15.6415 18 17.2314 18 19H30C30 17.2314 29.2348 15.6415 28.0173 14.5433L29.0303 13.5303C29.3232 13.2374 29.3232 12.7626 29.0303 12.4697ZM23 16C23 16.5523 22.5523 17 22 17C21.4477 17 21 16.5523 21 16C21 15.4477 21.4477 15 22 15C22.5523 15 23 15.4477 23 16ZM26 17C26.5523 17 27 16.5523 27 16C27 15.4477 26.5523 15 26 15C25.4477 15 25 15.4477 25 16C25 16.5523 25.4477 17 26 17Z" fill="#FEE600"/>
<path d="M15.5 20C14.6716 20 14 20.6716 14 21.5V26.5C14 27.3284 14.6716 28 15.5 28C16.3284 28 17 27.3284 17 26.5V21.5C17 20.6716 16.3284 20 15.5 20Z" fill="#FEE600"/>
<path d="M20 30V33.5C20 34.3284 20.6716 35 21.5 35C22.3284 35 23 34.3284 23 33.5V30H25V33.5C25 34.3284 25.6716 35 26.5 35C27.3284 35 28 34.3284 28 33.5V30H29C29.5523 30 30 29.5523 30 29V20H18V29C18 29.5523 18.4477 30 19 30H20Z" fill="#FEE600"/>
<path d="M32.5 20C31.6716 20 31 20.6716 31 21.5V26.5C31 27.3284 31.6716 28 32.5 28C33.3284 28 34 27.3284 34 26.5V21.5C34 20.6716 33.3284 20 32.5 20Z" fill="#FEE600"/>
</svg>
