<svg width="48" height="48" viewBox="0 0 48 48" fill="none" xmlns="http://www.w3.org/2000/svg">
<rect width="48" height="48" rx="12" fill="#2B2D33"/>
<path d="M28.64 17C29.05 17 29.42 17.25 29.57 17.63L31.97 23.63C32.23 24.29 31.75 25 31.04 25H25V27H26.22L26.74 29.1C26.87 29.61 26.81 30.14 26.58 30.6L26.36 31.03C26.29 31.18 26.17 31.29 26.03 31.37C25.67 31.54 25.24 31.41 25.04 31.07L21.86 25.5C21.69 25.19 21.36 25 21 25H20V18.54L22.3 17H28.64ZM18 17V26H16V17H18ZM31.04 27C33.16 27 34.62 24.86 33.83 22.89L31.43 16.89C30.97 15.75 29.87 15 28.64 15H22C21.8 15 21.61 15.06 21.44 15.17L20 16.13V16C20 15.45 19.55 15 19 15H15C14.44 15 14 15.45 14 16V27C14 27.55 14.44 28 15 28H19C19.55 28 20 27.55 20 27H20.42L23.31 32.06C24.03 33.33 25.62 33.81 26.92 33.16C27.45 32.89 27.89 32.46 28.15 31.93L28.36 31.5C28.81 30.61 28.92 29.58 28.68 28.62C28.42 27.57 28.09 27.31 27.02 27.12V27H31.04Z" fill="#FEE600"/>
</svg>
