<svg width="48" height="48" viewBox="0 0 48 48" fill="none" xmlns="http://www.w3.org/2000/svg">
<rect width="48" height="48" rx="12" fill="#2B2D33"/>
<path d="M18.45 19.06L19.4 20.28C19.87 20.88 20.12 21.02 20.58 21.05L20.62 21.16C20.26 21.45 20.13 21.71 20.11 22.47L20.06 24.02C20.05 24.35 20.21 24.66 20.47 24.85C20.74 25.05 21.09 25.1 21.4 24.99L22.84 24.47C23.56 24.21 23.77 24.01 23.94 23.58H24.06C24.22 24.01 24.43 24.22 25.14 24.47L26.6 24.99C26.92 25.1 27.26 25.05 27.53 24.85C27.79 24.66 27.95 24.35 27.94 24.02L27.89 22.49C27.86 21.72 27.74 21.46 27.38 21.16L27.42 21.05C27.88 21.03 28.15 20.89 28.6 20.3L29.54 19.07C29.74 18.81 29.81 18.46 29.71 18.15C29.61 17.83 29.36 17.59 29.04 17.5L27.57 17.07C26.83 16.85 26.54 16.9 26.15 17.14L26.06 17.07C26.18 16.63 26.13 16.34 25.71 15.72L24.83 14.43C24.64 14.16 24.33 14 24 14C23.67 14 23.36 14.16 23.18 14.43L22.32 15.7C21.89 16.33 21.83 16.62 21.95 17.07L21.85 17.14C21.47 16.88 21.18 16.83 20.46 17.05L18.96 17.5C18.65 17.59 18.4 17.83 18.29 18.15C18.18 18.46 18.25 18.8 18.45 19.06ZM31 17H33V15H31V17ZM32 24V22H34V24H32ZM32 26H34V24H36V22H34V20H32V22H30V24H32V26ZM22.1 22.61L22.15 20.95C22.16 20.72 22.08 20.5 21.94 20.32L20.93 19L22.52 18.53C22.74 18.47 22.93 18.33 23.06 18.14L24 16.77L24.94 18.14C25.07 18.33 25.26 18.47 25.48 18.53L27.07 19L26.06 20.32C25.92 20.5 25.84 20.72 25.85 20.95L25.9 22.61L24.34 22.06C24.12 21.98 23.88 21.99 23.67 22.06L22.1 22.61ZM32 32H34V30H32V32ZM15 17H17V15H15V17ZM27 34H29V32.82C29 31.63 29.2 31 29.84 30.04L30.83 28.55L29.17 27.45L28.18 28.93C27.32 30.22 27 31.23 27 32.82V34ZM23 34H25V26H23V34ZM14 22H16V20H14V22ZM16 24H18V22H16V24ZM12 24H14V22H12V24ZM14 26H16V24H14V26ZM19 34H21V32.82C21 31.23 20.7 30.21 19.83 28.93L18.83 27.45L17.17 28.55L18.16 30.04C18.8 31 19 31.63 19 32.82V34ZM14 32H16V30H14V32Z" fill="#FEE600"/>
</svg>
