<svg width="48" height="48" viewBox="0 0 48 48" fill="none" xmlns="http://www.w3.org/2000/svg">
<rect width="48" height="48" rx="12" fill="#2B2D33"/>
<path d="M19 16H17V18H19V16Z" fill="#FEE600"/>
<path d="M17 18H15V20H17V18Z" fill="#FEE600"/>
<path d="M17 14H15V16H17V14Z" fill="#FEE600"/>
<path d="M31 23H29V25H31V23Z" fill="#FEE600"/>
<path d="M27.86 20.56C29.5 18.92 31.72 17.99 34.04 17.98L34.03 15.98C31.18 15.99 28.46 17.13 26.44 19.14L25.29 20.29L26.71 21.71L27.86 20.56Z" fill="#FEE600"/>
<path d="M28 14H26V16H28V14Z" fill="#FEE600"/>
<path d="M33 25H31V27H33V25Z" fill="#FEE600"/>
<path d="M27.94 29.34C27.59 26.65 25.51 23.5 23.12 22.01C24.28 19.63 24.19 16.82 22.87 14.5L21.13 15.5C22.13 17.25 22.19 19.37 21.31 21.16C20.84 21.01 20.4 20.93 19.99 20.88C19.33 20.81 18.77 20.84 18.38 20.9C18.18 20.93 18.02 20.96 17.9 20.99C17.81 21.01 17.71 21.04 17.63 21.07C17.36 21.18 17.15 21.4 17.05 21.68L13.05 33.68C12.93 34.04 13.02 34.43 13.29 34.7C13.55 34.97 13.94 35.07 14.3 34.96L27.3 30.96C27.7 30.83 27.98 30.47 28 30.05C28.01 29.81 27.98 29.58 27.94 29.34ZM18.77 22.87C21.33 22.49 23.99 24.81 25.24 27.43L19.69 25.11C18.88 24.77 18.21 25.16 17.95 25.7L17.84 25.67L18.77 22.87ZM17.59 26.4L25.09 29.54L22.11 30.46L18.41 28.91C17.6 28.57 16.93 28.96 16.67 29.5L16.56 29.47L17.59 26.4ZM16.32 30.21L19.12 31.38L15.56 32.47L16.32 30.21Z" fill="#FEE600"/>
<path d="M15 16H13V18H15V16Z" fill="#FEE600"/>
<path d="M33 21H31V23H33V21Z" fill="#FEE600"/>
<path d="M30 33H28V35H30V33Z" fill="#FEE600"/>
<path d="M29.87 29.01L30.13 30.99C31.05 30.87 31.97 31.21 32.59 31.91L33.25 32.66L34.75 31.34L34.09 30.58C33.03 29.39 31.45 28.8 29.87 29.01Z" fill="#FEE600"/>
<path d="M35 23H33V25H35V23Z" fill="#FEE600"/>
</svg>
