<svg width="48" height="48" viewBox="0 0 48 48" fill="none" xmlns="http://www.w3.org/2000/svg">
<rect width="48" height="48" rx="12" fill="#2B2D33"/>
<path d="M16 28V16H32V28H25.3C24.95 28 24.66 28.06 24.27 28.25L20 30.38V29C20 28.43 19.55 28 19 28H16ZM15 14C14.45 14 14 14.44 14 15V29C14 29.57 14.46 30 15 30H18V32.1C18 32.95 18.71 33.26 19.45 32.89L25.24 30H33C33.52 30 34 29.59 34 29V15C34 14.45 33.55 14 33 14H15ZM25.96 20C26.44 20 27 20.5 27 21.07C27 21.39 26.88 21.66 26.66 21.85L24 24.17L21.34 21.85C21.12 21.65 21 21.38 21 21.07C21 20.52 21.53 20 22.04 20C22.31 20 22.55 20.13 22.7 20.35L23.17 21.05C23.35 21.33 23.67 21.5 24 21.5C24.34 21.5 24.65 21.33 24.83 21.05L25.3 20.35C25.45 20.13 25.69 20 25.96 20ZM24.06 19.84H23.94C23.83 18.67 23.15 18 22.04 18C20.46 18 19 19.4 19 21.07C19 21.97 19.37 22.78 20.03 23.35L23.34 26.25C23.72 26.58 24.28 26.58 24.66 26.25L27.98 23.35C28.63 22.78 29 21.96 29 21.07C29 19.41 27.57 18 25.96 18C24.85 18 24.17 18.67 24.06 19.84Z" fill="#FEE600"/>
</svg>
