<svg width="48" height="48" viewBox="0 0 48 48" fill="none" xmlns="http://www.w3.org/2000/svg">
<rect width="48" height="48" rx="12" fill="#2B2D33"/>
<path d="M24 14C18.47 14 14 18.48 14 24V34H16V24.97C16 24.33 16.3 24 16.87 24H18V26.99C18 30.4 20.59 32.99 24 32.99C27.41 32.99 30 30.4 30 26.99V21.71L29.24 21.52C27.8 21.15 26 19.5 26 17.99H24C24 20.34 21.6 22 19 22H17.72C16.84 22 16.38 22.47 16.17 23.17H16.04C16.46 19.18 19.84 16 24 16C28.43 16 32 19.6 32 24V34H34V24C34 18.47 29.51 14 24 14ZM25.08 20.93C25.65 21.68 26.78 22.66 28 23.17V26.99C28 29.3 26.31 30.99 24 30.99C21.69 30.99 20 29.3 20 26.99V23.9C22.4 23.63 24.02 22.54 25.08 20.93Z" fill="#FEE600"/>
</svg>
