<svg width="48" height="48" viewBox="0 0 48 48" fill="none" xmlns="http://www.w3.org/2000/svg">
<rect width="48" height="48" rx="12" fill="#2B2D33"/>
<path d="M24 31.89C19.89 28.27 16 24.34 16 20.83C16 18.71 17.27 17 19.55 17C20.85 17 22.04 17.89 22.89 19.14C23.19 19.58 23.49 19.88 24 19.88C24.51 19.88 24.81 19.58 25.11 19.14C25.96 17.89 27.15 17 28.45 17C30.73 17 32 18.71 32 20.83C32 24.34 28.11 28.27 24 31.89ZM24 34C24.36 34 24.7 33.85 24.99 33.61C29.68 29.73 34 25.16 34 20.83C34 17.62 31.74 15 28.45 15C26.63 15 25.01 15.97 24.04 17.67H23.96C22.99 15.97 21.37 15 19.55 15C16.26 15 14 17.62 14 20.83C14 25.16 18.32 29.73 23.01 33.61C23.3 33.85 23.64 34 24 34Z" fill="#FEE600"/>
</svg>
