<svg width="48" height="48" viewBox="0 0 48 48" fill="none" xmlns="http://www.w3.org/2000/svg">
<rect width="48" height="48" rx="12" fill="#2B2D33"/>
<path d="M21.9 28H22.9L24.19 26.28C24.61 26.41 25.01 26.57 25.4 26.78V24.57C24.7 24.29 23.98 24.12 23.22 24.04V23.93C25.59 23.54 27.4 21.48 27.4 19C27.4 16.24 25.16 14 22.4 14C19.64 14 17.4 16.24 17.4 19C17.4 21.48 19.21 23.54 21.58 23.93V24.04C18.39 24.36 15.7 26.52 14.67 29.5C14.28 30.63 14.18 31.85 14.08 33.05L14 34H16.01L16.08 33.05C16.17 31.85 16.26 30.71 16.75 29.66C17.54 27.97 18.94 26.77 20.6 26.27L21.9 28ZM19.4 19C19.4 17.34 20.74 16 22.4 16C24.06 16 25.4 17.34 25.4 19C25.4 20.66 24.06 22 22.4 22C20.74 22 19.4 20.66 19.4 19Z" fill="#FEE600"/>
<path d="M23.4 29H21.4V34H23.4V29Z" fill="#FEE600"/>
<path d="M30.54 30.97H30.4V25H28.4V30.97H28.26C27.95 29.51 26.89 29 25.4 29V31C26.72 31.01 27.87 31.69 28.43 33.29C28.61 33.8 28.95 34 29.41 34C29.86 34 30.2 33.8 30.38 33.29C30.95 31.69 32.1 31.01 33.42 31V29C31.94 29 30.84 29.51 30.54 30.97Z" fill="#FEE600"/>
</svg>
