<svg width="48" height="48" viewBox="0 0 48 48" fill="none" xmlns="http://www.w3.org/2000/svg">
<rect width="48" height="48" rx="12" fill="#2B2D33"/>
<path d="M22.3 31.4499L20 29.9099V23.4499H21C21.36 23.4499 21.69 23.2599 21.86 22.9499L25.04 17.3799C25.24 17.0399 25.67 16.9099 26.03 17.0799C26.17 17.1599 26.29 17.2699 26.36 17.4199L26.58 17.8499C26.81 18.3099 26.87 18.8399 26.74 19.3499L26.22 21.4499H25V23.4499H31.04C31.75 23.4499 32.23 24.1599 31.97 24.8199L29.57 30.8199C29.42 31.1999 29.05 31.4499 28.64 31.4499H22.3ZM16 31.4499V22.4499H18V31.4499H16ZM27.02 21.4499V21.3299C28.09 21.1399 28.42 20.8799 28.68 19.8299C28.92 18.8699 28.81 17.8399 28.36 16.9499L28.15 16.5199C27.89 15.9899 27.45 15.5599 26.92 15.2899C25.62 14.6399 24.03 15.1199 23.31 16.3899L20.42 21.4499H20C20 20.8999 19.55 20.4499 19 20.4499H15C14.44 20.4499 14 20.8999 14 21.4499V32.4499C14 32.9999 14.44 33.4499 15 33.4499H19C19.55 33.4499 20 32.9999 20 32.4499V32.3199L21.44 33.2799C21.61 33.3899 21.8 33.4499 22 33.4499H28.64C29.87 33.4499 30.97 32.6999 31.43 31.5599L33.83 25.5599C34.62 23.5899 33.16 21.4499 31.04 21.4499H27.02Z" fill="#FEE600"/>
</svg>
