<svg width="48" height="48" viewBox="0 0 48 48" fill="none" xmlns="http://www.w3.org/2000/svg">
<rect width="48" height="48" rx="12" fill="#2B2D33"/>
<path d="M25.73 20.44H32.14C33.68 20.44 34.54 21.68 34.02 23.12L31.48 30.12C31.16 31 30.54 31.44 29.5 31.44H22L19 29.94V30.44C19 31.01 18.57 31.44 18 31.44H15C14.43 31.44 14 31.01 14 30.44V20.44C14 19.87 14.43 19.44 15 19.44H18C18.57 19.44 19 19.87 19 20.44H21L24.18 14.88C24.52 14.28 25.08 14 25.71 14C26.38 14 26.94 14.33 27.26 14.96L27.47 15.39C27.8 16.07 27.9 16.84 27.71 17.58L27.39 18.82C27.13 19.87 26.8 20.13 25.73 20.32V20.44Z" fill="#FEE600"/>
</svg>
