<svg width="48" height="48" viewBox="0 0 48 48" fill="none" xmlns="http://www.w3.org/2000/svg">
<rect width="48" height="48" rx="12" fill="#2B2D33"/>
<path d="M24 14C18.48 14 14 18.48 14 24C14 29.52 18.48 34 24 34C29.53 34 34 29.52 34 24C34 18.48 29.53 14 24 14ZM19.61 30.68C20.01 28.44 21.61 26.81 24 26.81C26.39 26.81 27.99 28.45 28.39 30.69C27.13 31.51 25.62 32 24 32C22.38 32 20.87 31.51 19.61 30.68ZM24 23.01C23.17 23.01 22.5 22.34 22.5 21.51C22.5 20.68 23.17 20.01 24 20.01C24.83 20.01 25.5 20.68 25.5 21.51C25.5 22.34 24.83 23.01 24 23.01ZM30.06 29.22C29.32 27.08 27.67 25.35 25.22 24.92V24.78C26.55 24.28 27.5 23.01 27.5 21.51C27.5 19.58 25.93 18.01 24 18.01C22.07 18.01 20.5 19.58 20.5 21.51C20.5 23.01 21.45 24.28 22.78 24.78V24.92C20.33 25.35 18.68 27.08 17.94 29.22C16.73 27.82 16 26 16 24C16 19.58 19.58 16 24 16C28.42 16 32 19.58 32 24C32 26 31.27 27.82 30.06 29.22Z" fill="#FEE600"/>
</svg>
