<svg width="48" height="48" viewBox="0 0 48 48" fill="none" xmlns="http://www.w3.org/2000/svg">
<rect width="48" height="48" rx="12" fill="#2B2D33"/>
<path d="M32.33 24V24.13C31.56 24.4 31 25.1 31 26V32H25V24H32.33ZM25 18V17C25 16.45 25.45 16 26 16C26.55 16 27 16.45 27 17V18H25ZM25 22V20H32V22H25ZM21 18V17C21 16.45 21.45 16 22 16C22.55 16 23 16.45 23 17V18H21ZM16 22V20H23V22H16ZM15.67 24H23V32H17V26C17 25.1 16.44 24.4 15.67 24.13V24ZM16 34H32C32.55 34 33 33.55 33 33V24C33.55 24 34 23.55 34 23V19C34 18.45 33.55 18 33 18H29V17C29 15.34 27.66 14 26 14C25.23 14 24.53 14.29 24 14.76C23.47 14.29 22.77 14 22 14C20.34 14 19 15.34 19 17V18H15C14.45 18 14 18.45 14 19V23C14 23.55 14.45 24 15 24V33C15 33.55 15.45 34 16 34Z" fill="#FEE600"/>
</svg>
