<svg width="48" height="48" viewBox="0 0 48 48" fill="none" xmlns="http://www.w3.org/2000/svg">
<rect width="48" height="48" rx="12" fill="#2B2D33"/>
<path d="M22.4 29H20.4V34H22.4V29Z" fill="#FEE600"/>
<path d="M26.4 19C26.4 16.24 24.16 14 21.4 14C18.64 14 16.4 16.24 16.4 19C16.4 21.48 18.21 23.54 20.58 23.93V24.04C17.39 24.36 14.7 26.52 13.67 29.5C13.28 30.63 13.18 31.85 13.08 33.05L13 34H15.01L15.08 33.05C15.17 31.85 15.26 30.71 15.75 29.66C16.54 27.97 17.94 26.77 19.6 26.27L20.9 28H21.9L23.19 26.27C23.61 26.4 24.02 26.56 24.4 26.78V24.58C23.71 24.3 22.98 24.12 22.22 24.04V23.93C24.59 23.54 26.4 21.48 26.4 19ZM21.4 22C19.74 22 18.4 20.66 18.4 19C18.4 17.34 19.74 16 21.4 16C23.06 16 24.4 17.34 24.4 19C24.4 20.66 23.06 22 21.4 22Z" fill="#FEE600"/>
<path d="M32.85 30.03C33.2 29.44 33.4 28.74 33.4 28C33.4 25.79 31.61 24 29.4 24C27.2 24 25.4 25.79 25.4 28C25.4 30.21 27.2 32 29.4 32C30.15 32 30.84 31.8 31.44 31.45L33.7 33.71L35.11 32.3L32.85 30.03ZM29.4 30C28.3 30 27.4 29.11 27.4 28C27.4 26.9 28.3 26 29.4 26C30.51 26 31.4 26.9 31.4 28C31.4 29.11 30.51 30 29.4 30Z" fill="#FEE600"/>
</svg>
