<svg width="48" height="48" viewBox="0 0 48 48" fill="none" xmlns="http://www.w3.org/2000/svg">
<rect width="48" height="48" rx="12" fill="#2B2D33"/>
<path d="M17 23C17 21.61 17.35 21 18.62 21H26.1C28.58 21 29.84 19.54 28.83 18.09L28.91 18C30.43 19.54 31 21.38 31 23V25C31 28.89 27.83 32 24 32C20.13 32 17 28.87 17 25V23ZM17.54 20.22C18.83 17.43 21.51 16 24 16C25.09 16 26.13 16.25 27.06 16.7C28.41 17.34 28.2 19 26.5 19H19.92C18.76 19 18.26 19.36 17.65 20.22H17.54ZM27.5 25C28.33 25 29 24.33 29 23.5C29 22.67 28.33 22 27.5 22C26.67 22 26 22.67 26 23.5C26 24.33 26.67 25 27.5 25ZM20.5 25C21.33 25 22 24.33 22 23.5C22 22.67 21.33 22 20.5 22C19.67 22 19 22.67 19 23.5C19 24.33 19.67 25 20.5 25ZM23 30H25C26.1 30 27 29.1 27 28H21C21 29.1 21.89 30 23 30ZM24 34C28.97 34 33 29.97 33 25V23C33 18.03 28.97 14 24 14C19.03 14 15 18.03 15 23V25C15 29.97 19.03 34 24 34Z" fill="#FEE600"/>
</svg>
