<svg width="48" height="48" viewBox="0 0 48 48" fill="none" xmlns="http://www.w3.org/2000/svg">
<rect width="48" height="48" rx="12" fill="#2B2D33"/>
<path d="M29.4 26C28.3 26 27.4 26.9 27.4 28C27.4 29.11 28.3 30 29.4 30C30.51 30 31.4 29.11 31.4 28C31.4 26.9 30.51 26 29.4 26ZM25.4 28C25.4 25.79 27.2 24 29.4 24C31.61 24 33.4 25.79 33.4 28C33.4 28.74 33.2 29.44 32.85 30.03L35.11 32.3L33.7 33.71L31.44 31.45C30.84 31.8 30.15 32 29.4 32C27.2 32 25.4 30.21 25.4 28ZM24.4 26.78V24.58C23.71 24.3 22.98 24.12 22.22 24.04V23.93C24.59 23.54 26.4 21.48 26.4 19C26.4 16.24 24.16 14 21.4 14C18.64 14 16.4 16.24 16.4 19C16.4 21.48 18.21 23.54 20.58 23.93V24.04C17.39 24.36 14.7 26.52 13.67 29.5C13.28 30.63 13.18 31.85 13.08 33.05L13 34H15.01L15.08 33.05C15.17 31.85 15.26 30.71 15.75 29.66C16.81 27.39 18.97 26 21.4 26C22.47 26 23.5 26.27 24.4 26.78ZM18.4 19C18.4 17.34 19.74 16 21.4 16C23.06 16 24.4 17.34 24.4 19C24.4 20.66 23.06 22 21.4 22C19.74 22 18.4 20.66 18.4 19Z" fill="#FEE600"/>
</svg>
