<svg width="48" height="48" viewBox="0 0 48 48" fill="none" xmlns="http://www.w3.org/2000/svg">
<rect width="48" height="48" rx="12" fill="#2B2D33"/>
<path d="M16.43 21.44C18.83 21.02 20.83 19.32 21.44 16.29H21.56C22.17 19.32 24.17 21.02 26.57 21.44V21.56C24.17 21.98 22.17 23.68 21.56 26.71H21.44C20.83 23.68 18.83 21.98 16.43 21.56V21.44ZM31 36C31.3 36 31.55 35.75 31.55 35.44C31.55 33.3 33.29 31.56 35.44 31.56C35.75 31.56 36 31.31 36 31C36 30.69 35.75 30.44 35.44 30.44C33.29 30.44 31.55 28.7 31.55 26.56C31.55 26.25 31.3 26 31 26C30.69 26 30.44 26.25 30.44 26.56C30.44 28.7 28.7 30.44 26.55 30.44C26.25 30.44 26 30.69 26 31C26 31.31 26.25 31.56 26.55 31.56C28.7 31.56 30.44 33.3 30.44 35.44C30.44 35.75 30.69 36 31 36ZM21.5 31C22.05 31 22.5 30.55 22.5 30C22.5 25.86 25.86 22.5 30 22.5C30.55 22.5 31 22.05 31 21.5C31 20.95 30.55 20.5 30 20.5C25.86 20.5 22.5 17.14 22.5 13C22.5 12.45 22.05 12 21.5 12C20.95 12 20.5 12.45 20.5 13C20.5 17.14 17.14 20.5 13 20.5C12.45 20.5 12 20.95 12 21.5C12 22.05 12.45 22.5 13 22.5C17.14 22.5 20.5 25.86 20.5 30C20.5 30.55 20.95 31 21.5 31Z" fill="#FEE600"/>
</svg>
