<svg width="48" height="48" viewBox="0 0 48 48" fill="none" xmlns="http://www.w3.org/2000/svg">
<rect width="48" height="48" rx="12" fill="#2B2D33"/>
<path d="M27.79 28.03L28.82 26.53L29.86 28.03L31.6 28.55L30.49 29.99L30.54 31.81L28.82 31.2L27.11 31.81L27.15 29.99L26.05 28.55L27.79 28.03ZM29.73 24.49C29.29 23.85 28.36 23.86 27.92 24.49L26.61 26.39L24.4 27.04C23.66 27.26 23.36 28.15 23.84 28.77L25.25 30.59L25.18 32.9C25.16 33.67 25.92 34.22 26.65 33.96L28.82 33.19L31 33.96C31.72 34.21 32.48 33.67 32.46 32.9L32.4 30.59L33.81 28.77C34.29 28.15 33.99 27.26 33.25 27.04L31.03 26.39L29.73 24.49ZM24.4 25.78V23.57C23.71 23.3 22.98 23.12 22.22 23.04V22.93C24.59 22.54 26.4 20.48 26.4 18C26.4 15.24 24.16 13 21.4 13C18.64 13 16.4 15.24 16.4 18C16.4 20.48 18.21 22.54 20.58 22.93V23.04C17.39 23.36 14.7 25.52 13.67 28.5C13.28 29.63 13.18 30.85 13.08 32.05L13 33H15.01L15.08 32.05C15.17 30.85 15.26 29.71 15.75 28.66C16.81 26.39 18.97 25 21.4 25C22.47 25 23.49 25.27 24.4 25.78ZM18.4 18C18.4 16.34 19.74 15 21.4 15C23.06 15 24.4 16.34 24.4 18C24.4 19.66 23.06 21 21.4 21C19.74 21 18.4 19.66 18.4 18Z" fill="#FEE600"/>
</svg>
