<svg width="48" height="48" viewBox="0 0 48 48" fill="none" xmlns="http://www.w3.org/2000/svg">
<rect width="48" height="48" rx="12" fill="#2B2D33"/>
<g clip-path="url(#clip0_386_17605)">
<path d="M30.13 26.42C29.95 26.15 29.65 26.15 29.47 26.42L28.21 28.26L26.08 28.89C25.76 28.98 25.69 29.26 25.88 29.51L27.23 31.28L27.17 33.5C27.16 33.83 27.44 33.99 27.71 33.89L29.8 33.14L31.9 33.89C32.16 33.98 32.44 33.83 32.43 33.5L32.37 31.28L33.72 29.51C33.91 29.26 33.84 28.98 33.52 28.89L31.39 28.26L30.13 26.42ZM25.4 26.78V24.57C24.71 24.3 23.98 24.12 23.22 24.04V23.93C25.59 23.54 27.4 21.48 27.4 19C27.4 16.24 25.16 14 22.4 14C19.64 14 17.4 16.24 17.4 19C17.4 21.48 19.21 23.54 21.58 23.93V24.04C18.39 24.36 15.7 26.52 14.67 29.5C14.28 30.63 14.18 31.85 14.08 33.05L14 34H16.01L16.08 33.05C16.17 31.85 16.26 30.71 16.75 29.66C17.81 27.39 19.97 26 22.4 26C23.47 26 24.49 26.27 25.4 26.78ZM19.4 19C19.4 17.34 20.74 16 22.4 16C24.06 16 25.4 17.34 25.4 19C25.4 20.66 24.06 22 22.4 22C20.74 22 19.4 20.66 19.4 19Z" fill="#FEE600"/>
</g>
<defs>
<clipPath id="clip0_386_17605">
<rect width="19.82" height="20" fill="white" transform="translate(14 14)"/>
</clipPath>
</defs>
</svg>
