<svg width="48" height="48" viewBox="0 0 48 48" fill="none" xmlns="http://www.w3.org/2000/svg">
<rect width="48" height="48" rx="12" fill="#2B2D33"/>
<path fill-rule="evenodd" clip-rule="evenodd" d="M29.7265 18.7424C29.2425 18.2666 27.9075 17.5455 26.4567 18.4013C24.9205 19.3075 24.8349 20.749 24.9379 21.255C24.9934 21.5283 24.9324 21.8123 24.7695 22.0386C24.6066 22.2649 24.3567 22.4129 24.0799 22.4469C22.1683 22.6818 20.2773 21.9465 18.7707 21.0551C18.0671 20.6389 17.4175 20.1709 16.8509 19.7092C16.9204 20.1261 17.0518 20.4891 17.2125 20.809C17.5983 21.5773 18.1712 22.1406 18.6782 22.6391L18.6871 22.6477C19.002 22.9574 19.0765 23.4369 18.8704 23.8275C18.6643 24.2181 18.2264 24.4272 17.793 24.342L17.7688 24.3373C18.1591 24.69 18.4844 24.839 18.6766 24.8768C19.0405 24.9484 19.3349 25.2155 19.4415 25.5708C19.548 25.926 19.4492 26.3111 19.1847 26.5711C19.0742 26.6798 18.9544 26.7622 18.8339 26.8248C19.5988 27.3312 20.4017 27.7177 20.7857 27.8435C21.1414 27.9601 21.4022 28.2656 21.4616 28.6351C21.521 29.0047 21.369 29.3765 21.0678 29.5986C20.3115 30.1563 19.3848 30.5259 18.4972 30.7715C21.6607 31.4978 25.3269 30.4491 27.7358 28.0807C30.2667 25.5923 30.9205 21.9456 30.9205 20.4758C30.9205 20.2076 31.0282 19.9507 31.2194 19.7627C31.6044 19.3842 31.8129 18.9367 31.9155 18.5187L30.7935 18.9599C30.4261 19.1045 30.008 19.0192 29.7265 18.7424ZM15.7872 25.1496C15.3688 24.6482 14.9698 24.0395 14.6063 23.3248C14.4329 22.9838 14.4692 22.5737 14.6999 22.2685C14.8939 22.0119 15.1966 21.8673 15.5112 21.8716C15.4819 21.8174 15.4532 21.7624 15.4252 21.7065C14.8491 20.5595 14.5662 19.1027 15.0262 17.2936C15.117 16.9364 15.3969 16.6581 15.7547 16.5694C16.1124 16.4807 16.4899 16.596 16.7371 16.8694C17.342 17.5385 18.4598 18.5474 19.7891 19.3338C20.8253 19.9469 21.909 20.3771 22.9338 20.4715C23.0542 19.2691 23.6726 17.7216 25.4405 16.6787C27.5571 15.4301 29.5227 16.1364 30.6025 16.886L32.5499 16.1201C32.817 16.0151 33.1164 16.0299 33.3719 16.1608C33.6274 16.2917 33.8143 16.5261 33.885 16.8043C34.09 17.6106 34.1468 19.4167 32.9095 20.8788C32.808 22.8457 31.9718 26.7207 29.138 29.5069C25.3744 33.2072 18.8578 34.3489 14.4065 31.0665C14.0589 30.8102 13.9151 30.3596 14.05 29.9493C14.185 29.539 14.5681 29.2617 15 29.2617C15.5137 29.2617 16.4135 29.195 17.3653 28.9904C17.6442 28.9305 17.9192 28.8604 18.1844 28.7799C18.0233 28.6825 17.8628 28.581 17.7057 28.4765C17.2637 28.1823 16.8187 27.8449 16.4467 27.484C16.0918 27.1396 15.7213 26.6963 15.5459 26.1791C15.4424 25.8738 15.4924 25.5374 15.6803 25.2754C15.7127 25.2302 15.7485 25.1882 15.7872 25.1496Z" fill="#FEE600"/>
</svg>
