<svg width="48" height="48" viewBox="0 0 48 48" fill="none" xmlns="http://www.w3.org/2000/svg">
<rect width="48" height="48" rx="12" fill="#2B2D33"/>
<path fill-rule="evenodd" clip-rule="evenodd" d="M13.0009 18.0423L13.001 18.0459L13.0015 18.0563L13.0033 18.0906C13.0049 18.1194 13.0073 18.1597 13.0109 18.2108C13.0182 18.3131 13.0301 18.4588 13.0495 18.6416C13.0882 19.0068 13.1567 19.522 13.2762 20.1363C13.5144 21.36 13.9604 23.0028 14.7967 24.6419C15.634 26.283 16.8776 27.9492 18.7215 29.1697C20.5761 30.3975 22.9757 31.1324 26.0434 30.999C26.5783 30.9757 27 30.5353 27 29.9999V29.473V28.9701C27.1749 29.1481 27.3315 29.3276 27.4691 29.4996C27.6892 29.7747 27.8534 30.0213 27.9608 30.1959C28.0144 30.2829 28.0533 30.3512 28.0775 30.3951C28.0897 30.4171 28.0981 30.4329 28.1027 30.4418L28.1069 30.4499C28.2767 30.7874 28.622 30.9999 29 30.9999H34C34.3603 30.9999 34.6927 30.8062 34.8702 30.4926C35.0477 30.1791 35.0429 29.7944 34.8575 29.4854C34.7005 29.2238 34.5539 28.9775 34.4147 28.7437C33.8734 27.8344 32.6647 26.1055 31.3274 24.4316C32.3577 23.054 33.0997 21.6459 33.5994 20.5353C33.8936 19.8817 34.1068 19.3245 34.2473 18.9276C34.3177 18.729 34.37 18.57 34.4053 18.4587C34.423 18.403 34.4364 18.3592 34.4458 18.3282L34.4567 18.2915L34.4599 18.2806L34.4613 18.2757C34.4613 18.2757 34.4615 18.2747 34.4749 18.2225L34.4615 18.2747C34.5477 17.973 34.4873 17.6483 34.2984 17.3978C34.1094 17.1473 33.8138 17 33.5 17H29C28.5537 17 28.1613 17.2958 28.0386 17.7249L28.0374 17.729L28.0306 17.7519C28.0241 17.7734 28.0139 17.8069 27.9998 17.8513C27.9717 17.94 27.9285 18.0715 27.8703 18.2353C27.7535 18.5638 27.5781 19.0167 27.3452 19.5117C27.2389 19.7376 27.1236 19.9655 27 20.1901V18.0006C27 17.4484 26.5523 17 26 17H21C20.6534 17 20.3316 17.1795 20.1493 17.4743C19.9671 17.7691 19.9506 18.1372 20.1056 18.4472L21 20.2361V22.9708C20.9792 22.9479 20.9583 22.9246 20.9373 22.9008C20.1365 21.9932 19.2261 20.4419 18.9959 17.9095C18.9491 17.3944 18.5172 17 18.0001 17H14.0004C13.7283 17 13.4674 17.1109 13.2789 17.3072C13.0903 17.5034 12.9899 17.768 13.0008 18.04L13.0009 18.0423ZM15.1106 19C15.1434 19.2238 15.1855 19.4773 15.2394 19.7542C15.4544 20.8587 15.8521 22.3097 16.5783 23.733C17.3035 25.1544 18.3411 26.5195 19.8254 27.502C21.1179 28.3576 22.7967 28.9552 25 29.0104V27.7079V26.9999C25 26.6534 25.1795 26.3315 25.4743 26.1493C25.7691 25.9671 26 25.9999 26.4472 26.1055C27.1081 26.2616 28.4306 27.4999 29.0309 28.2503C29.2552 28.5306 29.4351 28.7891 29.571 28.9999H32.2373C31.3274 27.7079 30.5 26.4999 29.2929 25.2071C28.9272 24.8414 28.9007 24.2571 29.2318 23.8598C30.4055 22.4513 31.2366 20.9124 31.7756 19.7146C31.8911 19.4579 31.9927 19.2181 32.0809 19H29.7207C29.5884 19.3646 29.4001 19.8421 29.1548 20.3633C28.6363 21.4651 27.8011 22.8991 26.6 23.7999C26.297 24.0272 25.8916 24.0637 25.5528 23.8943C25.214 23.7249 25 23.3787 25 22.9999V19H22.618L22.8944 19.5528C22.9639 19.6916 23 19.8448 23 20V24.9999C23 25.262 22.8973 25.5105 22.7191 25.6949C22.6687 25.747 22.6123 25.794 22.5505 25.8348C22.2699 26.0198 21.915 26.0515 21.6061 25.9191L21.6049 25.9186L21.6036 25.918L21.6008 25.9168L21.5943 25.914L21.5774 25.9064C21.5669 25.9017 21.5542 25.8958 21.5394 25.8888L21.5288 25.8837C21.4901 25.8652 21.4388 25.8396 21.3767 25.8064C21.2525 25.7399 21.0845 25.6424 20.8862 25.5087C20.4897 25.2413 19.97 24.8274 19.4377 24.2241C18.8067 23.509 18.1705 22.5417 17.6981 21.2637C17.4515 20.5966 17.2496 19.8448 17.1165 19L15.1331 19L15.1106 19Z" fill="#FEE600"/>
</svg>
