<svg width="48" height="48" viewBox="0 0 48 48" fill="none" xmlns="http://www.w3.org/2000/svg">
<rect width="48" height="48" rx="12" fill="#2B2D33"/>
<path d="M24.93 28H24.26C21.78 28 20.14 27.96 18.8 28.88C17.51 29.77 16.91 31.34 16.02 33.58L16 33.63L17.86 34.37C18.56 32.62 19.08 31.12 19.94 30.53C20.79 29.96 22.18 30 24.31 30H24.93V28ZM26.93 24.47H26.81C26.81 25.46 26.17 26 24.93 26C22.72 26 20.93 24.21 20.93 22V20H22.93V22C22.93 23.1 23.83 24 24.93 24C26.07 24 26.93 22.96 26.93 21.58C24.84 21 23.93 19.59 23.93 17H25.93C25.93 18.8 26.93 20 28.93 20V31C28.93 31.55 29.38 32 29.93 32H30.93V21C30.93 17.63 28.29 15 24.93 15C21.56 15 18.93 17.63 18.93 21V27H16.93V21C16.93 16.53 20.46 13 24.93 13C29.39 13 32.93 16.53 32.93 21V34H29.93C28.27 34 26.93 32.66 26.93 31V24.47Z" fill="#FEE600"/>
</svg>
