<svg width="48" height="48" viewBox="0 0 48 48" fill="none" xmlns="http://www.w3.org/2000/svg">
<rect width="48" height="48" rx="12" fill="#2B2D33"/>
<path fill-rule="evenodd" clip-rule="evenodd" d="M21.5996 27.9C21.7996 28 21.8996 28 22.0996 28C22.1996 28 22.3996 28 22.5996 27.9L27.7996 24.9C28.0996 24.7 28.2996 24.4 28.2996 24C28.2996 23.6 28.0996 23.3 27.7996 23.1L22.5996 20.1C22.2996 19.9 21.8996 19.9 21.5996 20.1C21.2996 20.3 21.0996 20.6 21.0996 21V27C21.0996 27.4 21.2996 27.7 21.5996 27.9ZM25.2996 24L23.0996 25.3V22.7L25.2996 24Z" fill="#FEE600"/>
<path fill-rule="evenodd" clip-rule="evenodd" d="M14 24C14 30.7 15.1 31 24 31C32.9 31 34 30.7 34 24C34 17.3 32.9 17 24 17C15.1 17 14 17.3 14 24ZM16.8 19.6C17.7 19 20.2 19 24 19C27.8 19 30.3 19 31.2 19.6C31.9 20.1 32 21.1 32 24C32 26.9 31.9 27.9 31.2 28.4C30.3 29 27.8 29 24 29C20.2 29 17.7 29 16.8 28.4C16.1 27.9 16 26.9 16 24C16 21.1 16.1 20.1 16.8 19.6Z" fill="#FEE600"/>
</svg>
