<svg width="24" height="24" viewBox="0 0 24 24" fill="none" xmlns="http://www.w3.org/2000/svg">
<path d="M5.93999 17.81V3.95001H17.94V16.93C14.94 16.95 17.94 5.95 11.44 5.95C8.93999 5.95 7.93999 7.95 7.93999 10.95C7.93999 13.95 8.43999 15.59 8.43999 15.59C6.93999 15.95 6.21999 17.25 5.93999 17.81ZM11.44 14.09C9.93999 14.09 9.93999 13.09 9.93999 11.09C9.93999 9.09 9.93999 8.09 11.44 8.09C12.94 8.09 13.65 9.09 13.65 11.09C13.65 12.75 12.94 14.09 11.44 14.09ZM9.69999 18.95C8.48999 18.9 8.17999 17.72 10.44 16.95C10.44 16.95 10.45 16.26 10.44 16.07C11.44 16.45 13.44 16.23 14.52 14.49L14.69 14.61C14.27 15.25 13.85 15.95 14.38 16.92L14.94 17.95C14.94 17.95 13.94 17.95 13.44 18.95H9.69999ZM3.43999 22.45C4.43999 23.45 5.64999 22.53 5.85999 21.95H18.03C18.23 22.53 19.44 23.45 20.44 22.45C21.44 21.45 20.52 20.24 19.94 20.03V3.86C20.52 3.65 21.44 2.45001 20.44 1.45C19.44 0.450005 18.23 1.36001 18.03 1.95H5.85999C5.64999 1.36001 4.43999 0.450005 3.43999 1.45C2.43999 2.45001 3.35999 3.65 3.93999 3.86V20.03C3.35999 20.24 2.43999 21.45 3.43999 22.45Z" fill="white"/>
</svg>
