<svg width="24" height="24" viewBox="0 0 24 24" fill="none" xmlns="http://www.w3.org/2000/svg">
<path d="M20.28 8.71L17.98 10.24L15.21 7.47L16.78 5.11L15.12 4L11.5 9.43C11.09 10.04 11.06 10.34 11.35 10.93L11.27 11.05C10.76 10.85 10.23 10.71 9.69 10.71C7.24 10.71 6.05 12.53 5.25 14.96C4.89 16.06 4.56 17.09 3.63 18.16C3.29 18.55 3 18.89 3 19.26C3 19.72 3.32 20.09 3.95 20.3C5.01 20.65 6.11 20.8 7.17 20.8C10.67 20.8 14.55 18.84 14.55 15.58C14.55 15.13 14.45 14.69 14.3 14.25L14.46 14.14C14.97 14.48 15.3 14.42 16.03 13.94L21.39 10.37L20.28 8.71ZM7.17 18.8C6.7 18.8 6.23 18.79 5.46 18.71C6.62 17.72 6.96 16.47 7.23 15.56C7.67 14.01 8.21 12.71 9.69 12.71C11.15 12.71 12.55 14.14 12.55 15.58C12.55 17.6 9.5 18.8 7.17 18.8ZM13.73 13.08C13.37 12.54 12.92 12.07 12.4 11.68L14.07 9.17L16.27 11.38L13.73 13.08Z" fill="white"/>
</svg>
