<svg width="24" height="24" viewBox="0 0 24 24" fill="none" xmlns="http://www.w3.org/2000/svg">
<path d="M19 11.12C19 11.7 19.07 11.89 19.5 12.3L19.43 12.39C18.57 11.88 17.14 11.94 16.23 12.18C15.26 12.43 14.4 12.9 13.81 13.53C13.22 14.16 12.81 15.06 13.09 16.02C13.37 16.97 14.17 17.53 14.98 17.79C15.81 18.06 16.8 18.07 17.77 17.82C18.74 17.57 19.6 17.1 20.19 16.47C20.67 15.95 21 15.26 21 14.5V3C21 2.67 20.84 2.36 20.56 2.17C20.29 1.99 19.94 1.95 19.63 2.07L9.62998 6.07C9.24998 6.22 8.99998 6.59 8.99998 7V15.12C8.99998 15.7 9.06998 15.89 9.49998 16.3L9.42998 16.39C8.56998 15.88 7.13998 15.94 6.22998 16.18C5.25998 16.43 4.39998 16.9 3.80998 17.53C3.21998 18.16 2.80998 19.06 3.08998 20.02C3.36998 20.97 4.16998 21.53 4.97998 21.79C5.80998 22.06 6.79998 22.07 7.76998 21.82C8.73998 21.57 9.59998 21.1 10.19 20.47C10.67 19.95 11 19.26 11 18.5V11.68L19 8.48V11.12ZM11 9.52V7.68L19 4.48V6.32L11 9.52ZM15.59 15.89C15.14 15.75 15.04 15.55 15.01 15.47C14.99 15.41 14.98 15.21 15.27 14.9C15.56 14.59 16.06 14.28 16.72 14.11C17.38 13.94 17.98 13.98 18.41 14.11C18.86 14.25 18.96 14.45 18.99 14.53C19.01 14.59 19.02 14.79 18.73 15.1C18.44 15.41 17.94 15.72 17.28 15.89C16.62 16.06 16.02 16.02 15.59 15.89ZM5.58998 19.89C5.13998 19.75 5.03998 19.55 5.00998 19.47C4.98998 19.41 4.97998 19.21 5.26998 18.9C5.55998 18.59 6.05998 18.28 6.71998 18.11C7.37998 17.94 7.97998 17.98 8.40998 18.11C8.85998 18.25 8.95998 18.45 8.98998 18.53C9.00998 18.59 9.01998 18.79 8.72998 19.1C8.43998 19.41 7.93998 19.72 7.27998 19.89C6.61998 20.06 6.01998 20.02 5.58998 19.89Z" fill="white"/>
</svg>
