<svg width="24" height="24" viewBox="0 0 24 24" fill="none" xmlns="http://www.w3.org/2000/svg">
<path d="M4.11002 10.55C3.94002 10.89 3.97002 11.3 4.20002 11.6C6.80002 15 7.00002 16.48 7.00002 21C7.00002 21.55 7.45002 22 8.00002 22H11.48C12.32 22 13 21.32 13 20.48H13.12C13.12 21.32 13.8 22 14.64 22H16C16.55 22 17 21.55 17 21C17 16.51 17.22 14.97 19.8 11.6C20.03 11.3 20.07 10.89 19.9 10.55L17 4.76V2H15V5C15 5.16 15.04 5.31 15.11 5.45L17.83 10.9C15.46 14.22 15.08 15.95 15.01 20H13V13.73C13.6 13.39 14 12.74 14 12C14 10.9 13.11 10 12 10C10.9 10 10 10.9 10 12C10 12.74 10.4 13.39 11 13.73V20H9.00002C8.97002 16.05 8.47002 14.11 6.17002 10.9L8.90002 5.45C8.97002 5.31 9.00002 5.16 9.00002 5V2H7.00002V4.76L4.11002 10.55Z" fill="white"/>
</svg>
