<svg width="24" height="24" viewBox="0 0 24 24" fill="none" xmlns="http://www.w3.org/2000/svg">
<path d="M19 18V13.6C19 12.81 18.62 12.22 17.8 12.11V12H21V10H13V8C13 7.45 12.55 7 12 7C11.45 7 11 7.45 11 8V10H3V12H5V18H7V13.6C7 12.81 6.62 12.22 5.8 12.11V12H9V18H11V13.6C11 12.81 10.62 12.22 9.8 12.11V12H13V18H15V13.6C15 12.81 14.62 12.22 13.8 12.11V12H17V18H19ZM21 22V20H3V22H21ZM19.65 7.94L12 5.07L4.35 7.94C3.73 8.17 3 7.73 3 7V5C3 4.45 3.45 4 4 4C4.55 4 5 4.45 5 5V5.56L11.65 3.06C11.88 2.98 12.13 2.98 12.35 3.06L19 5.56V5C19 4.45 19.45 4 20 4C20.55 4 21 4.45 21 5V7C21 7.7 20.31 8.17 19.65 7.94Z" fill="white"/>
</svg>
