<svg width="24" height="24" viewBox="0 0 24 24" fill="none" xmlns="http://www.w3.org/2000/svg">
<path d="M9 19V21H15V19H9Z" fill="white"/>
<path d="M7 19H3V21H7V19Z" fill="white"/>
<path d="M2 3V5H3V17H5V15C6.19 15.07 7 15.66 7 17H9C9 15.76 8.55 14.63 7.62 13.91C8.94 12.76 9.68 10.99 9.92 8.66C10.48 8.85 11.17 9 12 9C12.83 9 13.52 8.85 14.08 8.66C14.32 10.99 15.06 12.76 16.38 13.91C15.45 14.63 15 15.76 15 17H17C17 15.66 17.81 15.07 19 15V17H21V5H22V3H2ZM19.89 13.13C16.83 13.1 16 10.13 16 7C16 6.6 15.76 6.23 15.38 6.08C15.01 5.92 14.59 6 14.3 6.28V6.29C14.28 6.3 14.25 6.33 14.21 6.36C14.13 6.42 13.99 6.51 13.8 6.61C13.43 6.79 12.83 7 12 7C11.17 7 10.57 6.79 10.2 6.61C10.01 6.51 9.87 6.42 9.79 6.36C9.75 6.33 9.72 6.3 9.7 6.29V6.28C9.41 6 8.99 5.92 8.62 6.08C8.24 6.23 8 6.6 8 7C8 10.13 7.17 13.1 4.11 13.13V13.01C4.77 12.82 5 12.39 5 11.67V5H19V11.67C19 12.39 19.23 12.82 19.89 13.01V13.13Z" fill="white"/>
<path d="M21 19H17V21H21V19Z" fill="white"/>
</svg>
