<svg width="48" height="48" viewBox="0 0 48 48" fill="none" xmlns="http://www.w3.org/2000/svg">
<rect width="48" height="48" rx="12" fill="#2B2D33"/>
<path d="M32.49 22.84L31.12 22.5L32.45 21.36L33.29 22.21L34.71 20.79L33.21 19.29C32.84 18.92 32.25 18.9 31.85 19.24L29.32 21.41L27.17 17.11C26.83 16.43 26.14 16 25.38 16H18.66C17.86 16 17.14 16.48 16.82 17.21L14.16 23.42C14.06 23.67 14 23.93 14 24.21V28C14 28.87 14.45 29.52 15.13 29.82C15.49 31.07 16.64 32 18 32C19.3 32 20.4 31.16 20.81 30H27.18C27.6 31.16 28.7 32 29.99 32C31.35 32 32.5 31.07 32.86 29.82C33.55 29.52 34 28.87 34 28V24.78C34 23.76 33.47 23.08 32.49 22.84ZM24 18H25.38L27.38 22H24V18ZM18.66 18H22V22H16.95L18.66 18ZM18 30C17.45 30 17 29.55 17 29C17 28.45 17.45 28 18 28C18.55 28 19 28.45 19 29C19 29.55 18.55 30 18 30ZM27.19 28H20.81C20.4 26.84 19.3 26 18 26C16.89 26 15.93 26.62 15.41 27.51L15.3 27.45C15.58 26.96 16 26.38 16 25.63V24H28.55C29.01 24 29.12 24.02 29.38 24.09L32 24.78V25.63C32 26.38 32.42 26.96 32.7 27.45L32.59 27.51C32.07 26.62 31.11 26 30 26C28.7 26 27.6 26.84 27.19 28ZM30 30C29.45 30 29 29.55 29 29C29 28.45 29.45 28 30 28C30.55 28 31 28.45 31 29C31 29.55 30.55 30 30 30Z" fill="white"/>
</svg>
