<svg width="48" height="48" viewBox="0 0 48 48" fill="none" xmlns="http://www.w3.org/2000/svg">
<rect width="48" height="48" rx="12" fill="#2B2D33"/>
<path d="M33 23C32.82 22.8 32.64 22.63 32.49 22.5C32.44 21.68 32.3 20.25 31.98 18.9C31.78 18.05 31.51 17.16 31.11 16.46C30.73 15.8 30.07 15 29 15H19C17.93 15 17.27 15.8 16.89 16.46C16.49 17.16 16.22 18.05 16.02 18.9C15.71 20.25 15.56 21.68 15.51 22.5C15.36 22.63 15.18 22.8 15 23C14.57 23.48 14 24.3 14 25.33V32C14 32.55 14.44 33 15 33H19C19.55 33 20 32.55 20 32V31H28V32C28 32.55 28.45 33 29 33H33C33.56 33 34 32.55 34 32V25.33C34 24.3 33.43 23.48 33 23ZM17.97 19.35C18.15 18.57 18.37 17.9 18.63 17.45C18.76 17.22 18.87 17.1 18.94 17.04C18.98 17.01 18.99 17 19 17H29C29.01 17 29.02 17.01 29.06 17.04C29.13 17.1 29.24 17.22 29.37 17.45C29.63 17.9 29.85 18.57 30.03 19.35C30.25 20.29 30.37 21.27 30.44 22H17.56C17.63 21.27 17.75 20.29 17.97 19.35ZM28.64 27.47C28.81 27.99 29.38 28.28 29.9 28.1L31.06 27.7C31.5 27.55 31.86 27.1 31.88 26.29H32V31H30V29H18V31H16V26.29H16.12C16.14 27.1 16.5 27.55 16.94 27.7L18.1 28.1C18.62 28.28 19.19 27.99 19.36 27.47C19.53 26.94 19.26 26.38 18.73 26.2L16 25.28C16.02 24.99 16.19 24.66 16.49 24.34C16.61 24.2 16.73 24.09 16.84 24H31.16C31.27 24.09 31.39 24.2 31.51 24.34C31.8 24.67 31.98 24.99 32 25.28L29.27 26.2C28.74 26.38 28.47 26.94 28.64 27.47Z" fill="white"/>
</svg>
