<svg width="48" height="48" viewBox="0 0 48 48" fill="none" xmlns="http://www.w3.org/2000/svg">
<rect width="48" height="48" rx="12" fill="#2B2D33"/>
<path d="M23 29H22.88C22.69 29.67 22.29 30 21.59 30H20C20 30.55 19.55 31 19 31H15C14.45 31 14 30.55 14 30V25.02C14 25 14 24.99 14 24.97C14.01 24.18 14.39 23.49 14.67 23.07C14.8 22.88 14.92 22.72 15.03 22.59C15.06 22.29 15.12 21.94 15.19 21.59C15.31 21.04 15.48 20.41 15.68 19.81C15.87 19.22 16.12 18.61 16.41 18.13C16.55 17.89 16.73 17.64 16.96 17.43C17.18 17.23 17.53 17 18 17H23V15H26.2C26.59 15 26.94 15.22 27.1 15.57L27.88 17.18L29.49 16.65C29.85 16.53 30.24 16.62 30.51 16.89L32.11 18.49C32.38 18.76 32.47 19.16 32.35 19.52L31.82 21.09L33.45 21.91C33.79 22.07 34 22.42 34 22.8V25.2C34 25.58 33.78 25.93 33.43 26.1L31.82 26.88L32.35 28.49C32.47 28.85 32.37 29.24 32.11 29.51L30.51 31.11C30.24 31.37 29.85 31.47 29.49 31.35L27.88 30.82L27.1 32.43C26.94 32.78 26.59 33 26.2 33H23V29ZM25 25C25.55 25 26 24.55 26 24C26 23.45 25.55 23 25 23V25ZM21.59 24H16.46C16.42 24.05 16.38 24.11 16.33 24.18C16.27 24.28 16.21 24.37 16.17 24.46L17.45 25.11C17.94 25.35 18.14 25.95 17.9 26.45C17.65 26.94 17.05 27.14 16.55 26.89L16 26.62V29H18V28H23V23H22.88C22.69 23.67 22.29 24 21.59 24ZM23 18H22.88C22.69 18.67 22.29 19 21.59 19H18.23C18.2 19.04 18.16 19.09 18.12 19.16C17.94 19.46 17.75 19.91 17.57 20.44C17.4 20.96 17.25 21.52 17.15 22H23V18ZM25.57 17H25V21C26.66 21 28 22.34 28 24C28 25.66 26.66 27 25 27V31H25.57L26.07 29.96C26.51 29.05 27.55 28.61 28.5 28.92L29.53 29.26L30.26 28.53L29.92 27.5C29.61 26.54 30.05 25.51 30.96 25.07L32 24.57V23.42L30.93 22.88C30.04 22.44 29.61 21.41 29.93 20.46L30.26 19.47L29.53 18.74L28.5 19.08C27.55 19.39 26.51 18.95 26.07 18.04L25.57 17Z" fill="white"/>
</svg>
