<svg width="48" height="48" viewBox="0 0 48 48" fill="none" xmlns="http://www.w3.org/2000/svg">
<rect width="48" height="48" rx="12" fill="#2B2D33"/>
<path d="M24 14C18.48 14 14 18.48 14 24C14 29.52 18.48 34 24 34C29.52 34 34 29.52 34 24C34 18.48 29.52 14 24 14ZM24 16C28.42 16 32 19.58 32 24C32 24.06 31.99 24.12 31.99 24.18H31.89C31.76 23.45 31.39 23 30.53 23H28.39C28.35 23 28.34 22.95 28.31 22.93C28.07 22.72 27.72 22.45 27.31 22.17C26.51 21.63 25.3 21 24 21C22.7 21 21.5 21.63 20.7 22.17C20.28 22.45 19.94 22.72 19.69 22.93C19.66 22.95 19.65 23 19.61 23H17.47C16.61 23 16.24 23.45 16.11 24.18H16.01C16.01 24.12 16 24.06 16 24C16 19.58 19.58 16 24 16ZM26.6 24.12L25.03 26H22.97L21.4 24.12C21.52 24.03 21.66 23.93 21.81 23.83C22.51 23.37 23.3 23 24 23C24.7 23 25.5 23.37 26.2 23.83C26.34 23.93 26.48 24.03 26.6 24.12ZM16.07 25H19.53L21.73 27.64C21.92 27.87 22.2 28 22.5 28H23V31.93C19.38 31.48 16.52 28.62 16.07 25ZM25 31.93V28H25.5C25.8 28 26.08 27.87 26.27 27.64L28.47 25H31.93C31.48 28.62 28.62 31.48 25 31.93Z" fill="white"/>
</svg>
