<svg width="48" height="48" viewBox="0 0 48 48" fill="none" xmlns="http://www.w3.org/2000/svg">
<rect width="48" height="48" rx="12" fill="#2B2D33"/>
<path d="M27 19C28.07 19 29 18.07 29 17C29 15.93 28.07 15 27 15C25.94 15 25 15.93 25 17C25 18.07 25.94 19 27 19ZM33 25C34.07 25 35 24.07 35 23C35 21.93 34.07 21 33 21C31.94 21 31 21.93 31 23C31 24.07 31.94 25 33 25ZM26.4 25.01L35 16.42L33.6 15.02L25 23.61L26.4 25.01ZM19 15.49C17.93 15.49 17.27 16.29 16.89 16.95C16.49 17.65 16.22 18.54 16.02 19.39C15.71 20.74 15.56 22.17 15.51 22.99C15.36 23.12 15.18 23.29 15 23.49C14.57 23.97 14 24.79 14 25.82V32.49C14 33.04 14.44 33.49 15 33.49H19C19.55 33.49 20 33.04 20 32.49V31.49H28V32.49C28 33.04 28.44 33.49 29 33.49H33C33.55 33.49 34 33.04 34 32.49V26.82H32V31.49H30V29.49H18V31.49H16V26.78H16.12C16.14 27.59 16.5 28.04 16.94 28.19L18.1 28.59C18.62 28.77 19.19 28.48 19.36 27.96C19.53 27.43 19.26 26.87 18.73 26.69L16 25.77C16.02 25.48 16.19 25.15 16.49 24.83C16.61 24.69 16.73 24.58 16.84 24.49H23V22.49H17.56C17.63 21.76 17.75 20.78 17.97 19.84C18.15 19.06 18.37 18.39 18.63 17.94C18.76 17.71 18.87 17.59 18.94 17.53C18.98 17.5 18.99 17.49 19 17.49H23V15.49H19Z" fill="white"/>
</svg>
