<svg width="48" height="48" viewBox="0 0 48 48" fill="none" xmlns="http://www.w3.org/2000/svg">
<rect width="48" height="48" rx="12" fill="#2B2D33"/>
<path d="M24.71 18.79C24.32 18.4 23.68 18.4 23.29 18.79L19.79 22.29C19.4 22.68 19.4 23.32 19.79 23.71L23 26.91V32H25V26.5C25 26.23 24.9 25.98 24.71 25.79L21.05 22.13L21.13 22.05C21.66 22.49 22.51 22.41 22.97 21.95L24 20.91L27.79 24.71L29.21 23.29L24.71 18.79ZM29 29C29 27.9 29.9 27 31 27C32.11 27 33 27.9 33 29C33 30.1 32.11 31 31 31C29.9 31 29 30.1 29 29ZM31 25C28.79 25 27 26.79 27 29C27 31.21 28.79 33 31 33C33.21 33 35 31.21 35 29C35 26.79 33.21 25 31 25ZM15 29C15 27.9 15.9 27 17 27C18.11 27 19 27.9 19 29C19 30.1 18.11 31 17 31C15.9 31 15 30.1 15 29ZM17 25C14.79 25 13 26.79 13 29C13 31.21 14.79 33 17 33C19.21 33 21 31.21 21 29C21 26.79 19.21 25 17 25ZM30 17C30 18.1 29.11 19 28 19C26.9 19 26 18.1 26 17C26 15.9 26.9 15 28 15C29.11 15 30 15.9 30 17Z" fill="white"/>
</svg>
