<svg width="48" height="48" viewBox="0 0 48 48" fill="none" xmlns="http://www.w3.org/2000/svg">
<rect width="48" height="48" rx="12" fill="#2B2D33"/>
<path d="M24 22C22.08 22 20.4 21.76 19.2 21.52C18.71 21.42 18.31 21.33 18 21.25V16H22C22.55 16 23 15.55 23 15H25C25 15.55 25.45 16 26 16H30V21.25C29.69 21.33 29.29 21.42 28.8 21.52C27.6 21.76 25.92 22 24 22ZM27 28.2C27.66 28.2 28.2 27.66 28.2 27C28.2 26.34 27.66 25.8 27 25.8C26.34 25.8 25.8 26.34 25.8 27C25.8 27.66 26.34 28.2 27 28.2ZM19 30C18.45 30 18 29.55 18 29V23.31C18.24 23.36 18.51 23.42 18.8 23.48C20.1 23.74 21.92 24 24 24C26.08 24 27.9 23.74 29.2 23.48C29.49 23.42 29.76 23.36 30 23.31V29C30 29.55 29.55 30 29 30H19ZM21 28.2C21.66 28.2 22.2 27.66 22.2 27C22.2 26.34 21.66 25.8 21 25.8C20.34 25.8 19.8 26.34 19.8 27C19.8 27.66 20.34 28.2 21 28.2ZM16 35H18.5L21.13 32H26.87L29.5 35H32L30.3 33.06C29.7 32.37 29.28 32.23 28.23 32.12V32H29.05C30.67 32 32 30.65 32 29V16C32 14.9 31.11 14 30 14H27C27 13.45 26.55 13 26 13H22C21.45 13 21 13.45 21 14H18C16.9 14 16 14.9 16 16V29C16 30.65 17.33 31.97 18.95 32H19.77V32.12C18.72 32.23 18.3 32.37 17.7 33.06L16 35Z" fill="white"/>
</svg>
