<svg width="48" height="48" viewBox="0 0 48 48" fill="none" xmlns="http://www.w3.org/2000/svg">
<rect width="48" height="48" rx="12" fill="#FEE600"/>
<path d="M29.5898 29.15L24.4298 24L28.3798 20.05L28.4598 20.14C27.8898 20.76 27.9098 21.4 28.3598 22.1C29.3698 23.68 29.8798 25.47 29.8298 27.28C29.8098 27.96 29.7298 28.6 29.5898 29.15ZM23.0198 22.59L17.8598 17.43C18.4398 17.29 19.0798 17.21 19.7298 17.19C21.9998 17.13 24.1998 17.94 26.0698 19.53L23.0198 22.59ZM18.4498 31.15L17.9698 29.68C17.8698 29.39 17.6298 29.15 17.3298 29.05L15.8698 28.56L17.4298 27H20.0198V29.59L18.4498 31.15ZM18.7198 33.71L21.7198 30.71C21.9098 30.52 22.0198 30.26 22.0198 30V26.41L23.8998 24.53L23.9898 24.61C23.4798 25.29 23.5498 25.95 24.1098 26.51L31.3098 33.71L32.7198 32.29L31.1898 30.76C31.2498 30.62 31.2998 30.45 31.3598 30.26C31.6398 29.35 31.7998 28.34 31.8298 27.34C31.9098 24.53 30.8898 21.8 28.9098 19.52L32.0198 16.41V19H34.0198V14C34.0198 13.45 33.5698 13 33.0198 13H28.0198V15H30.5998L27.4898 18.11C25.2098 16.12 22.4798 15.1 19.6798 15.19C18.6898 15.21 17.6698 15.37 16.7498 15.66C16.5698 15.72 16.3998 15.77 16.2498 15.82L14.7198 14.29L13.3098 15.71L21.5998 24L20.5998 25H17.0198C16.7498 25 16.4998 25.1 16.3098 25.29L13.3098 28.29C12.7598 28.84 12.9598 29.7 13.6998 29.95L16.2298 30.79L17.0698 33.32C17.3098 34.03 18.1898 34.24 18.7198 33.71Z" fill="#2B2D33"/>
</svg>
