<svg width="48" height="48" viewBox="0 0 48 48" fill="none" xmlns="http://www.w3.org/2000/svg">
<rect width="48" height="48" rx="12" fill="#FEE600"/>
<path d="M26.05 25C26.15 25.97 26.38 26.92 26.76 27.83C27.61 29.87 28.23 30.26 29.26 29.89L29.34 29.98C28 31.1 26.66 31.71 25 31.94V25H26.05ZM21.95 25H23V31.94C21.34 31.71 20 31.1 18.66 29.98L18.74 29.89C19.77 30.26 20.39 29.87 21.24 27.83C21.62 26.92 21.85 25.97 21.95 25ZM26.05 23H25V16.06C26.66 16.29 28 16.9 29.34 18.02L29.26 18.11C28.23 17.74 27.61 18.13 26.76 20.17C26.38 21.08 26.15 22.03 26.05 23ZM28.06 23C28.15 22.29 28.34 21.6 28.61 20.94C28.95 20.12 29.42 19.37 30 18.71C31.04 19.88 31.74 21.37 31.94 23H28.06ZM30 29.29C29.42 28.63 28.95 27.88 28.61 27.06C28.34 26.4 28.15 25.71 28.06 25H31.94C31.74 26.63 31.04 28.12 30 29.29ZM21.95 23C21.85 22.03 21.62 21.08 21.24 20.17C20.39 18.13 19.77 17.74 18.74 18.11L18.66 18.02C20 16.9 21.34 16.29 23 16.06V23H21.95ZM16.06 23C16.27 21.37 16.96 19.88 18 18.71C18.58 19.37 19.05 20.12 19.39 20.94C19.67 21.6 19.85 22.29 19.94 23H16.06ZM18 29.29C16.96 28.12 16.27 26.63 16.06 25H19.94C19.85 25.71 19.67 26.4 19.39 27.06C19.05 27.88 18.58 28.63 18 29.29ZM24 34C29.52 34 34 29.52 34 24C34 18.48 29.52 14 24 14C18.48 14 14 18.48 14 24C14 29.52 18.48 34 24 34Z" fill="#2B2D33"/>
</svg>
