<svg width="48" height="48" viewBox="0 0 48 48" fill="none" xmlns="http://www.w3.org/2000/svg">
<rect width="48" height="48" rx="12" fill="#FEE600"/>
<path d="M34 17H31L30.99 16C30.99 15.45 30.55 15 30 15H18C17.45 15 17 15.45 17 16V17H14C13.45 17 13 17.45 13 18V18.1C13 20.22 13.85 22.25 15.35 23.76L17.91 26.32C18.22 27.1 18.6 27.85 19.04 28.54C20.01 30.06 21.39 31.45 23 31.87V33H19V35H29V33H25V31.87C26.61 31.45 27.99 30.06 28.97 28.54C29.41 27.86 29.79 27.11 30.1 26.33L32.66 23.76C34.16 22.25 35 20.22 35 18.1V18C35 17.45 34.55 17 34 17ZM17.22 24.59C16.84 22.97 16.67 22.37 16.09 21.54C15.56 20.78 15.21 19.91 15.07 19H17V22C17 22.82 17.12 23.69 17.34 24.56L17.22 24.59ZM29 22C29 23.78 28.32 25.84 27.29 27.46C26.21 29.14 24.97 30 24 30C23.03 30 21.8 29.14 20.72 27.46C19.68 25.84 19 23.78 19 22V17H29V22ZM31.92 21.54C31.34 22.37 31.17 22.97 30.79 24.59L30.67 24.56C30.88 23.69 31 22.82 31 22V19H32.94C32.8 19.91 32.45 20.78 31.92 21.54Z" fill="#2B2D33"/>
<path d="M22.2 22.73C22.36 22.86 22.43 23.08 22.37 23.28L21.99 24.51C21.85 24.97 22.39 25.35 22.77 25.05L23.7 24.34C23.88 24.21 24.13 24.21 24.31 24.34L25.23 25.05C25.62 25.35 26.16 24.97 26.01 24.51L25.63 23.28C25.57 23.08 25.64 22.86 25.81 22.73L26.83 21.95C27.21 21.66 27 21.06 26.52 21.06H25.31C25.1 21.06 24.9 20.91 24.84 20.7L24.48 19.55C24.33 19.08 23.67 19.08 23.52 19.55L23.17 20.7C23.1 20.91 22.91 21.06 22.69 21.06H21.48C21 21.06 20.8 21.66 21.18 21.95L22.2 22.73Z" fill="#2B2D33"/>
</svg>
