<svg width="48" height="48" viewBox="0 0 48 48" fill="none" xmlns="http://www.w3.org/2000/svg">
<rect width="48" height="48" rx="12" fill="#FEE600"/>
<path d="M27.3 20.62C27.75 20.09 28 19.6 28 18.9V17.41L29.56 15.85L30.05 17.32C30.16 17.66 30.33 17.83 30.68 17.95L32.15 18.44L30.58 20H29.12C28.41 20 27.92 20.25 27.38 20.7L27.3 20.62ZM22.5 24C22.5 24.83 23.17 25.5 24 25.5C24.83 25.5 25.5 24.83 25.5 24C25.5 23.97 25.5 23.94 25.49 23.92L27.41 22H30.9C31.3 22 31.48 21.93 31.75 21.66L34.6 18.81C35.27 18.14 35.04 17.29 34.31 17.05L31.79 16.21L30.95 13.68C30.71 12.97 29.85 12.73 29.19 13.39L26.34 16.24C26.1 16.48 26 16.71 26 17.1V20.59L24.08 22.5H24C23.17 22.5 22.5 23.17 22.5 24ZM18 24C18 27.32 20.69 30 24 30C27.32 30 30 27.32 30 24H28C28 26.21 26.21 28 24 28C21.79 28 20 26.21 20 24C20 21.79 21.79 20 24 20V18C20.69 18 18 20.68 18 24ZM14 24C14 29.52 18.48 34 24 34C29.52 34 34 29.52 34 24H32C32 28.42 28.42 32 24 32C19.58 32 16 28.42 16 24C16 19.58 19.58 16 24 16V14C18.48 14 14 18.48 14 24Z" fill="#2B2D33"/>
</svg>
