<svg width="48" height="48" viewBox="0 0 48 48" fill="none" xmlns="http://www.w3.org/2000/svg">
<rect width="48" height="48" rx="12" fill="#FEE600"/>
<path d="M15.06 23C15.52 18.83 18.83 15.52 23 15.05V13H25V15.05C29.17 15.52 32.49 18.83 32.95 23H35V25H32.95C32.49 29.17 29.17 32.48 25 32.95V35H23V32.95C18.83 32.48 15.52 29.17 15.06 25H13V23H15.06ZM25 19H23V17.07C20.41 17.44 18.29 19.22 17.42 21.6C17.08 22.55 16.74 22.88 16.07 22.88V23H19V25H17.07C17.44 27.59 19.22 29.71 21.6 30.58C22.55 30.92 22.88 31.26 22.88 31.93H23V29H25V30.93C27.59 30.56 29.71 28.78 30.58 26.4C30.92 25.45 31.26 25.12 31.93 25.12V25H29V23H30.93C30.56 20.41 28.78 18.29 26.4 17.42C25.45 17.08 25.12 16.74 25.12 16.07H25V19ZM24 25.5C24.83 25.5 25.5 24.83 25.5 24C25.5 23.17 24.83 22.5 24 22.5C23.17 22.5 22.5 23.17 22.5 24C22.5 24.83 23.17 25.5 24 25.5Z" fill="#2B2D33"/>
</svg>
