<svg width="48" height="48" viewBox="0 0 48 48" fill="none" xmlns="http://www.w3.org/2000/svg">
<rect width="48" height="48" rx="12" fill="#FEE600"/>
<path d="M31.68 17.01C29.96 15.29 27.57 14.61 25.18 14.93C25.02 14.66 24.83 14.41 24.6 14.18C23.04 12.61 20.51 12.61 18.95 14.18C17.59 15.54 17.42 17.64 18.43 19.19C16.32 22.3 16.24 26.24 18.3 28.97L14 33.27L15.41 34.68L19.71 30.38C22.89 32.77 27.72 32.27 30.97 29.03C34.48 25.51 34.79 20.12 31.68 17.01ZM20.36 15.59C21.14 14.81 22.41 14.81 23.19 15.59C23.97 16.37 23.97 17.64 23.19 18.42C22.41 19.2 21.14 19.2 20.36 18.42C19.58 17.64 19.58 16.37 20.36 15.59ZM29.55 27.61C26.82 30.35 22.7 30.66 20.36 28.32C18.75 26.7 18.39 24.25 19.22 22C19.54 21.11 19.63 20.68 18.86 19.92L18.95 19.83C20.51 21.4 23.04 21.4 24.6 19.83C25.74 18.7 26.04 17.05 25.52 15.64L25.65 15.61C26.07 16.57 26.42 16.81 27.2 16.91C28.35 17.08 29.42 17.58 30.26 18.42C32.6 20.76 32.29 24.88 29.55 27.61Z" fill="#2B2D33"/>
</svg>
