<svg width="48" height="48" viewBox="0 0 48 48" fill="none" xmlns="http://www.w3.org/2000/svg">
<rect width="48" height="48" rx="12" fill="#FEE600"/>
<path d="M27.15 13L25.74 14.41C26.55 15.22 26.55 16.42 25.73 17.23L20.87 22.09L20.78 22.01C21.08 21.39 21 21 20.42 20.42C19.47 19.47 17.87 19.43 16.88 20.42C15.93 21.37 15.93 23 16.88 23.96L17.23 24.31L18.64 22.9L18.3 22.54C18.11 22.35 18.11 22.02 18.3 21.83C18.5 21.63 18.82 21.64 19.01 21.83L20.07 22.89L13 29.96L14.41 31.37L27.15 18.66C28.75 17.06 28.74 14.59 27.15 13Z" fill="#2B2D33"/>
<path d="M33.59 17.24L32.18 18.65C32.99 19.46 32.99 20.66 32.17 21.47L27.31 26.33L27.22 26.24C27.52 25.62 27.44 25.23 26.86 24.65C25.91 23.7 24.31 23.66 23.32 24.65C22.37 25.6 22.37 27.23 23.32 28.19L23.67 28.54L25.08 27.13L24.73 26.78C24.54 26.59 24.54 26.26 24.73 26.07C24.93 25.87 25.25 25.88 25.44 26.07L26.5 27.13L19.43 34.2L20.84 35.61L33.59 22.9C35.19 21.3 35.18 18.83 33.59 17.24Z" fill="#2B2D33"/>
</svg>
