<svg width="48" height="48" viewBox="0 0 48 48" fill="none" xmlns="http://www.w3.org/2000/svg">
<rect width="48" height="48" rx="12" fill="#FEE600"/>
<path d="M24 14C18.48 14 14 18.48 14 24C14 29.52 18.48 34 24 34C29.52 34 34 29.52 34 24C34 18.48 29.52 14 24 14ZM16 24C16 21.97 16.76 20.12 18 18.71C19.19 20.06 20.01 21.83 20 24C20.01 26.17 19.19 27.94 18 29.29C16.76 27.88 16 26.03 16 24ZM18.68 29.96L18.74 29.89C19.76 30.26 20.31 29.77 20.94 28.53C21.64 27.16 22 25.5 22 24C22 22.5 21.64 20.84 20.94 19.47C20.31 18.23 19.76 17.74 18.74 18.11L18.68 18.04C20.09 16.77 21.95 16 24 16C26.05 16 27.91 16.77 29.32 18.04L29.26 18.11C28.24 17.74 27.69 18.23 27.06 19.47C26.36 20.84 26 22.5 26 24C26 25.5 26.36 27.16 27.06 28.53C27.69 29.77 28.24 30.26 29.26 29.89L29.32 29.96C27.91 31.23 26.05 32 24 32C21.95 32 20.09 31.23 18.68 29.96ZM30 29.29C28.81 27.94 27.99 26.17 28 24C27.99 21.83 28.81 20.06 30 18.71C31.24 20.12 32 21.97 32 24C32 26.03 31.24 27.88 30 29.29Z" fill="#2B2D33"/>
</svg>
