<svg width="48" height="48" viewBox="0 0 48 48" fill="none" xmlns="http://www.w3.org/2000/svg">
<rect width="48" height="48" rx="12" fill="#FEE600"/>
<path d="M28.79 31.5H19.21V31.38C20.9 31.32 21.32 31.16 21.99 30.45C22.28 30.15 22.55 29.83 22.79 29.51C23.29 28.85 23.69 28.14 24 27.45C24.31 28.14 24.71 28.85 25.21 29.51C25.45 29.83 25.72 30.15 26.01 30.45C26.68 31.16 27.1 31.32 28.79 31.38V31.5ZM16 31.39V28.8L24 16.8L32 28.8V31.39C29.52 30.99 27.89 29.75 26.82 28.31C25.59 26.67 25.09 24.76 25 23.5H23C22.91 24.76 22.41 26.67 21.19 28.31C20.12 29.75 18.48 30.99 16 31.39ZM15 33.5H33C33.55 33.5 34 33.05 34 32.5V28.5C34 28.3 33.94 28.11 33.83 27.95L24.83 14.45C24.65 14.17 24.34 14 24 14C23.67 14 23.36 14.17 23.17 14.45L14.17 27.95C14.06 28.11 14 28.3 14 28.5V32.5C14 33.05 14.45 33.5 15 33.5Z" fill="#2B2D33"/>
</svg>
