<svg width="48" height="48" viewBox="0 0 48 48" fill="none" xmlns="http://www.w3.org/2000/svg">
<rect width="48" height="48" rx="12" fill="#FEE600"/>
<path d="M24 14C18.48 14 14 18.48 14 24C14 29.52 18.48 34 24 34C29.52 34 34 29.52 34 24C34 18.48 29.52 14 24 14ZM30.76 19.73C30.03 22.87 28.27 25.35 25.94 27.04C25.55 26.2 25.26 25.3 25.09 24.37C26.69 23 27.94 21.29 28.72 19.36C29.1 18.44 28.94 17.94 28.42 17.47L28.48 17.37C29.39 17.98 30.16 18.79 30.76 19.73ZM20.4 24.16C21.32 24.24 22.23 24.44 23.11 24.75C23.5 26.83 24.38 28.76 25.65 30.41C26.26 31.2 26.77 31.31 27.44 31.09L27.5 31.19C26.53 31.66 25.46 31.94 24.32 31.99C21.97 29.78 20.7 27.03 20.4 24.16ZM23.79 22.86C21.8 22.16 19.69 21.96 17.63 22.24C16.64 22.37 16.29 22.76 16.14 23.45H16.03C16.11 22.32 16.42 21.25 16.92 20.29C20 19.35 23.03 19.63 25.66 20.81C25.13 21.56 24.5 22.25 23.79 22.86ZM24 16C25.23 16 26.38 16.28 27.42 16.78C27.25 17.58 27 18.35 26.66 19.08C24.76 18.19 22.67 17.68 20.51 17.72C19.42 17.74 18.77 18.06 17.99 18.9L17.89 18.84C19.36 17.1 21.55 16 24 16ZM16.03 24.65C16.81 24.4 17.6 24.23 18.41 24.16C18.59 26.26 19.19 28.31 20.31 30.17C20.87 31.11 21.47 31.51 22.58 31.76V31.88C19.05 31.23 16.32 28.29 16.03 24.65ZM28.55 30.58C27.94 30.03 27.4 29.43 26.93 28.77C28.66 27.57 30.14 26.01 31.18 24.12C31.71 23.16 31.76 22.44 31.42 21.35L31.52 21.29C31.83 22.14 32 23.05 32 24C32 26.73 30.63 29.14 28.55 30.58Z" fill="#2B2D33"/>
</svg>
