<svg width="24" height="24" viewBox="0 0 24 24" fill="none" xmlns="http://www.w3.org/2000/svg">
<path d="M12 8C9.2 8 7 10.2 7 13C7 15.8 9.2 18 12 18C14.8 18 17 15.8 17 13C17 10.2 14.8 8 12 8ZM12 16C10.3 16 9 14.7 9 13C9 11.3 10.3 10 12 10C13.7 10 15 11.3 15 13C15 14.7 13.7 16 12 16Z" fill="white"/>
<path d="M21 6H17.4L15.7 4.3C15.5 4.1 15.3 4 15 4H9C8.7 4 8.5 4.1 8.3 4.3L6.6 6H6V4H4V4.9C4 5.5 4.4 5.9 5 5.9V6H3C2.4 6 2 6.4 2 7V20C2 20.6 2.4 21 3 21H21C21.5 21 22 20.6 22 20V7C22 6.4 21.5 6 21 6ZM20 19H4V8H7C7.3 8 7.5 7.9 7.7 7.7L9.4 6H14.6L16.3 7.7C16.5 7.9 16.7 8 17 8H20V19Z" fill="white"/>
</svg>
