<svg width="24" height="24" viewBox="0 0 24 24" fill="none" xmlns="http://www.w3.org/2000/svg">
<path d="M12 12.6L8.4 16.3L7 14.8L10.6 11.1L9.8 10.4V8.9L9.3 8.4V9.7L8.8 10.1L7 8.3L6.5 8.7C6.5 8.4 6.6 7.3 7.4 6.5C8.3 5.6 9.3 6 9.6 6.4L11.4 8.3L11 8.7L12 9.7L13 8.7L12.5 8.2L14.3 6.3C14.6 6 15.6 5.6 16.5 6.4C17.3 7.2 17.4 8.2 17.4 8.6L17 8.3L15.2 10.2L14.7 9.7V8.4L14.2 8.9V10.4L13.4 11.2L17 14.9L15.6 16.4L12 12.6Z" fill="white"/>
<path d="M21 2H3C2.4 2 2 2.5 2 3V19C2 19.5 2.4 20 3 20H5.9C6.5 20 6.9 19.6 6.9 19H7V22C7 23 7.9 23.3 8.7 22.7L12.3 20H21C21.5 20 22 19.5 22 19V3C22 2.5 21.5 2 21 2ZM20 18H12C11.8 18 11.6 18.1 11.4 18.2L9 20V19C9 18.5 8.5 18 8 18H4V4H20V18Z" fill="white"/>
</svg>
