<svg width="24" height="24" viewBox="0 0 24 24" fill="none" xmlns="http://www.w3.org/2000/svg">
<path fill-rule="evenodd" clip-rule="evenodd" d="M17.82 6.19801C17.0412 4.35929 15.9004 2.69007 14.4637 1.28503L13.0653 2.71491C14.3142 3.93632 15.3037 5.38513 15.9784 6.97802C16.653 8.57086 17 10.2773 17 12C17 13.7227 16.653 15.4291 15.9784 17.0219C15.3037 18.6148 14.3142 20.0636 13.0653 21.285L14.4637 22.7149C15.9004 21.3099 17.0412 19.6407 17.82 17.8019C18.5988 15.9632 19 13.9916 19 12C19 10.0083 18.5988 8.03677 17.82 6.19801ZM14.0029 7.74428C13.4317 6.3958 12.5952 5.172 11.5422 4.14218L10.1438 5.57206C11.0091 6.41826 11.6942 7.42163 12.1613 8.52429C12.6283 9.62691 12.8683 10.8079 12.8683 12C12.8683 13.1921 12.6283 14.373 12.1613 15.4757C11.6942 16.5783 11.0091 17.5817 10.1438 18.4279L11.5422 19.8578C12.5952 18.8279 13.4317 17.6041 14.0029 16.2557C14.574 14.9071 14.8683 13.461 14.8683 12C14.8683 10.539 14.574 9.09282 14.0029 7.74428ZM10.1857 9.29056C9.82223 8.4323 9.29004 7.65394 8.62067 6.99932L7.2223 8.4292C7.7039 8.90019 8.08472 9.45813 8.34411 10.0706C8.60349 10.683 8.73668 11.3385 8.73668 12C8.73668 12.6615 8.60348 13.317 8.34411 13.9294C8.08472 14.5418 7.7039 15.0998 7.2223 15.5707L8.62067 17.0006C9.29004 16.346 9.82223 15.5676 10.1857 14.7094C10.5493 13.8511 10.7367 12.9304 10.7367 12C10.7367 11.0696 10.5493 10.1489 10.1857 9.29056ZM6.3686 10.8368C6.21272 10.4688 5.98487 10.1359 5.69915 9.85646L3.57812 12L5.69915 14.1435C5.98487 13.8641 6.21272 13.5311 6.36859 13.1631C6.52449 12.795 6.60503 12.3997 6.60503 12C6.60503 11.6002 6.52449 11.2049 6.3686 10.8368Z" fill="white"/>
</svg>
