<svg width="24" height="24" viewBox="0 0 24 24" fill="none" xmlns="http://www.w3.org/2000/svg">
<path fill-rule="evenodd" clip-rule="evenodd" d="M11 7V11H10V13H11C12.1046 13 13 12.1046 13 11V7H11ZM16 7V10H18V7H16ZM6 10V7H8V10H6ZM14.7998 14.7859C14.0773 15.4942 13.0904 15.9293 11.9998 15.9293C10.9093 15.9293 9.92242 15.4942 9.19989 14.7859L7.7998 16.2141C8.88103 17.274 10.3649 17.9293 11.9998 17.9293C13.6348 17.9293 15.1187 17.274 16.1999 16.2141L14.7998 14.7859Z" fill="white"/>
<path fill-rule="evenodd" clip-rule="evenodd" d="M4 5C4 4.44772 4.44772 4 5 4H7V2H5C3.34315 2 2 3.34315 2 5V7H4V5ZM20 19C20 19.5523 19.5523 20 19 20H17V22H19C20.6569 22 22 20.6569 22 19V17H20V19ZM19 4C19.5523 4 20 4.44772 20 5V7H22V5C22 3.34315 20.6569 2 19 2H17V4H19ZM4 19C4 19.5523 4.44772 20 5 20H7V22H5C3.34315 22 2 20.6569 2 19V17H4V19Z" fill="white"/>
</svg>
