<svg width="24" height="24" viewBox="0 0 24 24" fill="none" xmlns="http://www.w3.org/2000/svg">
<path d="M16 7C15.4 7 15 6.6 15 6C15 5.4 15.4 5 16 5C16.6 5 17 5.4 17 6C17 6.6 16.6 7 16 7ZM8 5C7.5 5 7 4.5 7 4C7 3.5 7.5 3 8 3C8.5 3 9 3.5 9 4C9 4.5 8.5 5 8 5ZM9 10H11V4C11 2.3 9.7 1 8 1C6.3 1 5 2.3 5 4C5 5.7 6.3 7 8 7C8.3 7 8.7 6.9 9 6.8V10ZM12 18.5C12.8 18.5 13.5 17.8 13.5 17C13.5 16.2 12.8 15.5 12 15.5C11.2 15.5 10.5 16.2 10.5 17C10.5 17.8 11.2 18.5 12 18.5ZM8 20C7.5 20 7 19.5 7 19V14H17V19C17 19.5 16.6 20 16 20H8ZM8 22H16C17.7 22 19 20.7 19 19V10H17V12H13.8V11.9C14.6 11.7 15 11.1 15 10.2V8.8C15.3 8.9 15.6 9 16 9C17.7 9 19 7.7 19 6C19 4.3 17.7 3 16 3C14.3 3 13 4.3 13 6V12H7V10H5V19C5 20.7 6.3 22 8 22Z" fill="white"/>
</svg>
