<svg width="24" height="24" viewBox="0 0 24 24" fill="none" xmlns="http://www.w3.org/2000/svg">
<path d="M9.5 17C9.5 17.8 10.2 18.5 11 18.5C11.8 18.5 12.5 17.8 12.5 17C12.5 16.2 11.8 15.5 11 15.5C10.2 15.5 9.5 16.2 9.5 17ZM16 13V20H6V5.9C6 4.8 5.5 4.3 4.6 4.1V4H14V2H6C4.9 2 4 2.9 4 4V20C4 21.1 4.9 22 6 22H16C17.1 22 18 21.1 18 20V13H16ZM12 6H18V5.9C16.5 5.6 16 4.5 16 3H18C18 4.3 18.7 5.5 20.3 6C20.8 6.2 21 6.6 21 7C21 7.4 20.8 7.8 20.3 8C18.7 8.5 18 9.7 18 11H16C16 9.5 16.5 8.4 18 8.1V8H12V6Z" fill="white"/>
</svg>
