<svg width="24" height="24" viewBox="0 0 24 24" fill="none" xmlns="http://www.w3.org/2000/svg">
<path fill-rule="evenodd" clip-rule="evenodd" d="M4.72803 10.75C4.72803 6.88401 7.86203 3.75 11.728 3.75C13.1041 3.75 14.3846 4.14605 15.4654 4.82998L16.5349 3.13995C15.1436 2.25952 13.4938 1.75 11.728 1.75C6.75746 1.75 2.72803 5.77944 2.72803 10.75C2.72803 14.1964 5.00977 16.9503 7.06952 18.7526C8.12041 19.6721 9.16657 20.3908 9.94803 20.8792C10.3398 21.1241 10.6677 21.3127 10.9 21.4413C11.0162 21.5056 11.1086 21.555 11.1733 21.589C11.2057 21.606 11.2312 21.6192 11.2493 21.6284L11.2708 21.6394L11.2772 21.6426L11.2802 21.6441C11.5617 21.7849 11.894 21.7851 12.1755 21.6443L12.1786 21.6427L12.1847 21.6397L12.2048 21.6295C12.2216 21.6208 12.2453 21.6086 12.2754 21.5928C12.3357 21.5612 12.4217 21.5154 12.53 21.4557C12.7465 21.3364 13.0525 21.1614 13.4198 20.9341C14.1527 20.4807 15.1386 19.8135 16.1467 18.9591L14.8536 17.4334C13.9405 18.2073 13.0403 18.817 12.3674 19.2334C12.1181 19.3876 11.9012 19.5146 11.728 19.6128C11.5364 19.5041 11.2913 19.3603 11.008 19.1833C10.2895 18.7342 9.33565 18.0779 8.38653 17.2474C6.44628 15.5497 4.72803 13.3036 4.72803 10.75Z" fill="white"/>
<path d="M16.3241 7.18201C16.9277 7.78559 17.4065 8.50214 17.7331 9.29076C18.0598 10.0794 18.2279 10.9246 18.2279 11.7782C18.2279 12.6318 18.0598 13.477 17.7331 14.2656C17.4065 15.0543 16.9277 15.7708 16.3241 16.3744L14.9099 14.9602C15.3278 14.5423 15.6592 14.0462 15.8854 13.5003C16.1115 12.9543 16.2279 12.3691 16.2279 11.7782C16.2279 11.1873 16.1115 10.6021 15.8854 10.0561C15.6592 9.51016 15.3278 9.01408 14.9099 8.59622L16.3241 7.18201Z" fill="white"/>
<path d="M18.799 4.65686C19.7276 5.58545 20.4642 6.68784 20.9667 7.90109C21.4693 9.11435 21.7279 10.4147 21.7279 11.7279C21.7279 13.0411 21.4693 14.3415 20.9667 15.5548C20.4642 16.768 19.7276 17.8704 18.799 18.799L17.3848 17.3848C18.1276 16.6419 18.7169 15.76 19.1189 14.7894C19.521 13.8188 19.7279 12.7785 19.7279 11.7279C19.7279 10.6774 19.521 9.63707 19.1189 8.66646C18.7169 7.69586 18.1276 6.81394 17.3848 6.07107L18.799 4.65686Z" fill="white"/>
<path d="M14.7105 11.7747C14.704 12.5677 14.3861 13.3264 13.8254 13.8872L11.6881 11.7499L13.8602 9.64802C14.4116 10.2179 14.717 10.9817 14.7105 11.7747Z" fill="white"/>
</svg>
