<svg width="24" height="24" viewBox="0 0 24 24" fill="none" xmlns="http://www.w3.org/2000/svg">
<path d="M12.3 17C15.1 17 17.3 14.8 17.3 12H15.3C15.3 13.7 14 15 12.3 15V17ZM9.3 12C9.3 10.3 10.6 9 12.3 9C12.8 9 13.2 9.1 13.6 9.3L9.6 13.3C9.5 12.9 9.3 12.5 9.3 12ZM7.8 18L18.8 7H20.3V18H7.8ZM3.5 19.3C4.1 18.6 4.3 18.1 4.3 17V7H7.3C7.6 7 7.8 6.9 8 6.7L9.8 5H15L15.2 5.2C15.8 5.9 16.8 5.8 17.5 5.3L17.6 5.4L15.2 7.8C14.3 7.3 13.4 7 12.3 7C9.5 7 7.3 9.2 7.3 12C7.3 13 7.6 14 8.2 14.8L3.5 19.3ZM2 21L3.4 22.4L5.8 20H21.3C21.9 20 22.3 19.6 22.3 19V6C22.3 5.5 21.9 5 21.3 5H20.8L22.4 3.4L21 2L18 5H17.8L16.1 3.3C15.9 3.1 15.6 3 15.3 3H9.3C9.1 3 8.8 3.1 8.6 3.3L7 4.9L6.9 5H6.3V3H4.3V3.9C4.3 4.5 4.7 4.9 5.3 4.9V5H3.3C2.7 5 2.3 5.5 2.3 6V19C2.3 19.4 2.6 19.8 3 19.9L2 21Z" fill="white"/>
</svg>
