<svg width="24" height="24" viewBox="0 0 24 24" fill="none" xmlns="http://www.w3.org/2000/svg">
<path fill-rule="evenodd" clip-rule="evenodd" d="M5 4C4.44772 4 4 4.44772 4 5V19C4 19.5523 4.44772 20 5 20H10C10.5523 20 11 19.5523 11 19V5C11 4.44772 10.5523 4 10 4H5ZM6 18V6H9V18H6Z" fill="white"/>
<path fill-rule="evenodd" clip-rule="evenodd" d="M14 4C13.4477 4 13 4.44772 13 5V19C13 19.5523 13.4477 20 14 20H19C19.5523 20 20 19.5523 20 19V5C20 4.44772 19.5523 4 19 4H14ZM15 18V6H18V18H15Z" fill="white"/>
</svg>
