<svg width="24" height="24" viewBox="0 0 24 24" fill="none" xmlns="http://www.w3.org/2000/svg">
<path d="M16 5C16 6 16.5 6.6 17.3 6.9V7H6.7V6.9C7.5 6.6 8 6 8 5H16ZM19 7C18.4 7 18 6.6 18 6V4C18 3.4 17.5 3 17 3H7C6.5 3 6 3.4 6 4V6C6 6.6 5.6 7 5 7H4C2.9 7 2 7.9 2 9V20C2 20.5 2.4 21 3 21H21C21.5 21 22 20.5 22 20V9C22 7.9 21.1 7 20 7H19ZM4 19V9H20V19H17V16C17 15.4 16.6 15 16 15H8C7.4 15 7 15.4 7 16V19H4ZM7 13.5C7.8 13.5 8.5 12.8 8.5 12C8.5 11.2 7.8 10.5 7 10.5C6.2 10.5 5.5 11.2 5.5 12C5.5 12.8 6.2 13.5 7 13.5ZM9 19V17H15V19H9Z" fill="white"/>
</svg>
