<svg width="24" height="24" viewBox="0 0 24 24" fill="none" xmlns="http://www.w3.org/2000/svg">
<path d="M15.6 12C14.9 12 14.2 11.8 13.6 11.4L15.3 9.7L13.9 8.3L12.1 10C11.8 9.4 11.6 8.7 11.6 8C11.6 5.8 13.4 4 15.6 4C17.8 4 19.6 5.8 19.6 8C19.6 10.2 17.8 12 15.6 12ZM13.4 21.6L20.4 11.6C21.2 10.6 21.6 9.3 21.6 8C21.6 4.7 18.9 2 15.6 2C14.2 2 13 2.4 12 3.2L2 10.2L3.1 11.8L9.6 7.3C9.6 7.5 9.6 7.8 9.6 8C9.6 8.6 9.7 9.2 9.8 9.7C10 10.5 10.8 10.8 11.6 10.3L11.7 10.4L3.9 18.2L5.3 19.6L12.1 12.8C13.1 13.5 14.3 13.9 15.6 13.9C15.8 13.9 16.1 13.9 16.3 13.9L11.8 20.4L13.4 21.6Z" fill="white"/>
</svg>
