<svg width="24" height="24" viewBox="0 0 24 24" fill="none" xmlns="http://www.w3.org/2000/svg">
<path d="M14 10H12V12H14V10Z" fill="white"/>
<path d="M14 14H12V16H14V14Z" fill="white"/>
<path d="M18 10H16V12H18V10Z" fill="white"/>
<path d="M20 2H11V4H19V18H11V19C11 20.1 10.1 21 9 21C8.3 21 7.6 20.6 7.3 20H8C8.5 20 9 19.6 9 19V3C9 2.5 8.5 2 8 2H4C3.4 2 3 2.5 3 3V19C3 19.6 3.4 20 4 20H5.1C5.5 21.7 7.1 23 9 23C11.2 23 13 21.2 13 19V18.6H13.1C13.1 19.4 13.6 20 14.5 20H20C20.5 20 21 19.6 21 19V3C21 2.5 20.5 2 20 2ZM5 4H7V18H5V4Z" fill="white"/>
<path d="M18 14H16V16H18V14Z" fill="white"/>
<path d="M18 6H12V8H18V6Z" fill="white"/>
</svg>
