<svg width="48" height="48" viewBox="0 0 48 48" fill="none" xmlns="http://www.w3.org/2000/svg">
<rect width="48" height="48" rx="12" fill="#FEE600"/>
<path d="M32.0001 18.24L27.6701 17.51C27.0401 17.4 26.5001 17.87 26.5001 18.5V24.09L23.8001 26.79L25.2101 28.21L28.2101 25.21C28.4001 25.02 28.5001 24.77 28.5001 24.5H32.5001V26.68C32.1901 26.57 31.8501 26.5 31.5001 26.5C29.8501 26.5 28.5001 27.84 28.5001 29.5C28.5001 29.85 28.5701 30.19 28.6801 30.5H28.5501C28.3201 29.73 27.9301 29.5 27.1001 29.5H21.9001C21.0701 29.5 20.6801 29.73 20.4501 30.5H20.3101C20.4201 30.19 20.4901 29.85 20.4901 29.5C20.4901 28.73 20.2001 28.03 19.7301 27.5H20.5001C20.7701 27.5 21.0201 27.39 21.2101 27.21L25.2101 23.21C25.4001 23.02 25.5001 22.77 25.5001 22.5V20.77C25.5001 19.61 24.8301 18.55 23.7701 18.06L17.4301 15.09C17.0401 14.92 16.5901 15 16.3001 15.29L13.3001 18.29C13.0001 18.59 12.9201 19.04 13.1001 19.42L16.0601 25.77C16.2101 26.09 16.4101 26.38 16.6601 26.62C15.4101 26.99 14.5001 28.14 14.5001 29.5C14.5001 31.16 15.8501 32.5 17.5001 32.5C18.3801 32.5 19.1701 32.11 19.7201 31.5H29.2801C29.8301 32.11 30.6201 32.5 31.5001 32.5C33.1601 32.5 34.5001 31.16 34.5001 29.5V21.19C34.5001 19.73 33.4401 18.48 32.0001 18.24ZM15.9401 20.78L15.2101 19.21L17.2101 17.2L18.7901 17.94L15.9401 20.78ZM17.5001 30.5C16.9501 30.5 16.5001 30.05 16.5001 29.5C16.5001 28.95 16.9501 28.5 17.5001 28.5C18.0601 28.5 18.5001 28.95 18.5001 29.5C18.5001 30.05 18.0601 30.5 17.5001 30.5ZM18.7801 25.5C18.3901 25.5 18.0301 25.27 17.8701 24.92L16.8401 22.71L20.7101 18.84L22.9301 19.87C23.2801 20.03 23.5001 20.39 23.5001 20.77V22.09L20.0901 25.5H18.7801ZM30.4001 22.5C29.3401 22.5 28.7201 23.03 28.6201 23.93H28.5001V19.68L31.6701 20.21C32.1501 20.29 32.5001 20.71 32.5001 21.19V22.5H30.4001ZM32.5001 29.5C32.5001 30.05 32.0601 30.5 31.5001 30.5C30.9501 30.5 30.5001 30.05 30.5001 29.5C30.5001 28.95 30.9501 28.5 31.5001 28.5C32.0501 28.5 32.5001 28.94 32.5001 29.49V29.5Z" fill="#2B2D33"/>
</svg>
