<svg width="48" height="48" viewBox="0 0 48 48" fill="none" xmlns="http://www.w3.org/2000/svg">
<rect width="48" height="48" rx="12" fill="#FEE600"/>
<path d="M24 20C21.79 20 20 21.79 20 24C20 26.21 21.79 28 24 28C26.21 28 28 26.21 28 24C28 21.79 26.21 20 24 20ZM24 26C22.9 26 22 25.1 22 24C22 22.9 22.9 22 24 22C25.11 22 26 22.9 26 24C26 25.1 25.11 26 24 26Z" fill="#2B2D33"/>
<path d="M28.86 17.44L29.45 17.83L30.56 16.17L29.06 15.17C28.55 14.83 27.91 14.98 27.62 15.53L26.12 18.33L27.88 19.28L28.86 17.44Z" fill="#2B2D33"/>
<path d="M29.67 21.88L31.67 20.81L32.17 21.55L33.83 20.45L32.83 18.95C32.55 18.52 31.98 18.38 31.53 18.62L28.73 20.12L29.67 21.88Z" fill="#2B2D33"/>
<path d="M33 23H30V25H32V26H34V24C34 23.45 33.55 23 33 23Z" fill="#2B2D33"/>
<path d="M32.47 27.62L29.67 26.12L28.73 27.88L30.56 28.86L30.17 29.45L31.83 30.55L32.83 29.05C33.16 28.55 33 27.9 32.47 27.62Z" fill="#2B2D33"/>
<path d="M27.88 28.72L26.12 29.67L27.19 31.67L26.45 32.17L27.56 33.83L29.06 32.83C29.48 32.55 29.63 31.98 29.38 31.53L27.88 28.72Z" fill="#2B2D33"/>
<path d="M18 24C18 20.68 20.69 18 24 18H25V16H24.22V15.88C24.77 15.82 25.01 15.52 25.01 15L25 14H23V16.07C21.99 16.19 21.04 16.5 20.19 16.96L20.13 16.86C20.58 16.53 20.63 16.15 20.37 15.7L19.87 14.84L18.13 15.84L19.17 17.63C18.38 18.23 17.71 18.97 17.19 19.81L17.08 19.75C17.3 19.24 17.16 18.89 16.71 18.63L15.84 18.13L14.84 19.87L16.62 20.9C16.25 21.79 16.04 22.76 16.01 23.78H15.88C15.82 23.23 15.52 23 15 23H14V25H16.07C16.2 26.01 16.5 26.96 16.96 27.81L16.86 27.87C16.53 27.42 16.15 27.37 15.7 27.63L14.84 28.13L15.84 29.87L17.63 28.83C18.23 29.62 18.97 30.29 19.81 30.81L19.75 30.92C19.24 30.7 18.89 30.84 18.63 31.29L18.13 32.16L19.87 33.16L20.9 31.38C21.79 31.75 22.76 31.96 23.78 31.99V32.12C23.23 32.18 23 32.48 23 33V34H25V32H25.01V30H24C20.69 30 18 27.32 18 24Z" fill="#2B2D33"/>
</svg>
