<svg width="48" height="48" viewBox="0 0 48 48" fill="none" xmlns="http://www.w3.org/2000/svg">
<rect width="48" height="48" rx="12" fill="#FEE600"/>
<path d="M24 28H22V30H24V28Z" fill="#2B2D33"/>
<path d="M32 25C32 24.45 31.55 24 31 24H22V21C22 20.45 21.55 20 21 20H18.57V19.88C19.47 19.78 20 19.16 20 18.1V18C20 16.89 20.91 16 22 16H33V14H22C19.78 14 18 15.8 18 18V20H17C16.45 20 16 20.45 16 21V32H14V34H34V32H32V25ZM18 22H20V24H18V22ZM31.43 32H16.57V31.88C17.47 31.78 18 31.16 18 30.1V26H30V30.1C30 31.16 30.53 31.78 31.43 31.88V32Z" fill="#2B2D33"/>
<path d="M34 18H24V20H34V18Z" fill="#2B2D33"/>
<path d="M28 28H26V30H28V28Z" fill="#2B2D33"/>
</svg>
