<svg width="48" height="48" viewBox="0 0 48 48" fill="none" xmlns="http://www.w3.org/2000/svg">
<rect width="48" height="48" rx="12" fill="#FEE600"/>
<path d="M33.9 21C33.72 20.1 33.28 19.29 32.68 18.64L32.78 18.54C33.21 18.88 33.58 18.83 33.95 18.46L34.66 17.76L33.24 16.34L31.75 17.83C31.02 17.35 30.15 17.06 29.22 17.02V16.88C29.77 16.82 30 16.52 30 16V15H28V17.1C27.09 17.28 26.29 17.72 25.64 18.32L25.54 18.22C25.88 17.79 25.83 17.42 25.46 17.05L24.76 16.34L23.34 17.76L24.83 19.25C24.35 19.98 24.07 20.85 24.03 21.78H23.89C23.82 21.23 23.52 21 23 21H22V23H24.1C24.55 25.22 26.45 26.88 28.78 26.98V27.12C28.23 27.18 28 27.48 28 28V29H30V26.9C30.9 26.72 31.71 26.28 32.36 25.68L32.46 25.78C32.12 26.21 32.17 26.58 32.54 26.95L33.24 27.66L34.66 26.24L33.17 24.75C33.65 24.02 33.94 23.15 33.98 22.22H34.12C34.18 22.77 34.48 23 35 23H36V21H33.9ZM29 25C27.35 25 26 23.66 26 22C26 20.34 27.35 19 29 19C30.66 19 32 20.34 32 22C32 23.66 30.66 25 29 25Z" fill="#2B2D33"/>
<path d="M19.22 22.02V21.88C19.77 21.82 20 21.52 20 21V20H18V22.1C17.1 22.28 16.29 22.72 15.64 23.32L15.54 23.22C15.88 22.79 15.83 22.42 15.46 22.05L14.76 21.34L13.34 22.76L14.83 24.25C14.35 24.98 14.06 25.85 14.02 26.78H13.88C13.82 26.23 13.52 26 13 26H12V28H14.1C14.28 28.9 14.72 29.71 15.32 30.36L15.22 30.46C14.79 30.12 14.42 30.17 14.05 30.54L13.34 31.24L14.76 32.66L16.25 31.17C16.98 31.65 17.85 31.94 18.78 31.98V32.12C18.23 32.18 18 32.48 18 33V34H20V31.9C20.91 31.72 21.71 31.28 22.36 30.68L22.46 30.78C22.12 31.21 22.17 31.58 22.54 31.95L23.24 32.66L24.66 31.24L23.17 29.75C23.65 29.02 23.93 28.15 23.97 27.22H24.11C24.18 27.77 24.48 28 25 28H26V26H23.9C23.45 23.78 21.55 22.12 19.22 22.02ZM19 30C17.34 30 16 28.66 16 27C16 25.34 17.34 24 19 24C20.65 24 22 25.34 22 27C22 28.66 20.65 30 19 30Z" fill="#2B2D33"/>
</svg>
