<svg width="48" height="48" viewBox="0 0 48 48" fill="none" xmlns="http://www.w3.org/2000/svg">
<rect width="48" height="48" rx="12" fill="#FEE600"/>
<path d="M27.01 33H21.01V35H27.01V33Z" fill="#2B2D33"/>
<path d="M20 22H22C22 20.84 22.89 20 24 20L23.99 18C21.78 18 20 19.72 20 22Z" fill="#2B2D33"/>
<path d="M24 14C19.5 14 16 17.58 16 22C16 24.4 17.09 26.72 19.01 28.24V29C19.01 30.15 19.85 31 21.01 31H27.01C28.16 31 29.01 30.15 29.01 29V28.24C30.93 26.7 32 24.39 32 22C32 17.56 28.48 14 24 14ZM27.62 26.77L27.01 27.22V29.3H26.8932C26.7294 29.1786 26.3696 29 25.67 29H22.35C21.6504 29 21.2907 29.1786 21.1268 29.3H21.01V27.22L20.46 26.82C18.94 25.72 18 23.92 18 22C18 18.66 20.62 16 24 16C27.36 16 30 18.64 30 22C30 23.93 29.04 25.73 27.62 26.77Z" fill="#2B2D33"/>
</svg>
