<svg width="48" height="48" viewBox="0 0 48 48" fill="none" xmlns="http://www.w3.org/2000/svg">
<rect width="48" height="48" rx="12" fill="#FEE600"/>
<path d="M18 17V21H29V17H18ZM16 16C16 15.41 16.41 15 17 15H30C30.58 15 31 15.4 31 16V18.9H31.12C31.12 18.33 31.43 18 32.1 18C33.65 18 35 19.34 35 21V24C35 25.66 33.65 27 32 27H25V34H23V27C23 25.9 23.89 25 25 25H32C32.55 25 33 24.55 33 24V21C33 20.4 32.59 20 32 20H31V22C31 22.58 30.58 23 30 23H17C16.41 23 16 22.58 16 22V20H14V18H16V16Z" fill="#2B2D33"/>
</svg>
