<svg width="48" height="48" viewBox="0 0 48 48" fill="none" xmlns="http://www.w3.org/2000/svg">
<rect width="48" height="48" rx="12" fill="#FEE600"/>
<path d="M25.33 22.14L23.02 21.09L24 18.16L25.33 22.14ZM22.8 28L26.47 25.56L27.28 28H22.8ZM21.16 26.69L22.39 23L24.95 24.17L21.16 26.69ZM19.39 32L20.05 30H27.95L28.61 32H19.39ZM15 34H33V32H30.72L25.64 16.78H25.76C26.12 17.55 26.68 18 27.71 18H29V20H31V17C31 16.45 30.55 16 30 16H25.39L24.95 14.68C24.81 14.28 24.43 14 24 14C23.57 14 23.19 14.28 23.05 14.68L22.61 16H18C17.45 16 17 16.45 17 17V20H19V18H20.28C21.31 18 21.87 17.55 22.23 16.78H22.35L17.28 32H15V34Z" fill="#2B2D33"/>
</svg>
