<svg width="48" height="48" viewBox="0 0 48 48" fill="none" xmlns="http://www.w3.org/2000/svg">
<rect width="48" height="48" rx="12" fill="#FEE600"/>
<path d="M19 29.11H18.88C18.83 28.2 18.67 27.75 18.12 27.34L17.4 26.8C17.14 26.61 17 26.31 17 26V20C17 19.45 17.45 19 18 19H19V29.11ZM23 19V21H25V19H28V33H21V19H23ZM25 17V14H23V17H18C16.35 17 15 18.34 15 20V26C15 26.94 15.45 27.83 16.2 28.4L19 30.5V34C19 34.55 19.45 35 20 35H29C29.56 35 30 34.55 30 34V28.21L33.99 19.36L34.06 19.39C34.55 19.64 35.15 19.44 35.4 18.95C35.65 18.45 35.45 17.85 34.95 17.61L32.95 16.61C32.46 16.36 31.86 16.56 31.61 17.05C31.36 17.55 31.56 18.15 32.06 18.39L32.2 18.47L30.85 21.46C30.25 22.77 30.16 23.33 30.12 25H30V18C30 17.45 29.56 17 29 17H25Z" fill="#2B2D33"/>
</svg>
