<svg width="48" height="48" viewBox="0 0 48 48" fill="none" xmlns="http://www.w3.org/2000/svg">
<rect width="48" height="48" rx="12" fill="#FEE600"/>
<path d="M25.15 14.44C24.78 14.16 24.37 14 24 14C23.61 14 23.18 14.2 22.86 14.44C19.73 16.76 16 21.87 16 26C16 30.42 19.58 34 24 34C28.42 34 32 30.42 32 26C32 21.87 28.31 16.84 25.15 14.44ZM24 32C23.18 32 22.41 31.83 21.7 31.54L21.74 31.43C22.6 31.81 24.74 32.09 26.14 30.65C27.33 29.42 28 27.79 28 26H26C26 28.6 23.99 30.71 20.62 30.95C19.04 29.87 18 28.06 18 26C18 22.77 20.96 18.54 24 16.08C27.06 18.54 30 22.8 30 26C30 29.31 27.32 32 24 32Z" fill="#2B2D33"/>
</svg>
