<svg width="24" height="24" viewBox="0 0 24 24" fill="none" xmlns="http://www.w3.org/2000/svg">
<path d="M19.3102 9.17C19.2502 8.98 19.2502 8.78 19.3102 8.59L19.6702 7.43C20.2102 5.66 19.0302 3.82 17.2002 3.57L16.1902 3.44C15.9402 3.4 15.7202 3.28 15.5602 3.09L14.7002 2.07C13.5002 0.639998 11.3002 0.639998 10.1002 2.07L9.25023 3.09C9.09023 3.28 8.86023 3.4 8.61023 3.44L7.60023 3.57C5.77023 3.82 4.59023 5.66 5.14023 7.43L5.49023 8.59C5.55023 8.78 5.55023 8.98 5.49023 9.17L5.14023 10.33C4.61023 12.03 5.69023 13.78 7.40023 14.14V21.88C7.40023 22.23 7.58023 22.55 7.87023 22.73C8.17023 22.91 8.54023 22.93 8.85023 22.77L12.4002 21L15.9502 22.77C16.2602 22.93 16.6302 22.91 16.9302 22.73C17.2202 22.55 17.4002 22.23 17.4002 21.88V14.14C19.1102 13.79 20.1902 12.03 19.6702 10.33L19.3102 9.17ZM15.4002 17.28V20.26L12.8502 18.99C12.5702 18.84 12.2402 18.84 11.9502 18.99L9.40023 20.26V17.28C9.40023 15.38 8.95023 14.74 7.97023 14.36V14.24L8.61023 14.32C8.86023 14.36 9.09023 14.48 9.25023 14.67L10.1002 15.69C11.3002 17.12 13.5002 17.12 14.7002 15.69L15.5602 14.67C15.7202 14.48 15.9402 14.36 16.1902 14.32L16.8302 14.24V14.36C15.8502 14.74 15.4002 15.38 15.4002 17.28ZM17.4002 9.76L17.7502 10.92C17.9402 11.51 17.5402 12.12 16.9302 12.2L15.9202 12.34C15.1802 12.44 14.5002 12.81 14.0202 13.39L13.1702 14.41C12.7702 14.89 12.0402 14.89 11.6402 14.41L10.7802 13.39C10.3002 12.81 9.62023 12.44 8.88023 12.34L7.87023 12.2C7.26023 12.12 6.87023 11.51 7.05023 10.92L7.40023 9.76C7.58023 9.19 7.58023 8.57 7.40023 8L7.05023 6.84C6.87023 6.25 7.26023 5.64 7.87023 5.56L8.88023 5.42C9.62023 5.32 10.3002 4.95 10.7802 4.37L11.6402 3.35C12.0402 2.87 12.7702 2.87 13.1702 3.35L14.0202 4.37C14.5002 4.95 15.1802 5.32 15.9202 5.42L16.9302 5.56C17.5402 5.64 17.9402 6.25 17.7502 6.84L17.4002 8C17.2202 8.57 17.2202 9.19 17.4002 9.76Z" fill="white"/>
</svg>
