<svg width="24" height="24" viewBox="0 0 24 24" fill="none" xmlns="http://www.w3.org/2000/svg">
<path fill-rule="evenodd" clip-rule="evenodd" d="M11.5528 3.10557C11.8343 2.96481 12.1657 2.96481 12.4472 3.10557L22.4472 8.10557C22.786 8.27496 23 8.62123 23 9V15H21V10.618L19 11.618V19C19 19.2652 18.8946 19.5196 18.7071 19.7071L18.7064 19.7078L18.7056 19.7086L18.704 19.7102L18.7001 19.7141L18.6899 19.724L18.6758 19.7376L18.6605 19.752C18.6368 19.7742 18.6049 19.8034 18.5648 19.8385C18.4845 19.9087 18.3713 20.0028 18.225 20.1125C17.9325 20.3318 17.5067 20.6147 16.9472 20.8944C15.8249 21.4556 14.1728 22 12 22C9.82724 22 8.17507 21.4556 7.05279 20.8944C6.49328 20.6147 6.06746 20.3318 5.775 20.1125C5.6287 20.0028 5.51547 19.9087 5.43525 19.8385L5.29361 19.7078L5.29289 19.7071C5.10536 19.5196 5 19.2652 5 19V11.618L1.55279 9.89443C1.214 9.72504 1 9.37877 1 9C1 8.62123 1.214 8.27496 1.55279 8.10557L11.5528 3.10557ZM12.4472 14.8944L16.9485 12.6438L17 18.5311C16.7918 18.6852 16.476 18.894 16.0528 19.1056C15.1751 19.5444 13.8272 20 12 20C10.1728 20 8.82493 19.5444 7.94721 19.1056C7.52403 18.894 7.20819 18.6852 7 18.5311V12.618L11.5528 14.8944C11.8343 15.0352 12.1657 15.0352 12.4472 14.8944ZM4.23607 9L12 12.882L19.7639 9L12 5.11803L4.23607 9Z" fill="white"/>
<path d="M21 17V19H23V17H21Z" fill="white"/>
</svg>
