<svg width="24" height="24" viewBox="0 0 24 24" fill="none" xmlns="http://www.w3.org/2000/svg">
<path d="M21.4099 8.39999C21.4099 5.82999 20.5199 3.33999 18.8699 1.37999C18.4399 0.869992 17.9199 0.879992 17.4599 1.33999L16.7799 2.01999C18.4699 3.70999 19.4099 6.00999 19.4099 8.39999C19.4099 13.35 15.3599 17.4 10.4099 17.4C8.64992 17.4 6.93992 16.89 5.47992 15.94C6.17992 15.35 6.21992 14.57 5.85992 13.89L5.94992 13.81C7.15992 14.81 8.70992 15.4 10.3999 15.4C11.9799 15.4 13.4199 14.88 14.5899 14.01L15.3499 14.77L16.7599 13.36L15.9999 12.6C16.8799 11.43 17.3999 9.97999 17.3999 8.39999C17.3999 4.52999 14.2799 1.39999 10.3999 1.39999C8.81992 1.39999 7.37992 1.92999 6.20992 2.80999L5.44992 2.04999L4.01992 3.45999L4.78992 4.22999C3.91992 5.39999 3.39992 6.83999 3.39992 8.39999C3.38992 10.34 4.17992 12.09 5.44992 13.36L3.34992 15.46C2.88992 15.92 2.87992 16.44 3.37992 16.87C5.31992 18.54 7.82992 19.41 10.3999 19.41L10.4099 20.4L7.40992 20.41V22.4H15.4099L15.3999 20.4H12.3999V19.23C17.6399 18.24 21.4099 13.72 21.4099 8.39999ZM10.4099 3.39999C13.1699 3.39999 15.3999 5.63999 15.4099 8.39999C15.4099 9.42999 15.0999 10.38 14.5699 11.17L7.62992 4.23999C8.42992 3.70999 9.37992 3.39999 10.4099 3.39999ZM5.40992 8.39999C5.40992 7.38999 5.71992 6.44999 6.22992 5.65999L13.1499 12.57C12.3599 13.1 11.4199 13.4 10.4099 13.4C7.63992 13.4 5.39992 11.17 5.40992 8.39999Z" fill="white"/>
</svg>
