<svg width="24" height="24" viewBox="0 0 24 24" fill="none" xmlns="http://www.w3.org/2000/svg">
<path d="M20.89 2.71L19.89 2.21C19.61 2.07 19.3 2 18.99 2C18.69 2 18.38 2.07 18.1 2.21L17 2.77L15.89 2.21C15.61 2.07 15.3 2 14.99 2C14.69 2 14.38 2.07 14.1 2.21L13 2.77L11.89 2.21C11.61 2.07 11.3 2 10.99 2C10.69 2 10.38 2.07 10.1 2.21L9 2.77L7.89 2.21C7.61 2.07 7.31 2 7 2C6.69 2 6.39 2.07 6.1 2.21L5.1 2.71C4.42 3.05 4 3.74 4 4.5V6.21H3.88C3.61 5.37 2.97 4.88 2 4.88H0V6.88H4V18.45H3.88C3.61 17.61 2.97 17.12 2 17.12H0V19.12H4V19.5C4 20.26 4.42 20.95 5.1 21.29L6.1 21.79C6.39 21.93 6.69 22 7 22C7.31 22 7.61 21.93 7.89 21.79L9 21.23L10.1 21.79C10.38 21.93 10.69 22 10.99 22C11.3 22 11.61 21.93 11.89 21.79L13 21.23L14.1 21.79C14.38 21.93 14.69 22 14.99 22C15.3 22 15.61 21.93 15.89 21.79L17 21.23L18.1 21.79C18.38 21.93 18.69 22 18.99 22C19.3 22 19.61 21.93 19.89 21.79L20.89 21.29C21.57 20.95 22 20.26 22 19.5V4.5C22 3.74 21.57 3.05 20.89 2.71ZM8 19.5L7 20L6 19.5V4.5L7 4L8 4.5V19.5ZM12 19.5L11 20L10 19.5V4.5L11 4L12 4.5V19.5ZM16 19.5L15 20L14 19.5V4.5L15 4L16 4.5V19.5ZM20 19.5L19 20L18 19.5V4.5L19 4L20 4.5V19.5Z" fill="white"/>
</svg>
