<svg width="24" height="24" viewBox="0 0 24 24" fill="none" xmlns="http://www.w3.org/2000/svg">
<path d="M21.9 2.71L20.9 2.21C20.33 1.93 19.67 1.93 19.11 2.21L18.11 2.71C17.35 3.09 17 3.64 17 4.5V4.88H15V4.5C15 3.64 14.65 3.09 13.9 2.71L12.9 2.21C12.33 1.93 11.67 1.93 11.11 2.21L10.11 2.71C9.35 3.09 9 3.64 9 4.5V4.88H7V4.5C7 3.64 6.65 3.09 5.9 2.71L4.9 2.21C4.33 1.93 3.67 1.93 3.11 2.21L2.11 2.71C1.35 3.09 1 3.64 1 4.5V19.26C1 20.12 1.35 20.67 2.11 21.05L3.11 21.55C3.67 21.83 4.33 21.83 4.9 21.55L5.9 21.05C6.65 20.67 7 20.12 7 19.26V18.88H9V19.26C9 20.12 9.35 20.67 10.11 21.05L11.11 21.55C11.67 21.83 12.33 21.83 12.9 21.55L13.9 21.05C14.65 20.67 15 20.12 15 19.26V18.88H17V19.26C17 20.12 17.35 20.67 18.11 21.05L19.11 21.55C19.67 21.83 20.33 21.83 20.9 21.55L21.9 21.05C22.65 20.67 23 20.12 23 19.26V4.5C23 3.74 22.65 3.09 21.9 2.71ZM5 19.26L4 19.76L3 19.26V4.5L4 4L5 4.5V19.26ZM7 10.88H9V12.88H7V10.88ZM13 19.26L12 19.76L11 19.26V17.88C11 17.33 10.55 16.88 10 16.88H8.3C7.8 16.88 7.34 17.09 7.12 17.56H7V14.2H7.12C7.34 14.67 7.8 14.88 8.3 14.88H10C10.55 14.88 11 14.43 11 13.88V9.88C11 9.33 10.55 8.88 10 8.88H8.3C7.8 8.88 7.34 9.09 7.12 9.56H7V6.2H7.12C7.34 6.67 7.8 6.88 8.3 6.88H10C10.55 6.88 11 6.43 11 5.88V4.5L12 4L13 4.5V19.26ZM15 10.88H17V12.88H15V10.88ZM21 19.26L20 19.76L19 19.26V17.88C19 17.33 18.55 16.88 18 16.88H16.3C15.8 16.88 15.34 17.09 15.12 17.56H15V14.2H15.12C15.34 14.67 15.8 14.88 16.3 14.88H18C18.55 14.88 19 14.43 19 13.88V9.88C19 9.33 18.55 8.88 18 8.88H16.3C15.8 8.88 15.34 9.09 15.12 9.56H15V6.2H15.12C15.34 6.67 15.8 6.88 16.3 6.88H18C18.55 6.88 19 6.43 19 5.88V4.5L20 4L21 4.5V19.26Z" fill="white"/>
</svg>
