<svg width="24" height="24" viewBox="0 0 24 24" fill="none" xmlns="http://www.w3.org/2000/svg">
<path d="M13 1H11V3H13V1Z" fill="white"/>
<path d="M13 7.08C14.87 7.37 16.49 8.46 17.47 10H22V8H18.47C16.91 6.17 14.59 5 12.01 5C9.42 5 7.1 6.17 5.54 8H2V10H6.53C7.69 8.2 9.71 7 12.01 7C12.12 7 12.22 7.02 12.33 7.02V7.13C11.49 7.39 11 8.03 11 9V20H8V22H16V20H13V7.08Z" fill="white"/>
<path d="M23 12H16C15.45 12 15 12.45 15 13C15 13.64 15.11 14.27 15.33 14.87C15.54 15.47 15.86 16.02 16.27 16.49C16.69 16.96 17.18 17.34 17.73 17.6C18.29 17.86 18.89 18 19.5 18C20.11 18 20.71 17.86 21.27 17.6C21.82 17.34 22.32 16.96 22.73 16.49C23.14 16.02 23.46 15.47 23.68 14.87C23.89 14.27 24 13.64 24 13C24 12.45 23.55 12 23 12ZM21.8 14.19C21.66 14.56 21.46 14.9 21.22 15.17C20.98 15.44 20.71 15.65 20.41 15.79C20.12 15.93 19.81 16 19.5 16C19.19 16 18.88 15.93 18.59 15.79C18.3 15.65 18.02 15.44 17.78 15.17C17.54 14.9 17.34 14.56 17.21 14.19C17.19 14.13 17.16 14.06 17.15 14H21.86C21.84 14.06 21.82 14.13 21.8 14.19Z" fill="white"/>
<path d="M9 13C9 12.45 8.55 12 8 12H1C0.45 12 0 12.45 0 13C0 13.64 0.11 14.27 0.33 14.87C0.54 15.47 0.86 16.02 1.27 16.49C1.69 16.96 2.18 17.34 2.73 17.6C3.29 17.86 3.89 18 4.5 18C5.11 18 5.71 17.86 6.27 17.6C6.82 17.34 7.32 16.96 7.73 16.49C8.14 16.02 8.46 15.47 8.68 14.87C8.89 14.27 9 13.64 9 13ZM6.8 14.19C6.66 14.56 6.46 14.9 6.22 15.17C5.98 15.44 5.71 15.65 5.41 15.79C5.12 15.93 4.81 16 4.5 16C4.19 16 3.88 15.93 3.59 15.79C3.3 15.65 3.02 15.44 2.78 15.17C2.54 14.9 2.34 14.56 2.21 14.19C2.19 14.13 2.16 14.06 2.15 14H6.86C6.84 14.06 6.82 14.13 6.8 14.19Z" fill="white"/>
</svg>
