<svg width="24" height="24" viewBox="0 0 24 24" fill="none" xmlns="http://www.w3.org/2000/svg">
<path d="M20.49 10.84L19.12 10.5L20.45 9.36L21.29 10.21L22.71 8.79L21.21 7.29C20.84 6.92 20.25 6.9 19.85 7.24L17.32 9.41L15.17 5.11C14.83 4.43 14.14 4 13.38 4H6.66C5.86 4 5.14 4.48 4.82 5.21L2.16 11.42C2.06 11.67 2 11.93 2 12.21V16C2 16.87 2.45 17.52 3.13 17.82C3.49 19.07 4.64 20 6 20C7.3 20 8.4 19.16 8.81 18H15.18C15.6 19.16 16.7 20 17.99 20C19.35 20 20.5 19.07 20.86 17.82C21.55 17.52 22 16.87 22 16V12.78C22 11.76 21.47 11.08 20.49 10.84ZM12 6H13.38L15.38 10H12V6ZM6.66 6H10V10H4.95L6.66 6ZM6 18C5.45 18 5 17.55 5 17C5 16.45 5.45 16 6 16C6.55 16 7 16.45 7 17C7 17.55 6.55 18 6 18ZM15.19 16H8.81C8.4 14.84 7.3 14 6 14C4.89 14 3.93 14.62 3.41 15.51L3.3 15.45C3.58 14.96 4 14.38 4 13.63V12H16.55C17.01 12 17.12 12.02 17.38 12.09L20 12.78V13.63C20 14.38 20.42 14.96 20.7 15.45L20.59 15.51C20.07 14.62 19.11 14 18 14C16.7 14 15.6 14.84 15.19 16ZM18 18C17.45 18 17 17.55 17 17C17 16.45 17.45 16 18 16C18.55 16 19 16.45 19 17C19 17.55 18.55 18 18 18Z" fill="#2B2D33"/>
</svg>
