<svg width="24" height="24" viewBox="0 0 24 24" fill="none" xmlns="http://www.w3.org/2000/svg">
<path d="M6 6V5C6 4.45 6.45 4 7 4H17C17.55 4 18 4.46 18 5V6H6ZM12 13C10.59 13 8.91 12.76 7.55 12.52C6.94 12.4 6.4 12.29 6 12.2V8H18V12.2C17.6 12.29 17.06 12.4 16.45 12.52C15.09 12.76 13.41 13 12 13ZM6 20V17.62L6.55 17.89C7.05 18.14 7.65 17.94 7.9 17.45C8.14 16.95 7.94 16.35 7.45 16.11L6 15.38V14.25C6.35 14.32 6.75 14.4 7.2 14.48C8.59 14.74 10.41 15 12 15C13.59 15 15.41 14.74 16.8 14.48C17.25 14.4 17.65 14.32 18 14.25V15.38L16.55 16.11C16.06 16.35 15.86 16.95 16.11 17.45C16.35 17.94 16.95 18.14 17.45 17.89L18 17.62V20H16V19H8V20H6ZM5 22H9C9.55 22 10 21.55 10 21H14C14 21.55 14.45 22 15 22H19C19.55 22 20 21.55 20 21V7.26H20.12C20.17 7.96 20.34 8.26 21 8.54V11H23V8C23 7.67 22.83 7.35 22.56 7.17L20 5.46V5C20 4.17 19.6 3.43 19.08 2.92C18.56 2.41 17.83 2 17 2H7C6.18 2 5.43 2.4 4.92 2.92C4.41 3.44 4 4.17 4 5V5.46L1.45 7.17C1.17 7.36 1 7.67 1 8V11H3V8.54C3.66 8.26 3.83 7.96 3.88 7.26H4V21C4 21.55 4.45 22 5 22Z" fill="#2B2D33"/>
</svg>
