<svg width="24" height="24" viewBox="0 0 24 24" fill="none" xmlns="http://www.w3.org/2000/svg">
<path d="M21.95 3.6C21.9 3.41 21.81 3.15 21.62 2.9C21.2 2.35 20.5 2 19.5 2C18.51 2 17.81 2.35 17.39 2.9C17.2 3.15 17.11 3.41 17.06 3.6C17.03 3.7 17.02 3.78 17.01 3.85C17.01 3.88 17.01 3.91 17.01 3.94C17 3.95 17 3.96 17 3.97V6C17 6.55 17.45 7 18 7H18.5V10C18.5 10.55 18.95 11 19.5 11H22V9H20.5V7H21C21.56 7 22 6.55 22 6V3.97C22 3.96 22 3.95 22 3.94C22 3.91 22 3.88 22 3.85C21.99 3.78 21.97 3.7 21.95 3.6ZM20 5H19V4.09C19.05 4.06 19.19 4 19.5 4C19.82 4 19.95 4.06 20 4.09V5Z" fill="#2B2D33"/>
<path d="M20.49 12.84L17.69 12.14L15.17 7.11C14.83 6.43 14.14 6 13.38 6H6.66C5.86 6 5.14 6.48 4.82 7.21L2.16 13.42C2.06 13.67 2 13.93 2 14.21V18C2 18.87 2.45 19.52 3.13 19.82C3.49 21.07 4.64 22 6 22C7.3 22 8.4 21.16 8.81 20H15.18C15.6 21.16 16.7 22 17.99 22C19.35 22 20.5 21.07 20.86 19.82C21.55 19.52 22 18.87 22 18V14.78C22 13.76 21.47 13.08 20.49 12.84ZM12 8H13.38L15.38 12H12V8ZM6.66 8H10V12H4.95L6.66 8ZM6 20C5.45 20 5 19.55 5 19C5 18.45 5.45 18 6 18C6.55 18 7 18.45 7 19C7 19.55 6.55 20 6 20ZM15.19 18H8.81C8.4 16.84 7.3 16 6 16C4.89 16 3.93 16.62 3.41 17.51L3.3 17.45C3.58 16.96 4 16.38 4 15.63V14H16.55C17.01 14 17.12 14.02 17.38 14.09L20 14.78V15.63C20 16.38 20.42 16.96 20.7 17.45L20.59 17.51C20.07 16.62 19.11 16 18 16C16.7 16 15.6 16.84 15.19 18ZM18 20C17.45 20 17 19.55 17 19C17 18.45 17.45 18 18 18C18.55 18 19 18.45 19 19C19 19.55 18.55 20 18 20Z" fill="#2B2D33"/>
</svg>
