<svg width="24" height="24" viewBox="0 0 24 24" fill="none" xmlns="http://www.w3.org/2000/svg">
<path d="M12.71 6.79C12.32 6.4 11.68 6.4 11.29 6.79L7.79 10.29C7.4 10.68 7.4 11.32 7.79 11.71L11 14.91V20H13V14.5C13 14.23 12.9 13.98 12.71 13.79L9.05 10.13L9.13 10.05C9.66 10.49 10.51 10.41 10.97 9.95L12 8.91L15.79 12.71L17.21 11.29L12.71 6.79ZM17 17C17 15.9 17.9 15 19 15C20.11 15 21 15.9 21 17C21 18.1 20.11 19 19 19C17.9 19 17 18.1 17 17ZM19 13C16.79 13 15 14.79 15 17C15 19.21 16.79 21 19 21C21.21 21 23 19.21 23 17C23 14.79 21.21 13 19 13ZM3 17C3 15.9 3.9 15 5 15C6.11 15 7 15.9 7 17C7 18.1 6.11 19 5 19C3.9 19 3 18.1 3 17ZM5 13C2.79 13 1 14.79 1 17C1 19.21 2.79 21 5 21C7.21 21 9 19.21 9 17C9 14.79 7.21 13 5 13ZM18 5C18 6.1 17.11 7 16 7C14.9 7 14 6.1 14 5C14 3.9 14.9 3 16 3C17.11 3 18 3.9 18 5Z" fill="#2B2D33"/>
</svg>
