<svg width="48" height="48" viewBox="0 0 48 48" fill="none" xmlns="http://www.w3.org/2000/svg">
<rect width="48" height="48" rx="12" fill="#2B2D33"/>
<path d="M32 24.8V23.1C32 22.7 31.8 22.3 31.4 22.1C30.9 21.9 28.8 21 24 21C19.2 21 17.1 21.9 16.6 22.1C16.2 22.3 16 22.7 16 23.1V24.8H15.9C15.8 24 15.5 23.6 14.6 22.9C14.1 22.5 14 22.2 14 22C14 21.8 14.1 21.3 14.6 20.8C15 20.2 15.7 19.6 16.5 19C18.3 17.9 20.8 17 24 17C26.9 17 29.5 17.7 31.5 19C32.4 19.6 33 20.2 33.5 20.8C33.9 21.4 34 21.8 34 22C34 22.2 33.9 22.5 33.4 22.9C32.5 23.5 32.3 23.9 32.2 24.8H32ZM22.6 27C21.3 26.9 20.1 26.7 19.2 26.5C18.7 26.4 18.3 26.3 18 26.2V23.7C18.8 23.4 20.7 23 24 23C27.3 23 29.2 23.4 30 23.7V26.2C29.7 26.3 29.3 26.4 28.8 26.5C27.9 26.7 26.7 26.9 25.4 27C25.5 26.9 25.5 26.7 25.5 26.5C25.5 25.7 24.8 25 24 25C23.2 25 22.5 25.7 22.5 26.5C22.5 26.7 22.6 26.8 22.6 27ZM24 31C20.2 31 18.5 29.3 18 28.7V28.3C18.2 28.4 18.5 28.4 18.8 28.5C20.1 28.8 21.9 29 24 29C26.1 29 27.9 28.7 29.2 28.4C29.5 28.3 29.8 28.3 30 28.2V28.6C29.5 29.3 27.8 31 24 31ZM24 33C28.7 33 30.9 30.8 31.6 29.9C31.9 29.6 32 29.1 32 28.8V25.8C32.4 25.7 32.9 25.5 33.5 25.2C34 24.9 34.7 24.6 35.1 24.1C35.6 23.6 36 22.9 36 22C36 21.2 35.6 20.3 35 19.6C34.4 18.8 33.6 18 32.6 17.4C30.5 16 27.6 15 24 15C20.4 15 17.5 16 15.4 17.3C14.4 18 13.5 18.8 13 19.6C12.4 20.3 12 21.2 12 22C12 22.9 12.4 23.6 12.9 24C13.4 24.6 14 24.9 14.6 25.2C15.1 25.4 15.6 25.6 16 25.8V28.8C16 29.2 16.1 29.6 16.4 29.9C17.1 30.8 19.3 33 24 33Z" fill="#FEE600"/>
</svg>
