<svg width="48" height="48" viewBox="0 0 48 48" fill="none" xmlns="http://www.w3.org/2000/svg">
<rect width="48" height="48" rx="12" fill="#2B2D33"/>
<path d="M24 25C23.4 25 23 24.6 23 24C23 23.4 23.4 23 24 23C24.6 23 25 23.4 25 24C25 24.6 24.6 25 24 25ZM24 27C25.7 27 27 25.7 27 24C27 22.3 25.7 21 24 21C22.3 21 21 22.3 21 24C21 25.7 22.3 27 24 27ZM24 29C21.8 29 19.5 27.7 17.1 25C16.5 24.4 16.1 24.2 15.1 24V23.9C16.1 23.8 16.5 23.6 17.1 22.9C19.5 20.3 21.8 19 24 19C26.2 19 28.5 20.3 30.9 23C31.5 23.6 31.9 23.8 32.9 24V24.1C31.9 24.2 31.5 24.4 30.9 25.1C28.5 27.7 26.2 29 24 29ZM24 31C27.3 31 30.6 28.8 33.8 24.6C34.1 24.2 34.1 23.7 33.8 23.4C30.6 19.2 27.3 17 24 17C20.7 17 17.4 19.2 14.2 23.4C13.9 23.8 13.9 24.3 14.2 24.6C17.4 28.8 20.7 31 24 31Z" fill="#FEE600"/>
</svg>
