<svg width="48" height="48" viewBox="0 0 48 48" fill="none" xmlns="http://www.w3.org/2000/svg">
<rect width="48" height="48" rx="12" fill="#2B2D33"/>
<path d="M33.8 24.3C34.1 23.9 34.1 23.4 33.8 23.1C30.6 18.9 27.3 16.7 24 16.7C22.5 16.7 21.1 17.1 19.7 18L17.7 16L16.3 17.4L18 19.1C16.7 20.1 15.5 21.4 14.2 23.1C13.9 23.5 13.9 24 14.2 24.3C17.4 28.5 20.7 30.7 24 30.7C25.5 30.7 26.9 30.3 28.3 29.4L30.3 31.4L31.7 30L30 28.3C31.3 27.3 32.5 26 33.8 24.3ZM24 28.7C21.8 28.7 19.5 27.4 17.1 24.7C16.5 24.1 16.1 23.9 15.1 23.7V23.6C16.1 23.5 16.5 23.3 17.1 22.6C17.9 21.7 18.6 21 19.4 20.4L26.8 27.8C25.9 28.4 24.9 28.7 24 28.7ZM30.9 24.7C30.1 25.6 29.4 26.3 28.6 26.9L21.1 19.4C22.1 19 23.1 18.7 24 18.7C26.2 18.7 28.5 20 30.9 22.7C31.5 23.3 31.9 23.5 32.9 23.7V23.8C31.9 23.9 31.4 24.1 30.9 24.7Z" fill="#FEE600"/>
</svg>
