<svg width="48" height="48" viewBox="0 0 48 48" fill="none" xmlns="http://www.w3.org/2000/svg">
<rect width="48" height="48" rx="12" fill="#2B2D33"/>
<path d="M18.8995 28H21.3995L18.8995 25C18.2995 24.3 17.8995 24.1 16.9995 24V23.9C17.8995 23.8 18.3995 23.6 18.8995 22.9L21.3995 19.9H18.8995L15.9995 23.4V20H13.9995V28H15.9995V24.6L18.8995 28Z" fill="#FEE600"/>
<path d="M22.9995 26V28H28.9995V26H26.9995V20H24.9995L22.9995 21V23L24.9995 22V26H22.9995Z" fill="#FEE600"/>
<path d="M23.9995 14C21.2995 14 18.7995 15.1 16.8995 16.9L18.2995 18.3C19.7995 16.8 21.7995 16 23.9995 16C28.3995 16 31.9995 19.6 31.9995 24C31.9995 28.4 28.3995 32 23.9995 32C21.8995 32 19.7995 31.1 18.2995 29.7L16.8995 31.1C18.7995 32.9 21.2995 34 23.9995 34C29.4995 34 33.9995 29.5 33.9995 24C33.9995 18.5 29.4995 14 23.9995 14Z" fill="#FEE600"/>
</svg>
