<svg width="48" height="48" viewBox="0 0 48 48" fill="none" xmlns="http://www.w3.org/2000/svg">
<rect width="48" height="48" rx="12" fill="#2B2D33"/>
<path d="M18.8995 28H21.3995L18.8595 25.02C18.2895 24.36 17.8295 24.12 16.9395 24.06V23.94C17.8295 23.88 18.2995 23.65 18.8595 22.99L21.3995 20H18.8995L15.9995 23.41V20H13.9995V28H15.9995V24.59L18.8995 28Z" fill="#FEE600"/>
<path d="M21.9995 26.03V28H27.9995V26H25.0295V25.88C27.4095 25.1 27.9995 23.59 27.9995 22.39C27.9995 20.86 26.7895 19.79 25.0995 19.79C23.2895 19.79 21.9995 21.14 21.9995 22.79H23.9995C23.9995 22.24 24.4395 21.79 25.0495 21.79C25.6195 21.79 25.9995 22.16 25.9995 22.69C25.9995 23.93 24.7295 24.92 21.9995 26.03Z" fill="#FEE600"/>
<path d="M23.9995 14C21.3095 14 18.7895 15.07 16.9295 16.93L18.3395 18.34C19.8295 16.85 21.8395 16 23.9995 16C28.4095 16 31.9995 19.58 31.9995 24C31.9995 28.42 28.4095 32 23.9995 32C21.8495 32 19.8295 31.15 18.3395 29.66L16.9295 31.07C18.7895 32.93 21.3095 34 23.9995 34C29.5195 34 33.9995 29.52 33.9995 24C33.9995 18.48 29.5195 14 23.9995 14Z" fill="#FEE600"/>
</svg>
