<svg width="48" height="48" viewBox="0 0 48 48" fill="none" xmlns="http://www.w3.org/2000/svg">
<rect width="48" height="48" rx="12" fill="#2B2D33"/>
<path d="M25 15H25.1C25.3 16.1 25.6 16.6 26.8 16.9C27.8 17.2 29.4 17.6 31 17.7V24C31 26.7 29.3 28.7 27.4 30.1C27.1 30.3 26.6 30.6 26.2 30.9C25.5 31.3 25.2 31.9 25.1 32.9H25V15ZM23 31.5C22.2 31 21.4 30.6 20.6 30C18.7 28.6 17 26.6 17 24V17.7C19 17.5 20.8 17.1 23 16.3V31.5ZM24 34C24.7 34 27.5 32.5 28.6 31.7C30.7 30.2 33 27.6 33 24V16.7C33 16.2 32.6 15.8 32.1 15.8C29.9 15.8 26.5 14.9 24.3 14H23.7C21.5 14.9 18.1 15.8 15.9 15.8C15.4 15.8 15 16.2 15 16.7V24C15 27.6 17.3 30.1 19.4 31.7C20.5 32.5 23.3 34 24 34Z" fill="#FEE600"/>
</svg>
