<svg width="48" height="48" viewBox="0 0 48 48" fill="none" xmlns="http://www.w3.org/2000/svg">
<rect width="48" height="48" rx="12" fill="#2B2D33"/>
<path d="M24 21C24.8 21 25.5 20.3 25.5 19.5C25.5 18.7 24.8 18 24 18C23.2 18 22.5 18.7 22.5 19.5C22.5 20.3 23.2 21 24 21ZM15.9 24.4C15.9 23.1 15.7 22.6 15.2 21.9L14.3 21L16.8 17.6L24 15.1L31.2 17.6L33.7 21L32.8 22C32.2 22.6 32.1 23.1 32.1 24.5H32C32 23.8 31.9 23.6 31.1 23.3C29.1 22.4 25.9 22 24 22C22.1 22 18.9 22.4 16.9 23.2C16.1 23.5 16 23.7 16 24.4H15.9ZM24 27C20.8 27 18.9 26.6 18 26.3V24.9C19.1 24.6 21.4 24 24 24C26.6 24 28.9 24.6 30 24.9V26.2C29.1 26.6 27.2 27 24 27ZM24 33C20.2 33 18.4 30.5 18 29.8V28.4C19.2 28.7 21.1 29 24 29C26.9 29 28.8 28.7 30 28.4V29.8C29.6 30.5 27.7 33 24 33ZM24 35C29.6 35 31.8 30.7 31.9 30.5C32 30.4 32 30.2 32 30V25.8L35.7 21.7C36 21.3 36 20.8 35.8 20.4L32.7 16.1C32.6 15.9 32.4 15.8 32.2 15.8L24.3 13C24.1 12.9 23.9 12.9 23.6 13L15.8 15.8C15.6 15.9 15.5 16 15.3 16.2L12.2 20.5C11.9 20.9 12 21.4 12.3 21.8L16 25.9V30.1C16 30.3 16 30.4 16.1 30.6C16.2 30.7 18.5 35 24 35Z" fill="#FEE600"/>
</svg>
