<svg width="48" height="48" viewBox="0 0 48 48" fill="none" xmlns="http://www.w3.org/2000/svg">
<rect width="48" height="48" rx="12" fill="#2B2D33"/>
<path d="M24 21C24.8 21 25.5 20.3 25.5 19.5C25.5 18.7 24.8 18 24 18C23.2 18 22.5 18.7 22.5 19.5C22.5 20.3 23.2 21 24 21ZM15.9 24.1C15.9 23.1 15.8 22.8 15.2 22.2L14.3 21.5C15.6 19.6 19.3 15 24 15C28.7 15 32.4 19.6 33.7 21.5L32.8 22.3C32.2 22.9 32.1 23.2 32.1 24.2H32C32 23.5 31.9 23.3 31.1 23C29.3 22.3 25.9 21.8 24 21.8C22.1 21.8 18.7 22.2 16.9 22.9C16.1 23.2 16 23.4 16 24.1H15.9ZM24 27C20.8 27 18.9 26.6 18 26.3V24.7C19.1 24.4 21.5 23.7 24 23.7C26.5 23.7 28.9 24.3 30 24.7V26.3C29.1 26.6 27.2 27 24 27ZM24 33C20.2 33 18.4 30.5 18 29.8V28.4C19.2 28.7 21.1 29 24 29C26.9 29 28.8 28.7 30 28.4V29.8C29.5 30.5 27.7 33 24 33ZM24 35C29.6 35 31.8 30.6 31.9 30.4C32 30.3 32 30.1 32 29.7V25.7L35.7 22.4C36 22.1 36.1 21.6 35.9 21.2C35.1 19.6 30.4 13 24 13C17.6 13 12.9 19.6 12.1 21.2C11.9 21.6 12 22.2 12.3 22.5L16 25.7V29.7C16 30.1 16 30.2 16.1 30.4C16.2 30.6 18.4 35 24 35Z" fill="#FEE600"/>
</svg>
