<svg width="48" height="48" viewBox="0 0 48 48" fill="none" xmlns="http://www.w3.org/2000/svg">
<rect width="48" height="48" rx="12" fill="#2B2D33"/>
<path d="M32.5 24.5C32.3 21.4 31.3 18 29 18H27.8L27 14.8C26.9 14.3 26.5 14 26 14H22C21.5 14 21.1 14.3 21 14.8L20.2 18H19C16.6 18 15.7 21.6 15.5 24.5C14.6 25.3 14 26.3 14 27.3V34C14 34.5 14.4 35 15 35H19C19.5 35 20 34.5 20 34V31.6H20.1C20.2 32.5 20.8 33 21.9 33H26.1C27.2 33 27.7 32.5 27.9 31.6H28V34C28 34.5 28.4 35 29 35H33C33.5 35 34 34.5 34 34V27.3C34 26.2 33.4 25.3 32.5 24.5ZM22.8 16H25.2L25.7 18H22.3L22.8 16ZM19 20H29C29.6 20 30.3 22.5 30.4 24H17.6C17.7 22.5 18.4 20 19 20ZM28.6 29.3C28.8 29.8 29.3 30 29.9 29.9L30.6 29.8C31.6 29.6 31.8 29.1 31.9 28.3H32V33H30V31H18V33H16V28.3H16.1C16.2 29.1 16.4 29.6 17.4 29.8L18.1 29.9C18.7 30 19.2 29.8 19.4 29.3C19.6 28.8 19.3 28.2 18.8 28L16 27.3C16 26.8 16.4 26.4 16.8 26H31.1C31.5 26.4 31.9 26.8 31.9 27.3L29.3 28C28.8 28.2 28.5 28.8 28.6 29.3Z" fill="#FEE600"/>
</svg>
