<svg width="48" height="48" viewBox="0 0 48 48" fill="none" xmlns="http://www.w3.org/2000/svg">
<rect width="48" height="48" rx="12" fill="#2B2D33"/>
<path d="M25.8 27C26.1 27 26.3 26.8 26.3 26.5C26.3 26.4 26.3 26.4 26.3 26.3L25.7 24.3C25.7 24.3 25.7 24.2 25.7 24.1C25.7 24 25.8 23.8 25.9 23.7L27.5 22.5C27.6 22.4 27.7 22.3 27.7 22.1C27.7 21.8 27.5 21.6 27.2 21.6H25.2C25 21.6 24.8 21.5 24.7 21.3L24.1 19.4C24.1 19.1 23.9 19 23.7 19C23.5 19 23.3 19.1 23.2 19.4L22.6 21.3C22.5 21.5 22.3 21.6 22.1 21.6H20.1C19.8 21.6 19.6 21.8 19.6 22.1C19.6 22.2 19.7 22.4 19.8 22.5L21.4 23.7C21.5 23.8 21.6 23.9 21.6 24.1V24.2L21 26.2C21 26.3 21 26.3 21 26.4C21 26.8 21.2 27 21.5 27C21.6 27 21.7 27 21.8 26.9L23.3 25.7C23.4 25.6 23.5 25.6 23.6 25.6C23.7 25.6 23.8 25.6 23.9 25.7L25.4 26.9C25.6 26.9 25.7 27 25.8 27ZM23.6 32.9C23.6 32.1 23.3 31.6 22.4 31.3C21.8 31.1 21 30.7 20.2 30.2C18.2 29 16.7 27.3 16.7 24.9C16.7 23.7 17.7 23.2 17.7 20.8C17.7 19.2 16.9 17.8 16.4 17L17.2 16.2C18 16.5 19.6 16.8 20.6 16.8C21.9 16.8 22.9 16.5 23.6 16.2C24.3 16.5 25.3 16.8 26.6 16.8C27.7 16.8 29.2 16.5 30.1 16.2L31 17C30.4 17.9 29.7 19.3 29.7 20.8C29.7 23.2 30.7 23.6 30.7 24.9C30.7 27.3 29.1 29 27.2 30.2C26.4 30.7 25.6 31 25 31.3C24.2 31.6 23.9 32.1 23.8 32.9H23.6ZM23.6 33.8C25.4 33.3 26.6 32.8 28.1 31.9C30.3 30.5 32.6 28.3 32.6 24.9C32.6 23 31.6 22.7 31.6 20.8C31.6 18.6 33.2 17.7 33.2 16.8C33.2 16.6 33.1 16.3 32.9 16.1L31 14.2C30.9 14.1 30.7 14 30.4 14C30.3 14 30.2 14 30 14.1C28.7 14.6 27.8 14.8 26.6 14.8C24.7 14.8 24.2 14 23.6 14C23 14 22.5 14.8 20.6 14.8C19.4 14.8 18.5 14.5 17.2 14.1C17.1 14 17 14 16.9 14C16.6 14 16.3 14.1 16.2 14.3L14.3 16.2C14.1 16.3 14 16.6 14 16.8C14 17.7 15.6 18.5 15.6 20.8C15.6 22.7 14.6 23 14.6 24.9C14.6 28.3 16.8 30.5 19.1 31.9C20.6 32.8 21.9 33.3 23.6 33.8Z" fill="#FEE600"/>
</svg>
