<svg width="24" height="24" viewBox="0 0 24 24" fill="none" xmlns="http://www.w3.org/2000/svg">
<path d="M21 7C21.55 7 22 6.55 22 6V2C22 1.45 21.55 1 21 1H13C12.45 1 12 1.45 12 2V6C12 6.55 12.45 7 13 7H16V9H5C4.45 9 4 9.45 4 10V16H3C2.45 16 2 16.45 2 17V21C2 21.55 2.45 22 3 22H21C21.55 22 22 21.55 22 21V17C22 16.45 21.55 16 21 16H20V10C20 9.45 19.55 9 19 9H18V7H21ZM20 20H4V18H20V20ZM18 14.01C18 14.97 18.49 15.61 19.33 15.88V16H4.67V15.88C5.51 15.61 6 14.97 6 14.01V11H18V14.01ZM14 5V3H20V5H14Z" fill="#2B2D33"/>
<path d="M9 12.29C8.33 12.29 7.79 12.83 7.79 13.5C7.79 14.17 8.33 14.71 9 14.71C9.67 14.71 10.21 14.17 10.21 13.5C10.21 12.83 9.67 12.29 9 12.29Z" fill="#2B2D33"/>
<path d="M13 12.29C12.33 12.29 11.79 12.83 11.79 13.5C11.79 14.17 12.33 14.71 13 14.71C13.67 14.71 14.21 14.17 14.21 13.5C14.21 12.83 13.67 12.29 13 12.29Z" fill="#2B2D33"/>
</svg>
