<svg width="24" height="24" viewBox="0 0 24 24" fill="none" xmlns="http://www.w3.org/2000/svg">
<path d="M4.03 20L11.13 13.98C11.39 13.76 11.66 13.64 11.95 13.64C12.22 13.64 12.52 13.75 12.84 13.99L19.92 20H4.03ZM2.96 18.29C2.31 18.84 2 19.5 2 20.13C2 21.13 2.75 22 4.03 22H19.92C21.2 22 22 21.06 22 20.05C22 19.5 21.75 18.93 21.21 18.47L13.7 12.09C13.12 11.6 12.97 11.39 12.97 11C12.97 9.96 15.97 9.16 15.97 6C15.97 3.8 14.17 2 11.97 2C9.77 2 7.97 3.8 7.97 6H9.97C9.97 4.89 10.86 4 11.97 4C13.08 4 13.97 4.89 13.97 6C13.97 8.36 10.97 8.82 10.97 11.13C10.97 11.77 11.11 12.25 11.48 12.73L11.4 12.81C11.11 12.68 10.81 12.61 10.5 12.61C9.95 12.61 9.39 12.81 8.92 13.21L2.96 18.29Z" fill="#2B2D33"/>
</svg>
