<svg width="24" height="24" viewBox="0 0 24 24" fill="none" xmlns="http://www.w3.org/2000/svg">
<path d="M20.78 4H4.82L4.66 3.21C4.49 2.35 3.99 2 3.21 2H0V4H2.78L4.54 12.78C4.7 13.59 5.05 13.88 6 13.88V14C4.35 14 3 15.35 3 17C3 18.36 3.9 19.5 5.13 19.87C5.05 20.06 5 20.28 5 20.5C5 21.33 5.67 22 6.5 22C7.33 22 8 21.33 8 20.5C8 20.32 7.97 20.16 7.91 20H17.08C17.03 20.16 17 20.32 17 20.5C17 21.33 17.67 22 18.5 22C19.33 22 20 21.33 20 20.5C20 20.32 19.97 20.16 19.91 20H21V18H6C5.45 18 5 17.55 5 17C5 16.45 5.45 16 6 16H18.36C19.79 16 21.02 14.99 21.3 13.59L22.74 6.39C22.99 5.15 22.04 4 20.78 4ZM19.34 13.2C19.24 13.66 18.83 14 18.36 14H6.83L4.97 4.73H5.09C5.3 5.61 5.67 6 6.7 6H20.78L19.34 13.2Z" fill="#2B2D33"/>
</svg>
