<svg width="24" height="24" viewBox="0 0 24 24" fill="none" xmlns="http://www.w3.org/2000/svg">
<path d="M22 5H19V4C19 1.78 17.22 0 15 0C12.79 0 11 1.78 11 4V5H9C6.79 5 5 6.78 5 9V10H2C0.9 10 0 10.9 0 12V22C0 23.1 0.9 24 2 24H16C17.11 24 18 23.11 18 22V20H22C23.11 20 24 19.11 24 18V7C24 5.89 23.11 5 22 5ZM15 2C16.12 2 17 2.88 17 4V5H13V4C13 2.88 13.88 2 15 2ZM7 9C7 7.88 7.88 7 9 7C10.12 7 11 7.88 11 9V10H8.86C7.95 10 7.35 10.46 7.12 11.33H7V9ZM16 22H2V12H5V14H7V12H11V14H13V12H16V22ZM22 18H18V12C18 10.89 17.11 10 16 10H14.86C13.95 10 13.35 10.46 13.12 11.33H13V9C13 8.27 12.79 7.59 12.45 7H22V18Z" fill="#2B2D33"/>
</svg>
