<svg width="24" height="24" viewBox="0 0 24 24" fill="none" xmlns="http://www.w3.org/2000/svg">
<path d="M7.66908 9.28735L6.25308 10.6998L10.003 14.4592L11.419 13.0468L7.66908 9.28735Z" fill="#2B2D33"/>
<path d="M20.4986 10.47L17.9986 8.02V6.72C17.9986 6.45 17.8986 6.2 17.7086 6.01L16.9186 5.22L19.7086 2.43L18.2886 1L15.4986 3.8L14.7086 3C14.5286 2.81 14.2686 2.71 13.9986 2.71H8.99859C8.73859 2.71 8.47859 2.81 8.28859 3L1.28859 10C0.898594 10.39 0.898594 11.03 1.28859 11.42L6.99859 17.13V21.7C6.99859 22.25 7.44859 22.7 7.99859 22.7H19.9986C20.5486 22.7 20.9986 22.25 20.9986 21.7V11.78C20.9986 11.12 20.8886 10.86 20.4986 10.47ZM9.41859 4.71H13.2986C14.3086 4.71 14.5686 4.55 15.0186 4.13L15.1086 4.21L13.5886 5.71C13.5586 5.71 13.5286 5.71 13.4986 5.71C12.6686 5.71 11.9986 6.38 11.9986 7.21C11.9986 8.04 12.6686 8.71 13.4986 8.71C14.3286 8.71 14.9986 8.04 14.9986 7.21C14.9986 7.18 14.9986 7.15 14.9986 7.13L16.4986 5.61L16.5786 5.7C16.1586 6.15 15.9986 6.41 15.9986 7.42V11.3L9.99859 17.3L3.41859 10.71L9.41859 4.71ZM18.9986 20.7H8.99859V20.31C8.99859 19.59 8.89859 19.23 8.38859 18.65L8.44859 18.59L9.27859 19.42C9.67859 19.82 10.3086 19.81 10.6986 19.42L17.6986 12.42C17.8986 12.23 17.9986 11.98 17.9986 11.71V10.04H18.1186C18.1186 10.81 18.3386 11.14 18.8486 11.65L18.9986 11.8V20.7Z" fill="#2B2D33"/>
</svg>
