<svg width="24" height="24" viewBox="0 0 24 24" fill="none" xmlns="http://www.w3.org/2000/svg">
<path d="M22.59 2.9C21.4 1.71 19.44 1.7 18.28 2.87L15.28 5.9L6.11998 3.09C5.73998 2.97 5.38998 3.06 5.11998 3.34L4.16998 4.32C3.71998 4.79 3.76998 5.37 4.22998 5.76L9.41998 10.34C9.84998 10.72 10.29 10.66 10.74 10.37L10.82 10.44L7.51998 13.84L4.05998 13.29C3.69998 13.24 3.44998 13.33 3.20998 13.58L1.28998 15.57C0.819984 16.06 0.919984 16.85 1.54998 17.15L7.34998 19.85C7.71998 20.02 8.12998 19.98 8.44998 19.71L13.57 15.36L19.71 21.63C19.9 21.82 20.16 21.93 20.43 21.93C20.69 21.93 20.96 21.81 21.15 21.62L22.09 20.66C22.34 20.4 22.43 20.03 22.34 19.68L19.61 10.27L22.58 7.18C23.75 6.01 23.76 4.07 22.59 2.9ZM6.82998 5.4L12.23 7.05C13.02 7.29 13.66 7.13 14.38 6.67L14.46 6.73L11.64 9.62L6.82998 5.4ZM17.77 9.29C17.52 9.55 17.42 9.92 17.53 10.27L20.11 19.18L14.34 13.29C13.97 12.92 13.38 12.89 12.98 13.23L7.65998 17.77L3.65998 15.99L4.34998 15.28L7.60998 15.9C8.06998 15.99 8.30998 15.9 8.56998 15.63L16.29 7.73L19.69 4.29C20.11 3.87 20.75 3.88 21.18 4.3C21.59 4.72 21.59 5.35 21.18 5.77L17.77 9.29Z" fill="white"/>
</svg>
