<svg width="24" height="24" viewBox="0 0 24 24" fill="none" xmlns="http://www.w3.org/2000/svg">
<path d="M17 3.59L18.59 2H21V4H19.42L19 4.41V5.59L19.42 6H21V8H18.59L17 6.41V6H8.4C7.6 6 7.23 5.69 7.12 5H7V6.41L5.42 8H3V6H4.59L5 5.59V4.41L4.59 4H3V2H5.42L7 3.59V4H15.6C16.4 4 16.77 4.31 16.88 5H17V3.59ZM7.15 13C7.25 12.52 7.4 11.96 7.57 11.44C7.75 10.91 7.94 10.46 8.12 10.16C8.16 10.09 8.2 10.04 8.23 10H15.78C15.8 10.04 15.84 10.09 15.88 10.16C16.06 10.46 16.25 10.91 16.43 11.44C16.6 11.96 16.75 12.52 16.85 13H7.15ZM6 20V17.62L6.55 17.89C7.05 18.14 7.65 17.94 7.9 17.45C8.14 16.95 7.94 16.35 7.45 16.11L6.17 15.46C6.21 15.37 6.27 15.28 6.33 15.18C6.38 15.11 6.42 15.05 6.46 15H17.54C17.58 15.05 17.63 15.11 17.67 15.18C17.73 15.28 17.79 15.37 17.84 15.46L16.55 16.11C16.06 16.35 15.86 16.95 16.11 17.45C16.35 17.94 16.95 18.14 17.45 17.89L18 17.62V20H16V19H8V20H6ZM5 22H9C9.55 22 10 21.55 10 21H14C14 21.55 14.45 22 15 22H19C19.55 22 20 21.55 20 21V16.02C20 16 20 15.99 20 15.97C19.99 15.18 19.61 14.49 19.33 14.07C19.21 13.88 19.08 13.72 18.98 13.59C18.94 13.29 18.88 12.94 18.81 12.59C18.69 12.04 18.53 11.41 18.32 10.81C18.13 10.22 17.88 9.61 17.59 9.13C17.45 8.89 17.27 8.64 17.05 8.43C16.83 8.23 16.47 8 16 8H8C7.53 8 7.18 8.23 6.96 8.43C6.73 8.64 6.55 8.89 6.41 9.13C6.12 9.61 5.87 10.22 5.68 10.81C5.48 11.41 5.31 12.04 5.19 12.59C5.12 12.94 5.06 13.29 5.03 13.59C4.92 13.72 4.8 13.88 4.67 14.07C4.39 14.49 4.01 15.18 4 15.97C4 15.99 4 16 4 16.02V21C4 21.55 4.45 22 5 22Z" fill="white"/>
</svg>
