<svg width="24" height="24" viewBox="0 0 24 24" fill="none" xmlns="http://www.w3.org/2000/svg">
<path d="M19 12C17.72 12 16.59 12.62 15.85 13.56L15.75 13.47C16.24 12.76 16.32 11.91 15.78 11.37L15.52 11.11C16.51 10.41 17.71 10 19 10C19.37 10 19.71 9.8 19.88 9.47C20.06 9.15 20.04 8.75 19.83 8.45L17.83 5.45C17.65 5.17 17.34 5 17 5H14V7H16.47L17.26 8.19C15 8.69 13.09 10.15 12 12.12C10.64 9.66 8.01 8 5 8H3V10H5C6.3 10 7.5 10.41 8.48 11.11L8.22 11.37C7.69 11.91 7.76 12.76 8.25 13.47L8.15 13.56C7.42 12.62 6.29 12 5 12C2.8 12 1 13.8 1 16C1 18.2 2.8 20 5 20C7.22 20 9 18.2 9 16C9 15.26 8.79 14.58 8.44 13.99L9.89 12.52C10.59 13.5 11 14.7 11 16C11 16.59 11.42 17 12 17C12.58 17 13 16.59 13 16C13 14.7 13.41 13.5 14.11 12.52L15.56 13.99C15.21 14.58 15 15.27 15 16C15 18.2 16.8 20 19 20C21.22 20 23 18.2 23 16C23 13.8 21.22 12 19 12ZM5 18C3.9 18 3 17.1 3 16C3 14.9 3.9 14 5 14C6.11 14 7 14.9 7 16C7 17.1 6.11 18 5 18ZM19 18C17.9 18 17 17.1 17 16C17 14.9 17.9 14 19 14C20.11 14 21 14.9 21 16C21 17.1 20.11 18 19 18Z" fill="white"/>
</svg>
