<svg width="24" height="24" viewBox="0 0 24 24" fill="none" xmlns="http://www.w3.org/2000/svg">
<path d="M21.33 8.07C21.21 7.88 21.08 7.72 20.98 7.59C20.94 7.29 20.88 6.94 20.81 6.59C20.69 6.04 20.53 5.41 20.32 4.81C20.13 4.22 19.88 3.61 19.59 3.13C19.45 2.89 19.27 2.64 19.05 2.43C18.83 2.23 18.47 2 18 2H10C9.58 2 9.27 2.22 9.12 2.35C8.95 2.5 8.81 2.67 8.7 2.83C8.48 3.15 8.28 3.54 8.12 3.91C7.95 4.29 7.8 4.68 7.7 5.02C7.65 5.19 7.6 5.36 7.57 5.51C7.54 5.64 7.5 5.82 7.5 6H9.5C9.5 6.02 9.5 6.03 9.5 6.03C9.5 6.03 9.5 6.01 9.52 5.95C9.54 5.86 9.57 5.75 9.61 5.62C9.69 5.35 9.81 5.02 9.95 4.71C10.08 4.42 10.21 4.17 10.32 4H17.78C17.8 4.04 17.84 4.09 17.88 4.16C18.06 4.46 18.25 4.91 18.43 5.44C18.6 5.96 18.75 6.52 18.85 7H16.5L17.5 9H19.54C19.58 9.05 19.63 9.11 19.67 9.18C19.73 9.28 19.79 9.37 19.84 9.46L18.55 10.11C18.06 10.35 17.86 10.95 18.11 11.45C18.35 11.94 18.95 12.14 19.45 11.89L20 11.62V14H19.7C18.6 14 18 14.29 18 15.43H17.93C17.81 14.87 17.54 14.39 17.33 14.07C17.2 13.88 17.08 13.72 16.97 13.59C16.94 13.29 16.88 12.94 16.81 12.59C16.69 12.04 16.53 11.41 16.32 10.81C16.13 10.22 15.88 9.61 15.59 9.13C15.45 8.89 15.27 8.64 15.05 8.43C14.83 8.23 14.47 8 14 8H6C5.53 8 5.18 8.23 4.96 8.43C4.73 8.64 4.55 8.89 4.41 9.13C4.12 9.61 3.87 10.22 3.68 10.81C3.48 11.41 3.31 12.04 3.19 12.59C3.12 12.94 3.06 13.29 3.03 13.59C2.92 13.72 2.8 13.88 2.67 14.07C2.39 14.49 2.01 15.18 2 15.97C2 15.99 2 16 2 16.02V21C2 21.55 2.45 22 3 22H7C7.55 22 8 21.55 8 21H12C12 21.55 12.45 22 13 22H17C17.55 22 18 21.55 18 21V16H21C21.55 16 22 15.55 22 15V10.03C22 10.01 22 9.98 22 9.96C21.99 9.18 21.61 8.49 21.33 8.07ZM5.57 11.44C5.75 10.91 5.94 10.46 6.12 10.16C6.16 10.09 6.2 10.04 6.23 10H13.78C13.8 10.04 13.84 10.09 13.88 10.16C14.06 10.46 14.25 10.91 14.43 11.44C14.6 11.96 14.75 12.52 14.85 13H5.15C5.25 12.52 5.4 11.96 5.57 11.44ZM16 20H14V19H6V20H4V17.62L4.55 17.89C5.05 18.14 5.65 17.94 5.9 17.45C6.14 16.95 5.94 16.35 5.45 16.11L4.17 15.46C4.21 15.37 4.27 15.28 4.33 15.18C4.38 15.11 4.42 15.05 4.46 15H15.54C15.58 15.05 15.63 15.11 15.67 15.18C15.73 15.28 15.79 15.37 15.84 15.46L14.55 16.11C14.06 16.35 13.86 16.95 14.11 17.45C14.35 17.94 14.95 18.14 15.45 17.89L16 17.62V20Z" fill="white"/>
</svg>
