<svg width="24" height="24" viewBox="0 0 24 24" fill="none" xmlns="http://www.w3.org/2000/svg">
<path d="M22.97 5V3H4.97V5H12.97V7H4.25L3.94 5.76L2 6.24L2.69 9H6.35L10.78 16.67L10.19 19H7.97V21H21.97V19H19.75L19.25 17H21.59L21.87 16.45V16.44L21.88 16.41C21.89 16.39 21.9 16.37 21.92 16.33C21.95 16.27 21.99 16.17 22.05 16.05C22.15 15.81 22.28 15.47 22.42 15.07C22.69 14.27 22.97 13.15 22.97 12C22.97 9.44 20.53 7.86 17.07 7H14.97V6.26C14.97 5.55 14.55 5.12 13.77 5.12V5H22.97ZM12.25 19L12.75 17H17.19L17.69 19H12.25ZM20.63 11H17.75L17.28 9.11C18.27 9.31 20.06 10.22 20.63 11ZM15.19 9L16 12.24C16.11 12.69 16.51 13 16.97 13H20.88C20.8 13.51 20.66 14.01 20.52 14.43C20.45 14.65 20.38 14.84 20.32 15H12.13L8.67 9H15.19Z" fill="white"/>
</svg>
