<svg width="24" height="24" viewBox="0 0 24 24" fill="none" xmlns="http://www.w3.org/2000/svg">
<path d="M15.5183 8.87985L10.5686 13.8296L11.9828 15.2438L16.9325 10.2941L15.5183 8.87985Z" fill="white"/>
<path d="M20.67 19C21.52 17.53 22.01 15.83 22.01 14.01C22.01 8.47 17.53 4 12.01 4C6.48 4 2 8.47 2 14.01C2 15.83 2.49 17.53 3.34 19H1V21H23V19H20.67ZM4.06 15H7V13H5.92C4.92 13 4.32 13.58 4.12 14.61H4.04C4.02 14.41 4 14.21 4 14.01C4 9.92 7.06 6.57 11 6.07V9H13V7.92C13 6.93 12.43 6.33 11.39 6.12V6.03C11.6 6.02 11.8 6 12.01 6C16.08 6 19.44 9.05 19.94 13H16.99V15H18.07C19.06 15 19.66 14.43 19.87 13.39H19.98C20 13.6 20.01 13.8 20.01 14.01C20.01 15.9 19.34 17.63 18.23 19H5.78C4.87 17.87 4.25 16.51 4.06 15Z" fill="white"/>
</svg>
