<svg width="24" height="24" viewBox="0 0 24 24" fill="none" xmlns="http://www.w3.org/2000/svg">
<path d="M15 12H13V14H15V12Z" fill="white"/>
<path d="M9 10H7V12H9V10Z" fill="white"/>
<path d="M11 12H9V14H11V12Z" fill="white"/>
<path d="M13 10H11V12H13V10Z" fill="white"/>
<path d="M21.36 16L20.12 7.7C19.97 6.72 19.13 6 18.14 6H5.86C4.87 6 4.04 6.72 3.89 7.7L2.64 16H1V18H23V16H21.36ZM20.41 16H3.59V15.88C4.47 15.71 4.75 15.38 4.89 14.46L5.86 8H18.14L19.11 14.46C19.25 15.38 19.53 15.71 20.41 15.88V16Z" fill="white"/>
<path d="M17 10H15V12H17V10Z" fill="white"/>
</svg>
