<svg width="24" height="24" viewBox="0 0 24 24" fill="none" xmlns="http://www.w3.org/2000/svg">
<path d="M15.18 5H12L9.29 2.29C9.11 2.11 8.85 2 8.59 2H6.73C6.46 2 6.32 2.32 6.51 2.51L7.98 3.98C8.59 4.59 9.23 4.78 10.18 4.88V5H7C5.45 5 4 6.45 4 8V21C4 21.55 4.45 22 5 22H9C9.55 22 10 21.55 10 21H14C14 21.55 14.45 22 15 22H19C19.55 22 20 21.55 20 21V8C20 6.44 18.55 5 17 5L14.29 2.29C14.11 2.11 13.85 2 13.59 2H11.73C11.46 2 11.32 2.32 11.51 2.51L12.98 3.98C13.59 4.59 14.23 4.78 15.18 4.88V5ZM12 13C9.93 13 7.54 12.64 6 12.2V8C6 7.55 6.55 7 7 7H17C17.45 7 18 7.56 18 8V12.2C16.49 12.63 14.09 13 12 13ZM6 20V17.62L6.55 17.89C7.05 18.14 7.65 17.94 7.9 17.45C8.14 16.95 7.94 16.35 7.45 16.11L6 15.38V14.25C7.76 14.68 9.85 15 12 15C14.13 15 16.2 14.69 18 14.25V15.38L16.55 16.11C16.06 16.35 15.86 16.95 16.11 17.45C16.35 17.94 16.95 18.14 17.45 17.89L18 17.62V20H16V19H8V20H6Z" fill="white"/>
</svg>
