<svg width="24" height="24" viewBox="0 0 24 24" fill="none" xmlns="http://www.w3.org/2000/svg">
<path d="M19.49 6.74L16 6.15V5C16 4.45 15.55 4 15 4H3C2.45 4 2 4.45 2 5V18C2 19.66 3.34 21 5 21C6.48 21 7.7 19.94 7.95 18.53H8.08C8.08 19.46 8.43 20 9.38 20H14.62C15.57 20 15.92 19.46 15.92 18.53H16.05C16.3 19.94 17.52 21 19 21C20.66 21 22 19.66 22 18V9.69C22 8.23 20.94 6.98 19.49 6.74ZM5 19C4.45 19 4 18.55 4 18C4 17.45 4.45 17 5 17C5.55 17 6 17.45 6 18C6 18.55 5.55 19 5 19ZM5 15C4.67 15 4.33 15.06 4 15.17V6H14V15H5ZM8 18C8 17.67 7.94 17.33 7.83 17H16.17C16.06 17.33 16 17.67 16 18H8ZM19 19C18.45 19 18 18.55 18 18C18 17.45 18.45 17 19 17C19.55 17 20 17.45 20 18C20 18.55 19.55 19 19 19ZM20 11H18V13H20V15.17C19.67 15.06 19.33 15 19 15H16V8.18L19.17 8.71C19.65 8.79 20 9.21 20 9.69V11Z" fill="white"/>
</svg>
