<svg width="48" height="48" viewBox="0 0 48 48" fill="none" xmlns="http://www.w3.org/2000/svg">
<rect width="48" height="48" rx="12" fill="#2B2D33"/>
<g clip-path="url(#clip0_386_14588)">
<path d="M28.4 31H25.4V29H28.4V26H30.4V29H33.4V31H30.4V34H28.4V31V31ZM26.4 26.78V24.57C25.71 24.3 24.98 24.12 24.22 24.04V23.93C26.59 23.54 28.4 21.48 28.4 19C28.4 16.24 26.16 14 23.4 14C20.64 14 18.4 16.24 18.4 19C18.4 21.48 20.21 23.54 22.58 23.93V24.04C19.39 24.36 16.7 26.52 15.67 29.5C15.28 30.63 15.18 31.85 15.08 33.05L15 34H17.01L17.08 33.05C17.17 31.85 17.26 30.71 17.75 29.66C18.81 27.39 20.97 26 23.4 26C24.47 26 25.49 26.27 26.4 26.78ZM20.4 19C20.4 17.34 21.74 16 23.4 16C25.06 16 26.4 17.34 26.4 19C26.4 20.66 25.06 22 23.4 22C21.74 22 20.4 20.66 20.4 19Z" fill="white"/>
</g>
<defs>
<clipPath id="clip0_386_14588">
<rect width="18.4" height="20" fill="white" transform="translate(15 14)"/>
</clipPath>
</defs>
</svg>
