<svg width="48" height="48" viewBox="0 0 48 48" fill="none" xmlns="http://www.w3.org/2000/svg">
<rect width="48" height="48" rx="12" fill="#2B2D33"/>
<path d="M24 14C18.5 14 14 18.5 14 24C14 29.5 18.5 34 24 34C29.5 34 34 29.5 34 24C33.9 18.5 29.4 14 24 14ZM30.3 19.2C31.2 20.4 31.8 21.8 31.9 23.4C31.2 23.3 30.5 23.2 29.8 23.2C28.8 23.2 27.8 23.3 26.9 23.5C26.7 22.9 26.4 22.3 26.1 21.7C27.6 21 29 20.2 30.3 19.2ZM28.9 17.7C27.8 18.6 26.5 19.3 25.2 19.9C24.5 18.6 23.7 17.3 22.8 16.1C23.2 16 23.6 16 24 16C25.8 16 27.5 16.6 28.9 17.7ZM20.8 16.7C21.7 18 22.6 19.3 23.4 20.7C21.5 21.3 19.5 21.7 17.5 21.7C17.1 21.7 16.8 21.7 16.4 21.7C17.1 19.4 18.7 17.6 20.8 16.7ZM16 24C16 23.9 16 23.7 16 23.6C16.5 23.6 16.9 23.7 17.4 23.7C19.7 23.7 22 23.3 24.2 22.5C24.4 23 24.7 23.5 24.9 24C22.1 24.9 19.6 26.7 17.8 29C16.7 27.7 16 25.9 16 24ZM19.2 30.4C20.8 28.3 23.1 26.7 25.6 25.9C26.2 27.7 26.7 29.5 26.9 31.4C26 31.8 25 32 24 32C22.2 32 20.6 31.4 19.2 30.4ZM28.8 30.3C28.5 28.6 28.1 27 27.5 25.4C28.2 25.3 29 25.2 29.7 25.2C30.4 25.2 31 25.3 31.7 25.4C31.4 27.4 30.3 29.1 28.8 30.3Z" fill="white"/>
</svg>
