<svg width="48" height="48" viewBox="0 0 48 48" fill="none" xmlns="http://www.w3.org/2000/svg">
<rect width="48" height="48" rx="12" fill="#2B2D33"/>
<path d="M22 21.5C22 22.33 21.33 23 20.5 23C19.67 23 19 22.33 19 21.5C19 20.67 19.67 20 20.5 20C21.33 20 22 20.67 22 21.5Z" fill="white"/>
<path d="M27.5 23C28.33 23 29 22.33 29 21.5C29 20.67 28.33 20 27.5 20C26.67 20 26 20.67 26 21.5C26 22.33 26.67 23 27.5 23Z" fill="white"/>
<path fill-rule="evenodd" clip-rule="evenodd" d="M14 24C14 18.48 18.48 14 24 14C29.52 14 34 18.48 34 24C34 29.52 29.52 34 24 34C18.48 34 14 29.52 14 24ZM24 16C19.58 16 16 19.58 16 24C16 28.42 19.58 32 24 32C28.42 32 32 28.42 32 24C32 19.58 28.42 16 24 16Z" fill="white"/>
</svg>
