<svg width="48" height="48" viewBox="0 0 48 48" fill="none" xmlns="http://www.w3.org/2000/svg">
<rect width="48" height="48" rx="12" fill="#2B2D33"/>
<path d="M17.9985 32.0001V30.0001H29.9985V32.0001H17.9985ZM16.4985 20.5001L19.8985 23.3001C20.3985 23.7001 21.1985 23.5001 21.4985 22.9001L23.9985 16.6001L26.5985 22.9001C26.7985 23.5001 27.5985 23.7001 28.1985 23.3001L31.5985 20.5001L30.2985 27.0001C30.1985 27.8001 29.7985 28.0001 29.1985 28.0001H18.7985C18.0985 28.0001 17.7985 27.8001 17.6985 27.0001L16.4985 20.5001ZM13.9985 18.2001L15.4985 26.0001C15.6985 26.9001 16.2985 27.67 17.3985 27.87V28.0001H16.9985C16.4985 28.0001 15.9985 28.4001 15.9985 29.0001V33.0001C15.9985 33.5001 16.4985 34.0001 16.9985 34.0001H30.9985C31.4985 34.0001 31.9985 33.5001 31.9985 33.0001V29.0001C31.9985 28.4001 31.4985 28.0001 30.9985 28.0001H30.5985V27.87C31.6985 27.67 32.3985 26.9001 32.4985 26.0001L33.9985 18.2001C34.1985 17.3001 33.1985 16.6001 32.3985 17.2001L27.9985 20.9001L24.9985 13.7001C24.5985 12.9001 23.4985 12.9001 23.1985 13.7001L20.1985 20.9001L15.5985 17.2001C14.8985 16.6001 13.7985 17.2001 13.9985 18.2001Z" fill="white"/>
</svg>
