<svg width="48" height="48" viewBox="0 0 48 48" fill="none" xmlns="http://www.w3.org/2000/svg">
<rect width="48" height="48" rx="12" fill="#2B2D33"/>
<path d="M24.3297 12.8277C24.1708 12.5959 23.8287 12.5959 23.6698 12.8277L22.7019 14.24L21.0596 14.7241C20.79 14.8036 20.6843 15.129 20.8557 15.3517L21.8998 16.7087L21.8527 18.4202C21.845 18.7012 22.1218 18.9023 22.3866 18.8081L23.9998 18.2344L25.613 18.8081C25.8778 18.9023 26.1546 18.7012 26.1468 18.4202L26.0998 16.7087L27.1438 15.3517C27.3152 15.129 27.2095 14.8036 26.9399 14.7241L25.2976 14.24L24.3297 12.8277Z" fill="white"/>
<path d="M16.3297 16.3277C16.1708 16.0959 15.8287 16.0959 15.6698 16.3277L14.7019 17.74L13.0596 18.2241C12.79 18.3036 12.6843 18.629 12.8557 18.8517L13.8998 20.2087L13.8527 21.9202C13.845 22.2012 14.1218 22.4023 14.3866 22.3081L15.9998 21.7344L17.613 22.3081C17.8778 22.4023 18.1546 22.2012 18.1468 21.9202L18.0998 20.2087L19.1438 18.8517C19.3152 18.629 19.2095 18.3036 18.9399 18.2241L17.2976 17.74L16.3297 16.3277Z" fill="white"/>
<path d="M31.6698 16.3277C31.8287 16.0959 32.1708 16.0959 32.3297 16.3277L33.2976 17.74L34.9399 18.2241C35.2095 18.3036 35.3152 18.629 35.1438 18.8517L34.0998 20.2087L34.1468 21.9202C34.1546 22.2012 33.8778 22.4023 33.613 22.3081L31.9998 21.7344L30.3866 22.3081C30.1218 22.4023 29.845 22.2012 29.8527 21.9202L29.8998 20.2087L28.8557 18.8517C28.6843 18.629 28.79 18.3036 29.0596 18.2241L30.7019 17.74L31.6698 16.3277Z" fill="white"/>
<path fill-rule="evenodd" clip-rule="evenodd" d="M20.369 22.5137C21.4166 21.7537 22.693 21.3463 24 21.3463C25.307 21.3463 26.5834 21.7537 27.631 22.5137C28.6795 23.2743 29.4436 24.3488 29.7917 25.5773C30.1402 26.8069 30.0492 28.111 29.5354 29.2839C29.1084 30.2583 28.405 31.1357 27.5 31.7654L27.5 33.3463C27.5 33.6806 27.3329 33.9928 27.0547 34.1783L25.5547 35.1783C25.3904 35.2878 25.1974 35.3463 25 35.3463H23C22.8026 35.3463 22.6096 35.2878 22.4453 35.1783L20.9453 34.1783C20.6671 33.9928 20.5 33.6806 20.5 33.3463L20.5 31.7654C19.595 31.1357 18.8916 30.2583 18.4647 29.2839C17.9508 28.111 17.8598 26.8069 18.2083 25.5773C18.5565 24.3488 19.3205 23.2743 20.369 22.5137ZM24 23.3463C23.1057 23.3463 22.2422 23.6256 21.5434 24.1326C20.8455 24.6389 20.354 25.3409 20.1325 26.1227C19.9112 26.9035 19.968 27.7313 20.2966 28.4813C20.6333 29.2499 21.2297 29.923 21.9791 30.3321L22.5 30.6165L22.5 32.8111L23.3028 33.3463H24.6972L25.5 32.8111L25.5 30.6165L26.0209 30.3321C26.7703 29.923 27.3667 29.2499 27.7034 28.4813C28.032 27.7313 28.0888 26.9035 27.8675 26.1227C27.646 25.3409 27.1546 24.6389 26.4566 24.1326C25.7578 23.6256 24.8943 23.3463 24 23.3463Z" fill="white"/>
</svg>
