<svg width="48" height="48" viewBox="0 0 48 48" fill="none" xmlns="http://www.w3.org/2000/svg">
<rect width="48" height="48" rx="12" fill="#2B2D33"/>
<path d="M27.0138 16.4794C27.3878 16.0257 27.6981 15.4802 27.8898 14.8917C28.0657 14.352 28.1427 13.7751 28.0794 13.1975L28.0577 13L27.86 13.0081C27.3371 13.0294 26.7625 13.2014 26.2276 13.4765C25.6944 13.7506 25.1965 14.129 24.8253 14.5639C24.4665 14.9797 24.1323 15.5285 23.9259 16.1299C23.7485 16.6467 23.6643 17.2052 23.7372 17.7569L23.7598 17.9279L23.9316 17.9413C24.493 17.9851 25.0571 17.8529 25.5717 17.6074C26.1324 17.3399 26.6365 16.9357 27.0138 16.4794Z" fill="white"/>
<path d="M29.5268 23.6155C29.5041 21.3309 31.3358 20.1975 31.5253 20.0803C31.5342 20.0748 31.5356 20.0741 31.5364 20.0737C31.5372 20.0734 31.5376 20.0732 31.5421 20.0702L31.7256 19.9517L31.6027 19.772C31.1369 19.0902 30.5702 18.6356 30.0115 18.3328C29.1345 17.8575 28.2765 17.7588 27.8646 17.7409C26.8837 17.6434 25.9561 18.0091 25.1979 18.308C24.749 18.485 24.3639 18.6368 24.1026 18.6368C23.8069 18.6368 23.4126 18.4803 22.9699 18.3047C22.3443 18.0564 21.6291 17.7726 20.8708 17.7863C20.0047 17.7993 19.1727 18.0502 18.4454 18.4909C17.7148 18.9338 17.09 19.5684 16.6429 20.346C15.8419 21.7358 15.6678 23.4186 15.8761 25.0752C16.1295 27.0891 16.9493 29.0698 17.8921 30.431C18.3097 31.035 18.768 31.6768 19.2911 32.1669C19.8378 32.6791 20.453 33.0249 21.1625 32.9986C21.7769 32.9741 22.2042 32.7924 22.6452 32.6045C23.1137 32.4049 23.6 32.1977 24.3609 32.1977C25.0851 32.1977 25.548 32.398 25.993 32.5906C26.4597 32.7925 26.9088 32.9868 27.5946 32.9739C28.3222 32.9604 28.9112 32.6348 29.4269 32.1525C29.925 31.6867 30.3469 31.0828 30.7609 30.4779C31.6734 29.1445 32.0774 27.8504 32.1369 27.6595C32.1393 27.6521 32.1398 27.65 32.14 27.6491C32.1402 27.648 32.1397 27.6492 32.1419 27.6428L32.2046 27.4553L32.0158 27.3771C31.8869 27.3244 29.5508 26.3697 29.5268 23.6155Z" fill="white"/>
</svg>
