<svg width="48" height="48" viewBox="0 0 48 48" fill="none" xmlns="http://www.w3.org/2000/svg">
<rect width="48" height="48" rx="12" fill="#2B2D33"/>
<path d="M22.3 31.45L20 29.91V23.45H21C21.36 23.45 21.69 23.26 21.86 22.95L25.04 17.38C25.24 17.04 25.67 16.91 26.03 17.08C26.17 17.16 26.29 17.27 26.36 17.42L26.58 17.85C26.81 18.31 26.87 18.84 26.74 19.35L26.22 21.45H25V23.45H31.04C31.75 23.45 32.23 24.16 31.97 24.82L29.57 30.82C29.42 31.2 29.05 31.45 28.64 31.45H22.3ZM16 31.45V22.45H18V31.45H16ZM27.02 21.45V21.33C28.09 21.14 28.42 20.88 28.68 19.83C28.92 18.87 28.81 17.84 28.36 16.95L28.15 16.52C27.89 15.99 27.45 15.56 26.92 15.29C25.62 14.64 24.03 15.12 23.31 16.39L20.42 21.45H20C20 20.9 19.55 20.45 19 20.45H15C14.44 20.45 14 20.9 14 21.45V32.45C14 33 14.44 33.45 15 33.45H19C19.55 33.45 20 33 20 32.45V32.32L21.44 33.28C21.61 33.39 21.8 33.45 22 33.45H28.64C29.87 33.45 30.97 32.7 31.43 31.56L33.83 25.56C34.62 23.59 33.16 21.45 31.04 21.45H27.02Z" fill="white"/>
</svg>
