<svg width="48" height="48" viewBox="0 0 48 48" fill="none" xmlns="http://www.w3.org/2000/svg">
<rect width="48" height="48" rx="12" fill="#2B2D33"/>
<path d="M24.8 34C20.81 34 17.63 30.97 17.4 26.96C17.29 25.03 17.9 23.26 19.12 21.96C20.25 20.76 21.77 20.1 23.4 20.1C26.24 20.1 28.3 22.16 28.3 25C28.3 27.55 26.49 29.4 24 29.4V27.4C25.38 27.4 26.3 26.44 26.3 25C26.3 23.24 25.16 22.1 23.4 22.1C22.33 22.1 21.33 22.54 20.58 23.33C19.74 24.22 19.32 25.47 19.4 26.84C19.57 29.83 21.84 32 24.8 32C29.04 32 32 28.83 32 24.3C32 19.57 28.56 16 24 16C19.51 16 16 19.6 16 24.2H14C14 18.48 18.39 14 24 14C29.7 14 34 18.43 34 24.3C34 29.92 30.13 34 24.8 34Z" fill="white"/>
</svg>
