<svg width="48" height="48" viewBox="0 0 48 48" fill="none" xmlns="http://www.w3.org/2000/svg">
<rect width="48" height="48" rx="12" fill="#2B2D33"/>
<path d="M20.5 23C21.3284 23 22 22.3284 22 21.5C22 20.6716 21.3284 20 20.5 20C19.6716 20 19 20.6716 19 21.5C19 22.3284 19.6716 23 20.5 23Z" fill="white"/>
<path d="M27.5 23C28.3284 23 29 22.3284 29 21.5C29 20.6716 28.3284 20 27.5 20C26.6716 20 26 20.6716 26 21.5C26 22.3284 26.6716 23 27.5 23Z" fill="white"/>
<path d="M24 14C18.48 14 14 18.48 14 24C14 29.52 18.48 34 24 34C29.52 34 34 29.52 34 24C34 18.48 29.52 14 24 14ZM24 16C28.08 16 31.44 19.05 31.93 23H27.5H20.5H16.07C16.56 19.05 19.92 16 24 16ZM24 32C19.58 32 16 28.42 16 24C16 23.85 16.01 23.71 16.02 23.56H16.14C16.38 24.4 16.69 25 18.24 25H29.76C31.31 25 31.62 24.4 31.86 23.56H31.98C31.99 23.71 32 23.85 32 24C32 28.42 28.42 32 24 32Z" fill="white"/>
</svg>
