<svg width="48" height="48" viewBox="0 0 48 48" fill="none" xmlns="http://www.w3.org/2000/svg">
<rect width="48" height="48" rx="12" fill="#2B2D33"/>
<path d="M33 14H15C14.45 14 14 14.45 14 15V33C14 33.55 14.45 34 15 34H33C33.55 34 34 33.55 34 33V15C34 14.45 33.55 14 33 14ZM32 25H30V27H32V32H16V16H21V20H23V16H32V25Z" fill="white"/>
<path d="M20.2 21C18.43 21 17 22.43 17 24.2C17 26.29 18.75 27.58 21.28 27.51V27.63C20.58 27.73 20.13 27.88 19.57 28.31L18.4 29.2L19.6 30.8L23 28.25L26.4 30.8L27.6 29.2L26.43 28.31C25.87 27.88 25.42 27.73 24.72 27.63V27.51C27.25 27.58 29 26.29 29 24.2C29 22.43 27.57 21 25.8 21C24.64 21 23.31 21.62 23.06 23.28H22.94C22.69 21.62 21.36 21 20.2 21ZM20.16 25.41C19.4 25.26 19 24.77 19 24.2C19 23.54 19.54 23 20.2 23C20.97 23 21.31 23.51 21.55 24.46L21.88 25.76L20.16 25.41ZM25.8 23C26.46 23 27 23.54 27 24.2C27 24.77 26.6 25.26 25.84 25.41L24.12 25.76L24.45 24.46C24.69 23.51 25.03 23 25.8 23Z" fill="white"/>
</svg>
