<svg width="48" height="48" viewBox="0 0 48 48" fill="none" xmlns="http://www.w3.org/2000/svg">
<rect width="48" height="48" rx="12" fill="#2B2D33"/>
<path d="M25.22 26.91V26.77C26.55 26.27 27.5 25 27.5 23.5C27.5 21.57 25.93 20 24 20C22.07 20 20.5 21.57 20.5 23.5C20.5 25 21.45 26.27 22.78 26.77V26.91C19.4 27.51 17.5 30.57 17.5 33.8H19.5C19.5 31 21.23 28.8 24 28.8C26.77 28.8 28.5 31 28.5 33.8H30.5C30.5 30.57 28.6 27.51 25.22 26.91ZM24 22C24.83 22 25.5 22.67 25.5 23.5C25.5 24.33 24.83 25 24 25C23.17 25 22.5 24.33 22.5 23.5C22.5 22.67 23.17 22 24 22Z" fill="white"/>
<path d="M19 23.8V21.65C20.18 21.09 21 19.89 21 18.5C21 16.57 19.43 15 17.5 15C15.57 15 14 16.57 14 18.5C14 20.16 15.16 21.54 16.71 21.9V22.04C13.68 22.87 12 25.76 12 28.8H14C14 26 15.73 23.8 18.5 23.8H19ZM16 18.5C16 17.67 16.67 17 17.5 17C18.33 17 19 17.67 19 18.5C19 19.33 18.33 20 17.5 20C16.67 20 16 19.33 16 18.5Z" fill="white"/>
<path d="M31.29 22.04V21.9C32.84 21.54 34 20.16 34 18.5C34 16.57 32.43 15 30.5 15C28.57 15 27 16.57 27 18.5C27 19.89 27.82 21.09 29 21.65V23.8H29.5C32.27 23.8 34 26 34 28.8H36C36 25.76 34.32 22.87 31.29 22.04ZM30.5 17C31.33 17 32 17.67 32 18.5C32 19.33 31.33 20 30.5 20C29.67 20 29 19.33 29 18.5C29 17.67 29.67 17 30.5 17Z" fill="white"/>
</svg>
