<svg width="48" height="48" viewBox="0 0 48 48" fill="none" xmlns="http://www.w3.org/2000/svg">
<rect width="48" height="48" rx="12" fill="#2B2D33"/>
<path d="M22.97 25.36C21.85 24.5 20.49 24.01 19 24.01C15.04 24.01 12 27.47 12 32H14C14 28.57 16.14 26 19 26C20.09 26 21.07 26.37 21.88 27.03C22.18 26.41 22.54 25.85 22.97 25.36ZM19 24.16H19.77V23.82H19V24.16ZM19 22C17.84 22 17 21.16 17 20C17 18.85 17.84 18 19 18C20.15 18 21 18.85 21 20C21 21.16 20.15 22 19 22ZM19 24C21.25 24 23 22.26 23 20C23 17.75 21.25 16 19 16C16.74 16 15 17.75 15 20C15 22.26 16.74 24 19 24ZM18.23 24.16H19V23.82H18.23V24.16ZM29 24.16H29.77V23.82H29V24.16ZM29 22C27.84 22 27 21.16 27 20C27 18.85 27.84 18 29 18C30.15 18 31 18.85 31 20C31 21.16 30.15 22 29 22ZM29 24C31.25 24 33 22.26 33 20C33 17.75 31.25 16 29 16C26.74 16 25 17.75 25 20C25 22.26 26.74 24 29 24ZM28.23 24.16H29V23.82H28.23V24.16ZM22 32H24C24 28.57 26.14 26 29 26C31.85 26 34 28.57 34 32H36C36 27.47 32.95 24.01 29 24.01C25.04 24.01 22 27.47 22 32Z" fill="white"/>
</svg>
