<svg width="48" height="48" viewBox="0 0 48 48" fill="none" xmlns="http://www.w3.org/2000/svg">
<rect width="48" height="48" rx="12" fill="#2B2D33"/>
<path d="M34.23 28.95L33.23 27.45C33.04 27.17 32.73 27 32.39 27H26.39C26.06 27 25.75 27.17 25.56 27.45L24.56 28.95C24.3 29.34 24.33 29.89 24.69 30.21L28.69 33.73C29.11 34.1 29.68 34.1 30.1 33.73L34.1 30.21C34.46 29.89 34.49 29.34 34.23 28.95ZM29.39 31.7L26.7 29.35L26.93 29H31.86L32.1 29.35L29.39 31.7Z" fill="white"/>
<path d="M22.21 23.93C24.58 23.54 26.39 21.48 26.39 19C26.39 16.24 24.15 14 21.39 14C18.63 14 16.39 16.24 16.39 19C16.39 21.48 18.2 23.54 20.57 23.93V24.04C17.38 24.36 14.69 26.52 13.66 29.5C13.27 30.63 13.16 31.85 13.07 33.05L13 34H15.01L15.07 33.05C15.15 31.85 15.25 30.71 15.74 29.66C16.8 27.39 18.96 26 21.39 26C22.46 26 23.49 26.27 24.39 26.78V24.58C23.7 24.3 22.97 24.12 22.21 24.04V23.93ZM18.39 19C18.39 17.34 19.73 16 21.39 16C23.05 16 24.39 17.34 24.39 19C24.39 20.66 23.05 22 21.39 22C19.73 22 18.39 20.66 18.39 19Z" fill="white"/>
</svg>
