<svg width="48" height="48" viewBox="0 0 48 48" fill="none" xmlns="http://www.w3.org/2000/svg">
<rect width="48" height="48" rx="12" fill="#2B2D33"/>
<path d="M26.9996 15L28.1996 19C28.3996 19.6 28.8996 20 29.4996 20H31.9996L28.3996 15H26.9996ZM25.7996 30.3L31.7996 22H29.4996C28.8996 22 28.2996 22.4 28.0996 23L25.7996 30.3ZM20.4996 22.1C21.2996 22.4 22.0996 22.9 22.2996 24L23.9996 30.3L25.6996 24C25.9996 23 26.6996 22.4 27.4996 22.1V22H20.4996V22.1ZM20.2996 20H27.6996V19.9C26.7996 19.6 26.1996 18.9 25.8996 18L24.9996 15H22.9996L22.0996 18C21.7996 18.9 21.0996 19.6 20.2996 19.9V20ZM16.0996 22L22.0996 30.3L19.8996 23C19.6996 22.4 19.0996 22 18.4996 22H16.0996ZM15.8996 20H18.3996C18.9996 20 19.5996 19.6 19.7996 19L20.9996 15H19.4996L15.8996 20ZM13.1996 21.6C12.8996 21.2 12.8996 20.7 13.1996 20.4L18.1996 13.4C18.3996 13.1 18.5996 13 18.9996 13H28.9996C29.3996 13 29.5996 13.1 29.7996 13.4L34.7996 20.4C34.9996 20.8 35.0996 21.2 34.7996 21.6L24.7996 34.6C24.3996 35.1 23.5996 35.1 23.2996 34.6L13.1996 21.6Z" fill="white"/>
</svg>
