<svg width="48" height="48" viewBox="0 0 48 48" fill="none" xmlns="http://www.w3.org/2000/svg">
<rect width="48" height="48" rx="12" fill="#2B2D33"/>
<path d="M30.06 22.14C30.43 20.85 30.69 19.45 30.84 18H32.91C32.6 19.65 31.46 21.26 30.06 22.14ZM24 27C23.02 27 21.75 26.12 20.67 23.77C19.72 21.73 19.13 18.97 19.02 16H28.98C28.87 18.97 28.28 21.73 27.34 23.77C26.25 26.12 24.98 27 24 27ZM17.94 22.14C16.48 21.17 15.4 19.65 15.09 18H17.16C17.31 19.45 17.57 20.85 17.94 22.14ZM23 32V30.6C23 29.79 22.63 29.15 21.93 28.54V28.42C22.62 28.8 23.29 29 24 29C24.71 29 25.38 28.8 26.07 28.42V28.54C25.37 29.15 25 29.79 25 30.6V32H23ZM19 34H29V32H27V27.72C27.8 26.99 28.48 26 29.04 24.85C32.36 23.75 35 20.68 35 17C35 16.44 34.55 16 34 16H32.74C31.62 16 31.25 16.37 31 17.38H30.88C30.98 15.87 31 15.43 31 15C31 14.44 30.55 14 30 14H18C17.45 14 17 14.44 17 15C17 15.43 17.02 15.87 17.12 17.38H17C16.75 16.37 16.38 16 15.26 16H14C13.45 16 13 16.44 13 17C13 20.67 15.71 23.75 18.97 24.85C19.52 26 20.21 26.99 21 27.72V32H19V34Z" fill="white"/>
</svg>
