<svg width="48" height="48" viewBox="0 0 48 48" fill="none" xmlns="http://www.w3.org/2000/svg">
<rect width="48" height="48" rx="12" fill="#2B2D33"/>
<path d="M28.22 19.08L29.85 20.31C27.71 23.54 25.03 25 22.5 25C21.21 25 20.39 24.46 20.12 23.25H20V27C20 29.21 21.79 31 24 31C26.21 31 28 29.21 28 27H30C30 30.31 27.31 33 24 33C20.68 33 18 30.31 18 27V22H20C20.51 22.71 21.11 23 22.4 23C24.35 23 26.66 21.82 28.2 19.08H28.22ZM14 24C14 18.42 18.44 14 24 14C29.57 14 34 18.44 34 24V34H32V24C32 19.58 28.5 16 24 16C19.57 16 16 19.5 16 24V34H14V24Z" fill="white"/>
</svg>
