<svg width="48" height="48" viewBox="0 0 48 48" fill="none" xmlns="http://www.w3.org/2000/svg">
<rect width="48" height="48" rx="12" fill="#2B2D33"/>
<path fill-rule="evenodd" clip-rule="evenodd" d="M29.7264 18.7424C29.2424 18.2666 27.9075 17.5455 26.4566 18.4013C24.9205 19.3075 24.8349 20.749 24.9378 21.255C24.9934 21.5283 24.9324 21.8123 24.7695 22.0386C24.6066 22.2649 24.3566 22.4129 24.0798 22.4469C22.1683 22.6818 20.2773 21.9465 18.7707 21.0551C18.0671 20.6389 17.4174 20.1709 16.8508 19.7092C16.9204 20.1261 17.0518 20.4891 17.2124 20.809C17.5982 21.5773 18.1712 22.1406 18.6782 22.6391L18.687 22.6477C19.0019 22.9574 19.0764 23.4369 18.8703 23.8275C18.6642 24.2181 18.2263 24.4272 17.793 24.342L17.7688 24.3373C18.1591 24.69 18.4843 24.839 18.6765 24.8768C19.0405 24.9484 19.3349 25.2155 19.4414 25.5708C19.548 25.926 19.4491 26.3111 19.1847 26.5711C19.0741 26.6798 18.9543 26.7622 18.8338 26.8248C19.5987 27.3312 20.4016 27.7177 20.7857 27.8435C21.1414 27.9601 21.4022 28.2656 21.4616 28.6351C21.521 29.0047 21.369 29.3765 21.0677 29.5986C20.3115 30.1563 19.3847 30.5259 18.4971 30.7715C21.6606 31.4978 25.3268 30.4491 27.7357 28.0807C30.2667 25.5923 30.9205 21.9456 30.9205 20.4758C30.9205 20.2076 31.0282 19.9507 31.2194 19.7627C31.6044 19.3842 31.8128 18.9367 31.9155 18.5187L30.7935 18.9599C30.426 19.1045 30.0079 19.0192 29.7264 18.7424ZM15.7872 25.1496C15.3688 24.6482 14.9697 24.0395 14.6062 23.3248C14.4328 22.9838 14.4692 22.5737 14.6999 22.2685C14.8938 22.0119 15.1965 21.8673 15.5111 21.8716C15.4819 21.8174 15.4532 21.7624 15.4251 21.7065C14.8491 20.5595 14.5661 19.1027 15.0261 17.2936C15.1169 16.9364 15.3969 16.6581 15.7546 16.5694C16.1124 16.4807 16.4899 16.596 16.7371 16.8694C17.342 17.5385 18.4598 18.5474 19.789 19.3338C20.8253 19.9469 21.909 20.3771 22.9337 20.4715C23.0542 19.2691 23.6725 17.7216 25.4404 16.6787C27.5571 15.4301 29.5227 16.1364 30.6024 16.886L32.5498 16.1201C32.817 16.0151 33.1164 16.0299 33.3718 16.1608C33.6273 16.2917 33.8142 16.5261 33.885 16.8043C34.09 17.6106 34.1467 19.4167 32.9095 20.8788C32.8079 22.8457 31.9717 26.7207 29.1379 29.5069C25.3743 33.2072 18.8578 34.3489 14.4065 31.0665C14.0588 30.8102 13.9151 30.3596 14.05 29.9493C14.1849 29.539 14.568 29.2617 14.9999 29.2617C15.5136 29.2617 16.4135 29.195 17.3652 28.9904C17.6442 28.9305 17.9192 28.8604 18.1844 28.7799C18.0232 28.6825 17.8627 28.581 17.7057 28.4765C17.2636 28.1823 16.8187 27.8449 16.4467 27.484C16.0917 27.1396 15.7212 26.6963 15.5459 26.1791C15.4424 25.8738 15.4924 25.5374 15.6802 25.2754C15.7126 25.2302 15.7484 25.1882 15.7872 25.1496Z" fill="white"/>
</svg>
