<svg width="48" height="48" viewBox="0 0 48 48" fill="none" xmlns="http://www.w3.org/2000/svg">
<rect width="48" height="48" rx="12" fill="#2B2D33"/>
<path fill-rule="evenodd" clip-rule="evenodd" d="M17.6866 29.3844C17.1274 28.8563 16.6932 27.9962 16.4042 26.904C16.1191 25.8269 16 24.6177 16 23.5C16 22.3823 16.1191 21.1732 16.4042 20.0962C16.6933 19.0041 17.1275 18.144 17.6866 17.6159C18.2517 17.0822 19.1789 16.664 20.3548 16.3864C21.511 16.1134 22.8058 16 24 16C25.1942 16 26.489 16.1134 27.6452 16.3864C28.8211 16.664 29.7483 17.0822 30.3134 17.6159C30.8725 18.144 31.3067 19.0041 31.5958 20.0962C31.8809 21.1732 32 22.3823 32 23.5C32 24.6178 31.8809 25.8269 31.5958 26.9041C31.3068 27.9962 30.8726 28.8563 30.3134 29.3845C29.7482 29.9182 28.8209 30.3365 27.6452 30.6141C26.489 30.8871 25.1943 31.0004 24.0003 31C23.5383 30.9999 23.059 30.9828 22.5767 30.9457C22.339 30.9274 22.1026 30.9946 21.91 31.1353L20 32.5309V31.2575C20 30.8352 19.7347 30.4584 19.3372 30.316C18.6268 30.0616 18.0697 29.7462 17.6866 29.3844ZM14 23.5C14 24.7435 14.1309 26.1317 14.4707 27.4158C14.8066 28.6849 15.3725 29.9499 16.3134 30.8385C16.7952 31.2936 17.3768 31.6508 18 31.9321V34.5C18 34.8765 18.2115 35.2211 18.5472 35.3916C18.8829 35.5621 19.2859 35.5296 19.59 35.3074L22.796 32.965C23.2047 32.9888 23.6082 32.9999 23.9997 33C25.3057 33.0004 26.761 32.8778 28.1047 32.5606C29.4289 32.2479 30.7516 31.7215 31.6866 30.8385C32.6275 29.9499 33.1934 28.6849 33.5293 27.4158C33.8691 26.1317 34 24.7435 34 23.5C34 22.2565 33.8691 20.8684 33.5292 19.5844C33.1933 18.3154 32.6275 17.0505 31.6866 16.1619C30.7517 15.2788 29.4289 14.7526 28.1048 14.4399C26.761 14.1227 25.3058 14 24 14C22.6942 14 21.239 14.1227 19.8952 14.4399C18.5711 14.7526 17.2483 15.2788 16.3134 16.1619C15.3725 17.0505 14.8067 18.3154 14.4708 19.5844C14.1309 20.8684 14 22.2565 14 23.5ZM23.1412 18.4289C24.0314 18.1904 24.9687 18.1904 25.8588 18.4289C26.749 18.6674 27.5607 19.136 28.2123 19.7877C28.864 20.4393 29.3326 21.251 29.5711 22.1412C29.8097 23.0314 29.8097 23.9686 29.5711 24.8588L28.1222 24.4706C28.2926 23.8347 28.2926 23.1653 28.1222 22.5294C27.9519 21.8936 27.6171 21.3138 27.1517 20.8484C26.6862 20.3829 26.1064 20.0482 25.4706 19.8778C24.8348 19.7074 24.1653 19.7074 23.5294 19.8778L23.1412 18.4289ZM23.2883 21.3437C23.7545 21.2188 24.2455 21.2188 24.7118 21.3437C25.1781 21.4686 25.6032 21.7141 25.9446 22.0555C26.2859 22.3968 26.5314 22.822 26.6563 23.2882C26.7813 23.7545 26.7813 24.2455 26.6563 24.7118L25.2074 24.3235C25.2642 24.1116 25.2642 23.8884 25.2074 23.6765C25.1506 23.4645 25.0391 23.2713 24.8839 23.1161C24.7288 22.961 24.5355 22.8494 24.3235 22.7926C24.1116 22.7358 23.8884 22.7358 23.6765 22.7926L23.2883 21.3437ZM19.9015 21.5049C20.1996 21.4753 20.4953 21.581 20.7071 21.7929L21.7071 22.7929C21.8947 22.9804 22 23.2348 22 23.5C22 23.7652 21.8947 24.0196 21.7071 24.2071L21.281 24.6332C21.4907 24.9632 21.7979 25.3837 22.2071 25.7929C22.6164 26.2021 23.0368 26.5093 23.3668 26.719L23.7929 26.2929C23.9804 26.1054 24.2348 26 24.5 26C24.7652 26 25.0196 26.1054 25.2071 26.2929L26.2071 27.2929C26.419 27.5047 26.5247 27.8004 26.4951 28.0985C26.4656 28.3967 26.304 28.6659 26.0547 28.8321L26.0457 28.8379L26.0351 28.8448L26.0251 28.8511L26.0104 28.8601C25.9924 28.8711 25.971 28.8835 25.9463 28.897C25.8969 28.924 25.8341 28.9552 25.7583 28.9871C25.6065 29.0511 25.4023 29.118 25.1493 29.1587C24.6341 29.2417 23.9583 29.2096 23.1626 28.8836L23.1492 28.878L23.1391 28.8736L23.1373 28.8728L23.1351 28.8718L23.1296 28.8694L23.114 28.8623C23.1016 28.8566 23.0853 28.8491 23.0654 28.8396C23.0255 28.8206 22.971 28.7939 22.904 28.7593C22.7702 28.6901 22.5856 28.5887 22.368 28.4534C21.9349 28.1843 21.3597 27.7739 20.7929 27.2071C20.2261 26.6403 19.8158 26.0651 19.5466 25.632C19.4113 25.4144 19.3099 25.2298 19.2407 25.096C19.2061 25.029 19.1794 24.9745 19.1604 24.9346C19.1509 24.9147 19.1434 24.8984 19.1377 24.886L19.1307 24.8704L19.1282 24.8649L19.1272 24.8627L19.1268 24.8618C19.1234 24.854 19.1197 24.8453 19.1164 24.8374C18.7904 24.0417 18.7583 23.3659 18.8413 22.8507C18.8821 22.5977 18.9489 22.3935 19.0129 22.2417C19.0448 22.1659 19.076 22.1031 19.103 22.0537C19.1165 22.029 19.1289 22.0076 19.1399 21.9896C19.1454 21.9805 19.1505 21.9723 19.1552 21.9649L19.1619 21.9545L19.1635 21.9521L19.165 21.9497L19.1665 21.9475L19.1672 21.9464L19.168 21.9453C19.3341 21.696 19.6033 21.5344 19.9015 21.5049ZM26.0457 28.8379L26.0525 28.8335L26.0503 28.835L26.0457 28.8379Z" fill="white"/>
</svg>
