<svg width="24" height="24" viewBox="0 0 24 24" fill="none" xmlns="http://www.w3.org/2000/svg">
<path d="M6.03 19.28C6.23 19.78 6.55 20 7 20C7.45 20 7.77 19.78 7.97 19.28C8.66 17.56 9.99 16 12 16V14C9.93 14 8.57 15.01 8.14 16.58H8V4H6V16.58H5.87C5.44 15.01 4.08 14 2 14V16C4.01 16 5.34 17.56 6.03 19.28Z" fill="white"/>
<path d="M17.97 4.72C17.77 4.22 17.45 4 17 4C16.55 4 16.23 4.22 16.03 4.72C15.34 6.44 14.01 8 12 8V10C14.07 10 15.43 8.99 15.86 7.42H16V20H18V7.42H18.13C18.56 8.99 19.92 10 22 10V8C19.99 8 18.66 6.44 17.97 4.72Z" fill="white"/>
</svg>
