<svg width="24" height="24" viewBox="0 0 24 24" fill="none" xmlns="http://www.w3.org/2000/svg">
<path d="M2.53 12.83C2.32 13.32 2.39 13.71 2.71 14.03C3.03 14.35 3.41 14.42 3.91 14.21C5.61 13.48 7.66 13.32 9.08 14.74L10.49 13.33C9.02 11.85 7.35 11.6 5.93 12.41L5.83 12.31L14.73 3.41L13.31 2L4.41 10.9L4.33 10.8C5.14 9.39 4.89 7.71 3.42 6.24L2 7.66C3.42 9.08 3.26 11.12 2.53 12.83Z" fill="white"/>
<path d="M21.27 10.97C21.48 10.48 21.41 10.09 21.09 9.77C20.77 9.45 20.39 9.38 19.89 9.59C18.19 10.32 16.14 10.48 14.72 9.06L13.31 10.47C14.77 11.93 16.45 12.18 17.86 11.38L17.96 11.48L9.06 20.38L10.47 21.79L19.37 12.89L19.47 13C18.66 14.41 18.91 16.09 20.38 17.56L21.79 16.15C20.38 14.72 20.54 12.68 21.27 10.97Z" fill="white"/>
</svg>
