<svg width="24" height="24" viewBox="0 0 24 24" fill="none" xmlns="http://www.w3.org/2000/svg">
<path d="M12 20C7.58 20 4 16.42 4 12C4 7.58 7.58 4 12 4C14.13 4 16.15 4.84 17.65 6.34L19.06 4.93C17.18 3.05 14.65 2 12 2C6.48 2 2 6.47 2 12C2 17.53 6.48 22 12 22C14.65 22 17.18 20.95 19.06 19.07L17.65 17.66C16.15 19.16 14.13 20 12 20Z" fill="white"/>
<path d="M7.71 11.04C7.21 11.24 6.99 11.56 6.99 12.01C6.99 12.46 7.21 12.78 7.71 12.98C9.43 13.67 10.99 15 10.99 17.01H12.99C12.99 14.94 11.98 13.58 10.41 13.15V13.01H20.99V11.01H10.41V10.88C11.98 10.45 12.99 9.09 12.99 7.01H10.99C10.99 9.02 9.43 10.35 7.71 11.04Z" fill="white"/>
</svg>
