<svg width="24" height="24" viewBox="0 0 24 24" fill="none" xmlns="http://www.w3.org/2000/svg">
<path d="M13.69 12.06V11.94C16.69 10.55 19 7.81 19 4H17C17 6.96 15.41 8.98 11.72 11.03C11.27 11.28 11 11.55 11 12C11 12.45 11.27 12.74 11.72 12.99C15.41 15.04 17 17.04 17 20H19C19 16.19 16.69 13.45 13.69 12.06ZM6.69 12.06V11.94C9.69 10.55 12 7.81 12 4H10C10 6.96 8.41 8.98 4.72 11.03C4.27 11.28 4 11.55 4 12C4 12.45 4.27 12.74 4.72 12.99C8.41 15.04 10 17.04 10 20H12C12 16.19 9.69 13.45 6.69 12.06Z" fill="white"/>
</svg>
