<svg width="24" height="24" viewBox="0 0 24 24" fill="none" xmlns="http://www.w3.org/2000/svg">
<path d="M20 11.99C20 16.41 16.42 19.99 12 19.99C7.58 19.99 4 16.41 4 11.99C4 9.86 4.84 7.84 6.34 6.34L4.93 4.93C3.05 6.81 2 9.34 2 11.99C2 17.51 6.47 21.99 12 21.99C17.53 21.99 22 17.51 22 11.99C22 9.34 20.95 6.81 19.07 4.93L17.66 6.34C19.16 7.84 20 9.86 20 11.99Z" fill="white"/>
<path d="M11.04 16.28C11.24 16.78 11.56 17 12.01 17C12.46 17 12.78 16.78 12.98 16.28C13.67 14.56 15 13 17.01 13V11C14.94 11 13.58 12.01 13.15 13.58H13.01V3H11.01V13.58H10.88C10.45 12.01 9.09 11 7.01 11V13C9.02 13 10.35 14.56 11.04 16.28Z" fill="white"/>
</svg>
