<svg width="24" height="24" viewBox="0 0 24 24" fill="none" xmlns="http://www.w3.org/2000/svg">
<path d="M5.00201 3.29381L2.00391 6.29191L3.42518 7.71318L6.42328 4.71508L5.00201 3.29381Z" fill="#FEE600"/>
<path d="M9.92012 17.71L12.2101 15.41L14.5001 17.71L15.9201 16.29L13.6301 14L15.9201 11.71L14.5001 10.29L12.2101 12.59L9.92012 10.29L8.50012 11.71L10.8001 14L8.50012 16.29L9.92012 17.71Z" fill="#FEE600"/>
<path d="M18.7101 3H11.1301C10.6001 3 10.0901 3.21 9.71012 3.59L4.00012 9.29C3.82012 9.48 3.71012 9.73 3.71012 10V20C3.71012 20.55 4.16012 21 4.71012 21H19.7101C20.2601 21 20.7101 20.55 20.7101 20V5C20.7101 3.9 19.8201 3 18.7101 3ZM18.7101 19H5.71012V10.41L7.13012 9H18.7101V19ZM20.0801 7H7.74012V6.88C8.74012 6.88 9.44012 6.68 10.0801 6.05L11.1301 5H18.7101V5.68C18.7101 6.39 19.1001 6.88 20.0801 6.88V7Z" fill="#FEE600"/>
</svg>
