<svg width="24" height="24" viewBox="0 0 24 24" fill="none" xmlns="http://www.w3.org/2000/svg">
<path d="M19.61 11.81C19.9 11.52 20 11.27 20 10.8V6H23V4H15V6H19.23V6.12C18.45 6.26 18 6.82 18 7.79V9H6V7.79C6 6.82 5.55 6.26 4.77 6.12V6H9V4H1V6H4V10.8C4 11.27 4.11 11.52 4.39 11.81L7 14.42V15.59L3.79 18.8L5.21 20.21L8.42 17H15.59L18.79 20.21L20.21 18.8L17 15.59V14.42L19.61 11.81ZM15.39 13.2C15.11 13.48 15 13.74 15 14.2V15H9V14.2C9 13.74 8.9 13.48 8.62 13.19L6.42 11H17.59L15.39 13.2Z" fill="#FEE600"/>
</svg>
