<svg width="24" height="24" viewBox="0 0 24 24" fill="none" xmlns="http://www.w3.org/2000/svg">
<path d="M21.42 2.09C21.07 1.93 20.65 1.99 20.36 2.23L17.02 5.01C16.27 5.64 16.11 6.11 16.11 7.18V7.47H15.99C15.95 6.74 15.8 6.39 15.3 5.89L11.7 2.29C11.52 2.11 11.26 2 11 2H6C5.44 2 5 2.45 5 3V8H4C3.44 8 3 8.45 3 9V13C3 13.55 3.44 14 4 14H6V16C4.34 16 3 17.34 3 19C3 20.66 4.34 22 6 22H18C19.65 22 21 20.66 21 19C21 17.34 19.65 16 18 16H14V14H15C15.55 14 16 13.55 16 13V8.47L20 5.14V12H18V14H21C21.55 14 22 13.55 22 13V3C22 2.61 21.77 2.25 21.42 2.09ZM19 19C19 19.55 18.55 20 18 20H6C5.44 20 5 19.55 5 19C5 18.45 5.44 18 6 18H18C18.55 18 19 18.45 19 19ZM12 16H8V14H12V16ZM14 12H5V10H14V12ZM14 8H7V4H10.58L14 7.41V8Z" fill="#FEE600"/>
</svg>
