<svg width="24" height="24" viewBox="0 0 24 24" fill="none" xmlns="http://www.w3.org/2000/svg">
<path d="M6 15H2V17H4.6C5.37 17 5.82 16.63 5.88 16H6V20C6 20.55 6.45 21 7 21H10V19H8V8H18V6H13V4H18V2H6V4H11V6H7C6.45 6 6 6.45 6 7V10H2V12H4.6C5.37 12 5.82 11.63 5.88 11H6V15ZM15.41 22.01C15.76 22.01 16.09 21.83 16.28 21.48L17 20.13L17.72 21.48C17.91 21.83 18.24 22.01 18.59 22.01C19.02 22.01 19.57 21.66 20 21.37C20.92 20.75 22 19.59 22 17.81C22 15.37 20.02 13.22 17.78 10.39C17.59 10.15 17.3 10.01 17 10.01C16.7 10.01 16.41 10.14 16.22 10.39C14.07 13.22 12 15.39 12 17.81C12 19.59 13.08 20.75 14 21.37C14.43 21.66 14.98 22.01 15.41 22.01ZM15.01 19.62C14.46 19.26 14 18.63 14 17.81C14 16.12 15.69 14.33 17 12.66C18.41 14.43 20 16.12 20 17.81C20 18.63 19.54 19.26 18.99 19.62L17.88 17.54C17.68 17.17 17.41 16.97 17 16.97C16.59 16.97 16.32 17.17 16.12 17.54L15.01 19.62Z" fill="#FEE600"/>
</svg>
