<svg width="24" height="24" viewBox="0 0 24 24" fill="none" xmlns="http://www.w3.org/2000/svg">
<path d="M15 9V3H15.12C15.18 3.63 15.63 4 16.4 4H17C18.14 4 19 4.87 19 6C19 7.13 18.15 8 17 8H16.4C15.63 8 15.18 8.37 15.12 9H15ZM9.65 12C9.69 11.88 9.73 11.77 9.79 11.66L10.62 10H13C13 11.12 12.23 12 11 12H9.65ZM4 8V4H13V8H4ZM4 16V15.88C4.63 15.82 5 15.37 5 14.6V11.4C5 10.63 4.63 10.18 4 10.12V10H8.38L8 10.76C7.3 12.17 7.3 13.83 8 15.24L8.38 16H4ZM4 20V18H11V20H4ZM2 21C2 21.55 2.45 22 3 22H12C12.55 22 13 21.55 13 21V17C13 16.45 12.55 16 12 16H10.62L9.79 14.34C9.73 14.23 9.69 14.12 9.65 14H11C13.27 14 15 12.31 15 10H17C18.91 10 20.46 8.73 20.88 7H24V5H20.88C20.47 3.27 18.92 2 17 2H3C2.45 2 2 2.45 2 3V9C2 9.55 2.45 10 3 10V16C2.45 16 2 16.45 2 17V21Z" fill="#FEE600"/>
</svg>
