<svg width="24" height="24" viewBox="0 0 24 24" fill="none" xmlns="http://www.w3.org/2000/svg">
<path d="M14.3535 7.55375C13.7847 8.12255 13.7847 9.064 14.3633 9.6426C14.9419 10.2114 15.8638 10.2114 16.4424 9.6426C17.021 9.064 17.021 8.13235 16.4424 7.55375C15.8638 6.98496 14.9321 6.97515 14.3535 7.55375ZM4.10541 16.0268L2.46767 20.2241C2.33037 20.5772 2.41864 21.0087 2.70303 21.2833C2.97762 21.5677 3.40912 21.6657 3.77197 21.5186L7.95948 19.8907C8.999 19.4788 9.49915 18.6747 9.64625 17.7528L9.88161 16.272C9.88161 16.272 9.46973 17.1252 8.68518 17.439L6.53749 18.302C5.78237 18.6158 5.30184 18.8708 4.76246 19.3023L4.68401 19.2239C5.11551 18.6845 5.38029 18.2138 5.6843 17.4488L6.5473 15.3011C6.86112 14.5166 7.72412 14.1047 7.72412 14.1047L6.23348 14.3401C5.31164 14.4872 4.50748 14.9873 4.10541 16.0268ZM5.90986 8.85806C6.07657 8.56385 6.42962 8.38733 6.76305 8.42656L9.07746 8.75999C9.40108 8.79922 9.74432 8.68153 9.96007 8.40694C14.1868 3.08185 18.5312 3.83697 19.7963 4.19002C20.1493 5.45509 20.7672 9.66222 15.5794 14.0361C15.3244 14.2518 15.1969 14.5852 15.2459 14.9285L15.5598 17.2331C15.6088 17.5665 15.4421 17.9294 15.1577 18.0765L12.804 19.4102L12.5981 16.5074C12.5785 16.272 12.4804 16.0563 12.3137 15.8895L8.10658 11.6922C7.93987 11.5157 7.72412 11.4176 7.48875 11.398L4.58594 11.1921L5.90986 8.85806ZM4.20347 7.86757L2.12443 11.5745C1.78119 12.1924 2.18327 12.9769 2.89917 13.0259L6.9788 13.33L10.6662 17.0271L10.9702 21.097C11.0192 21.8227 11.8037 22.2247 12.4314 21.8815L16.1482 19.773C17.119 19.2239 17.6584 18.0765 17.5113 16.9781C17.4427 16.4485 17.3348 15.6836 17.2563 15.1736C24.0426 9.19149 21.5909 3.28779 21.4733 3.03281C21.3654 2.79745 21.1987 2.61112 20.9633 2.52286C20.7083 2.41499 14.7948 -0.0465236 8.81267 6.73979C8.31253 6.66133 7.53779 6.56326 7.01803 6.48481C5.91966 6.3279 4.76246 6.87708 4.20347 7.86757Z" fill="#FEE600"/>
</svg>
