<svg width="24" height="24" viewBox="0 0 24 24" fill="none" xmlns="http://www.w3.org/2000/svg">
<path d="M2.34995 19.5C3.36995 21.26 5.74995 21.28 9.40995 19.73L8.39995 17.98C5.98995 18.97 4.43995 19.11 4.08995 18.5C3.72995 17.89 4.61995 16.63 6.68995 15.02C7.44995 14.43 7.64995 13.92 7.89995 12.93L8.02995 12.97C7.94995 13.3 7.87995 13.64 7.87995 14C7.87995 15.48 8.70995 16.77 9.91995 17.46H9.87995C16.1099 21.06 20.0199 21.9 21.4099 19.5C22.4199 17.74 21.2499 15.67 18.0799 13.27L17.0699 15.02C19.1299 16.62 20.0299 17.89 19.6699 18.5C19.3199 19.11 17.7899 18.97 15.3599 17.98C14.4699 17.62 13.9299 17.7 12.9399 17.98L12.9199 17.85C14.6199 17.39 15.8799 15.84 15.8799 14C15.8799 6.81 14.6499 3 11.8799 3C9.84995 3 8.63995 5.05 8.14995 9H10.1699C10.5199 6.41 11.1699 5 11.8799 5C12.5899 5 13.2299 6.4 13.5899 9C13.7199 9.95 14.0599 10.38 14.7899 11.09L14.6999 11.17C13.9799 10.45 12.9799 10 11.8799 10C11.1499 10 10.4599 10.22 9.86995 10.57L9.87995 10.54C3.64995 14.13 0.969948 17.1 2.34995 19.5ZM9.87995 14C9.87995 12.9 10.7799 12 11.8799 12C12.9799 12 13.8799 12.9 13.8799 14C13.8799 15.1 12.9799 16 11.8799 16C10.7799 16 9.87995 15.1 9.87995 14Z" fill="#FEE600"/>
</svg>
