<svg width="24" height="24" viewBox="0 0 24 24" fill="none" xmlns="http://www.w3.org/2000/svg">
<path d="M13.33 10.14L11.02 9.09L12 6.16L13.33 10.14ZM10.8 16L14.47 13.56L15.28 16H10.8ZM9.16 14.69L10.39 11L12.95 12.17L9.16 14.69ZM7.39 20L8.05 18H15.95L16.61 20H7.39ZM3 22H21V20H18.72L13.64 4.78H13.76C14.12 5.55 14.68 6 15.71 6H17V8H19V5C19 4.45 18.55 4 18 4H13.39L12.95 2.68C12.81 2.28 12.43 2 12 2C11.57 2 11.19 2.28 11.05 2.68L10.61 4H6C5.45 4 5 4.45 5 5V8H7V6H8.28C9.31 6 9.87 5.55 10.23 4.78H10.35L5.28 20H3V22Z" fill="#FEE600"/>
</svg>
