<svg width="24" height="24" viewBox="0 0 24 24" fill="none" xmlns="http://www.w3.org/2000/svg">
<path d="M20 16C19.95 16 19.91 16.01 19.86 16.01L21.95 9.32C22.06 8.98 22.01 8.65 21.83 8.39C21.64 8.13 21.36 8 21 8H18.88C18.22 4.87 15.68 3 13 3C10.32 3 7.7 4.94 7.12 8H6.03L5.97 7.76C5.85 7.27 5.51 7 5 7H2V9H4.22L5.97 16L5.03 19.76L6.97 20.24L7.72 17.23L17.02 18.85C17.02 18.9 17 18.95 17 19C17 20.66 18.34 22 20 22C21.65 22 23 20.66 23 19C23 17.34 21.65 16 20 16ZM8.09 7.88C9 7.78 9.41 7.3 10.06 6.54C10.98 5.47 11.73 5 13 5C14.28 5 15.02 5.47 15.94 6.54C16.6 7.3 17 7.8 17.91 7.88V8H8.09V7.88ZM6.53 10H19.61L17.48 16.9L7.83 15.22L6.53 10ZM20 20C19.44 20 19 19.55 19 19C19 18.45 19.44 18 20 18C20.55 18 21 18.45 21 19C21 19.55 20.55 20 20 20Z" fill="#FEE600"/>
</svg>
