<svg width="24" height="24" viewBox="0 0 24 24" fill="none" xmlns="http://www.w3.org/2000/svg">
<path d="M20 10C20 5.59 16.41 2 12 2C11.06 2 10.06 2.18 9.13 2.53C8.29 2.84 8.23 3.65 8.87 4.28L12 7.41V10H9.41L6.27 6.85C5.64 6.23 4.84 6.29 4.52 7.15C4.18 8.08 4 9.07 4 10C4 12.95 5.61 15.53 8 16.92V22H10V19.03C10 18.34 9.72 17.84 8.86 17.48V17.36C9.82 17.77 10.89 18 12 18C13.11 18 14.18 17.77 15.14 17.36V17.48C14.28 17.84 14 18.34 14 19.03V22H16V16.92C18.39 15.53 20 12.95 20 10ZM12 16C8.69 16 6 13.31 6 10C6 9.81 6.01 9.62 6.02 9.44L8.59 12H13C13.74 12 14 11.66 14 11V6.59L11.44 4.02C11.62 4.01 11.81 4 12 4C15.31 4 18 6.69 18 10C18 13.31 15.31 16 12 16Z" fill="#FEE600"/>
</svg>
