<svg width="24" height="24" viewBox="0 0 24 24" fill="none" xmlns="http://www.w3.org/2000/svg">
<path d="M12 2C6.43 2 2 6.43 2 12C2 17.57 6.43 22 12 22C17.57 22 22 17.57 22 12C22 6.43 17.57 2 12 2ZM19.4 8.95L12.88 11.11L15.05 4.59C17.03 5.4 18.6 6.97 19.4 8.95ZM19.98 12.51C19.75 16.72 16.29 20 12 20C7.54 20 4 16.46 4 12C4 7.71 7.26 4.27 11.49 4.02C12.65 3.95 13 3.56 13.46 2.64L13.58 2.67L10.49 11.97C10.1 13.15 10.85 13.9 12.03 13.51L21.36 10.41L21.4 10.52C20.46 10.93 20.04 11.44 19.98 12.51Z" fill="#2B2D33"/>
</svg>
