<svg width="24" height="24" viewBox="0 0 24 24" fill="none" xmlns="http://www.w3.org/2000/svg">
<path d="M20.88 3.9C21.09 3.41 21.02 3.02 20.7 2.7C20.38 2.38 20 2.31 19.5 2.52C17.8 3.26 15.75 3.41 14.34 2L12.93 3.41C14.34 4.82 16.07 5.12 17.48 4.32L17.58 4.42L6.79 15.2L8.2 16.61L18.99 5.83L19.08 5.92C18.28 7.34 18.57 9.06 20 10.49L21.41 9.08C19.99 7.65 20.15 5.61 20.88 3.9Z" fill="#2B2D33"/>
<path d="M2.67 19.41V19.29C3.44 19.02 4 18.31 4 17.41V3.41H2V20.41C2 20.96 2.45 21.41 3 21.41H20V19.41H2.67Z" fill="#2B2D33"/>
</svg>
