<svg width="48" height="48" viewBox="0 0 48 48" fill="none" xmlns="http://www.w3.org/2000/svg">
<rect width="48" height="48" rx="12" fill="#2B2D33"/>
<path d="M28 24.25C28.69 24.25 29.25 23.69 29.25 23C29.25 22.31 28.69 21.75 28 21.75C27.3 21.75 26.75 22.31 26.75 23C26.75 23.69 27.3 24.25 28 24.25ZM24 33C22.54 33 21.32 32.65 20 31.93C18.91 31.33 18.84 31.2 17.84 31.12V31H21C21 29.7 20.3 29 19 29H17.07C16.86 28.63 16.77 28.45 16.58 28.02C16.31 27.39 15.97 27.16 15.2 27.12V27H20C20 25.7 19.3 25 18 25H16L16.78 17.2L19.29 19.71C19.48 19.89 19.73 20 20 20H28C28.26 20 28.52 19.89 28.7 19.71L31.22 17.2L32 25H30C28.7 25 28 25.7 28 27H32.8V27.12C32.03 27.16 31.7 27.39 31.42 28.02C31.23 28.45 31.14 28.63 30.93 29H29C27.7 29 27 29.7 27 31H30.16V31.12C29.16 31.2 29.09 31.33 28 31.93C26.68 32.66 25.46 33 24 33ZM20 24.25C20.69 24.25 21.25 23.69 21.25 23C21.25 22.31 20.69 21.75 20 21.75C19.3 21.75 18.75 22.31 18.75 23C18.75 23.69 19.3 24.25 20 24.25ZM24 28.25C24.69 28.25 25.25 27.69 25.25 27C25.25 26.31 24.69 25.75 24 25.75C23.3 25.75 22.75 26.31 22.75 27C22.75 27.69 23.3 28.25 24 28.25ZM24 35C27.27 35 30.17 33.43 32 31H33C34.3 31 35 30.2 35 29H33.16C33.44 28.36 33.66 27.7 33.8 27H34C35.3 27 36 26.2 36 25H34C34 24.97 33.99 24.93 33.99 24.9L32.99 14.9C32.95 14.52 32.7 14.19 32.33 14.06C31.97 13.93 31.56 14.02 31.29 14.29L27.58 18H20.41L16.7 14.29C16.43 14.02 16.02 13.93 15.66 14.06C15.3 14.19 15.04 14.52 15 14.9L14 24.9C14 24.93 14 24.97 14 25H12C12 26.2 12.69 27 14 27H14.2C14.34 27.7 14.55 28.36 14.83 29H13C13 30.2 13.69 31 15 31H16C17.82 33.43 20.72 35 24 35Z" fill="white"/>
</svg>
