<svg width="48" height="48" viewBox="0 0 48 48" fill="none" xmlns="http://www.w3.org/2000/svg">
<rect width="48" height="48" rx="12" fill="#2B2D33"/>
<path d="M29.92 21.98L30.03 22.03C30.38 21.24 31.14 21.06 31.87 21.36C33.7 22.1 35 23.9 35 26C35 28.77 32.76 31 30 31H18.5C15.5 31 13 28.58 13 25.5C13 22.48 15.5 20.01 18.38 20.01C18.62 20.01 18.86 20.02 19.09 20.04L19.11 19.93C18.35 19.46 18.3 18.86 18.78 18.05C19.91 16.15 21.79 15 24 15C27.27 15 30 17.66 30 21C30 21.34 29.97 21.67 29.92 21.98ZM24 17C21.84 17 20 18.77 20 21C20 21.59 19.58 22 19 22H18.5C16.61 22 15 23.55 15 25.5C15 27.4 16.53 29 18.5 29H30C31.66 29 33 27.64 33 26C33 24.35 31.65 23 30 23C29.71 23 29.43 23.04 29.15 23.13C28.79 23.24 28.39 23.17 28.12 22.91C27.84 22.64 27.81 22.29 27.89 21.93C27.96 21.63 28 21.32 28 21C28 18.79 26.21 17 24 17Z" fill="white"/>
</svg>
