<svg width="48" height="48" viewBox="0 0 48 48" fill="none" xmlns="http://www.w3.org/2000/svg">
<rect width="48" height="48" rx="12" fill="#2B2D33"/>
<path d="M21.9999 25.55L23.4099 24.13C23.5999 23.95 23.8599 23.84 24.1199 23.84C26.6399 23.84 28.5799 25.88 29.7499 28.66C30.3599 26.75 30.2599 24.99 29.9499 23.6C29.7299 22.63 29.4099 21.84 29.1399 21.29C29.0099 21.01 28.8899 20.8 28.8099 20.66C28.7699 20.59 28.7399 20.54 28.7199 20.51C28.7099 20.5 28.7099 20.49 28.6999 20.49C28.6999 20.48 28.6999 20.48 28.6999 20.48L28.6899 20.47C28.3899 20.03 28.4999 19.42 28.9299 19.11L30.8599 17.69C29.8999 17.57 28.7199 17.62 27.5499 18.17C27.1899 18.34 26.7699 18.29 26.4699 18.03L26.4399 18.01C26.4199 17.99 26.3799 17.96 26.3299 17.92C26.2299 17.84 26.0699 17.72 25.8699 17.59C25.4699 17.32 24.8799 16.97 24.1799 16.68C22.7599 16.08 20.9399 15.7 19.0599 16.39C18.8799 16.45 18.6799 16.47 18.4899 16.42L16.7799 16.02C16.5599 15.97 16.3399 16.03 16.1899 16.19C15.9099 16.46 15.9499 16.92 16.2699 17.14L21.6999 21.03C22.1099 21.32 22.2399 21.87 21.9999 22.31C21.5699 23.11 21.4399 23.72 21.4399 24.19C21.4399 24.78 21.6199 25.21 21.9999 25.55ZM28.5199 31.13C27.8599 28.88 26.4299 26.13 24.5099 25.87L22.8299 27.55C22.6399 27.74 22.3899 27.84 22.1299 27.84C21.4799 27.84 19.4299 26.68 19.4299 24.18C19.4299 23.58 19.5599 22.91 19.8599 22.17L15.0999 18.77C13.7799 17.83 13.6199 15.92 14.7699 14.77C15.4199 14.13 16.3399 13.87 17.2299 14.07L18.6699 14.41C21.0799 13.63 23.3399 14.15 24.9599 14.83C25.8099 15.19 26.4999 15.6 26.9799 15.93C27.0899 16 27.1799 16.06 27.2599 16.12C28.7999 15.54 30.2899 15.57 31.3999 15.75C32.0299 15.85 32.5599 15.99 32.9299 16.12C33.1099 16.18 33.2599 16.24 33.3699 16.29C33.4199 16.31 33.4599 16.33 33.4899 16.34C33.5099 16.35 33.5199 16.35 33.5299 16.36H33.5499V16.37C33.8699 16.52 34.0799 16.82 34.1199 17.17C34.1499 17.52 33.9999 17.87 33.7099 18.07L30.8299 20.19C30.8699 20.26 30.8999 20.34 30.9399 20.42C31.2599 21.07 31.6399 22.01 31.8999 23.16C32.3299 25.07 32.3999 27.58 31.2999 30.23C30.9399 31.09 31.1899 31.84 32.4399 31.84H33.9999C34.5999 31.84 34.9999 32.25 34.9999 32.84V33.84H31.6999C30.6099 33.84 30.1699 33.66 30.0599 32.42H29.9399C29.8199 33.68 29.3899 33.84 28.2999 33.84H24.9999V32.84C24.9999 32.25 25.4199 31.84 25.9999 31.84H27.9999C28.4599 31.84 28.6599 31.59 28.5199 31.13Z" fill="white"/>
</svg>
