<svg width="48" height="48" viewBox="0 0 48 48" fill="none" xmlns="http://www.w3.org/2000/svg">
<rect width="48" height="48" rx="12" fill="#2B2D33"/>
<path d="M28 14C25.56 14 23.53 15.75 23.09 18.07C22.24 17.4 21.17 17 20 17H14V21C14 23.76 16.24 26 19 26H23V32H18V34H30V32H25V23H29C31.76 23 34 20.76 34 18V14H28ZM23 25.33H22.88C22.61 24.49 21.97 24 21 24H19C17.35 24 16 22.66 16 21V19H20C21.66 19 23 20.34 23 22V25.33ZM32 18C32 19.66 30.66 21 29 21H27C26.03 21 25.39 21.49 25.12 22.33H25V19C25 17.34 26.34 16 28 16H32V18Z" fill="white"/>
</svg>
