<svg width="48" height="48" viewBox="0 0 48 48" fill="none" xmlns="http://www.w3.org/2000/svg">
<rect width="48" height="48" rx="12" fill="#2B2D33"/>
<path d="M20.7402 16L18.3402 24H22.0002C22.5902 24 23.0502 24.51 22.9902 25.11L22.3502 30.85L29.8402 22H26.0002C25.2502 22 24.7802 21.21 25.1002 20.55L27.3802 16H20.7402ZM26.3002 19.88V20H32.0002C32.8202 20 33.3302 20.97 32.7602 21.65L21.7602 34.65C21.1402 35.38 19.9102 34.9 20.0002 33.89L20.7002 27.67C20.8102 26.71 21.2702 26.23 22.1702 26.12L22.1802 26H17.0002C16.3202 26 15.8602 25.34 16.0402 24.71L19.0402 14.71C19.1702 14.29 19.5602 14 20.0002 14H29.0002C29.7602 14 30.2302 14.8 29.8902 15.45L28.2702 18.69C27.8402 19.56 27.3802 19.88 26.3002 19.88Z" fill="white"/>
</svg>
