<svg width="48" height="48" viewBox="0 0 48 48" fill="none" xmlns="http://www.w3.org/2000/svg">
<rect width="48" height="48" rx="12" fill="#2B2D33"/>
<path d="M19 24C19 28.42 22.58 32 27 32C27.96 32 28.78 31.85 29.7 31.52V31.4C28.59 31.68 28.13 31.32 27.62 30.76C25.99 28.98 25 26.6 25 24C25 21.4 25.99 19.02 27.62 17.24C28.13 16.68 28.59 16.32 29.7 16.6V16.48C28.78 16.15 27.96 16 27 16C22.58 16 19 19.58 19 24ZM17 24C17 18.48 21.47 14 27 14C28.59 14 30.1 14.37 31.44 15.04C31.78 15.21 32 15.56 32 15.94C32 16.32 31.78 16.66 31.44 16.83C28.81 18.14 27 20.86 27 24C27 27.14 28.81 29.86 31.44 31.17C31.78 31.34 32 31.68 32 32.06C32 32.44 31.78 32.79 31.44 32.96C30.1 33.63 28.59 34 27 34C21.47 34 17 29.52 17 24Z" fill="white"/>
</svg>
