<svg width="48" height="48" viewBox="0 0 48 48" fill="none" xmlns="http://www.w3.org/2000/svg">
<rect width="48" height="48" rx="12" fill="#2B2D33"/>
<path d="M32.58 19H34.72V17H32.58C32.13 15.28 30.55 14 28.52 14C26.8 14 25.7 14.53 24.11 16.27L14 27.29L15.48 28.65L18.56 25.29L18.65 25.37C18.1 26.24 18.13 27.06 19 27.89C20.25 29.08 21.89 29.85 23.72 29.98V32H17.72V34H31.72V32H25.72V29.85C29.14 29.15 31.72 26.13 31.72 22.5C31.72 21.93 31.64 21.39 31.51 20.86C32.03 20.36 32.39 19.72 32.58 19ZM30.91 21.49C29.99 22.07 29.8 22.51 29.61 23.62C29.09 26.12 26.88 28 24.22 28C21.94 28 19.99 26.61 19.16 24.64L25.59 17.62C26.79 16.31 27.34 16 28.52 16C29.83 16 30.72 16.89 30.72 18C30.72 19.11 29.83 20 28.72 20H26.72V22H28.72C29.5 22 30.22 21.77 30.84 21.38L30.91 21.49Z" fill="white"/>
</svg>
