<svg width="48" height="48" viewBox="0 0 48 48" fill="none" xmlns="http://www.w3.org/2000/svg">
<rect width="48" height="48" rx="12" fill="#2B2D33"/>
<path d="M28.47 26.75L24.97 13.75C24.85 13.31 24.46 13 24 13C23.55 13 23.15 13.31 23.03 13.75L19.53 26.75C19.36 27.4 19.85 28 20.5 28H23V32C23 32.57 22.55 33 22 33C21.45 33 21 32.56 21 32V31H19V32C19 33.65 20.35 35 22 35C23.63 35 25 33.69 25 32V29.58C25 28.62 24.65 28.25 23.82 28.12V28H27.5C28.15 28 28.64 27.37 28.47 26.75ZM21.79 26L24 17.8L26.21 26H21.79Z" fill="white"/>
</svg>
