<svg width="48" height="48" viewBox="0 0 48 48" fill="none" xmlns="http://www.w3.org/2000/svg">
<rect width="48" height="48" rx="12" fill="#2B2D33"/>
<path d="M17.06 20.42H16.94C16.83 19.18 16.39 19 15.3 19H13V20C13 20.59 13.4 21 14 21H15.2C15.74 21 16 21.26 16 21.8V26.4C16 28.08 17.21 29 18.6 29C23.04 29 21.97 23 27.6 23C30.75 23 33 25.49 33 29H35C35 24.39 31.88 21 27.6 21C21.3 21 20.91 27 18.6 27C18.19 27 18 26.79 18 26.4V21.8C18 21.26 18.26 21 18.8 21H20C20.58 21 21 20.59 21 20V19H18.7C17.61 19 17.18 19.16 17.06 20.42ZM27 19H29C29 18.61 29.07 18.22 29.23 17.86C29.38 17.49 29.6 17.16 29.88 16.88C30.15 16.6 30.48 16.38 30.85 16.23C31.21 16.08 31.6 16 32 16V14C31.34 14 30.69 14.13 30.08 14.38C29.48 14.64 28.93 15 28.46 15.47C28.29 15.64 28.14 15.82 28 16C27.86 15.82 27.7 15.64 27.53 15.47C27.07 15 26.52 14.64 25.91 14.38C25.3 14.13 24.65 14 24 14V16C24.39 16 24.78 16.08 25.14 16.23C25.51 16.38 25.84 16.6 26.12 16.88C26.4 17.16 26.62 17.49 26.77 17.86C26.92 18.22 27 18.61 27 19ZM30 29.25C30.69 29.25 31.25 28.7 31.25 28C31.25 27.31 30.69 26.75 30 26.75C29.3 26.75 28.75 27.31 28.75 28C28.75 28.7 29.3 29.25 30 29.25ZM19.21 33.23C20.33 33.79 21.66 33.79 22.79 33.23L24.1 32.57C24.67 32.29 25.33 32.29 25.89 32.57L27.21 33.23C28.33 33.79 29.66 33.79 30.79 33.23L32.1 32.57C32.67 32.29 33.33 32.29 33.89 32.57L34.55 32.9C35.04 33.15 35.64 32.95 35.89 32.45C36.14 31.96 35.94 31.36 35.44 31.11L34.79 30.78C33.66 30.22 32.33 30.22 31.21 30.78L29.89 31.44C29.33 31.72 28.67 31.72 28.1 31.44L26.79 30.78C25.66 30.22 24.33 30.22 23.21 30.78L21.89 31.44C21.33 31.72 20.67 31.72 20.1 31.44L18.79 30.78C17.66 30.22 16.33 30.22 15.21 30.78L14.55 31.11C14.06 31.36 13.86 31.96 14.1 32.45C14.35 32.95 14.95 33.15 15.44 32.9L16.1 32.57C16.67 32.29 17.33 32.29 17.89 32.57L19.21 33.23Z" fill="white"/>
</svg>
