<svg width="24" height="24" viewBox="0 0 24 24" fill="none" xmlns="http://www.w3.org/2000/svg">
<path d="M20 12.8V11.1C20 10.7 19.8 10.3 19.4 10.1C18.9 9.9 16.8 9 12 9C7.2 9 5.1 9.9 4.6 10.1C4.2 10.3 4 10.7 4 11.1V12.8H3.9C3.8 12 3.5 11.6 2.6 10.9C2.1 10.5 2 10.2 2 10C2 9.8 2.1 9.3 2.6 8.8C3 8.2 3.7 7.6 4.5 7C6.3 5.9 8.8 5 12 5C14.9 5 17.5 5.7 19.5 7C20.4 7.6 21 8.2 21.5 8.8C21.9 9.4 22 9.8 22 10C22 10.2 21.9 10.5 21.4 10.9C20.5 11.5 20.3 11.9 20.2 12.8H20ZM10.6 15C9.3 14.9 8.1 14.7 7.2 14.5C6.7 14.4 6.3 14.3 6 14.2V11.7C6.8 11.4 8.7 11 12 11C15.3 11 17.2 11.4 18 11.7V14.2C17.7 14.3 17.3 14.4 16.8 14.5C15.9 14.7 14.7 14.9 13.4 15C13.5 14.9 13.5 14.7 13.5 14.5C13.5 13.7 12.8 13 12 13C11.2 13 10.5 13.7 10.5 14.5C10.5 14.7 10.6 14.8 10.6 15ZM12 19C8.2 19 6.5 17.3 6 16.7V16.3C6.2 16.4 6.5 16.4 6.8 16.5C8.1 16.8 9.9 17 12 17C14.1 17 15.9 16.7 17.2 16.4C17.5 16.3 17.8 16.3 18 16.2V16.6C17.5 17.3 15.8 19 12 19ZM12 21C16.7 21 18.9 18.8 19.6 17.9C19.9 17.6 20 17.1 20 16.8V13.8C20.4 13.7 20.9 13.5 21.5 13.2C22 12.9 22.7 12.6 23.1 12.1C23.6 11.6 24 10.9 24 10C24 9.2 23.6 8.3 23 7.6C22.4 6.8 21.6 6 20.6 5.4C18.5 4 15.6 3 12 3C8.4 3 5.5 4 3.4 5.3C2.4 6 1.5 6.8 1 7.6C0.4 8.3 0 9.2 0 10C0 10.9 0.4 11.6 0.9 12C1.4 12.6 2 12.9 2.6 13.2C3.1 13.4 3.6 13.6 4 13.8V16.8C4 17.2 4.1 17.6 4.4 17.9C5.1 18.8 7.3 21 12 21Z" fill="#2B2D33"/>
</svg>
