<svg width="24" height="24" viewBox="0 0 24 24" fill="none" xmlns="http://www.w3.org/2000/svg">
<path d="M23 14.1L21.4 15.3L20.8 14.5C20.4 14 20.4 13.5 20.4 13.1H20.3C20.2 13.5 20.3 14 19.9 14.5L19.3 15.3L17.7 14.1L18.3 13.3C18.7 12.8 19.1 12.7 19.5 12.5V12.4C19 12.5 18.6 12.6 18 12.5L17 12.1L17.6 10.2L18.5 10.5C19.1 10.7 19.4 11.1 19.7 11.4L19.8 11.3C19.6 11 19.3 10.6 19.3 10V9H21.3V10C21.3 10.6 21 11 20.8 11.4L20.9 11.5C21.2 11.2 21.5 10.8 22.1 10.6L23 10.2L23.6 12.1L22.7 12.4C22.1 12.6 21.6 12.4 21.2 12.3V12.4C21.6 12.6 22.1 12.7 22.4 13.2L23 14.1ZM15 14.1L13.4 15.3L12.8 14.5C12.4 14 12.4 13.5 12.4 13.1H12.3C12.2 13.5 12.3 14 11.9 14.5L11.3 15.3L9.6 14.1L10.2 13.3C10.6 12.8 11 12.7 11.4 12.5V12.4C11 12.5 10.5 12.6 9.9 12.4L9 12.1L9.6 10.2L10.5 10.5C11.1 10.7 11.4 11.1 11.7 11.4L11.8 11.3C11.6 11 11.3 10.6 11.3 10V9H13.3V10C13.3 10.6 13 11 12.8 11.4L12.9 11.5C13.2 11.2 13.5 10.8 14.1 10.6L15 10.2L15.6 12.1L14.7 12.4C14.1 12.6 13.6 12.4 13.2 12.3V12.4C13.6 12.6 14.1 12.7 14.4 13.2L15 14.1ZM7 14.1L5.4 15.3L4.8 14.5C4.4 14 4.4 13.5 4.4 13.1H4.3C4.3 13.5 4.3 14 3.9 14.5L3.2 15.3L1.6 14.1L2.2 13.3C2.6 12.8 3 12.7 3.4 12.5V12.4C3 12.5 2.5 12.6 1.9 12.4L1 12.1L1.6 10.2L2.5 10.5C3.1 10.7 3.4 11.1 3.7 11.4L3.8 11.3C3.6 11 3.3 10.6 3.3 10V9H5.3V10C5.3 10.6 5 11 4.8 11.4L4.9 11.5C5.2 11.2 5.5 10.8 6.1 10.6L7 10.2L7.6 12.1L6.7 12.4C6.1 12.6 5.6 12.4 5.2 12.3V12.4C5.6 12.6 6.1 12.7 6.4 13.2L7 14.1Z" fill="#2B2D33"/>
</svg>
