<svg width="24" height="24" viewBox="0 0 24 24" fill="none" xmlns="http://www.w3.org/2000/svg">
<path d="M23 12.1L21.4 13.3L20.8 12.5C20.4 12 20.4 11.5 20.4 11.1H20.3C20.2 11.5 20.3 12 19.9 12.5L19.3 13.3L17.7 12.1L18.3 11.3C18.7 10.8 19.1 10.7 19.5 10.5V10.4C19 10.5 18.6 10.6 18 10.5L17 10.1L17.6 8.2L18.5 8.5C19.1 8.7 19.4 9.1 19.7 9.4L19.8 9.3C19.6 9 19.3 8.6 19.3 8V7H21.3V8C21.3 8.6 21 9 20.8 9.4L20.9 9.5C21.2 9.2 21.5 8.8 22.1 8.6L23 8.2L23.6 10.1L22.7 10.4C22.1 10.6 21.6 10.4 21.2 10.3V10.4C21.6 10.6 22.1 10.7 22.4 11.2L23 12.1ZM15 12.1L13.4 13.3L12.8 12.5C12.4 12 12.4 11.5 12.4 11.1H12.3C12.2 11.5 12.3 12 11.9 12.5L11.3 13.3L9.6 12.1L10.2 11.3C10.6 10.8 11 10.7 11.4 10.5V10.4C11 10.5 10.5 10.6 9.9 10.4L9 10.1L9.6 8.2L10.5 8.5C11.1 8.7 11.4 9.1 11.7 9.4L11.8 9.3C11.6 9 11.3 8.6 11.3 8V7H13.3V8C13.3 8.6 13 9 12.8 9.4L12.9 9.5C13.2 9.2 13.5 8.8 14.1 8.6L15 8.2L15.6 10.1L14.7 10.4C14.1 10.6 13.6 10.4 13.2 10.3V10.4C13.6 10.6 14.1 10.7 14.4 11.2L15 12.1ZM7 12.1L5.4 13.3L4.8 12.5C4.4 12 4.4 11.5 4.4 11.1H4.3C4.3 11.5 4.3 12 3.9 12.5L3.2 13.3L1.6 12.1L2.2 11.3C2.6 10.8 3 10.7 3.4 10.5V10.4C3 10.5 2.5 10.6 1.9 10.4L1 10.1L1.6 8.2L2.5 8.5C3.1 8.7 3.4 9.1 3.7 9.4L3.8 9.3C3.6 9 3.3 8.6 3.3 8V7H5.3V8C5.3 8.6 5 9 4.8 9.4L4.9 9.5C5.2 9.2 5.5 8.8 6.1 8.6L7 8.2L7.6 10.1L6.7 10.4C6.1 10.6 5.6 10.4 5.2 10.3V10.4C5.6 10.6 6.1 10.7 6.4 11.2L7 12.1Z" fill="#2B2D33"/>
<path d="M7.3 15H1.3V17H7.3V15Z" fill="#2B2D33"/>
<path d="M15.3 15H9.3V17H15.3V15Z" fill="#2B2D33"/>
<path d="M17.3 15H23.3V17H17.3V15Z" fill="#2B2D33"/>
</svg>
