<svg width="24" height="24" viewBox="0 0 24 24" fill="none" xmlns="http://www.w3.org/2000/svg">
<path d="M12.0001 13C11.4001 13 11.0001 12.6 11.0001 12C11.0001 11.4 11.4001 11 12.0001 11C12.6001 11 13.0001 11.4 13.0001 12C13.0001 12.6 12.6001 13 12.0001 13ZM12.0001 15C13.7001 15 15.0001 13.7 15.0001 12C15.0001 10.3 13.7001 9 12.0001 9C10.3001 9 9.0001 10.3 9.0001 12C9.0001 13.7 10.3001 15 12.0001 15ZM12.0001 17C9.8001 17 7.5001 15.7 5.1001 13C4.5001 12.4 4.1001 12.2 3.1001 12V11.9C4.1001 11.8 4.5001 11.6 5.1001 10.9C7.5001 8.3 9.8001 7 12.0001 7C14.2001 7 16.5001 8.3 18.9001 11C19.5001 11.6 19.9001 11.8 20.9001 12V12.1C19.9001 12.2 19.5001 12.4 18.9001 13.1C16.5001 15.7 14.2001 17 12.0001 17ZM12.0001 19C15.3001 19 18.6001 16.8 21.8001 12.6C22.1001 12.2 22.1001 11.7 21.8001 11.4C18.6001 7.2 15.3001 5 12.0001 5C8.7001 5 5.4001 7.2 2.2001 11.4C1.9001 11.8 1.9001 12.3 2.2001 12.6C5.4001 16.8 8.7001 19 12.0001 19Z" fill="#2B2D33"/>
</svg>
