<svg width="25" height="24" viewBox="0 0 25 24" fill="none" xmlns="http://www.w3.org/2000/svg">
<path d="M7.89951 16H10.3995L7.85951 13.02C7.28951 12.36 6.82951 12.12 5.93951 12.06V11.94C6.82951 11.88 7.29951 11.65 7.85951 10.99L10.3995 8H7.89951L4.99951 11.41V8H2.99951V16H4.99951V12.59L7.89951 16Z" fill="#2B2D33"/>
<path d="M10.9995 14.03V16H16.9995V14H14.0295V13.88C16.4095 13.1 16.9995 11.59 16.9995 10.39C16.9995 8.86 15.7895 7.79 14.0995 7.79C12.2895 7.79 10.9995 9.14 10.9995 10.79H12.9995C12.9995 10.24 13.4395 9.79 14.0495 9.79C14.6195 9.79 14.9995 10.16 14.9995 10.69C14.9995 11.93 13.7295 12.92 10.9995 14.03Z" fill="#2B2D33"/>
<path d="M12.9995 2C10.3095 2 7.78951 3.07 5.92951 4.93L7.33951 6.34C8.82951 4.85 10.8395 4 12.9995 4C17.4095 4 20.9995 7.58 20.9995 12C20.9995 16.42 17.4095 20 12.9995 20C10.8495 20 8.82951 19.15 7.33951 17.66L5.92951 19.07C7.78951 20.93 10.3095 22 12.9995 22C18.5195 22 22.9995 17.52 22.9995 12C22.9995 6.48 18.5195 2 12.9995 2Z" fill="#2B2D33"/>
</svg>
