<svg width="24" height="24" viewBox="0 0 24 24" fill="none" xmlns="http://www.w3.org/2000/svg">
<path fill-rule="evenodd" clip-rule="evenodd" d="M19 0L23 1.78814e-07C23.5523 1.78814e-07 24 0.447715 24 1V5H22V2H19V0ZM0 1C0 0.447715 0.447715 1.78814e-07 1 1.78814e-07H5V2H2V5H0V1ZM10.8253 2.077C12.9901 1.792 15.1846 2.3037 17.0001 3.51677C18.8156 4.72985 20.1282 6.56156 20.6933 8.67063C20.8363 9.2041 20.5197 9.75243 19.9862 9.89538C19.4528 10.0383 18.9044 9.72173 18.7615 9.18827C18.3219 7.54788 17.301 6.12322 15.889 5.17971C14.4769 4.23621 12.77 3.83822 11.0863 4.05989C9.40259 4.28155 7.85686 5.10776 6.73712 6.38458C5.61738 7.6614 5 9.30174 5 11C5 11.5523 4.55228 12 4 12C3.44771 12 3 11.5523 3 11C3 8.81652 3.79378 6.70751 5.23344 5.06589C6.67311 3.42426 8.66047 2.362 10.8253 2.077ZM12 8C11.4734 8 10.9561 8.13862 10.5 8.40192C10.0439 8.66523 9.66523 9.04394 9.40192 9.5C9.13862 9.95606 9 10.4734 9 11C9 11.6555 8.88764 12.3923 8.59311 13.0542C8.29601 13.722 7.78154 14.3756 6.95852 14.7024L3.8691 15.9294C3.35582 16.1332 2.77446 15.8824 2.57061 15.3691C2.36676 14.8558 2.61761 14.2745 3.1309 14.0706L6.22031 12.8437C6.42332 12.763 6.61414 12.5821 6.76582 12.2412C6.92008 11.8945 7 11.4485 7 11C7 10.1223 7.23103 9.2601 7.66987 8.5C8.10871 7.7399 8.7399 7.10871 9.5 6.66987C10.2601 6.23103 11.1223 6 12 6C12.8777 6 13.7399 6.23103 14.5 6.66987C15.2601 7.10871 15.8913 7.7399 16.3301 8.5C16.5105 8.81246 16.6954 9.14721 16.8212 9.56453C16.9483 9.98645 17 10.4386 17 11C17 13.7963 16.0591 16.6304 13.9234 18.6233C13.079 19.4112 12.1032 20.2329 11.1193 20.8636C10.1677 21.4737 9.06545 22 8 22C7.44772 22 7 21.5523 7 21C7 20.4477 7.44772 20 8 20C8.47049 20 9.16633 19.7399 10.04 19.1799C10.8815 18.6405 11.7582 17.9082 12.5589 17.1611C14.2025 15.6274 15 13.3728 15 11C15 10.5614 14.9593 10.3176 14.9062 10.1415C14.8518 9.96086 14.7687 9.79561 14.5981 9.5C14.3348 9.04394 13.9561 8.66523 13.5 8.40192C13.0439 8.13862 12.5266 8 12 8ZM12 10C12.5523 10 13 10.4477 13 11V11.2918C13 13.9432 11.502 16.367 9.1305 17.5528L6.44721 18.8944C5.95324 19.1414 5.35256 18.9412 5.10557 18.4472C4.85858 17.9532 5.05881 17.3526 5.55279 17.1056L8.23607 15.7639C9.92999 14.917 11 13.1857 11 11.2918V11C11 10.4477 11.4477 10 12 10ZM20.1644 11.5136C20.7092 11.6044 21.0772 12.1196 20.9864 12.6644L20.7456 14.1094C20.2158 17.2878 18.4301 20.1196 15.7904 21.9674L14.5735 22.8192C14.121 23.1359 13.4975 23.0259 13.1808 22.5735C12.8641 22.121 12.9741 21.4975 13.4265 21.1808L14.6435 20.3289C16.8432 18.7891 18.3313 16.4292 18.7728 13.7806L19.0136 12.3356C19.1044 11.7908 19.6196 11.4228 20.1644 11.5136ZM2 22V19H0V23C0 23.5523 0.447715 24 1 24H5V22H2ZM22 22V19H24V23C24 23.5523 23.5523 24 23 24H19V22H22Z" fill="#2B2D33"/>
</svg>
