<svg width="24" height="24" viewBox="0 0 24 24" fill="none" xmlns="http://www.w3.org/2000/svg">
<path d="M14 12.94C13.42 12.94 12.94 13.42 12.94 14C12.94 14.58 13.42 15.06 14 15.06C14.58 15.06 15.06 14.58 15.06 14C15.06 13.42 14.58 12.94 14 12.94Z" fill="#2B2D33"/>
<path d="M16.94 14C16.94 14.58 17.42 15.06 18 15.06C18.58 15.06 19.06 14.58 19.06 14C19.06 13.42 18.58 12.94 18 12.94C17.42 12.94 16.94 13.42 16.94 14Z" fill="#2B2D33"/>
<path d="M16 14.94C15.42 14.94 14.94 15.42 14.94 16C14.94 16.58 15.42 17.06 16 17.06C16.58 17.06 17.06 16.58 17.06 16C17.06 15.42 16.58 14.94 16 14.94Z" fill="#2B2D33"/>
<path d="M15.5 9C13.34 9 11.44 10.05 10.26 11.67L10.16 11.6C11.38 10.21 10.5 10.03 10.5 9C10.5 7.93 11 6.04 11 5C11 2.54 9.39 1 7.5 1C5.61 1 4 2.54 4 5C4 6.05 4.5 7.93 4.5 9C4.5 10.48 2 12.82 2 16C2 18.83 3.13 21.27 4.77 22H10.24C10.77 21.76 11.23 21.36 11.69 20.76C12.76 21.54 14.07 22 15.5 22C19.09 22 22 19.09 22 15.5C22 11.91 19.09 9 15.5 9ZM9.69 20H5.31C4.5 19.32 4 17.8 4 16C4 13.31 6.5 11.36 6.5 9C6.5 7.7 6 6.1 6 5C6 3.67 6.63 3 7.5 3C8.37 3 9 3.67 9 5C9 6.04 8.5 7.75 8.5 9C8.5 9.64 8.68 10.32 9.06 11.09C9.25 11.49 9.49 11.91 9.72 12.32L9.78 12.42C9.28 13.34 9 14.39 9 15.5C9 16.93 9.47 18.25 10.25 19.33C10.1 19.57 9.96 19.73 9.69 20ZM15.5 20C13.01 20 11 17.99 11 15.5C11 13.02 13.02 11 15.5 11C17.99 11 20 13.01 20 15.5C20 17.99 17.99 20 15.5 20Z" fill="#2B2D33"/>
</svg>
