<svg width="24" height="24" viewBox="0 0 24 24" fill="none" xmlns="http://www.w3.org/2000/svg">
<path d="M18 18C16.9 18 16 17.1 16 16V9C16 7.9 16.9 7 18 7C19.11 7 20 7.9 20 9V16C20 17.1 19.11 18 18 18ZM15.18 13.12C14.39 13.2 14 13.61 14 14.59V16C14 16.7 14.18 17.37 14.5 17.94C13.62 17.9 12.67 17.85 11.77 17.76C10.55 17.63 9.47 17.45 8.72 17.21C8.34 17.08 8 17.01 8 16.87V8C8 6.9 8.9 6 10 6H13.67C13.85 6 14 6.15 14 6.33V11H13C12.45 11 12 10.55 12 10V8H10V10C10 11.66 11.35 13 13 13H15.18V13.12ZM4 16V9H6V16H4ZM17.99 20H18C20.21 20 22 18.21 22 16V9C22 6.79 20.21 5 18 5C17.22 5 16.5 5.22 15.89 5.6C15.58 4.67 14.7 4 13.67 4H10C8.14 4 6.57 5.27 6.13 7H3C2.45 7 2 7.45 2 8V17C2 17.55 2.45 18 3 18H6.33C6.46 18.18 6.61 18.33 6.77 18.45C7.14 18.74 7.62 18.95 8.1 19.11C9.06 19.42 10.31 19.62 11.57 19.75C14.09 20 16.88 20 17.99 20Z" fill="#2B2D33"/>
</svg>
