<svg width="24" height="24" viewBox="0 0 24 24" fill="none" xmlns="http://www.w3.org/2000/svg">
<path d="M15.2414 16H16.5414C15.9814 15.09 15.2814 13.89 15.1014 13.34C15.0114 13.06 15.0014 12.98 15.0014 12.7V9H16.0014V7H8.00144V9H9.00144V12.7C9.00144 12.98 8.99144 13.06 8.90144 13.34C8.72144 13.89 8.02144 15.09 7.46144 16H7.00144C6.54144 16 6.14144 16.31 6.03144 16.76L5.03144 20.76C4.87144 21.41 5.34144 22 6.00144 22H18.0014C18.6614 22 19.1314 21.38 18.9714 20.76L17.9714 16.76C17.8614 16.31 17.4614 16 17.0014 16H8.76144V15.88C9.93144 15.78 10.1114 15.58 10.7214 14.21C10.9614 13.67 11.0014 13.51 11.0014 12.7V9H13.0014V12.7C13.0014 13.51 13.0414 13.67 13.2814 14.21C13.8914 15.58 14.0714 15.78 15.2414 15.88V16ZM12.0014 5C11.4514 5 11.0014 4.55 11.0014 4C11.0014 3.45 11.4514 3 12.0014 3C12.5514 3 13.0014 3.45 13.0014 4C13.0014 4.55 12.5514 5 12.0014 5ZM12.0014 7C13.6514 7 15.0014 5.65 15.0014 4C15.0014 2.35 13.6514 1 12.0014 1C10.3514 1 9.00144 2.35 9.00144 4C9.00144 5.65 10.3514 7 12.0014 7ZM7.28144 20L7.78144 18H16.2214L16.7214 20H7.28144Z" fill="#2B2D33"/>
</svg>
