<svg width="24" height="24" viewBox="0 0 24 24" fill="none" xmlns="http://www.w3.org/2000/svg">
<path d="M8.49996 10.93L13.16 3.47003C13.56 2.83003 14.5 2.85003 14.87 3.50003L22.87 17.5C23.25 18.17 22.76 19 22.01 19H2.00996C1.25996 19 0.769959 18.23 1.10996 17.55L6.10996 7.55003C6.47996 6.82003 7.54996 6.82003 7.89996 7.55003L8.30996 8.40003C8.83996 9.49003 8.85996 9.85003 8.39996 10.87L8.49996 10.93ZM16.03 9.56003L14.66 10.75C14.3 11.07 13.76 11.08 13.38 10.78L11.76 9.48003L9.84996 12.53C9.65996 12.84 9.31996 13.02 8.95996 13C8.59996 12.98 8.26996 12.77 8.10996 12.45L7.00996 10.24L3.61996 17H20.28L16.03 9.56003ZM12.83 7.78003L13.98 8.70003L15.02 7.79003L13.97 5.95003L12.83 7.78003Z" fill="#2B2D33"/>
</svg>
