<svg width="24" height="24" viewBox="0 0 24 24" fill="none" xmlns="http://www.w3.org/2000/svg">
<path d="M12.74 16.92L12.73 17.04C15.55 17.2 18.58 18.52 20.46 20.29L19.05 21.71C17.62 20.44 15.08 19 11.76 19C9.1 19 6.51 19.93 4.47 21.71L3.05 20.29C5.42 18.19 8.31 17.11 11.34 17.01C12.8 15.55 13.76 13.18 13.76 11C13.76 9.29 13.25 7.88 12.66 6.82C12.21 6.94 11.75 7.16 11.38 7.53C10.83 8.08 10.61 8.8 10.55 9.44C10.52 9.76 10.53 10.04 10.55 10.24C10.56 10.33 10.57 10.41 10.58 10.46C10.58 10.48 10.59 10.5 10.59 10.51C10.59 10.51 10.59 10.51 9.61 10.71C8.63 10.92 8.63 10.92 8.63 10.92V10.91L8.62 10.9V10.87C8.61 10.84 8.61 10.8 8.6 10.76C8.59 10.68 8.57 10.56 8.56 10.41C8.53 10.12 8.52 9.72 8.56 9.26C8.63 8.5 8.87 7.51 9.52 6.63C9.27 6.73 9.02 6.85 8.76 7C7.6 7.67 6.88 8.58 6.45 9.33C6.23 9.71 6.09 10.04 6.01 10.27C5.97 10.39 5.94 10.47 5.92 10.53C5.91 10.56 5.91 10.58 5.9 10.59V10.6C5.9 10.6 5.9 10.59 4.93 10.37C3.96 10.14 3.96 10.14 3.96 10.14V10.12L3.97 10.08C3.98 10.05 3.99 10.02 4 9.97C4.03 9.87 4.07 9.74 4.13 9.58C4.25 9.26 4.43 8.83 4.71 8.34C5.27 7.37 6.22 6.16 7.76 5.27C8.56 4.8 9.36 4.52 10.1 4.36C9.57 4.15 8.96 4 8.26 4C7.1 4 6.16 4.41 5.5 4.84C5.17 5.05 4.91 5.27 4.75 5.42C4.66 5.5 4.6 5.56 4.56 5.6C4.55 5.62 4.53 5.64 4.53 5.64L4.52 5.65C4.52 5.65 4.52 5.65 3.76 5C3 4.36 3 4.36 3 4.36V4.35L3.01 4.34L3.03 4.31C3.05 4.29 3.08 4.26 3.11 4.23C3.18 4.16 3.27 4.07 3.39 3.96C3.62 3.74 3.97 3.45 4.41 3.16C5.3 2.59 6.61 2 8.26 2C9.91 2 11.22 2.59 12.11 3.16C12.16 3.2 12.21 3.23 12.26 3.26C12.31 3.23 12.36 3.2 12.41 3.16C13.3 2.59 14.61 2 16.26 2C17.91 2 19.22 2.59 20.11 3.16C20.55 3.45 20.9 3.74 21.13 3.96C21.25 4.07 21.34 4.16 21.41 4.23C21.44 4.26 21.47 4.29 21.49 4.31L21.51 4.34L21.52 4.35C21.52 4.36 21.52 4.36 20.76 5C20 5.65 20 5.65 20 5.65L19.99 5.64C19.99 5.64 19.97 5.62 19.95 5.6C19.92 5.56 19.86 5.5 19.77 5.42C19.6 5.27 19.35 5.05 19.02 4.84C18.36 4.41 17.42 4 16.26 4C15.86 4 15.49 4.05 15.15 4.13C15.79 4.43 16.45 4.86 17.06 5.48C18.23 6.64 18.74 7.99 18.96 9.02C19.07 9.53 19.11 9.98 19.13 10.3C19.13 10.46 19.13 10.6 19.13 10.69C19.13 10.74 19.13 10.78 19.12 10.81V10.86C19.12 10.86 19.12 10.86 18.12 10.78C17.13 10.69 17.13 10.7 17.13 10.7V10.69C17.13 10.68 17.13 10.66 17.13 10.63C17.13 10.58 17.13 10.49 17.13 10.38C17.12 10.15 17.09 9.82 17.01 9.44C16.84 8.67 16.47 7.71 15.65 6.89C15.29 6.53 14.9 6.26 14.52 6.05C15.19 7.31 15.76 8.99 15.76 11C15.76 12.92 15.35 14.38 14.47 16C14.08 16.73 13.76 16.94 12.74 16.92Z" fill="#2B2D33"/>
</svg>
