<svg width="24" height="24" viewBox="0 0 24 24" fill="none" xmlns="http://www.w3.org/2000/svg">
<path d="M15.98 9C15.86 7.35 15.65 6.18 15.02 4.58C16.7 5.25 17.98 6.52 18.63 8.04C18.86 8.58 19.05 8.75 19.59 8.88V9H15.98ZM9.48 9V8.88C9.96 8.65 10.08 8.39 10.19 7.69C10.35 6.56 10.79 4.98 11.55 4.25C11.78 4.03 11.94 4 12 4C12.06 4 12.22 4.03 12.45 4.25C13.21 4.98 13.65 6.56 13.81 7.69C13.92 8.39 14.04 8.65 14.52 8.88V9H9.48ZM14.41 17L15.9 11.52C15.97 11.25 15.99 11 15.99 11H19.29V11.12C18.72 11.25 18.47 11.41 18.07 11.96L14.41 17ZM4.42 9V8.88C4.96 8.75 5.15 8.58 5.38 8.04C6.03 6.52 7.31 5.25 8.99 4.58C8.36 6.18 8.15 7.35 8.03 9H4.42ZM12 18.2L10.41 12.35C10.18 11.5 9.98 11.27 9.48 11.12V11H14.52V11.12C14.02 11.27 13.82 11.5 13.59 12.35L12 18.2ZM9.6 17L5.94 11.96C5.54 11.41 5.29 11.25 4.72 11.12V11H8.01C8.01 11 8.04 11.25 8.11 11.52L9.6 17ZM12 23C12.32 23 12.62 22.85 12.81 22.59L20.43 12.11C20.92 11.43 21 10.99 21 10C21 5.43 16.82 2 12 2C7.24 2 3 5.41 3 10C3 10.98 3.07 11.41 3.58 12.11L11.19 22.59C11.38 22.85 11.68 23 12 23Z" fill="#2B2D33"/>
</svg>
