<svg width="24" height="24" viewBox="0 0 24 24" fill="none" xmlns="http://www.w3.org/2000/svg">
<path d="M12 18C9.8 18 8 19.8 8 22H10C10 20.9 10.9 20 12 20C13.1 20 14 20.9 14 22H16C16 19.8 14.2 18 12 18Z" fill="#2B2D33"/>
<path d="M19.85 20.97L17.4 16.99C17 16.33 16.77 16.2 15.94 16.12V16H18V14H15.6L13 6.2V5H14V3H13V1H11V3H10V5H11V6.2L8.4 14H6V16H8.06V16.12C7.23 16.2 7 16.33 6.6 16.99L4.15 20.97C4.05 21.13 4 21.31 4 21.5V22H6V21.78L9.56 16H14.44L18 21.78V22H20V21.5C20 21.31 19.95 21.13 19.85 20.97ZM9.5 14V13.88C10.23 13.8 10.56 13.57 10.75 13L12 9.2L13.25 13C13.44 13.57 13.77 13.8 14.5 13.88V14H9.5Z" fill="#2B2D33"/>
</svg>
