<svg width="24" height="24" viewBox="0 0 24 24" fill="none" xmlns="http://www.w3.org/2000/svg">
<path d="M21 18C21 19.1 20.1 20 19 20H18V18C19.77 18 21 16.77 21 15V13C21 11.23 19.77 10 18 10C15.25 10 13 8.19 13 6V3C13 2.45 12.57 2 12.02 2H5C4.45 2 4 2.44 4 3V7.99C4 9.68 3 10.02 3 11.99V17C3 17.56 3.45 18 4 18H5C5 18.97 5.49 19.61 6.33 19.88V20H2V22H19C21.21 22 23 20.21 23 18H21ZM5 12C5 10.1 6 9.71 6 7.99V4H11.01L11 6C10.98 9.33 14.15 12 18 12C18.66 12 19 12.34 19 13V15C19 15.66 18.66 16 18 16H16C13.91 16 12.94 14 10 14H9C8.34 14 8 14.35 8 15V16H5V12ZM7 20V18H9C9.55 18 10 17.55 10 17V16C12.44 16 13.41 18 16 18C16 18.97 16.49 19.61 17.33 19.88V20H7Z" fill="#2B2D33"/>
</svg>
