<svg width="24" height="24" viewBox="0 0 24 24" fill="none" xmlns="http://www.w3.org/2000/svg">
<path d="M17.24 8L12.1 5.14L6.96 8H17.24ZM11.75 15.88V16H12.91C14.2 15.99 14.89 15.95 15.55 15.77C16.17 15.61 16.77 15.36 17.32 15.04C17.95 14.67 18.57 14.14 19.19 13.54C19.56 13.17 19.88 12.84 20.18 12.52C20.41 12.28 20.64 12.04 20.89 11.79L22.31 13.21C22.14 13.37 21.93 13.59 21.7 13.83C21.35 14.2 20.95 14.62 20.58 14.97C19.93 15.61 19.17 16.28 18.33 16.77C18.22 16.83 18.1 16.9 17.98 16.96L20.81 19.79L19.39 21.21L15.93 17.74C15.16 18 14.33 18 12.98 18H11.1C9.58 18 8.95 18.01 8.35 18.16C7.82 18.28 7.31 18.45 6.82 18.68C6.21 18.98 5.82 19.24 5.34 19.62C5.18 19.74 5.01 19.88 4.81 20.04C4.4 20.37 3.87 20.79 3.2 21.3L2 19.7C2.65 19.21 3.11 18.84 3.51 18.52C3.72 18.35 3.91 18.2 4.11 18.04C4.67 17.6 5.18 17.25 5.96 16.88C6.59 16.58 7.25 16.36 7.92 16.21C8.79 16.02 9.69 16 11.1 16V10H3.1C2.64 10 2.24 9.69 2.13 9.25C2.02 8.81 2.21 8.35 2.61 8.13L11.1 3.41V2H13.1V3.41L21.58 8.13C21.98 8.35 22.18 8.81 22.07 9.25C21.95 9.69 21.55 10 21.1 10H13.1V14.48C13.1 15.35 12.71 15.79 11.75 15.88Z" fill="#2B2D33"/>
</svg>
