<svg width="24" height="24" viewBox="0 0 24 24" fill="none" xmlns="http://www.w3.org/2000/svg">
<path d="M13 10H11V14H13V10Z" fill="#2B2D33"/>
<path d="M20 7.43L18.58 6.01L16.9 7.69C15.8 6.83 14.46 6.25 13 6.07V4H15V2H9V4H11V4.4C11 5.22 11.49 5.75 12.33 5.88V6.02C12.22 6.01 12.11 6 12 6C10.15 6 8.45 6.63 7.1 7.69L5.42 6.01L4 7.43L5.68 9.11C4.63 10.46 4 12.16 4 14C4 18.42 7.58 22 12 22C16.42 22 20 18.42 20 14C20 12.16 19.37 10.46 18.32 9.11L20 7.43ZM12 20C8.69 20 6 17.32 6 14C6 10.68 8.69 8 12 8C15.32 8 18 10.68 18 14C18 17.32 15.32 20 12 20Z" fill="#2B2D33"/>
</svg>
