<svg width="24" height="24" viewBox="0 0 24 24" fill="none" xmlns="http://www.w3.org/2000/svg">
<path d="M21 11H17V13H20.94V13.12C20.16 13.12 19.91 13.36 19.75 14C18.97 17.15 16.28 19.52 13 19.93V9.86C14.72 9.41 16 7.86 16 6C16 3.79 14.21 2 12 2C9.79 2 8 3.79 8 6C8 7.86 9.28 9.41 11 9.86V19.93C7.72 19.52 5.06 17.14 4.25 14C4.09 13.36 3.84 13.12 3.06 13.12V13H7V11H3C2.45 11 2 11.45 2 12C2 17.52 6.48 22 12 22C17.52 22 22 17.52 22 12C22 11.45 21.55 11 21 11ZM10 6C10 4.9 10.9 4 12 4C13.11 4 14 4.9 14 6C14 7.1 13.11 8 12 8C10.9 8 10 7.1 10 6Z" fill="#FEE600"/>
</svg>
