<svg width="24" height="24" viewBox="0 0 24 24" fill="none" xmlns="http://www.w3.org/2000/svg">
<path d="M11 17H10.88C10.69 17.67 10.29 18 9.59 18H8C8 18.55 7.55 19 7 19H3C2.45 19 2 18.55 2 18V13.02C2 13 2 12.99 2 12.97C2.01 12.18 2.39 11.49 2.67 11.07C2.8 10.88 2.92 10.72 3.03 10.59C3.06 10.29 3.12 9.94 3.19 9.59C3.31 9.04 3.48 8.41 3.68 7.81C3.87 7.22 4.12 6.61 4.41 6.13C4.55 5.89 4.73 5.64 4.96 5.43C5.18 5.23 5.53 5 6 5H11V3H14.2C14.59 3 14.94 3.22 15.1 3.57L15.88 5.18L17.49 4.65C17.85 4.53 18.24 4.62 18.51 4.89L20.11 6.49C20.38 6.76 20.47 7.16 20.35 7.52L19.82 9.09L21.45 9.91C21.79 10.07 22 10.42 22 10.8V13.2C22 13.58 21.78 13.93 21.43 14.1L19.82 14.88L20.35 16.49C20.47 16.85 20.37 17.24 20.11 17.51L18.51 19.11C18.24 19.37 17.85 19.47 17.49 19.35L15.88 18.82L15.1 20.43C14.94 20.78 14.59 21 14.2 21H11V17ZM13 13C13.55 13 14 12.55 14 12C14 11.45 13.55 11 13 11V13ZM9.59 12H4.46C4.42 12.05 4.38 12.11 4.33 12.18C4.27 12.28 4.21 12.37 4.17 12.46L5.45 13.11C5.94 13.35 6.14 13.95 5.9 14.45C5.65 14.94 5.05 15.14 4.55 14.89L4 14.62V17H6V16H11V11H10.88C10.69 11.67 10.29 12 9.59 12ZM11 6H10.88C10.69 6.67 10.29 7 9.59 7H6.23C6.2 7.04 6.16 7.09 6.12 7.16C5.94 7.46 5.75 7.91 5.57 8.44C5.4 8.96 5.25 9.52 5.15 10H11V6ZM13.57 5H13V9C14.66 9 16 10.34 16 12C16 13.66 14.66 15 13 15V19H13.57L14.07 17.96C14.51 17.05 15.55 16.61 16.5 16.92L17.53 17.26L18.26 16.53L17.92 15.5C17.61 14.54 18.05 13.51 18.96 13.07L20 12.57V11.42L18.93 10.88C18.04 10.44 17.61 9.41 17.93 8.46L18.26 7.47L17.53 6.74L16.5 7.08C15.55 7.39 14.51 6.95 14.07 6.04L13.57 5Z" fill="#FEE600"/>
</svg>
