<svg width="24" height="24" viewBox="0 0 24 24" fill="none" xmlns="http://www.w3.org/2000/svg">
<path d="M21 11C20.82 10.8 20.64 10.63 20.49 10.5C20.44 9.68 20.3 8.25 19.98 6.9C19.78 6.05 19.51 5.16 19.11 4.46C18.73 3.8 18.07 3 17 3H7C5.93 3 5.27 3.8 4.89 4.46C4.49 5.16 4.22 6.05 4.02 6.9C3.71 8.25 3.56 9.68 3.51 10.5C3.36 10.63 3.18 10.8 3 11C2.57 11.48 2 12.3 2 13.33V20C2 20.55 2.44 21 3 21H7C7.55 21 8 20.55 8 20V19H16V20C16 20.55 16.45 21 17 21H21C21.56 21 22 20.55 22 20V13.33C22 12.3 21.43 11.48 21 11ZM5.97 7.35C6.15 6.57 6.37 5.9 6.63 5.45C6.76 5.22 6.87 5.1 6.94 5.04C6.98 5.01 6.99 5 7 5H17C17.01 5 17.02 5.01 17.06 5.04C17.13 5.1 17.24 5.22 17.37 5.45C17.63 5.9 17.85 6.57 18.03 7.35C18.25 8.29 18.37 9.27 18.44 10H5.56C5.63 9.27 5.75 8.29 5.97 7.35ZM16.64 15.47C16.81 15.99 17.38 16.28 17.9 16.1L19.06 15.7C19.5 15.55 19.86 15.1 19.88 14.29H20V19H18V17H6V19H4V14.29H4.12C4.14 15.1 4.5 15.55 4.94 15.7L6.1 16.1C6.62 16.28 7.19 15.99 7.36 15.47C7.53 14.94 7.26 14.38 6.73 14.2L4 13.28C4.02 12.99 4.19 12.66 4.49 12.34C4.61 12.2 4.73 12.09 4.84 12H19.16C19.27 12.09 19.39 12.2 19.51 12.34C19.8 12.67 19.98 12.99 20 13.28L17.27 14.2C16.74 14.38 16.47 14.94 16.64 15.47Z" fill="#FEE600"/>
</svg>
