<svg width="24" height="24" viewBox="0 0 24 24" fill="none" xmlns="http://www.w3.org/2000/svg">
<path d="M18.19 11.02L17.18 5H19.5C20.05 5 20.5 5.45 20.5 6C20.5 6.55 20.05 7 19.5 7H19V9H19.5C21.16 9 22.5 7.66 22.5 6C22.5 4.34 21.16 3 19.5 3H16C15.39 3 14.92 3.54 15.01 4.16L15.49 7H7.62L6.9 5.55C6.73 5.21 6.38 5 6 5H2V7H5.44L6.68 9.88C6.99 10.59 7.28 10.89 7.96 11.27L7.9 11.38C7.31 11.14 6.67 11 6 11C3.24 11 1 13.24 1 16C1 18.76 3.24 21 6 21C8.76 21 11 18.76 11 16C11 15.49 10.9 15 10.76 14.54L13.16 13.23C13.73 12.92 14.14 12.59 14.66 12.12L14.75 12.23C13.69 13.15 13 14.49 13 16C13 18.76 15.24 21 18 21C20.76 21 23 18.76 23 16C23 13.3 20.86 11.12 18.19 11.02ZM6 19C4.34 19 3 17.66 3 16C3 14.34 4.34 13 6 13C6.77 13 7.47 13.29 8.01 13.77L5.52 15.12L6.48 16.88L8.96 15.52C8.99 15.68 9 15.84 9 16C9 17.66 7.66 19 6 19ZM10.03 12.67L8.5 9H15.82L15.9 9.46L10.03 12.67ZM18 19C16.34 19 15 17.66 15 16C15 14.87 15.63 13.89 16.55 13.37L17.02 16.16L18.99 15.84L18.52 13.05C19.93 13.29 21 14.52 21 16C21 17.66 19.66 19 18 19Z" fill="#FEE600"/>
</svg>
