<svg width="24" height="24" viewBox="0 0 24 24" fill="none" xmlns="http://www.w3.org/2000/svg">
<path d="M15 7C16.07 7 17 6.07 17 5C17 3.93 16.07 3 15 3C13.94 3 13 3.93 13 5C13 6.07 13.94 7 15 7ZM21 13C22.07 13 23 12.07 23 11C23 9.93 22.07 9 21 9C19.94 9 19 9.93 19 11C19 12.07 19.94 13 21 13ZM14.4 13.01L23 4.42L21.6 3.02L13 11.61L14.4 13.01ZM7 3.49C5.93 3.49 5.27 4.29 4.89 4.95C4.49 5.65 4.22 6.54 4.02 7.39C3.71 8.74 3.56 10.17 3.51 10.99C3.36 11.12 3.18 11.29 3 11.49C2.57 11.97 2 12.79 2 13.82V20.49C2 21.04 2.44 21.49 3 21.49H7C7.55 21.49 8 21.04 8 20.49V19.49H16V20.49C16 21.04 16.44 21.49 17 21.49H21C21.55 21.49 22 21.04 22 20.49V14.82H20V19.49H18V17.49H6V19.49H4V14.78H4.12C4.14 15.59 4.5 16.04 4.94 16.19L6.1 16.59C6.62 16.77 7.19 16.48 7.36 15.96C7.53 15.43 7.26 14.87 6.73 14.69L4 13.77C4.02 13.48 4.19 13.15 4.49 12.83C4.61 12.69 4.73 12.58 4.84 12.49H11V10.49H5.56C5.63 9.76 5.75 8.78 5.97 7.84C6.15 7.06 6.37 6.39 6.63 5.94C6.76 5.71 6.87 5.59 6.94 5.53C6.98 5.5 6.99 5.49 7 5.49H11V3.49H7Z" fill="#FEE600"/>
</svg>
