<svg width="24" height="24" viewBox="0 0 24 24" fill="none" xmlns="http://www.w3.org/2000/svg">
<path d="M22.45 5.10999V5.09999H22.44L22.41 5.08999C22.39 5.07999 22.37 5.06999 22.33 5.04999C22.27 5.01999 22.17 4.97999 22.05 4.91999C21.81 4.81999 21.47 4.68999 21.07 4.54999C20.87 4.48999 20.65 4.41999 20.42 4.34999C20.41 4.28999 20.39 4.22999 20.38 4.16999C20.17 3.27999 19.68 2.48999 18.99 1.90999C18.3 1.32999 17.43 1.00999 16.53 0.99999C15.64 0.98999 14.77 1.29999 14.06 1.86999C13.36 2.43999 12.87 3.21999 12.64 4.09999C12.56 4.39999 12.52 4.69999 12.51 4.99999H6C4.93 4.99999 4.27 5.79999 3.89 6.45999C3.49 7.15999 3.22 8.04999 3.02 8.89999C2.71 10.25 2.56 11.68 2.51 12.5C2.36 12.63 2.18 12.8 2 13C1.57 13.48 1 14.3 1 15.33V22C1 22.55 1.44 23 2 23H6C6.55 23 7 22.55 7 22V21H14V22C14 22.55 14.45 23 15 23H19C19.55 23 20 22.55 20 22V18.11L20.45 17.88C20.78 17.72 21 17.38 21 17V12.62L22.45 11.89C22.79 11.72 23 11.38 23 11V5.99999C23 5.61999 22.79 5.26999 22.45 5.10999ZM14.58 4.59999C14.7 4.11999 14.97 3.70999 15.32 3.42999C15.67 3.13999 16.09 2.99999 16.52 2.99999C16.94 2.99999 17.36 3.15999 17.71 3.44999C17.89 3.59999 18.05 3.78999 18.18 3.99999C18.12 3.99999 18.06 3.99999 18 3.99999C16.85 3.99999 15.73 4.27999 14.93 4.54999C14.8 4.59999 14.67 4.63999 14.56 4.67999C14.56 4.65999 14.57 4.62999 14.58 4.59999ZM4.97 9.34999C5.15 8.56999 5.37 7.89999 5.63 7.44999C5.76 7.21999 5.87 7.09999 5.94 7.03999C5.98 7.00999 5.99 6.99999 6 6.99999H13V11C13 11.38 13.22 11.72 13.55 11.89L13.77 12H4.56C4.63 11.27 4.75 10.29 4.97 9.34999ZM18.95 18.75C18.37 19.11 18 19.59 18 20.29V21H16V19H5V21H3V16.29H3.12C3.14 17.1 3.5 17.55 3.94 17.7L5.1 18.1C5.62 18.28 6.19 17.99 6.36 17.47C6.53 16.94 6.26 16.38 5.73 16.2L3 15.28C3.02 14.99 3.19 14.66 3.49 14.34C3.61 14.2 3.73 14.09 3.84 14H13.69C14.35 14 14.74 13.64 14.88 13H15V17C15 17.38 15.22 17.72 15.55 17.89L17.55 18.89C17.69 18.96 17.85 19 18 19C18.15 19 18.31 18.96 18.45 18.89L18.95 18.64V18.75ZM21 10.38L19.55 11.11C19.22 11.27 19 11.62 19 12V16.38L18 16.88L17 16.38V12C17 11.62 16.79 11.27 16.45 11.11L15 10.38V6.64999C15.16 6.58999 15.35 6.51999 15.57 6.44999C16.27 6.21999 17.15 5.99999 18 5.99999C18.12 5.99999 18.24 5.99999 18.36 6.00999C18.35 6.03999 18.34 6.05999 18.33 6.08999C18.14 6.56999 17.84 6.92999 17.49 7.13999C17.01 7.42999 16.86 8.03999 17.14 8.50999C17.43 8.98999 18.04 9.13999 18.51 8.85999C19.31 8.37999 19.86 7.63999 20.19 6.82999C20.24 6.68999 20.29 6.54999 20.33 6.40999C20.37 6.42999 20.4 6.43999 20.43 6.44999C20.65 6.51999 20.84 6.58999 21 6.64999V10.38Z" fill="#FEE600"/>
</svg>
