<svg width="24" height="24" viewBox="0 0 24 24" fill="none" xmlns="http://www.w3.org/2000/svg">
<path d="M12 2C6.48 2 2 6.48 2 12C2 17.52 6.48 22 12 22C17.52 22 22 17.52 22 12C22 6.48 17.52 2 12 2ZM12 4C16.42 4 20 7.58 20 12C20 12.06 19.99 12.12 19.99 12.18H19.89C19.76 11.45 19.39 11 18.53 11H16.39C16.35 11 16.34 10.95 16.31 10.93C16.07 10.72 15.72 10.45 15.31 10.17C14.51 9.63 13.3 9 12 9C10.7 9 9.5 9.63 8.7 10.17C8.28 10.45 7.94 10.72 7.69 10.93C7.66 10.95 7.65 11 7.61 11H5.47C4.61 11 4.24 11.45 4.11 12.18H4.01C4.01 12.12 4 12.06 4 12C4 7.58 7.58 4 12 4ZM14.6 12.12L13.03 14H10.97L9.4 12.12C9.52 12.03 9.66 11.93 9.81 11.83C10.51 11.37 11.3 11 12 11C12.7 11 13.5 11.37 14.2 11.83C14.34 11.93 14.48 12.03 14.6 12.12ZM4.07 13H7.53L9.73 15.64C9.92 15.87 10.2 16 10.5 16H11V19.93C7.38 19.48 4.52 16.62 4.07 13ZM13 19.93V16H13.5C13.8 16 14.08 15.87 14.27 15.64L16.47 13H19.93C19.48 16.62 16.62 19.48 13 19.93Z" fill="#FEE600"/>
</svg>
