<svg width="24" height="24" viewBox="0 0 24 24" fill="none" xmlns="http://www.w3.org/2000/svg">
<path d="M5 6C4.45 6 4 6.45 4 7V17C4 17.55 4.45 18 5 18H19C19.55 18 20 17.55 20 17V7C20 6.45 19.55 6 19 6H5ZM2 7C2 5.34 3.34 4 5 4H19C20.66 4 22 5.34 22 7V17C22 18.66 20.66 20 19 20H5C3.34 20 2 18.66 2 17V7ZM17 15H14V13H17V15ZM14 11H18V9H14V11ZM9 10C8.45 10 8 10.45 8 11C8 11.55 8.45 12 9 12C9.55 12 10 11.55 10 11C10 10.45 9.55 10 9 10ZM6 10.89C6 9.29 7.34 8 9 8C10.66 8 12 9.29 12 10.89C12 12.08 11.37 13.08 10.08 13.29V13.41C12.03 13.48 13 14.65 13 16H11C11 15.8 10.73 15 9 15C7.27 15 7 15.8 7 16H5C5 14.65 5.97 13.48 7.92 13.41V13.29C6.63 13.08 6 12.08 6 10.89Z" fill="#FEE600"/>
</svg>
