<svg width="24" height="24" viewBox="0 0 24 24" fill="none" xmlns="http://www.w3.org/2000/svg">
<path d="M20 11.61L19 11.28V9.54L20 8.87V11.61ZM5 10V4H13V10H5ZM5.5 20C5.16 20 5 19.81 5 19.5V16H9V14H5V12H13V19.5C13 19.81 12.84 20 12.5 20H5.5ZM2 22H22V20H13.67V19.87C14.44 19.6 15 18.9 15 18V16H15.5C15.78 16 16 16.22 16 16.5C16 17.88 17.12 19 18.5 19H19C20.66 19 22 17.66 22 16V7C22 6.73 21.9 6.48 21.71 6.29L18.71 3.29L17.29 4.71L19.43 6.84L17.45 8.17C17.17 8.35 17 8.67 17 9V12C17 12.43 17.28 12.81 17.68 12.95L20 13.72V16C20 16.55 19.55 17 19 17H18.5C18.22 17 18 16.78 18 16.5C18 15.12 16.88 14 15.5 14H15V3C15 2.45 14.55 2 14 2H4C3.45 2 3 2.45 3 3V18C3 18.9 3.56 19.6 4.33 19.87V20H2V22Z" fill="#FEE600"/>
</svg>
