<svg width="24" height="24" viewBox="0 0 24 24" fill="none" xmlns="http://www.w3.org/2000/svg">
<path d="M21.75 18.85L17.51 4L12 10.29L6.49 4L2.25 18.85H1V20.85H10V18.85H7.66V18.73C8.16 18.69 8.47 18.45 8.65 17.8L9.12 16.08L12 19.42L14.88 16.08L15.35 17.8C15.53 18.45 15.84 18.69 16.34 18.73V18.85H14V20.85H23V18.85H21.75ZM20.36 18.85H17.74L15.8 12.04L12 16.38L8.2 12.04L6.26 18.85H3.64V18.73C4.14 18.69 4.45 18.45 4.63 17.8L7.38 8.15L12 13.41L16.62 8.15L19.37 17.8C19.55 18.45 19.86 18.69 20.36 18.73V18.85Z" fill="#FEE600"/>
</svg>
