<svg width="24" height="24" viewBox="0 0 24 24" fill="none" xmlns="http://www.w3.org/2000/svg">
<path d="M20.02 13.36L20.07 13.25C20.7 13.23 21.09 12.93 21.28 12.36L21.95 10.32C21.98 10.21 22 10.11 22 10C22 7.2 19.27 5 15 5H12V7H14V8.38L12.76 9H9.42L7.71 7.29C7.58 7.16 7.42 7.07 7.24 7.03L3.24 6.03C2.94 5.96 2.63 6.02 2.39 6.21C2.14 6.4 2 6.69 2 7V10C2 10.33 2.17 10.65 2.45 10.83L5 12.54V13.04C3.3 13.28 2 14.74 2 16.5C2 18.43 3.57 20 5.5 20C7.43 20 9 18.43 9 16.5C9 16.27 8.97 16.04 8.92 15.81L9.11 15.86L9.91 17.45C10.08 17.79 10.42 18 10.8 18H15.35C15.91 19.18 17.1 20 18.5 20C20.44 20 22 18.44 22 16.5C22 15.11 21.19 13.92 20.02 13.36ZM5.5 18C4.67 18 4 17.33 4 16.5C4 15.67 4.67 15 5.5 15C6.33 15 7 15.67 7 16.5C7 17.33 6.33 18 5.5 18ZM11.42 16L10.7 14.55C10.56 14.29 10.33 14.1 10.04 14.03L7 13.27V12C7 11.67 6.83 11.35 6.56 11.17L4 9.46V8.28L6.49 8.9L8.29 10.71C8.48 10.89 8.74 11 9 11H13C13.16 11 13.31 10.96 13.45 10.89L15.45 9.89C15.79 9.73 16 9.38 16 9V8.39C16 7.74 15.62 7.22 14.93 7.13V7.01C17.46 6.99 19.08 7.8 19.73 9H18V11H19.61L19.28 12H18C17.66 12 17.34 12.18 17.15 12.47L14.95 16H11.42ZM18.5 18C17.65 18 16.99 17.31 17.01 16.47L17.8 15.2C18.01 15.08 18.25 15 18.5 15C19.33 15 20 15.67 20 16.5C20 17.33 19.33 18 18.5 18Z" fill="#FEE600"/>
</svg>
