<svg width="24" height="24" viewBox="0 0 24 24" fill="none" xmlns="http://www.w3.org/2000/svg">
<path d="M11.94 21.44H12.06C12.23 20.58 12.42 20.32 13.3 19.74C16.66 17.54 19 13.95 19 11C19 7.13 15.87 4 12 4C8.14 4 5 7.13 5 11C5 13.95 7.34 17.55 10.69 19.74C11.6 20.33 11.78 20.59 11.94 21.44ZM12 22.5C10.8 22.5 7.55 20.16 5.89 18.11C3.98 15.73 3 13.33 3 11C3 6.03 7.03 2 12 2C16.97 2 21 6.03 21 11C21 13.33 20.02 15.73 18.11 18.11C16.45 20.16 13.2 22.5 12 22.5ZM12.3 11.67H11V8.35H12.31C13.4 8.35 14 8.94 14 10.01C14 11.09 13.41 11.67 12.3 11.67ZM16 10.02C16 7.79 14.69 6.51 12.42 6.51H9V16.51H11V13.51H12.42C14.66 13.51 16 12.21 16 10.02Z" fill="#FEE600"/>
</svg>
