<svg width="24" height="24" viewBox="0 0 24 24" fill="none" xmlns="http://www.w3.org/2000/svg">
<path d="M12 6C10.08 6 8.4 5.76 7.2 5.52C6.71 5.42 6.31 5.33 6 5.25V4H18V5.25C17.69 5.33 17.29 5.42 16.8 5.52C15.6 5.76 13.92 6 12 6ZM13 11.98V7.98C14.66 7.91 16.11 7.7 17.2 7.48C17.49 7.42 17.76 7.36 18 7.31V11.25C17.69 11.33 17.29 11.42 16.8 11.52C15.82 11.72 14.5 11.91 13 11.98ZM11 11.98C9.5 11.91 8.19 11.72 7.2 11.52C6.71 11.42 6.31 11.33 6 11.25V7.31C6.24 7.36 6.51 7.42 6.8 7.48C7.89 7.7 9.34 7.91 11 7.98V11.98ZM7 19C6.45 19 6 18.55 6 18V17H7C7.55 17 8 16.55 8 16C8 15.45 7.55 15 7 15H6V13.31C6.24 13.36 6.51 13.42 6.8 13.48C8.1 13.74 9.92 14 12 14C14.08 14 15.9 13.74 17.2 13.48C17.49 13.42 17.76 13.36 18 13.31V15H17C16.45 15 16 15.45 16 16C16 16.55 16.45 17 17 17H18V18C18 18.55 17.55 19 17 19H7ZM4 23H6.5L8.25 21H15.75L17.5 23H20L18.99 21.84C18.4 21.16 17.94 21.12 17 21.12V21C18.65 21 20 19.65 20 18V4C20 2.9 19.11 2 18 2H6C4.9 2 4 2.9 4 4V18C4 19.65 5.35 21 7 21V21.12C6.06 21.12 5.6 21.16 5.01 21.84L4 23Z" fill="#FEE600"/>
</svg>
