<svg width="24" height="24" viewBox="0 0 24 24" fill="none" xmlns="http://www.w3.org/2000/svg">
<path d="M12 10C10.08 10 8.4 9.76 7.2 9.52C6.71 9.42 6.31 9.33 6 9.25V4H10C10.55 4 11 3.55 11 3H13C13 3.55 13.45 4 14 4H18V9.25C17.69 9.33 17.29 9.42 16.8 9.52C15.6 9.76 13.92 10 12 10ZM15 16.2C15.66 16.2 16.2 15.66 16.2 15C16.2 14.34 15.66 13.8 15 13.8C14.34 13.8 13.8 14.34 13.8 15C13.8 15.66 14.34 16.2 15 16.2ZM7 18C6.45 18 6 17.55 6 17V11.31C6.24 11.36 6.51 11.42 6.8 11.48C8.1 11.74 9.92 12 12 12C14.08 12 15.9 11.74 17.2 11.48C17.49 11.42 17.76 11.36 18 11.31V17C18 17.55 17.55 18 17 18H7ZM9 16.2C9.66 16.2 10.2 15.66 10.2 15C10.2 14.34 9.66 13.8 9 13.8C8.34 13.8 7.8 14.34 7.8 15C7.8 15.66 8.34 16.2 9 16.2ZM4 23H6.5L9.13 20H14.87L17.5 23H20L18.3 21.06C17.7 20.37 17.28 20.23 16.23 20.12V20H17.05C18.67 20 20 18.65 20 17V4C20 2.9 19.11 2 18 2H15C15 1.45 14.55 1 14 1H10C9.45 1 9 1.45 9 2H6C4.9 2 4 2.9 4 4V17C4 18.65 5.33 19.97 6.95 20H7.77V20.12C6.72 20.23 6.3 20.37 5.7 21.06L4 23Z" fill="#FEE600"/>
</svg>
