<svg width="24" height="24" viewBox="0 0 24 24" fill="none" xmlns="http://www.w3.org/2000/svg">
<path d="M5.22 10L5.82 7H14.35L16.86 10H5.22ZM4.86 15.46L3.48 12H20.52L19.14 15.46C19.13 15.45 19.12 15.44 19.11 15.44L17.79 14.78C16.66 14.22 15.34 14.22 14.21 14.78L12.9 15.44C12.33 15.72 11.67 15.72 11.11 15.44L9.79 14.78C8.66 14.22 7.34 14.22 6.21 14.78L4.9 15.44C4.88 15.44 4.87 15.45 4.86 15.46ZM4.29 21.27C5.43 21.84 6.81 21.61 7.71 20.71C8 20.42 8.45 20.35 8.82 20.53L10.21 21.23C11.34 21.79 12.66 21.79 13.79 21.23L15.18 20.53C15.55 20.35 16 20.42 16.29 20.71C17.2 21.61 18.57 21.84 19.71 21.27L20.45 20.9C20.94 20.65 21.14 20.05 20.9 19.56C20.65 19.06 20.05 18.86 19.55 19.11L18.82 19.48C18.45 19.66 18 19.59 17.71 19.3C16.81 18.4 15.43 18.17 14.29 18.74L12.9 19.44C12.33 19.72 11.67 19.72 11.11 19.44L9.71 18.74C8.57 18.17 7.2 18.4 6.29 19.3C6 19.59 5.55 19.66 5.18 19.48L4.45 19.11C3.95 18.86 3.35 19.06 3.11 19.56C2.86 20.05 3.06 20.65 3.55 20.9L4.29 21.27ZM2.21 17.23C3.34 17.79 4.66 17.79 5.79 17.23L7.11 16.57C7.67 16.29 8.33 16.29 8.9 16.57L10.21 17.23C11.34 17.79 12.66 17.79 13.79 17.23L15.11 16.57C15.67 16.29 16.33 16.29 16.9 16.57L18.21 17.23C19.34 17.79 20.66 17.79 21.79 17.23L22.45 16.9C22.94 16.65 23.14 16.05 22.9 15.56C22.65 15.06 22.05 14.86 21.55 15.11L20.57 15.6L20.52 15.54C21.18 15.12 21.59 14.74 21.89 13.98L22.93 11.38C23.05 11.07 23.02 10.72 22.83 10.44C22.64 10.17 22.33 10 22 10H19.47L15.58 5.36C15.39 5.14 15.11 5 14.81 5H12V3H10V5H8V3H6V5H5C4.52 5 4.11 5.34 4.02 5.81L3.18 10H2C1.67 10 1.36 10.17 1.17 10.44C0.989997 10.72 0.949997 11.07 1.07 11.38L2.12 13.98C2.42 14.74 2.83 15.12 3.49 15.54L3.44 15.6L2.45 15.11C1.95 14.86 1.35 15.06 1.11 15.56C0.859997 16.05 1.06 16.65 1.55 16.9L2.21 17.23Z" fill="#FEE600"/>
</svg>
