<svg width="24" height="24" viewBox="0 0 24 24" fill="none" xmlns="http://www.w3.org/2000/svg">
<path d="M19.01 2V8.96H19.15C19.45 7.5 20.42 7 22.01 7V8.99C20.68 9 19.56 9.68 18.98 11.28C18.8 11.79 18.46 12 18.01 12C17.56 12 17.22 11.79 17.04 11.28C16.46 9.68 15.34 9 14.01 8.99V7C15.6 7 16.57 7.5 16.87 8.96H17.01V2H19.01Z" fill="#2B2D33"/>
<path d="M22 13H20V19.01C20 19.56 19.55 20 19 20H5C4.45 20 4 19.55 4 19V13.99C4 13.02 3.51 12.38 2.66 12.12V11.99H11.99V9.99H4V9C4 8.45 4.45 8 5 8H11.99V6H5C3.34 6 2 7.34 2 9V19C2 20.66 3.34 22 5 22H19C20.66 22 22 20.67 22 19.01V13Z" fill="#2B2D33"/>
</svg>
