<svg width="24" height="24" viewBox="0 0 24 24" fill="none" xmlns="http://www.w3.org/2000/svg">
<path d="M17.56 8.88V9H11.12C9.19 9 8.65 11.06 10.16 12.23L12.73 14.23C13.69 14.98 13.03 15.93 12.04 15.42L6.19 12.38C4.52 11.52 4 10.49 4 7.99H2C2 11.21 2.89 12.92 5.27 14.16L11.12 17.19C14.37 18.87 16.94 14.96 13.95 12.65L11.81 11H20.01V13H17.01V15H21.34V15.12C20.5 15.39 20.01 16.03 20.01 17V19H7.01V17H5.01V19C5.01 20.1 5.9 21 7.01 21H20.01C21.11 21 22.01 20.1 22.01 19V11C22.01 9.9 21.11 9 20.01 9H18.54L15.43 4.34C14.84 3.46 13.99 3 12.88 3H2.01V5H12.88C13.29 5 13.58 5.16 13.77 5.45L14.96 7.23C15.6 8.19 16.09 8.63 17.56 8.88Z" fill="#2B2D33"/>
</svg>
