<svg width="48" height="48" viewBox="0 0 48 48" fill="none" xmlns="http://www.w3.org/2000/svg">
<rect width="48" height="48" rx="12" fill="#2B2D33"/>
<path d="M33 18H31.72L30.95 15.68C30.78 15.16 30.3 14.9 29.76 15.03L26.3 15.89C26.22 15.81 26.13 15.72 26.05 15.64L24.71 14.29C24.52 14.11 24.26 14 24 14C23.74 14 23.48 14.11 23.29 14.29L21.95 15.64C21.87 15.72 21.78 15.81 21.7 15.89L18.24 15.03C17.7 14.9 17.22 15.16 17.05 15.68L16.28 18H15C14.42 18 14 18.43 14 19V20.92C14 25.83 17.61 30 22.28 30H22.9C22.55 31.6 21.38 32 21 32V34C22.4 34 24.52 32.83 24.93 30H25.72C30.39 30 34 25.83 34 20.92V19C34 18.43 33.58 18 33 18ZM27.09 16.68C27.65 17.39 27.95 17.55 28.83 17.32L29.33 17.19C29.45 17.52 29.56 17.85 29.68 18.18C28.98 18.33 28.46 18.52 28.06 18.71C27.75 17.96 27.54 17.53 26.97 16.73L27.09 16.68ZM18.67 17.19L19.17 17.32C20.05 17.55 20.35 17.39 20.91 16.68L21.03 16.73C20.46 17.53 20.25 17.96 19.94 18.71C19.54 18.53 19.02 18.33 18.32 18.18C18.44 17.85 18.55 17.52 18.67 17.19ZM16 20.92V20C16.24 20 16.81 19.97 17.43 20.07C18.27 20.2 19.24 20.33 19.55 19.45L19.67 19.48C18.75 22.69 19.68 25.82 21.57 27.95C18.51 27.56 16 24.65 16 20.92ZM24.63 26.95L24 27.59L23.37 26.95C21.59 25.18 20.97 22.69 21.5 20.41C21.85 18.86 22.44 17.97 24 16.41C25.56 17.97 26.15 18.86 26.5 20.41C27.03 22.69 26.41 25.18 24.63 26.95ZM32 20.92C32 24.65 29.49 27.56 26.43 27.95C28.32 25.82 29.25 22.69 28.33 19.48L28.45 19.45C28.76 20.33 29.73 20.21 30.57 20.07C31.19 19.97 31.76 20 32 20V20.92Z" fill="white"/>
</svg>
