<svg width="48" height="48" viewBox="0 0 48 48" fill="none" xmlns="http://www.w3.org/2000/svg">
<rect width="48" height="48" rx="12" fill="#2B2D33"/>
<path d="M26.5 30C30.92 30 34.5 26.42 34.5 22C34.5 17.58 30.92 14 26.5 14H20.5C19.4 14 18.5 14.9 18.5 16H26.5C29.82 16 32.5 18.69 32.5 22C32.5 25.31 29.82 28 26.5 28H25.35C24.4 28 23.83 28.49 23.62 29.33H23.5V26.94C27.44 26.47 30 23.13 30 19C30 18.43 29.58 18 29 18H16C15.43 18 15 18.43 15 19C15 23.06 17.5 26.44 21.5 26.94V28H18.5C16.85 28 15.5 29.34 15.5 31C15.5 32.66 16.85 34 18.5 34H28.5V32H23.5V30H26.5ZM18.5 32C17.95 32 17.5 31.55 17.5 31C17.5 30.45 17.95 30 18.5 30H19.65C20.6 30 21.17 29.51 21.38 28.67H21.5V32H18.5ZM17.07 20H27.94C27.55 22.95 25.5 25 22.5 25C19.54 25 17.46 22.98 17.07 20Z" fill="white"/>
</svg>
