<svg width="48" height="48" viewBox="0 0 48 48" fill="none" xmlns="http://www.w3.org/2000/svg">
<rect width="48" height="48" rx="12" fill="#2B2D33"/>
<path d="M31 23C29.35 23 28 24.35 28 26C28 27.27 28.8 28.35 29.92 28.79C29.57 30.65 27.98 32 26 32C23.75 32 22 30.25 22 28V27.85C22 26.9 21.51 26.33 20.67 26.11V25.98C20.78 25.99 20.89 26 21 26C24.91 26 28 22.92 28 19V15H24V17H26V19C26 21.81 23.81 24 21 24C18.19 24 16 21.81 16 19V17H18V15H14V19C14 22.58 16.58 25.45 20 25.92V28C20 31.36 22.65 34 26 34C29.07 34 31.54 31.79 31.94 28.83C33.13 28.44 34 27.32 34 26C34 24.35 32.65 23 31 23ZM31 27C30.45 27 30 26.55 30 26C30 25.45 30.45 25 31 25C31.55 25 32 25.45 32 26C32 26.55 31.55 27 31 27Z" fill="white"/>
</svg>
