<svg width="48" height="48" viewBox="0 0 48 48" fill="none" xmlns="http://www.w3.org/2000/svg">
<rect width="48" height="48" rx="12" fill="#FEE600"/>
<path d="M16 17.89C16 16.82 15.47 16.25 14.59 16.12V16H28V21H30V15C30 14.45 29.55 14 29 14H15C14.45 14 14 14.45 14 15V33C14 33.55 14.45 34 15 34H20V32H16V17.89Z" fill="#2B2D33"/>
<path d="M28 23C27.16 23 26.37 23.17 25.64 23.48L26.43 25.32C26.91 25.11 27.44 25 28 25C30.21 25 32 26.79 32 29C32 31.21 30.21 33 28 33C25.79 33 24 31.21 24 28.98V27.97H24.14C24.44 29.43 25.51 29.93 27 29.93V27.93C25.67 27.93 24.54 27.26 23.97 25.66C23.79 25.15 23.45 24.94 23 24.94C22.55 24.94 22.21 25.15 22.03 25.66C21.46 27.26 20.33 27.93 19 27.93V29.93C20.49 29.93 21.56 29.43 21.86 27.97H22V28.98C22 32.31 24.69 35 28 35C31.31 35 34 32.31 34 29C34 25.69 31.31 23 28 23Z" fill="#2B2D33"/>
</svg>
