<svg width="48" height="48" viewBox="0 0 48 48" fill="none" xmlns="http://www.w3.org/2000/svg">
<rect width="48" height="48" rx="12" fill="#FEE600"/>
<path d="M31 14H17C16.4 14 16 14.4 16 15V33C16 33.6 16.4 34 17 34H26C26.3 34 26.5 33.9 26.7 33.7L31.7 28.7C31.9 28.5 32 28.3 32 28V15C32 14.4 31.6 14 31 14ZM26 31.6V28H29.6L26 31.6ZM31.2 26H25C24.4 26 24 26.4 24 27V33.2H23.9C23.9 32.5 23.5 32 22.4 32H18V16H30V24.4C30 25.5 30.6 25.9 31.2 25.9V26Z" fill="#2B2D33"/>
<path d="M27.7 19.8L25.3 19.6L24.4 17.4C24.3 17.3 24.2 17.2 24 17.2C23.9 17.2 23.7 17.3 23.7 17.4L22.7 19.6L20.4 19.8C20.2 19.8 20.1 19.9 20 20.1C20 20.2 20 20.4 20.1 20.5L21.9 22L21.4 24.3C21.4 24.5 21.4 24.6 21.5 24.7C21.6 24.8 21.8 24.8 21.9 24.7L23.9 23.5L25.9 24.7C26 24.8 26.2 24.8 26.3 24.7C26.4 24.6 26.5 24.5 26.4 24.3L26.1 22L27.9 20.4C28 20.4 28 20.2 28 20.1C27.9 19.9 27.8 19.8 27.7 19.8Z" fill="#2B2D33"/>
</svg>
