<svg width="48" height="48" viewBox="0 0 48 48" fill="none" xmlns="http://www.w3.org/2000/svg">
<rect width="48" height="48" rx="12" fill="#FEE600"/>
<path fill-rule="evenodd" clip-rule="evenodd" d="M26.6 30.8L28 34.4C28.2 34.8 28.5 35 29 35C29.4 35 29.8 34.7 29.9 34.3L33.4 23.8C33.5 23.4 33.4 23 33.2 22.8C32.9 22.5 32.5 22.4 32.2 22.6L21.7 26.1C21.3 26.2 21 26.6 21 27C21 27.4 21.2 27.8 21.6 28L25.2 29.4L23.3 31.3L24.7 32.7L26.6 30.8ZM27.4 28.1L24.9 27.1L30.9 25.1L28.9 31.1L27.9 28.6C27.8 28.4 27.6 28.2 27.4 28.1Z" fill="#2B2D33"/>
<path d="M15 34H21V32H16V17.9C16 16.8 15.5 16.3 14.6 16.1V16H28V21H30V15C30 14.5 29.5 14 29 14H15C14.4 14 14 14.5 14 15V33C14 33.6 14.4 34 15 34Z" fill="#2B2D33"/>
</svg>
