<svg width="48" height="48" viewBox="0 0 48 48" fill="none" xmlns="http://www.w3.org/2000/svg">
<rect width="48" height="48" rx="12" fill="#FEE600"/>
<path d="M27 30.5C27.8 30.5 28.5 29.8 28.5 29C28.5 28.2 27.8 27.5 27 27.5C26.2 27.5 25.5 28.2 25.5 29C25.5 29.8 26.2 30.5 27 30.5ZM27 32C25.7 32 24 31.4 22.7 29.9C22.1 29.2 21.7 29.1 21.1 29V28.9C21.7 28.9 22.1 28.7 22.7 28C24 26.5 25.7 25.9 27 25.9C28.3 25.9 30 26.5 31.3 28C31.9 28.7 32.3 28.8 32.9 28.9V29C32.3 29 31.9 29.2 31.3 29.9C30 31.4 28.3 32 27 32ZM27 34C29.5 34 32 32.6 33.3 30.6C33.7 30.1 34 29.5 34 29C34 28.4 33.7 27.9 33.3 27.4C32 25.4 29.5 24 27 24C24.5 24 22.1 25.5 20.7 27.4C20.3 27.9 20 28.4 20 29C20 29.5 20.3 30.1 20.7 30.6C22 32.6 24.5 34 27 34ZM15 34H19V32H16V17.9C16 16.8 15.5 16.3 14.6 16.1V16H28V22H30V15C30 14.4 29.6 14 29 14H15C14.4 14 14 14.4 14 15V33C14 33.5 14.4 34 15 34Z" fill="#2B2D33"/>
</svg>
