<svg width="48" height="48" viewBox="0 0 48 48" fill="none" xmlns="http://www.w3.org/2000/svg">
<rect width="48" height="48" rx="12" fill="#FEE600"/>
<g clip-path="url(#clip0_342_2650)">
<path d="M14.59 16H28V22H30V15C30 14.45 29.55 14 29 14H15C14.45 14 14 14.45 14 15V33C14 33.56 14.45 34 15 34H22V32H16V17.89C16 16.82 15.47 16.25 14.59 16.12V16Z" fill="#2B2D33"/>
<path d="M33.28 29.98C33.78 29.78 34 29.46 34 29.01C34 28.56 33.78 28.24 33.28 28.04C31.56 27.35 30 26 30 24.01H28C28 26 29.01 27.44 30.58 27.87V28.01H22V30.01H30.58V30.14C29.01 30.57 28 32 28 34.01H30C30 32 31.56 30.67 33.28 29.98Z" fill="#2B2D33"/>
</g>
<defs>
<clipPath id="clip0_342_2650">
<rect width="20" height="20.01" fill="white" transform="translate(14 14)"/>
</clipPath>
</defs>
</svg>
