<svg width="48" height="48" viewBox="0 0 48 48" fill="none" xmlns="http://www.w3.org/2000/svg">
<rect width="48" height="48" rx="12" fill="#FEE600"/>
<path d="M20 17.89C20 16.82 19.47 16.25 18.59 16.12V16H32V32H27V34H33C33.56 34 34 33.55 34 33V15C34 14.45 33.56 14 33 14H19C18.45 14 18 14.45 18 15V22H20V17.89ZM22.58 34L19.71 31.12C19.27 30.68 18.74 30.66 18.29 31.12L15.42 34L14 32.58L18.58 28L18.5 27.92C17.78 28.45 17.01 28.42 16.25 27.66L14 25.42L15.42 24L18.29 26.88C18.73 27.32 19.26 27.34 19.71 26.88L22.58 24L24 25.42L19.42 30L19.5 30.08C20.22 29.55 20.99 29.58 21.75 30.34L24 32.58L22.58 34Z" fill="#2B2D33"/>
</svg>
