<svg width="48" height="48" viewBox="0 0 48 48" fill="none" xmlns="http://www.w3.org/2000/svg">
<rect width="48" height="48" rx="12" fill="#FEE600"/>
<path d="M14.59 16H28V22H30V15C30 14.45 29.55 14 29 14H15C14.45 14 14 14.45 14 15V33C14 33.56 14.45 34 15 34H22V32H16V17.89C16 16.82 15.47 16.25 14.59 16.12V16Z" fill="#2B2D33"/>
<path d="M22.72 28.03C22.22 28.23 22 28.56 22 29.01C22 29.46 22.22 29.78 22.72 29.98C24.44 30.67 26 32.01 26 34H28C28 32.01 26.99 30.57 25.42 30.14V30H34V28H25.42V27.87C26.99 27.44 28 26.01 28 24H26C26 26.02 24.44 27.35 22.72 28.03Z" fill="#2B2D33"/>
</svg>
