<svg width="48" height="48" viewBox="0 0 48 48" fill="none" xmlns="http://www.w3.org/2000/svg">
<rect width="48" height="48" rx="12" fill="#FEE600"/>
<path d="M27 25C25.35 25 24 26.34 24 28C24 29.66 25.35 31 27 31C28.66 31 30 29.66 30 28C30 26.34 28.66 25 27 25ZM32.46 32.04L33.71 33.29L32.3 34.71L30.24 32.65C29.91 32.32 29.58 32.33 29.1 32.54C28.55 32.79 27.87 33 27 33C24.24 33 22 30.76 22 28C22 25.24 24.24 23 27 23C29.77 23 32 25.24 32 28C32 29.53 31.31 30.9 30.23 31.82L30.31 31.89C31.13 31.31 31.82 31.39 32.46 32.04ZM16 17.89C16 16.82 15.47 16.25 14.59 16.12V16H28V21H30V15C30 14.44 29.55 14 29 14H15C14.45 14 14 14.44 14 15V33C14 33.55 14.45 34 15 34H21V32H16V17.89Z" fill="#2B2D33"/>
</svg>
