<svg width="48" height="48" viewBox="0 0 48 48" fill="none" xmlns="http://www.w3.org/2000/svg">
<rect width="48" height="48" rx="12" fill="#FEE600"/>
<path d="M33.41 33H20V20.89C20 19.82 19.47 19.25 18.59 19.12V19H32V31.11C32 32.18 32.53 32.75 33.41 32.88V33ZM19 17C18.45 17 18 17.45 18 18V34C18 34.55 18.45 35 19 35H33C33.55 35 34 34.55 34 34V18C34 17.45 33.55 17 33 17H19ZM22 21H30V23H22V21ZM14.59 15H29V13H15C14.45 13 14 13.45 14 14V30H16V16.89C16 15.82 15.47 15.25 14.59 15.12V15Z" fill="#2B2D33"/>
</svg>
