<svg width="48" height="48" viewBox="0 0 48 48" fill="none" xmlns="http://www.w3.org/2000/svg">
<rect width="48" height="48" rx="12" fill="#FEE600"/>
<path d="M31.71 19.29L26.71 14.29C26.52 14.1 26.27 14 26 14H17C16.45 14 16 14.45 16 15V33C16 33.55 16.45 34 17 34H31C31.55 34 32 33.55 32 33V20C32 19.73 31.9 19.48 31.71 19.29ZM26 16.41L29.59 20H26V16.41ZM31.41 22.12C30.53 22.25 30 22.82 30 23.89V32H18V16H22.11C23.18 16 23.75 15.47 23.88 14.59H24V21C24 21.59 24.45 22 25 22H31.41V22.12Z" fill="#2B2D33"/>
</svg>
