<svg width="48" height="48" viewBox="0 0 48 48" fill="none" xmlns="http://www.w3.org/2000/svg">
<rect width="48" height="48" rx="12" fill="#FEE600"/>
<path d="M28.5 35.5C28.83 35.5 29.21 35.32 29.62 35.12C32.25 33.84 34 31.98 34 29.5V26C34 25.45 33.55 25 33 25C31.91 25 30.42 24.19 29.14 23.23C28.94 23.08 28.72 23 28.5 23C28.28 23 28.06 23.08 27.86 23.23C26.58 24.19 25.09 25 24 25C23.45 25 23 25.45 23 26V29.5C23 31.98 24.74 33.86 27.38 35.12C27.79 35.32 28.17 35.5 28.5 35.5ZM28.5 33.43C26.38 32.37 25 31.31 25 29.5V28.89C25 27.82 24.47 27.25 23.59 27.12V27C25.17 27 26.38 26.62 28.5 25.24C30.62 26.62 31.83 27 33.41 27V27.12C32.53 27.25 32 27.82 32 28.89V29.5C32 31.31 30.62 32.37 28.5 33.43ZM15 34H21V32H16V17.89C16 16.82 15.47 16.25 14.59 16.12V16H28V21H30V15C30 14.45 29.55 14 29 14H15C14.45 14 14 14.45 14 15V33C14 33.55 14.45 34 15 34Z" fill="#2B2D33"/>
</svg>
