<svg width="48" height="48" viewBox="0 0 48 48" fill="none" xmlns="http://www.w3.org/2000/svg">
<rect width="48" height="48" rx="12" fill="#FEE600"/>
<path d="M33.21 28H22.79V27.88C23.8 27.78 24.18 27.5 24.62 26.84C25.28 25.85 26.42 25 28 25C29.58 25 30.72 25.85 31.38 26.84C31.82 27.5 32.2 27.78 33.21 27.88V28ZM26 35C27.66 35 29 33.66 29 32V30H33C33.55 30 34 29.55 34 29C34 25.69 31.31 23 28 23C24.69 23 22 25.69 22 29C22 29.55 22.45 30 23 30H27V32C27 32.57 26.57 33 26 33C25.43 33 25 32.57 25 32H23C23 33.66 24.34 35 26 35ZM15 33H20V31H16V16.89C16 15.82 15.47 15.25 14.59 15.12V15H28V21H30V14C30 13.45 29.55 13 29 13H15C14.45 13 14 13.45 14 14V32C14 32.55 14.45 33 15 33Z" fill="#2B2D33"/>
</svg>
