<svg width="48" height="48" viewBox="0 0 48 48" fill="none" xmlns="http://www.w3.org/2000/svg">
<rect width="48" height="48" rx="12" fill="#FEE600"/>
<path d="M19 20H29V18H19V20ZM19 24H27V22H19V24ZM17 32V16H31V32C30.24 32 29.76 30.49 28.49 30.49C27.25 30.49 26.76 31.8 26.28 31.8C25.79 31.8 25.25 30.49 24 30.49C22.75 30.49 22.21 31.8 21.72 31.8C21.24 31.8 20.75 30.49 19.51 30.49C18.21 30.49 17.75 32 17 32ZM19 28H28V26H19V28ZM17 34C18.61 34 19.08 32.69 19.51 32.69C19.99 32.69 20.48 34 21.72 34C22.97 34 23.52 32.69 24 32.69C24.48 32.69 25.03 34 26.28 34C27.52 34 28.01 32.69 28.49 32.69C28.92 32.69 29.39 34 31 34C32.31 34 33 33.09 33 32V14H15V32C15 33.09 15.69 34 17 34Z" fill="#2B2D33"/>
</svg>
