<svg width="48" height="48" viewBox="0 0 48 48" fill="none" xmlns="http://www.w3.org/2000/svg">
<rect width="48" height="48" rx="12" fill="#FEE600"/>
<path d="M34.8 17.3L31.8 14.3C31.7 14.2 31.5 14.1 31.3 14L27.3 13C27 12.9 26.6 13 26.4 13.3L22.4 17.3L23.8 18.7L27.4 15.1H27.6C28.7 15.4 29.1 15.3 29.9 14.6L30 14.7L19.3 25.3C19.2 25.4 19.1 25.6 19 25.8L18 29.8C17.9 30.2 18 30.5 18.2 30.8C18.4 31.1 18.8 31.1 19.2 31L23.2 30C23.4 30 23.5 29.9 23.7 29.7L30.4 23H32V31.1C32 32.2 32.5 32.7 33.4 32.9V33H16V24.9C16 23.8 15.5 23.3 14.6 23.1V23H19V21H15C14.5 21 14 21.5 14 22V34C14 34.5 14.5 35 15 35H33C33.5 35 34 34.5 34 34V22C34 21.5 33.5 21 33 21H32.4L34.7 18.7C35.1 18.3 35.1 17.7 34.8 17.3ZM20.3 28.8L20.9 26.3L22.8 28.2L20.3 28.8ZM24 26.6L22.4 25L31 16.4L32.6 18L24 26.6Z" fill="#2B2D33"/>
</svg>
