<svg width="48" height="48" viewBox="0 0 48 48" fill="none" xmlns="http://www.w3.org/2000/svg">
<rect width="48" height="48" rx="12" fill="#FEE600"/>
<path d="M17 28C18.07 28 19 27.07 19 26C19 24.93 18.07 24 17 24C15.94 24 15 24.93 15 26C15 27.07 15.94 28 17 28ZM23 34C24.07 34 25 33.07 25 32C25 30.93 24.07 30 23 30C21.94 30 21 30.93 21 32C21 33.07 21.94 34 23 34ZM16.4 34.01L25 25.42L23.6 24.02L15 32.61L16.4 34.01ZM31 30.11C31 31.18 31.53 31.75 32.41 31.88V32H27V34H32C32.55 34 33 33.55 33 33V15C33 14.45 32.55 14 32 14H18C17.45 14 17 14.45 17 15V22H19V17.89C19 16.82 18.47 16.25 17.59 16.12V16H31V30.11Z" fill="#2B2D33"/>
</svg>
