<svg width="48" height="48" viewBox="0 0 48 48" fill="none" xmlns="http://www.w3.org/2000/svg">
<rect width="48" height="48" rx="12" fill="#FEE600"/>
<path d="M32.9 17.78L31.49 16.37L22.76 25.09L22.67 25C23.2 24.26 23.09 23.54 22.49 22.94L21.05 21.5L19.64 22.92L23 26.27C23.42 26.68 24 26.68 24.41 26.27L32.9 17.78ZM33.63 24.34C33.85 24.16 33.98 23.9 34 23.61C34.01 23.33 33.91 23.05 33.71 22.85L31.98 21.12L30.56 22.54L31.51 23.48L29.29 25.28L29.99 27.92L27.27 28.06L26.29 30.61L24 29.12L21.71 30.61L20.73 28.06L18.01 27.92L18.72 25.28L16.59 23.56L18.72 21.84L18.01 19.21L20.73 19.06L21.71 16.51L24 18L26.56 16.34L27.66 17.77L29.09 16.35L27.57 14.39C27.25 13.98 26.67 13.88 26.24 14.16L24 15.62L21.76 14.16C21.51 14 21.2 13.96 20.91 14.05C20.62 14.14 20.39 14.36 20.28 14.64L19.33 17.13L16.67 17.27C16.37 17.29 16.09 17.44 15.91 17.68C15.73 17.93 15.67 18.24 15.75 18.53L16.45 21.11L14.37 22.78C14.14 22.97 14 23.26 14 23.56C14 23.86 14.14 24.15 14.37 24.34L16.45 26.01L15.75 28.59C15.67 28.88 15.73 29.19 15.91 29.44C16.09 29.68 16.37 29.83 16.67 29.85L19.33 29.99L20.28 32.48C20.39 32.76 20.62 32.98 20.91 33.07C21.2 33.16 21.51 33.12 21.76 32.96L24 31.5L26.24 32.96C26.49 33.12 26.8 33.16 27.09 33.07C27.38 32.98 27.61 32.76 27.72 32.48L28.67 29.99L31.33 29.85C31.63 29.83 31.91 29.68 32.09 29.44C32.27 29.19 32.33 28.88 32.25 28.59L31.55 26.01L33.63 24.34Z" fill="#2B2D33"/>
</svg>
