<svg width="48" height="48" viewBox="0 0 48 48" fill="none" xmlns="http://www.w3.org/2000/svg">
<rect width="48" height="48" rx="12" fill="#FEE600"/>
<path d="M28.34 32.61C28.66 32.83 28.82 33.03 28.94 33.5L29.06 33.51C29.19 33.02 29.38 32.8 29.67 32.6L30.32 32.16C30.62 31.96 30.93 31.95 31.41 32.08L31.47 31.97C31.12 31.63 31 31.36 31 30.99V30.26C31 29.89 31.12 29.62 31.47 29.28L31.41 29.17C30.93 29.3 30.63 29.3 30.32 29.09L29.68 28.66C29.37 28.45 29.19 28.23 29.06 27.76H28.94C28.81 28.23 28.63 28.46 28.32 28.66L27.68 29.09C27.36 29.3 27.07 29.3 26.59 29.17L26.53 29.28C26.88 29.62 26.99 29.89 27 30.26V30.99C26.99 31.35 26.88 31.63 26.53 31.97L26.59 32.08C27.07 31.95 27.42 31.98 27.68 32.16L28.34 32.61ZM25.45 28.17L28.45 26.17C28.78 25.95 29.22 25.95 29.55 26.17L32.55 28.17C32.83 28.35 33 28.67 33 29V32.25C33 32.58 32.83 32.9 32.55 33.08L29.55 35.08C29.22 35.3 28.78 35.3 28.45 35.08L25.45 33.08C25.17 32.9 25 32.58 25 32.25V29C25 28.67 25.17 28.35 25.45 28.17ZM25 22H19V24H25V22ZM19 20H29V18H19V20ZM15.59 16H31V25H33V15C33 14.45 32.55 14 32 14H16C15.45 14 15 14.45 15 15V33C15 33.55 15.45 34 16 34H23V32H17V17.89C17 16.82 16.47 16.25 15.59 16.12V16Z" fill="#2B2D33"/>
</svg>
