<svg width="48" height="48" viewBox="0 0 48 48" fill="none" xmlns="http://www.w3.org/2000/svg">
<rect width="48" height="48" rx="12" fill="#FEE600"/>
<path d="M22 20C22 21.1 21.1 22 20 22C18.9 22 18 21.1 18 20C18 18.9 18.9 18 20 18C21.1 18 22 18.9 22 20Z" fill="#2B2D33"/>
<path fill-rule="evenodd" clip-rule="evenodd" d="M19.9898 14C21.3698 14 22.6998 14.47 23.7798 15.34C24.8498 16.21 25.5898 17.42 25.8698 18.77C26.1498 20.12 25.9598 21.52 25.3298 22.75C24.8098 23.77 23.9898 24.62 22.9998 25.19V28H23.9998C24.5498 28 24.9998 28.45 24.9998 29V33C24.9998 33.55 24.5498 34 23.9998 34H17.9998C17.4498 34 16.9998 33.55 16.9998 33V25.2C16.0098 24.63 15.1998 23.78 14.6698 22.76C14.0398 21.53 13.8498 20.13 14.1298 18.78C14.4098 17.43 15.1498 16.22 16.2098 15.35C17.2798 14.48 18.6098 14 19.9898 14ZM22.9998 30H20.9998V23.93L21.5998 23.67C22.4398 23.3 23.1398 22.65 23.5598 21.84C23.9798 21.02 24.1098 20.09 23.9198 19.19C23.7298 18.29 23.2398 17.48 22.5198 16.91C21.7998 16.31 20.9098 16 19.9898 16C19.0798 16 18.1898 16.32 17.4698 16.9C16.7598 17.48 16.2698 18.29 16.0798 19.19C15.8998 20.09 16.0298 21.02 16.4498 21.84C16.8698 22.66 17.5598 23.3 18.3998 23.67L18.9998 23.93V32H22.9998V30Z" fill="#2B2D33"/>
<path d="M32.62 30.04L30.92 28.34C30.66 28.08 30.35 28.07 30.08 28.34L28.38 30.04L26.96 28.62L29.8 25.79L29.72 25.7C29.21 26.09 28.67 26.08 28.17 25.58L26.96 24.38L28.38 22.96L30.08 24.66C30.34 24.92 30.65 24.93 30.92 24.66L32.62 22.96L34.04 24.38L31.2 27.21L31.28 27.3C31.79 26.91 32.33 26.92 32.83 27.42L34.04 28.62L32.62 30.04Z" fill="#2B2D33"/>
</svg>
