<svg width="48" height="48" viewBox="0 0 48 48" fill="none" xmlns="http://www.w3.org/2000/svg">
<rect width="48" height="48" rx="12" fill="#FEE600"/>
<path d="M18 32V17H21V19H22C22.58 19 23 18.58 23 18V16H25V18C25 18.58 25.43 19 26 19H27V17H30V32H18ZM17 34H31C31.57 34 32 33.57 32 33V16C32 15.43 31.57 15 31 15H28.9C27.69 15 27.23 15.46 27.12 16.5H27V15C27 14.43 26.57 14 26 14H22C21.43 14 21 14.43 21 15V16.5H20.88C20.77 15.46 20.31 15 19.1 15H17C16.43 15 16 15.43 16 16V33C16 33.57 16.43 34 17 34Z" fill="#2B2D33"/>
</svg>
