<svg width="48" height="48" viewBox="0 0 48 48" fill="none" xmlns="http://www.w3.org/2000/svg">
<rect width="48" height="48" rx="12" fill="#FEE600"/>
<path d="M19 27H29.97V26.86C28.51 26.56 28.01 25.49 28.01 24H30C30.01 25.33 30.69 26.46 32.29 27.03C32.8 27.21 33.01 27.55 33.01 28C33.01 28.45 32.8 28.79 32.29 28.97C30.69 29.54 30.01 30.68 30 32.01H28.01C28.01 30.52 28.51 29.44 29.97 29.14V29H19V27ZM24 34V32H16V17H19V19H20C20.58 19 21 18.58 21 18L21.01 16H23V18C23 18.58 23.43 19 24 19H25V17H28V22H30V16C30 15.43 29.57 15 29 15H26.9C25.69 15 25.23 15.46 25.12 16.5H25L25.01 15C25.01 14.43 24.58 14 24.01 14H20.01C19.44 14 19.01 14.43 19.01 15L19 16.5H18.88C18.77 15.46 18.31 15 17.1 15H15C14.43 15 14 15.43 14 16V33C14 33.57 14.43 34 15 34H24Z" fill="#2B2D33"/>
</svg>
