<svg width="48" height="48" viewBox="0 0 48 48" fill="none" xmlns="http://www.w3.org/2000/svg">
<rect width="48" height="48" rx="12" fill="#FEE600"/>
<path d="M15.42 28.01L14 29.43L18.29 33.71C18.68 34.1 19.32 34.1 19.71 33.71L26.93 26.48L25.51 25.06L18.07 32.52L17.98 32.43C18.41 31.63 18.25 30.81 17.6 30.17L15.42 28.01ZM27 16H31V22H33V15C33 14.45 32.55 14 32 14H27V16ZM27 34H32C32.55 34 33 33.55 33 33V26H31V30.11C31 31.18 31.53 31.75 32.41 31.88V32H27V34ZM17 22H19V17.89C19 16.82 18.47 16.25 17.59 16.12V16H23V14H18C17.45 14 17 14.45 17 15V22Z" fill="#2B2D33"/>
</svg>
