<svg width="48" height="48" viewBox="0 0 48 48" fill="none" xmlns="http://www.w3.org/2000/svg">
<rect width="48" height="48" rx="12" fill="#FEE600"/>
<path fill-rule="evenodd" clip-rule="evenodd" d="M20.4998 21.4C20.2998 21.2 19.9998 21 19.6998 21C19.3998 21 19.0998 21.2 18.8998 21.4L16.9998 24.2L13.7998 25.2C13.4998 25.3 13.1998 25.5 13.0998 25.9C12.9998 26.3 13.0998 26.6 13.2998 26.8L15.3998 29.5L15.2998 32.9C15.2998 33.2 15.3998 33.5 15.6998 33.7C15.9998 33.9 16.2998 33.9 16.5998 33.8L19.7998 32.7L22.9998 33.8C23.2998 33.9 23.6998 33.9 23.8998 33.7C24.1998 33.5 24.2998 33.2 24.2998 32.9L24.1998 29.5L26.2998 26.8C26.4998 26.5 26.5998 26.2 26.4998 25.9C26.3998 25.6 26.0998 25.3 25.7998 25.2L22.5998 24.2L20.4998 21.4ZM18.3998 25.7L19.6998 23.8L20.9998 25.7C21.0998 25.9 21.2998 26 21.4998 26.1L23.6998 26.7L22.2998 28.5C22.1998 28.7 22.0998 28.9 22.0998 29.1L22.1998 31.4L19.9998 30.7C19.7998 30.6 19.4998 30.6 19.2998 30.7L17.0998 31.5L17.1998 29.2C17.1998 29 17.0998 28.7 16.9998 28.6L15.5998 26.8L17.7998 26.2C18.0998 26 18.2998 25.9 18.3998 25.7Z" fill="#2B2D33"/>
<path d="M31.6998 27.5C31.6998 26.8 31.9998 26.4 32.6998 26.1V26H29.6998C29.1998 26 28.6998 25.6 28.6998 25V21C28.6998 20.4 29.1998 20 29.6998 20H32.6998V19.9C31.9998 19.7 31.6998 19.3 31.6998 18.5V17H15.6998V23H13.6998V16C13.6998 15.4 14.1998 15 14.6998 15H32.6998C33.2998 15 33.6998 15.4 33.6998 16V20C34.2998 20 34.6998 20.4 34.6998 21V25C34.6998 25.6 34.2998 26 33.6998 26V30C33.6998 30.6 33.2998 31 32.6998 31H26.6998V29H31.6998V27.5ZM30.6998 24H32.6998V22H30.6998V24Z" fill="#2B2D33"/>
</svg>
