<svg width="48" height="48" viewBox="0 0 48 48" fill="none" xmlns="http://www.w3.org/2000/svg">
<rect width="48" height="48" rx="12" fill="#FEE600"/>
<path d="M17 32V16H31V32H33V15C33 14.45 32.55 14 32 14H16C15.45 14 15 14.45 15 15V32H17ZM21 22V20H27V22H21ZM20 24H28C28.55 24 29 23.55 29 23V19C29 18.45 28.55 18 28 18H20C19.45 18 19 18.45 19 19V23C19 23.55 19.45 24 20 24ZM24 33.41V28H27V32H25.89C24.82 32 24.25 32.53 24.12 33.41H24ZM20 34H28C28.55 34 29 33.55 29 33V26H19V33C19 33.55 19.45 34 20 34ZM21 32V28H22V32H21Z" fill="#2B2D33"/>
</svg>
