<svg width="48" height="48" viewBox="0 0 48 48" fill="none" xmlns="http://www.w3.org/2000/svg">
<rect width="48" height="48" rx="12" fill="#FEE600"/>
<path d="M22.37 23.54C23.98 24.34 25 25.97 25 28C25 30.9 22.9 33 20 33H16C15.4 33 15 32.6 15 32V16C15 15.4 15.4 15 16 15H19C21.9 15 24 17.1 24 20C24 21.44 23.46 22.65 22.37 23.54ZM15.59 17V17.12C16.47 17.25 17 17.82 17 18.89V23H19C20.8 23 22 21.8 22 20C22 18.2 20.8 17 19 17H15.59ZM27 33H29V23C29 21.84 29.8 21 31 21H34V19H31.4C30.26 19 29.49 19.64 29.12 21H29V19H27V33ZM17 26.89V31H20C21.8 31 23 29.8 23 28C23 26.2 21.8 25 20 25H15.59V25.12C16.47 25.25 17 25.82 17 26.89Z" fill="#2B2D33"/>
</svg>
