<svg width="48" height="48" viewBox="0 0 48 48" fill="none" xmlns="http://www.w3.org/2000/svg">
<rect width="48" height="48" rx="12" fill="#FEE600"/>
<path d="M16 24H18C18.5 24 19 24.4 19 25H21C21 23.3 19.7 22 18 22V20H16V20.5C16 21.4 16.5 21.9 17.3 21.9V22H16C14.3 22 13 23.3 13 25C13 26.7 14.3 28 16 28H18C18.5 28 19 28.4 19 29C19 29.5 18.5 30 18 30H16C15.5 30 15 29.5 15 29H13C13 30.7 14.3 32 16 32V34H18V33.5C18 32.6 17.5 32.1 16.7 32.1V32H18C19.7 32 21 30.7 21 29C21 27.3 19.7 26 18 26H16C15.5 26 15 25.5 15 25C15 24.4 15.5 24 16 24Z" fill="#2B2D33"/>
<path d="M24 16H22V18H24V16Z" fill="#2B2D33"/>
<path d="M16 16H14V18H16V16Z" fill="#2B2D33"/>
<path d="M20 16H18V18H20V16Z" fill="#2B2D33"/>
<path d="M30 30H28V32H30V30Z" fill="#2B2D33"/>
<path d="M32 20C33.7 20 35 18.7 35 17C35 15.3 33.7 14 32 14H28V18H26V20H28V21H26V23H28V25H30V21.6H30.1C30.2 22.5 30.8 23 31.9 23H34V21H30V20H32ZM30 16H32C32.6 16 33 16.4 33 17C33 17.6 32.6 18 32 18H30V16Z" fill="#2B2D33"/>
<path d="M34 30H32V32H34V30Z" fill="#2B2D33"/>
<path d="M26 30H24V32H26V30Z" fill="#2B2D33"/>
</svg>
