<svg width="48" height="48" viewBox="0 0 48 48" fill="none" xmlns="http://www.w3.org/2000/svg">
<rect width="48" height="48" rx="12" fill="#FEE600"/>
<g clip-path="url(#clip0_342_2409)">
<path d="M16 28C17.07 28 18 27.07 18 26C18 24.93 17.07 24 16 24C14.94 24 14 24.93 14 26C14 27.07 14.94 28 16 28ZM22 34C23.07 34 24 33.07 24 32C24 30.93 23.07 30 22 30C20.94 30 20 30.93 20 32C20 33.07 20.94 34 22 34ZM15.4 34.01L24 25.42L22.6 24.02L14 32.61L15.4 34.01ZM28.88 26H26V28H33C33.56 28 34 27.59 34 27V15C34 14.45 33.56 14 33 14H15C14.45 14 14 14.45 14 15V22H16V19.12C16 18.49 15.58 18.12 15 18.12V18H16.5C17.32 18 18 17.33 18 16.5V15H18.12C18.12 15.58 18.49 16 19.12 16H28.88C29.51 16 29.88 15.58 29.88 15H30V16.5C30 17.33 30.68 18 31.5 18H33V18.12C32.42 18.12 32 18.49 32 19.12V22.88C32 23.51 32.42 23.88 33 23.88V24H31.5C30.68 24 30 24.67 30 25.5V27H29.88C29.88 26.42 29.51 26 28.88 26Z" fill="#2B2D33"/>
</g>
<defs>
<clipPath id="clip0_342_2409">
<rect width="20" height="20.01" fill="white" transform="translate(14 14)"/>
</clipPath>
</defs>
</svg>
