<svg width="48" height="48" viewBox="0 0 48 48" fill="none" xmlns="http://www.w3.org/2000/svg">
<rect width="48" height="48" rx="12" fill="#FEE600"/>
<path d="M27.51 29.01C28.3384 29.01 29.01 28.3384 29.01 27.51C29.01 26.6816 28.3384 26.01 27.51 26.01C26.6816 26.01 26.01 26.6816 26.01 27.51C26.01 28.3384 26.6816 29.01 27.51 29.01Z" fill="#2B2D33"/>
<path d="M32.51 34C33.3384 34 34.01 33.3284 34.01 32.5C34.01 31.6716 33.3384 31 32.51 31C31.6816 31 31.01 31.6716 31.01 32.5C31.01 33.3284 31.6816 34 32.51 34Z" fill="#2B2D33"/>
<path d="M32.6097 26.0106L26.0078 32.6032L27.4069 34.0043L34.0088 27.4117L32.6097 26.0106Z" fill="#2B2D33"/>
<path d="M14 21C14 21.44 14.2 21.73 14.61 21.95C17.71 23.61 20 25.02 20 28H22C22 24.9 20.26 22.79 17.57 22.11V22H34.01V20H17.57V19.89C20.26 19.21 22 17.1 22 14H20C20 16.98 17.71 18.38 14.61 20.05C14.2 20.27 14 20.56 14 21Z" fill="#2B2D33"/>
</svg>
