<svg width="48" height="48" viewBox="0 0 48 48" fill="none" xmlns="http://www.w3.org/2000/svg">
<rect width="48" height="48" rx="12" fill="#FEE600"/>
<path d="M29 24V22H31V24H29ZM21.75 23.01C21.75 23.7 22.31 24.26 23 24.26C23.69 24.26 24.25 23.7 24.25 23.01C24.25 22.32 23.69 21.76 23 21.76C22.31 21.76 21.75 22.32 21.75 23.01ZM21 26V20H27V26H21ZM17 30V16H31V18C31 19 31.6 19.68 32.5 19.88V20H29V19C29 18.45 28.55 18 28 18H20C19.45 18 19 18.45 19 19V27C19 27.55 19.45 28 20 28H28C28.55 28 29 27.55 29 27V26H32.5V26.12C31.6 26.32 31 27 31 28V30H17ZM15 31C15 31.55 15.45 32 16 32H17V34H19V32H29V34H31V32H32C32.55 32 33 31.55 33 31V15C33 14.45 32.55 14 32 14H16C15.45 14 15 14.45 15 15V31Z" fill="#2B2D33"/>
</svg>
