<svg width="48" height="48" viewBox="0 0 48 48" fill="none" xmlns="http://www.w3.org/2000/svg">
<rect width="48" height="48" rx="12" fill="#FEE600"/>
<path d="M26 16C28.2091 16 30 17.7909 30 20H28C28 18.8954 27.1046 18 26 18H22C20.8954 18 20 18.8954 20 20V21C20 22.1046 20.8954 23 22 23H26C28.2091 23 30 24.7909 30 27V28C30 30.2091 28.2091 32 26 32H26.1772C26.1185 32.0026 26.0594 32.0039 26 32.0039H23.6V32.1039C24.4 32.4039 25 33.1039 25 34.0039V36.0039H23V33.0039C23 32.4039 22.6 32.0039 22 32.0039C21.9406 32.0039 21.8815 32.0026 21.8228 32H22C19.7909 32 18 30.2091 18 28H20C20 29.1046 20.8954 30 22 30H26C27.1046 30 28 29.1046 28 28V27C28 25.8954 27.1046 25 26 25H22C19.7909 25 18 23.2091 18 21V20C18 17.7909 19.7909 16 22 16H24.4V15.9C23.6 15.6 23 14.9 23 14V12H25V15C25 15.6 25.4 16 26 16Z" fill="#303030"/>
</svg>
