<svg width="48" height="48" viewBox="0 0 48 48" fill="none" xmlns="http://www.w3.org/2000/svg">
<rect width="48" height="48" rx="12" fill="#FEE600"/>
<path d="M32.6 25.6L30.1 22.3C29.5 21.6 29.1 21.2 27.9 21.1V21H31.9V19H27.6V18.9C28.7 18.8 29.1 18.4 29.6 17.5L30.7 15.6C31.3 14.9 30.9 14 30 14H22C21.2 14 20.7 14.8 21.2 15.7L23.7 20C24.2 20.7 24.7 21 25.5 21H26.6L31.1 26.8C31.8 27.7 32 28.3 32 29C32 30.7 30.7 32 29 32H23V34H29C31.8 34 34 31.8 34 29C34 27.9 33.6 26.9 32.6 25.6ZM26.5 19H25.6L23.7 16H28.2L26.5 19Z" fill="#2B2D33"/>
<path d="M20 28C21.7 28 23 26.7 23 25C23 23.3 21.7 22 20 22H16V26H14V28H16V29H14V31H16V34H18V29.6H18.1C18.2 30.5 18.8 31 19.9 31H22V29H18V28H20ZM18 24H20C20.6 24 21 24.4 21 25C21 25.6 20.6 26 20 26H18V24Z" fill="#2B2D33"/>
</svg>
