<svg width="48" height="48" viewBox="0 0 48 48" fill="none" xmlns="http://www.w3.org/2000/svg">
<rect width="48" height="48" rx="12" fill="#FEE600"/>
<path d="M34 16.99L16.04 17V16.86C17.5 16.56 18 15.49 18 14H16.01C16 15.33 15.32 16.46 13.72 17.03C13.21 17.21 13 17.55 13 18C13 18.45 13.21 18.79 13.72 18.97C15.32 19.54 16 20.68 16.01 22.01H18C18 20.52 17.5 19.44 16.04 19.14V19L27.02 18.99C28.13 18.99 28.69 18.56 28.88 17.6H29V18.99C29 21.17 30.76 22.99 33 22.99V27C30.82 27 29 28.76 29 31V32.39H28.88C28.69 31.43 28.13 31 27.02 31H20.98C19.87 31 19.31 31.43 19.12 32.39H19V31C19 28.78 17.2 27 15 27V24H13V32C13 32.55 13.45 33 14 33H34C34.55 33 35 32.56 35 32V17.99C35 17.44 34.55 16.99 34 16.99ZM15 31V29C16.09 29 17 29.88 17 31H15ZM33 31H31C31 29.88 31.91 29 33 29V31ZM33 20.99C31.91 20.99 31 20.11 31 18.99H33V20.99Z" fill="#2B2D33"/>
<path d="M24 29C26.59 29 29 27.37 29 25C29 22.65 26.62 21 24 21C21.41 21 19 22.63 19 25C19 27.35 21.38 29 24 29ZM24 23C25.41 23 27 23.79 27 25C27 26.19 25.44 27 24 27C22.59 27 21 26.21 21 25C21 23.81 22.56 23 24 23Z" fill="#2B2D33"/>
</svg>
