<svg width="48" height="48" viewBox="0 0 48 48" fill="none" xmlns="http://www.w3.org/2000/svg">
<rect width="48" height="48" rx="12" fill="#FEE600"/>
<path d="M27.02 18C28.13 18 28.69 17.57 28.88 16.61H29V18C29 20.22 30.8 22 33 22V26C30.82 26 29 27.76 29 30V31.39H28.88C28.69 30.43 28.13 30 27.02 30H20.98C19.87 30 19.31 30.43 19.12 31.39H19V30C19 27.82 17.24 26 15 26V22C17.18 22 19 20.24 19 18V16.61H19.12C19.31 17.57 19.87 18 20.98 18H27.02ZM17 30H15V28C16.07 28 17 28.86 17 30ZM17 18C17 19.08 16.14 20 15 20V18H17ZM27 24C27 25.19 25.44 26 24 26C22.59 26 21 25.21 21 24C21 22.81 22.56 22 24 22C25.41 22 27 22.79 27 24ZM29 24C29 21.65 26.62 20 24 20C21.41 20 19 21.63 19 24C19 26.35 21.38 28 24 28C26.59 28 29 26.37 29 24ZM33 28V30H31C31 28.92 31.86 28 33 28ZM33 18V20C31.93 20 31 19.14 31 18H33ZM35 17C35 16.45 34.55 16 34 16H14C13.45 16 13 16.44 13 17V31C13 31.55 13.45 32 14 32H34C34.55 32 35 31.56 35 31V17Z" fill="#2B2D33"/>
</svg>
