<svg width="48" height="48" viewBox="0 0 48 48" fill="none" xmlns="http://www.w3.org/2000/svg">
<rect width="48" height="48" rx="12" fill="#FEE600"/>
<path d="M29 31C27.9 31 27 30.1 27 29C27 27.9 27.9 27 29 27C30.1 27 31 27.9 31 29C31 30.1 30.1 31 29 31ZM29 33C31.2 33 33 31.2 33 29C33 26.8 31.2 25 29 25C26.8 25 25 26.8 25 29C25 31.2 26.8 33 29 33ZM16.4 33L33 16.4L31.6 15L15 31.6L16.4 33Z" fill="#2B2D33"/>
<path d="M19 15C16.8 15 15 16.8 15 19C15 21.2 16.8 23 19 23C21.2 23 23 21.2 23 19C23 16.8 21.2 15 19 15ZM19 21C17.9 21 17 20.1 17 19C17 17.9 17.9 17 19 17C20.1 17 21 17.9 21 19C21 20.1 20.1 21 19 21Z" fill="#2B2D33"/>
</svg>
