<svg width="48" height="48" viewBox="0 0 48 48" fill="none" xmlns="http://www.w3.org/2000/svg">
<rect width="48" height="48" rx="12" fill="#FEE600"/>
<path d="M22 16.24V14.19C17.4 15.1 14 19.11 14 24C14 29.57 18.43 34 24 34C28.89 34 32.89 30.6 33.8 26H31.75C30.88 29.48 27.78 32 24 32C19.53 32 16 28.47 16 24C16 20.23 18.52 17.11 22 16.24ZM26 18C27.07 18 28 17.07 28 16C28 14.93 27.07 14 26 14C24.94 14 24 14.93 24 16C24 17.07 24.94 18 26 18ZM32 24C33.07 24 34 23.07 34 22C34 20.93 33.07 20 32 20C30.94 20 30 20.93 30 22C30 23.07 30.94 24 32 24ZM25.4 24.01L34 15.42L32.6 14.02L24 22.61L25.4 24.01Z" fill="#2B2D33"/>
</svg>
