<svg width="48" height="48" viewBox="0 0 48 48" fill="none" xmlns="http://www.w3.org/2000/svg">
<rect width="48" height="48" rx="12" fill="#FEE600"/>
<path d="M28 33H30V24.4L34 20.4L32.6 19L31.26 20.34C30.5 21.1 30.27 21.87 30.12 22.79H30V15H28V23.6L24 27.6L25.4 29L26.69 27.71C27.5 26.9 27.73 26.13 27.88 25.21H28V33ZM23.71 20.75C24.29 19.88 23.97 19 22.92 19H14V21H22.29V21.12C21.22 21.27 20.73 21.66 20 22.75L14.27 31.29C13.73 32.09 14.07 33 15.03 33H24V31H15.71V30.88C16.78 30.73 17.27 30.34 18 29.25L23.71 20.75Z" fill="#2B2D33"/>
</svg>
