<svg width="48" height="48" viewBox="0 0 48 48" fill="none" xmlns="http://www.w3.org/2000/svg">
<rect width="48" height="48" rx="12" fill="#FEE600"/>
<path d="M29.6 17.2L29.8 17C31 17.9 32 17.5 33.2 16.4L31.8 15C30.9 15.9 29.6 16.2 28 15.5C27.5 15.3 27.1 15.4 26.8 15.7C26.5 16 26.4 16.4 26.6 16.9C27.3 18.4 27 19.7 26.1 20.7L27.5 22.1C28.6 21 29 19.9 28.1 18.7L28.2 18.6C29.9 19.8 31 21.8 31 24.1C31 28 27.9 31.1 24 31.1C21.8 31.1 19.9 30.1 18.6 28.5L17.2 29.9C18.8 31.8 21.3 33.1 24 33.1C29 33.1 33 29.1 33 24.1C33 21.2 31.7 18.8 29.6 17.2Z" fill="#2B2D33"/>
<path d="M18 27.1V22.7H18.1C18.2 23.6 18.8 24.1 19.9 24.1H22V22.1H18V21.1H21C22.7 21.1 24 19.8 24 18.1C24 16.4 22.7 15.1 21 15.1H16V19.1H14V21.1H16V22.1H14V24.1H16V27.1H18ZM18 17.1H21C21.6 17.1 22 17.5 22 18.1C22 18.7 21.6 19.1 21 19.1H18V17.1Z" fill="#2B2D33"/>
</svg>
