<svg width="48" height="48" viewBox="0 0 48 48" fill="none" xmlns="http://www.w3.org/2000/svg">
<rect width="48" height="48" rx="12" fill="#FEE600"/>
<path d="M19 26V28H21V30H23V26.6H23.1C23.2 27.5 23.8 28 24.9 28H27V26H23V25H26C27.7 25 29 23.7 29 22C29 20.3 27.7 19 26 19H21V23H19V25H21V26H19ZM23 21H26C26.6 21 27 21.4 27 22C27 22.6 26.6 23 26 23H23V21Z" fill="#2B2D33"/>
<path d="M34 31H14V33H34V31Z" fill="#2B2D33"/>
<path d="M24 14C18.4 14 14 18.4 14 24V29H16V24C16 19.5 19.5 16 24 16C28.5 16 32 19.5 32 24V29H34V24C34 18.4 29.6 14 24 14Z" fill="#2B2D33"/>
</svg>
