<svg width="48" height="48" viewBox="0 0 48 48" fill="none" xmlns="http://www.w3.org/2000/svg">
<rect width="48" height="48" rx="12" fill="#FEE600"/>
<path d="M24 14V16C28.4 16 32 19.6 32 24C32 28.5 28.4 32 24 32C21.8 32 19.8 31.1 18.3 29.7L16.9 31.1C18.7 32.9 21.2 34 24 34C29.5 34 34 29.6 34 24C34 18.5 29.5 14 24 14Z" fill="#2B2D33"/>
<path d="M18 28V23.6H18.1C18.2 24.5 18.8 25 19.9 25H22V23H18V22H21C22.7 22 24 20.7 24 19C24 17.3 22.7 16 21 16H16V20H14V22H16V23H14V25H16V28H18ZM18 18H21C21.6 18 22 18.4 22 19C22 19.6 21.6 20 21 20H18V18Z" fill="#2B2D33"/>
</svg>
