<svg width="48" height="48" viewBox="0 0 48 48" fill="none" xmlns="http://www.w3.org/2000/svg">
<rect width="48" height="48" rx="12" fill="#FEE600"/>
<path d="M22 24V22H18V21H21C22.7 21 24 19.7 24 18C24 16.3 22.7 15 21 15H16V19H14V21H16V22H14V24H16V27H18V22.6H18.1C18.2 23.5 18.8 24 19.9 24H22ZM18 17H21C21.6 17 22 17.4 22 18C22 18.6 21.6 19 21 19H18V17Z" fill="#2B2D33"/>
<path d="M26 27.5C26.8284 27.5 27.5 26.8284 27.5 26C27.5 25.1716 26.8284 24.5 26 24.5C25.1716 24.5 24.5 25.1716 24.5 26C24.5 26.8284 25.1716 27.5 26 27.5Z" fill="#2B2D33"/>
<path d="M33.5001 24.1L32.2001 23.4L32.6001 22.1C32.7001 21.7 32.6001 21.3 32.4001 21.1L31.0001 19.7C30.7001 19.4 30.3001 19.3 30.0001 19.5L28.7001 19.9L28.0001 18.6L26.2001 19.5L26.8001 20.8C27.2001 21.7 28.3001 22.2 29.2001 21.8L29.9001 21.6L30.4001 22.1L30.2001 22.8C29.9001 23.8 30.3001 24.8 31.2001 25.2L32.0001 25.6V26.4L31.3001 26.8C30.4001 27.2 29.9001 28.3 30.3001 29.2L30.5001 29.9L30.0001 30.4L29.3001 30.2C28.3001 29.9 27.3001 30.3 26.9001 31.2L26.4001 32H25.6001L25.2001 31.3C24.8001 30.4 23.7001 30 22.8001 30.3L22.1001 30.5L21.6001 30L22.0001 28.4L20.1001 27.8L19.4001 29.9C19.3001 30.3 19.4001 30.7 19.6001 30.9L21.0001 32.3C21.3001 32.6 21.7001 32.7 22.0001 32.5L23.3001 32.1L23.9001 33.4C24.1001 33.7 24.4001 34 24.8001 34H27.0001C27.4001 34 27.7001 33.8 27.9001 33.4L28.5001 32.1L29.8001 32.5C30.2001 32.6 30.6001 32.5 30.8001 32.3L32.2001 30.9C32.5001 30.6 32.6001 30.2 32.4001 29.9L32.0001 28.6L33.3001 28C33.7001 27.8 33.9001 27.5 33.9001 27.1V25C34.0001 24.6 33.8001 24.2 33.5001 24.1Z" fill="#2B2D33"/>
</svg>
