<svg width="48" height="48" viewBox="0 0 48 48" fill="none" xmlns="http://www.w3.org/2000/svg">
<rect width="48" height="48" rx="12" fill="#FEE600"/>
<path d="M20.2 19V18.88C20.92 18.72 21.42 18.34 21.84 17.7L22.28 17.03C22.72 16.35 23.16 16 24 16C24.84 16 25.28 16.35 25.72 17.03L26.16 17.7C26.58 18.34 27.08 18.72 27.8 18.88V19H20.2ZM31 32C30.4 32 30 31.6 30 31V22C30 21.4 30.4 21 31 21H32V32H31ZM18.5 32V31.88C19.43 31.59 20 30.87 20 30V23C20 22.13 19.43 21.41 18.5 21.12V21H29.5V21.12C28.57 21.41 28 22.13 28 23V30C28 30.87 28.57 31.59 29.5 31.88V32H18.5ZM16 32V21H17C17.6 21 18 21.4 18 22V31C18 31.6 17.6 32 17 32H16ZM15 34H33C33.55 34 34 33.55 34 33V20C34 19.45 33.55 19 33 19H30.2C29.62 19 29.21 18.73 28.8 18.1L27.44 16C26.57 14.66 25.38 14 24 14C22.62 14 21.43 14.66 20.56 16L19.2 18.1C18.8 18.73 18.38 19 17.8 19H15C14.4 19 14 19.4 14 20V33C14 33.6 14.4 34 15 34Z" fill="#2B2D33"/>
</svg>
