<svg width="48" height="48" viewBox="0 0 48 48" fill="none" xmlns="http://www.w3.org/2000/svg">
<rect width="48" height="48" rx="12" fill="#FEE600"/>
<path d="M17 32H31V16H17V32ZM34 32V34H14V32H16.41V31.88C15.53 31.75 15 31.18 15 30V15C15 14.45 15.45 14 16 14H32C32.55 14 33 14.45 33 15V30C33 31.18 32.47 31.75 31.59 31.88V32H34ZM20 28H28V26H20V28ZM21 20V22H27V20H21ZM19 19C19 18.45 19.45 18 20 18H28C28.55 18 29 18.45 29 19V23C29 23.55 28.55 24 28 24H20C19.45 24 19 23.55 19 23V19Z" fill="#2B2D33"/>
</svg>
