<svg width="48" height="48" viewBox="0 0 48 48" fill="none" xmlns="http://www.w3.org/2000/svg">
<rect width="48" height="48" rx="12" fill="#FEE600"/>
<path d="M26 20H21V24H19V26H21V27H19V29H21V31H23V27.6H23.1C23.2 28.5 23.8 29 24.9 29H27V27H23V26H26C27.7 26 29 24.7 29 23C29 21.3 27.7 20 26 20ZM26 24H23V22H26C26.6 22 27 22.4 27 23C27 23.6 26.6 24 26 24Z" fill="#2B2D33"/>
<path d="M34 25C34 19.4 29.6 15 24 15C18.4 15 14 19.4 14 25C14 27.8 15.1 30.2 16.8 32H14V34H34V32H31.2C32.9 30.2 34 27.8 34 25ZM27.9 32H20.1C17.7 30.7 16 28 16 25C16 20.5 19.5 17 24 17C28.5 17 32 20.5 32 25C32 28 30.4 30.7 27.9 32Z" fill="#2B2D33"/>
</svg>
