<svg width="48" height="48" viewBox="0 0 48 48" fill="none" xmlns="http://www.w3.org/2000/svg">
<rect width="48" height="48" rx="12" fill="#FEE600"/>
<path d="M34.92 30.79L31.89 19.17C31.55 17.88 30.4 17 29 17H26.42L26.67 16.75C26.89 16.53 27 16.27 27 16.01C27 15.76 26.89 15.51 26.69 15.31C26.49 15.11 26.24 15.01 25.99 15.01C25.73 15.01 25.46 15.12 25.25 15.33L23.996 16.584L22.75 15.33C22.54 15.11 22.28 15 22.02 15C21.76 15 21.51 15.11 21.31 15.31C21.11 15.51 21 15.76 21 16.01C21 16.27 21.11 16.53 21.33 16.75L21.58 17H19C17.52 17 16.42 17.99 16.06 19.38L13.08 30.79C13.02 31.02 13 31.24 13 31.44C13 32.43 13.66 33 14.83 33H33.17C34.34 33 35 32.43 35 31.44C35 31.24 34.98 31.02 34.92 30.79ZM19 19H29C29.59 19 30 19.41 30 20C30 20.59 29.59 21 29 21H19C18.41 21 18 20.59 18 20C18 19.41 18.41 19 19 19ZM15.08 31L16.79 24.85C17.01 24.07 17.07 23.43 17.07 22.82C17.07 22.667 17.064 22.518 17.053 22.369L17.157 22.331C17.617 22.904 18.284 23 19 23H29C29.704 23 30.378 22.904 30.841 22.33L30.947 22.369C30.936 22.518 30.93 22.668 30.93 22.82C30.93 23.43 30.99 24.07 31.21 24.85L32.92 31H15.08Z" fill="#2B2D33"/>
</svg>
