<svg width="48" height="48" viewBox="0 0 48 48" fill="none" xmlns="http://www.w3.org/2000/svg">
<rect width="48" height="48" rx="12" fill="#FEE600"/>
<path d="M28 25H30V23H28V25ZM27 26C25.9 26 25 25.1 25 24C25 22.9 25.9 22 27 22H32V26H27ZM16 30V18H30V20H27C24.79 20 23 21.79 23 24C23 26.21 24.79 28 27 28H30V30H16ZM15 32H31C31.55 32 32 31.55 32 31V30C32 29.03 31.51 28.39 30.66 28.13V28H33C33.55 28 34 27.55 34 27V21C34 20.45 33.55 20 33 20H30.66V19.87C31.51 19.61 32 18.97 32 18V17C32 16.45 31.55 16 31 16H15C14.45 16 14 16.45 14 17V31C14 31.55 14.45 32 15 32Z" fill="#2B2D33"/>
</svg>
