<svg width="24" height="24" viewBox="0 0 24 24" fill="none" xmlns="http://www.w3.org/2000/svg">
<path d="M9.67 14.8C8.74 13.88 7.56 13.5 6.5 13.5C5.39 13.5 4.37 13.9 3.59 14.57L3.51 14.48C4.44 13.78 4.8 13.29 4.99 12.2L5.69 8.32C5.77 7.85 6.19 7.5 6.67 7.5H7C7.55 7.5 8 7.05 8 6.5V5.5C8 4.67 8.67 4 9.5 4C10.32 4 11 4.67 11 5.5V6.49H13V5.5C13 4.67 13.68 4 14.5 4C15.33 4 16 4.67 16 5.5V6.5C16 7.05 16.45 7.5 17 7.5H17.33C17.81 7.5 18.23 7.85 18.31 8.32L19.01 12.2C19.21 13.29 19.56 13.78 20.49 14.48L20.41 14.57C19.63 13.9 18.61 13.5 17.5 13.5C16.44 13.5 15.26 13.88 14.33 14.8L14.25 14.72C14.9 13.97 15 13.55 15 12.48V10.5C15 9.95 14.55 9.5 14 9.5H10C9.45 9.5 9 9.95 9 10.5V12.48C9 13.55 9.1 13.97 9.75 14.72L9.67 14.8ZM17.5 20.5C16.12 20.5 15 19.38 15 18C15 16.62 16.12 15.5 17.5 15.5C18.88 15.5 20 16.62 20 18C20 19.38 18.88 20.5 17.5 20.5ZM6.5 20.5C5.12 20.5 4 19.38 4 18C4 16.62 5.12 15.5 6.5 15.5C7.88 15.5 9 16.62 9 18C9 19.38 7.88 20.5 6.5 20.5ZM6.5 22.5C8.98 22.5 11 20.48 11 18V11.5H13V18C13 20.48 15.02 22.5 17.5 22.5C19.98 22.5 22 20.48 22 18C22 17.71 21.97 17.42 21.92 17.15L20.28 7.96C20.07 6.77 19.15 5.84 18 5.58V5.5C18 3.56 16.44 2 14.5 2C13.52 2 12.64 2.4 12 3.05C11.36 2.4 10.48 2 9.5 2C7.56 2 6 3.56 6 5.5V5.58C4.85 5.84 3.93 6.77 3.72 7.96L2.08 17.15C2.03 17.42 2 17.71 2 18C2 20.48 4.02 22.5 6.5 22.5Z" fill="#2B2D33"/>
</svg>
