<svg width="24" height="24" viewBox="0 0 24 24" fill="none" xmlns="http://www.w3.org/2000/svg">
<path d="M17.25 19V18.88C16.45 18.74 16 18.14 16 17.4V15C16 14.44 16.45 14 17 14H21C21.55 14 22 14.45 22 15V18C22 19.8 20.8 21 19 21H16C13.76 21 12 19.25 12 17V14C12 12.87 11.13 12 10 12H8V10H10C12.24 10 14 11.76 14 14V17C14 18.17 14.71 19 16 19H17.25ZM18 19H19C19.63 19 20 18.63 20 18V16H18V19ZM20.7 3.29C21.09 3.68 21.09 4.32 20.7 4.71L19.7 5.71C19.54 5.87 19.54 6.13 19.7 6.29C20.65 7.24 20.65 8.76 19.7 9.71L19.54 9.87C19.35 10.07 19.3 10.36 19.42 10.61L19.89 11.55C20.14 12.05 19.94 12.65 19.44 12.89C18.95 13.14 18.35 12.94 18.1 12.45L17.63 11.51C17.12 10.49 17.32 9.26 18.13 8.46L18.29 8.29C18.45 8.13 18.45 7.87 18.29 7.71C17.35 6.76 17.35 5.24 18.29 4.29L19.29 3.29C19.68 2.9 20.31 2.9 20.7 3.29ZM3 5C3 4.44 3.44 4 4 4H12C12.55 4 13 4.45 13 5V9H11V6H5V12C5 13.66 6.34 15 8 15C8.52 15 9.04 14.86 9.5 14.6L10.5 16.33C10.03 16.6 9.52 16.79 9 16.9V20H12V22H4V20H7V16.9C4.67 16.43 3 14.38 3 12V5Z" fill="#FEE600"/>
</svg>
