<svg width="24" height="24" viewBox="0 0 24 24" fill="none" xmlns="http://www.w3.org/2000/svg">
<path d="M15.44 10L16.19 8H17V10H15.44ZM9 10V8H15.01V8.12C14.28 8.18 13.9 8.43 13.67 9.03L13.3 10H9ZM7.32 11V8.99C6.03 8.9 5 7.82 5 6.5C5 5.13 6.12 4 7.5 4C8.83 4 9.93 5.06 10 6.37H12C11.93 3.96 9.93 2 7.5 2C5.02 2 3 4.03 3 6.5C3 8.92 4.93 10.9 7.32 11ZM14 16C14.55 16 15 15.55 15 15C15 14.45 14.55 14 14 14C13.44 14 13 14.45 13 15C13 15.55 13.44 16 14 16ZM10 20C9.44 20 9 19.55 9 19V12H11C11 12.55 11.44 13 12 13C12.55 13 13 12.55 13 12H17V19C17 19.55 16.55 20 16 20H10ZM12 19C12.55 19 13 18.55 13 18C13 17.45 12.55 17 12 17C11.44 17 11 17.45 11 18C11 18.55 11.44 19 12 19ZM10 22H16C17.65 22 19 20.66 19 19V6H15.98V5.88C16.71 5.82 17.09 5.57 17.32 4.97L17.69 4H22V2H17.1C16.55 2 16.21 2.23 16.02 2.74L14.8 6H7V19C7 20.66 8.34 22 10 22Z" fill="#FEE600"/>
</svg>
