<svg width="24" height="24" viewBox="0 0 24 24" fill="none" xmlns="http://www.w3.org/2000/svg">
<path d="M13.93 14.38L14.46 12.4C15.16 12.81 15.97 12.9 16.71 12.7C18.32 12.29 19.26 10.63 18.83 9.02001L17.28 3.23001L13.98 4.11001C12.69 4.45001 12.01 4.46001 10.62 4.25001L10.58 4.36001L13.51 5.14001C14.11 5.30001 14.24 5.81001 14.09 6.33001L12.28 13.09C11.67 15.39 9.53 16.93 7.15 16.79L6.35 19.79L9.24 20.56L8.73 22.49L1 20.42L1.52 18.49L4.41 19.27L5.22 16.27C3.09 15.22 2 12.81 2.62 10.5L4.43 3.74001C4.57 3.19001 5.09 2.89001 5.66 3.04001L9.23 4.00001C9.22 3.61001 9.4 3.27001 9.87 3.14001L17.72 1.04001C18.29 0.890007 18.81 1.19001 18.95 1.74001L20.76 8.50001C21.38 10.81 20.3 13.22 18.17 14.27L18.97 17.27L21.87 16.49L22.38 18.42L14.66 20.49L14.14 18.56L17.04 17.79L16.24 14.79C15.42 14.84 14.63 14.69 13.93 14.38ZM11.9 6.78001L6.11 5.23001L4.55 11.02C4.11 12.63 5.06 14.27 6.67 14.7C8.28 15.13 9.92 14.19 10.35 12.58L11.9 6.78001Z" fill="#FEE600"/>
</svg>
