<svg width="24" height="24" viewBox="0 0 24 24" fill="none" xmlns="http://www.w3.org/2000/svg">
<path d="M12 14.12C10.61 15.83 10.05 19.07 10.01 21.08C10 21.65 9.57 22 9.11 22C8.92 22 8.83 22 8.47 21.87C5.53 20.78 4 18 4 15C4 10.57 7.71 6.26 11.01 2.62C11.39 2.2 11.58 2 12 2C12.42 2 12.61 2.2 12.99 2.62C16.29 6.26 20 10.57 20 15C20 18 18.47 20.78 15.47 21.89C15.17 22 15.08 22 14.89 22C14.43 22 14 21.65 13.99 21.08C13.95 19.07 13.39 15.83 12 14.12ZM12 4.43C9.15 7.91 5.94 11.27 6.01 15C6.05 16.96 6.74 19.3 9.35 20.08L9.37 19.97C8.37 19.45 8.23 18.81 8.43 17.64C8.82 15.35 10.22 12 12 12C13.78 12 15.18 15.35 15.57 17.64C15.77 18.81 15.63 19.45 14.63 19.97L14.65 20.08C17.26 19.3 17.95 16.96 17.99 15C18.06 11.27 14.85 7.91 12 4.43Z" fill="white"/>
</svg>
