<svg width="24" height="24" viewBox="0 0 24 24" fill="none" xmlns="http://www.w3.org/2000/svg">
<path d="M14 7.37V5C14 4.45 14.44 4 15 4H18V5C18 5.55 17.55 6 17 6H15.43C14.61 6 14.12 6.44 14.12 7.37H14ZM6 10H11V7C11 5.34 9.65 4 8 4H3V7C3 8.66 4.34 10 6 10ZM8.88 9.37C8.88 8.44 8.39 8 7.57 8H6C5.44 8 5 7.55 5 7V6H8C8.55 6 9 6.45 9 7V9.37H8.88ZM8.88 20L8.13 14H17.86L17.11 20H8.88ZM8 22H18C18.52 22 18.93 21.64 18.99 21.12L19.99 13.12C20.07 12.49 19.61 12 19 12H14V8H17C18.65 8 20 6.66 20 5V2H15C13.34 2 12 3.34 12 5V12H7C6.36 12 5.92 12.5 6 13.12L7 21.12C7.06 21.64 7.47 22 8 22Z" fill="white"/>
</svg>
