<svg width="24" height="24" viewBox="0 0 24 24" fill="none" xmlns="http://www.w3.org/2000/svg">
<path d="M4 19V6.4H4.12C4.18 7.35 4.86 8 5.87 8H14V10H16V7C16 6.45 15.55 6 15 6H5C4.45 6 4 5.55 4 5C4 4.45 4.45 4 5 4H16V2H5C3.35 2 2 3.34 2 5V19C2 20.71 3.31 22 5 22H10V20H5C4.4 20 4 19.6 4 19Z" fill="white"/>
<path d="M18.42 13.01H17.41C17.41 11.91 18.31 11.01 19.41 11.01V9.01C17.21 9.01 15.41 10.81 15.41 13.01H14.59C12.27 13.01 11 14.67 11 16.89C11 19.42 12.84 22 15.14 22C15.63 22 16.05 21.89 16.5 21.56C16.94 21.88 17.38 22 17.86 22C20.21 22 22 19.39 22 16.86C22 14.62 20.69 13.01 18.42 13.01ZM17.87 20C17.16 20 17.13 19.36 16.5 19.36C15.9 19.36 15.79 20 15.13 20C13.96 20 13 18.2 13 16.88C13 15.74 13.44 15.01 14.61 15.01H18.39C19.57 15.01 20 15.78 20 16.87C20 18.23 19.03 20 17.87 20Z" fill="white"/>
</svg>
