<svg width="24" height="24" viewBox="0 0 24 24" fill="none" xmlns="http://www.w3.org/2000/svg">
<path d="M6.03008 4H15.9701L13.4201 7H8.58008L6.03008 4ZM18.0001 7H15.2301V6.88C16.0501 6.77 16.4401 6.55 16.8801 6L18.7801 3.62C19.0201 3.32 19.0601 2.92 18.9001 2.57C18.7401 2.22 18.3901 2 18.0001 2H4.00008C3.62008 2 3.27008 2.22 3.10008 2.57C2.93008 2.91 2.98008 3.32 3.22008 3.62L5.12008 6C5.56008 6.55 5.95008 6.77 6.77008 6.88V7H5.00008V9H18.0001C18.6201 9 19.0001 9.38 19.0001 10V13H21.0001V10C21.0001 8.26 19.7401 7 18.0001 7ZM5.00008 13H17.0001V11H5.00008V13ZM6.03008 20L8.58008 17H13.4201L15.9701 20H6.03008ZM4.00008 22H18.0001C18.3901 22 18.7401 21.78 18.9001 21.43C19.0701 21.09 19.0201 20.68 18.7801 20.38L16.8801 18C16.4401 17.45 16.0501 17.23 15.2301 17.12V17H17.0001V15H5.00008V17H6.77008V17.12C5.95008 17.23 5.56008 17.45 5.12008 18L3.22008 20.38C2.98008 20.68 2.93008 21.09 3.10008 21.43C3.27008 21.78 3.62008 22 4.00008 22Z" fill="white"/>
</svg>
