<svg width="24" height="24" viewBox="0 0 24 24" fill="none" xmlns="http://www.w3.org/2000/svg">
<path d="M9 13C7.32 13 6 11.7 6 10H13C13.6 10 14 9.6 14 9V4H16C18.21 4 20 5.79 20 8V10C20 11.66 18.66 13 17 13H9ZM18 20C17.45 20 17 19.55 17 19C17 18.45 17.45 18 18 18C18.55 18 19 18.45 19 19C19 19.55 18.55 20 18 20ZM7 22C8.31 22 9.42 21.17 9.83 20H15.17C15.58 21.17 16.7 22 18 22C19.66 22 21 20.66 21 19C21 17.34 19.66 16 18 16C16.7 16 15.58 16.83 15.17 18H9.83C9.42 16.83 8.31 16 7 16C5.35 16 4 17.34 4 19C4 20.66 5.35 22 7 22ZM7 20C6.45 20 6 19.55 6 19C6 18.45 6.45 18 7 18C7.55 18 8 18.45 8 19C8 19.55 7.55 20 7 20ZM9 15H17C19.76 15 22 12.76 22 10V8C22 4.69 19.32 2 16 2H13C12.45 2 12 2.45 12 3V9.33L12.67 8H7.9C6.84 8 6.22 8.53 6.12 9.43H6V8C6 5.77 4.25 4 2 4V6C3.15 6 4 6.88 4 8V10C4 12.8 6.21 15 9 15Z" fill="white"/>
</svg>
