<svg width="48" height="48" viewBox="0 0 48 48" fill="none" xmlns="http://www.w3.org/2000/svg">
<rect width="48" height="48" rx="12" fill="#2B2D33"/>
<path d="M29.5 19.6C29.1 19.1 29 18.8 29 18.3V14C29 13.5 28.5 13 28 13H20C19.5 13 19 13.5 19 14V18.3C19 18.8 18.9 19.1 18.5 19.6C17.6 20.8 17 22.3 17 24C17 25.7 17.6 27.2 18.5 28.4C18.9 28.9 19 29.2 19 29.7V34C19 34.6 19.5 35 20 35H28C28.5 35 29 34.6 29 34V29.7C29 29.2 29.1 28.9 29.5 28.4C30.5 27.2 31 25.7 31 24C31 22.3 30.4 20.8 29.5 19.6ZM21 16.7V15H27V16.7C27 17.3 27.3 17.6 27.8 18L27.7 18.1C26.6 17.4 25.4 17 24 17C22.6 17 21.4 17.4 20.3 18.1L20.2 18C20.7 17.6 21 17.2 21 16.7ZM24 19C26.8 19 29 21.2 29 24C29 26.8 26.8 29 24 29C21.2 29 19 26.8 19 24C19 21.2 21.2 19 24 19ZM27 31.3V33H21V31.3C21 30.7 20.7 30.4 20.2 30L20.3 29.9C21.4 30.6 22.6 31 24 31C25.4 31 26.6 30.6 27.7 29.9L27.8 30C27.3 30.4 27 30.8 27 31.3Z" fill="white"/>
<path d="M25.3 26.7L26.7 25.3L25 23.6V21H23V24C23 24.3 23.1 24.5 23.3 24.7L25.3 26.7Z" fill="white"/>
</svg>
