<svg width="48" height="48" viewBox="0 0 48 48" fill="none" xmlns="http://www.w3.org/2000/svg">
<rect width="48" height="48" rx="12" fill="#2B2D33"/>
<path fill-rule="evenodd" clip-rule="evenodd" d="M20.5 15C19.8 13.9 18.3 13.7 17.3 14.6L14.8 17.1C14.3 17.7 13.9 18.4 14 19.3C14.2 21.1 15 25.1 18.7 28.7C22.3 32.3 26.3 33.1 28 33.4C28.9 33.5 29.7 33.2 30.2 32.6L32.7 30.1C33.6 29.2 33.4 27.6 32.3 27L29.1 25.1C28.3 24.6 27.3 24.8 26.7 25.4L25.7 26.4C25.3 26.2 24.4 25.7 23.1 24.4C21.8 23.1 21.3 22.3 21.1 21.8L22.1 20.8C22.8 20 22.9 19 22.4 18.2L20.5 15ZM16.2 18.5L18.8 16L20.7 19.2L19.5 20.4C19.2 20.7 18.8 21.4 19.1 22.1C19.3 22.8 20 23.9 21.7 25.6C23.4 27.3 24.6 28 25.3 28.2C26 28.4 26.6 28.1 27 27.8L28.2 26.6L31.4 28.5L28.9 31C28.7 31.2 28.5 31.3 28.3 31.2C26.8 31 23.3 30.3 20.1 27.1C16.9 24.1 16.2 20.6 16 19.1C16 18.9 16 18.7 16.2 18.5Z" fill="white"/>
<path d="M25.2 20.7L29.7 16.2L29.6 16.1C28.4 16.9 27.2 16.5 26.2 15.5L27.7 14C28.6 14.9 29.9 15.3 31.4 14.5C31.9 14.3 32.3 14.4 32.6 14.7C32.9 15 33 15.4 32.8 15.9C32.1 17.4 32.4 18.7 33.3 19.6L31.9 21C30.8 19.9 30.4 18.8 31.3 17.6L31.2 17.5L26.7 22L25.2 20.7Z" fill="white"/>
</svg>
