<svg width="48" height="48" viewBox="0 0 48 48" fill="none" xmlns="http://www.w3.org/2000/svg">
<rect width="48" height="48" rx="12" fill="#2B2D33"/>
<path d="M26.6 22V21.9C27.5 21.7 28 21.2 28 20C28 18.3 26.7 17 25 17H19.3L15.6 14.2C15.3 14 14.9 13.9 14.6 14.1C14.2 14.3 14 14.6 14 15V19H16V17L18.4 18.8C18.6 18.9 18.8 19 19 19H25C25.6 19 26 19.5 26 20V22H15C14.4 22 14 22.4 14 23V33C14 33.5 14.4 34 15 34H29C29.6 34 30 33.5 30 33V30.6L32.5 31.9C32.8 32.1 33.2 32 33.5 31.9C33.8 31.7 34 31.4 34 31V24C34 23.6 33.8 23.3 33.5 23.1C33.2 22.9 32.8 22.9 32.5 23.1L30 24.4V23C30 22.4 29.6 22 29 22H26.6ZM28 24V32H16V24H28ZM30 28.3V26.6L32 25.6V29.3L30 28.3ZM25 28.5C25.8 28.5 26.5 27.8 26.5 27C26.5 26.2 25.8 25.5 25 25.5C24.2 25.5 23.5 26.2 23.5 27C23.5 27.8 24.2 28.5 25 28.5Z" fill="white"/>
</svg>
