<svg width="48" height="48" viewBox="0 0 48 48" fill="none" xmlns="http://www.w3.org/2000/svg">
<rect width="48" height="48" rx="12" fill="#2B2D33"/>
<path d="M16.6 22V21.9C17.5 21.8 18 21.2 18 20.1V19C18 18.4 18.4 18 19 18H19.2C19.6 19.2 20.7 20 22 20H24C25.7 20 27 18.7 27 17C27 15.3 25.7 14 24 14H22C20.7 14 19.6 14.8 19.2 16H19C17.3 16 16 17.3 16 19V22H15C14.4 22 14 22.4 14 23V33C14 33.5 14.4 34 15 34H29C29.6 34 30 33.5 30 33V32L32.4 33.8C33.1 34.3 34 33.8 34 33V23C34 22.2 33.1 21.7 32.4 22.2L30 23.9V23C30 22.4 29.6 22 29 22H16.6ZM22 18C21.4 18 21 17.5 21 17C21 16.5 21.4 16 22 16H24C24.6 16 25 16.5 25 17C25 17.5 24.6 18 24 18H22ZM32 31L30 29.5V26.4L32 24.9V31ZM25 28.5C25.8 28.5 26.5 27.8 26.5 27C26.5 26.2 25.8 25.5 25 25.5C24.2 25.5 23.5 26.2 23.5 27C23.5 27.8 24.2 28.5 25 28.5ZM16 32V24H28V32H16Z" fill="white"/>
</svg>
