<svg width="48" height="48" viewBox="0 0 48 48" fill="none" xmlns="http://www.w3.org/2000/svg">
<rect width="48" height="48" rx="12" fill="#2B2D33"/>
<path d="M33 14H18V16H32V28H34V15C34 14.4 33.5 14 33 14Z" fill="white"/>
<path d="M29 18H15C14.4 18 14 18.5 14 19V31C14 31.5 14.4 32 15 32H16.9C17.5 32 17.9 31.6 17.9 31H18V34C18 35 18.9 35.3 19.7 34.7L23.3 32H29C29.5 32 30 31.5 30 31V19C30 18.5 29.5 18 29 18ZM28 30H23C22.8 30 22.6 30.1 22.4 30.2L20 32V31C20 30.5 19.5 30 19 30H16V20H28V30Z" fill="white"/>
</svg>
