<svg width="48" height="48" viewBox="0 0 48 48" fill="none" xmlns="http://www.w3.org/2000/svg">
<rect width="48" height="48" rx="12" fill="#2B2D33"/>
<path d="M13.3 14.3C13.5 14.1 13.7 14 14 14H34C34.6 14 35 14.4 35 15V31C35 31.6 34.6 32 34 32H19V30H33V16H15V21H13V15C13 14.7 13.1 14.5 13.3 14.3Z" fill="white"/>
<path d="M24 24.6L21.8 26.8L20.4 25.3L22.6 23.1L21.8 22.4V20.9L21.3 20.3V21.6L20.8 22.1L19 20.3L18.5 20.7C18.5 20.4 18.6 19.3 19.4 18.5C20.3 17.6 21.3 18 21.6 18.4L23.4 20.3L23 20.7L24 21.7L25 20.7L24.5 20.2L26.3 18.3C26.6 18 27.6 17.6 28.5 18.4C29.3 19.2 29.4 20.2 29.4 20.6L29 20.3L27.2 22.2L26.7 21.7V20.3L26.2 20.8V22.3L25.4 23.1L29 26.8L27.6 28.3L24 24.6Z" fill="white"/>
<path d="M13 25H15C15 24.4 15.4 24 16 24C16.6 24 17 24.4 17 25C17 25.3 16.9 25.5 16.7 25.7L16.1 26.3C15.1 27.3 15 27.7 15 29V29.5H17V29C17 28.3 17.1 28.1 17.6 27.7L18.2 27.1C18.7 26.6 19 25.8 19 25C19 23.3 17.7 22 16 22C14.3 22 13 23.3 13 25Z" fill="white"/>
<path d="M16 33.5C16.8284 33.5 17.5 32.8284 17.5 32C17.5 31.1716 16.8284 30.5 16 30.5C15.1716 30.5 14.5 31.1716 14.5 32C14.5 32.8284 15.1716 33.5 16 33.5Z" fill="white"/>
</svg>
