<svg width="48" height="48" viewBox="0 0 48 48" fill="none" xmlns="http://www.w3.org/2000/svg">
<rect width="48" height="48" rx="12" fill="#2B2D33"/>
<path d="M18 23C18 23.5523 17.5523 24 17 24C16.4477 24 16 23.5523 16 23C16 22.4477 16.4477 22 17 22C17.5523 22 18 22.4477 18 23Z" fill="white"/>
<path d="M21 24C21.5523 24 22 23.5523 22 23C22 22.4477 21.5523 22 21 22C20.4477 22 20 22.4477 20 23C20 23.5523 20.4477 24 21 24Z" fill="white"/>
<path d="M31.5 21.25C31.5 21.9404 30.9404 22.5 30.25 22.5C29.5597 22.5 29 21.9404 29 21.25C29 20.5596 29.5597 20 30.25 20C30.9404 20 31.5 20.5596 31.5 21.25Z" fill="white"/>
<path d="M19 26C19.5523 26 20 25.5523 20 25C20 24.4477 19.5523 24 19 24C18.4477 24 18 24.4477 18 25C18 25.5523 18.4477 26 19 26Z" fill="white"/>
<path d="M28.5 23.25C28.5 23.9404 27.9404 24.5 27.25 24.5C26.5597 24.5 26 23.9404 26 23.25C26 22.5596 26.5597 22 27.25 22C27.9404 22 28.5 22.5596 28.5 23.25Z" fill="white"/>
<path d="M19 22C19.5523 22 20 21.5523 20 21C20 20.4477 19.5523 20 19 20C18.4477 20 18 20.4477 18 21C18 21.5523 18.4477 22 19 22Z" fill="white"/>
<path fill-rule="evenodd" clip-rule="evenodd" d="M13.0637 20.1489C13.8623 18.0193 15.3608 16 18 16C19.0486 16 19.8789 16.2417 20.6394 16.4631C20.7269 16.4886 20.8139 16.5139 20.8997 16.5385C21.7294 16.7755 22.6296 17 24 17C25.3704 17 26.2706 16.7755 27.1003 16.5385C27.1862 16.5139 27.2729 16.4887 27.3605 16.4632C28.1209 16.2418 28.9514 16 30 16C32.6392 16 34.1378 18.0193 34.9363 20.1489C35.7459 22.3077 36 24.9425 36 27L36 27.0264C36.0001 27.525 36.0003 28.6389 35.7115 29.6497C35.5634 30.1681 35.3169 30.7445 34.8822 31.2034C34.4194 31.6919 33.7851 32 33 32C30.721 32 29.4648 30.8725 28.4156 29.9308C28.3465 29.8688 28.2782 29.8075 28.2106 29.7474C27.6571 29.2553 27.1487 28.8343 26.5133 28.5231C25.8925 28.219 25.1066 28 24 28C22.8935 28 22.1076 28.219 21.4867 28.5231C20.8514 28.8343 20.343 29.2553 19.7894 29.7474C19.7218 29.8075 19.6535 29.8688 19.5844 29.9308C18.5353 30.8725 17.279 32 15 32C14.215 32 13.5806 31.6919 13.1178 31.2034C12.6831 30.7445 12.4366 30.1681 12.2885 29.6497C11.9997 28.6389 11.9999 27.525 12 27.0264L12 27C12 24.9425 12.2541 22.3077 13.0637 20.1489ZM14.9363 20.8511C14.2459 22.6923 14 25.0575 14 27C14 27.5153 14.0055 28.3793 14.2115 29.1003C14.3134 29.4569 14.4419 29.693 14.5697 29.8279C14.6694 29.9331 14.7851 30 15 30C16.5005 30 17.2363 29.344 18.3078 28.3887L18.4606 28.2526C19.0321 27.7447 19.7112 27.1657 20.607 26.7269C21.5175 26.281 22.6066 26 24 26C25.3935 26 26.4826 26.281 27.393 26.7269C28.2889 27.1657 28.968 27.7447 29.5394 28.2526L29.6922 28.3887C30.7637 29.344 31.4995 30 33 30C33.215 30 33.3306 29.9331 33.4303 29.8279C33.5581 29.693 33.6866 29.4569 33.7885 29.1003C33.9945 28.3793 34 27.5153 34 27C34 25.0575 33.7541 22.6923 33.0637 20.8511C32.3623 18.9807 31.3608 18 30 18C29.2494 18 28.6854 18.1628 27.9063 18.3877C27.8234 18.4117 27.738 18.4363 27.6497 18.4615C26.7294 18.7245 25.6296 19 24 19C22.3704 19 21.2706 18.7245 20.3503 18.4615C20.2621 18.4363 20.1769 18.4117 20.0941 18.3878C19.315 18.1629 18.7506 18 18 18C16.6392 18 15.6378 18.9807 14.9363 20.8511Z" fill="white"/>
</svg>
