<svg width="48" height="48" viewBox="0 0 48 48" fill="none" xmlns="http://www.w3.org/2000/svg">
<rect width="48" height="48" rx="12" fill="#2B2D33"/>
<path fill-rule="evenodd" clip-rule="evenodd" d="M23 19V23H22V25H23C24.1046 25 25 24.1046 25 23V19H23ZM28 19V22H30V19H28ZM18 22V19H20V22H18ZM26.7998 26.7859C26.0773 27.4942 25.0904 27.9293 23.9998 27.9293C22.9093 27.9293 21.9224 27.4942 21.1999 26.7859L19.7998 28.2141C20.881 29.274 22.3649 29.9293 23.9998 29.9293C25.6348 29.9293 27.1187 29.274 28.1999 28.2141L26.7998 26.7859Z" fill="white"/>
<path fill-rule="evenodd" clip-rule="evenodd" d="M16 17C16 16.4477 16.4477 16 17 16H19V14H17C15.3431 14 14 15.3431 14 17V19H16V17ZM32 31C32 31.5523 31.5523 32 31 32H29V34H31C32.6569 34 34 32.6569 34 31V29H32V31ZM31 16C31.5523 16 32 16.4477 32 17V19H34V17C34 15.3431 32.6569 14 31 14H29V16H31ZM16 31C16 31.5523 16.4477 32 17 32H19V34H17C15.3431 34 14 32.6569 14 31V29H16V31Z" fill="white"/>
</svg>
