<svg width="48" height="48" viewBox="0 0 48 48" fill="none" xmlns="http://www.w3.org/2000/svg">
<rect width="48" height="48" rx="12" fill="#2B2D33"/>
<path d="M33 21C33 18.2 30.8 16 28 16C26.7 16 25.6 16.5 24.7 17.3C24 15.4 22.2 14 20 14C17.2 14 15 16.2 15 19C15 21.4 16.7 23.4 19 23.9V31C19 31.5 19.5 32 20 32H23V33C23 33.5 23.5 34 24 34H28C28.6 34 29 33.5 29 33V25.9C31.3 25.4 33 23.4 33 21ZM21 30V20H19V23.1H18.9C18.8 22.2 18.7 21.8 18 21.2C17.4 20.6 17 19.9 17 19C17 17.3 18.3 16 20 16C21.7 16 23 17.3 23 19V30H21ZM30.1 23.2C29.4 23.8 29.2 24.2 29.2 25.1H29V22H27V32H25V21C25 19.3 26.3 18 28 18C29.7 18 31 19.3 31 21C31 21.9 30.6 22.6 30.1 23.2Z" fill="white"/>
</svg>
