<svg width="48" height="48" viewBox="0 0 48 48" fill="none" xmlns="http://www.w3.org/2000/svg">
<rect width="48" height="48" rx="12" fill="#2B2D33"/>
<path d="M28 19C27.4 19 27 18.6 27 18C27 17.4 27.4 17 28 17C28.6 17 29 17.4 29 18C29 18.6 28.6 19 28 19ZM20 17C19.5 17 19 16.5 19 16C19 15.5 19.5 15 20 15C20.5 15 21 15.5 21 16C21 16.5 20.5 17 20 17ZM21 22H23V16C23 14.3 21.7 13 20 13C18.3 13 17 14.3 17 16C17 17.7 18.3 19 20 19C20.3 19 20.7 18.9 21 18.8V22ZM24 30.5C24.8 30.5 25.5 29.8 25.5 29C25.5 28.2 24.8 27.5 24 27.5C23.2 27.5 22.5 28.2 22.5 29C22.5 29.8 23.2 30.5 24 30.5ZM20 32C19.5 32 19 31.5 19 31V26H29V31C29 31.5 28.6 32 28 32H20ZM20 34H28C29.7 34 31 32.7 31 31V22H29V24H25.8V23.9C26.6 23.7 27 23.1 27 22.2V20.8C27.3 20.9 27.6 21 28 21C29.7 21 31 19.7 31 18C31 16.3 29.7 15 28 15C26.3 15 25 16.3 25 18V24H19V22H17V31C17 32.7 18.3 34 20 34Z" fill="white"/>
</svg>
