<svg width="48" height="48" viewBox="0 0 48 48" fill="none" xmlns="http://www.w3.org/2000/svg">
<rect width="48" height="48" rx="12" fill="#2B2D33"/>
<path d="M18.1981 18.18C16.3594 18.9587 14.6902 20.0996 13.2852 21.5363L14.715 22.9347C15.9364 21.6857 17.3852 20.6963 18.9781 20.0216C20.571 19.3469 22.2774 19 24.0001 19C25.7228 19 27.4292 19.3469 29.0221 20.0216C30.6149 20.6963 32.0638 21.6857 33.2852 22.9347L34.715 21.5363C33.31 20.0996 31.6408 18.9587 29.8021 18.18C27.9633 17.4012 25.9917 17 24.0001 17C22.0085 17 20.0369 17.4012 18.1981 18.18Z" fill="white"/>
<path d="M19.7444 21.9971C18.3959 22.5682 17.1721 23.4048 16.1423 24.4578L17.5722 25.8562C18.4184 24.9909 19.4218 24.3058 20.5244 23.8387C21.627 23.3717 22.808 23.1317 24.0001 23.1317C25.1922 23.1317 26.3732 23.3717 27.4758 23.8387C28.5784 24.3058 29.5818 24.9909 30.428 25.8562L31.8579 24.4578C30.8281 23.4048 29.6043 22.5682 28.2558 21.9971C26.9073 21.4259 25.4611 21.1317 24.0001 21.1317C22.5391 21.1317 21.0929 21.4259 19.7444 21.9971Z" fill="white"/>
<path d="M21.2907 25.8142C20.4324 26.1778 19.6541 26.7099 18.9994 27.3793L20.4293 28.7777C20.9003 28.2961 21.4583 27.9153 22.0707 27.6559C22.6831 27.3965 23.3386 27.2633 24.0001 27.2633C24.6616 27.2633 25.3171 27.3965 25.9295 27.6559C26.5419 27.9153 27.0999 28.2961 27.5709 28.7777L29.0007 27.3793C28.3461 26.7099 27.5678 26.1778 26.7095 25.8142C25.8512 25.4507 24.9305 25.2633 24.0001 25.2633C23.0697 25.2633 22.149 25.4507 21.2907 25.8142Z" fill="white"/>
<path d="M24.0001 33C25.1047 33 26.0001 32.1046 26.0001 31C26.0001 29.8954 25.1047 29 24.0001 29C22.8955 29 22.0001 29.8954 22.0001 31C22.0001 32.1046 22.8955 33 24.0001 33Z" fill="white"/>
</svg>
