<svg width="48" height="48" viewBox="0 0 48 48" fill="none" xmlns="http://www.w3.org/2000/svg">
<rect width="48" height="48" rx="12" fill="#2B2D33"/>
<path d="M27 25H30V23H27V25ZM28 29H30V27H28V29ZM24 25H26V23H24V25ZM16 31V23C16 22.1 15.4 21.4 14.7 21.1V21H32V29C32 29.9 32.6 30.6 33.3 30.9V31H16ZM21 25H23V23H21V25ZM21 29H27V27H21V29ZM18 25H20V23H18V25ZM18 29H20V27H18V29ZM15 33H33C33.6 33 34 32.5 34 32V20C34 19.4 33.6 19 33 19H20V18C20 17.4 20.4 17 21 17H22C23.7 17 25 15.7 25 14V13H23V14C23 14.5 22.6 15 22 15H21C19.3 15 18 16.3 18 18V19H15C14.4 19 14 19.4 14 20V32C14 32.5 14.4 33 15 33Z" fill="white"/>
</svg>
