<svg width="48" height="48" viewBox="0 0 48 48" fill="none" xmlns="http://www.w3.org/2000/svg">
<rect width="48" height="48" rx="12" fill="#2B2D33"/>
<path d="M24 27C26.2 27 28 25.2 28 23V17C28 14.8 26.2 13 24 13C21.8 13 20 14.8 20 17V23C20 25.2 21.8 27 24 27ZM22 17C22 15.9 22.9 15 24 15C25.1 15 26 15.9 26 17V23C26 24.1 25.1 25 24 25C22.9 25 22 24.1 22 23V17Z" fill="white"/>
<path d="M30 20V23C30 26.3 27.3 29 24 29C20.7 29 18 26.3 18 23V20H16V23C16 26.7 18.6 29.9 22 30.8C22.7 31 23 31.3 23 32V33H20V35H28V33H25V32.1C25 31.5 24.7 31.1 24 31.1V31C28.4 31 32 27.4 32 23V20H30Z" fill="white"/>
</svg>
