<svg width="48" height="48" viewBox="0 0 48 48" fill="none" xmlns="http://www.w3.org/2000/svg">
<rect width="48" height="48" rx="12" fill="#2B2D33"/>
<path d="M21 35H31C32.1 35 33 34.1 33 33V19C33 17.9 32.1 17 31 17H21C19.9 17 19 17.9 19 19V33C19 34.1 19.9 35 21 35ZM21 33V20.9C21 19.8 20.5 19.3 19.6 19.1V19H31V33H21ZM26 31.5C26.8 31.5 27.5 30.8 27.5 30C27.5 29.2 26.8 28.5 26 28.5C25.2 28.5 24.5 29.2 24.5 30C24.5 30.8 25.2 31.5 26 31.5ZM15 31H17V16.9C17 15.8 16.5 15.3 15.6 15.1V15H29V13H17C15.9 13 15 13.9 15 15V31Z" fill="white"/>
</svg>
