<svg width="48" height="48" viewBox="0 0 48 48" fill="none" xmlns="http://www.w3.org/2000/svg">
<rect width="48" height="48" rx="12" fill="#2B2D33"/>
<path d="M22 30.5C22.8 30.5 23.5 29.8 23.5 29C23.5 28.2 22.8 27.5 22 27.5C21.2 27.5 20.5 28.2 20.5 29C20.5 29.8 21.2 30.5 22 30.5ZM15.6 16H26V14H17C15.9 14 15 14.9 15 16V32C15 33.1 15.9 34 17 34H27C28.1 34 29 33.1 29 32V27H27V32H17V17.9C17 16.8 16.5 16.3 15.6 16.1V16Z" fill="white"/>
<path fill-rule="evenodd" clip-rule="evenodd" d="M27.2 23.2L32.7 17.7L31.3 16.3L26.5 21.1L24.7 19.3L23.3 20.7L25.8 23.2C26.2 23.6 26.8 23.6 27.2 23.2Z" fill="white"/>
</svg>
