<svg width="48" height="48" viewBox="0 0 48 48" fill="none" xmlns="http://www.w3.org/2000/svg">
<rect width="48" height="48" rx="12" fill="#2B2D33"/>
<path fill-rule="evenodd" clip-rule="evenodd" d="M17 16C16.4477 16 16 16.4477 16 17V31C16 31.5523 16.4477 32 17 32H22C22.5523 32 23 31.5523 23 31V17C23 16.4477 22.5523 16 22 16H17ZM18 30V18H21V30H18Z" fill="white"/>
<path fill-rule="evenodd" clip-rule="evenodd" d="M26 16C25.4477 16 25 16.4477 25 17V31C25 31.5523 25.4477 32 26 32H31C31.5523 32 32 31.5523 32 31V17C32 16.4477 31.5523 16 31 16H26ZM27 30V18H30V30H27Z" fill="white"/>
</svg>
