<svg width="48" height="48" viewBox="0 0 48 48" fill="none" xmlns="http://www.w3.org/2000/svg">
<rect width="48" height="48" rx="12" fill="#2B2D33"/>
<path fill-rule="evenodd" clip-rule="evenodd" d="M17.6728 14.9188C18.5929 13.9987 20.1326 14.1883 20.802 15.304L22.7414 18.5362C23.2135 19.3232 23.0895 20.3305 22.4406 20.9794L21.4142 22.0058C21.624 22.4359 22.1502 23.2659 23.445 24.5607C24.7399 25.8556 25.5699 26.3818 26 26.5916L27.0264 25.5652C27.6753 24.9163 28.6826 24.7923 29.4696 25.2644L32.7018 27.2038C33.8175 27.8732 34.0071 29.4129 33.087 30.333L30.5785 32.8416C30.022 33.398 29.2186 33.7572 28.3381 33.6475C26.5913 33.43 22.6451 32.551 19.0237 28.995C15.3681 25.4054 14.5325 21.3864 14.3421 19.6336C14.2481 18.7674 14.6068 17.9848 15.1511 17.4405L17.6728 14.9188ZM19.087 16.333L16.5653 18.8547C16.375 19.045 16.3123 19.2512 16.3304 19.4177C16.4908 20.8945 17.2103 24.4113 20.425 27.5679C23.6322 30.7172 27.1085 31.479 28.5852 31.6629C28.7574 31.6843 28.9705 31.6211 29.1642 31.4273L31.6728 28.9188L28.4406 26.9794L27.2623 28.1577C26.9231 28.4969 26.3039 28.8323 25.5879 28.5845C24.8943 28.3443 23.7523 27.6965 22.0308 25.975C20.3093 24.2534 19.6615 23.1115 19.4213 22.4178C19.1735 21.7019 19.5089 21.0827 19.8481 20.7435L21.0264 19.5652L19.087 16.333Z" fill="white"/>
</svg>
