<svg width="48" height="48" viewBox="0 0 48 48" fill="none" xmlns="http://www.w3.org/2000/svg">
<rect width="48" height="48" rx="12" fill="#2B2D33"/>
<path d="M28 17C28 18 28.5 18.6 29.3 18.9V19H18.7V18.9C19.5 18.6 20 18 20 17H28ZM31 19C30.4 19 30 18.6 30 18V16C30 15.4 29.5 15 29 15H19C18.5 15 18 15.4 18 16V18C18 18.6 17.6 19 17 19H16C14.9 19 14 19.9 14 21V32C14 32.5 14.4 33 15 33H33C33.5 33 34 32.5 34 32V21C34 19.9 33.1 19 32 19H31ZM16 31V21H32V31H29V28C29 27.4 28.6 27 28 27H20C19.4 27 19 27.4 19 28V31H16ZM19 25.5C19.8 25.5 20.5 24.8 20.5 24C20.5 23.2 19.8 22.5 19 22.5C18.2 22.5 17.5 23.2 17.5 24C17.5 24.8 18.2 25.5 19 25.5ZM21 31V29H27V31H21Z" fill="white"/>
</svg>
