<svg width="48" height="48" viewBox="0 0 48 48" fill="none" xmlns="http://www.w3.org/2000/svg">
<rect width="48" height="48" rx="12" fill="#2B2D33"/>
<path d="M23.5 24.1C24.3 24.4 25.1 24.3 25.6 23.7L26.6 22.7L25.2 21.3L23.7 22.9C23.3 23.3 22.7 23.3 22.3 22.9L18.1 18.6C17.7 18.2 17.1 18.2 16.7 18.6C13.2 22.1 13.2 27.8 16.7 31.3C20.2 34.8 25.9 34.8 29.4 31.3C29.8 30.9 29.8 30.3 29.4 29.9L23.5 24.1ZM17.4 20.8L27.2 30.6C24.5 32.6 20.5 32.4 18.1 29.9C15.6 27.4 15.3 23.6 17.4 20.8ZM26 16C27.5 16 29.1 16.6 30.2 17.8C31.3 19 32 20.4 32 22H34C34 20 33.2 17.9 31.7 16.4C30.1 14.8 28.1 14 26 14V16ZM26 20C26.5 20 27 20.2 27.4 20.6C27.8 21 28 21.5 28 22H30C30 21 29.6 20 28.8 19.2C28.1 18.4 27 18 26 18V20Z" fill="white"/>
</svg>
