<svg width="48" height="48" viewBox="0 0 48 48" fill="none" xmlns="http://www.w3.org/2000/svg">
<rect width="48" height="48" rx="12" fill="#2B2D33"/>
<path d="M32.8 21.8C33.6 21.1 34 20.1 34 19C34 17.9 33.6 16.9 32.8 16.2C32 15.5 31.1 15 30 15C28.9 15 27.9 15.4 27.2 16.2L28.6 17.6C29 17.2 29.5 17 30 17C30.5 17 31 17.2 31.4 17.6C31.8 18 32 18.5 32 19C32 19.5 31.8 20 31.4 20.4L32.8 21.8ZM30.1 29.7C29.7 29.6 29.1 29.5 28.4 29.1C27 28.4 25.2 27.1 23.5 25.4C21.9 23.7 20.6 22 19.9 20.6C19.5 19.8 19.3 19.3 19.3 18.8C19.3 18.6 19.3 18.5 19.3 18.4V18.3C19.3 18.3 19.3 18.3 19.4 18.3C19.5 18.3 19.6 18.3 19.8 18.3C20.2 18.3 20.8 18.5 21.5 18.9C22.7 19.5 24.2 20.5 25.6 21.9L24.3 23.3L25.7 24.7L27.1 23.3C28.5 24.8 29.5 26.2 30.1 27.4C30.5 28.1 30.6 28.7 30.7 29.1C30.7 29.3 30.7 29.4 30.7 29.5V29.6C30.7 29.6 30.7 29.6 30.6 29.6C30.5 29.7 30.4 29.7 30.1 29.7ZM25 32C22.9 32 20.8 31.2 19.3 29.7C17.8 28.2 17 26.1 17 24C17 22.8 17.3 21.7 17.7 20.6C17.8 20.9 18 21.2 18.1 21.4C18.9 23.1 20.4 25 22.2 26.8C24 28.6 25.9 30 27.6 30.9C27.9 31 28.1 31.2 28.4 31.3C27.3 31.7 26.2 32 25 32ZM27.6 22.8L29.9 20.5L28.5 19.1L27.1 20.5C25.5 19 23.9 17.8 22.4 17.1C21.6 16.7 20.8 16.4 20.1 16.3C19.4 16.2 18.6 16.3 18 16.9C16 18.8 15 21.3 15 24C15 26.7 16 29.2 17.9 31.1C19.8 33 22.3 34 25 34C27.7 34 30.2 33 32.1 31.1C32.7 30.5 32.8 29.7 32.7 29C32.6 28.3 32.3 27.5 31.9 26.6C31.3 25.5 30.5 24.2 29.6 23.2C29.1 22.5 28.4 22.5 27.6 22.8Z" fill="white"/>
</svg>
