<svg width="48" height="48" viewBox="0 0 48 48" fill="none" xmlns="http://www.w3.org/2000/svg">
<rect width="48" height="48" rx="12" fill="#2B2D33"/>
<path d="M15 18V20H21V20.1C19.5 20.4 19 21.5 19 23H21C21 21.7 21.7 20.5 23.3 20C23.8 19.8 24 19.5 24 19C24 18.5 23.8 18.2 23.3 18C21.7 17.5 21 16.3 21 15H19C19 16.5 19.5 17.5 21 17.9V18H15ZM26 30.5C26.8 30.5 27.5 29.8 27.5 29C27.5 28.2 26.8 27.5 26 27.5C25.2 27.5 24.5 28.2 24.5 29C24.5 29.8 25.2 30.5 26 30.5ZM31 16H24V14H31C32.1 14 33 14.9 33 16V32C33 33.1 32.1 34 31 34H21C19.9 34 19 33.1 19 32V25H21V32H31V16Z" fill="white"/>
</svg>
