<svg width="24" height="24" viewBox="0 0 24 24" fill="none" xmlns="http://www.w3.org/2000/svg">
<path d="M12.31 13.72C13.51 13.72 14.74 13.4 15.97 12.78L17.61 14.42L19.03 13L17.72 11.69C18.85 10.84 19.98 9.72 21.11 8.31C21.27 8.11 21.36 7.91 21.36 7.71C21.36 7.51 21.27 7.31 21.11 7.11C18.17 3.43 15.19 1.69 12.31 1.69C11.11 1.69 9.9 2.02 8.69 2.66L7.03 1L5.61 2.42L6.94 3.75C5.82 4.61 4.67 5.72 3.51 7.11C3.35 7.31 3.26 7.51 3.26 7.71C3.26 7.91 3.35 8.11 3.51 8.31C6.54 11.92 9.43 13.72 12.31 13.72ZM12.31 3.7C14.2 3.7 16.09 4.78 18.26 6.9C18.64 7.27 19.02 7.5 19.66 7.65V7.77C19.02 7.92 18.64 8.14 18.26 8.52C17.57 9.21 16.91 9.77 16.26 10.23L10.18 4.15C10.9 3.85 11.6 3.7 12.31 3.7ZM4.96 7.65C5.6 7.5 5.98 7.27 6.36 6.9C7.06 6.21 7.72 5.65 8.37 5.18L14.45 11.26C13.72 11.56 13.01 11.7 12.3 11.7C10.41 11.7 8.51 10.64 6.35 8.51C5.97 8.13 5.59 7.91 4.95 7.76V7.65H4.96Z" fill="white"/>
<path d="M21.19 19.17L21.22 19.06C21.51 19.13 21.8 19.22 22.14 19.22C22.32 19.22 22.51 19.19 22.73 19.12L23.64 18.82L23.01 16.93L22.09 17.23C21.47 17.43 21.22 17.81 20.91 18.15L20.82 18.08C21.05 17.69 21.32 17.34 21.32 16.71V15.71H19.32V16.71C19.32 17.34 19.59 17.69 19.82 18.08L19.73 18.15C19.42 17.81 19.17 17.43 18.55 17.23L17.63 16.93L17 18.82L17.92 19.12C18.14 19.19 18.33 19.22 18.51 19.22C18.84 19.22 19.12 19.13 19.41 19.07L19.44 19.18C19.03 19.37 18.61 19.48 18.24 19.99L17.63 20.82L19.24 22.02L19.86 21.17C20.22 20.68 20.21 20.25 20.26 19.8H20.37C20.42 20.25 20.4 20.69 20.78 21.21L21.37 22.02L22.99 20.84L22.4 19.98C22.05 19.47 21.61 19.36 21.19 19.17Z" fill="white"/>
<path d="M6.14 19.22C6.32 19.22 6.51 19.19 6.73 19.12L7.64 18.82L7.01 16.93L6.09 17.23C5.47 17.43 5.22 17.81 4.91 18.15L4.82 18.08C5.05 17.69 5.32 17.34 5.32 16.71V15.71H3.32V16.71C3.32 17.34 3.59 17.69 3.82 18.08L3.73 18.15C3.42 17.81 3.17 17.43 2.55 17.23L1.63 16.93L1 18.82L1.92 19.12C2.14 19.19 2.33 19.22 2.51 19.22C2.84 19.22 3.12 19.13 3.41 19.07L3.44 19.18C3.03 19.37 2.61 19.48 2.24 19.99L1.63 20.82L3.24 22.02L3.86 21.17C4.22 20.68 4.21 20.25 4.26 19.8H4.37C4.42 20.25 4.4 20.69 4.78 21.21L5.37 22.02L6.99 20.84L6.4 19.98C6.05 19.47 5.61 19.36 5.19 19.17L5.22 19.06C5.51 19.13 5.8 19.22 6.14 19.22Z" fill="white"/>
<path d="M14.14 19.22C14.32 19.22 14.51 19.19 14.73 19.12L15.64 18.82L15.01 16.93L14.09 17.23C13.47 17.43 13.22 17.81 12.91 18.15L12.82 18.08C13.05 17.69 13.32 17.34 13.32 16.71V15.71H11.32V16.71C11.32 17.34 11.59 17.69 11.82 18.08L11.73 18.15C11.42 17.81 11.17 17.43 10.55 17.23L9.63 16.93L9 18.82L9.92 19.12C10.14 19.19 10.33 19.22 10.51 19.22C10.84 19.22 11.12 19.13 11.41 19.07L11.44 19.18C11.03 19.37 10.61 19.48 10.24 19.99L9.63 20.82L11.24 22.02L11.86 21.17C12.22 20.68 12.21 20.25 12.26 19.8H12.37C12.42 20.25 12.4 20.69 12.78 21.21L13.37 22.02L14.99 20.84L14.4 19.98C14.05 19.47 13.61 19.36 13.19 19.17L13.22 19.06C13.51 19.13 13.8 19.22 14.14 19.22Z" fill="white"/>
</svg>
