<svg width="24" height="24" viewBox="0 0 24 24" fill="none" xmlns="http://www.w3.org/2000/svg">
<path d="M21.8001 12.3C22.1001 11.9 22.1001 11.4 21.8001 11.1C18.6001 6.9 15.3001 4.7 12.0001 4.7C10.5001 4.7 9.1001 5.1 7.7001 6L5.7001 4L4.3001 5.4L6.0001 7.1C4.7001 8.1 3.5001 9.4 2.2001 11.1C1.9001 11.5 1.9001 12 2.2001 12.3C5.4001 16.5 8.7001 18.7 12.0001 18.7C13.5001 18.7 14.9001 18.3 16.3001 17.4L18.3001 19.4L19.7001 18L18.0001 16.3C19.3001 15.3 20.5001 14 21.8001 12.3ZM12.0001 16.7C9.8001 16.7 7.5001 15.4 5.1001 12.7C4.5001 12.1 4.1001 11.9 3.1001 11.7V11.6C4.1001 11.5 4.5001 11.3 5.1001 10.6C5.9001 9.7 6.6001 9 7.4001 8.4L14.8001 15.8C13.9001 16.4 12.9001 16.7 12.0001 16.7ZM18.9001 12.7C18.1001 13.6 17.4001 14.3 16.6001 14.9L9.1001 7.4C10.1001 7 11.1001 6.7 12.0001 6.7C14.2001 6.7 16.5001 8 18.9001 10.7C19.5001 11.3 19.9001 11.5 20.9001 11.7V11.8C19.9001 11.9 19.4001 12.1 18.9001 12.7Z" fill="white"/>
</svg>
