<svg width="25" height="24" viewBox="0 0 25 24" fill="none" xmlns="http://www.w3.org/2000/svg">
<path d="M7.89951 16H10.3995L7.89951 13C7.29951 12.3 6.89951 12.1 5.99951 12V11.9C6.89951 11.8 7.39951 11.6 7.89951 10.9L10.3995 7.9H7.89951L4.99951 11.4V8H2.99951V16H4.99951V12.6L7.89951 16Z" fill="white"/>
<path d="M11.9995 14V16H17.9995V14H15.9995V8H13.9995L11.9995 9V11L13.9995 10V14H11.9995Z" fill="white"/>
<path d="M12.9995 2C10.2995 2 7.79951 3.1 5.89951 4.9L7.29951 6.3C8.79951 4.8 10.7995 4 12.9995 4C17.3995 4 20.9995 7.6 20.9995 12C20.9995 16.4 17.3995 20 12.9995 20C10.8995 20 8.79951 19.1 7.29951 17.7L5.89951 19.1C7.79951 20.9 10.2995 22 12.9995 22C18.4995 22 22.9995 17.5 22.9995 12C22.9995 6.5 18.4995 2 12.9995 2Z" fill="white"/>
</svg>
