<svg width="24" height="24" viewBox="0 0 24 24" fill="none" xmlns="http://www.w3.org/2000/svg">
<path d="M13 4H17V2H13V4ZM7 4H11V2H7V4ZM5.6 12C5.7 10.5 6.4 8 7 8H17C17.6 8 18.3 10.6 18.4 12H5.6ZM4 21V16.3H4.1C4.2 17.1 4.4 17.6 5.4 17.8L6.1 17.9C6.7 18 7.2 17.8 7.4 17.3C7.6 16.8 7.3 16.2 6.8 16L4 15.3C4 14.8 4.4 14.4 4.8 14H19.1C19.5 14.4 19.9 14.8 19.9 15.3L17.2 16.1C16.7 16.2 16.4 16.8 16.6 17.4C16.8 17.9 17.3 18.1 17.9 18L18.6 17.9C19.6 17.7 19.8 17.2 19.9 16.4H20V21H18V19H6V21H4ZM3 23H7C7.6 23 8 22.5 8 22V19.6H8.1C8.2 20.5 8.8 21 9.9 21H14.1C15.2 21 15.7 20.5 15.9 19.6H16V22C16 22.5 16.4 23 17 23H21C21.5 23 22 22.5 22 22V15.3C22 14.2 21.4 13.2 20.5 12.5C20.3 9.4 19.3 6 17 6H7C4.7 6 3.7 9.6 3.5 12.5C2.6 13.3 2 14.3 2 15.3V22C2 22.5 2.4 23 3 23Z" fill="white"/>
</svg>
