<svg width="26" height="24" viewBox="0 0 26 24" fill="none" xmlns="http://www.w3.org/2000/svg">
<path d="M12.9999 9C13.7999 9 14.4999 8.3 14.4999 7.5C14.4999 6.7 13.7999 6 12.9999 6C12.1999 6 11.4999 6.7 11.4999 7.5C11.4999 8.3 12.1999 9 12.9999 9ZM4.8999 12.1C4.8999 11.1 4.7999 10.8 4.1999 10.2L3.2999 9.5C4.5999 7.6 8.2999 3 12.9999 3C17.6999 3 21.3999 7.6 22.6999 9.5L21.7999 10.3C21.1999 10.9 21.0999 11.2 21.0999 12.2H20.9999C20.9999 11.5 20.8999 11.3 20.0999 11C18.2999 10.3 14.8999 9.8 12.9999 9.8C11.0999 9.8 7.6999 10.2 5.8999 10.9C5.0999 11.2 4.9999 11.4 4.9999 12.1H4.8999ZM12.9999 15C9.7999 15 7.8999 14.6 6.9999 14.3V12.7C8.0999 12.4 10.4999 11.7 12.9999 11.7C15.4999 11.7 17.8999 12.3 18.9999 12.7V14.3C18.0999 14.6 16.1999 15 12.9999 15ZM12.9999 21C9.1999 21 7.3999 18.5 6.9999 17.8V16.4C8.1999 16.7 10.0999 17 12.9999 17C15.8999 17 17.7999 16.7 18.9999 16.4V17.8C18.4999 18.5 16.6999 21 12.9999 21ZM12.9999 23C18.5999 23 20.7999 18.6 20.8999 18.4C20.9999 18.3 20.9999 18.1 20.9999 17.7V13.7L24.6999 10.4C24.9999 10.1 25.0999 9.6 24.8999 9.2C24.0999 7.6 19.3999 1 12.9999 1C6.5999 1 1.8999 7.6 1.0999 9.2C0.899901 9.6 0.999901 10.2 1.2999 10.5L4.9999 13.7V17.7C4.9999 18.1 4.9999 18.2 5.0999 18.4C5.1999 18.6 7.3999 23 12.9999 23Z" fill="white"/>
</svg>
