<svg width="24" height="24" viewBox="0 0 24 24" fill="none" xmlns="http://www.w3.org/2000/svg">
<path d="M13.8 15C14.1 15 14.3 14.8 14.3 14.5C14.3 14.4 14.3 14.4 14.3 14.3L13.7 12.3C13.7 12.3 13.7 12.2 13.7 12.1C13.7 12 13.8 11.8 13.9 11.7L15.5 10.5C15.6 10.4 15.7 10.3 15.7 10.1C15.7 9.8 15.5 9.6 15.2 9.6H13.2C13 9.6 12.8 9.5 12.7 9.3L12.1 7.4C12.1 7.1 11.9 7 11.7 7C11.5 7 11.3 7.1 11.2 7.4L10.6 9.3C10.5 9.5 10.3 9.6 10.1 9.6H8.1C7.8 9.6 7.6 9.8 7.6 10.1C7.6 10.2 7.7 10.4 7.8 10.5L9.4 11.7C9.5 11.8 9.6 11.9 9.6 12.1V12.2L9 14.2C9 14.3 9 14.3 9 14.4C9 14.8 9.2 15 9.5 15C9.6 15 9.7 15 9.8 14.9L11.3 13.7C11.4 13.6 11.5 13.6 11.6 13.6C11.7 13.6 11.8 13.6 11.9 13.7L13.4 14.9C13.6 14.9 13.7 15 13.8 15ZM11.6 20.9C11.6 20.1 11.3 19.6 10.4 19.3C9.8 19.1 9 18.7 8.2 18.2C6.2 17 4.7 15.3 4.7 12.9C4.7 11.7 5.7 11.2 5.7 8.8C5.7 7.2 4.9 5.8 4.4 5L5.2 4.2C6 4.5 7.6 4.8 8.6 4.8C9.9 4.8 10.9 4.5 11.6 4.2C12.3 4.5 13.3 4.8 14.6 4.8C15.7 4.8 17.2 4.5 18.1 4.2L19 5C18.4 5.9 17.7 7.3 17.7 8.8C17.7 11.2 18.7 11.6 18.7 12.9C18.7 15.3 17.1 17 15.2 18.2C14.4 18.7 13.6 19 13 19.3C12.2 19.6 11.9 20.1 11.8 20.9H11.6ZM11.6 21.8C13.4 21.3 14.6 20.8 16.1 19.9C18.3 18.5 20.6 16.3 20.6 12.9C20.6 11 19.6 10.7 19.6 8.8C19.6 6.6 21.2 5.7 21.2 4.8C21.2 4.6 21.1 4.3 20.9 4.1L19 2.2C18.9 2.1 18.7 2 18.4 2C18.3 2 18.2 2 18 2.1C16.7 2.6 15.8 2.8 14.6 2.8C12.7 2.8 12.2 2 11.6 2C11 2 10.5 2.8 8.6 2.8C7.4 2.8 6.5 2.5 5.2 2.1C5.1 2 5 2 4.9 2C4.6 2 4.3 2.1 4.2 2.3L2.3 4.2C2.1 4.3 2 4.6 2 4.8C2 5.7 3.6 6.5 3.6 8.8C3.6 10.7 2.6 11 2.6 12.9C2.6 16.3 4.8 18.5 7.1 19.9C8.6 20.8 9.9 21.3 11.6 21.8Z" fill="white"/>
</svg>
