<svg width="48" height="48" viewBox="0 0 48 48" fill="none" xmlns="http://www.w3.org/2000/svg">
<rect width="48" height="48" rx="12" fill="#FEE600"/>
<path d="M32.7211 18.9699C32.3711 18.3899 31.9611 17.8499 31.5011 17.3599L31.5711 17.2899C31.9611 16.8999 32.5911 16.8999 32.9811 17.2899C33.3711 17.6799 33.3711 18.3199 32.9811 18.7099L32.7211 18.9699ZM28.6811 23.9199C29.3711 23.9199 29.9311 23.3599 29.9311 22.6699C29.9311 21.9799 29.3711 21.4199 28.6811 21.4199C27.9911 21.4199 27.4311 21.9799 27.4311 22.6699C27.4311 23.3599 27.9811 23.9199 28.6811 23.9199ZM20.7611 31.5399C17.8211 29.7999 16.1811 27.2599 16.1811 24.1699C16.1811 21.7899 17.2211 19.6499 18.8711 18.1799C19.6211 17.5199 20.7611 17.3699 21.9911 17.6699L22.5211 17.7999C23.6011 18.0599 24.7311 18.0599 25.8211 17.7999L26.3511 17.6699C27.5911 17.3699 28.7311 17.5199 29.4811 18.1799C31.1311 19.6499 32.1711 21.7899 32.1711 24.1699C32.1711 27.2599 30.5311 29.7999 27.5911 31.5399L27.5211 31.4499C28.7311 30.3099 28.8511 29.7799 28.7211 28.5699L28.4611 26.0599C28.2411 23.8499 26.3911 22.1699 24.1711 22.1699C21.9511 22.1699 20.1011 23.8499 19.8811 26.0599L19.6211 28.5699C19.4911 29.7799 19.6111 30.3099 20.8211 31.4499L20.7611 31.5399ZM15.6111 19.0099L15.3011 18.7099C14.9011 18.3199 14.9011 17.6799 15.3011 17.2899C15.7011 16.8999 16.3211 16.8999 16.7111 17.2899L16.8211 17.3999C16.3711 17.8899 15.9511 18.4299 15.6111 19.0099ZM24.1811 28.4199C24.8711 28.4199 25.4311 27.8599 25.4311 27.1699C25.4311 26.4799 24.8711 25.9199 24.1811 25.9199C23.4911 25.9199 22.9311 26.4799 22.9311 27.1699C22.9311 27.8599 23.4811 28.4199 24.1811 28.4199ZM19.6811 23.9199C20.3711 23.9199 20.9311 23.3599 20.9311 22.6699C20.9311 21.9799 20.3611 21.4199 19.6811 21.4199C19.0011 21.4199 18.4311 21.9799 18.4311 22.6699C18.4311 23.3599 18.9911 23.9199 19.6811 23.9199ZM24.1811 32.1699C22.1811 32.1699 21.3511 31.5399 21.5011 29.9699L21.8811 26.2499C21.9911 25.0699 22.9911 24.1699 24.1811 24.1699C25.3711 24.1699 26.3611 25.0699 26.4811 26.2499L26.8511 29.9699C27.0111 31.5199 26.2211 32.1699 24.1811 32.1699ZM24.1811 34.1699C29.7211 34.1699 34.1811 29.6799 34.1811 24.1699C34.1811 23.0199 33.9911 21.9199 33.6311 20.8899L34.4011 20.1199C35.5711 18.9499 35.5711 17.0499 34.4011 15.8799C33.2311 14.7099 31.3311 14.7099 30.1511 15.8799L29.9511 16.0899C28.6711 15.4099 27.1711 15.4199 25.8911 15.7299L25.3611 15.8599C24.5811 16.0399 23.7811 16.0399 23.0011 15.8599L22.4711 15.7299C21.1711 15.4099 19.6511 15.4099 18.3611 16.1099L18.1211 15.8799C16.9511 14.7099 15.0511 14.7099 13.8811 15.8799C12.7011 17.0499 12.7011 18.9499 13.8811 20.1199L14.7011 20.9399C14.3611 21.9599 14.1711 23.0399 14.1711 24.1699C14.1711 29.6599 18.6111 34.1699 24.1811 34.1699Z" fill="#2B2D33"/>
</svg>
