<svg width="48" height="48" viewBox="0 0 48 48" fill="none" xmlns="http://www.w3.org/2000/svg">
<rect width="48" height="48" rx="12" fill="#FEE600"/>
<path d="M30.12 22C29.84 21.43 29.4 21.17 28.57 21.12V21H30.5C32.44 21 34 19.44 34 17.5C34 15.56 32.44 14 30.5 14H29V16H30.5C31.33 16 32 16.67 32 17.5C32 18.33 31.33 19 30.5 19H17.5C16.67 19 16 18.33 16 17.5C16 16.67 16.67 16 17.5 16H19V14H17.5C15.56 14 14 15.56 14 17.5C14 19.44 15.56 21 17.5 21H19.43V21.12C18.6 21.17 18.17 21.44 17.88 22L17.39 23H14V25H17.28C17.29 25.03 17.3 25.07 17.32 25.1L19.6 31.95C20.02 33.2 21.12 34 22.44 34H25.56C26.9 34 27.99 33.2 28.41 31.95L30.69 25.1L30.72 25H34V23H30.61L30.12 22ZM28.79 24.47L26.51 31.32C26.36 31.76 26.04 32 25.56 32H22.44C21.97 32 21.64 31.76 21.49 31.32L19.21 24.47C19.13 24.22 19.15 23.94 19.27 23.71L20.34 21.55C20.53 21.17 20.83 21 21.24 21H26.77C27.14 21 27.49 21.21 27.66 21.55L28.74 23.71C28.86 23.94 28.88 24.22 28.79 24.47Z" fill="#2B2D33"/>
</svg>
