<svg width="48" height="48" viewBox="0 0 48 48" fill="none" xmlns="http://www.w3.org/2000/svg">
<rect width="48" height="48" rx="12" fill="#FEE600"/>
<path d="M17.1999 18.9C14.3999 21.7 14.3999 25.1 16.2999 27C17.3999 28.1 18.4999 28.2 19.4999 27.7L19.5999 27.8L15.4999 31.9L16.9999 33.4L20.9999 29.3L21.0999 29.4C20.5999 30.4 20.6999 31.5 21.7999 32.6C23.6999 34.5 27.1999 34.4 29.8999 31.7C33.2999 28.3 33.4999 24 33.8999 15C24.8999 15.4 20.5999 15.6 17.1999 18.9ZM28.4999 30.2C26.4999 32.2 24.2999 32.2 22.7999 30.7C21.6999 29.6 21.7999 28.4 22.7999 27.4L28.2999 22L26.8999 20.6L21.4999 26C20.4999 27 19.2999 27.1 18.1999 26C16.6999 24.6 16.6999 22.3 18.5999 20.3C21.1999 17.7 24.2999 17.4 31.7999 17C31.4999 24.5 31.1999 27.6 28.4999 30.2Z" fill="#2B2D33"/>
</svg>
