<svg width="48" height="48" viewBox="0 0 48 48" fill="none" xmlns="http://www.w3.org/2000/svg">
<rect width="48" height="48" rx="12" fill="#FEE600"/>
<path d="M25 26H23V28.77L20.61 27.38L19.61 29.12L22 30.5L19.61 31.88L20.61 33.62L23 32.23V35H25V32.23L27.4 33.62L28.4 31.88L26 30.5L28.4 29.12L27.4 27.38L25 28.77V26ZM30 30V28C31.66 28 33 26.64 33 25C33 23.35 31.65 22 30 22C29.71 22 29.43 22.04 29.15 22.13C28.79 22.24 28.39 22.17 28.12 21.91C27.84 21.64 27.81 21.29 27.89 20.93C27.96 20.63 28 20.32 28 20C28 17.79 26.21 16 24 16C21.84 16 20 17.77 20 20C20 20.59 19.58 21 19 21H18.5C16.61 21 15 22.55 15 24.5C15 26.4 16.53 28 18.5 28V30C15.5 30 13 27.58 13 24.5C13 21.48 15.5 19.01 18.38 19.01C18.62 19.01 18.86 19.02 19.09 19.04L19.11 18.93C18.35 18.46 18.3 17.86 18.78 17.05C19.91 15.15 21.79 14 24 14C27.27 14 30 16.66 30 20C30 20.34 29.97 20.67 29.92 20.98L30.03 21.03C30.38 20.24 31.14 20.06 31.87 20.36C33.7 21.1 35 22.9 35 25C35 27.77 32.76 30 30 30Z" fill="#2B2D33"/>
</svg>
