<svg width="48" height="48" viewBox="0 0 48 48" fill="none" xmlns="http://www.w3.org/2000/svg">
<rect width="48" height="48" rx="12" fill="#FEE600"/>
<path d="M34.69 24.55L35.04 22.58L32.95 22.21C31.71 21.99 31.25 22.27 30.94 23.36L30.82 23.34C30.94 22.91 31 22.46 31 22C31 21.14 30.76 20.34 30.38 19.63L33.54 16.98L32.25 15.45L30.63 16.81C29.66 17.62 29.58 18.15 30.22 19.09L30.12 19.17C29.4 18.12 28.29 17.36 27 17.1V13H25V15.12C25 16.38 25.35 16.78 26.48 16.9V17.05C26.32 17.03 26.16 17 26 17C24.82 17 23.76 17.42 22.9 18.1L19.75 15.45L18.46 16.98L20.09 18.34C21.05 19.15 21.58 19.14 22.4 18.35L22.5 18.43C21.78 19.14 21.28 20.06 21.09 21.09C18.77 21.52 17 23.55 17 26V26.03C14.75 26.28 13 28.18 13 30.5C13 32.99 15.02 35 17.5 35H28C30.77 35 33 32.76 33 30C33 27.85 31.63 26.02 29.72 25.32C30.11 24.88 30.43 24.38 30.64 23.83L34.69 24.55ZM26 19C27.66 19 29 20.34 29 22C29 23.36 28.1 24.49 26.86 24.86C26.43 23.02 24.98 21.58 23.14 21.15C23.51 19.91 24.64 19 26 19ZM31 30C31 31.66 29.66 33 28 33H17.5C16.12 33 15 31.88 15 30.5C15 29.12 16.12 28 17.5 28H18.13C18.44 28 18.75 27.9 18.93 27.66C19.07 27.49 19.13 27.25 19.13 27.04C19.13 26.67 19 26.4 19 26C19 24.34 20.35 23 22 23C23.66 23 25 24.34 25 26C25 26.55 25.45 27 26 27H28C29.66 27 31 28.34 31 30Z" fill="#2B2D33"/>
</svg>
