<svg width="48" height="48" viewBox="0 0 48 48" fill="none" xmlns="http://www.w3.org/2000/svg">
<rect width="48" height="48" rx="12" fill="#FEE600"/>
<path d="M25.12 28.7C25.23 29.71 25.63 30 26.66 30H28C30.76 30 33 27.76 33 25C33 22.92 31.73 21.14 29.93 20.39C29.98 20.1 30 19.8 30 19.5C30 16.46 27.54 14 24.5 14C21.56 14 19.16 16.3 19.01 19.21C16.7 19.86 15 21.98 15 24.5C15 27.54 17.46 30 20.5 30H23V34H29V32H25V28.7H25.12ZM23 25V28H20.5C18.57 28 17 26.43 17 24.5C17 22.69 18.37 21.2 20.14 21.02C20.74 20.96 21.12 20.48 21.03 19.91C21.01 19.78 21 19.64 21 19.5C21 17.57 22.57 16 24.5 16C26.43 16 28 17.57 28 19.5C28 19.93 27.92 20.34 27.78 20.72C27.57 21.3 27.87 21.93 28.54 22.05C29.94 22.3 31 23.53 31 25C31 26.66 29.66 28 28 28H25V25H23Z" fill="#2B2D33"/>
</svg>
