<svg width="24" height="24" viewBox="0 0 24 24" fill="none" xmlns="http://www.w3.org/2000/svg">
<path d="M12 8C9.79 8 8 9.79 8 12C8 14.21 9.79 16 12 16C14.21 16 16 14.21 16 12C16 9.79 14.21 8 12 8ZM12 14C10.9 14 10 13.1 10 12C10 10.9 10.9 10 12 10C13.11 10 14 10.9 14 12C14 13.1 13.11 14 12 14Z" fill="white"/>
<path d="M16.86 5.44L17.45 5.83L18.56 4.17L17.06 3.17C16.55 2.83 15.91 2.98 15.62 3.53L14.12 6.33L15.88 7.28L16.86 5.44Z" fill="white"/>
<path d="M17.67 9.88L19.67 8.81L20.17 9.55L21.83 8.45L20.83 6.95C20.55 6.52 19.98 6.38 19.53 6.62L16.73 8.12L17.67 9.88Z" fill="white"/>
<path d="M21 11H18V13H20V14H22V12C22 11.45 21.55 11 21 11Z" fill="white"/>
<path d="M20.47 15.62L17.67 14.12L16.73 15.88L18.56 16.86L18.17 17.45L19.83 18.55L20.83 17.05C21.16 16.55 21 15.9 20.47 15.62Z" fill="white"/>
<path d="M15.88 16.72L14.12 17.67L15.19 19.67L14.45 20.17L15.56 21.83L17.06 20.83C17.48 20.55 17.63 19.98 17.38 19.53L15.88 16.72Z" fill="white"/>
<path d="M6 12C6 8.68 8.69 6 12 6H13V4H12.22V3.88C12.77 3.82 13.01 3.52 13.01 3L13 2H11V4.07C9.99 4.19 9.04 4.5 8.19 4.96L8.13 4.86C8.58 4.53 8.63 4.15 8.37 3.7L7.87 2.84L6.13 3.84L7.17 5.63C6.38 6.23 5.71 6.97 5.19 7.81L5.08 7.75C5.3 7.24 5.16 6.89 4.71 6.63L3.84 6.13L2.84 7.87L4.62 8.9C4.25 9.79 4.04 10.76 4.01 11.78H3.88C3.82 11.23 3.52 11 3 11H2V13H4.07C4.2 14.01 4.5 14.96 4.96 15.81L4.86 15.87C4.53 15.42 4.15 15.37 3.7 15.63L2.84 16.13L3.84 17.87L5.63 16.83C6.23 17.62 6.97 18.29 7.81 18.81L7.75 18.92C7.24 18.7 6.89 18.84 6.63 19.29L6.13 20.16L7.87 21.16L8.9 19.38C9.79 19.75 10.76 19.96 11.78 19.99V20.12C11.23 20.18 11 20.48 11 21V22H13V20H13.01V18H12C8.69 18 6 15.32 6 12Z" fill="white"/>
</svg>
