<svg width="24" height="24" viewBox="0 0 24 24" fill="none" xmlns="http://www.w3.org/2000/svg">
<path d="M17 2H7C6.4 2 6 2.4 6 3V7C6 7.3 6.09 7.49 6.3 7.7L8 9.4V21C8 21.6 8.4 22 9 22H15C15.6 22 16 21.6 16 21V9.4L17.7 7.7C17.9 7.5 18 7.3 18 7V3C18 2.4 17.6 2 17 2ZM14 11.94V20H10V11.94C10 10.84 9.53 10.27 8.69 10.02V9.89C8.88 9.96 9.08 10 9.32 10H14.68C14.92 10 15.12 9.96 15.31 9.89V10.02C14.47 10.27 14 10.84 14 11.94ZM16 6.6L14.6 8H9.4L8 6.6V4H16V6.6Z" fill="white"/>
<path d="M13 12H11V15H13V12Z" fill="white"/>
</svg>
