<svg width="24" height="24" viewBox="0 0 24 24" fill="none" xmlns="http://www.w3.org/2000/svg">
<path d="M6.93 19.22V19.1C7.67 19.1 8.18 18.81 8.25 18.21L8.38 17.22H12.65L12.76 18.21C12.83 18.81 13.35 19.1 14.08 19.1V19.22H6.93ZM17.83 10.53L20.73 9.75002C21.14 9.64002 21.44 9.28002 21.47 8.85002L21.66 5.69002C21.67 5.48002 21.61 5.26002 21.49 5.08002L19.75 2.44002C19.51 2.08002 19.07 1.92002 18.66 2.03002L15.76 2.80002C15.23 2.95002 14.91 3.49002 15.05 4.03002L15.57 5.95002L13.4 6.51002L12.99 4.06002C12.91 3.57002 12.49 3.22002 12 3.22002H9C8.5 3.22002 8.07 3.60002 8.01 4.10002L7.52 8.02002L2.75 9.25002C2.31 9.37002 2 9.76002 2 10.22V17.22H4V11L7.25 10.16L6.12 19.22H2V21.22H20V19.22H14.89L13.66 8.51002L16.09 7.88002L16.61 9.82002C16.75 10.36 17.3 10.67 17.83 10.53ZM18.28 8.34002L17.24 4.48002L18.48 4.15002L19.64 5.90002L19.52 8.01002L18.28 8.34002ZM9.6 7.49002L9.88 5.22002H11.15L11.45 7.01002L9.6 7.49002ZM9.13 11.22L9.33 9.62002L11.7 9.01002L11.96 11.22H9.13ZM8.63 15.22L8.88 13.22H12.19L12.42 15.22H8.63ZM20 9.69002L19.32 9.94002L19.37 10.24C18.48 10.59 18 11.22 18 12.2V17.22H20V9.69002Z" fill="white"/>
</svg>
