<svg width="24" height="24" viewBox="0 0 24 24" fill="none" xmlns="http://www.w3.org/2000/svg">
<path d="M14 2H6C5.74 2 5.48 2.1 5.29 2.29L2.29 5.29C2.1 5.48 2 5.73 2 6V8C2 8.55 2.45 9 3 9H6V19C6 20.68 7.33 22 9 22C10.68 22 12 20.68 12 19V9H14C14.55 9 15 8.55 15 8V3C15 2.45 14.55 2 14 2ZM11.33 9.12C10.49 9.39 10 10.03 10 11V19C10 19.57 9.57 20 9 20C8.43 20 8 19.57 8 19V11C8 10.03 7.51 9.39 6.67 9.12V9H11.33V9.12ZM13 7H4V6.41L6.42 4H13V7Z" fill="white"/>
<path d="M21 11H20V2H18V9C18 9.97 18.49 10.61 19.33 10.88V11H17C16.45 11 16 11.45 16 12V19C16 20.68 17.32 22 19 22C20.68 22 22 20.68 22 19V12C22 11.45 21.55 11 21 11ZM20 19C20 19.57 19.57 20 19 20C18.43 20 18 19.57 18 19V13H20V19Z" fill="white"/>
</svg>
