<svg width="24" height="24" viewBox="0 0 24 24" fill="none" xmlns="http://www.w3.org/2000/svg">
<path d="M5.53988 11V10.88C6.83988 10.81 7.04988 10.27 7.99988 9C8.90988 7.79 10.3599 7 11.9999 7C13.6399 7 15.0899 7.79 15.9999 9C16.9499 10.27 17.1599 10.81 18.4599 10.88V11H5.53988ZM6.94988 16L4.24988 13H19.7599L17.0599 16H6.94988ZM3.20988 22.21L7.41988 18H10.9999V22H12.9999V18H16.5899L20.7899 22.21L22.2099 20.8L18.6399 17.23L22.7499 12.67C23.0099 12.38 23.0899 11.96 22.9199 11.6C22.7499 11.24 22.3999 11 21.9999 11H18.9299C18.4899 7.94 16.0699 5.51 12.9999 5.07V2H10.9999V5.07C7.93988 5.51 5.50988 7.94 5.06988 11H1.99988C1.60988 11 1.24988 11.24 1.08988 11.6C0.929882 11.96 0.999882 12.38 1.25988 12.67L5.35988 17.23L1.78988 20.8L3.20988 22.21Z" fill="white"/>
</svg>
