<svg width="24" height="24" viewBox="0 0 24 24" fill="none" xmlns="http://www.w3.org/2000/svg">
<path d="M7 17.11H6.88C6.83 16.2 6.67 15.75 6.12 15.34L5.4 14.8C5.14 14.61 5 14.31 5 14V8C5 7.45 5.45 7 6 7H7V17.11ZM11 7V9H13V7H16V21H9V7H11ZM13 5V2H11V5H6C4.35 5 3 6.34 3 8V14C3 14.94 3.45 15.83 4.2 16.4L7 18.5V22C7 22.55 7.45 23 8 23H17C17.56 23 18 22.55 18 22V16.21L21.99 7.36L22.06 7.39C22.55 7.64 23.15 7.44 23.4 6.95C23.65 6.45 23.45 5.85 22.95 5.61L20.95 4.61C20.46 4.36 19.86 4.56 19.61 5.05C19.36 5.55 19.56 6.15 20.06 6.39L20.2 6.47L18.85 9.46C18.25 10.77 18.16 11.33 18.12 13H18V6C18 5.45 17.56 5 17 5H13Z" fill="white"/>
</svg>
