<svg width="24" height="24" viewBox="0 0 24 24" fill="none" xmlns="http://www.w3.org/2000/svg">
<path d="M23.64 7.23L17.64 2.23C17.27 1.92 16.73 1.92 16.36 2.23L10.36 7.23C10.13 7.42 10 7.7 10 8V9H12V8.47L17 4.3L22 8.47V10H21V14H19V10H17V14H16V16H22C22.55 16 23 15.55 23 15V10H24V8C24 7.7 23.87 7.42 23.64 7.23Z" fill="#2B2D33"/>
<path d="M13.45 12.11L7.45 9.11C7.17 8.96 6.84 8.96 6.55 9.11L0.55 12.11C0.22 12.27 0 12.62 0 13V14C0 14.6 0.44 15 1 15H2V21H0V23H14V21H12V17C12 16.03 11.51 15.39 10.67 15.12V15H13C13.57 15 14 14.6 14 14V13C14 12.62 13.79 12.27 13.45 12.11ZM4 21V17C4 16.03 3.51 15.39 2.67 15.12V15H6V21H4ZM10 21H8V17C8 16.03 7.51 15.39 6.67 15.12V15H10V21ZM2.84 13L7 11.12L11.17 13H2.84Z" fill="#2B2D33"/>
</svg>
