<svg width="24" height="24" viewBox="0 0 24 24" fill="none" xmlns="http://www.w3.org/2000/svg">
<path d="M2 19H8.97V19.14C7.51 19.45 7 20.51 7 22H9C9.01 20.68 9.69 19.53 11.29 18.97C11.8 18.79 12 18.45 12 17.99C12 17.54 11.8 17.2 11.29 17.02C9.69 16.45 9.01 15.3 9 13.98H7C7 15.46 7.51 16.56 8.97 16.86V17H2V19ZM21 21V15H19V21H21ZM14 15H16V21H14V15ZM5.07 9C3.92 9.64 3.51 9.88 2.7 9.88V10H21.3V9.88C20.51 9.88 20.17 9.69 18.94 9L12 5.14L5.07 9ZM11.51 3.13C11.81 2.96 12.18 2.96 12.48 3.13L21.48 8.13C21.8 8.3 22 8.64 22 9V11C22 11.55 21.55 12 21 12H3C2.44 12 2 11.55 2 11V9C2 8.64 2.19 8.3 2.51 8.13L11.51 3.13Z" fill="#2B2D33"/>
</svg>
