<svg width="24" height="24" viewBox="0 0 24 24" fill="none" xmlns="http://www.w3.org/2000/svg">
<path d="M13.18 14.04L13.1 13.96C13.81 13.31 14 12.7 14 11.79V10.62L15.45 9.89C15.83 9.7 16 9.41 16 8.9V4C16 3.43 15.58 3 15 3H3C2.43 3 2 3.43 2 4V8.9C2 9.41 2.19 9.7 2.56 9.89L4 10.62V21H6V10.1C6 9.6 5.82 9.3 5.45 9.11L4 8.38V5H6V7H8V5H10V7H12V5H14V8.38L12.56 9.11C12.19 9.3 12 9.6 12 10.1V15.03L9.36 17.23L10 18V21H12V17.63L16 14.3L20 17.64V21H22V18L22.65 17.23L16.65 12.23C16.27 11.92 15.74 11.92 15.36 12.23L13.18 14.04ZM15 21H17V18H15V21ZM8 14H10V10H8V14Z" fill="#2B2D33"/>
</svg>
