<svg width="24" height="24" viewBox="0 0 24 24" fill="none" xmlns="http://www.w3.org/2000/svg">
<path d="M19 2H5C4.45 2 4 2.45 4 3V5C4 5.27 4.11 5.52 4.29 5.71L6.29 7.71C6.48 7.89 6.74 8 7 8H8V11C8 11.27 8.11 11.52 8.29 11.71L10.29 13.71C10.48 13.89 10.74 14 11 14V16H12C13.12 16 14 16.88 14 18C14 19.12 13.12 20 12 20C10.88 20 10 19.12 10 18H8C8 20.24 9.76 22 12 22C14.24 22 16 20.24 16 18C16 16.11 14.74 14.58 13 14.14V14C13.27 14 13.52 13.89 13.71 13.71L15.71 11.71C15.9 11.52 16 11.27 16 11V8H17C17.27 8 17.52 7.89 17.71 7.71L19.71 5.71C19.9 5.52 20 5.27 20 5V3C20 2.45 19.55 2 19 2ZM15.23 8.12C14.45 8.26 14 8.83 14 9.8V10.59L12.59 12H11.42L10 10.59V9.8C10 8.83 9.55 8.26 8.77 8.12V8H15.23V8.12ZM18 4.59L16.59 6H7.42L6 4.59V4H18V4.59Z" fill="#2B2D33"/>
</svg>
