<svg width="24" height="24" viewBox="0 0 24 24" fill="none" xmlns="http://www.w3.org/2000/svg">
<path d="M15 14.52V13H16V11H12V13H13V15.99C14.12 15.99 15 16.87 15 17.99C15 19.11 14.12 19.99 13 19.99C11.88 19.99 11 19.11 11 17.99H9C9 20.21 10.78 21.99 13 21.99C15.22 21.99 17 20.21 17 17.99C17 16.5 16.2 15.21 15 14.52Z" fill="#2B2D33"/>
<path d="M20.74 6.31L18.88 3.52C18.65 3.17 18.34 3 17.9 3H3V5H6.46L7.31 6.28C7.61 6.73 7.86 6.88 8.43 6.88V7H3V9H21V7.2C21 6.8 20.94 6.61 20.74 6.31ZM12.65 5.72L11.8 7H10.19L8.86 5H13.77V5.12C13.2 5.12 12.95 5.27 12.65 5.72ZM19.44 7H14.21L15.54 5H17.47L18.32 6.28C18.62 6.73 18.87 6.88 19.44 6.88V7Z" fill="#2B2D33"/>
</svg>
