<svg width="24" height="24" viewBox="0 0 24 24" fill="none" xmlns="http://www.w3.org/2000/svg">
<path d="M13 10H11V8C10.37 8 10 7.56 10 7C10 6.7 10.14 6.41 10.38 6.22L15.38 2.22C15.74 1.93 16.26 1.93 16.63 2.22L21.63 6.22C21.87 6.41 22 6.7 22 7C22 7.56 21.63 8 21 8V13C21 13.57 20.56 14 20 14H16V12H19V8.6C19 7.92 19.22 7.6 20 7.6V7.48L16 4.28L12 7.48V7.6C12.78 7.6 13 7.92 13 8.6V10ZM4.27 9.93C5.03 7.17 7.18 5.01 9.93 4.28L9.41 2.34C5.95 3.28 3.28 5.96 2.34 9.42L4.27 9.93ZM15.34 21.43C17.84 20.54 19.89 18.7 21.03 16.31L19.22 15.45C18.31 17.36 16.67 18.84 14.67 19.54L15.34 21.43ZM4 21H12C12.56 21 13 20.57 13 20V15C13.63 15 14 14.56 14 14C14 13.7 13.87 13.41 13.63 13.22L8.63 9.22C8.26 8.93 7.74 8.93 7.38 9.22L2.38 13.22C2.14 13.41 2 13.7 2 14C2 14.56 2.37 15 3 15V20C3 20.56 3.43 21 4 21ZM5 19V15.6C5 14.92 4.78 14.6 4 14.6V14.48L8 11.28L12 14.48V14.6C11.22 14.6 11 14.92 11 15.6V19H5Z" fill="#2B2D33"/>
</svg>
