<svg width="24" height="24" viewBox="0 0 24 24" fill="none" xmlns="http://www.w3.org/2000/svg">
<path d="M11 11.0101H13V9.59006C13 8.93006 12.64 8.59006 12 8.59006V8.47006L17 4.30006L22 8.47006V8.59006C21.36 8.59006 21 8.93006 21 9.59006V14.0001H19V10.0001H17V14.0001H16V16.0001H22C22.55 16.0001 23 15.5501 23 15.0001V9.00006C23.6 9.00006 24 8.57006 24 8.00006C24 7.70006 23.87 7.42006 23.64 7.23006L17.64 2.23006C17.27 1.92006 16.73 1.92006 16.36 2.23006L10.36 7.23006C10.13 7.42006 10 7.70006 10 8.00006C10 8.57006 10.4 9.00006 11 9.00006V11.0101ZM11 16.5901V21.0001H9V17.0001H7V21.0001H3V16.5901C3 15.9301 2.64 15.5901 2 15.5901V15.4701L7 11.3001L12 15.4701V15.5901C11.36 15.5901 11 15.9301 11 16.5901ZM2 23.0001H12C12.55 23.0001 13 22.5501 13 22.0001V16.0001C13.6 16.0001 14 15.5701 14 15.0001C14 14.7001 13.87 14.4201 13.64 14.2301L7.64 9.23006C7.27 8.92006 6.73 8.92006 6.36 9.23006L0.36 14.2301C0.13 14.4201 0 14.7001 0 15.0001C0 15.5701 0.4 16.0001 1 16.0001V22.0001C1 22.5701 1.46 23.0001 2 23.0001Z" fill="#2B2D33"/>
</svg>
