<svg width="24" height="24" viewBox="0 0 24 24" fill="none" xmlns="http://www.w3.org/2000/svg">
<path d="M22 9.1C22 5.11 19.18 2 15.33 2C10.84 2 7 6.21 7 10.9C7 12.36 7.38 13.7 8.05 14.81L6.63 15.93C6.37 16.13 6.25 16.41 6.25 16.7C6.25 17.05 6.43 17.39 6.75 17.58L9.26 19.04L9.21 19.15C8.69 18.93 8.3 18.84 7.98 18.84C7.61 18.84 7.31 18.96 6.98 19.14C5.8 19.79 4.34 20 3 20V22C5.95 22 8.61 21.05 10.02 19.47L11.95 20.58C12.11 20.67 12.28 20.72 12.45 20.72C12.93 20.72 13.37 20.37 13.44 19.86L13.71 18C18.19 17.96 22 13.77 22 9.1ZM13.87 16C13.22 16 12.61 15.88 12.06 15.65L11.67 18.11L9.03 16.59L11 15.03C9.77 14.09 8.99 12.51 8.99 10.69C8.99 7.22 11.78 4 15.13 4C17.92 4 20.01 6.32 20.01 9.31C20.01 12.79 17.21 16 13.87 16Z" fill="#FEE600"/>
</svg>
