<svg width="24" height="24" viewBox="0 0 24 24" fill="none" xmlns="http://www.w3.org/2000/svg">
<g clip-path="url(#clip0_347_3070)">
<path d="M22.55 6.98997L16.89 1.32997C16.43 0.869973 15.89 0.889973 15.48 1.32997C13.62 3.32997 12.75 5.20997 14.65 6.43997L14.57 6.55997C12.33 5.45997 9.57997 5.81997 7.69997 7.69997C5.81997 9.57997 5.45997 12.32 6.56997 14.56L6.43997 14.64C5.21997 12.76 3.35997 13.59 1.32997 15.47C0.889973 15.88 0.869973 16.42 1.32997 16.88L6.98997 22.54C7.46997 23.02 7.98997 22.98 8.39997 22.54C10.26 20.54 11.13 18.67 9.22997 17.44L9.28997 17.3C11.54 18.42 14.29 18.06 16.18 16.18C18.07 14.29 18.43 11.54 17.3 9.28997L17.43 9.22997C18.65 11.11 20.51 10.28 22.54 8.39997C22.99 7.99997 23.03 7.46997 22.55 6.98997ZM7.64997 20.38L3.50997 16.24C5.11997 14.91 6.68997 15.18 7.69997 16.19C8.70997 17.2 8.97997 18.77 7.64997 20.38ZM14.77 14.77C13.19 16.35 10.69 16.35 9.10997 14.77C7.52997 13.19 7.52997 10.69 9.10997 9.10997C10.69 7.52997 13.19 7.52997 14.77 9.10997C16.35 10.69 16.35 13.19 14.77 14.77ZM16.19 7.69997C15.18 6.68997 14.91 5.11997 16.24 3.50997L20.38 7.64997C18.77 8.97997 17.2 8.70997 16.19 7.69997Z" fill="#FEE600"/>
</g>
<defs>
<clipPath id="clip0_347_3070">
<rect width="21.89" height="21.89" fill="white" transform="translate(1 1)"/>
</clipPath>
</defs>
</svg>
