<svg width="24" height="24" viewBox="0 0 24 24" fill="none" xmlns="http://www.w3.org/2000/svg">
<path d="M5 8.31H5.62V7.94C6.51 7.93 7 7.47 7 6.56V5C7 4.45 7.45 4 8 4H16C16.55 4 17 4.45 17 5V6.56C17 7.47 17.49 7.93 18.38 7.94V8.31H19V5C19 3.34 17.65 2 16 2H8C6.35 2 5 3.34 5 5V8.31ZM5 20V12H4C3.45 12 3 11.55 3 11C3 10.45 3.45 10 4 10H5C6.16 10 7 10.84 7 12V18H9V15H15V18H17V12C17 10.84 17.85 10 19 10H20C20.55 10 21 10.45 21 11C21 11.55 20.55 12 20 12H19V20H5ZM4 22H20C20.55 22 21 21.55 21 21V13.83C22.2 13.41 23 12.27 23 11C23 9.34 21.66 8 20 8H19C17.25 8 15 9.32 15 12V14.4H14.88C14.88 13.47 14.36 13 13.35 13H10.65C9.64 13 9.12 13.47 9.12 14.4H9V12C9 9.32 6.75 8 5 8H4C2.34 8 1 9.34 1 11C1 12.27 1.8 13.41 3 13.83V21C3 21.55 3.45 22 4 22Z" fill="#FEE600"/>
</svg>
