<svg width="24" height="24" viewBox="0 0 24 24" fill="none" xmlns="http://www.w3.org/2000/svg">
<path d="M16 7C16.55 7 17 6.55 17 6C17 5.45 16.55 5 16 5C15.45 5 15 5.45 15 6C15 6.55 15.45 7 16 7ZM12 7C12.55 7 13 6.55 13 6C13 5.45 12.55 5 12 5C11.45 5 11 5.45 11 6C11 6.55 11.45 7 12 7ZM8 7C8.55 7 9 6.55 9 6C9 5.45 8.55 5 8 5C7.45 5 7 5.45 7 6C7 6.55 7.45 7 8 7ZM5 20V6C5 5.1 4.44 4.4 3.67 4.13V4H19V18C19 18.9 19.56 19.6 20.33 19.87V20H5ZM12 18C14.65 18 17 15.74 17 13C17 10.26 14.79 8 12 8C9.24 8 7 10.24 7 13C7 15.76 9.24 18 12 18ZM12 16C10.35 16 9 14.66 9 13C9 11.34 10.35 10 12 10C12.94 10 13.79 10.43 14.34 11.11C14.13 11.63 14 12.29 14 13C14 13.71 14.13 14.37 14.34 14.89C13.79 15.57 12.94 16 12 16ZM4 22H20C20.55 22 21 21.55 21 21V3C21 2.45 20.55 2 20 2H4C3.45 2 3 2.45 3 3V21C3 21.55 3.45 22 4 22Z" fill="#FEE600"/>
</svg>
