<svg width="24" height="24" viewBox="0 0 24 24" fill="none" xmlns="http://www.w3.org/2000/svg">
<path d="M7.19991 13L8.83991 4H15.1699L16.7999 13H7.19991ZM5.01991 13.82C4.88991 14.43 5.36991 15 5.99991 15H10.9999V20H6.99991V22H16.9999V20H12.9999V17C12.9999 15.98 12.5099 15.34 11.6699 15.12V15H14.9999V18H16.9999V17C16.9999 15.98 16.5099 15.34 15.6699 15.12V15H17.9999C18.6599 15 19.0899 14.4 18.9899 13.82L16.9899 2.82C16.8999 2.35 16.4899 2 15.9999 2H7.99991C7.51991 2 7.09991 2.35 7.01991 2.82L5.01991 13.82Z" fill="#FEE600"/>
</svg>
