<svg width="24" height="24" viewBox="0 0 24 24" fill="none" xmlns="http://www.w3.org/2000/svg">
<path d="M9 9C9 9.59 8.59 10 8 10H7V3H5V8C5 8.97 5.49 9.61 6.33 9.88V10H4C3.41 10 3 9.59 3 9V3H1V9C1 10.7 2.3 12 4 12H5V23H7V12H8C9.7 12 11 10.7 11 9V3H9V9Z" fill="#FEE600"/>
<path d="M18 2C15.24 2 13 4.86 13 8C13 11.37 14.79 13 17 13V23H19V13C21.21 13 23 11.37 23 8C23 4.86 20.76 2 18 2ZM19 11H17C15.9 11 15 10.23 15 8C15 5.92 16.35 4 18 4C19.65 4 21 5.92 21 8C21 10.23 20.1 11 19 11Z" fill="#FEE600"/>
</svg>
