<svg width="48" height="48" viewBox="0 0 48 48" fill="none" xmlns="http://www.w3.org/2000/svg">
<rect width="48" height="48" rx="12" fill="#2B2D33"/>
<path d="M29.25 31.0001V30.8801C28.45 30.7401 28 30.1401 28 29.4001V27.0001C28 26.4401 28.45 26.0001 29 26.0001H33C33.55 26.0001 34 26.4501 34 27.0001V30.0001C34 31.8001 32.8 33.0001 31 33.0001H28C25.76 33.0001 24 31.2501 24 29.0001V26.0001C24 24.8701 23.13 24.0001 22 24.0001H20V22.0001H22C24.24 22.0001 26 23.7601 26 26.0001V29.0001C26 30.1701 26.71 31.0001 28 31.0001H29.25ZM30 31.0001H31C31.63 31.0001 32 30.6301 32 30.0001V28.0001H30V31.0001ZM32.7 15.2901C33.09 15.6801 33.09 16.3201 32.7 16.7101L31.7 17.7101C31.54 17.8701 31.54 18.1301 31.7 18.2901C32.65 19.2401 32.65 20.7601 31.7 21.7101L31.54 21.8701C31.35 22.0701 31.3 22.3601 31.42 22.6101L31.89 23.5501C32.14 24.0501 31.94 24.6501 31.44 24.8901C30.95 25.1401 30.35 24.9401 30.1 24.4501L29.63 23.5101C29.12 22.4901 29.32 21.2601 30.13 20.4601L30.29 20.2901C30.45 20.1301 30.45 19.8701 30.29 19.7101C29.35 18.7601 29.35 17.2401 30.29 16.2901L31.29 15.2901C31.68 14.9001 32.31 14.9001 32.7 15.2901ZM15 17.0001C15 16.4401 15.44 16.0001 16 16.0001H24C24.55 16.0001 25 16.4501 25 17.0001V21.0001H23V18.0001H17V24.0001C17 25.6601 18.34 27.0001 20 27.0001C20.52 27.0001 21.04 26.8601 21.5 26.6001L22.5 28.3301C22.03 28.6001 21.52 28.7901 21 28.9001V32.0001H24V34.0001H16V32.0001H19V28.9001C16.67 28.4301 15 26.3801 15 24.0001V17.0001Z" fill="#FEE600"/>
</svg>
