<svg width="48" height="48" viewBox="0 0 48 48" fill="none" xmlns="http://www.w3.org/2000/svg">
<rect width="48" height="48" rx="12" fill="#2B2D33"/>
<path d="M21 18C19.67 18 18.53 17.2 18.17 16H21C22.33 16 23.47 16.8 23.83 18H21ZM23.25 33C21.27 33 19 29.8 19 27C19 24.55 20.61 23 22.49 23C23.21 23 23.7 23.26 24 23.9V26H26V23.89C26.3 23.26 26.77 23 27.5 23C29.38 23 31 24.55 31 27C31 29.8 28.73 33 26.75 33C26 33 25.46 32.77 25 32.25C24.53 32.76 23.98 33 23.25 33ZM23.25 35C23.95 35 24.53 34.84 25 34.51C25.47 34.84 26.05 35 26.75 35C29.85 35 33 30.97 33 27C33 23.59 30.54 21 27.62 21C26.68 21 26.22 21.49 26.12 22.49H26V19C26 16.2 23.8 14 21 14H16V15C16 17.78 18.22 20 21 20H24V22.49H23.88C23.78 21.49 23.32 21 22.38 21C19.44 21 17 23.58 17 27C17 30.99 20.13 35 23.25 35Z" fill="#FEE600"/>
</svg>
