<svg width="48" height="48" viewBox="0 0 48 48" fill="none" xmlns="http://www.w3.org/2000/svg">
<rect width="48" height="48" rx="12" fill="#2B2D33"/>
<path d="M33.9098 23.55L31.9098 19.55C31.7398 19.21 31.3898 19 31.0098 19H29.0098V21H30.3898L31.3898 23H16.6298L17.6298 21H20.0098V19H17.0098C16.6298 19 16.2898 19.21 16.1198 19.55L14.1198 23.55C13.7698 24.25 14.1998 25 15.0098 25V34C15.0098 34.55 15.4598 35 16.0098 35H32.0098C32.5598 35 33.0098 34.55 33.0098 34V25C33.8298 25 34.2498 24.23 33.9098 23.55ZM23.0098 33H21.0098V29H23.0098V33ZM27.0098 33H25.0098V29H27.0098V33ZM32.3398 25.12C31.4998 25.26 31.0098 25.8 31.0098 26.7V33H29.0098V28C29.0098 27.45 28.5598 27 28.0098 27H20.0098C19.4598 27 19.0098 27.45 19.0098 28V33H17.0098V26.7C17.0098 25.8 16.5198 25.26 15.6798 25.12V25H32.3398V25.12Z" fill="#FEE600"/>
<path d="M24.0098 21C25.6798 21 27.0098 19.67 27.0098 18H29.0098V16H27.0098V15H21.0098V18C21.0098 19.67 22.3398 21 24.0098 21ZM23.0098 17H25.0098V18C25.0098 18.56 24.5698 19 24.0098 19C23.4498 19 23.0098 18.56 23.0098 18V17Z" fill="#FEE600"/>
</svg>
