<svg width="48" height="48" viewBox="0 0 48 48" fill="none" xmlns="http://www.w3.org/2000/svg">
<rect width="48" height="48" rx="12" fill="#2B2D33"/>
<path d="M34 32H14V34H34V32Z" fill="#FEE600"/>
<path d="M15 30H33C33.55 30 34 29.55 34 29C34 23.46 29.72 19.54 25 19.05V17H27V15H21V17H23V17.2C23 18.39 23.47 18.77 24.49 18.89V19.02C24.33 19.02 24.16 19 24 19C18.93 19 14 23.04 14 29C14 29.55 14.45 30 15 30ZM24 21C28.05 21 31.44 24.01 31.94 28H16.06C16.59 23.99 19.97 21 24 21Z" fill="#FEE600"/>
</svg>
