<svg width="48" height="48" viewBox="0 0 48 48" fill="none" xmlns="http://www.w3.org/2000/svg">
<rect width="48" height="48" rx="12" fill="#2B2D33"/>
<path d="M20 23C19.44 23 19 22.53 19 22C19 21.65 19.2 21.31 19.5 21.13C19.94 20.87 20 20.54 20 20C20 18.94 20.42 17.92 21.17 17.17C21.92 16.42 22.94 16 24 16C25.06 16 26.08 16.42 26.83 17.17C27.58 17.92 28 18.94 28 20C28 20.5 28.05 20.87 28.5 21.13C28.82 21.32 29 21.63 29 22C29 22.57 28.54 23 28 23C27.44 23 27 22.54 27 22C27 21.45 26.55 21 26 21C25.45 21 25 21.45 25 22C25 22.57 24.55 23 24 23C23.45 23 23 22.56 23 22C23 21.43 22.56 21 22 21C21.45 21 21.01 21.44 21 21.99V22C21 22.56 20.56 23 20 23ZM26.07 26.58L24.28 32H23.72L21.91 26.59C21.53 25.44 21.23 25.16 20 25.06V24.94C20.92 24.94 21.47 24.71 22 24.24C22.55 24.73 23.26 25 24 25C24.74 25 25.45 24.73 26 24.24C26.53 24.71 27.08 24.94 28 24.94V25.06C26.77 25.16 26.47 25.38 26.07 26.58ZM23 34H25C25.43 34 25.81 33.72 25.95 33.32L28.75 24.9C30.03 24.61 31 23.39 31 22C31 21.16 30.63 20.31 30 19.76C29.94 18.26 29.31 16.83 28.24 15.76C27.12 14.63 25.59 14 24 14C22.41 14 20.88 14.63 19.76 15.76C18.69 16.83 18.07 18.26 18.01 19.76C17.37 20.32 17 21.14 17 22C17 23.37 17.96 24.6 19.25 24.9L22.05 33.32C22.19 33.72 22.57 34 23 34Z" fill="#FEE600"/>
</svg>
