<svg width="48" height="48" viewBox="0 0 48 48" fill="none" xmlns="http://www.w3.org/2000/svg">
<rect width="48" height="48" rx="12" fill="#2B2D33"/>
<path d="M23 17.91V22H25V17.91H25.12C25.26 19.32 26.1 19.81 26.38 20.17C26.77 20.68 27 21.31 27 22V23.59C28.79 24.32 30 25.78 30 27.5C30 30.01 27.35 32 24 32C20.66 32 18 30.01 18 27.5C18 25.8 19.2 24.35 21 23.61V22C21 21.31 21.23 20.68 21.62 20.17C21.9 19.81 22.74 19.32 22.88 17.91H23ZM16 27.5C16 31.11 19.55 34 24 34C28.45 34 32 31.11 32 27.5C32 25.4 30.83 23.56 29 22.41V22C29 19.58 27.28 17.56 25 17.1V16H27V14H24C23.45 14 23 14.45 23 15V17.1C20.72 17.56 19 19.58 19 22V22.43C17.17 23.58 16 25.41 16 27.5Z" fill="#FEE600"/>
</svg>
