<svg width="24" height="24" viewBox="0 0 24 24" fill="none" xmlns="http://www.w3.org/2000/svg">
<path d="M22 11V6H5C4.44 6 4 5.55 4 5C4 4.45 4.44 4 5 4H22V2H5C3.34 2 2 3.34 2 5V21C2 21.55 2.44 22 3 22H11C11.55 22 12 21.55 12 21V13.03H12.14C12.44 14.49 13.51 14.99 15 14.99V12.99C13.67 12.99 12.54 12.32 11.97 10.72C11.79 10.21 11.45 10 11 10C10.55 10 10.21 10.21 10.03 10.72C9.46 12.32 8.33 12.99 7 12.99V14.99C8.49 14.99 9.56 14.49 9.86 13.03H10V20H4V10C4 8.91 3.91 8.3 2.88 7.29L2.97 7.2C3.5 7.7 4.22 8 5 8H20V9.52C20 10.26 20.27 10.66 21 10.88V11H18C17.45 11 17 11.44 17 12V16C17 16.55 17.45 17 18 17H21V17.12C20.27 17.34 20 17.74 20 18.48V20H14V22H21C21.55 22 22 21.55 22 21V17C22.55 17 23 16.55 23 16V12C23 11.45 22.55 11 22 11ZM21 15H19V13H21V15Z" fill="white"/>
</svg>
