<svg width="24" height="24" viewBox="0 0 24 24" fill="none" xmlns="http://www.w3.org/2000/svg">
<path d="M9 16H7V18H9V16Z" fill="white"/>
<path d="M9 12H7V14H9V12Z" fill="white"/>
<path d="M13 16H11V18H13V16Z" fill="white"/>
<path d="M17 16H15V18H17V16Z" fill="white"/>
<path d="M20 4H16V3C16 2.44 15.55 2 15 2H9C8.44 2 8 2.45 8 3V4H4C3.44 4 3 4.45 3 5V21C3 21.55 3.44 22 4 22H20C20.55 22 21 21.55 21 21V5C21 4.45 20.55 4 20 4ZM10 6.11V4H14V6.11C14 7.18 14.53 7.75 15.41 7.88V8H8.59V7.88C9.47 7.75 10 7.18 10 6.11ZM19 20H5V6H8V7.5C8 7.77 7.79 8 7.5 8H7V10H17V8H16.5C16.21 8 16 7.77 16 7.5V6H19V20Z" fill="white"/>
<path d="M17 12H15V14H17V12Z" fill="white"/>
<path d="M13 12H11V14H13V12Z" fill="white"/>
</svg>
