<svg width="24" height="24" viewBox="0 0 24 24" fill="none" xmlns="http://www.w3.org/2000/svg">
<path d="M16 12C16 9.65 13.62 8 11 8C8.41 8 6 9.63 6 12C6 14.35 8.38 16 11 16C13.59 16 16 14.37 16 12ZM8 12C8 10.81 9.56 10 11 10C12.41 10 14 10.79 14 12C14 13.19 12.44 14 11 14C9.59 14 8 13.21 8 12Z" fill="white"/>
<path d="M2 23H4V21C4 20.4 4.4 20 5 20H21C21.55 20 22 19.56 22 19V5C22 4.45 21.55 4 21 4H5C4.4 4 4 3.6 4 3V1H2V23ZM20 18H18C18 16.88 18.91 16 20 16V18ZM20 6V8C18.91 8 18 7.12 18 6H20ZM4.12 4.67C4.39 5.51 5.03 6 6 6H14.02C15.13 6 15.69 5.57 15.88 4.61H16V6C16 8.22 17.8 10 20 10V14C17.82 14 16 15.76 16 18V19.39H15.88C15.69 18.43 15.13 18 14.02 18H6C5.03 18 4.39 18.49 4.12 19.33H4V4.67H4.12Z" fill="white"/>
</svg>
