<svg width="24" height="24" viewBox="0 0 24 24" fill="none" xmlns="http://www.w3.org/2000/svg">
<path d="M9 10V8H15V10H9ZM8 12H16C16.55 12 17 11.55 17 11V7C17 6.45 16.55 6 16 6H8C7.45 6 7 6.45 7 7V11C7 11.55 7.45 12 8 12ZM5 18V4H19V18H16V16H17V14H7V16H8V18H5ZM10 20V16H14V20H10ZM9 22H15C15.55 22 16 21.55 16 21V18.59H16.12C16.25 19.47 16.82 20 17.89 20H20C20.55 20 21 19.55 21 19V3C21 2.45 20.55 2 20 2H4C3.45 2 3 2.45 3 3V19C3 19.55 3.45 20 4 20H6.11C7.18 20 7.75 19.47 7.88 18.59H8V21C8 21.55 8.45 22 9 22Z" fill="white"/>
</svg>
