<svg width="24" height="24" viewBox="0 0 24 24" fill="none" xmlns="http://www.w3.org/2000/svg">
<path d="M15 13H17V9.6H17.1C17.2 10.5 17.8 11 18.9 11H21V9H17V8H19C20.7 8 22 6.7 22 5C22 3.3 20.7 2 19 2H15V6H13V8H15V9H13V11H15V13ZM17 4H19C19.6 4 20 4.4 20 5C20 5.6 19.6 6 19 6H17V4Z" fill="white"/>
<path d="M5 14H7C7.5 14 8 14.5 8 15H10C10 13.3 8.7 12 7 12V10H5V10.5C5 11.4 5.5 11.9 6.3 11.9V12H5C3.3 12 2 13.3 2 15C2 16.7 3.3 18 5 18H7C7.5 18 8 18.5 8 19C8 19.6 7.5 20 7 20H5C4.5 20 4 19.6 4 19H2C2 20.7 3.3 22 5 22V24H7V23.5C7 22.6 6.5 22.1 5.7 22.1V22H7C8.7 22 10 20.7 10 19C10 17.3 8.7 16 7 16H5C4.5 16 4 15.6 4 15C4 14.5 4.5 14 5 14Z" fill="white"/>
<path d="M3 9H5C5 7.5 4.5 6.4 3 6.1V6H12V4H3V3.9C4.5 3.6 5 2.5 5 1H3C3 2.3 2.3 3.5 0.7 4C0.2 4.2 0 4.6 0 5C0 5.5 0.2 5.8 0.7 6C2.3 6.5 3 7.7 3 9Z" fill="white"/>
<path d="M23.3 18C21.7 17.4 21 16.3 21 15H19C19 16.5 19.5 17.6 21 17.9V18H12V20H21V20.1C19.5 20.4 19 21.5 19 23H21C21 21.7 21.7 20.5 23.3 20C23.8 19.8 24 19.5 24 19C24 18.5 23.8 18.2 23.3 18Z" fill="white"/>
</svg>
