<svg width="24" height="24" viewBox="0 0 24 24" fill="none" xmlns="http://www.w3.org/2000/svg">
<path d="M4 12H6C6.5 12 7 12.4 7 13H9C9 11.3 7.7 10 6 10V8H4V8.5C4 9.4 4.5 9.9 5.3 9.9V10H4C2.3 10 1 11.3 1 13C1 14.7 2.3 16 4 16H6C6.5 16 7 16.4 7 17C7 17.5 6.5 18 6 18H4C3.5 18 3 17.5 3 17H1C1 18.7 2.3 20 4 20V22H6V21.5C6 20.6 5.5 20.1 4.7 20.1V20H6C7.7 20 9 18.7 9 17C9 15.3 7.7 14 6 14H4C3.5 14 3 13.5 3 13C3 12.4 3.5 12 4 12Z" fill="white"/>
<path d="M12 4H10V6H12V4Z" fill="white"/>
<path d="M4 4H2V6H4V4Z" fill="white"/>
<path d="M8 4H6V6H8V4Z" fill="white"/>
<path d="M18 18H16V20H18V18Z" fill="white"/>
<path d="M20 8C21.7 8 23 6.7 23 5C23 3.3 21.7 2 20 2H16V6H14V8H16V9H14V11H16V13H18V9.6H18.1C18.2 10.5 18.8 11 19.9 11H22V9H18V8H20ZM18 4H20C20.6 4 21 4.4 21 5C21 5.6 20.6 6 20 6H18V4Z" fill="white"/>
<path d="M22 18H20V20H22V18Z" fill="white"/>
<path d="M14 18H12V20H14V18Z" fill="white"/>
</svg>
