<svg width="24" height="24" viewBox="0 0 24 24" fill="none" xmlns="http://www.w3.org/2000/svg">
<path d="M15.51 17.01C16.3384 17.01 17.01 16.3384 17.01 15.51C17.01 14.6816 16.3384 14.01 15.51 14.01C14.6816 14.01 14.01 14.6816 14.01 15.51C14.01 16.3384 14.6816 17.01 15.51 17.01Z" fill="white"/>
<path d="M20.51 22C21.3384 22 22.01 21.3284 22.01 20.5C22.01 19.6716 21.3384 19 20.51 19C19.6816 19 19.01 19.6716 19.01 20.5C19.01 21.3284 19.6816 22 20.51 22Z" fill="white"/>
<path d="M20.6097 14.0106L14.0078 20.6032L15.4069 22.0043L22.0088 15.4117L20.6097 14.0106Z" fill="white"/>
<path d="M2 9C2 9.44 2.2 9.73 2.61 9.95C5.71 11.61 8 13.02 8 16H10C10 12.9 8.26 10.79 5.57 10.11V10H22.01V8H5.57V7.89C8.26 7.21 10 5.1 10 2H8C8 4.98 5.71 6.38 2.61 8.05C2.2 8.27 2 8.56 2 9Z" fill="white"/>
</svg>
