<svg width="24" height="24" viewBox="0 0 24 24" fill="none" xmlns="http://www.w3.org/2000/svg">
<path d="M10.28 19.22L11.7 17.8L10.69 16.78C10.01 16.09 9.46 15.86 8.42 16.09L8.37 15.99C9.26 15.39 9.5 14.98 9.5 14.07V12.31H7.5V15.8C7.5 16.33 7.58 16.49 7.94 16.86L10.28 19.22ZM17.38 14H16.5V16H21.5C22.06 16 22.5 15.59 22.5 15V3C22.5 2.45 22.06 2 21.5 2H3.5C2.95 2 2.5 2.45 2.5 3V9H4.5V7.12C4.5 6.49 4.08 6.12 3.5 6.12V6H5C5.82 6 6.5 5.33 6.5 4.5V3H6.62C6.62 3.58 6.99 4 7.62 4H17.38C18.01 4 18.38 3.58 18.38 3H18.5V4.5C18.5 5.33 19.18 6 20 6H21.5V6.12C20.92 6.12 20.5 6.49 20.5 7.12V10.88C20.5 11.51 20.92 11.88 21.5 11.88V12H20C19.18 12 18.5 12.67 18.5 13.5V15H18.38C18.38 14.42 18.01 14 17.38 14ZM2 16.01C2 12.42 4.91 9.51 8.5 9.51C12.09 9.51 15 12.42 15 16.01C15 19.6 12.09 22.51 8.5 22.51C4.91 22.51 2 19.6 2 16.01ZM8.5 11.51C6.01 11.51 4 13.52 4 16.01C4 18.5 6.01 20.51 8.5 20.51C10.98 20.51 13 18.5 13 16.01C13 13.52 10.98 11.51 8.5 11.51Z" fill="white"/>
</svg>
