<svg width="24" height="24" viewBox="0 0 24 24" fill="none" xmlns="http://www.w3.org/2000/svg">
<path d="M22.08 13V13.12C21.19 13.34 20.89 13.64 20.58 14.56C19.94 16.47 18.58 18.13 16.64 19.2L16.89 19.42C18.02 17.92 18.66 16.05 18.89 13.98C18.97 13.27 19.3 13 20.07 13H22.08ZM18.09 13V13.12C17.18 13.3 16.93 13.61 16.79 14.52C16.48 16.55 15.52 18.87 14 19.72V13H18.09ZM22.08 11H20.07C19.3 11 18.97 10.73 18.89 10.02C18.66 7.95 18.02 6.08 16.89 4.58L16.64 4.8C18.58 5.87 19.94 7.53 20.58 9.44C20.89 10.36 21.19 10.66 22.08 10.88V11ZM18.09 11H14V4.28C15.52 5.13 16.48 7.45 16.79 9.48C16.93 10.39 17.18 10.7 18.09 10.88V11ZM3.92 11V10.88C4.81 10.66 5.11 10.36 5.42 9.44C6.06 7.53 7.42 5.87 9.36 4.8L9.11 4.58C7.98 6.08 7.35 7.95 7.11 10.02C7.03 10.73 6.7 11 5.93 11H3.92ZM7.91 11V10.88C8.82 10.7 9.07 10.39 9.21 9.48C9.55 7.45 10.48 5.13 12 4.28V11H7.91ZM13 22C18.52 22 23 17.53 23 12C23 6.48 18.52 2 13 2C7.48 2 3 6.48 3 12C3 12.62 3.42 13 4 13H12V21C12 21.6 12.38 22 13 22Z" fill="white"/>
<path d="M1 18V20H6.96V20.14C5.5 20.44 5 21.41 5 23H6.99C7 21.67 7.68 20.55 9.28 19.97C9.79 19.79 10 19.45 10 19C10 18.55 9.79 18.21 9.28 18.03C7.68 17.45 7 16.33 6.99 15H5C5 16.59 5.5 17.56 6.96 17.86V18H1Z" fill="white"/>
</svg>
