<svg width="24" height="24" viewBox="0 0 24 24" fill="none" xmlns="http://www.w3.org/2000/svg">
<path d="M16.88 14H15V16H21C21.27 16 21.52 15.89 21.71 15.71C21.9 15.52 22 15.27 22 15V3C22 2.45 21.56 2 21 2H3C2.45 2 2 2.45 2 3V13H4V7.12C4 6.49 3.58 6.12 3 6.12V6H4.5C5.32 6 6 5.33 6 4.5V3H6.12C6.12 3.58 6.49 4 7.12 4H16.88C17.51 4 17.88 3.58 17.88 3H18V4.5C18 5.33 18.68 6 19.5 6H21V6.12C20.42 6.12 20 6.49 20 7.12V10.88C20 11.51 20.42 11.88 21 11.88V12H19.5C18.68 12 18 12.67 18 13.5V15H17.88C17.88 14.42 17.51 14 16.88 14ZM10.49 14.04C9.05 13.81 7.67 14.63 7.18 16H11L10 18H7.18C7.58 19.18 8.75 20 10 20C11.06 20 12.07 19.42 12.6 18.5L14.33 19.5C13.45 21.02 11.81 22 10 22C7.66 22 5.58 20.35 5.11 18H3L4 16H5.11C5.6 13.43 8.14 11.63 10.82 12.07C11.85 12.24 12.8 12.73 13.54 13.46L12.13 14.88C11.68 14.44 11.11 14.14 10.49 14.04Z" fill="white"/>
</svg>
