<svg width="24" height="24" viewBox="0 0 24 24" fill="none" xmlns="http://www.w3.org/2000/svg">
<path d="M11 19H13V18.48C13 17.61 12.53 17.12 11.7 17.12V17H13C14.66 17 16 15.66 16 14C16 12.34 14.66 11 13 11H11C10.45 11 10 10.55 10 10C10 9.45 10.45 9 11 9H13C13.55 9 14 9.45 14 10H16C16 8.34 14.66 7 13 7V5H11V5.52C11 6.39 11.47 6.88 12.3 6.88V7H11C9.34 7 8 8.34 8 10C8 11.66 9.34 13 11 13H13C13.55 13 14 13.45 14 14C14 14.55 13.55 15 13 15H11C10.45 15 10 14.55 10 14H8C8 15.66 9.34 17 11 17V19ZM12 22C6.48 22 2 17.52 2 12C2 10.17 2.49 8.44 3.36 6.96C3.79 6.22 3.83 5.6 3.4 4.98L3.48 4.89L6.57 7.98L7.98 6.57L5.67 4.26C7.39 2.85 9.6 2 12 2C17.52 2 22 6.48 22 12C22 13.83 21.5 15.56 20.64 17.04C20.21 17.78 20.17 18.4 20.6 19.02L20.52 19.11L17.41 16L16 17.41L18.33 19.74C16.61 21.15 14.4 22 12 22ZM12 24C18.62 24 24 18.62 24 12C24 5.37 18.63 0 12 0C5.37 0 0 5.37 0 12C0 18.62 5.38 24 12 24Z" fill="white"/>
</svg>
