<svg width="24" height="24" viewBox="0 0 24 24" fill="none" xmlns="http://www.w3.org/2000/svg">
<path d="M13.96 9.12V9H18V7H13.66V6.88C14.74 6.75 15.14 6.42 15.68 5.51L16.82 3.61C17.28 2.85 16.94 2 16 2H8C7.17 2 6.72 2.84 7.21 3.65L9.76 7.93L5.43 13.51C4.4 14.83 4 15.9 4 17.04C4 19.83 6.16 22 8.95 22H15.05C17.83 22 20 19.83 20 17.04C20 15.91 19.61 14.85 18.65 13.61L16.12 10.35C15.54 9.61 15.1 9.25 13.96 9.12ZM14.26 4L12.46 7H11.54L9.74 4H14.26ZM7 14.73L11.46 9H12.53L17.07 14.83C17.76 15.71 18 16.35 18 17.04C18 18.73 16.73 20 15.05 20H8.95C7.26 20 6 18.73 6 17.04C6 16.34 6.24 15.71 7 14.73Z" fill="white"/>
</svg>
