<svg width="24" height="24" viewBox="0 0 24 24" fill="none" xmlns="http://www.w3.org/2000/svg">
<path d="M15.02 6C16.13 6 16.69 5.57 16.88 4.61H17V6C17 8.22 18.8 10 21 10V14C18.82 14 17 15.76 17 18V19.39H16.88C16.69 18.43 16.13 18 15.02 18H8.98C7.87 18 7.31 18.43 7.12 19.39H7V18C7 15.82 5.24 14 3 14V10C5.18 10 7 8.24 7 6V4.61H7.12C7.31 5.57 7.87 6 8.98 6H15.02ZM5 18H3V16C4.07 16 5 16.86 5 18ZM5 6C5 7.08 4.14 8 3 8V6H5ZM15 12C15 13.19 13.44 14 12 14C10.59 14 9 13.21 9 12C9 10.81 10.56 10 12 10C13.41 10 15 10.79 15 12ZM17 12C17 9.65 14.62 8 12 8C9.41 8 7 9.63 7 12C7 14.35 9.38 16 12 16C14.59 16 17 14.37 17 12ZM21 16V18H19C19 16.92 19.86 16 21 16ZM21 6V8C19.93 8 19 7.14 19 6H21ZM23 5C23 4.45 22.55 4 22 4H2C1.45 4 1 4.44 1 5V19C1 19.55 1.45 20 2 20H22C22.55 20 23 19.56 23 19V5Z" fill="white"/>
</svg>
