<svg width="24" height="24" viewBox="0 0 24 24" fill="none" xmlns="http://www.w3.org/2000/svg">
<path d="M22 4.99L4.04 5V4.86C5.5 4.56 6 3.49 6 2H4.01C4 3.33 3.32 4.46 1.72 5.03C1.21 5.21 1 5.55 1 6C1 6.45 1.21 6.79 1.72 6.97C3.32 7.54 4 8.68 4.01 10.01H6C6 8.52 5.5 7.44 4.04 7.14V7L15.02 6.99C16.13 6.99 16.69 6.56 16.88 5.6H17V6.99C17 9.17 18.76 10.99 21 10.99V15C18.82 15 17 16.76 17 19V20.39H16.88C16.69 19.43 16.13 19 15.02 19H8.98C7.87 19 7.31 19.43 7.12 20.39H7V19C7 16.78 5.2 15 3 15V12H1V20C1 20.55 1.45 21 2 21H22C22.55 21 23 20.56 23 20V5.99C23 5.44 22.55 4.99 22 4.99ZM3 19V17C4.09 17 5 17.88 5 19H3ZM21 19H19C19 17.88 19.91 17 21 17V19ZM21 8.99C19.91 8.99 19 8.11 19 6.99H21V8.99Z" fill="white"/>
<path d="M12 17C14.59 17 17 15.37 17 13C17 10.65 14.62 9 12 9C9.41 9 7 10.63 7 13C7 15.35 9.38 17 12 17ZM12 11C13.41 11 15 11.79 15 13C15 14.19 13.44 15 12 15C10.59 15 9 14.21 9 13C9 11.81 10.56 11 12 11Z" fill="white"/>
</svg>
