<svg width="24" height="24" viewBox="0 0 24 24" fill="none" xmlns="http://www.w3.org/2000/svg">
<path d="M10 4.24V2.19C5.4 3.1 2 7.11 2 12C2 17.57 6.43 22 12 22C16.89 22 20.89 18.6 21.8 14H19.75C18.88 17.48 15.78 20 12 20C7.53 20 4 16.47 4 12C4 8.23 6.52 5.11 10 4.24ZM14 6C15.07 6 16 5.07 16 4C16 2.93 15.07 2 14 2C12.94 2 12 2.93 12 4C12 5.07 12.94 6 14 6ZM20 12C21.07 12 22 11.07 22 10C22 8.93 21.07 8 20 8C18.94 8 18 8.93 18 10C18 11.07 18.94 12 20 12ZM13.4 12.01L22 3.42L20.6 2.02L12 10.61L13.4 12.01Z" fill="white"/>
</svg>
