<svg width="24" height="24" viewBox="0 0 24 24" fill="none" xmlns="http://www.w3.org/2000/svg">
<path d="M17.6 5.2L17.8 5C19 5.9 20 5.5 21.2 4.4L19.8 3C18.9 3.9 17.6 4.2 16 3.5C15.5 3.3 15.1 3.4 14.8 3.7C14.5 4 14.4 4.4 14.6 4.9C15.3 6.4 15 7.7 14.1 8.7L15.5 10.1C16.6 9 17 7.9 16.1 6.7L16.2 6.6C17.9 7.8 19 9.8 19 12.1C19 16 15.9 19.1 12 19.1C9.8 19.1 7.9 18.1 6.6 16.5L5.2 17.9C6.8 19.8 9.3 21.1 12 21.1C17 21.1 21 17.1 21 12.1C21 9.2 19.7 6.8 17.6 5.2Z" fill="white"/>
<path d="M6 15.1V10.7H6.1C6.2 11.6 6.8 12.1 7.9 12.1H10V10.1H6V9.1H9C10.7 9.1 12 7.8 12 6.1C12 4.4 10.7 3.1 9 3.1H4V7.1H2V9.1H4V10.1H2V12.1H4V15.1H6ZM6 5.1H9C9.6 5.1 10 5.5 10 6.1C10 6.7 9.6 7.1 9 7.1H6V5.1Z" fill="white"/>
</svg>
