<svg width="24" height="24" viewBox="0 0 24 24" fill="none" xmlns="http://www.w3.org/2000/svg">
<path d="M8 2H4V6H2V8H4V9H2V11H4V14H6V9.6H6.1C6.2 10.5 6.8 11 7.9 11H10V9H6V8H8C9.7 8 11 6.7 11 5C11 3.3 9.7 2 8 2ZM8 6H6V4H8C8.6 4 9 4.4 9 5C9 5.6 8.6 6 8 6Z" fill="white"/>
<path d="M13.4 13.4L20.2 6.6L20.3 6.7C19.5 7.9 19.8 8.9 21 10L22.4 8.6C21.5 7.7 21.2 6.4 21.9 4.8C22.1 4.4 22 4 21.7 3.7C21.4 3.4 21 3.3 20.5 3.5C19 4.2 17.7 3.9 16.7 3L15.3 4.4C16.4 5.5 17.5 5.9 18.7 5L18.8 5.1L12 11.9L13.4 13.4Z" fill="white"/>
<path d="M20.6 12L13.8 18.8L13.7 18.7C14.5 17.5 14.2 16.4 13.1 15.3L11.7 16.7C12.6 17.6 12.9 18.9 12.2 20.5C12 21 12.1 21.4 12.4 21.7C12.7 22 13.1 22.1 13.6 21.9C15.1 21.2 16.4 21.5 17.4 22.4L18.8 21C17.7 19.9 16.6 19.5 15.4 20.4L15.3 20.3L22.1 13.5L20.6 12Z" fill="white"/>
</svg>
