<svg width="24" height="24" viewBox="0 0 24 24" fill="none" xmlns="http://www.w3.org/2000/svg">
<path d="M19.07 5.92L17.66 7.33C19.11 8.78 20 10.78 20 12.99C20 17.41 16.42 20.99 12 20.99C7.58 20.99 4 17.41 4 12.99C4 8.57 7.58 4.99 12 4.99V5.14C10.54 5.44 10.04 6.51 10.04 8H12.04C12.04 6.67 12.71 5.54 14.31 4.97C14.82 4.79 15.03 4.45 15.03 4C15.03 3.55 14.82 3.21 14.31 3.03C12.71 2.46 12.04 1.33 12.04 0H10.04C10.04 1.49 10.54 2.56 12 2.86V2.99C6.48 2.99 2 7.47 2 12.99C2 18.51 6.48 22.99 12 22.99C17.52 22.99 22 18.51 22 12.99C22 10.23 20.88 7.73 19.07 5.92Z" fill="white"/>
<path d="M7.76 8.74C6.67 9.82 6 11.32 6 12.98C6 16.29 8.69 18.98 12 18.98C15.31 18.98 18 16.29 18 12.98C18 11.33 17.33 9.83 16.25 8.74L14.83 10.15C15.55 10.88 16 11.88 16 12.98C16 15.19 14.21 16.98 12 16.98C9.79 16.98 8 15.19 8 12.98C8 11.88 8.44 10.88 9.16 10.16L7.76 8.74Z" fill="white"/>
<path d="M13.99 12.98C13.99 11.88 13.1 10.99 12 10.99C10.9 10.99 10.01 11.88 10.01 12.98C10.01 14.08 10.9 14.97 12 14.97C13.1 14.97 13.99 14.08 13.99 12.98Z" fill="white"/>
</svg>
