<svg width="24" height="24" viewBox="0 0 24 24" fill="none" xmlns="http://www.w3.org/2000/svg">
<path d="M22.92 18.79L19.89 7.17C19.55 5.88 18.4 5 17 5H14.42L14.67 4.75C14.89 4.53 15 4.27 15 4.01C15 3.76 14.89 3.51 14.69 3.31C14.49 3.11 14.24 3.01 13.99 3.01C13.73 3.01 13.46 3.12 13.25 3.33L11.996 4.584L10.75 3.33C10.54 3.11 10.28 3 10.02 3C9.76 3 9.51 3.11 9.31 3.31C9.11 3.51 9 3.76 9 4.01C9 4.27 9.11 4.53 9.33 4.75L9.58 5H7C5.52 5 4.42 5.99 4.06 7.38L1.08 18.79C1.02 19.02 1 19.24 1 19.44C1 20.43 1.66 21 2.83 21H21.17C22.34 21 23 20.43 23 19.44C23 19.24 22.98 19.02 22.92 18.79ZM7 7H17C17.59 7 18 7.41 18 8C18 8.59 17.59 9 17 9H7C6.41 9 6 8.59 6 8C6 7.41 6.41 7 7 7ZM3.08 19L4.79 12.85C5.01 12.07 5.07 11.43 5.07 10.82C5.07 10.667 5.064 10.518 5.053 10.369L5.157 10.331C5.617 10.904 6.284 11 7 11H17C17.704 11 18.378 10.904 18.841 10.33L18.947 10.369C18.936 10.518 18.93 10.668 18.93 10.82C18.93 11.43 18.99 12.07 19.21 12.85L20.92 19H3.08Z" fill="white"/>
</svg>
