<svg width="48" height="48" viewBox="0 0 48 48" fill="none" xmlns="http://www.w3.org/2000/svg">
<rect width="48" height="48" rx="12" fill="#2B2D33"/>
<path d="M17.3718 33.7272L24 27.0433L30.6282 33.7272L33.2577 31.0782L26.6285 24.3919L28.0113 22.9963V20.2408L28.9723 19.2713V21.6743L29.8079 22.5177L33.1687 19.1274L34 19.9654C33.9937 19.3332 33.8686 17.5035 32.3295 15.978C30.669 14.3668 28.8757 15.0928 28.2625 15.7119L24.9043 19.1006L25.7607 19.9637L24 21.7406L22.2389 19.9637L23.0957 19.1006L19.7369 15.7119C19.1236 15.0928 17.3303 14.3668 15.6698 15.978C14.1311 17.5035 14.006 19.3332 14 19.9654L14.8313 19.1274L18.1918 22.5177L19.0277 21.6743V19.2713L19.9881 20.2408V22.9963L21.3708 24.3919L14.742 31.0782L17.3718 33.7272Z" fill="#FEE600"/>
</svg>
