<svg width="48" height="48" viewBox="0 0 48 48" fill="none" xmlns="http://www.w3.org/2000/svg">
<rect width="48" height="48" rx="12" fill="#2B2D33"/>
<path d="M17.002 15.2938L14.0039 18.2919L15.4252 19.7132L18.4233 16.7151L17.002 15.2938Z" fill="#FEE600"/>
<path d="M21.9201 29.71L24.2101 27.41L26.5001 29.71L27.9201 28.29L25.6301 26L27.9201 23.71L26.5001 22.29L24.2101 24.59L21.9201 22.29L20.5001 23.71L22.8001 26L20.5001 28.29L21.9201 29.71Z" fill="#FEE600"/>
<path d="M30.7101 15H23.1301C22.6001 15 22.0901 15.21 21.7101 15.59L16.0001 21.29C15.8201 21.48 15.7101 21.73 15.7101 22V32C15.7101 32.55 16.1601 33 16.7101 33H31.7101C32.2601 33 32.7101 32.55 32.7101 32V17C32.7101 15.9 31.8201 15 30.7101 15ZM30.7101 31H17.7101V22.41L19.1301 21H30.7101V31ZM32.0801 19H19.7401V18.88C20.7401 18.88 21.4401 18.68 22.0801 18.05L23.1301 17H30.7101V17.68C30.7101 18.39 31.1001 18.88 32.0801 18.88V19Z" fill="#FEE600"/>
</svg>
