<svg width="48" height="48" viewBox="0 0 48 48" fill="none" xmlns="http://www.w3.org/2000/svg">
<rect width="48" height="48" rx="12" fill="#2B2D33"/>
<path d="M18.93 31.22V31.1C19.67 31.1 20.18 30.81 20.25 30.21L20.38 29.22H24.65L24.76 30.21C24.83 30.81 25.35 31.1 26.08 31.1V31.22H18.93ZM29.83 22.53L32.73 21.75C33.14 21.64 33.44 21.28 33.47 20.85L33.66 17.69C33.67 17.48 33.61 17.26 33.49 17.08L31.75 14.44C31.51 14.08 31.07 13.92 30.66 14.03L27.76 14.8C27.23 14.95 26.91 15.49 27.05 16.03L27.57 17.95L25.4 18.51L24.99 16.06C24.91 15.57 24.49 15.22 24 15.22H21C20.5 15.22 20.07 15.6 20.01 16.1L19.52 20.02L14.75 21.25C14.31 21.37 14 21.76 14 22.22V29.22H16V23L19.25 22.16L18.12 31.22H14V33.22H32V31.22H26.89L25.66 20.51L28.09 19.88L28.61 21.82C28.75 22.36 29.3 22.67 29.83 22.53ZM30.28 20.34L29.24 16.48L30.48 16.15L31.64 17.9L31.52 20.01L30.28 20.34ZM21.6 19.49L21.88 17.22H23.15L23.45 19.01L21.6 19.49ZM21.13 23.22L21.33 21.62L23.7 21.01L23.96 23.22H21.13ZM20.63 27.22L20.88 25.22H24.19L24.42 27.22H20.63ZM32 21.69L31.32 21.94L31.37 22.24C30.48 22.59 30 23.22 30 24.2V29.22H32V21.69Z" fill="#FEE600"/>
</svg>
