<svg width="48" height="48" viewBox="0 0 48 48" fill="none" xmlns="http://www.w3.org/2000/svg">
<rect width="48" height="48" rx="12" fill="#2B2D33"/>
<path d="M32.82 32L30.82 22H26.18L25.85 20H21.57V19.88C22.49 19.76 23 19.15 23 18.1V18C23 16.84 23.86 16 25 16H33V14H25C22.73 14 21 15.75 21 18V20H18.15L16.15 32H14V34H35V32H32.82ZM18.18 32L19.85 22H24.15L25.82 32H18.18ZM32.06 32H27.85L26.31 22.74H26.43C26.69 23.62 27.06 24 28.23 24H29.18L30.49 30.53C30.64 31.26 31.18 31.75 32.06 31.88V32Z" fill="#FEE600"/>
<path d="M34 18H28V20H34V18Z" fill="#FEE600"/>
</svg>
