<svg width="48" height="48" viewBox="0 0 48 48" fill="none" xmlns="http://www.w3.org/2000/svg">
<rect width="48" height="48" rx="12" fill="#2B2D33"/>
<path d="M27 21V15H27.12C27.18 15.63 27.63 16 28.4 16H29C30.14 16 31 16.87 31 18C31 19.13 30.15 20 29 20H28.4C27.63 20 27.18 20.37 27.12 21H27ZM21.65 24C21.69 23.88 21.73 23.77 21.79 23.66L22.62 22H25C25 23.12 24.23 24 23 24H21.65ZM16 20V16H25V20H16ZM16 28V27.88C16.63 27.82 17 27.37 17 26.6V23.4C17 22.63 16.63 22.18 16 22.12V22H20.38L20 22.76C19.3 24.17 19.3 25.83 20 27.24L20.38 28H16ZM16 32V30H23V32H16ZM14 33C14 33.55 14.45 34 15 34H24C24.55 34 25 33.55 25 33V29C25 28.45 24.55 28 24 28H22.62L21.79 26.34C21.73 26.23 21.69 26.12 21.65 26H23C25.27 26 27 24.31 27 22H29C30.91 22 32.46 20.73 32.88 19H36V17H32.88C32.47 15.27 30.92 14 29 14H15C14.45 14 14 14.45 14 15V21C14 21.55 14.45 22 15 22V28C14.45 28 14 28.45 14 29V33Z" fill="#FEE600"/>
</svg>
