<svg width="48" height="48" viewBox="0 0 48 48" fill="none" xmlns="http://www.w3.org/2000/svg">
<rect width="48" height="48" rx="12" fill="#2B2D33"/>
<path d="M26.3535 19.5538C25.7847 20.1225 25.7847 21.064 26.3633 21.6426C26.9419 22.2114 27.8638 22.2114 28.4424 21.6426C29.021 21.064 29.021 20.1324 28.4424 19.5538C27.8638 18.985 26.9321 18.9751 26.3535 19.5538ZM16.1054 28.0268L14.4677 32.2241C14.3304 32.5772 14.4186 33.0087 14.703 33.2833C14.9776 33.5677 15.4091 33.6657 15.772 33.5186L19.9595 31.8907C20.999 31.4788 21.4991 30.6747 21.6463 29.7528L21.8816 28.272C21.8816 28.272 21.4697 29.1252 20.6852 29.439L18.5375 30.302C17.7824 30.6158 17.3018 30.8708 16.7625 31.3023L16.684 31.2239C17.1155 30.6845 17.3803 30.2138 17.6843 29.4488L18.5473 27.3011C18.8611 26.5166 19.7241 26.1047 19.7241 26.1047L18.2335 26.3401C17.3116 26.4872 16.5075 26.9873 16.1054 28.0268ZM17.9099 20.8581C18.0766 20.5639 18.4296 20.3873 18.7631 20.4266L21.0775 20.76C21.4011 20.7992 21.7443 20.6815 21.9601 20.4069C26.1868 15.0818 30.5312 15.837 31.7963 16.19C32.1493 17.4551 32.7672 21.6622 27.5794 26.0361C27.3244 26.2518 27.1969 26.5852 27.2459 26.9285L27.5598 29.2331C27.6088 29.5665 27.4421 29.9294 27.1577 30.0765L24.804 31.4102L24.5981 28.5074C24.5785 28.272 24.4804 28.0563 24.3137 27.8895L20.1066 23.6922C19.9399 23.5157 19.7241 23.4176 19.4888 23.398L16.5859 23.1921L17.9099 20.8581ZM16.2035 19.8676L14.1244 23.5745C13.7812 24.1924 14.1833 24.9769 14.8992 25.0259L18.9788 25.33L22.6662 29.0271L22.9702 33.097C23.0192 33.8227 23.8037 34.2247 24.4314 33.8815L28.1482 31.773C29.119 31.2239 29.6584 30.0765 29.5113 28.9781C29.4427 28.4485 29.3348 27.6836 29.2563 27.1736C36.0426 21.1915 33.5909 15.2878 33.4733 15.0328C33.3654 14.7975 33.1987 14.6111 32.9633 14.5229C32.7083 14.415 26.7948 11.9535 20.8127 18.7398C20.3125 18.6613 19.5378 18.5633 19.018 18.4848C17.9197 18.3279 16.7625 18.8771 16.2035 19.8676Z" fill="#FEE600"/>
</svg>
