<svg width="48" height="48" viewBox="0 0 48 48" fill="none" xmlns="http://www.w3.org/2000/svg">
<rect width="48" height="48" rx="12" fill="#2B2D33"/>
<path d="M17.5401 23V22.88C18.8401 22.81 19.0501 22.27 20.0001 21C20.9101 19.79 22.3601 19 24.0001 19C25.6401 19 27.0901 19.79 28.0001 21C28.9501 22.27 29.1601 22.81 30.4601 22.88V23H17.5401ZM18.9501 28L16.2501 25H31.7601L29.0601 28H18.9501ZM15.2101 34.21L19.4201 30H23.0001V34H25.0001V30H28.5901L32.7901 34.21L34.2101 32.8L30.6401 29.23L34.7501 24.67C35.0101 24.38 35.0901 23.96 34.9201 23.6C34.7501 23.24 34.4001 23 34.0001 23H30.9301C30.4901 19.94 28.0701 17.51 25.0001 17.07V14H23.0001V17.07C19.9401 17.51 17.5101 19.94 17.0701 23H14.0001C13.6101 23 13.2501 23.24 13.0901 23.6C12.9301 23.96 13.0001 24.38 13.2601 24.67L17.3601 29.23L13.7901 32.8L15.2101 34.21Z" fill="#FEE600"/>
</svg>
