<svg width="48" height="48" viewBox="0 0 48 48" fill="none" xmlns="http://www.w3.org/2000/svg">
<rect width="48" height="48" rx="12" fill="#2B2D33"/>
<path d="M24 24.6L20.4 28.3L19 26.8L22.6 23.1L21.8 22.4V20.9L21.3 20.4V21.7L20.8 22.1L19 20.3L18.5 20.7C18.5 20.4 18.6 19.3 19.4 18.5C20.3 17.6 21.3 18 21.6 18.4L23.4 20.3L23 20.7L24 21.7L25 20.7L24.5 20.2L26.3 18.3C26.6 18 27.6 17.6 28.5 18.4C29.3 19.2 29.4 20.2 29.4 20.6L29 20.3L27.2 22.2L26.7 21.7V20.4L26.2 20.9V22.4L25.4 23.2L29 26.9L27.6 28.4L24 24.6Z" fill="#FEE600"/>
<path d="M33 14H15C14.4 14 14 14.5 14 15V31C14 31.5 14.4 32 15 32H17.9C18.5 32 18.9 31.6 18.9 31H19V34C19 35 19.9 35.3 20.7 34.7L24.3 32H33C33.5 32 34 31.5 34 31V15C34 14.5 33.5 14 33 14ZM32 30H24C23.8 30 23.6 30.1 23.4 30.2L21 32V31C21 30.5 20.5 30 20 30H16V16H32V30Z" fill="#FEE600"/>
</svg>
