<svg width="48" height="48" viewBox="0 0 48 48" fill="none" xmlns="http://www.w3.org/2000/svg">
<rect width="48" height="48" rx="12" fill="#2B2D33"/>
<path d="M24 14C18.5 14 14 18.5 14 24C14 26.2 14.7 28.3 16 30H19C19.6 30 20 29.6 20 29V24C20 23.4 19.6 23 19 23H15V22.9C15.7 22.9 16.1 22.6 16.2 22C17.1 18.6 20.2 16 24 16C27.8 16 30.9 18.6 31.8 22C31.9 22.6 32.3 22.9 33 22.9V23H29C28.4 23 28 23.4 28 24V29C28 29.6 28.4 30 29 30H29.3C27.9 31.2 26 32 24 32V34C29.5 34 34 29.5 34 24C34 18.5 29.5 14 24 14ZM18 28H17.1C16.6 27.1 16.2 26.1 16.1 25H18V28ZM30 25H31.9C31.8 26.1 31.4 27.1 30.9 28H30V25Z" fill="#FEE600"/>
</svg>
