<svg width="48" height="48" viewBox="0 0 48 48" fill="none" xmlns="http://www.w3.org/2000/svg">
<rect width="48" height="48" rx="12" fill="#2B2D33"/>
<path d="M31.9104 23.1C31.9104 22.5 31.9104 22.2 31.9104 22C31.9104 17.6 28.3284 14 23.9502 14C19.5721 14 15.99 17.6 15.99 22C15.99 22.2 15.99 22.6 15.99 23.1C15.99 25.7 14 25.1 14 28V30C14 31.7 15.2935 33 16.9851 33H18.9751C19.4726 33 19.9701 32.5 19.9701 32V26C19.9701 25.4 19.5721 25 18.9751 25H16.9851C16.7861 25 16.6866 25 16.5871 25V24.9C17.2836 24.7 17.9801 24.1 17.9801 23.1C17.9801 22.5 17.9801 22.1 17.9801 22C17.9801 18.7 20.6667 16 23.9502 16C27.2338 16 29.9204 18.7 29.9204 22C29.9204 22.2 29.9204 22.5 29.9204 23.1C29.9204 24.1 30.6169 24.7 31.4129 24.9V25C31.3134 25 31.1144 25 31.0149 25H29.0249C28.5274 25 28.0299 25.5 28.0299 26V32C28.0299 32.6 28.4279 33 29.0249 33H31.0149C32.607 33 34 31.7 34 30V28C33.9005 25.1 31.9104 25.8 31.9104 23.1ZM17.9801 27V31H16.9851C16.4876 31 15.99 30.5 15.99 30V28C15.99 27.4 16.3881 27 16.9851 27H17.9801ZM31.9104 30C31.9104 30.6 31.5124 31 30.9154 31H29.9204V27H30.9154C31.4129 27 31.9104 27.5 31.9104 28V30Z" fill="#FEE600"/>
</svg>
