<svg width="48" height="48" viewBox="0 0 48 48" fill="none" xmlns="http://www.w3.org/2000/svg">
<rect width="48" height="48" rx="12" fill="#2B2D33"/>
<path d="M18.198 18.1799C16.3593 18.9587 14.6901 20.0996 13.285 21.5363L14.7149 22.9346C15.9363 21.6857 17.3851 20.6962 18.978 20.0216C20.5709 19.3469 22.2773 19 24 19C25.7227 19 27.4291 19.3469 29.0219 20.0216C30.6148 20.6962 32.0636 21.6857 33.2851 22.9346L34.7149 21.5363C33.3099 20.0996 31.6407 18.9587 29.802 18.1799C27.9632 17.4011 25.9916 17 24 17C22.0084 17 20.0368 17.4011 18.198 18.1799Z" fill="#FEE600"/>
<path d="M19.7443 21.9971C18.3958 22.5682 17.172 23.4048 16.1422 24.4578L17.5721 25.8562C18.4183 24.9909 19.4216 24.3057 20.5243 23.8387C21.6269 23.3717 22.8079 23.1316 24 23.1316C25.1921 23.1316 26.3731 23.3717 27.4757 23.8387C28.5783 24.3057 29.5817 24.9909 30.4279 25.8562L31.8578 24.4578C30.828 23.4048 29.6042 22.5682 28.2557 21.9971C26.9071 21.4259 25.461 21.1316 24 21.1316C22.539 21.1316 21.0928 21.4259 19.7443 21.9971Z" fill="#FEE600"/>
<path d="M21.2906 25.8142C20.4323 26.1777 19.654 26.7099 18.9993 27.3793L20.4292 28.7777C20.9002 28.2961 21.4581 27.9152 22.0706 27.6559C22.683 27.3965 23.3385 27.2633 24 27.2633C24.6615 27.2633 25.317 27.3965 25.9294 27.6559C26.5418 27.9152 27.0998 28.2961 27.5708 28.7777L29.0006 27.3793C28.346 26.7099 27.5677 26.1777 26.7094 25.8142C25.8511 25.4507 24.9304 25.2633 24 25.2633C23.0696 25.2633 22.1489 25.4507 21.2906 25.8142Z" fill="#FEE600"/>
<path d="M24 33C25.1046 33 26 32.1046 26 31C26 29.8954 25.1046 29 24 29C22.8954 29 22 29.8954 22 31C22 32.1046 22.8954 33 24 33Z" fill="#FEE600"/>
</svg>
