<svg width="48" height="48" viewBox="0 0 48 48" fill="none" xmlns="http://www.w3.org/2000/svg">
<rect width="48" height="48" rx="12" fill="#2B2D33"/>
<path d="M21 25V21H23V25H21Z" fill="#FEE600"/>
<path fill-rule="evenodd" clip-rule="evenodd" d="M22 28C25.9 28 29 24.9 29 21C29 17.1 25.9 14 22 14C18.1 14 15 17.1 15 21C15 24.9 18.1 28 22 28ZM27 21C27 23.8 24.8 26 22 26C19.2 26 17 23.8 17 21C17 18.2 19.2 16 22 16C24.8 16 27 18.2 27 21Z" fill="#FEE600"/>
<path d="M32 16H29V14H32C33.1 14 34 14.9 34 16V32C34 33.1 33.1 34 32 34H22C20.9 34 20 33.1 20 32V30H22V32H32V16Z" fill="#FEE600"/>
<path d="M22 20.1C22.8284 20.1 23.5 19.4284 23.5 18.6C23.5 17.7716 22.8284 17.1 22 17.1C21.1716 17.1 20.5 17.7716 20.5 18.6C20.5 19.4284 21.1716 20.1 22 20.1Z" fill="#FEE600"/>
<path d="M27 30.5C27.8284 30.5 28.5 29.8284 28.5 29C28.5 28.1716 27.8284 27.5 27 27.5C26.1716 27.5 25.5 28.1716 25.5 29C25.5 29.8284 26.1716 30.5 27 30.5Z" fill="#FEE600"/>
</svg>
