<svg width="48" height="48" viewBox="0 0 48 48" fill="none" xmlns="http://www.w3.org/2000/svg">
<rect width="48" height="48" rx="12" fill="#2B2D33"/>
<path d="M24.3 29C27.1 29 29.3 26.8 29.3 24H27.3C27.3 25.7 26 27 24.3 27V29ZM21.3 24C21.3 22.3 22.6 21 24.3 21C24.8 21 25.2 21.1 25.6 21.3L21.6 25.3C21.5 24.9 21.3 24.5 21.3 24ZM19.8 30L30.8 19H32.3V30H19.8ZM15.5 31.3C16.1 30.6 16.3 30.1 16.3 29V19H19.3C19.6 19 19.8 18.9 20 18.7L21.8 17H27L27.2 17.2C27.8 17.9 28.8 17.8 29.5 17.3L29.6 17.4L27.2 19.8C26.3 19.3 25.4 19 24.3 19C21.5 19 19.3 21.2 19.3 24C19.3 25 19.6 26 20.2 26.8L15.5 31.3ZM14 33L15.4 34.4L17.8 32H33.3C33.9 32 34.3 31.6 34.3 31V18C34.3 17.5 33.9 17 33.3 17H32.8L34.4 15.4L33 14L30 17H29.8L28.1 15.3C27.9 15.1 27.6 15 27.3 15H21.3C21.1 15 20.8 15.1 20.6 15.3L19 16.9L18.9 17H18.3V15H16.3V15.9C16.3 16.5 16.7 16.9 17.3 16.9V17H15.3C14.7 17 14.3 17.5 14.3 18V31C14.3 31.4 14.6 31.8 15 31.9L14 33Z" fill="#FEE600"/>
</svg>
