<svg width="48" height="48" viewBox="0 0 48 48" fill="none" xmlns="http://www.w3.org/2000/svg">
<rect width="48" height="48" rx="12" fill="#2B2D33"/>
<path d="M25 15V24H25.1C25.4 22.5 26.5 22 28 22V24C26.7 24 25.5 24.7 25 26.3C24.8 26.8 24.5 27 24 27C23.5 27 23.2 26.8 23 26.3C22.5 24.7 21.3 24 20 24V22C21.5 22 22.6 22.5 22.9 24H23V15H25Z" fill="#FEE600"/>
<path d="M16 30H32C32.6 30 33 29.5 33 29V18C33 17.4 32.6 17 32 17H27V19H31V28H17V20.9C17 19.8 16.5 19.3 15.6 19.1V19H21V17H16C15.4 17 15 17.4 15 18V29C15 29.5 15.4 30 16 30Z" fill="#FEE600"/>
<path d="M13 32V33C13 33.5 13.4 34 14 34H34C34.6 34 35 33.5 35 33V32H13Z" fill="#FEE600"/>
</svg>
