<svg width="48" height="48" viewBox="0 0 48 48" fill="none" xmlns="http://www.w3.org/2000/svg">
<rect width="48" height="48" rx="12" fill="#2B2D33"/>
<path d="M24 30.5C24.6904 30.5 25.25 29.9404 25.25 29.25C25.25 28.5596 24.6904 28 24 28C23.3096 28 22.75 28.5596 22.75 29.25C22.75 29.9404 23.3096 30.5 24 30.5Z" fill="#FEE600"/>
<path fill-rule="evenodd" clip-rule="evenodd" d="M18 14C16.3431 14 15 15.3431 15 17V31C15 32.6569 16.3431 34 18 34H30C31.6569 34 33 32.6569 33 31V17C33 15.3431 31.6569 14 30 14H18ZM17 17C17 16.4477 17.4477 16 18 16H30C30.5523 16 31 16.4477 31 17V31C31 31.5523 30.5523 32 30 32H18C17.4477 32 17 31.5523 17 31V17Z" fill="#FEE600"/>
</svg>
