<svg width="48" height="48" viewBox="0 0 48 48" fill="none" xmlns="http://www.w3.org/2000/svg">
<rect width="48" height="48" rx="12" fill="#2B2D33"/>
<path d="M29.0615 14.609C28.0909 14.2069 27.0506 14 26 14V16C26.7879 16 27.5681 16.1552 28.2961 16.4567C29.0241 16.7583 29.6855 17.2002 30.2426 17.7574C30.7998 18.3145 31.2417 18.9759 31.5433 19.7039C31.8448 20.4319 32 21.2121 32 22H34C34 20.9494 33.7931 19.9091 33.391 18.9385C32.989 17.9679 32.3997 17.086 31.6569 16.3431C30.914 15.6003 30.0321 15.011 29.0615 14.609Z" fill="#FEE600"/>
<path fill-rule="evenodd" clip-rule="evenodd" d="M17.3872 15.1985C18.3073 14.2785 19.847 14.468 20.5164 15.5838L22.4558 18.816C22.9279 19.6029 22.8039 20.6103 22.155 21.2592L21.1286 22.2856C21.3384 22.7157 21.8646 23.5457 23.1595 24.8405C24.4543 26.1354 25.2843 26.6616 25.7144 26.8714L26.7408 25.845C27.3897 25.196 28.397 25.072 29.184 25.5442L32.4162 27.4836C33.532 28.153 33.7215 29.6927 32.8014 30.6128L30.2929 33.1213C29.7364 33.6777 28.933 34.037 28.0525 33.9273C26.3057 33.7098 22.3596 32.8308 18.7381 29.2747C15.0825 25.6852 14.2469 21.6662 14.0565 19.9134C13.9625 19.0472 14.3213 18.2645 14.8655 17.7203L17.3872 15.1985ZM18.8015 16.6128L16.2797 19.1345C16.0895 19.3248 16.0268 19.5309 16.0448 19.6975C16.2052 21.1743 16.9247 24.6911 20.1394 27.8477C23.3466 30.997 26.8229 31.7587 28.2996 31.9426C28.4718 31.9641 28.6849 31.9008 28.8787 31.7071L31.3872 29.1985L28.155 27.2592L26.9767 28.4375C26.6375 28.7767 26.0183 29.1121 25.3024 28.8642C24.6087 28.6241 23.4668 27.9763 21.7452 26.2547C20.0237 24.5332 19.3759 23.3913 19.1358 22.6976C18.8879 21.9816 19.2233 21.3625 19.5625 21.0233L20.7408 19.845L18.8015 16.6128Z" fill="#FEE600"/>
<path d="M26 18C26.5253 18 27.0454 18.1035 27.5307 18.3045C28.016 18.5055 28.457 18.8001 28.8284 19.1716C29.1999 19.543 29.4945 19.984 29.6955 20.4693C29.8965 20.9546 30 21.4747 30 22H28C28 21.7374 27.9483 21.4773 27.8478 21.2346C27.7472 20.992 27.5999 20.7715 27.4142 20.5858C27.2285 20.4001 27.008 20.2527 26.7654 20.1522C26.5227 20.0517 26.2626 20 26 20V18Z" fill="#FEE600"/>
</svg>
