<svg width="48" height="48" viewBox="0 0 48 48" fill="none" xmlns="http://www.w3.org/2000/svg">
<rect width="48" height="48" rx="12" fill="#2B2D33"/>
<path fill-rule="evenodd" clip-rule="evenodd" d="M17.6728 14.9188C18.5929 13.9988 20.1326 14.1883 20.802 15.3041L22.7414 18.5363C23.2135 19.3232 23.0895 20.3306 22.4406 20.9795L21.4142 22.0059C21.624 22.436 22.1502 23.266 23.445 24.5608C24.7399 25.8557 25.5699 26.3819 26 26.5917L27.0264 25.5653C27.6753 24.9163 28.6826 24.7923 29.4696 25.2645L32.7018 27.2038C33.8175 27.8733 34.0071 29.413 33.087 30.3331L30.5785 32.8416C30.022 33.398 29.2186 33.7573 28.3381 33.6476C26.5913 33.4301 22.6451 32.5511 19.0237 28.995C15.3681 25.4055 14.5325 21.3865 14.3421 19.6337C14.2481 18.7675 14.6068 17.9848 15.1511 17.4406L17.6728 14.9188ZM19.087 16.3331L16.5653 18.8548C16.375 19.0451 16.3123 19.2512 16.3304 19.4178C16.4908 20.8946 17.2103 24.4114 20.425 27.568C23.6322 30.7173 27.1085 31.479 28.5852 31.6629C28.7574 31.6844 28.9705 31.6211 29.1642 31.4274L31.6728 28.9188L28.4406 26.9795L27.2623 28.1578C26.9231 28.497 26.3039 28.8324 25.5879 28.5845C24.8943 28.3444 23.7523 27.6965 22.0308 25.975C20.3093 24.2535 19.6615 23.1116 19.4213 22.4179C19.1735 21.7019 19.5089 21.0828 19.8481 20.7436L21.0264 19.5653L19.087 16.3331Z" fill="#FEE600"/>
</svg>
