<svg width="48" height="48" viewBox="0 0 48 48" fill="none" xmlns="http://www.w3.org/2000/svg">
<rect width="48" height="48" rx="12" fill="#2B2D33"/>
<path d="M30.4 31.7C32.6 29.9 34 27.1 34 24C34 20.9 32.6 18.2 30.4 16.3L29.1 17.8C30.9 19.3 32 21.5 32 24C32 26.5 30.9 28.7 29.1 30.1L30.4 31.7ZM27.9 28.6C29.2 27.5 30 25.8 30 24C30 22.2 29.2 20.5 27.9 19.4L26.6 20.9C27.4 21.7 28 22.8 28 24C28 25.2 27.4 26.3 26.6 27.1L27.9 28.6ZM14.6 21H18C18.2 21 18.5 20.9 18.6 20.8L23 17.1V30.8L18.6 27.2C18.5 27.1 18.2 27 18 27H16V22.9C16 21.8 15.5 21.3 14.6 21.1V21ZM24.4 33.9C24.7 33.7 25 33.4 25 33V15C25 14.6 24.8 14.3 24.4 14.1C24.1 13.9 23.7 14 23.4 14.2L17.6 19H15C14.4 19 14 19.5 14 20V28C14 28.6 14.4 29 15 29H17.6L23.3 33.8C23.7 34 24.1 34.1 24.4 33.9Z" fill="#FEE600"/>
</svg>
