<svg width="48" height="48" viewBox="0 0 48 48" fill="none" xmlns="http://www.w3.org/2000/svg">
<rect width="48" height="48" rx="12" fill="#2B2D33"/>
<path d="M26 22H24V24H26V22Z" fill="#FEE600"/>
<path d="M26 26H24V28H26V26Z" fill="#FEE600"/>
<path d="M30 22H28V24H30V22Z" fill="#FEE600"/>
<path d="M32 14H23V16H31V30H23V31C23 32.1 22.1 33 21 33C20.3 33 19.6 32.6 19.3 32H20C20.5 32 21 31.6 21 31V15C21 14.5 20.5 14 20 14H16C15.4 14 15 14.5 15 15V31C15 31.6 15.4 32 16 32H17.1C17.5 33.7 19.1 35 21 35C23.2 35 25 33.2 25 31V30.6H25.1C25.1 31.4 25.6 32 26.5 32H32C32.5 32 33 31.6 33 31V15C33 14.5 32.5 14 32 14ZM17 16H19V30H17V16Z" fill="#FEE600"/>
<path d="M30 26H28V28H30V26Z" fill="#FEE600"/>
<path d="M30 18H24V20H30V18Z" fill="#FEE600"/>
</svg>
