<svg width="24" height="24" viewBox="0 0 24 24" fill="none" xmlns="http://www.w3.org/2000/svg">
<path d="M8 9.99C8 9.44 8.45 8.99 9 8.99C9.55 8.99 10 9.44 10 9.99C10 10.55 9.55 10.99 9 10.99C8.45 10.99 8 10.55 8 9.99ZM8 19.4V15.99C8 15.44 8.45 14.99 9 14.99C9.55 14.99 10 15.44 10 15.99V20.29L8 19.4ZM6 9.99C6 11.65 7.35 12.99 9 12.99C10.66 12.99 12 11.65 12 9.99C12 8.34 10.66 6.99 9 6.99C7.35 6.99 6 8.34 6 9.99ZM4 16.32V7.67C4 6.79 4.38 6.2 5.19 5.84L11.19 3.18C11.45 3.06 11.73 3.01 12 3.01C12.28 3.01 12.56 3.07 12.81 3.18L18.81 5.84C19.43 6.11 19.79 6.48 19.9 6.99H14V8.99H18.13C19.17 8.99 19.7 8.52 19.88 7.54H20V10.99H14V12.99H18.13C19.17 12.99 19.7 12.52 19.88 11.54H20V14.99H14V16.99H18.13C19.17 16.99 19.7 16.51 19.88 15.52H20V16.27C20 17.29 19.68 17.76 18.81 18.15L12.81 20.82C12.56 20.93 12.28 20.99 12 20.99V15.99C12 14.34 10.66 12.99 9 12.99C7.35 12.99 6 14.34 6 15.99V18.51L5.19 18.15C4.39 17.8 4 17.2 4 16.32ZM2 16.32C2 17.95 2.86 19.3 4.38 19.98L10.38 22.65C10.9 22.88 11.45 23 12 23C12.56 23 13.11 22.88 13.63 22.65L19.63 19.98C21.14 19.31 22 17.95 22 16.32V7.67C22 6.04 21.14 4.69 19.63 4.02L13.63 1.35C13.11 1.12 12.56 1 12 1C11.45 1 10.9 1.12 10.38 1.35L4.38 4.02C2.86 4.7 2 6.04 2 7.67V16.32Z" fill="#2B2D33"/>
</svg>
