<svg width="24" height="24" viewBox="0 0 24 24" fill="none" xmlns="http://www.w3.org/2000/svg">
<path d="M13 5V3H16V5H13ZM7.42 13C8.17 11.18 9.96 10 12 10C14.03 10 15.87 11.19 16.58 13H7.42ZM17 18.09L15 17.64V15H17V18.09ZM11 17.2V15H13V17.2L12.22 17.02C12.08 16.99 11.93 16.99 11.78 17.02L11 17.2ZM7 18.09V15H9V17.64L7 18.09ZM2 23H4V20.8L12 19.02L20 20.8V23H22V20C22 19.53 21.68 19.13 21.22 19.02L19 18.53V15H20V13H18.71C17.94 10.36 15.72 8.45 13 8.07V5.7H13.12C13.12 6.37 13.67 7 14.68 7H17C17.55 7 18 6.55 18 6V2C18 1.45 17.55 1 17 1H12C11.45 1 11 1.45 11 2V8.07C8.28 8.45 6.05 10.36 5.29 13H4V15H5V18.53L2.78 19.02C2.33 19.13 2 19.53 2 20V23Z" fill="#2B2D33"/>
</svg>
