<svg width="24" height="24" viewBox="0 0 24 24" fill="none" xmlns="http://www.w3.org/2000/svg">
<path d="M12.81 3.18C12.56 3.07 12.28 3.01 12 3.01C11.73 3.01 11.45 3.06 11.19 3.18L5.19 5.84C4.42 6.18 4 6.83 4 7.67V16.32C4 17.16 4.42 17.81 5.19 18.15L11.19 20.82C11.45 20.94 11.73 20.99 12 20.99C12.28 20.99 12.56 20.93 12.81 20.82L18.81 18.15C19.61 17.79 20 17.16 20 16.32V7.67C20 6.83 19.61 6.19 18.81 5.84L12.81 3.18ZM10.38 1.35C10.9 1.12 11.45 1 12 1C12.56 1 13.11 1.12 13.63 1.35L19.63 4.02C21.14 4.69 22 6.04 22 7.67V16.32C22 17.95 21.14 19.31 19.63 19.98L13.63 22.65C13.11 22.88 12.56 23 12 23C11.45 23 10.9 22.88 10.38 22.65L4.38 19.98C2.88 19.31 2 17.95 2 16.32V7.67C2 6.04 2.88 4.69 4.38 4.02L10.38 1.35ZM9 10.99C8.45 10.99 8 11.44 8 11.99C8 12.55 8.45 12.99 9 12.99C9.55 12.99 10 12.55 10 11.99C10 11.44 9.55 10.99 9 10.99ZM12 11.99C12 13.65 10.65 14.99 9 14.99C7.35 14.99 6 13.65 6 11.99C6 10.34 7.35 8.99 9 8.99C10.31 8.99 11.42 9.83 11.83 10.99H17C17.55 10.99 18 11.44 18 11.99V14.99H16V12.99H13.43C12.52 12.99 12.18 12.69 12.12 11.99H12Z" fill="#2B2D33"/>
</svg>
