<svg width="24" height="24" viewBox="0 0 24 24" fill="none" xmlns="http://www.w3.org/2000/svg">
<path d="M21.29 15H2.71V14.88C3.83 14.85 4.06 14.58 4.38 13.57C4.76 12.37 5.43 11.26 6.35 10.34C7.85 8.84 9.88 8 12 8C14.12 8 16.15 8.84 17.65 10.34C18.57 11.26 19.24 12.37 19.62 13.57C19.94 14.58 20.17 14.85 21.29 14.88V15ZM18 21V17H21V21H18ZM13 21V17H16V21H13ZM8 21V17H11V21H8ZM3 21V17H6V21H3ZM0 23H24V21H23V17H24V15H21.95C21.72 12.72 20.71 10.57 19.07 8.93C17.43 7.29 15.29 6.28 13 6.05V4H15V2H12C11.45 2 11 2.45 11 3V6.05C8.72 6.28 6.57 7.29 4.93 8.93C3.29 10.57 2.28 12.72 2.05 15H0V17H1V21H0V23Z" fill="#2B2D33"/>
</svg>
