<svg width="48" height="48" viewBox="0 0 48 48" fill="none" xmlns="http://www.w3.org/2000/svg">
<rect width="48" height="48" rx="12" fill="#FEE600"/>
<path d="M24 31.98L20.5 30.92L21.79 28.66C22.23 27.89 21.73 27.01 20.84 27.01C17.62 27.01 15.01 24.41 15 21.19L17.93 21.68C19.73 21.98 21 21.3 21 19.47C21 17.87 20.2 17.03 19.36 17.03C18.92 17.03 18.6 17.14 18.26 17.38L18.16 17.32C19.22 16.25 19.65 16 20.4 16C21.07 16 21.69 16.34 22.06 16.89L23.09 18.43C23.31 18.76 23.66 18.93 24 18.92C24.34 18.93 24.69 18.76 24.91 18.43L25.94 16.89C26.31 16.34 26.93 16 27.6 16C28.35 16 28.78 16.25 29.84 17.32L29.74 17.38C29.4 17.14 29.08 17.03 28.64 17.03C27.8 17.03 27 17.87 27 19.47C27 21.3 28.27 21.98 30.07 21.68L33 21.19C32.99 24.41 30.38 27.01 27.16 27.01C26.27 27.01 25.77 27.89 26.21 28.66L27.5 30.92L24 31.98ZM24 34C24.14 34 24.29 33.98 24.43 33.94L29.16 32.51C29.87 32.3 30.17 31.56 29.8 30.91L28.64 28.88C32.26 28.19 35 25 35 21.18V20.12C35 19.37 34.46 18.92 33.68 19.05L29.44 19.75C29.16 19.8 29 19.66 29 19.43C29 18.86 29.24 18.43 29.77 18.11L31.51 17.06C31.87 16.84 31.91 16.5 31.63 16.22L30.58 15.17C29.79 14.38 28.81 14 27.6 14C26.26 14 24.99 14.65 24.27 15.78L24 16.2L23.73 15.78C22.98 14.67 21.74 14 20.4 14C19.19 14 18.21 14.38 17.42 15.17L16.37 16.22C16.09 16.5 16.13 16.84 16.49 17.06L18.23 18.11C18.76 18.43 19 18.86 19 19.43C19 19.66 18.84 19.8 18.56 19.75L14.32 19.05C13.54 18.92 13 19.37 13 20.12V21.18C13 25 15.74 28.19 19.36 28.88L18.2 30.91C17.83 31.56 18.13 32.3 18.84 32.51L23.57 33.94C23.71 33.98 23.86 34 24 34Z" fill="#2B2D33"/>
</svg>
