<svg width="48" height="48" viewBox="0 0 48 48" fill="none" xmlns="http://www.w3.org/2000/svg">
<rect width="48" height="48" rx="12" fill="#FEE600"/>
<path d="M24.81 15.18C24.56 15.07 24.28 15.01 24 15.01C23.73 15.01 23.45 15.06 23.19 15.18L17.19 17.84C16.42 18.18 16 18.83 16 19.67V28.32C16 29.16 16.42 29.81 17.19 30.15L23.19 32.82C23.45 32.94 23.73 32.99 24 32.99C24.28 32.99 24.56 32.93 24.81 32.82L30.81 30.15C31.61 29.79 32 29.16 32 28.32V19.67C32 18.83 31.61 18.19 30.81 17.84L24.81 15.18ZM22.38 13.35C22.9 13.12 23.45 13 24 13C24.56 13 25.11 13.12 25.63 13.35L31.63 16.02C33.14 16.69 34 18.04 34 19.67V28.32C34 29.95 33.14 31.31 31.63 31.98L25.63 34.65C25.11 34.88 24.56 35 24 35C23.45 35 22.9 34.88 22.38 34.65L16.38 31.98C14.88 31.31 14 29.95 14 28.32V19.67C14 18.04 14.88 16.69 16.38 16.02L22.38 13.35ZM21 22.99C20.45 22.99 20 23.44 20 23.99C20 24.55 20.45 24.99 21 24.99C21.55 24.99 22 24.55 22 23.99C22 23.44 21.55 22.99 21 22.99ZM24 23.99C24 25.65 22.65 26.99 21 26.99C19.35 26.99 18 25.65 18 23.99C18 22.34 19.35 20.99 21 20.99C22.31 20.99 23.42 21.83 23.83 22.99H29C29.55 22.99 30 23.44 30 23.99V26.99H28V24.99H25.43C24.52 24.99 24.18 24.69 24.12 23.99H24Z" fill="#2B2D33"/>
</svg>
