<svg width="48" height="48" viewBox="0 0 48 48" fill="none" xmlns="http://www.w3.org/2000/svg">
<rect width="48" height="48" rx="12" fill="#FEE600"/>
<path d="M23.94 21.72C23.94 22.74 23.81 23.52 23.36 24.54L21.03 29.85L19 29.03V34.55H14V32.55H17V27.55C17 26.84 17.72 26.36 18.37 26.62L19.97 27.26L23.09 20.15C23.44 19.35 24.57 19.35 24.92 20.15L28.03 27.26L29.63 26.62C30.29 26.36 31 26.84 31 27.55V32.55H34V34.55H29V29.03L26.97 29.84L24.64 24.53C24.19 23.51 24.06 22.73 24.06 21.71H23.94V21.72ZM23.07 14.52L23.69 13.22C23.83 12.92 24.18 12.92 24.32 13.22L24.93 14.52L26.33 14.74C26.66 14.79 26.75 15.1 26.53 15.33L25.5 16.38L25.74 17.84C25.8 18.18 25.5 18.35 25.23 18.2L24 17.53L22.78 18.2C22.51 18.36 22.2 18.18 22.26 17.84L22.5 16.38L21.48 15.34C21.26 15.11 21.34 14.8 21.68 14.75L23.07 14.52Z" fill="#2B2D33"/>
</svg>
