<svg width="48" height="48" viewBox="0 0 48 48" fill="none" xmlns="http://www.w3.org/2000/svg">
<rect width="48" height="48" rx="12" fill="#FEE600"/>
<path d="M29.6 16C30.26 16 30.75 15.62 30.88 14.97H31V32H17V16H17.6C18.26 16 18.75 15.62 18.88 14.97H19V18H21V16H21.6C22.26 16 22.75 15.62 22.88 14.97H23V18H25V16H25.6C26.26 16 26.75 15.62 26.88 14.97H27V18H29V16H29.6ZM20.9 29.99L28.5 22.4L27.1 21L19.5 28.59L20.9 29.99ZM27 30.35C27.99 30.35 28.85 29.49 28.85 28.5C28.85 27.51 27.99 26.65 27 26.65C26.02 26.65 25.15 27.51 25.15 28.5C25.15 29.49 26.02 30.35 27 30.35ZM21 24.35C21.99 24.35 22.85 23.49 22.85 22.5C22.85 21.51 21.99 20.65 21 20.65C20.02 20.65 19.15 21.51 19.15 22.5C19.15 23.49 20.02 24.35 21 24.35ZM16 34H32C32.55 34 33 33.55 33 33V15C33 14.45 32.55 14 32 14H16C15.45 14 15 14.45 15 15V33C15 33.55 15.45 34 16 34Z" fill="#2B2D33"/>
</svg>
