<svg width="48" height="48" viewBox="0 0 48 48" fill="none" xmlns="http://www.w3.org/2000/svg">
<rect width="48" height="48" rx="12" fill="#2B2D33"/>
<path d="M33.9101 23.55L31.9101 19.55C31.7401 19.21 31.3901 19 31.0101 19H29.0101V21H30.3901L31.3901 23H16.6301L17.6301 21H20.0101V19H17.0101C16.6301 19 16.2901 19.21 16.1201 19.55L14.1201 23.55C13.7701 24.25 14.2001 25 15.0101 25V34C15.0101 34.55 15.4601 35 16.0101 35H32.0101C32.5601 35 33.0101 34.55 33.0101 34V25C33.8301 25 34.2501 24.23 33.9101 23.55ZM23.0101 33H21.0101V29H23.0101V33ZM27.0101 33H25.0101V29H27.0101V33ZM32.3401 25.12C31.5001 25.26 31.0101 25.8 31.0101 26.7V33H29.0101V28C29.0101 27.45 28.5601 27 28.0101 27H20.0101C19.4601 27 19.0101 27.45 19.0101 28V33H17.0101V26.7C17.0101 25.8 16.5201 25.26 15.6801 25.12V25H32.3401V25.12Z" fill="white"/>
<path d="M24.0101 21C25.6801 21 27.0101 19.67 27.0101 18H29.0101V16H27.0101V15H21.0101V18C21.0101 19.67 22.3401 21 24.0101 21ZM23.0101 17H25.0101V18C25.0101 18.56 24.5701 19 24.0101 19C23.4501 19 23.0101 18.56 23.0101 18V17Z" fill="white"/>
</svg>
