<svg width="48" height="48" viewBox="0 0 48 48" fill="none" xmlns="http://www.w3.org/2000/svg">
<rect width="48" height="48" rx="12" fill="#2B2D33"/>
<path d="M27.44 22L28.19 20H29V22H27.44ZM21 22V20H27.01V20.12C26.28 20.18 25.9 20.43 25.67 21.03L25.3 22H21ZM19.32 23V20.99C18.03 20.9 17 19.82 17 18.5C17 17.13 18.12 16 19.5 16C20.83 16 21.93 17.06 22 18.37H24C23.93 15.96 21.93 14 19.5 14C17.02 14 15 16.03 15 18.5C15 20.92 16.93 22.9 19.32 23ZM26 28C26.55 28 27 27.55 27 27C27 26.45 26.55 26 26 26C25.44 26 25 26.45 25 27C25 27.55 25.44 28 26 28ZM22 32C21.44 32 21 31.55 21 31V24H23C23 24.55 23.44 25 24 25C24.55 25 25 24.55 25 24H29V31C29 31.55 28.55 32 28 32H22ZM24 31C24.55 31 25 30.55 25 30C25 29.45 24.55 29 24 29C23.44 29 23 29.45 23 30C23 30.55 23.44 31 24 31ZM22 34H28C29.65 34 31 32.66 31 31V18H27.98V17.88C28.71 17.82 29.09 17.57 29.32 16.97L29.69 16H34V14H29.1C28.55 14 28.21 14.23 28.02 14.74L26.8 18H19V31C19 32.66 20.34 34 22 34Z" fill="white"/>
</svg>
