<svg width="48" height="48" viewBox="0 0 48 48" fill="none" xmlns="http://www.w3.org/2000/svg">
<rect width="48" height="48" rx="12" fill="#2B2D33"/>
<path d="M19.3 18L19.8 16H28.2L28.7 18H19.3ZM24 27C23.4 27 23 26.6 23 26C23 25.4 23.4 25 24 25C24.6 25 25 25.4 25 26C25 26.5 24.6 27 24 27ZM24 29C25.7 29 27 27.6 27 26C27 24.3 25.7 23 24 23C22.3 23 21 24.3 21 26C21 27.6 22.3 29 24 29ZM20.1 32L19.2 22C19.1 21.1 18.6 20.4 17.6 20.1V20H30.4V20.1C29.4 20.3 28.9 21 28.8 22L27.9 32H20.1ZM19.2 34H28.8C29.3 34 29.7 33.6 29.8 33.1L30.9 21C31 20.3 31.4 20 32 20H33V18H30.8L30 14.8C29.9 14.3 29.5 14 29 14H19C18.5 14 18.1 14.3 18 14.8L17.3 18H15V20H16C16.6 20 17 20.4 17.1 21L18.2 33.1C18.3 33.6 18.7 34 19.2 34Z" fill="white"/>
</svg>
