<svg width="48" height="48" viewBox="0 0 48 48" fill="none" xmlns="http://www.w3.org/2000/svg">
<rect width="48" height="48" rx="12" fill="#2B2D33"/>
<path d="M19 14H17V17H19V14Z" fill="white"/>
<path d="M27 14H25V17H27V14Z" fill="white"/>
<path d="M23 14H21V17H23V14Z" fill="white"/>
<path d="M29 32H15V34H29V32Z" fill="white"/>
<path d="M31.5 20H31C30 20 29.4 20.4 29.1 21.2H29V19H15V24C15 27.8 17.2 30 21 30H23C25.1 30 26.8 29.3 27.8 28C28.5 27.1 29 27 30.1 27H31.5C33.5 27 35 25.5 35 23.5C35 21.5 33.5 20 31.5 20ZM27 24C27 26.7 25.7 28 23 28H21C18.3 28 17 26.7 17 24V21H27V24ZM31.5 25H30.6C29.6 25 29.1 25.4 28.8 26.3H28.7C28.9 25.6 29 24.8 29 24V23C29 22.4 29.3 22 30 22H31.5C32.3 22 33 22.7 33 23.5C33 24.4 32.4 25 31.5 25Z" fill="white"/>
</svg>
