<svg width="48" height="48" viewBox="0 0 48 48" fill="none" xmlns="http://www.w3.org/2000/svg">
<rect width="48" height="48" rx="12" fill="#FEE600"/>
<path d="M21.9 28H22.9L24.19 26.27C24.61 26.4 25.02 26.56 25.4 26.78V24.58C24.71 24.3 23.98 24.12 23.22 24.04V23.93C25.59 23.54 27.4 21.48 27.4 19C27.4 16.24 25.16 14 22.4 14C19.64 14 17.4 16.24 17.4 19C17.4 21.48 19.21 23.54 21.58 23.93V24.04C18.39 24.36 15.7 26.52 14.67 29.5C14.28 30.63 14.18 31.85 14.08 33.05L14 34H16.01L16.08 33.05C16.17 31.85 16.26 30.71 16.75 29.66C17.54 27.97 18.94 26.77 20.6 26.27L21.9 28ZM19.4 19C19.4 17.34 20.74 16 22.4 16C24.06 16 25.4 17.34 25.4 19C25.4 20.66 24.06 22 22.4 22C20.74 22 19.4 20.66 19.4 19Z" fill="#2B2D33"/>
<path d="M30.4 29V26H28.4V29H25.4V31H28.4V34H30.4V31H33.4V29H30.4Z" fill="#2B2D33"/>
<path d="M23.4 29H21.4V34H23.4V29Z" fill="#2B2D33"/>
</svg>
