<svg width="48" height="48" viewBox="0 0 48 48" fill="none" xmlns="http://www.w3.org/2000/svg">
<rect width="48" height="48" rx="12" fill="#FEE600"/>
<path fill-rule="evenodd" clip-rule="evenodd" d="M24 20C24 17.2 21.8 15 19 15H16C15.4 15 15 15.4 15 16V32C15 32.6 15.4 33 16 33H19C21.8 33 24 30.8 24 28C24 26.4 23.2 24.9 22 24C23.2 23.1 24 21.6 24 20ZM22 28C22 29.7 20.7 31 19 31H17V25H19C20.7 25 22 26.3 22 28ZM19 23H17V17H19C20.7 17 22 18.3 22 20C22 21.7 20.7 23 19 23Z" fill="#2B2D33"/>
<path fill-rule="evenodd" clip-rule="evenodd" d="M29 31C27.9 31 27 30.1 27 29V28H32C32.3 28 32.5 27.9 32.7 27.7C32.9 27.5 33 27.3 33 27V25C33 22.8 31.2 21 29 21C26.8 21 25 22.8 25 25V29C25 31.2 26.8 33 29 33C31.2 33 33 31.2 33 29H31C31 30.1 30.1 31 29 31ZM27 25C27 23.9 27.9 23 29 23C30.1 23 31 23.9 31 25V26H27V25Z" fill="#2B2D33"/>
<path d="M26 18H32V20H26V18Z" fill="#2B2D33"/>
</svg>
