<svg width="48" height="48" viewBox="0 0 48 48" fill="none" xmlns="http://www.w3.org/2000/svg">
<rect width="48" height="48" rx="12" fill="#FEE600"/>
<path d="M25.73 27H32.14C33.68 27 34.54 25.76 34.02 24.32L31.48 17.32C31.16 16.44 30.54 16 29.5 16H22L19 17.5V17C19 16.43 18.57 16 18 16H15C14.43 16 14 16.43 14 17V27C14 27.57 14.43 28 15 28H18C18.57 28 19 27.57 19 27H21L24.18 32.56C24.52 33.16 25.08 33.44 25.71 33.44C26.38 33.44 26.94 33.11 27.26 32.48L27.47 32.05C27.8 31.37 27.9 30.6 27.71 29.86L27.39 28.62C27.13 27.57 26.8 27.31 25.73 27.12V27Z" fill="#2B2D33"/>
</svg>
