<svg width="48" height="48" viewBox="0 0 48 48" fill="none" xmlns="http://www.w3.org/2000/svg">
<rect width="48" height="48" rx="12" fill="#FEE600"/>
<path fill-rule="evenodd" clip-rule="evenodd" d="M26 16C23.7909 16 22 17.7909 22 20V22.5C22 23.0523 21.5523 23.5 21 23.5H19V25.5H21C21.5523 25.5 22 25.9477 22 26.5V32H24V26.5C24 25.9477 24.4477 25.5 25 25.5H27.2192L27.7192 23.5H25C24.4477 23.5 24 23.0523 24 22.5V20C24 18.8954 24.8954 18 26 18H28V16H26ZM20 20C20 16.6863 22.6863 14 26 14H29C29.5523 14 30 14.4477 30 15V19C30 19.5523 29.5523 20 29 20H26V21.5H29C29.3079 21.5 29.5987 21.6419 29.7882 21.8846C29.9777 22.1273 30.0448 22.4438 29.9701 22.7425L28.9701 26.7425C28.8589 27.1877 28.4589 27.5 28 27.5H26V33C26 33.5523 25.5523 34 25 34H21C20.4477 34 20 33.5523 20 33V27.5H18C17.4477 27.5 17 27.0523 17 26.5V22.5C17 21.9477 17.4477 21.5 18 21.5H20V20Z" fill="#2B2D33"/>
</svg>
