<svg width="48" height="48" viewBox="0 0 48 48" fill="none" xmlns="http://www.w3.org/2000/svg">
<rect width="48" height="48" rx="12" fill="#FEE600"/>
<path d="M27.5 23C28.33 23 29 22.33 29 21.5C29 20.67 28.33 20 27.5 20C26.67 20 26 20.67 26 21.5C26 22.33 26.67 23 27.5 23Z" fill="#2B2D33"/>
<path d="M22 21.5C22 22.33 21.33 23 20.5 23C19.67 23 19 22.33 19 21.5C19 20.67 19.67 20 20.5 20C21.33 20 22 20.67 22 21.5Z" fill="#2B2D33"/>
<path d="M20 26V28H28V26H20Z" fill="#2B2D33"/>
<path fill-rule="evenodd" clip-rule="evenodd" d="M24 14C18.48 14 14 18.48 14 24C14 29.52 18.48 34 24 34C29.52 34 34 29.52 34 24C34 18.48 29.52 14 24 14ZM16 24C16 19.58 19.58 16 24 16C28.42 16 32 19.58 32 24C32 28.42 28.42 32 24 32C19.58 32 16 28.42 16 24Z" fill="#2B2D33"/>
</svg>
