<svg width="48" height="48" viewBox="0 0 48 48" fill="none" xmlns="http://www.w3.org/2000/svg">
<rect width="48" height="48" rx="12" fill="#FEE600"/>
<path d="M20.29 27.29L21.71 28.71L24 26.41L26.29 28.71L27.71 27.29L25.42 25L27.71 22.71L26.29 21.29L24 23.59L21.71 21.29L20.29 22.71L22.59 25L20.29 27.29ZM20.2 18V17.88C20.91 17.72 21.41 17.35 21.84 16.7L22.28 16.03C22.77 15.28 23.23 15 24 15C24.77 15 25.23 15.28 25.72 16.03L26.16 16.7C26.59 17.35 27.09 17.72 27.8 17.88V18H20.2ZM16 30V20H32V30H16ZM14 31C14 31.55 14.45 32 15 32H33C33.55 32 34 31.55 34 31V19C34 18.45 33.55 18 33 18H30.2C29.62 18 29.2 17.73 28.8 17.1L27.44 15C26.59 13.69 25.41 13 24 13C22.59 13 21.41 13.69 20.56 15L19.2 17.1C18.8 17.73 18.38 18 17.8 18H15C14.4 18 14 18.4 14 19V31Z" fill="#2B2D33"/>
</svg>
