<svg width="48" height="48" viewBox="0 0 48 48" fill="none" xmlns="http://www.w3.org/2000/svg">
<rect width="48" height="48" rx="12" fill="#FEE600"/>
<path d="M24 33.29C21.14 33.29 18.49 31.76 17.07 29.29L15.34 30.29C17.09 33.35 20.41 35.29 24 35.29C27.57 35.29 30.87 33.38 32.66 30.29L30.92 29.29C29.5 31.77 26.86 33.29 24 33.29Z" fill="#2B2D33"/>
<path d="M34 25.02C33.94 22.71 33.09 20.6 31.72 18.94L33.99 16.68L32.57 15.25L31.21 16.62C30.8 17.03 30.72 17.51 31.02 18L30.93 18.09C30.42 17.6 29.85 17.17 29.24 16.79L30.61 13.85L28.78 13L27.97 14.74C27.72 15.27 27.82 15.76 28.26 16.11L28.2 16.23C26.92 15.64 25.5 15.29 24 15.29C18.56 15.29 14.14 19.63 14 25.04C15.13 25.83 16.52 26.29 18 26.29C20.5 26.29 22.69 24.97 23.93 22.99H24.07C25.31 24.97 27.5 26.29 30 26.29C31.48 26.29 32.85 25.82 33.98 25.03L34 25.02ZM25 19.29H23C23 22.05 20.76 24.29 18 24.29C17.34 24.29 16.71 24.15 16.13 23.91C16.77 20.16 20.01 17.29 24 17.29C27.94 17.29 31.22 20.16 31.87 23.91C31.29 24.14 30.67 24.29 30 24.29C27.24 24.29 25 22.05 25 19.29Z" fill="#2B2D33"/>
<path d="M27 29.29H21V31.29H27V29.29Z" fill="#2B2D33"/>
</svg>
