<svg width="48" height="48" viewBox="0 0 48 48" fill="none" xmlns="http://www.w3.org/2000/svg">
<rect width="48" height="48" rx="12" fill="#FEE600"/>
<path d="M24 32C21.14 32 18.49 30.47 17.07 28L15.34 29C17.09 32.06 20.41 34 24 34C27.57 34 30.87 32.09 32.66 29L30.92 28C29.5 30.48 26.86 32 24 32Z" fill="#2B2D33"/>
<path d="M33.79 22C32.9 17.42 28.77 14 24 14C19.28 14 15.19 17.29 14.2 22H13V24H16.05C16.29 25.7 17.73 27 19.5 27C20.88 27 22.08 26.18 22.65 25H25.35C25.91 26.18 27.1 27 28.5 27C30.24 27 31.7 25.7 31.95 24H35V22H33.79ZM19.5 25C18.67 25 18 24.33 18 23.5C18 22.67 18.67 22 19.5 22C20.32 22 21 22.67 21 23.5C21 24.33 20.32 25 19.5 25ZM25.05 23H22.95C22.7 21.3 21.24 20 19.5 20C18.17 20 17.02 20.75 16.43 21.84H16.3C16.48 21.2 16.74 20.58 17.06 20.01C18.44 17.61 21.03 16 24 16C26.97 16 29.56 17.62 30.94 20.02C31.27 20.59 31.52 21.2 31.7 21.84H31.56C30.96 20.75 29.81 20 28.5 20C26.73 20 25.29 21.3 25.05 23ZM28.5 25C27.67 25 27 24.33 27 23.5C27 22.67 27.67 22 28.5 22C29.32 22 30 22.67 30 23.5C30 24.33 29.32 25 28.5 25Z" fill="#2B2D33"/>
<path d="M27 28H21V30H27V28Z" fill="#2B2D33"/>
</svg>
