<svg width="48" height="48" viewBox="0 0 48 48" fill="none" xmlns="http://www.w3.org/2000/svg">
<rect width="48" height="48" rx="12" fill="#FEE600"/>
<path d="M28.45 15C26.63 15 25.01 15.97 24.04 17.67H23.96C22.99 15.97 21.37 15 19.55 15C16.26 15 14 17.62 14 20.83C14 25.16 18.32 29.73 23.01 33.61C23.3 33.85 23.64 34 24 34C24.36 34 24.7 33.85 24.99 33.61C29.68 29.73 34 25.16 34 20.83C34 17.62 31.74 15 28.45 15ZM16 20.83C16 18.71 17.27 17 19.55 17C20.85 17 22.04 17.89 22.89 19.14C22.91 19.17 22.93 19.18 22.94 19.21L22.01 22.87C21.95 23.09 22.01 23.31 22.13 23.5L23.91 26.17L23.01 31.01C19.29 27.64 16 24.06 16 20.83ZM25.07 30.93L25.98 26.19C26.04 25.88 25.99 25.68 25.87 25.5L24.13 22.91L24.98 19.31C25.02 19.25 25.06 19.2 25.11 19.14C25.96 17.89 27.15 17 28.45 17C30.73 17 32 18.71 32 20.83C32 24.03 28.76 27.58 25.07 30.93Z" fill="#2B2D33"/>
</svg>
