<svg width="48" height="48" viewBox="0 0 48 48" fill="none" xmlns="http://www.w3.org/2000/svg">
<rect width="48" height="48" rx="12" fill="#FEE600"/>
<path fill-rule="evenodd" clip-rule="evenodd" d="M19 24C19 21.2386 21.2386 19 24 19C26.7614 19 29 21.2386 29 24C29 26.7614 26.7614 29 24 29C21.2386 29 19 26.7614 19 24ZM24 21C22.3431 21 21 22.3431 21 24C21 25.6569 22.3431 27 24 27C25.6569 27 27 25.6569 27 24C27 22.3431 25.6569 21 24 21Z" fill="#2B2D33"/>
<path d="M29 20C29.5523 20 30 19.5523 30 19C30 18.4477 29.5523 18 29 18C28.4477 18 28 18.4477 28 19C28 19.5523 28.4477 20 29 20Z" fill="#2B2D33"/>
<path fill-rule="evenodd" clip-rule="evenodd" d="M21.3572 14H26.6428C27.7266 14 28.6007 14 29.3086 14.0578C30.0375 14.1174 30.6777 14.2432 31.27 14.545C32.2108 15.0243 32.9757 15.7892 33.455 16.73C33.7568 17.3223 33.8826 17.9625 33.9422 18.6914C34 19.3992 34 20.2733 34 21.3571V26.6428C34 27.7266 34 28.6008 33.9422 29.3086C33.8826 30.0375 33.7568 30.6777 33.455 31.27C32.9757 32.2108 32.2108 32.9757 31.27 33.455C30.6777 33.7568 30.0375 33.8826 29.3086 33.9422C28.6008 34 27.7267 34 26.6429 34H21.3572C20.2734 34 19.3992 34 18.6914 33.9422C17.9625 33.8826 17.3223 33.7568 16.73 33.455C15.7892 32.9757 15.0243 32.2108 14.545 31.27C14.2432 30.6777 14.1174 30.0375 14.0578 29.3086C14 28.6007 14 27.7266 14 26.6428V21.3572C14 20.2734 14 19.3993 14.0578 18.6914C14.1174 17.9625 14.2432 17.3223 14.545 16.73C15.0243 15.7892 15.7892 15.0243 16.73 14.545C17.3223 14.2432 17.9625 14.1174 18.6914 14.0578C19.3993 14 20.2734 14 21.3572 14ZM18.8542 16.0512C18.2491 16.1006 17.9014 16.1928 17.638 16.327C17.0735 16.6146 16.6146 17.0735 16.327 17.638C16.1928 17.9014 16.1006 18.2491 16.0512 18.8542C16.0008 19.4711 16 20.2634 16 21.4V26.6C16 27.7366 16.0008 28.5289 16.0512 29.1458C16.1006 29.7509 16.1928 30.0986 16.327 30.362C16.6146 30.9265 17.0735 31.3854 17.638 31.673C17.9014 31.8072 18.2491 31.8994 18.8542 31.9488C19.4711 31.9992 20.2634 32 21.4 32H26.6C27.7366 32 28.5289 31.9992 29.1458 31.9488C29.7509 31.8994 30.0986 31.8072 30.362 31.673C30.9265 31.3854 31.3854 30.9265 31.673 30.362C31.8072 30.0986 31.8994 29.7509 31.9488 29.1458C31.9992 28.5289 32 27.7366 32 26.6V21.4C32 20.2634 31.9992 19.4711 31.9488 18.8542C31.8994 18.2491 31.8072 17.9014 31.673 17.638C31.3854 17.0735 30.9265 16.6146 30.362 16.327C30.0986 16.1928 29.7509 16.1006 29.1458 16.0512C28.5289 16.0008 27.7366 16 26.6 16H21.4C20.2634 16 19.4711 16.0008 18.8542 16.0512Z" fill="#2B2D33"/>
</svg>
