<svg width="48" height="48" viewBox="0 0 48 48" fill="none" xmlns="http://www.w3.org/2000/svg">
<rect width="48" height="48" rx="12" fill="#FEE600"/>
<path d="M29.2967 15.8492L25.7965 19.3494L27.2178 20.7706L30.718 17.2705L29.2967 15.8492Z" fill="#2B2D33"/>
<path d="M18.89 27.03C19.57 26.39 20 25.49 20 24.49C20 22.56 18.43 20.99 16.5 20.99C14.57 20.99 13 22.56 13 24.49C13 26.3 14.39 27.78 16.16 27.96L16.21 28.1C14.08 29.34 13 31.65 13 35H15C15 30.82 16.82 29 21 29V27C20.26 27 19.58 27.06 18.94 27.16L18.89 27.03ZM15 24.49C15 23.66 15.67 22.99 16.5 22.99C17.33 22.99 18 23.66 18 24.49C18 25.32 17.33 25.99 16.5 25.99C15.67 25.99 15 25.32 15 24.49Z" fill="#2B2D33"/>
<path d="M31.79 28.11L31.85 27.96C33.61 27.78 35 26.3 35 24.49C35 22.56 33.43 20.99 31.5 20.99C29.57 20.99 28 22.56 28 24.49C28 25.5 28.43 26.4 29.12 27.04L29.07 27.17C28.59 27.09 28.09 27.04 27.56 27.01L24.99 22.98L23.31 24.06L26.46 29.01C31.03 28.85 33 30.65 33 35H35C35 31.66 33.91 29.35 31.79 28.11ZM31.5 22.99C32.33 22.99 33 23.66 33 24.49C33 25.32 32.33 25.99 31.5 25.99C30.67 25.99 30 25.32 30 24.49C30 23.66 30.67 22.99 31.5 22.99Z" fill="#2B2D33"/>
<path d="M25 14H23V19H25V14Z" fill="#2B2D33"/>
<path d="M18.7108 15.8421L17.2895 17.2634L20.7897 20.7635L22.2109 19.3422L18.7108 15.8421Z" fill="#2B2D33"/>
</svg>
