<svg width="48" height="48" viewBox="0 0 48 48" fill="none" xmlns="http://www.w3.org/2000/svg">
<rect width="48" height="48" rx="12" fill="#FEE600"/>
<path d="M23.4 26.34V24.26C23.01 24.15 22.62 24.08 22.22 24.04V23.93C24.59 23.54 26.4 21.48 26.4 19C26.4 16.24 24.16 14 21.4 14C18.64 14 16.4 16.24 16.4 19C16.4 21.48 18.21 23.54 20.58 23.93V24.04C17.39 24.36 14.7 26.52 13.67 29.5C13.28 30.63 13.18 31.85 13.08 33.05L13 34H15.01L15.08 33.05C15.17 31.85 15.26 30.71 15.75 29.66C16.81 27.39 18.97 26 21.4 26C22.09 26 22.76 26.11 23.4 26.34ZM27.4 28C28.47 28 29.4 27.07 29.4 26C29.4 24.93 28.47 24 27.4 24C26.34 24 25.4 24.93 25.4 26C25.4 27.07 26.34 28 27.4 28ZM33.4 34C34.47 34 35.4 33.07 35.4 32C35.4 30.93 34.47 30 33.4 30C32.34 30 31.4 30.93 31.4 32C31.4 33.07 32.34 34 33.4 34ZM26.8 34.01L35.4 25.42L34 24.02L25.4 32.61L26.8 34.01ZM18.4 19C18.4 17.34 19.74 16 21.4 16C23.06 16 24.4 17.34 24.4 19C24.4 20.66 23.06 22 21.4 22C19.74 22 18.4 20.66 18.4 19Z" fill="#2B2D33"/>
</svg>
