<svg width="48" height="48" viewBox="0 0 48 48" fill="none" xmlns="http://www.w3.org/2000/svg">
<rect width="48" height="48" rx="12" fill="#FEE600"/>
<path d="M27.75 34.11L26.11 32.93L27.3 31.31C27.67 30.79 28.1 30.67 28.51 30.49L28.48 30.38C28.03 30.48 27.63 30.62 27.05 30.43L25.1 29.79L25.75 27.89L27.67 28.52C28.27 28.72 28.51 29.08 28.81 29.41L28.91 29.35C28.68 28.95 28.4 28.6 28.4 27.95V26H30.4V27.96C30.4 28.61 30.11 28.97 29.88 29.37L29.98 29.43C30.28 29.09 30.53 28.73 31.13 28.53L33.03 27.92L33.65 29.82L31.74 30.44C31.14 30.63 30.73 30.48 30.29 30.38L30.25 30.49C30.67 30.68 31.1 30.8 31.49 31.33L32.64 32.93L31.04 34.1L29.89 32.52C29.49 31.99 29.52 31.53 29.48 31.07H29.36C29.31 31.53 29.34 31.98 28.97 32.47L27.75 34.11ZM25.4 26.78V24.58C24.71 24.3 23.98 24.12 23.22 24.04V23.93C25.59 23.54 27.4 21.48 27.4 19C27.4 16.24 25.16 14 22.4 14C19.64 14 17.4 16.24 17.4 19C17.4 21.48 19.21 23.54 21.58 23.93V24.04C18.39 24.36 15.7 26.52 14.67 29.5C14.28 30.63 14.18 31.85 14.08 33.05L14 34H16.01L16.08 33.05C16.17 31.85 16.26 30.71 16.75 29.66C17.81 27.39 19.97 26 22.4 26C23.47 26 24.5 26.27 25.4 26.78ZM19.4 19C19.4 17.34 20.74 16 22.4 16C24.06 16 25.4 17.34 25.4 19C25.4 20.66 24.06 22 22.4 22C20.74 22 19.4 20.66 19.4 19Z" fill="#2B2D33"/>
</svg>
