<svg width="48" height="48" viewBox="0 0 48 48" fill="none" xmlns="http://www.w3.org/2000/svg">
<rect width="48" height="48" rx="12" fill="#FEE600"/>
<path d="M23.94 30.69C23.06 27.52 20.57 24.97 17.39 24.06V23.94C20.57 23.03 23.06 20.48 23.94 17.31H24.06C24.94 20.48 27.43 23.03 30.61 23.94V24.06C27.43 24.97 24.94 27.52 24.06 30.69H23.94ZM24 36C24.6 36 25 35.6 25 35C25 29.5 29.5 25 35 25C35.6 25 36 24.6 36 24C36 23.4 35.6 23 35 23C29.5 23 25 18.5 25 13C25 12.4 24.6 12 24 12C23.4 12 23 12.4 23 13C23 18.5 18.5 23 13 23C12.4 23 12 23.4 12 24C12 24.6 12.4 25 13 25C18.5 25 23 29.5 23 35C23 35.6 23.4 36 24 36Z" fill="#2B2D33"/>
</svg>
