<svg width="48" height="48" viewBox="0 0 48 48" fill="none" xmlns="http://www.w3.org/2000/svg">
<rect width="48" height="48" rx="12" fill="#FEE600"/>
<path fill-rule="evenodd" clip-rule="evenodd" d="M34.1347 14.7273C34.4216 14.9629 34.5543 15.338 34.4795 15.7017L30.9795 32.7017C30.9116 33.0314 30.6824 33.3048 30.3695 33.4292C30.0567 33.5536 29.7023 33.5123 29.4265 33.3192L25.0529 30.2577L22.6402 32.2682C22.3863 32.4798 22.0443 32.5523 21.7264 32.4618C21.4085 32.3714 21.1558 32.1298 21.0513 31.8162L19.2041 26.2747L14.1583 24.4398C13.7716 24.2992 13.5105 23.9362 13.5003 23.5249C13.4901 23.1136 13.7328 22.738 14.1119 22.5784L33.1119 14.5784C33.4541 14.4343 33.8479 14.4916 34.1347 14.7273ZM21.2111 25.9711L21.807 27.7587L22.0238 26.7831C22.0621 26.6107 22.1454 26.4515 22.2652 26.3217L24.0391 24.4L21.2111 25.9711ZM23.6122 28.8548L24.3598 28.2318C24.7065 27.9429 25.2038 27.922 25.5735 28.1808L29.3273 30.8084L32.1375 17.1587L17.2388 23.4319L19.9131 24.4043L28.5144 19.6258C28.9437 19.3873 29.4826 19.4959 29.7862 19.882C30.0897 20.2681 30.0679 20.8174 29.7348 21.1783L23.9177 27.4801L23.6122 28.8548Z" fill="#2B2D33"/>
</svg>
