<svg width="48" height="48" viewBox="0 0 48 48" fill="none" xmlns="http://www.w3.org/2000/svg">
<rect width="48" height="48" rx="12" fill="#FEE600"/>
<path d="M18.5 24C20.71 24 22.5 22.21 22.5 20C22.5 17.79 20.71 16 18.5 16C16.29 16 14.5 17.79 14.5 20C14.5 21.94 15.88 23.56 17.72 23.92V24.04C14.03 24.46 12 27.84 12 31H14C14 28.38 15.75 26 18.5 26V24ZM16.5 20C16.5 18.9 17.39 18 18.5 18C19.6 18 20.5 18.9 20.5 20C20.5 21.11 19.6 22 18.5 22C17.39 22 16.5 21.11 16.5 20Z" fill="#2B2D33"/>
<path d="M28.85 23.04V22.91C30.92 22.51 32.5 20.69 32.5 18.5C32.5 16.02 30.48 14 28 14C25.51 14 23.5 16.02 23.5 18.5C23.5 20.7 25.07 22.52 27.15 22.91V23.06C25.92 23.2 24.83 23.61 23.92 24.25L25.07 25.89C25.84 25.35 26.81 25 28 25C31.78 25 34.02 27.96 34.02 31H36.02C36.02 27.28 33.38 23.47 28.85 23.04ZM25.5 18.5C25.5 17.12 26.62 16 28 16C29.38 16 30.5 17.12 30.5 18.5C30.5 19.88 29.38 21 28 21C26.62 21 25.5 19.88 25.5 18.5Z" fill="#2B2D33"/>
<path d="M25.29 29.02C23.69 28.45 23.01 27.3 23 25.98H21C21 27.46 21.51 28.56 22.97 28.86V29H17V31H22.97V31.14C21.51 31.45 21 32.51 21 34H23C23.01 32.68 23.69 31.53 25.29 30.97C25.8 30.79 26 30.45 26 29.99C26 29.54 25.8 29.2 25.29 29.02Z" fill="#2B2D33"/>
</svg>
