<svg width="48" height="48" viewBox="0 0 48 48" fill="none" xmlns="http://www.w3.org/2000/svg">
<rect width="48" height="48" rx="12" fill="#FEE600"/>
<path d="M14 29V31H19.97V31.14C18.51 31.44 18 32.52 18 34H20C20.01 32.68 20.69 31.55 22.29 30.98C22.8 30.8 23 30.45 23 30C23 29.54 22.8 29.21 22.29 29.03C20.69 28.47 20.01 27.32 20 26H18C18 27.49 18.51 28.55 19.97 28.86V29H14ZM21.62 26.78C22.52 26.27 23.55 26 24.62 26C27.05 26 29.21 27.39 30.27 29.66C30.76 30.71 30.85 31.85 30.94 33.05L31.01 34H33.02L32.94 33.05C32.84 31.85 32.74 30.63 32.35 29.5C31.32 26.52 28.63 24.36 25.44 24.04V23.93C27.81 23.54 29.62 21.48 29.62 19C29.62 16.24 27.38 14 24.62 14C21.86 14 19.62 16.24 19.62 19C19.62 21.48 21.43 23.54 23.8 23.93V24.04C23.04 24.12 22.31 24.3 21.62 24.58V26.78ZM27.62 19C27.62 20.66 26.28 22 24.62 22C22.96 22 21.62 20.66 21.62 19C21.62 17.34 22.96 16 24.62 16C26.28 16 27.62 17.34 27.62 19Z" fill="#2B2D33"/>
</svg>
