<svg width="48" height="48" viewBox="0 0 48 48" fill="none" xmlns="http://www.w3.org/2000/svg">
<rect width="48" height="48" rx="12" fill="#FEE600"/>
<path fill-rule="evenodd" clip-rule="evenodd" d="M29.7265 18.7424C29.2426 18.2666 27.9076 17.5455 26.4567 18.4013C24.9206 19.3075 24.835 20.749 24.9379 21.255C24.9935 21.5283 24.9325 21.8123 24.7696 22.0386C24.6067 22.2649 24.3567 22.4129 24.08 22.4469C22.1684 22.6818 20.2774 21.9465 18.7708 21.0551C18.0672 20.6389 17.4175 20.1709 16.8509 19.7092C16.9205 20.1261 17.0519 20.4891 17.2125 20.809C17.5984 21.5773 18.1713 22.1406 18.6783 22.6391L18.6871 22.6477C19.002 22.9574 19.0766 23.4369 18.8705 23.8275C18.6644 24.2181 18.2264 24.4272 17.7931 24.342L17.7689 24.3373C18.1592 24.69 18.4844 24.839 18.6766 24.8768C19.0406 24.9484 19.335 25.2155 19.4416 25.5708C19.5481 25.926 19.4493 26.3111 19.1848 26.5711C19.0742 26.6798 18.9544 26.7622 18.8339 26.8248C19.5989 27.3312 20.4018 27.7177 20.7858 27.8435C21.1415 27.9601 21.4023 28.2656 21.4617 28.6351C21.5211 29.0047 21.3691 29.3765 21.0678 29.5986C20.3116 30.1563 19.3848 30.5259 18.4973 30.7715C21.6608 31.4978 25.3269 30.4491 27.7359 28.0807C30.2668 25.5923 30.9206 21.9456 30.9206 20.4758C30.9206 20.2076 31.0283 19.9507 31.2195 19.7627C31.6045 19.3842 31.8129 18.9367 31.9156 18.5187L30.7936 18.9599C30.4261 19.1045 30.0081 19.0192 29.7265 18.7424ZM15.7873 25.1496C15.3689 24.6482 14.9698 24.0395 14.6064 23.3248C14.4329 22.9838 14.4693 22.5737 14.7 22.2685C14.8939 22.0119 15.1967 21.8673 15.5113 21.8716C15.482 21.8174 15.4533 21.7624 15.4252 21.7065C14.8492 20.5595 14.5662 19.1027 15.0262 17.2936C15.1171 16.9364 15.397 16.6581 15.7547 16.5694C16.1125 16.4807 16.49 16.596 16.7372 16.8694C17.3421 17.5385 18.4599 18.5474 19.7891 19.3338C20.8254 19.9469 21.9091 20.3771 22.9339 20.4715C23.0543 19.2691 23.6727 17.7216 25.4405 16.6787C27.5572 15.4301 29.5228 16.1364 30.6025 16.886L32.5499 16.1201C32.8171 16.0151 33.1165 16.0299 33.372 16.1608C33.6274 16.2917 33.8143 16.5261 33.8851 16.8043C34.0901 17.6106 34.1468 19.4167 32.9096 20.8788C32.8081 22.8457 31.9718 26.7207 29.138 29.5069C25.3744 33.2072 18.8579 34.3489 14.4066 31.0665C14.0589 30.8102 13.9152 30.3596 14.0501 29.9493C14.185 29.539 14.5681 29.2617 15.0001 29.2617C15.5137 29.2617 16.4136 29.195 17.3653 28.9904C17.6443 28.9305 17.9193 28.8604 18.1845 28.7799C18.0233 28.6825 17.8628 28.581 17.7058 28.4765C17.2637 28.1823 16.8188 27.8449 16.4468 27.484C16.0918 27.1396 15.7213 26.6963 15.546 26.1791C15.4425 25.8738 15.4925 25.5374 15.6803 25.2754C15.7127 25.2302 15.7485 25.1882 15.7873 25.1496Z" fill="#2B2D33"/>
</svg>
