<svg width="48" height="48" viewBox="0 0 48 48" fill="none" xmlns="http://www.w3.org/2000/svg">
<rect width="48" height="48" rx="12" fill="#FEE600"/>
<path fill-rule="evenodd" clip-rule="evenodd" d="M13.0009 18.0424L13.001 18.0459L13.0015 18.0564L13.0033 18.0907C13.0049 18.1194 13.0073 18.1598 13.0109 18.2109C13.0182 18.3132 13.0301 18.4588 13.0495 18.6416C13.0882 19.0068 13.1567 19.5221 13.2762 20.1364C13.5144 21.36 13.9604 23.0028 14.7967 24.642C15.634 26.283 16.8776 27.9492 18.7215 29.1698C20.5761 30.3975 22.9757 31.1324 26.0434 30.9991C26.5783 30.9758 27 30.5354 27 30V29.473V28.9701C27.1749 29.1482 27.3315 29.3276 27.4691 29.4997C27.6892 29.7748 27.8534 30.0214 27.9608 30.196C28.0144 30.283 28.0533 30.3513 28.0775 30.3952C28.0897 30.4171 28.0981 30.4329 28.1027 30.4419L28.1069 30.4499C28.2767 30.7875 28.622 31 29 31H34C34.3603 31 34.6927 30.8062 34.8702 30.4927C35.0477 30.1792 35.0429 29.7944 34.8575 29.4855C34.7005 29.2239 34.5539 28.9776 34.4147 28.7438C33.8734 27.8344 32.6647 26.1056 31.3274 24.4316C32.3577 23.054 33.0997 21.646 33.5994 20.5354C33.8936 19.8817 34.1068 19.3246 34.2473 18.9277C34.3177 18.729 34.37 18.5701 34.4053 18.4588C34.423 18.4031 34.4364 18.3592 34.4458 18.3283L34.4567 18.2915L34.4599 18.2806L34.4613 18.2758C34.4613 18.2758 34.4615 18.2748 34.4749 18.2226L34.4615 18.2748C34.5477 17.9731 34.4873 17.6484 34.2984 17.3979C34.1094 17.1474 33.8138 17.0001 33.5 17.0001H29C28.5537 17.0001 28.1613 17.2959 28.0386 17.725L28.0374 17.729L28.0306 17.752C28.0241 17.7734 28.0139 17.807 27.9998 17.8513C27.9717 17.9401 27.9285 18.0716 27.8703 18.2354C27.7535 18.5639 27.5781 19.0168 27.3452 19.5117C27.2389 19.7376 27.1236 19.9656 27 20.1902V18.0007C27 17.4484 26.5523 17.0001 26 17.0001H21C20.6534 17.0001 20.3316 17.1795 20.1493 17.4743C19.9671 17.7691 19.9506 18.1373 20.1056 18.4473L21 20.2361V22.9709C20.9792 22.9479 20.9583 22.9246 20.9373 22.9009C20.1365 21.9933 19.2261 20.4419 18.9959 17.9095C18.9491 17.3945 18.5172 17.0001 18.0001 17.0001H14.0004C13.7283 17.0001 13.4674 17.111 13.2789 17.3072C13.0903 17.5035 12.9899 17.7681 13.0008 18.04L13.0009 18.0424ZM15.1106 19C15.1434 19.2239 15.1855 19.4774 15.2394 19.7543C15.4544 20.8588 15.8521 22.3097 16.5783 23.733C17.3035 25.1545 18.3411 26.5195 19.8254 27.5021C21.1179 28.3577 22.7967 28.9553 25 29.0105V27.708V27C25 26.6534 25.1795 26.3316 25.4743 26.1494C25.7691 25.9671 26 26 26.4472 26.1056C27.1081 26.2616 28.4306 27.5 29.0309 28.2503C29.2552 28.5307 29.4351 28.7892 29.571 29H32.2373C31.3274 27.708 30.5 26.5 29.2929 25.2071C28.9272 24.8414 28.9007 24.2572 29.2318 23.8598C30.4055 22.4513 31.2366 20.9125 31.7756 19.7147C31.8911 19.458 31.9927 19.2181 32.0809 19.0001H29.7207C29.5884 19.3647 29.4001 19.8422 29.1548 20.3633C28.6363 21.4651 27.8011 22.8991 26.6 23.8C26.297 24.0272 25.8916 24.0638 25.5528 23.8944C25.214 23.725 25 23.3787 25 22.9999V19.0001H22.618L22.8944 19.5528C22.9639 19.6917 23 19.8448 23 20.0001V25C23 25.2621 22.8973 25.5105 22.7191 25.695C22.6687 25.7471 22.6123 25.7941 22.5505 25.8348C22.2699 26.0199 21.915 26.0516 21.6061 25.9192L21.6049 25.9186L21.6036 25.9181L21.6008 25.9169L21.5943 25.914L21.5774 25.9065C21.5669 25.9017 21.5542 25.8959 21.5394 25.8888L21.5288 25.8838C21.4901 25.8653 21.4388 25.8397 21.3767 25.8064C21.2525 25.7399 21.0845 25.6425 20.8862 25.5088C20.4897 25.2414 19.97 24.8274 19.4377 24.2241C18.8067 23.5091 18.1705 22.5417 17.6981 21.2638C17.4515 20.5966 17.2496 19.8448 17.1165 19.0001L15.1331 19L15.1106 19Z" fill="#2B2D33"/>
</svg>
