<svg width="48" height="48" viewBox="0 0 48 48" fill="none" xmlns="http://www.w3.org/2000/svg">
<rect width="48" height="48" rx="12" fill="#FEE600"/>
<path fill-rule="evenodd" clip-rule="evenodd" d="M17.9124 16.0665C19.8372 14.5896 22.2332 13.8627 24.6541 14.0214C27.0749 14.1801 29.3556 15.2134 31.0711 16.9289C32.7866 18.6444 33.8199 20.9251 33.9786 23.346C34.1373 25.7669 33.4105 28.1629 31.9336 30.0876C30.4567 32.0124 28.3304 33.3346 25.9509 33.8079C23.7798 34.2397 21.452 34.1273 19.3892 33.0773L14.7874 34.4578C14.435 34.5635 14.0531 34.4673 13.7929 34.2071C13.5328 33.947 13.4365 33.565 13.5422 33.2127L14.9227 28.6108C13.8727 26.548 13.7603 24.2202 14.1922 22.0491C14.6655 19.6696 15.9877 17.5434 17.9124 16.0665ZM19.1299 17.6532C20.6697 16.4717 22.5865 15.8902 24.5233 16.0171C26.46 16.1441 28.2845 16.9708 29.6569 18.3432C31.0293 19.7156 31.856 21.5401 31.9829 23.4768C32.1098 25.4135 31.5284 27.3303 30.3469 28.8701C29.1653 30.4099 27.4643 31.4677 25.5607 31.8463C23.5865 32.239 21.6259 32.0727 20 31.134L19.6261 30.9181L15.9915 32.0085L17.0819 28.3739L16.866 28C15.9273 26.3741 15.761 24.4135 16.1537 22.4393C16.5324 20.5357 17.5901 18.8347 19.1299 17.6532ZM21.3944 19.5528C21.225 19.214 20.8788 19 20.5 19C20.1212 19 19.7745 19.2149 19.6051 19.5537L19.6045 19.5549L19.6027 19.5585L19.597 19.57L19.578 19.6092C19.5621 19.6421 19.5401 19.6884 19.5139 19.745C19.462 19.8575 19.3921 20.0146 19.3215 20.1911C19.2517 20.3656 19.1761 20.5717 19.1166 20.78C19.0614 20.973 19 21.2353 19 21.5C19 21.7647 19.0614 22.027 19.1166 22.22C19.1761 22.4283 19.2517 22.6344 19.3215 22.8089C19.3921 22.9854 19.462 23.1425 19.5139 23.255C19.5396 23.3105 19.5612 23.3561 19.577 23.3889L19.5889 23.4208C19.6104 23.4776 19.6412 23.5556 19.6824 23.6517C19.7647 23.8438 19.8889 24.1091 20.0633 24.4231C20.4117 25.0502 20.965 25.8792 21.7929 26.7071C22.6651 27.5793 23.5541 28.0304 24.2463 28.2612C24.5906 28.376 24.8842 28.4356 25.1008 28.4665C25.2092 28.482 25.2987 28.4904 25.3661 28.4949C25.3998 28.4971 25.4281 28.4984 25.4505 28.4991L25.4798 28.4998L25.491 28.5L25.4958 28.5L25.498 28.5H25.5151C25.7023 28.5133 25.8673 28.5174 26 28.52C26.3905 28.5277 26.6016 28.52 27 28.5C27.2899 28.5 27.5439 28.4103 27.7025 28.3435C27.8775 28.2698 28.0382 28.1795 28.1647 28.1017C28.294 28.0221 28.4058 27.9442 28.4847 27.8869C28.5246 27.8578 28.5573 27.8331 28.5811 27.8149L28.61 27.7925L28.6192 27.7852L28.6224 27.7827L28.6247 27.7809C28.886 27.5718 29.0255 27.2458 28.9962 26.9124C28.9668 26.579 28.7727 26.2824 28.4789 26.1221L27.1039 25.3721C26.6972 25.1503 26.1915 25.2368 25.8817 25.581L25.115 26.433C25.0437 26.4151 24.9645 26.3924 24.8787 26.3638C24.4459 26.2196 23.8349 25.9207 23.2071 25.2929C22.535 24.6208 22.0883 23.9498 21.8117 23.4519C21.7667 23.3709 21.7263 23.2946 21.6902 23.224L22.2071 22.7071C22.5115 22.4027 22.5869 21.9378 22.3944 21.5528L21.3944 19.5528Z" fill="#2B2D33"/>
</svg>
