<svg width="48" height="48" viewBox="0 0 48 48" fill="none" xmlns="http://www.w3.org/2000/svg">
<rect width="48" height="48" rx="12" fill="#2B2D33"/>
<path d="M33 19C33.55 19 34 18.55 34 18V14C34 13.45 33.55 13 33 13H25C24.45 13 24 13.45 24 14V18C24 18.55 24.45 19 25 19H28V21H17C16.45 21 16 21.45 16 22V28H15C14.45 28 14 28.45 14 29V33C14 33.55 14.45 34 15 34H33C33.55 34 34 33.55 34 33V29C34 28.45 33.55 28 33 28H32V22C32 21.45 31.55 21 31 21H30V19H33ZM32 32H16V30H32V32ZM30 26.01C30 26.97 30.49 27.61 31.33 27.88V28H16.67V27.88C17.51 27.61 18 26.97 18 26.01V23H30V26.01ZM26 17V15H32V17H26Z" fill="white"/>
<path d="M21 24.29C20.33 24.29 19.79 24.83 19.79 25.5C19.79 26.17 20.33 26.71 21 26.71C21.67 26.71 22.21 26.17 22.21 25.5C22.21 24.83 21.67 24.29 21 24.29Z" fill="white"/>
<path d="M25 24.29C24.33 24.29 23.79 24.83 23.79 25.5C23.79 26.17 24.33 26.71 25 26.71C25.67 26.71 26.21 26.17 26.21 25.5C26.21 24.83 25.67 24.29 25 24.29Z" fill="white"/>
</svg>
