<svg width="48" height="48" viewBox="0 0 48 48" fill="none" xmlns="http://www.w3.org/2000/svg">
<rect width="48" height="48" rx="12" fill="#2B2D33"/>
<path d="M16 31.28V28.65L24 25.09L32 28.65V31.28H31.88C31.61 30.52 30.9 30.01 30 30.01H18C17.1 30.01 16.39 30.52 16.12 31.28H16ZM14 34H16V33C16 32.45 16.45 32 17 32H31C31.55 32 32 32.45 32 33V34H34V28.1C34 27.56 33.82 27.27 33.33 27.05L25 23.35V21.87C26.76 21.43 28 19.9 28 18C28 15.75 26.24 14 24 14C21.75 14 20 15.75 20 18H22C22 16.86 22.85 16 24 16C25.14 16 26 16.86 26 18C26 19.14 25.14 20 24 20C23.39 20 23 20.4 23 21V23.34L14.67 27.05C14.15 27.28 14 27.56 14 28.1V34Z" fill="white"/>
</svg>
