<svg width="48" height="48" viewBox="0 0 48 48" fill="none" xmlns="http://www.w3.org/2000/svg">
<rect width="48" height="48" rx="12" fill="#2B2D33"/>
<path d="M32.49 13.98L28.94 13.13C27.79 12.85 27.2 12.96 26.86 14.05C26.48 15.26 25.34 16.14 24 16.14C22.66 16.14 21.52 15.26 21.14 14.05C20.81 12.99 20.26 12.84 19.06 13.13L15.52 13.98C14.6 14.2 14 14.94 14 15.92V20.14C14 21.29 14.85 22.14 16 22.14H17V33.14C17 34.24 17.9 35.14 19 35.14H29C30.11 35.14 31 34.24 31 33.14V22.14H32C33.11 22.14 34 21.29 34 20.14V15.92C34 14.94 33.44 14.21 32.49 13.98ZM29 33.14H25V29.14H23V33.14H19V25.81H19.12C19.39 26.65 20.03 27.13 20.99 27.14H27C27.97 27.14 28.61 26.65 28.88 25.81H29V33.14ZM32 20.14H29V25.14H19V20.14H16V15.92L19.4 15.1C20.03 16.6 21.37 17.71 23 18.04V20.14H25V18.04C26.63 17.71 27.97 16.6 28.6 15.1L32 15.92V20.14Z" fill="white"/>
</svg>
