<svg width="48" height="48" viewBox="0 0 48 48" fill="none" xmlns="http://www.w3.org/2000/svg">
<rect width="48" height="48" rx="12" fill="#2B2D33"/>
<path d="M31.5 33C32.3284 33 33 32.3284 33 31.5C33 30.6716 32.3284 30 31.5 30C30.6716 30 30 30.6716 30 31.5C30 32.3284 30.6716 33 31.5 33Z" fill="white"/>
<path d="M31.6054 25.0063L25.0082 31.6035L26.4082 33.0036L33.0055 26.4063L31.6054 25.0063Z" fill="white"/>
<path d="M31 18H29.86C28.91 18 28.34 18.49 28.12 19.33H28V17C28 14.76 26.2 13 24 13C21.78 13 20 14.79 20 17V18H17C15.9 18 15 18.9 15 20V31C15 32.1 15.9 33 17 33H23V31H17V20H20V22H22V20H26V22H28V20H31V23.01H33V20C33 18.9 32.11 18 31 18ZM22.12 19.33H22V17C22 15.86 22.9 15 24 15C25.1 15 26 15.86 26 17V18H23.86C22.91 18 22.34 18.49 22.12 19.33Z" fill="white"/>
<path d="M26.5 28.01C27.3284 28.01 28 27.3384 28 26.51C28 25.6816 27.3284 25.01 26.5 25.01C25.6716 25.01 25 25.6816 25 26.51C25 27.3384 25.6716 28.01 26.5 28.01Z" fill="white"/>
</svg>
