<svg width="48" height="48" viewBox="0 0 48 48" fill="none" xmlns="http://www.w3.org/2000/svg">
<rect width="48" height="48" rx="12" fill="#2B2D33"/>
<path d="M29.68 23.2099L27.65 21.7699L25.71 23.7099L24.29 22.2899L25.21 21.3799C25.66 20.9399 26.12 20.9699 26.68 21.2399L26.74 21.1499L24.37 19.4799C23.84 20.4199 22.85 20.9999 21.77 20.9999H20.34C19.16 20.9999 18.19 20.1299 18.03 18.9999H17V28.9999H30.03C31.67 28.9999 33 27.6699 33 26.0299C33 25.7099 32.85 25.4199 32.58 25.2299L30.59 23.8299L28.65 25.7699L27.23 24.3499L28.15 23.4399C28.6 22.9999 29.06 23.0299 29.62 23.2999L29.68 23.2099ZM23.76 17.0299C24.04 16.9599 24.34 17.0099 24.58 17.1799L33.73 23.5899C34.53 24.1499 35 25.0599 35 26.0299C35 28.7799 32.78 30.9999 30.03 30.9999H16C15.45 30.9999 15 30.5499 15 29.9999V17.9999C15 17.4499 15.45 16.9999 16 16.9999H18.34C19.26 16.9999 20 17.7499 20 18.6699C20 18.8499 20.15 18.9999 20.34 18.9999H21.77C22.14 18.9999 22.49 18.7899 22.66 18.4499L23.11 17.5499C23.24 17.2899 23.47 17.0999 23.76 17.0299Z" fill="white"/>
</svg>
