<svg width="48" height="48" viewBox="0 0 48 48" fill="none" xmlns="http://www.w3.org/2000/svg">
<rect width="48" height="48" rx="12" fill="#2B2D33"/>
<path d="M26 20H24V24H26V20Z" fill="white"/>
<path d="M30 20H28V24H30V20Z" fill="white"/>
<path d="M22 20H20V24H22V20Z" fill="white"/>
<path d="M32.78 16H16.82L16.66 15.21C16.49 14.35 15.99 14 15.21 14H12V16H14.78L16.54 24.78C16.7 25.59 17.05 25.88 18 25.88V26C16.35 26 15 27.35 15 29C15 30.36 15.9 31.5 17.13 31.87C17.05 32.06 17 32.28 17 32.5C17 33.33 17.67 34 18.5 34C19.33 34 20 33.33 20 32.5C20 32.32 19.97 32.16 19.91 32H29.08C29.03 32.16 29 32.32 29 32.5C29 33.33 29.67 34 30.5 34C31.33 34 32 33.33 32 32.5C32 32.32 31.97 32.16 31.91 32H33V30H18C17.45 30 17 29.55 17 29C17 28.45 17.45 28 18 28H30.36C31.79 28 33.02 26.99 33.3 25.59L34.74 18.39C34.99 17.15 34.04 16 32.78 16ZM31.34 25.2C31.24 25.66 30.83 26 30.36 26H18.83L16.97 16.73H17.09C17.3 17.61 17.67 18 18.7 18H32.78L31.34 25.2Z" fill="white"/>
</svg>
