<svg width="48" height="48" viewBox="0 0 48 48" fill="none" xmlns="http://www.w3.org/2000/svg">
<rect width="48" height="48" rx="12" fill="#2B2D33"/>
<path d="M32.4001 14.76C30.0401 12.41 26.2501 12.41 23.9001 14.76L13.2901 25.37C12.9001 25.76 12.9001 26.39 13.2901 26.78L20.3601 33.85C20.7701 34.24 21.3901 34.24 21.7801 33.85L28.8501 26.78C29.1701 26.46 29.2301 25.98 29.0301 25.59L26.9501 21.84C26.5901 21.2 26.3501 20.78 26.2301 20.45C26.1201 20.21 26.0801 20.06 26.1101 19.91C26.1101 19.82 26.1601 19.69 26.3701 19.43C26.5801 19.15 26.9201 18.81 27.4401 18.29C27.8201 17.91 28.4701 17.9 28.8601 18.29C29.2501 18.68 29.2401 19.32 28.8601 19.7L28.7901 19.77C27.8201 20.74 27.8201 22.32 28.7901 23.3C29.7801 24.27 31.3601 24.27 32.3301 23.3L32.3901 23.24C34.7301 20.9 34.7401 17.1 32.4001 14.76ZM30.9701 21.83L30.9101 21.89C30.7201 22.08 30.4001 22.09 30.2101 21.88C30.0101 21.69 30.0201 21.37 30.2101 21.19L30.2601 21.12C31.4401 19.95 31.4401 18.04 30.2601 16.88C29.1001 15.71 27.1901 15.71 26.0201 16.88L25.9901 16.92C25.5101 17.39 25.0901 17.81 24.8001 18.19C24.4701 18.61 24.2001 19.05 24.1301 19.61C24.0101 19.97 24.1701 20.72 24.3701 21.22C24.5601 21.67 24.8501 22.18 25.1701 22.77L26.9001 25.9L23.9001 28.9L23.4301 29.38L21.0801 31.73L15.4201 26.07L25.3201 16.17C26.8901 14.6 29.4201 14.61 30.9801 16.17C32.5301 17.74 32.5301 20.27 30.9701 21.83Z" fill="white"/>
<path d="M18.2401 23.25L17.7701 23.72L17.8501 23.8C17.4201 24.55 17.4701 25.3 18.2401 26.07L21.0701 28.9C21.8401 29.67 22.5901 29.73 23.3401 29.29L23.4201 29.38L23.9001 28.9L21.0701 26.07L18.2401 23.25Z" fill="white"/>
</svg>
