<svg width="48" height="48" viewBox="0 0 48 48" fill="none" xmlns="http://www.w3.org/2000/svg">
<rect width="48" height="48" rx="12" fill="#2B2D33"/>
<path d="M31 18H29.86C28.91 18 28.34 18.49 28.12 19.33H28V17C28 14.76 26.2 13 24 13C21.78 13 20 14.79 20 17V18H17C15.9 18 15 18.9 15 20V31C15 32.1 15.9 33 17 33H31C32.11 33 33 32.1 33 31V20C33 18.9 32.11 18 31 18ZM22 17C22 15.86 22.9 15 24 15C25.1 15 26 15.86 26 17V18H23.86C22.91 18 22.34 18.49 22.12 19.33H22V17ZM31 31H17V20H20V22H22V20H26V22H28V20H31V31Z" fill="white"/>
</svg>
