<svg width="24" height="24" viewBox="0 0 24 24" fill="none" xmlns="http://www.w3.org/2000/svg">
<path d="M20.99 5.87C20.92 5.32 20.54 5 20 5H19V3C19 2.41 18.58 2 18 2H14C13.4 2 13 2.41 13 3V5H11V3C11 2.41 10.58 2 10 2H6.00003C5.40003 2 5.00003 2.41 5.00003 3V5H4.00003C3.45003 5 3.08003 5.32 3.01003 5.87L1.01003 20.87C0.930031 21.46 1.39003 22 2.00003 22H10C10.58 22 11.04 21.51 11 20.91L10.1 11H13.91L13.01 20.91C12.94 21.53 13.45 22 14 22H22C22.63 22 23.07 21.43 22.99 20.87L20.99 5.87ZM3.14003 20L3.41003 18H8.73003L8.91003 20H3.14003ZM9.00003 9C8.37003 9 7.95003 9.43 8.01003 10.09L8.68003 17.43H8.55003C8.45003 16.53 7.83003 16 6.77003 16H5.39003C4.33003 16 3.71003 16.53 3.61003 17.43H3.48003L4.88003 7H6.00003C6.60003 7 7.00003 6.6 7.00003 6V4H9.00003V6C9.00003 6.6 9.40003 7 10 7H14C14.6 7 15 6.6 15 6V4H17V6C17 6.6 17.4 7 18 7H19.13L20.52 17.43H20.4C20.3 16.53 19.68 16 18.62 16H17.24C16.18 16 15.56 16.53 15.46 17.43H15.33L16 10.09C16.06 9.43 15.61 9 15 9H9.00003ZM15.1 20L15.28 18H20.59L20.86 20H15.1Z" fill="#FEE600"/>
</svg>
