<svg width="24" height="24" viewBox="0 0 24 24" fill="none" xmlns="http://www.w3.org/2000/svg">
<path d="M11 4.82V15.5C11 16.05 11.45 16.5 12 16.5H20C20.55 16.5 21 16.05 21 15.5V2.5C21 1.95 20.55 1.5 20 1.5H12C11.45 1.5 11 1.95 11 2.5H11.81L7.84 1.06C7.32 0.869999 6.75 1.14 6.56 1.66L2.12 13.87C1.93 14.39 2.19 14.97 2.71 15.16L6.47 16.52C6.99 16.71 7.56 16.44 7.75 15.93L10 9.76C10.71 7.82 10.86 6.82 10.88 4.82H11ZM17 14.5V3.5H19V14.5H17ZM13 14.5V3.5H15V14.5H13ZM6.22 14.3L4.34 13.62L8.1 3.28L9.98 3.97L6.22 14.3ZM5 22.5H7V20.5H17V22.5H19V20.5H22V18.5H2V20.5H5V22.5Z" fill="#FEE600"/>
</svg>
