<svg width="24" height="24" viewBox="0 0 24 24" fill="none" xmlns="http://www.w3.org/2000/svg">
<path d="M22.8501 21.44L20.8501 17.44C20.6601 17.16 20.3501 16.99 20.0101 16.99H13.0101C12.6801 16.99 12.3701 17.16 12.1801 17.44L10.1801 21.44C9.80011 22.2 10.1801 22.99 11.0101 22.99H22.0101C22.8301 22.99 23.2201 22.18 22.8501 21.44ZM13.5501 18.99H19.4801L20.4801 20.99H12.5501L13.5501 18.99Z" fill="#FEE600"/>
<path d="M14.7001 15.04C15.2501 15.42 15.6601 15.5 16.1201 15.04L20.3601 10.8C20.8201 10.34 20.7401 9.93002 20.3601 9.38002C18.4401 6.60002 16.0801 4.22002 13.2901 2.31002C12.7501 1.94002 12.3401 1.85002 11.8801 2.31002L7.63011 6.56002C7.17011 7.02002 7.26011 7.43002 7.63011 7.97002C8.12011 8.68002 8.63011 9.36002 9.18011 10.01L2.01011 16.39C0.720111 17.54 0.660111 19.54 1.89011 20.77C3.11011 21.99 5.10011 21.93 6.25011 20.63L12.6301 13.46C13.2901 14.02 13.9801 14.55 14.7001 15.04ZM12.7001 4.32002C14.8601 5.93002 16.7401 7.81002 18.3501 9.98002L15.3001 13.03C13.1301 11.42 11.2501 9.54002 9.64011 7.38002L12.7001 4.32002ZM12.1701 13.21C11.5001 12.54 10.8001 12.49 9.99011 13.41L4.76011 19.3C4.37011 19.74 3.70011 19.75 3.30011 19.35C2.89011 18.94 2.91011 18.28 3.34011 17.89L9.23011 12.65C10.1401 11.84 10.1001 11.14 9.44011 10.48L9.52011 10.39C10.3701 11.37 11.2901 12.28 12.2701 13.13L12.1701 13.21Z" fill="#FEE600"/>
</svg>
