<svg width="24" height="24" viewBox="0 0 24 24" fill="none" xmlns="http://www.w3.org/2000/svg">
<path d="M21.46 6.75L18.71 4L17.29 5.42L20 8.12V10.51C20 11.69 20.17 12.25 21.27 13.01L21.19 13.12C20.86 12.86 20.45 12.71 20 12.71H15C13.89 12.71 13 13.61 13 14.71H11C11 13.61 10.11 12.71 9 12.71H4C3.55 12.71 3.14 12.86 2.81 13.12L2.73 13.01C3.83 12.25 4 11.69 4 10.51V8.12L6.71 5.42L5.29 4L2.54 6.75C2.1 7.19 2 7.44 2 8.11V18.71C2 19.81 2.9 20.71 4 20.71H9C10.11 20.71 11 19.81 11 18.71V16.71H13V18.71C13 19.81 13.89 20.71 15 20.71H20C21.1 20.71 22 19.81 22 18.71V8.11C22 7.44 21.9 7.19 21.46 6.75ZM9 18.71H4V14.71H9V18.71ZM20 18.71H15V14.71H20V18.71Z" fill="#FEE600"/>
</svg>
