<svg width="24" height="24" viewBox="0 0 24 24" fill="none" xmlns="http://www.w3.org/2000/svg">
<path d="M5 22.21H17V20.21H10.5H5V22.21Z" fill="#FEE600"/>
<path d="M17.71 4.5L16.92 3.71L18.21 2.42L16.79 1L15.5 2.3L14.71 1.5C14.32 1.11 13.68 1.11 13.29 1.5L5.29 9.5C4.9 9.89 4.9 10.53 5.29 10.92L8.29 13.92C8.68 14.31 9.32 14.31 9.71 13.92L15.46 8.17L15.54 8.26C15.14 8.79 15.02 9.47 15.38 10.18C15.78 10.94 16 11.8 16 12.71C16 15.75 13.54 18.21 10.5 18.21C9.78 18.21 9.08 18.07 8.45 17.82C7.59 17.47 7.04 17.33 5.8 17.33V17.21H10V15.21H2V17.21H4.51C5.88 19.03 8.05 20.21 10.5 20.21C14.64 20.21 18 16.85 18 12.71C18 10.75 17.23 8.96 16 7.63L17.71 5.92C18.1 5.53 18.1 4.89 17.71 4.5ZM9 11.8L7.42 10.21L14 3.62L15.59 5.21L9 11.8Z" fill="#FEE600"/>
</svg>
