<svg width="48" height="48" viewBox="0 0 48 48" fill="none" xmlns="http://www.w3.org/2000/svg">
<rect width="48" height="48" rx="12" fill="#2B2D33"/>
<path fill-rule="evenodd" clip-rule="evenodd" d="M34.2537 16.5753C32.1059 14.4274 28.6235 14.4274 26.4756 16.5753L25.7685 17.2824L27.1827 18.6966L27.8898 17.9895C29.2566 16.6227 31.4727 16.6227 32.8395 17.9895C34.2063 19.3563 34.2063 21.5724 32.8395 22.9392L28.5969 27.1819C27.2301 28.5487 25.014 28.5487 23.6471 27.1819C22.9546 26.4894 22.613 25.5789 22.6222 24.6713C22.6304 23.8581 22.9258 23.213 23.3506 22.6377C23.8312 21.987 23.9962 21.1633 23.7432 20.4622L23.8239 20.3815C24.0112 20.5069 24.1888 20.6525 24.3542 20.8179C25.7067 22.1704 25.7209 24.3543 24.3969 25.7243L25.8004 27.1497C27.9163 24.9993 27.9056 21.5409 25.7685 19.4037C23.6206 17.2558 20.1382 17.2558 17.9903 19.4037L13.7476 23.6463C11.5997 25.7942 11.5998 29.2766 13.7476 31.4245C14.894 32.5709 16.4206 33.1054 17.9215 33.0281C18.9189 32.9767 19.773 32.6056 20.5978 32.0529C21.9604 31.1399 22.7721 30.0079 23.1307 29.5078C23.1653 29.4597 23.1956 29.4174 23.2218 29.3817C25.3436 30.7006 28.1684 30.4387 30.0111 28.5961L34.2537 24.3535C36.4016 22.2055 36.4016 18.7232 34.2537 16.5753ZM19.4045 20.8179C20.3918 19.8306 21.8221 19.5565 23.0554 19.9954L22.2329 20.8179C20.085 22.9658 20.085 26.4482 22.2329 28.5961C22.3324 28.6955 22.4346 28.7904 22.5395 28.8806L22.4551 28.965C21.8181 28.8328 21.1235 29.0126 20.5978 29.479C19.692 30.2828 18.6341 31.0255 17.6725 31.0352C16.7648 31.0445 15.8544 30.7028 15.1619 30.0103C13.795 28.6435 13.795 26.4274 15.1619 25.0606L19.4045 20.8179Z" fill="white"/>
</svg>
