<svg width="48" height="48" viewBox="0 0 48 48" fill="none" xmlns="http://www.w3.org/2000/svg">
<rect width="48" height="48" rx="12" fill="#2B2D33"/>
<path fill-rule="evenodd" clip-rule="evenodd" d="M20.818 16.0017C22.1563 14.72 23.9713 14 25.8639 14C27.7565 14 29.5716 14.72 30.9099 16.0017C32.2482 17.2834 33 19.0217 33 20.8342C33 22.6467 32.2483 24.385 30.91 25.6667L23.7015 32.5703C22.7455 33.4858 21.449 34 20.0972 34C18.7453 34 17.4489 33.4857 16.4929 32.5702C15.537 31.6547 15 30.4131 15 29.1184C15 27.8237 15.537 26.5822 16.4929 25.6667L23.7015 18.7631C24.2751 18.2138 25.0529 17.9053 25.8639 17.9053C26.6751 17.9053 27.453 18.2139 28.0265 18.7632C28.6001 19.3125 28.9223 20.0575 28.9223 20.8343C28.9223 21.611 28.6002 22.3559 28.0266 22.9053L20.818 29.8089L19.3763 28.4281L26.5849 21.5245C26.776 21.3415 26.8834 21.0933 26.8834 20.8343C26.8834 20.5753 26.776 20.327 26.5848 20.1439C26.3936 19.9608 26.1343 19.858 25.8639 19.858C25.5935 19.858 25.3343 19.9608 25.1432 20.1438L17.9346 27.0474C17.3611 27.5967 17.0389 28.3416 17.0389 29.1184C17.0389 29.8952 17.3611 30.6402 17.9346 31.1895C18.5082 31.7388 19.2861 32.0474 20.0972 32.0474C20.9084 32.0474 21.6862 31.7388 22.2598 31.1896L29.4683 24.286C30.4242 23.3705 30.9611 22.1289 30.9611 20.8342C30.9611 19.5395 30.4241 18.2979 29.4682 17.3824C28.5123 16.4669 27.2158 15.9526 25.8639 15.9526C24.512 15.9526 23.2157 16.4669 22.2597 17.3824L16.4929 22.9053L15.0512 21.5245L20.818 16.0017Z" fill="white"/>
</svg>
