<svg width="48" height="48" viewBox="0 0 48 48" fill="none" xmlns="http://www.w3.org/2000/svg">
<rect width="48" height="48" rx="12" fill="#2B2D33"/>
<g clip-path="url(#clip0_386_16165)">
<path d="M18 31.76V17H30V31.76C28.06 31.11 26.54 29.52 24.98 26.72C24.73 26.27 24.44 26 23.99 26C23.54 26 23.27 26.27 23.02 26.72C21.47 29.51 19.94 31.1 18 31.76ZM16.95 33.93C19.2 33.93 22.57 31.96 23.93 28.69H24.07C25.43 31.95 28.76 33.93 31.05 33.93C31.7 33.93 32 33.5 32 32.81V16C32 15.45 31.55 15 31 15H17C16.45 15 16 15.45 16 16V32.81C16 33.5 16.3 33.93 16.95 33.93Z" fill="white"/>
</g>
<defs>
<clipPath id="clip0_386_16165">
<rect width="16" height="18.93" fill="white" transform="translate(16 15)"/>
</clipPath>
</defs>
</svg>
