<svg width="48" height="48" viewBox="0 0 48 48" fill="none" xmlns="http://www.w3.org/2000/svg">
<rect width="48" height="48" rx="12" fill="#2B2D33"/>
<path d="M28.95 20.46L27.54 19.05L25.41 21.17C24.78 21.81 24.68 22.7 25.03 23.43L24.94 23.53L20.46 19.05L19.05 20.46L21.88 23.29C22.25 23.66 22.32 24.27 21.88 24.71L19.05 27.54L20.46 28.95L22.59 26.83C23.22 26.19 23.32 25.3 22.97 24.57L23.06 24.47L27.54 28.95L28.95 27.54L26.12 24.71C25.75 24.34 25.68 23.73 26.12 23.29L28.95 20.46Z" fill="white"/>
<path d="M24 14C18.48 14 14 18.48 14 24C14 29.52 18.48 34 24 34C29.52 34 34 29.52 34 24C34 18.48 29.52 14 24 14ZM24 32C19.58 32 16 28.42 16 24C16 19.58 19.58 16 24 16C28.42 16 32 19.58 32 24C32 28.42 28.42 32 24 32Z" fill="white"/>
</svg>
