<svg width="48" height="48" viewBox="0 0 48 48" fill="none" xmlns="http://www.w3.org/2000/svg">
<rect width="48" height="48" rx="12" fill="#2B2D33"/>
<path d="M24 19C24.8284 19 25.5 18.3284 25.5 17.5C25.5 16.6716 24.8284 16 24 16C23.1716 16 22.5 16.6716 22.5 17.5C22.5 18.3284 23.1716 19 24 19Z" fill="white"/>
<path d="M32 23V25H16V23H32Z" fill="white"/>
<path d="M25.5 30.5C25.5 31.3284 24.8284 32 24 32C23.1716 32 22.5 31.3284 22.5 30.5C22.5 29.6716 23.1716 29 24 29C24.8284 29 25.5 29.6716 25.5 30.5Z" fill="white"/>
</svg>
