<svg width="48" height="48" viewBox="0 0 48 48" fill="none" xmlns="http://www.w3.org/2000/svg">
<rect width="48" height="48" rx="12" fill="#2B2D33"/>
<path d="M31 29C31 30.1 30.1 31 29 31C27.9 31 27 30.1 27 29C27 27.9 27.9 27 29 27C30.1 27 31 27.9 31 29ZM33 29C33 26.8 31.2 25 29 25C27.8 25 26.8 25.4 25.9 26.5C24.9 27.7 24.5 28 23 28H15V30H22.8C23.8 30 24.5 29.6 24.9 28.9H25V29C25 31.2 26.8 33 29 33C31.2 33 33 31.2 33 29ZM17 19C17 17.9 17.9 17 19 17C20.1 17 21 17.9 21 19C21 20.1 20.1 21 19 21C17.9 21 17 20.1 17 19ZM15 19C15 21.2 16.8 23 19 23C20.2 23 21.2 22.6 22.1 21.5C23.2 20.3 23.5 20 25 20H33V18H25.2C24.2 18 23.5 18.4 23.1 19.1H23V19C23 16.8 21.2 15 19 15C16.8 15 15 16.8 15 19Z" fill="white"/>
</svg>
