<svg width="48" height="48" viewBox="0 0 48 48" fill="none" xmlns="http://www.w3.org/2000/svg">
<rect width="48" height="48" rx="12" fill="#2B2D33"/>
<path d="M32.71 23.2901L24.71 15.2901C24.32 14.9001 23.69 14.9001 23.3 15.2901L15.3 23.2901C15.11 23.4801 15 23.7301 15 24.0001V32.0001C15 32.5501 15.45 33.0001 16 33.0001H22C22.55 33.0001 23 32.5501 23 32.0001V28.0001H25V32.0001C25 32.5501 25.45 33.0001 26 33.0001H32C32.55 33.0001 33 32.5501 33 32.0001V24.0001C33 23.7301 32.89 23.4801 32.71 23.2901ZM32.31 31.0001H27V27.0001C27 26.4501 26.55 26.0001 26 26.0001H22C21.45 26.0001 21 26.4501 21 27.0001V31.0001H15.67V30.8801C16.44 30.6001 17 29.8701 17 29.0001V24.4101L24 17.4101L30.98 24.4101V29.0001C30.98 29.8701 31.54 30.6001 32.31 30.8801V31.0001Z" fill="white"/>
</svg>
