<svg width="48" height="48" viewBox="0 0 48 48" fill="none" xmlns="http://www.w3.org/2000/svg">
<rect width="48" height="48" rx="12" fill="#2B2D33"/>
<path fill-rule="evenodd" clip-rule="evenodd" d="M24 14C18.4772 14 14 18.4772 14 24C14 29.5228 18.4772 34 24 34C29.5228 34 34 29.5228 34 24C34 18.4772 29.5228 14 24 14ZM21 21.7554C21.0176 20.9248 21.3032 20.2634 21.8569 19.7712C22.4282 19.2571 23.2104 19 24.2036 19C25.1396 19 25.8977 19.2373 26.4778 19.7119C27.0491 20.1821 27.3347 20.7952 27.3347 21.551C27.3347 22.4871 26.8645 23.2319 25.9241 23.7856C25.4846 24.0405 25.188 24.269 25.0342 24.4712C24.8804 24.6733 24.8035 24.937 24.8035 25.2622V25.6116H23.0566L23.0435 25.2292C22.9995 24.7195 23.072 24.2954 23.261 23.957C23.4456 23.6362 23.7686 23.3396 24.23 23.0671C24.6562 22.8123 24.9463 22.5837 25.1001 22.3816C25.2583 22.1794 25.3374 21.9224 25.3374 21.6104C25.3374 21.2939 25.2231 21.0347 24.9946 20.8325C24.7617 20.6304 24.4585 20.5293 24.085 20.5293C23.707 20.5293 23.4016 20.6414 23.1687 20.8655C22.9358 21.0852 22.8083 21.3818 22.7864 21.7554H21ZM25.25 27.75C25.25 28.4404 24.6904 29 24 29C23.3096 29 22.75 28.4404 22.75 27.75C22.75 27.0596 23.3096 26.5 24 26.5C24.6904 26.5 25.25 27.0596 25.25 27.75Z" fill="white"/>
</svg>
