<svg width="48" height="48" viewBox="0 0 48 48" fill="none" xmlns="http://www.w3.org/2000/svg">
<rect width="48" height="48" rx="12" fill="#2B2D33"/>
<path d="M26.39 19.02H21.61C21.05 19.02 20.8 19.75 21.25 20.09L23.64 21.88C23.86 22.05 24.14 22.05 24.36 21.88L26.74 20.09C27.2 19.74 26.97 19.02 26.39 19.02Z" fill="white"/>
<path d="M31 17.8V15C31 14.42 30.58 14 30 14H18C17.42 14 17 14.42 17 15V17.8C17 20.07 17.62 21.48 19.47 22.8L21.15 24L19.47 25.2C17.62 26.52 17 27.93 17 30.2V33C17 33.58 17.42 34 18 34H30C30.58 34 31 33.58 31 33V30.2C31 27.93 30.38 26.52 28.53 25.2L26.84 24L28.53 22.8C30.38 21.48 31 20.07 31 17.8ZM27.26 21.23L24.98 22.96V25.04L27.26 26.77C28.64 27.82 29 28.47 29 30.2C29 31.1 29.34 31.63 30.33 31.87V32H28.49C26.2 29.16 25.38 28 24 28C22.62 28 21.8 29.16 19.51 32H17.67V31.87C18.66 31.63 19 31.1 19 30.2C19 28.47 19.36 27.83 20.74 26.77L23 25.04V22.96L20.74 21.23C19.36 20.17 19 19.53 19 17.8C19 16.9 18.66 16.37 17.67 16.13V16H30.33V16.13C29.34 16.37 29 16.9 29 17.8C29 19.53 28.64 20.18 27.26 21.23Z" fill="white"/>
</svg>
