<svg width="48" height="48" viewBox="0 0 48 48" fill="none" xmlns="http://www.w3.org/2000/svg">
<rect width="48" height="48" rx="12" fill="#2B2D33"/>
<path d="M29 21C30.7 21 32 22.3 32 24C32 25.7 30.7 27 29 27C24.39 27 25.1 19 19 19C16.2 19 14 21.2 14 24C14 26.8 16.2 29 19 29C22.35 29 22.93 26.54 23.96 26.54C24.23 26.54 24.49 26.65 24.67 26.84L23.71 25.45L23.62 25.54C23.31 25.32 23.01 25.22 22.73 25.22C21.26 25.22 21.16 27 19 27C17.3 27 16 25.7 16 24C16 22.3 17.3 21 19 21C23.61 21 22.9 29 29 29C31.8 29 34 26.8 34 24C34 21.2 31.8 19 29 19C25.65 19 25.07 21.46 24.04 21.46C23.77 21.46 23.51 21.35 23.33 21.16L24.29 22.55L24.38 22.46C24.69 22.68 24.99 22.78 25.27 22.78C26.74 22.78 26.84 21 29 21Z" fill="white"/>
</svg>
