<svg width="48" height="48" viewBox="0 0 48 48" fill="none" xmlns="http://www.w3.org/2000/svg">
<rect width="48" height="48" rx="12" fill="#2B2D33"/>
<path d="M32 24.53V31H16V24.53C16 23.19 15.67 22.37 14.73 21.45L14.8 21.35L23.4 27.8C23.76 28.07 24.23 28.07 24.59 27.8L33.19 21.35L33.26 21.45C32.32 22.37 31.99 23.19 32 24.53ZM16 17H32V15H16V17ZM24 25.75L17.67 21H30.33L24 25.75ZM15 33H33C33.58 33 34 32.59 34 32V20C34 19.42 33.58 19 33 19H15C14.43 19 14 19.42 14 20V32C14 32.59 14.43 33 15 33Z" fill="white"/>
</svg>
