<svg width="48" height="48" viewBox="0 0 48 48" fill="none" xmlns="http://www.w3.org/2000/svg">
<rect width="48" height="48" rx="12" fill="#2B2D33"/>
<path d="M31 29.4C31 30.4 31.5 31 32.3 31.3V31.4H17V19.4C17 18.4 16.5 17.8 15.7 17.5V17.4H25V15.4H16C15.4 15.4 15 15.9 15 16.4V32.4C15 33 15.4 33.4 16 33.4H32C32.5 33.4 33 33 33 32.4V23.4H31V29.4Z" fill="white"/>
<path d="M23.3 23.7L29.9 17.1L29.7 17C28.5 17.8 27.4 17.5 26.3 16.4L27.7 15C28.6 15.9 29.9 16.2 31.5 15.5C32 15.3 32.4 15.4 32.7 15.7C33 16 33.1 16.4 32.9 16.9C32.2 18.4 32.5 19.7 33.4 20.7L32 22.1C30.9 21 30.5 19.9 31.4 18.7L31.3 18.6L24.7 25.2L23.3 23.7Z" fill="white"/>
</svg>
