<svg width="48" height="48" viewBox="0 0 48 48" fill="none" xmlns="http://www.w3.org/2000/svg">
<rect width="48" height="48" rx="12" fill="#2B2D33"/>
<path d="M32.3008 24.9L31.0008 23.6V21C31.0008 17.1 27.9008 14 24.0008 14C20.1008 14 17.0008 17.1 17.0008 21V23.6L15.7008 24.9C14.5008 26.1 14.5008 28 15.7008 29.1L16.3008 29.7C16.5008 29.9 16.7008 30 17.0008 30H18.4008C20.9008 30 20.1008 34 24.0008 34C27.9008 34 27.2008 30 29.6008 30H31.0008C31.3008 30 31.5008 29.9 31.7008 29.7L32.3008 29.1C33.5008 27.9 33.5008 26.1 32.3008 24.9ZM24.0008 32C22.3008 32 22.8008 30.6 21.3008 30.1V30H26.7008V30.1C25.2008 30.6 25.7008 32 24.0008 32ZM30.9008 27.7L30.6008 28H17.4008L17.1008 27.7C16.7008 27.3 16.7008 26.7 17.1008 26.3L18.7008 24.7C18.9008 24.5 19.0008 24.3 19.0008 24V21C19.0008 18.2 21.2008 16 24.0008 16C26.8008 16 29.0008 18.2 29.0008 21V24C29.0008 24.3 29.1008 24.5 29.3008 24.7L30.9008 26.3C31.3008 26.7 31.3008 27.3 30.9008 27.7Z" fill="white"/>
</svg>
