<svg width="48" height="48" viewBox="0 0 48 48" fill="none" xmlns="http://www.w3.org/2000/svg">
<rect width="48" height="48" rx="12" fill="#2B2D33"/>
<path d="M31.8301 19.8201L27.5901 15.5801C26.8101 14.8001 25.5401 14.8001 24.7601 15.5801L21.2801 19.0501C21.0801 19.2501 20.5601 19.4701 20.2701 19.4701L16.5401 19.5101C15.5701 19.5301 15.2301 20.0901 15.1301 20.3401C15.0301 20.5901 14.8601 21.2401 15.5501 21.9301L19.8001 26.1801L15.2901 30.6901C14.9001 31.0801 14.9001 31.7101 15.2901 32.1001C15.4901 32.3001 15.7401 32.3901 16.0001 32.3901C16.2601 32.3901 16.5101 32.3001 16.7101 32.1001L19.8301 28.9801C20.4001 28.4101 20.5601 27.6201 20.1801 26.7901L20.3001 26.6701L25.4701 31.8401C25.8801 32.2501 26.2701 32.3601 26.5801 32.3601C26.7901 32.3601 26.9601 32.3101 27.0601 32.2701C27.3101 32.1701 27.8901 31.8301 27.9001 30.8501L27.9401 27.1201C27.9401 26.8301 28.1601 26.3101 28.3601 26.1101L31.8301 22.6401C32.6101 21.8601 32.6101 20.6101 31.8301 19.8201Z" fill="white"/>
</svg>
