<svg width="48" height="48" viewBox="0 0 48 48" fill="none" xmlns="http://www.w3.org/2000/svg">
<rect width="48" height="48" rx="12" fill="#2B2D33"/>
<path d="M29.25 19.37L30.75 18.04C32.15 19.63 33 21.72 33 24C33 28.97 28.97 33 24 33C19.03 33 15 28.97 15 24C15 19.03 19.03 15 24 15V14.86C22.54 14.56 22.04 13.49 22.04 12H24.03C24.04 13.33 24.72 14.46 26.32 15.03C26.83 15.21 27.04 15.55 27.04 16C27.04 16.45 26.83 16.79 26.32 16.97C24.72 17.54 24.04 18.67 24.03 20H22.04C22.04 18.51 22.54 17.44 24 17.14V17C20.13 17 17 20.13 17 24C17 27.87 20.13 31 24 31C27.87 31 31 27.86 31 24C31 22.23 30.34 20.6 29.25 19.37Z" fill="white"/>
</svg>
