<svg width="48" height="48" viewBox="0 0 48 48" fill="none" xmlns="http://www.w3.org/2000/svg">
<rect width="48" height="48" rx="12" fill="#2B2D33"/>
<path d="M32 15H16C15.5 15 15 15.5 15 16V32C15 32.6 15.5 33 16 33H32C32.5 33 33 32.6 33 32V16C33 15.5 32.5 15 32 15ZM32.4 21.1C31.5 21.2 31 21.8 31 22.9V31H17V22.9C17 21.8 16.5 21.3 15.6 21.1V21H19.8C21.2 20.6 21.5 19 21.5 19H17V17H31V19H26.5C26.5 19 26.9 20.6 28.3 21H32.4V21.1Z" fill="white"/>
<path d="M25 19.7C24.8 19.2 24.5 19 24 19C23.5 19 23.2 19.2 23 19.7C22.3 21.4 21 23 19 23V25C21.1 25 22.4 24 22.9 22.4H23V29H25V22.4H25.1C25.6 24 26.9 25 29 25V23C27 23 25.7 21.4 25 19.7Z" fill="white"/>
</svg>
