<svg width="48" height="48" viewBox="0 0 48 48" fill="none" xmlns="http://www.w3.org/2000/svg">
<rect width="48" height="48" rx="12" fill="#2B2D33"/>
<path fill-rule="evenodd" clip-rule="evenodd" d="M24 14C24.3632 14 24.6978 14.1969 24.8742 14.5144L34.8742 32.5144C35.0462 32.8241 35.0416 33.2017 34.8619 33.5071C34.6822 33.8125 34.3543 34 34 34H14C13.6457 34 13.3178 33.8125 13.1381 33.5071C12.9584 33.2017 12.9538 32.8241 13.1258 32.5144L23.1258 14.5144C23.3022 14.1969 23.6368 14 24 14ZM23 27V22H25V27H23ZM22.75 29.5C22.75 30.1904 23.3096 30.75 24 30.75C24.6904 30.75 25.25 30.1904 25.25 29.5C25.25 28.8096 24.6904 28.25 24 28.25C23.3096 28.25 22.75 28.8096 22.75 29.5Z" fill="white"/>
</svg>
