<svg width="48" height="48" viewBox="0 0 48 48" fill="none" xmlns="http://www.w3.org/2000/svg">
<rect width="48" height="48" rx="12" fill="#2B2D33"/>
<path d="M17 28H23V26H18V23.4C18 22.63 17.63 22.18 17 22.12V22H26V20H18V16H30V20H32V16C32 14.9 31.11 14 30 14H18C16.9 14 16 14.9 16 16V20H14V22H16V26H14V28H16V32C16 33.1 16.9 34 18 34H23V32H18V29.4C18 28.63 17.63 28.18 17 28.12V28ZM27.41 34C27.76 34 28.09 33.82 28.28 33.47L29 32.12L29.72 33.47C29.91 33.82 30.24 34 30.59 34C31.02 34 31.57 33.65 32 33.36C32.92 32.74 34 31.58 34 29.8C34 27.36 32.03 25.2 29.78 22.38C29.59 22.14 29.3 22 29 22C28.7 22 28.41 22.13 28.22 22.38C26.03 25.18 24 27.38 24 29.8C24 31.58 25.08 32.74 26 33.36C26.43 33.65 26.98 34 27.41 34ZM27.01 31.61C26.46 31.25 26 30.62 26 29.8C26 27.81 27.69 26.42 29 24.65C30.31 26.42 32 27.81 32 29.8C32 30.62 31.54 31.25 30.99 31.61L29.88 29.53C29.68 29.16 29.41 28.96 29 28.96C28.59 28.96 28.32 29.16 28.12 29.53L27.01 31.61Z" fill="white"/>
</svg>
