<svg width="48" height="48" viewBox="0 0 48 48" fill="none" xmlns="http://www.w3.org/2000/svg">
<rect width="48" height="48" rx="12" fill="#2B2D33"/>
<path d="M31.61 23.81C31.9 23.52 32 23.27 32 22.8V18H35V16H27V18H31.23V18.12C30.45 18.26 30 18.82 30 19.79V21H18V19.79C18 18.82 17.55 18.26 16.77 18.12V18H21V16H13V18H16V22.8C16 23.27 16.11 23.52 16.39 23.81L19 26.42V27.59L15.79 30.8L17.21 32.21L20.42 29H27.59L30.79 32.21L32.21 30.8L29 27.59V26.42L31.61 23.81ZM27.39 25.2C27.11 25.48 27 25.74 27 26.2V27H21V26.2C21 25.74 20.9 25.48 20.62 25.19L18.42 23H29.59L27.39 25.2Z" fill="white"/>
</svg>
