<svg width="48" height="48" viewBox="0 0 48 48" fill="none" xmlns="http://www.w3.org/2000/svg">
<rect width="48" height="48" rx="12" fill="#2B2D33"/>
<path d="M18 27H14V29H16.6C17.37 29 17.82 28.63 17.88 28H18V32C18 32.55 18.45 33 19 33H22V31H20V20H30V18H25V16H30V14H18V16H23V18H19C18.45 18 18 18.45 18 19V22H14V24H16.6C17.37 24 17.82 23.63 17.88 23H18V27ZM27.41 34.01C27.76 34.01 28.09 33.83 28.28 33.48L29 32.13L29.72 33.48C29.91 33.83 30.24 34.01 30.59 34.01C31.02 34.01 31.57 33.66 32 33.37C32.92 32.75 34 31.59 34 29.81C34 27.37 32.02 25.22 29.78 22.39C29.59 22.15 29.3 22.01 29 22.01C28.7 22.01 28.41 22.14 28.22 22.39C26.07 25.22 24 27.39 24 29.81C24 31.59 25.08 32.75 26 33.37C26.43 33.66 26.98 34.01 27.41 34.01ZM27.01 31.62C26.46 31.26 26 30.63 26 29.81C26 28.12 27.69 26.33 29 24.66C30.41 26.43 32 28.12 32 29.81C32 30.63 31.54 31.26 30.99 31.62L29.88 29.54C29.68 29.17 29.41 28.97 29 28.97C28.59 28.97 28.32 29.17 28.12 29.54L27.01 31.62Z" fill="white"/>
</svg>
