<svg width="48" height="48" viewBox="0 0 48 48" fill="none" xmlns="http://www.w3.org/2000/svg">
<rect width="48" height="48" rx="12" fill="#2B2D33"/>
<path d="M29 14H19C18.4 14 18 14.4 18 15V19C18 19.3 18.09 19.49 18.3 19.7L20 21.4V33C20 33.6 20.4 34 21 34H27C27.6 34 28 33.6 28 33V21.4L29.7 19.7C29.9 19.5 30 19.3 30 19V15C30 14.4 29.6 14 29 14ZM26 23.94V32H22V23.94C22 22.84 21.53 22.27 20.69 22.02V21.89C20.88 21.96 21.08 22 21.32 22H26.68C26.92 22 27.12 21.96 27.31 21.89V22.02C26.47 22.27 26 22.84 26 23.94ZM28 18.6L26.6 20H21.4L20 18.6V16H28V18.6Z" fill="white"/>
<path d="M25 24H23V27H25V24Z" fill="white"/>
</svg>
