<svg width="48" height="48" viewBox="0 0 48 48" fill="none" xmlns="http://www.w3.org/2000/svg">
<rect width="48" height="48" rx="12" fill="#2B2D33"/>
<path d="M26 14H18C17.74 14 17.48 14.1 17.29 14.29L14.29 17.29C14.1 17.48 14 17.73 14 18V20C14 20.55 14.45 21 15 21H18V31C18 32.68 19.33 34 21 34C22.68 34 24 32.68 24 31V21H26C26.55 21 27 20.55 27 20V15C27 14.45 26.55 14 26 14ZM23.33 21.12C22.49 21.39 22 22.03 22 23V31C22 31.57 21.57 32 21 32C20.43 32 20 31.57 20 31V23C20 22.03 19.51 21.39 18.67 21.12V21H23.33V21.12ZM25 19H16V18.41L18.42 16H25V19Z" fill="white"/>
<path d="M33 23H32V14H30V21C30 21.97 30.49 22.61 31.33 22.88V23H29C28.45 23 28 23.45 28 24V31C28 32.68 29.32 34 31 34C32.68 34 34 32.68 34 31V24C34 23.45 33.55 23 33 23ZM32 31C32 31.57 31.57 32 31 32C30.43 32 30 31.57 30 31V25H32V31Z" fill="white"/>
</svg>
