<svg width="48" height="48" viewBox="0 0 48 48" fill="none" xmlns="http://www.w3.org/2000/svg">
<rect width="48" height="48" rx="12" fill="#2B2D33"/>
<path d="M26 27H22V29H26V27Z" fill="white"/>
<path d="M30 18V16.62C30.31 16.34 30.5 15.94 30.5 15.5C30.5 14.67 29.83 14 29 14C28.17 14 27.5 14.67 27.5 15.5C27.5 15.94 27.69 16.34 28 16.62V18H20V16.62C20.31 16.34 20.5 15.94 20.5 15.5C20.5 14.67 19.83 14 19 14C18.17 14 17.5 14.67 17.5 15.5C17.5 15.94 17.7 16.34 18 16.62V18C16.35 18 15 19.34 15 21V29C15 30.31 15.84 31.42 17 31.83V34H19V32H29V34H31V31.83C32.17 31.42 33 30.31 33 29V21C33 19.34 31.66 18 30 18ZM31 28V29C31 29.55 30.55 30 30 30H18C17.45 30 17 29.55 17 29V28C17 26.99 16.77 26.35 16.25 25.47L16.37 25.41C16.88 26.35 17.86 27 19 27C20.65 27 22 25.65 22 24C22 22.35 20.65 21 19 21C18.23 21 17.53 21.3 17 21.78V21C17 20.47 17.45 20 18 20H30C30.55 20 31 20.47 31 21V21.78C30.47 21.3 29.77 21 29 21C27.35 21 26 22.35 26 24C26 25.65 27.35 27 29 27C30.14 27 31.12 26.35 31.63 25.41L31.75 25.47C31.23 26.35 31 26.99 31 28ZM18 24C18 23.45 18.45 23 19 23C19.55 23 20 23.45 20 24C20 24.55 19.55 25 19 25C18.45 25 18 24.55 18 24ZM30 24C30 24.55 29.55 25 29 25C28.45 25 28 24.55 28 24C28 23.45 28.45 23 29 23C29.55 23 30 23.45 30 24Z" fill="white"/>
</svg>
