<svg width="48" height="48" viewBox="0 0 48 48" fill="none" xmlns="http://www.w3.org/2000/svg">
<rect width="48" height="48" rx="12" fill="#2B2D33"/>
<path d="M14.3499 31.5C15.3699 33.26 17.7499 33.28 21.4099 31.73L20.3999 29.98C17.9899 30.97 16.4399 31.11 16.0899 30.5C15.7299 29.89 16.6199 28.63 18.6899 27.02C19.4499 26.43 19.6499 25.92 19.8999 24.93L20.0299 24.97C19.9499 25.3 19.8799 25.64 19.8799 26C19.8799 27.48 20.7099 28.77 21.9199 29.46H21.8799C28.1099 33.06 32.0199 33.9 33.4099 31.5C34.4199 29.74 33.2499 27.67 30.0799 25.27L29.0699 27.02C31.1299 28.62 32.0299 29.89 31.6699 30.5C31.3199 31.11 29.7899 30.97 27.3599 29.98C26.4699 29.62 25.9299 29.7 24.9399 29.98L24.9199 29.85C26.6199 29.39 27.8799 27.84 27.8799 26C27.8799 18.81 26.6499 15 23.8799 15C21.8499 15 20.6399 17.05 20.1499 21H22.1699C22.5199 18.41 23.1699 17 23.8799 17C24.5899 17 25.2299 18.4 25.5899 21C25.7199 21.95 26.0599 22.38 26.7899 23.09L26.6999 23.17C25.9799 22.45 24.9799 22 23.8799 22C23.1499 22 22.4599 22.22 21.8699 22.57L21.8799 22.54C15.6499 26.13 12.9699 29.1 14.3499 31.5ZM21.8799 26C21.8799 24.9 22.7799 24 23.8799 24C24.9799 24 25.8799 24.9 25.8799 26C25.8799 27.1 24.9799 28 23.8799 28C22.7799 28 21.8799 27.1 21.8799 26Z" fill="white"/>
</svg>
