<svg width="48" height="48" viewBox="0 0 48 48" fill="none" xmlns="http://www.w3.org/2000/svg">
<rect width="48" height="48" rx="12" fill="#2B2D33"/>
<path d="M31.7 23.8V23.67H32C32.58 23.67 33 23.25 33 22.67V17C33 16.43 32.57 16 32 16H24C23.56 16 23.23 16.23 23.07 16.63L21.32 21H19V18H20V16H16V18H17V19.26C17 20.15 17.49 20.7 18.33 20.88V21H16C15.42 21 15 21.42 15 22V25.09C15 25.67 15.42 26.09 16 26.09H16.3V26.22C14.96 26.71 14 27.98 14 29.5C14 31.44 15.56 33 17.5 33C18.9 33 20.09 32.18 20.65 31H25.01C25.92 32.21 27.36 33 28.99 33C31.76 33 33.99 30.77 33.99 28C34 26.23 33.08 24.69 31.7 23.8ZM17.5 31C16.67 31 16 30.33 16 29.5C16 28.67 16.67 28 17.5 28C18.33 28 19 28.67 19 29.5C19 30.33 18.33 31 17.5 31ZM20.95 29C20.71 27.3 19.27 26 17.5 26C17.33 26 17.16 26.03 17 26.05V23H21.8C22.41 23 22.75 22.81 22.93 22.37L24.68 18H31V23.42C30.39 23.15 29.71 23 29 23C26.23 23 24 25.23 24 28C24 28.34 24.04 28.68 24.1 29H20.95ZM29 31C27.34 31 26 29.66 26 28C26 26.34 27.34 25 29 25C30.66 25 32 26.34 32 28C32 29.66 30.66 31 29 31Z" fill="white"/>
<path d="M29 26.65C28.26 26.65 27.65 27.26 27.65 28C27.65 28.74 28.26 29.35 29 29.35C29.74 29.35 30.35 28.74 30.35 28C30.35 27.26 29.74 26.65 29 26.65Z" fill="white"/>
</svg>
