<svg width="48" height="48" viewBox="0 0 48 48" fill="none" xmlns="http://www.w3.org/2000/svg">
<rect width="48" height="48" rx="12" fill="#2B2D33"/>
<path d="M17.5399 23V22.88C18.8399 22.81 19.0499 22.27 19.9999 21C20.9099 19.79 22.3599 19 23.9999 19C25.6399 19 27.0899 19.79 27.9999 21C28.9499 22.27 29.1599 22.81 30.4599 22.88V23H17.5399ZM18.9499 28L16.2499 25H31.7599L29.0599 28H18.9499ZM15.2099 34.21L19.4199 30H22.9999V34H24.9999V30H28.5899L32.7899 34.21L34.2099 32.8L30.6399 29.23L34.7499 24.67C35.0099 24.38 35.0899 23.96 34.9199 23.6C34.7499 23.24 34.3999 23 33.9999 23H30.9299C30.4899 19.94 28.0699 17.51 24.9999 17.07V14H22.9999V17.07C19.9399 17.51 17.5099 19.94 17.0699 23H13.9999C13.6099 23 13.2499 23.24 13.0899 23.6C12.9299 23.96 12.9999 24.38 13.2599 24.67L17.3599 29.23L13.7899 32.8L15.2099 34.21Z" fill="white"/>
</svg>
