<svg width="48" height="48" viewBox="0 0 48 48" fill="none" xmlns="http://www.w3.org/2000/svg">
<rect width="48" height="48" rx="12" fill="#2B2D33"/>
<path d="M32 28C31.95 28 31.91 28.01 31.86 28.01L33.95 21.32C34.06 20.98 34.01 20.65 33.83 20.39C33.64 20.13 33.36 20 33 20H30.88C30.22 16.87 27.68 15 25 15C22.32 15 19.7 16.94 19.12 20H18.03L17.97 19.76C17.85 19.27 17.51 19 17 19H14V21H16.22L17.97 28L17.03 31.76L18.97 32.24L19.72 29.23L29.02 30.85C29.02 30.9 29 30.95 29 31C29 32.66 30.34 34 32 34C33.65 34 35 32.66 35 31C35 29.34 33.65 28 32 28ZM20.09 19.88C21 19.78 21.41 19.3 22.06 18.54C22.98 17.47 23.73 17 25 17C26.28 17 27.02 17.47 27.94 18.54C28.6 19.3 29 19.8 29.91 19.88V20H20.09V19.88ZM18.53 22H31.61L29.48 28.9L19.83 27.22L18.53 22ZM32 32C31.44 32 31 31.55 31 31C31 30.45 31.44 30 32 30C32.55 30 33 30.45 33 31C33 31.55 32.55 32 32 32Z" fill="white"/>
</svg>
