<svg width="48" height="48" viewBox="0 0 48 48" fill="none" xmlns="http://www.w3.org/2000/svg">
<rect width="48" height="48" rx="12" fill="#2B2D33"/>
<path d="M32 22C32 17.59 28.41 14 24 14C23.06 14 22.06 14.18 21.13 14.53C20.29 14.84 20.23 15.65 20.87 16.28L24 19.41V22H21.41L18.27 18.85C17.64 18.23 16.84 18.29 16.52 19.15C16.18 20.08 16 21.07 16 22C16 24.95 17.61 27.53 20 28.92V34H22V31.03C22 30.34 21.72 29.84 20.86 29.48V29.36C21.82 29.77 22.89 30 24 30C25.11 30 26.18 29.77 27.14 29.36V29.48C26.28 29.84 26 30.34 26 31.03V34H28V28.92C30.39 27.53 32 24.95 32 22ZM24 28C20.69 28 18 25.31 18 22C18 21.81 18.01 21.62 18.02 21.44L20.59 24H25C25.74 24 26 23.66 26 23V18.59L23.44 16.02C23.62 16.01 23.81 16 24 16C27.31 16 30 18.69 30 22C30 25.31 27.31 28 24 28Z" fill="white"/>
</svg>
