<svg width="48" height="48" viewBox="0 0 48 48" fill="none" xmlns="http://www.w3.org/2000/svg">
<rect width="48" height="48" rx="12" fill="#2B2D33"/>
<path d="M31 31.59L28.71 29.29C28.32 28.9 27.68 28.89 27.29 29.29L26.74 29.85L26.15 25.15L30.85 25.74L30.29 26.29C29.9 26.68 29.9 27.32 30.29 27.71L32.59 30L31 31.59ZM30.29 33.71C30.68 34.11 31.32 34.1 31.71 33.71L34.71 30.71C35.1 30.32 35.1 29.68 34.71 29.29L32.42 27L33.71 25.71C34.29 25.13 33.96 24.11 33.13 24.01L25.13 23.01C24.8 22.97 24.47 23.03 24.26 23.26C24.05 23.48 23.97 23.8 24.01 24.12L25.01 32.12C25.11 32.95 26.12 33.3 26.71 32.71L28 31.41L30.29 33.71ZM21 21.59L20.1 20.69C19.72 20.31 19.4 20.2 18.88 20.12V20H23.12V20.12C22.6 20.2 22.28 20.31 21.9 20.69L21 21.59ZM20.29 23.71C20.68 24.1 21.31 24.1 21.7 23.71L23.7 21.71C23.89 21.52 24 21.27 24 21V19C24 18.45 23.55 18 23 18H19C18.44 18 18 18.45 18 19V21C18 21.27 18.1 21.52 18.29 21.71L20.29 23.71ZM17 28H22V26H17C16.44 26 16 25.55 16 25V17C16 16.45 16.44 16 17 16H31C31.55 16 32 16.45 32 17V22H34V17C34 15.34 32.65 14 31 14H17C15.34 14 14 15.34 14 17V25C14 26.66 15.34 28 17 28Z" fill="white"/>
</svg>
