<svg width="48" height="48" viewBox="0 0 48 48" fill="none" xmlns="http://www.w3.org/2000/svg">
<rect width="48" height="48" rx="12" fill="#2B2D33"/>
<path d="M28.94 16.28C29.33 15.89 29.96 15.89 30.35 16.28L30.52 16.45C30.91 16.84 30.91 17.48 30.52 17.87L29.64 18.75L28.06 17.16L28.94 16.28ZM26.64 21.75L25.06 20.16L26.64 18.57L28.23 20.16L26.64 21.75ZM23.64 24.75L22.06 23.16L23.64 21.57L25.23 23.16L23.64 24.75ZM23.29 32.16V32.04C24.61 32.04 25.49 31.86 26.5 31.35L28.03 30.58C28.28 30.46 28.58 30.51 28.77 30.7C29.03 30.96 29.03 31.36 28.77 31.62L28.56 31.84C28.33 32.06 28.08 32.16 27.81 32.16H23.29ZM18.94 28.04L18.76 27.87C18.36 27.49 18.37 26.84 18.76 26.45L20.64 24.57L22.23 26.16L20.35 28.04C19.96 28.43 19.34 28.42 18.94 28.04ZM17.68 34.16H27.81C28.64 34.16 29.32 33.9 29.95 33.27L30.19 33.03C31.22 32 31.22 30.32 30.19 29.29C29.38 28.48 28.15 28.29 27.14 28.8L20.41 32.16H17.68C17.42 32.16 17.19 32.02 17.08 31.79C16.95 31.53 17 31.22 17.2 31.02L18.24 29.98C19.37 30.58 20.8 30.4 21.76 29.45L31.94 19.28C33.11 18.11 33.14 16.18 31.94 15.04L31.76 14.87C30.56 13.73 28.69 13.7 27.52 14.87L17.35 25.04C16.33 26.06 16.04 27.95 17.33 29.18L17.26 29.26C16.76 29.02 16.15 29.24 15.79 29.6C14.97 30.42 14.77 31.66 15.29 32.68C15.75 33.58 16.66 34.16 17.68 34.16Z" fill="white"/>
</svg>
