<svg width="48" height="48" viewBox="0 0 48 48" fill="none" xmlns="http://www.w3.org/2000/svg">
<rect width="48" height="48" rx="12" fill="#2B2D33"/>
<path d="M24 32.99C23.72 32.99 23.44 32.93 23.19 32.82L17.19 30.15C16.32 29.76 16 29.29 16 28.27V27.52H16.12C16.3 28.51 16.83 28.99 17.87 28.99H26V26.99H16V23.54H16.12C16.3 24.52 16.83 24.99 17.87 24.99H30V22.99H16V19.54H16.12C16.3 20.52 16.83 20.99 17.87 20.99H22V18.99H16.1C16.21 18.48 16.57 18.11 17.19 17.84L23.19 15.18C23.44 15.07 23.72 15.01 24 15.01C24.27 15.01 24.55 15.06 24.81 15.18L30.81 17.84C31.58 18.18 32 18.83 32 19.67V28.32C32 29.16 31.58 29.81 30.81 30.15L24.81 32.82C24.55 32.94 24.27 32.99 24 32.99ZM24 35C24.55 35 25.1 34.88 25.62 34.65L31.62 31.98C33.12 31.31 34 29.95 34 28.32V19.67C34 18.04 33.12 16.69 31.62 16.02L25.62 13.35C25.1 13.12 24.55 13 24 13C23.44 13 22.89 13.12 22.37 13.35L16.37 16.02C14.86 16.69 14 18.04 14 19.67V28.32C14 29.95 14.86 31.31 16.37 31.98L22.37 34.65C22.89 34.88 23.44 35 24 35Z" fill="white"/>
</svg>
