<svg width="48" height="48" viewBox="0 0 48 48" fill="none" xmlns="http://www.w3.org/2000/svg">
<rect width="48" height="48" rx="12" fill="#2B2D33"/>
<path d="M33.29 27H14.71V26.88C15.83 26.85 16.06 26.58 16.38 25.57C16.76 24.37 17.43 23.26 18.35 22.34C19.85 20.84 21.88 20 24 20C26.12 20 28.15 20.84 29.65 22.34C30.57 23.26 31.24 24.37 31.62 25.57C31.94 26.58 32.17 26.85 33.29 26.88V27ZM30 33V29H33V33H30ZM25 33V29H28V33H25ZM20 33V29H23V33H20ZM15 33V29H18V33H15ZM12 35H36V33H35V29H36V27H33.95C33.72 24.72 32.71 22.57 31.07 20.93C29.43 19.29 27.29 18.28 25 18.05V16H27V14H24C23.45 14 23 14.45 23 15V18.05C20.72 18.28 18.57 19.29 16.93 20.93C15.29 22.57 14.28 24.72 14.05 27H12V29H13V33H12V35Z" fill="white"/>
</svg>
