<svg width="48" height="48" viewBox="0 0 48 48" fill="none" xmlns="http://www.w3.org/2000/svg">
<rect width="48" height="48" rx="12" fill="#2B2D33"/>
<path d="M25 17V15H28V17H25ZM19.42 25C20.17 23.18 21.96 22 24 22C26.03 22 27.87 23.19 28.58 25H19.42ZM29 30.09L27 29.64V27H29V30.09ZM23 29.2V27H25V29.2L24.22 29.02C24.08 28.99 23.93 28.99 23.78 29.02L23 29.2ZM19 30.09V27H21V29.64L19 30.09ZM14 35H16V32.8L24 31.02L32 32.8V35H34V32C34 31.53 33.68 31.13 33.22 31.02L31 30.53V27H32V25H30.71C29.94 22.36 27.72 20.45 25 20.07V17.7H25.12C25.12 18.37 25.67 19 26.68 19H29C29.55 19 30 18.55 30 18V14C30 13.45 29.55 13 29 13H24C23.45 13 23 13.45 23 14V20.07C20.28 20.45 18.05 22.36 17.29 25H16V27H17V30.53L14.78 31.02C14.33 31.13 14 31.53 14 32V35Z" fill="white"/>
</svg>
