<svg width="48" height="48" viewBox="0 0 48 48" fill="none" xmlns="http://www.w3.org/2000/svg">
<rect width="48" height="48" rx="12" fill="#2B2D33"/>
<path d="M14 31H21.97V31.14C20.51 31.45 20 32.51 20 34H22C22.01 32.68 22.69 31.53 24.29 30.97C24.8 30.79 25 30.45 25 29.99C25 29.54 24.8 29.2 24.29 29.02C22.69 28.45 22.01 27.32 22 26H20C20 27.48 20.51 28.56 21.97 28.86V29H14V31ZM29 23.33V19C29 18.45 28.55 18 28 18H25V16H27V14H23V18H20C19.45 18 19 18.45 19 19V23.33H18.88C18.75 22.49 18.19 22 17.26 22H15C14.45 22 14 22.45 14 23V27H16V24H20C20.55 24 21 23.55 21 23V20H27V23C27 23.55 27.45 24 28 24H32V34H34V23C34 22.45 33.55 22 33 22H30.74C29.81 22 29.25 22.49 29.12 23.33H29ZM29 26V28H27V26H29ZM29 32V30H27V32H29ZM23 22H25V25H23V22Z" fill="white"/>
</svg>
