<svg width="48" height="48" viewBox="0 0 48 48" fill="none" xmlns="http://www.w3.org/2000/svg">
<rect width="48" height="48" rx="12" fill="#2B2D33"/>
<path d="M29 23.33V19C29 18.45 28.55 18 28 18H25V16H27V14H23V18H20C19.45 18 19 18.45 19 19V23.33H18.88C18.75 22.49 18.19 22 17.26 22H15C14.45 22 14 22.45 14 23V34H16V24H20C20.55 24 21 23.55 21 23V20H27V23C27 23.55 27.45 24 28 24H32V34H34V23C34 22.45 33.55 22 33 22H30.74C29.81 22 29.25 22.49 29.12 23.33H29ZM19 26H21V28H19V26ZM25 26H23V28H25V26ZM29 26V28H27V26H29ZM21 30H19V32H21V30ZM23 30H25V34H23V30ZM29 32V30H27V32H29ZM23 22H25V24H23V22Z" fill="white"/>
</svg>
