<svg width="48" height="48" viewBox="0 0 48 48" fill="none" xmlns="http://www.w3.org/2000/svg">
<rect width="48" height="48" rx="12" fill="#FEE600"/>
<path d="M34.9 16.9C35.11 16.41 35.04 16.02 34.72 15.71C34.4 15.4 34.02 15.32 33.53 15.53C31.83 16.26 29.77 16.41 28.36 15L26.95 16.41C28.36 17.82 30.09 18.12 31.5 17.32L31.59 17.41L27 21.99L25.71 20.7C25.32 20.31 24.69 20.31 24.3 20.7L18.3 26.7L19.71 28.11L25 22.82L26.29 24.11C26.68 24.5 27.31 24.5 27.7 24.11L33 18.82L33.1 18.92C32.29 20.33 32.59 22.06 34.01 23.48L35.42 22.07C34 20.65 34.17 18.61 34.9 16.9Z" fill="#2B2D33"/>
<path d="M15.67 31.29C16.44 31.02 17 30.31 17 29.41V15.41H15V32.41C15 32.96 15.45 33.41 16 33.41H33V31.41H15.67V31.29Z" fill="#2B2D33"/>
</svg>
