<svg width="48" height="48" viewBox="0 0 48 48" fill="none" xmlns="http://www.w3.org/2000/svg">
<rect width="48" height="48" rx="12" fill="#FEE600"/>
<path d="M26 19.38V32.38H22V24.38H25C25.6 24.38 26 24.88 26 25.38V23.68H25.85C25.55 22.98 24.9 22.38 24 22.38H21C20.4 22.38 20 22.78 20 23.38V32.38H16V28.38H19C19.6 28.38 20 28.88 20 29.38V27.68H19.85C19.55 26.98 18.9 26.38 18 26.38H15C14.4 26.38 14 26.78 14 27.38V33.38C14 33.98 14.4 34.38 15 34.38H33C33.6 34.38 34 33.98 34 33.38V19.38C34 18.78 33.6 18.38 33 18.38H27C26.4 18.38 26 18.78 26 19.38ZM28 32.38V20.38H32V32.38H28Z" fill="#2B2D33"/>
<path d="M14.02 22.4L20.28 16.15L20.18 16.05C18.93 16.87 17.82 16.47 16.77 15.41L18.18 14C19.12 14.94 20.4 15.27 21.93 14.54C22.42 14.3 22.81 14.4 23.13 14.71C23.45 15.02 23.54 15.42 23.31 15.91C22.58 17.44 22.9 18.72 23.84 19.66L22.43 21.07C21.37 20.02 20.97 18.91 21.79 17.66L21.69 17.56L15.43 23.82L14.02 22.4Z" fill="#2B2D33"/>
</svg>
