<svg width="48" height="48" viewBox="0 0 48 48" fill="none" xmlns="http://www.w3.org/2000/svg">
<rect width="48" height="48" rx="12" fill="#FEE600"/>
<path d="M28 23H33C33.6 23 34 22.6 34 22V17C34 16.4 33.6 16 33 16H28C27.4 16 27 16.4 27 17V18.3C26.9 19.3 26.1 20 25 20H23V19C23 18.4 22.6 18 22 18H15C14.4 18 14 18.4 14 19V29C14 29.6 14.4 30 15 30H22C22.6 30 23 29.6 23 29V28H25C26.1 28 26.8 28.7 27 29.7V31C27 31.6 27.4 32 28 32H33C33.6 32 34 31.6 34 31V26C34 25.4 33.6 25 33 25H28C27.4 25 27 25.4 27 26V27.2H26.85C26.55 26.5 25.9 26 25.1 26H23V22H25C25.9 22 26.65 21.5 26.85 20.8H27V22C27 22.6 27.5 23 28 23ZM29 18H32V21H29V18ZM21 28H16V20H21V28ZM29 27H32V30H29V27Z" fill="#303030"/>
</svg>
