<svg width="24" height="24" viewBox="0 0 24 24" fill="none" xmlns="http://www.w3.org/2000/svg">
<path d="M10.31 11.94V12.06C7.31 13.45 5 16.19 5 20H7C7 17.04 8.59 15.02 12.28 12.97C12.73 12.72 13 12.45 13 12C13 11.55 12.73 11.26 12.28 11.01C8.59 8.96 7 6.96 7 4H5C5 7.81 7.31 10.55 10.31 11.94ZM17.31 11.94V12.06C14.31 13.45 12 16.19 12 20H14C14 17.04 15.59 15.02 19.28 12.97C19.73 12.72 20 12.45 20 12C20 11.55 19.73 11.26 19.28 11.01C15.59 8.96 14 6.96 14 4H12C12 7.81 14.31 10.55 17.31 11.94Z" fill="#FEE600"/>
</svg>
