<svg width="24" height="24" viewBox="0 0 24 24" fill="none" xmlns="http://www.w3.org/2000/svg">
<path d="M21.29 11.04C19.69 10.47 19.01 9.34 19 8.01H17.01C17.01 9.5 17.51 10.57 18.97 10.87V11.01H13V5.04H13.14C13.44 6.5 14.51 7 16 7V5.01C14.67 5 13.54 4.32 12.97 2.72C12.79 2.21 12.45 2 12 2C11.55 2 11.21 2.21 11.03 2.72C10.46 4.32 9.33 5 8 5.01V7C9.49 7 10.56 6.5 10.86 5.04H11V11.01H5.04V10.87C6.5 10.57 7 9.5 7 8.01H5.01C5 9.34 4.32 10.47 2.72 11.04C2.21 11.22 2 11.56 2 12.01C2 12.46 2.21 12.8 2.72 12.98C4.32 13.55 5 14.68 5.01 16.02H7C7 14.52 6.5 13.45 5.04 13.15V13.01H11V18.97H10.86C10.56 17.51 9.49 17.01 8 17.01V19C9.33 19.01 10.46 19.69 11.03 21.29C11.21 21.8 11.55 22.01 12 22.01C12.45 22.01 12.79 21.8 12.97 21.29C13.54 19.69 14.67 19.01 16 19V17.01C14.51 17.01 13.44 17.51 13.14 18.97H13V13.01H18.97V13.15C17.51 13.45 17.01 14.52 17.01 16.02H19C19.01 14.68 19.69 13.55 21.29 12.98C21.8 12.8 22.01 12.46 22.01 12.01C22.01 11.56 21.8 11.22 21.29 11.04Z" fill="#FEE600"/>
</svg>
