<svg width="24" height="24" viewBox="0 0 24 24" fill="none" xmlns="http://www.w3.org/2000/svg">
<path d="M4 14V16C6.96 16 8.96 17.59 11.01 21.28C11.26 21.73 11.55 22 12 22C12.45 22 12.72 21.73 12.97 21.28C15.02 17.59 17.04 16 20 16V14C16.19 14 13.45 16.31 12.06 19.31H11.94C10.55 16.31 7.81 14 4 14Z" fill="#FEE600"/>
<path d="M20 10V8C17.04 8 15.04 6.41 12.99 2.72C12.74 2.27 12.45 2 12 2C11.55 2 11.28 2.27 11.03 2.72C8.98 6.41 6.96 8 4 8V10C7.81 10 10.55 7.69 11.94 4.69H12.06C13.45 7.69 16.19 10 20 10Z" fill="#FEE600"/>
</svg>
