<svg width="24" height="24" viewBox="0 0 24 24" fill="none" xmlns="http://www.w3.org/2000/svg">
<path d="M4 12C4 7.58 7.58 4 12 4C16.42 4 20 7.58 20 12C20 14.13 19.16 16.15 17.66 17.65L19.07 19.06C20.95 17.18 22 14.65 22 12C22 6.48 17.53 2 12 2C6.47 2 2 6.48 2 12C2 14.65 3.05 17.18 4.93 19.06L6.34 17.65C4.84 16.15 4 14.13 4 12Z" fill="#FEE600"/>
<path d="M12.96 7.71C12.76 7.21 12.44 6.99 11.99 6.99C11.54 6.99 11.22 7.21 11.02 7.71C10.33 9.43 9 10.99 6.99 10.99V12.99C9.06 12.99 10.42 11.98 10.85 10.41H10.99V20.99H12.99V10.41H13.12C13.55 11.98 14.91 12.99 16.99 12.99V10.99C14.98 10.99 13.65 9.43 12.96 7.71Z" fill="#FEE600"/>
</svg>
