<svg width="24" height="24" viewBox="0 0 24 24" fill="none" xmlns="http://www.w3.org/2000/svg">
<path fill-rule="evenodd" clip-rule="evenodd" d="M22.2537 4.57528C20.1059 2.42739 16.6235 2.42737 14.4756 4.57528L13.7685 5.28238L15.1827 6.6966L15.8898 5.98949C17.2566 4.62266 19.4727 4.62266 20.8395 5.98949C22.2063 7.35632 22.2063 9.57241 20.8395 10.9392L16.5969 15.1819C15.2301 16.5487 13.014 16.5487 11.6471 15.1819C10.9546 14.4894 10.613 13.5789 10.6222 12.6713C10.6304 11.8581 10.9258 11.213 11.3506 10.6377C11.8312 9.98699 11.9962 9.16331 11.7432 8.46221L11.8239 8.3815C12.0112 8.50685 12.1888 8.65249 12.3542 8.81792C13.7067 10.1704 13.7209 12.3543 12.3969 13.7243L13.8004 15.1497C15.9163 12.9993 15.9056 9.54089 13.7685 7.4037C11.6206 5.25582 8.13819 5.2558 5.99028 7.4037L1.74764 11.6463C-0.400266 13.7942 -0.400244 17.2766 1.74764 19.4245C2.89404 20.5709 4.42062 21.1054 5.92153 21.0281C6.91889 20.9767 7.77303 20.6056 8.59782 20.0529C9.96041 19.1399 10.7721 18.0079 11.1307 17.5078C11.1653 17.4597 11.1956 17.4174 11.2218 17.3817C13.3436 18.7006 16.1684 18.4387 18.0111 16.5961L22.2537 12.3535C24.4016 10.2055 24.4016 6.72316 22.2537 4.57528ZM7.40449 8.81792C8.39179 7.83063 9.82207 7.55651 11.0554 7.99541L10.2329 8.81792C8.08502 10.9658 8.08504 14.4482 10.2329 16.5961C10.3324 16.6955 10.4346 16.7904 10.5395 16.8806L10.4551 16.965C9.81813 16.8328 9.12349 17.0126 8.59782 17.479C7.69199 18.2828 6.63414 19.0255 5.67246 19.0352C4.76484 19.0445 3.85435 18.7028 3.16185 18.0103C1.79503 16.6435 1.79503 14.4274 3.16185 13.0606L7.40449 8.81792Z" fill="#2B2D33"/>
</svg>
