<svg width="24" height="24" viewBox="0 0 24 24" fill="none" xmlns="http://www.w3.org/2000/svg">
<path d="M20 5.01H18C17.03 5.01 16.39 5.5 16.12 6.34H16V3H14V5.01H12C11.03 5.01 10.39 5.5 10.12 6.34H10V3H8V5H4C3.42 5 3 5.41 3 6V20C3 20.59 3.41 21 4 21H20C20.59 21 21 20.59 21 20V6C21 5.41 20.59 5.01 20 5.01ZM19 19H5V13H19V19ZM19 11H5V7H8V9H10V8.01C10 7.46 10.35 7.01 11 7.01H14V9H16V8.01C16 7.46 16.35 7.01 17 7.01H19V11Z" fill="#2B2D33"/>
<path d="M16 17.61C16.89 17.61 17.61 16.9 17.61 16.01C17.61 15.12 16.89 14.4 16 14.4C15.12 14.4 14.4 15.12 14.4 16.01C14.4 16.89 15.12 17.61 16 17.61Z" fill="#2B2D33"/>
</svg>
