<svg width="24" height="24" viewBox="0 0 24 24" fill="none" xmlns="http://www.w3.org/2000/svg">
<path d="M8.21 10.28L6.79 11.7L10.29 15.2C10.68 15.59 11.32 15.59 11.71 15.2L16.71 10.2L15.29 8.78L10.07 14.01L9.98 13.92C10.41 13.12 10.25 12.31 9.6 11.66L8.21 10.28ZM9.41 21.66C10.24 21.88 11.11 22 12 22C12.89 22 13.76 21.88 14.59 21.66L14.07 19.73C13.41 19.91 12.72 20 12 20C11.28 20 10.59 19.91 9.93 19.73L9.41 21.66ZM17 20.66C18.52 19.78 19.78 18.52 20.66 17L18.93 16C18.23 17.21 17.21 18.23 16 18.93L17 20.66ZM3.34 17C4.22 18.52 5.48 19.78 7 20.66L8 18.93C6.79 18.23 5.77 17.21 5.07 16L3.34 17ZM22 12C22 11.11 21.88 10.24 21.66 9.41L19.73 9.93C19.91 10.59 20 11.28 20 12C20 12.72 19.91 13.41 19.73 14.07L21.66 14.59C21.88 13.76 22 12.89 22 12ZM2.34 9.41C2.12 10.24 2 11.11 2 12C2 12.89 2.12 13.76 2.34 14.59L4.27 14.07C4.09 13.41 4 12.72 4 12C4 11.28 4.09 10.59 4.27 9.93L2.34 9.41ZM7 3.34C5.48 4.22 4.22 5.48 3.34 7L5.07 8C5.77 6.79 6.79 5.77 8 5.07L7 3.34ZM20.66 7C19.78 5.48 18.52 4.22 17 3.34L16 5.07C17.21 5.77 18.23 6.79 18.93 8L20.66 7ZM12 2C11.11 2 10.24 2.12 9.41 2.34L9.93 4.27C10.59 4.09 11.28 4 12 4C12.72 4 13.41 4.09 14.07 4.27L14.59 2.34C13.76 2.12 12.89 2 12 2Z" fill="#2B2D33"/>
</svg>
