<svg width="24" height="24" viewBox="0 0 24 24" fill="none" xmlns="http://www.w3.org/2000/svg">
<path d="M11 20.49L10.88 20.55C10.6 19.48 10.14 18.81 9.2 18.28L5 15.91V9.21L11 12.58V20.49ZM5.03 6.93V6.81C6.13 7.05 6.91 7 7.82 6.49L12 4.15L17.96 7.5L12 10.85L5.03 6.93ZM19 11.3V15.91L13 19.29V12.58L20.01 8.64L20.12 8.71C19.34 9.49 18.99 10.22 19 11.3ZM11.51 21.87C11.81 22.04 12.19 22.04 12.49 21.87L20.49 17.37C20.81 17.19 21 16.86 21 16.5V7.5C21 7.14 20.81 6.81 20.49 6.63L12.49 2.13C12.19 1.96 11.81 1.96 11.51 2.13L3.51 6.63C3.19 6.81 3 7.14 3 7.5V16.5C3 16.86 3.19 17.19 3.51 17.37L11.51 21.87Z" fill="#2B2D33"/>
</svg>
