<svg width="24" height="24" viewBox="0 0 24 24" fill="none" xmlns="http://www.w3.org/2000/svg">
<path d="M11 18.96V9H13V18.96H13.14C13.44 17.5 14.51 17 16 17V18.99C14.67 19 13.54 19.68 12.97 21.28C12.79 21.79 12.45 22 12 22C11.55 22 11.21 21.79 11.03 21.28C10.46 19.68 9.33 19 8 18.99V17C9.49 17 10.56 17.5 10.86 18.96H11ZM17 16C19.76 16 22 13.76 22 11C22 8.76 20.51 6.82 18.42 6.21C17.32 3.69 14.82 2 12 2C8.43 2 5.49 4.67 5.06 8.12C3.3 8.54 2 10.12 2 12C2 14.21 3.79 16 6 16H9V14H6C4.9 14 4 13.11 4 12C4 10.9 4.9 10 6 10C6.65 10 7 9.59 7 9C7 6.24 9.24 4 12 4C14.15 4 16.04 5.38 16.73 7.38C16.85 7.73 17.15 7.98 17.51 8.05C18.93 8.33 20 9.54 20 11C20 12.66 18.66 14 17 14H15V16H17Z" fill="#2B2D33"/>
</svg>
