<svg width="24" height="24" viewBox="0 0 24 24" fill="none" xmlns="http://www.w3.org/2000/svg">
<path d="M10.9 18.75C10.9 19.9875 9.91 21 8.7 21C7.49 21 6.5 19.9875 6.5 18.75C6.5 17.5125 7.49 16.5 8.7 16.5C9.91 16.5 10.9 17.5125 10.9 18.75ZM8.7 9.75C7.49 9.75 6.5 10.7625 6.5 12C6.5 13.2375 7.49 14.25 8.7 14.25C9.91 14.25 10.9 13.2375 10.9 12C10.9 10.7625 9.91 9.75 8.7 9.75ZM8.7 3C7.49 3 6.5 4.0125 6.5 5.25C6.5 6.4875 7.49 7.5 8.7 7.5C9.91 7.5 10.9 6.4875 10.9 5.25C10.9 4.0125 9.91 3 8.7 3ZM15.3 7.5C16.51 7.5 17.5 6.4875 17.5 5.25C17.5 4.0125 16.51 3 15.3 3C14.09 3 13.1 4.0125 13.1 5.25C13.1 6.4875 14.09 7.5 15.3 7.5ZM15.3 9.75C14.09 9.75 13.1 10.7625 13.1 12C13.1 13.2375 14.09 14.25 15.3 14.25C16.51 14.25 17.5 13.2375 17.5 12C17.5 10.7625 16.51 9.75 15.3 9.75ZM15.3 16.5C14.09 16.5 13.1 17.5125 13.1 18.75C13.1 19.9875 14.09 21 15.3 21C16.51 21 17.5 19.9875 17.5 18.75C17.5 17.5125 16.51 16.5 15.3 16.5Z" fill="#2B2D33"/>
</svg>
