<svg width="24" height="24" viewBox="0 0 24 24" fill="none" xmlns="http://www.w3.org/2000/svg">
<path d="M4.54676 10.5948L9.89602 10.1237L11.9897 5.16184L14.1042 10.1237L19.4535 10.5948L15.4128 14.1121L16.6166 19.3776L12.0106 16.5931L7.38364 19.3776L8.58749 14.1121L4.54676 10.5948ZM1.39582 10.6053L4.98642 13.7981C5.65639 14.3843 6.38916 14.6041 7.11147 14.5413L7.15334 14.6669C6.52525 15.0333 6.06465 15.6405 5.86575 16.5198L4.83987 21.1991C4.62004 22.1935 5.60405 22.8426 6.43104 22.361L10.5765 19.9429C11.3511 19.4823 11.7803 18.8437 11.9373 18.1319H12.0629C12.22 18.8437 12.6492 19.4927 13.4238 19.9429L17.5692 22.361C18.3962 22.8426 19.3802 22.1935 19.1604 21.1991L18.1345 16.5198C17.9461 15.6405 17.475 15.0333 16.8469 14.6669L16.8888 14.5413C17.6111 14.6041 18.3439 14.3948 19.0138 13.7981L22.6044 10.6053C23.3267 9.96672 23.0232 8.83616 21.9973 8.73148L17.2238 8.26041C16.313 8.1662 15.5803 8.43837 15.0359 8.93038L14.9417 8.8571C15.2453 8.18714 15.2662 7.41249 14.8998 6.57504L12.9841 2.18889C12.7643 1.68641 12.4189 1.47705 11.9897 1.47705C11.5605 1.47705 11.2359 1.68641 11.0161 2.18889L9.10043 6.57504C8.74451 7.41249 8.75498 8.18714 9.05856 8.8571L8.96434 8.93038C8.42 8.43837 7.68722 8.18714 6.77649 8.26041L2.00298 8.73148C0.977096 8.83616 0.673518 9.96672 1.39582 10.6053Z" fill="#2B2D33"/>
</svg>
