<svg width="24" height="24" viewBox="0 0 24 24" fill="none" xmlns="http://www.w3.org/2000/svg">
<path fill-rule="evenodd" clip-rule="evenodd" d="M4 3C3.4 3 3 3.4 3 4V10C3 10.6 3.4 11 4 11H10C10.6 11 11 10.6 11 10V4C11 3.4 10.6 3 10 3H4ZM5 5H9V9H5V5Z" fill="#2B2D33"/>
<path fill-rule="evenodd" clip-rule="evenodd" d="M4 13C3.4 13 3 13.4 3 14V20C3 20.6 3.4 21 4 21H10C10.6 21 11 20.6 11 20V14C11 13.4 10.6 13 10 13H4ZM5 15H9V19H5V15Z" fill="#2B2D33"/>
<path fill-rule="evenodd" clip-rule="evenodd" d="M13 4C13 3.4 13.4 3 14 3H20C20.6 3 21 3.4 21 4V10C21 10.6 20.6 11 20 11H14C13.4 11 13 10.6 13 10V4ZM15 9H19V5H15V9Z" fill="#2B2D33"/>
<path fill-rule="evenodd" clip-rule="evenodd" d="M14 13C13.4 13 13 13.4 13 14V20C13 20.6 13.4 21 14 21H20C20.6 21 21 20.6 21 20V14C21 13.4 20.6 13 20 13H14ZM15 15H19V19H15V15Z" fill="#2B2D33"/>
</svg>
