<svg width="24" height="24" viewBox="0 0 24 24" fill="none" xmlns="http://www.w3.org/2000/svg">
<path d="M12.06 12.49C12.15 13.3 12.54 13.91 13.42 14.58L14 15.02V16.01H10V15.02L10.58 14.58C11.46 13.91 11.85 13.3 11.94 12.49H12.06ZM12.06 11.53H11.94C11.85 10.72 11.46 10.11 10.58 9.44L10 9V8.01H14V9L13.42 9.44C12.54 10.11 12.15 10.72 12.06 11.53ZM9 18.01H15C15.57 18.01 16 17.58 16 17.01V14.51C16 14.16 15.93 13.97 15.65 13.75L14.53 12.9C13.85 12.39 13.85 11.63 14.53 11.12L15.66 10.26C15.93 10.05 16 9.85 16 9.51V7.01C16 6.44 15.57 6.01 15 6.01H9C8.43 6.01 8 6.44 8 7.01V9.51C8 9.85 8.07 10.05 8.35 10.27L9.47 11.12C10.18 11.65 10.18 12.37 9.47 12.9L8.34 13.76C8.07 13.97 8 14.16 8 14.51V17.01C8 17.58 8.43 18.01 9 18.01ZM12 20C7.58 20 4 16.42 4 12C4 7.58 7.58 4 12 4C16.42 4 20 7.58 20 12C20 16.42 16.42 20 12 20ZM12 22C17.52 22 22 17.52 22 12C22 6.48 17.52 2 12 2C6.48 2 2 6.48 2 12C2 17.52 6.48 22 12 22Z" fill="#2B2D33"/>
</svg>
