<svg width="24" height="24" viewBox="0 0 24 24" fill="none" xmlns="http://www.w3.org/2000/svg">
<path d="M17 9C18.7 9 20 10.3 20 12C20 13.7 18.7 15 17 15C12.39 15 13.1 7 7 7C4.2 7 2 9.2 2 12C2 14.8 4.2 17 7 17C10.35 17 10.93 14.54 11.96 14.54C12.23 14.54 12.49 14.65 12.67 14.84L11.71 13.45L11.62 13.54C11.31 13.32 11.01 13.22 10.73 13.22C9.26 13.22 9.16 15 7 15C5.3 15 4 13.7 4 12C4 10.3 5.3 9 7 9C11.61 9 10.9 17 17 17C19.8 17 22 14.8 22 12C22 9.2 19.8 7 17 7C13.65 7 13.07 9.46 12.04 9.46C11.77 9.46 11.51 9.35 11.33 9.16L12.29 10.55L12.38 10.46C12.69 10.68 12.99 10.78 13.27 10.78C14.74 10.78 14.84 9 17 9Z" fill="#2B2D33"/>
</svg>
