<svg width="24" height="24" viewBox="0 0 24 24" fill="none" xmlns="http://www.w3.org/2000/svg">
<path d="M12 8.73L5.91 4H18.09L12 8.73ZM3 16H6V14H4V7.32C4 5.97 3.67 5.13 2.73 4.21L2.8 4.11L11.39 10.79C11.75 11.07 12.25 11.07 12.61 10.79L21.2 4.11L21.27 4.21C20.33 5.13 20 5.97 20 7.32V14H18V16H21C21.55 16 22 15.55 22 15V3C22 2.45 21.55 2 21 2H3C2.45 2 2 2.45 2 3V15C2 15.55 2.45 16 3 16Z" fill="#2B2D33"/>
<path d="M11 23V16.03H10.86C10.56 17.49 9.59 17.99 8 17.99V16C9.33 15.99 10.45 15.31 11.03 13.71C11.21 13.2 11.55 12.99 12 12.99C12.45 12.99 12.79 13.2 12.97 13.71C13.55 15.31 14.67 15.99 16 16V17.99C14.41 17.99 13.44 17.49 13.14 16.03H13V23H11Z" fill="#2B2D33"/>
</svg>
