<svg width="24" height="24" viewBox="0 0 24 24" fill="none" xmlns="http://www.w3.org/2000/svg">
<path d="M20 20.01H4V13.33C4 11.98 3.67 11.14 2.73 10.22L2.8 10.12L11.39 16.8C11.75 17.08 12.25 17.08 12.61 16.8L21.2 10.12L21.27 10.22C20.33 11.14 20 11.98 20 13.33V20.01ZM3 8.01C2.45 8.01 2 8.46 2 9.01V21.01C2 21.56 2.45 22.01 3 22.01H21C21.55 22.01 22 21.56 22 21.01V9.01C22 8.46 21.55 8.01 21 8.01H15V10.01H18.13L12 14.76L5.87 10.01H9V8.01H3Z" fill="#2B2D33"/>
<path d="M11 11.01V4.04H10.86C10.56 5.5 9.59 6 8 6V4.01C9.33 4 10.45 3.32 11.03 1.72C11.21 1.21 11.55 1 12 1C12.45 1 12.79 1.21 12.97 1.72C13.55 3.32 14.67 4 16 4.01V6C14.41 6 13.44 5.5 13.14 4.04H13V11.01H11Z" fill="#2B2D33"/>
</svg>
