<svg width="24" height="24" viewBox="0 0 24 24" fill="none" xmlns="http://www.w3.org/2000/svg">
<path d="M20.3008 12.9L19.0008 11.6V9C19.0008 5.1 15.9008 2 12.0008 2C8.10078 2 5.00078 5.1 5.00078 9V11.6L3.70078 12.9C2.50078 14.1 2.50078 16 3.70078 17.1L4.30078 17.7C4.50078 17.9 4.70078 18 5.00078 18H6.40078C8.90078 18 8.10078 22 12.0008 22C15.9008 22 15.2008 18 17.6008 18H19.0008C19.3008 18 19.5008 17.9 19.7008 17.7L20.3008 17.1C21.5008 15.9 21.5008 14.1 20.3008 12.9ZM12.0008 20C10.3008 20 10.8008 18.6 9.30078 18.1V18H14.7008V18.1C13.2008 18.6 13.7008 20 12.0008 20ZM18.9008 15.7L18.6008 16H5.40078L5.10078 15.7C4.70078 15.3 4.70078 14.7 5.10078 14.3L6.70078 12.7C6.90078 12.5 7.00078 12.3 7.00078 12V9C7.00078 6.2 9.20078 4 12.0008 4C14.8008 4 17.0008 6.2 17.0008 9V12C17.0008 12.3 17.1008 12.5 17.3008 12.7L18.9008 14.3C19.3008 14.7 19.3008 15.3 18.9008 15.7Z" fill="#2B2D33"/>
</svg>
