<svg width="24" height="24" viewBox="0 0 24 24" fill="none" xmlns="http://www.w3.org/2000/svg">
<path d="M13.2501 4.09L18.4101 9.24L14.9401 12.7C14.3601 13.28 13.9401 14.29 13.9301 15.1L13.9101 17.45L5.95006 9.49L8.30006 9.47C9.11006 9.45999 10.1401 9.02 10.7001 8.46L12.7801 6.39C13.3501 5.82 13.5101 5.03 13.1301 4.2L13.2501 4.09ZM19.8301 7.82L15.5901 3.58C14.8101 2.8 13.5401 2.8 12.7601 3.58L9.28006 7.05C9.08006 7.25 8.56006 7.47 8.27006 7.47L4.54006 7.51C3.57006 7.53 3.23006 8.09 3.13006 8.34C3.03006 8.59 2.86006 9.24 3.55006 9.93L7.80006 14.18L3.29006 18.69C2.90006 19.08 2.90006 19.71 3.29006 20.1C3.49006 20.3 3.74006 20.39 4.00006 20.39C4.26006 20.39 4.51006 20.3 4.71006 20.1L7.83006 16.98C8.40006 16.41 8.56006 15.62 8.18006 14.79L8.30006 14.67L13.4701 19.84C13.8801 20.25 14.2701 20.36 14.5801 20.36C14.7901 20.36 14.9601 20.31 15.0601 20.27C15.3101 20.17 15.8901 19.83 15.9001 18.85L15.9401 15.12C15.9401 14.83 16.1601 14.31 16.3601 14.11L19.8301 10.64C20.6101 9.85999 20.6101 8.61 19.8301 7.82Z" fill="#2B2D33"/>
</svg>
