<svg width="24" height="24" viewBox="0 0 24 24" fill="none" xmlns="http://www.w3.org/2000/svg">
<path d="M19.8296 7.82L15.5896 3.58C14.8096 2.8 13.5396 2.8 12.7596 3.58L9.27957 7.05C9.07957 7.25 8.55957 7.47 8.26957 7.47L4.53957 7.51C3.56957 7.53 3.22957 8.09 3.12957 8.34C3.02957 8.59 2.85957 9.24 3.54957 9.93L7.79957 14.18L3.28957 18.69C2.89957 19.08 2.89957 19.71 3.28957 20.1C3.48957 20.3 3.73957 20.39 3.99957 20.39C4.25957 20.39 4.50957 20.3 4.70957 20.1L7.82957 16.98C8.39957 16.41 8.55957 15.62 8.17957 14.79L8.29957 14.67L13.4696 19.84C13.8796 20.25 14.2696 20.36 14.5796 20.36C14.7896 20.36 14.9596 20.31 15.0596 20.27C15.3096 20.17 15.8896 19.83 15.8996 18.85L15.9396 15.12C15.9396 14.83 16.1596 14.31 16.3596 14.11L19.8296 10.64C20.6096 9.85999 20.6096 8.61 19.8296 7.82Z" fill="#2B2D33"/>
</svg>
