<svg width="24" height="24" viewBox="0 0 24 24" fill="none" xmlns="http://www.w3.org/2000/svg">
<path d="M10.86 12.04C10.56 13.5 9.49 14 8 14V12.01C9.33 12 10.46 11.32 11.03 9.72C11.21 9.21 11.55 9 12 9C12.45 9 12.79 9.21 12.97 9.72C13.54 11.32 14.67 12 16 12.01V14C14.51 14 13.44 13.5 13.14 12.04H13V22H11V12.04H10.86ZM17 16C19.76 16 22 13.76 22 11C22 8.76 20.51 6.82 18.42 6.21C17.32 3.69 14.82 2 12 2C8.43 2 5.49 4.67 5.06 8.12C3.3 8.54 2 10.12 2 12C2 14.21 3.79 16 6 16H7V14H6C4.9 14 4 13.11 4 12C4 10.9 4.9 10 6 10C6.65 10 7 9.59 7 9C7 6.24 9.24 4 12 4C14.15 4 16.04 5.38 16.73 7.38C16.85 7.73 17.15 7.98 17.51 8.05C18.93 8.33 20 9.54 20 11C20 12.66 18.66 14 17 14V16Z" fill="#2B2D33"/>
</svg>
