<svg width="24" height="24" viewBox="0 0 24 24" fill="none" xmlns="http://www.w3.org/2000/svg">
<path d="M1 6V17C1 18.1 1.89 19 3 19H3.17C3.58 20.17 4.69 21 6 21C7.31 21 8.42 20.17 8.83 19H15.17C15.58 20.17 16.7 21 18 21C19.31 21 20.42 20.17 20.83 19H21C22.11 19 23 18.1 23 17V12C23 11.62 22.79 11.27 22.45 11.11L18.86 9.31L18.16 6.51C17.94 5.62 17.14 5 16.22 5H13V4H11V5H2C1.45 5 1 5.45 1 6ZM3 7H16.22L17.03 10.24C17.1 10.53 17.29 10.76 17.55 10.89L21 12.62V17H20.83C20.42 15.83 19.31 15 18 15C16.7 15 15.58 15.83 15.17 17H8.83C8.42 15.83 7.31 15 6 15C4.69 15 3.58 15.83 3.17 17H3V7ZM18 19C17.45 19 17 18.55 17 18C17 17.45 17.45 17 18 17C18.55 17 19 17.45 19 18C19 18.55 18.55 19 18 19ZM10 15H12V13H14V11H12V9H10V11H8V13H10V15ZM6 19C5.45 19 5 18.55 5 18C5 17.45 5.45 17 6 17C6.55 17 7 17.45 7 18C7 18.55 6.55 19 6 19Z" fill="#2B2D33"/>
</svg>
