<svg width="24" height="24" viewBox="0 0 24 24" fill="none" xmlns="http://www.w3.org/2000/svg">
<path d="M21 6H19.72L18.95 3.68C18.78 3.16 18.3 2.9 17.76 3.03L14.3 3.89C14.22 3.81 14.13 3.72 14.05 3.64L12.71 2.29C12.52 2.11 12.26 2 12 2C11.74 2 11.48 2.11 11.29 2.29L9.95 3.64C9.87 3.72 9.78 3.81 9.7 3.89L6.24 3.03C5.7 2.9 5.22 3.16 5.05 3.68L4.28 6H3C2.42 6 2 6.43 2 7V8.92C2 13.83 5.61 18 10.28 18H10.9C10.55 19.6 9.38 20 9 20V22C10.4 22 12.52 20.83 12.93 18H13.72C18.39 18 22 13.83 22 8.92V7C22 6.43 21.58 6 21 6ZM15.09 4.68C15.65 5.39 15.95 5.55 16.83 5.32L17.33 5.19C17.45 5.52 17.56 5.85 17.68 6.18C16.98 6.33 16.46 6.52 16.06 6.71C15.75 5.96 15.54 5.53 14.97 4.73L15.09 4.68ZM6.67 5.19L7.17 5.32C8.05 5.55 8.35 5.39 8.91 4.68L9.03 4.73C8.46 5.53 8.25 5.96 7.94 6.71C7.54 6.53 7.02 6.33 6.32 6.18C6.44 5.85 6.55 5.52 6.67 5.19ZM4 8.92V8C4.24 8 4.81 7.97 5.43 8.07C6.27 8.2 7.24 8.33 7.55 7.45L7.67 7.48C6.75 10.69 7.68 13.82 9.57 15.95C6.51 15.56 4 12.65 4 8.92ZM12.63 14.95L12 15.59L11.37 14.95C9.59 13.18 8.97 10.69 9.5 8.41C9.85 6.86 10.44 5.97 12 4.41C13.56 5.97 14.15 6.86 14.5 8.41C15.03 10.69 14.41 13.18 12.63 14.95ZM20 8.92C20 12.65 17.49 15.56 14.43 15.95C16.32 13.82 17.25 10.69 16.33 7.48L16.45 7.45C16.76 8.33 17.73 8.21 18.57 8.07C19.19 7.97 19.76 8 20 8V8.92Z" fill="#2B2D33"/>
</svg>
