<svg width="24" height="24" viewBox="0 0 24 24" fill="none" xmlns="http://www.w3.org/2000/svg">
<path d="M21 2.01H12C11.4 2.01 10.95 2.47 11 3.08L12 16.08C12.04 16.6 12.48 17.01 13 17.01V21.01C13 21.56 13.45 22.01 14 22.01H19C19.55 22.01 20 21.56 20 21.01V17.01C20.53 17.01 20.96 16.6 21 16.08L22 3.08C22.05 2.45 21.57 2.01 21 2.01ZM19.93 4.01L19.07 15.01H13.93L13.08 4.01H19.93ZM19.33 17.12C18.49 17.33 18 17.9 18 18.85V20.01H15V18.85C15 17.9 14.51 17.33 13.67 17.12V17.01H19.33V17.12Z" fill="#2B2D33"/>
<path d="M9 10.01V5.01C9 4.61 8.8 4.29 8.45 4.12L4.45 2.12C3.8 1.78 3 2.18 3 3.01V10.01C2.45 10.01 2 10.46 2 11.01V21.01C2 21.56 2.45 22.01 3 22.01H9C9.55 22.01 10 21.56 10 21.01V11.01C10 10.46 9.55 10.01 9 10.01ZM5 4.63L7 5.63V10.01H5V4.63ZM8 20.01H4V12.01H8V20.01Z" fill="#2B2D33"/>
</svg>
