<svg width="24" height="24" viewBox="0 0 24 24" fill="none" xmlns="http://www.w3.org/2000/svg">
<path d="M19 11C17.35 11 16 12.35 16 14C16 15.27 16.8 16.35 17.92 16.79C17.57 18.65 15.98 20 14 20C11.75 20 10 18.25 10 16V15.85C10 14.9 9.51 14.33 8.67 14.11V13.98C8.78 13.99 8.89 14 9 14C12.91 14 16 10.92 16 7V3H12V5H14V7C14 9.81 11.81 12 9 12C6.19 12 4 9.81 4 7V5H6V3H2V7C2 10.58 4.58 13.45 8 13.92V16C8 19.36 10.65 22 14 22C17.07 22 19.54 19.79 19.94 16.83C21.13 16.44 22 15.32 22 14C22 12.35 20.65 11 19 11ZM19 15C18.45 15 18 14.55 18 14C18 13.45 18.45 13 19 13C19.55 13 20 13.45 20 14C20 14.55 19.55 15 19 15Z" fill="#2B2D33"/>
</svg>
