<svg width="48" height="48" viewBox="0 0 48 48" fill="none" xmlns="http://www.w3.org/2000/svg">
<rect width="48" height="48" rx="12" fill="#2B2D33"/>
<path d="M23 16.82V27.5C23 28.05 23.45 28.5 24 28.5H32C32.55 28.5 33 28.05 33 27.5V14.5C33 13.95 32.55 13.5 32 13.5H24C23.45 13.5 23 13.95 23 14.5H23.81L19.84 13.06C19.32 12.87 18.75 13.14 18.56 13.66L14.12 25.87C13.93 26.39 14.19 26.97 14.71 27.16L18.47 28.52C18.99 28.71 19.56 28.44 19.75 27.93L22 21.76C22.71 19.82 22.86 18.82 22.88 16.82H23ZM29 26.5V15.5H31V26.5H29ZM25 26.5V15.5H27V26.5H25ZM18.22 26.3L16.34 25.62L20.1 15.28L21.98 15.97L18.22 26.3ZM17 34.5H19V32.5H29V34.5H31V32.5H34V30.5H14V32.5H17V34.5Z" fill="white"/>
</svg>
