<svg width="48" height="48" viewBox="0 0 48 48" fill="none" xmlns="http://www.w3.org/2000/svg">
<rect width="48" height="48" rx="12" fill="#2B2D33"/>
<path d="M34.8501 33.44L32.8501 29.44C32.6601 29.16 32.3501 28.99 32.0101 28.99H25.0101C24.6801 28.99 24.3701 29.16 24.1801 29.44L22.1801 33.44C21.8001 34.2 22.1801 34.99 23.0101 34.99H34.0101C34.8301 34.99 35.2201 34.18 34.8501 33.44ZM25.5501 30.99H31.4801L32.4801 32.99H24.5501L25.5501 30.99Z" fill="white"/>
<path d="M26.7001 27.04C27.2501 27.42 27.6601 27.5 28.1201 27.04L32.3601 22.8C32.8201 22.34 32.7401 21.93 32.3601 21.38C30.4401 18.6 28.0801 16.22 25.2901 14.31C24.7501 13.94 24.3401 13.85 23.8801 14.31L19.6301 18.56C19.1701 19.02 19.2601 19.43 19.6301 19.97C20.1201 20.68 20.6301 21.36 21.1801 22.01L14.0101 28.39C12.7201 29.54 12.6601 31.54 13.8901 32.77C15.1101 33.99 17.1001 33.93 18.2501 32.63L24.6301 25.46C25.2901 26.02 25.9801 26.55 26.7001 27.04ZM24.7001 16.32C26.8601 17.93 28.7401 19.81 30.3501 21.98L27.3001 25.03C25.1301 23.42 23.2501 21.54 21.6401 19.38L24.7001 16.32ZM24.1701 25.21C23.5001 24.54 22.8001 24.49 21.9901 25.41L16.7601 31.3C16.3701 31.74 15.7001 31.75 15.3001 31.35C14.8901 30.94 14.9101 30.28 15.3401 29.89L21.2301 24.65C22.1401 23.84 22.1001 23.14 21.4401 22.48L21.5201 22.39C22.3701 23.37 23.2901 24.28 24.2701 25.13L24.1701 25.21Z" fill="white"/>
</svg>
