<svg width="48" height="48" viewBox="0 0 48 48" fill="none" xmlns="http://www.w3.org/2000/svg">
<rect width="48" height="48" rx="12" fill="#2B2D33"/>
<path d="M31.3102 21.17C31.2502 20.98 31.2502 20.78 31.3102 20.59L31.6702 19.43C32.2102 17.66 31.0302 15.82 29.2002 15.57L28.1902 15.44C27.9402 15.4 27.7202 15.28 27.5602 15.09L26.7002 14.07C25.5002 12.64 23.3002 12.64 22.1002 14.07L21.2502 15.09C21.0902 15.28 20.8602 15.4 20.6102 15.44L19.6002 15.57C17.7702 15.82 16.5902 17.66 17.1402 19.43L17.4902 20.59C17.5502 20.78 17.5502 20.98 17.4902 21.17L17.1402 22.33C16.6102 24.03 17.6902 25.78 19.4002 26.14V33.88C19.4002 34.23 19.5802 34.55 19.8702 34.73C20.1702 34.91 20.5402 34.93 20.8502 34.77L24.4002 33L27.9502 34.77C28.2602 34.93 28.6302 34.91 28.9302 34.73C29.2202 34.55 29.4002 34.23 29.4002 33.88V26.14C31.1102 25.79 32.1902 24.03 31.6702 22.33L31.3102 21.17ZM27.4002 29.28V32.26L24.8502 30.99C24.5702 30.84 24.2402 30.84 23.9502 30.99L21.4002 32.26V29.28C21.4002 27.38 20.9502 26.74 19.9702 26.36V26.24L20.6102 26.32C20.8602 26.36 21.0902 26.48 21.2502 26.67L22.1002 27.69C23.3002 29.12 25.5002 29.12 26.7002 27.69L27.5602 26.67C27.7202 26.48 27.9402 26.36 28.1902 26.32L28.8302 26.24V26.36C27.8502 26.74 27.4002 27.38 27.4002 29.28ZM29.4002 21.76L29.7502 22.92C29.9402 23.51 29.5402 24.12 28.9302 24.2L27.9202 24.34C27.1802 24.44 26.5002 24.81 26.0202 25.39L25.1702 26.41C24.7702 26.89 24.0402 26.89 23.6402 26.41L22.7802 25.39C22.3002 24.81 21.6202 24.44 20.8802 24.34L19.8702 24.2C19.2602 24.12 18.8702 23.51 19.0502 22.92L19.4002 21.76C19.5802 21.19 19.5802 20.57 19.4002 20L19.0502 18.84C18.8702 18.25 19.2602 17.64 19.8702 17.56L20.8802 17.42C21.6202 17.32 22.3002 16.95 22.7802 16.37L23.6402 15.35C24.0402 14.87 24.7702 14.87 25.1702 15.35L26.0202 16.37C26.5002 16.95 27.1802 17.32 27.9202 17.42L28.9302 17.56C29.5402 17.64 29.9402 18.25 29.7502 18.84L29.4002 20C29.2202 20.57 29.2202 21.19 29.4002 21.76Z" fill="white"/>
</svg>
