<svg width="48" height="48" viewBox="0 0 48 48" fill="none" xmlns="http://www.w3.org/2000/svg">
<rect width="48" height="48" rx="12" fill="#2B2D33"/>
<path fill-rule="evenodd" clip-rule="evenodd" d="M23.5528 15.1056C23.8343 14.9648 24.1657 14.9648 24.4472 15.1056L34.4472 20.1056C34.786 20.275 35 20.6212 35 21V27H33V22.618L31 23.618V31C31 31.2652 30.8946 31.5196 30.7071 31.7071L30.7064 31.7078L30.7056 31.7086L30.704 31.7102L30.7001 31.7141L30.6899 31.724L30.6758 31.7376L30.6605 31.752C30.6368 31.7742 30.6049 31.8034 30.5648 31.8385C30.4845 31.9087 30.3713 32.0028 30.225 32.1125C29.9325 32.3318 29.5067 32.6147 28.9472 32.8944C27.8249 33.4556 26.1728 34 24 34C21.8272 34 20.1751 33.4556 19.0528 32.8944C18.4933 32.6147 18.0675 32.3318 17.775 32.1125C17.6287 32.0028 17.5155 31.9087 17.4352 31.8385L17.2936 31.7078L17.2929 31.7071C17.1054 31.5196 17 31.2652 17 31V23.618L13.5528 21.8944C13.214 21.725 13 21.3788 13 21C13 20.6212 13.214 20.275 13.5528 20.1056L23.5528 15.1056ZM24.4472 26.8944L28.9485 24.6438L29 30.5311C28.7918 30.6852 28.476 30.894 28.0528 31.1056C27.1751 31.5444 25.8272 32 24 32C22.1728 32 20.8249 31.5444 19.9472 31.1056C19.524 30.894 19.2082 30.6852 19 30.5311V24.618L23.5528 26.8944C23.8343 27.0352 24.1657 27.0352 24.4472 26.8944ZM16.2361 21L24 24.882L31.7639 21L24 17.118L16.2361 21Z" fill="white"/>
<path d="M33 29V31H35V29H33Z" fill="white"/>
</svg>
