<svg width="48" height="48" viewBox="0 0 48 48" fill="none" xmlns="http://www.w3.org/2000/svg">
<rect width="48" height="48" rx="12" fill="#2B2D33"/>
<path d="M33.46 18.75L30.71 16L29.29 17.42L32 20.12V22.51C32 23.69 32.17 24.25 33.27 25.01L33.19 25.12C32.86 24.86 32.45 24.71 32 24.71H27C25.89 24.71 25 25.61 25 26.71H23C23 25.61 22.11 24.71 21 24.71H16C15.55 24.71 15.14 24.86 14.81 25.12L14.73 25.01C15.83 24.25 16 23.69 16 22.51V20.12L18.71 17.42L17.29 16L14.54 18.75C14.1 19.19 14 19.44 14 20.11V30.71C14 31.81 14.9 32.71 16 32.71H21C22.11 32.71 23 31.81 23 30.71V28.71H25V30.71C25 31.81 25.89 32.71 27 32.71H32C33.1 32.71 34 31.81 34 30.71V20.11C34 19.44 33.9 19.19 33.46 18.75ZM21 30.71H16V26.71H21V30.71ZM32 30.71H27V26.71H32V30.71Z" fill="white"/>
</svg>
