<svg width="48" height="48" viewBox="0 0 48 48" fill="none" xmlns="http://www.w3.org/2000/svg">
<rect width="48" height="48" rx="12" fill="#2B2D33"/>
<path d="M33.4099 20.4C33.4099 17.83 32.5199 15.34 30.8699 13.38C30.4399 12.87 29.9199 12.88 29.4599 13.34L28.7799 14.02C30.4699 15.71 31.4099 18.01 31.4099 20.4C31.4099 25.35 27.3599 29.4 22.4099 29.4C20.6499 29.4 18.9399 28.89 17.4799 27.94C18.1799 27.35 18.2199 26.57 17.8599 25.89L17.9499 25.81C19.1599 26.81 20.7099 27.4 22.3999 27.4C23.9799 27.4 25.4199 26.88 26.5899 26.01L27.3499 26.77L28.7599 25.36L27.9999 24.6C28.8799 23.43 29.3999 21.98 29.3999 20.4C29.3999 16.53 26.2799 13.4 22.3999 13.4C20.8199 13.4 19.3799 13.93 18.2099 14.81L17.4499 14.05L16.0199 15.46L16.7899 16.23C15.9199 17.4 15.3999 18.84 15.3999 20.4C15.3899 22.34 16.1799 24.09 17.4499 25.36L15.3499 27.46C14.8899 27.92 14.8799 28.44 15.3799 28.87C17.3199 30.54 19.8299 31.41 22.3999 31.41L22.4099 32.4L19.4099 32.41V34.4H27.4099L27.3999 32.4H24.3999V31.23C29.6399 30.24 33.4099 25.72 33.4099 20.4ZM22.4099 15.4C25.1699 15.4 27.3999 17.64 27.4099 20.4C27.4099 21.43 27.0999 22.38 26.5699 23.17L19.6299 16.24C20.4299 15.71 21.3799 15.4 22.4099 15.4ZM17.4099 20.4C17.4099 19.39 17.7199 18.45 18.2299 17.66L25.1499 24.57C24.3599 25.1 23.4199 25.4 22.4099 25.4C19.6399 25.4 17.3999 23.17 17.4099 20.4Z" fill="white"/>
</svg>
