<svg width="48" height="48" viewBox="0 0 48 48" fill="none" xmlns="http://www.w3.org/2000/svg">
<rect width="48" height="48" rx="12" fill="#2B2D33"/>
<path d="M33.9 14.71L32.9 14.21C32.33 13.93 31.67 13.93 31.11 14.21L30.11 14.71C29.35 15.09 29 15.64 29 16.5V16.88H27V16.5C27 15.64 26.65 15.09 25.9 14.71L24.9 14.21C24.33 13.93 23.67 13.93 23.11 14.21L22.11 14.71C21.35 15.09 21 15.64 21 16.5V16.88H19V16.5C19 15.64 18.65 15.09 17.9 14.71L16.9 14.21C16.33 13.93 15.67 13.93 15.11 14.21L14.11 14.71C13.35 15.09 13 15.64 13 16.5V31.26C13 32.12 13.35 32.67 14.11 33.05L15.11 33.55C15.67 33.83 16.33 33.83 16.9 33.55L17.9 33.05C18.65 32.67 19 32.12 19 31.26V30.88H21V31.26C21 32.12 21.35 32.67 22.11 33.05L23.11 33.55C23.67 33.83 24.33 33.83 24.9 33.55L25.9 33.05C26.65 32.67 27 32.12 27 31.26V30.88H29V31.26C29 32.12 29.35 32.67 30.11 33.05L31.11 33.55C31.67 33.83 32.33 33.83 32.9 33.55L33.9 33.05C34.65 32.67 35 32.12 35 31.26V16.5C35 15.74 34.65 15.09 33.9 14.71ZM17 31.26L16 31.76L15 31.26V16.5L16 16L17 16.5V31.26ZM19 22.88H21V24.88H19V22.88ZM25 31.26L24 31.76L23 31.26V29.88C23 29.33 22.55 28.88 22 28.88H20.3C19.8 28.88 19.34 29.09 19.12 29.56H19V26.2H19.12C19.34 26.67 19.8 26.88 20.3 26.88H22C22.55 26.88 23 26.43 23 25.88V21.88C23 21.33 22.55 20.88 22 20.88H20.3C19.8 20.88 19.34 21.09 19.12 21.56H19V18.2H19.12C19.34 18.67 19.8 18.88 20.3 18.88H22C22.55 18.88 23 18.43 23 17.88V16.5L24 16L25 16.5V31.26ZM27 22.88H29V24.88H27V22.88ZM33 31.26L32 31.76L31 31.26V29.88C31 29.33 30.55 28.88 30 28.88H28.3C27.8 28.88 27.34 29.09 27.12 29.56H27V26.2H27.12C27.34 26.67 27.8 26.88 28.3 26.88H30C30.55 26.88 31 26.43 31 25.88V21.88C31 21.33 30.55 20.88 30 20.88H28.3C27.8 20.88 27.34 21.09 27.12 21.56H27V18.2H27.12C27.34 18.67 27.8 18.88 28.3 18.88H30C30.55 18.88 31 18.43 31 17.88V16.5L32 16L33 16.5V31.26Z" fill="white"/>
</svg>
