<svg width="48" height="48" viewBox="0 0 48 48" fill="none" xmlns="http://www.w3.org/2000/svg">
<rect width="48" height="48" rx="12" fill="#2B2D33"/>
<path d="M25 13H23V15H25V13Z" fill="white"/>
<path d="M25 19.08C26.87 19.37 28.49 20.46 29.47 22H34V20H30.47C28.91 18.17 26.59 17 24.01 17C21.42 17 19.1 18.17 17.54 20H14V22H18.53C19.69 20.2 21.71 19 24.01 19C24.12 19 24.22 19.02 24.33 19.02V19.13C23.49 19.39 23 20.03 23 21V32H20V34H28V32H25V19.08Z" fill="white"/>
<path d="M35 24H28C27.45 24 27 24.45 27 25C27 25.64 27.11 26.27 27.33 26.87C27.54 27.47 27.86 28.02 28.27 28.49C28.69 28.96 29.18 29.34 29.73 29.6C30.29 29.86 30.89 30 31.5 30C32.11 30 32.71 29.86 33.27 29.6C33.82 29.34 34.32 28.96 34.73 28.49C35.14 28.02 35.46 27.47 35.68 26.87C35.89 26.27 36 25.64 36 25C36 24.45 35.55 24 35 24ZM33.8 26.19C33.66 26.56 33.46 26.9 33.22 27.17C32.98 27.44 32.71 27.65 32.41 27.79C32.12 27.93 31.81 28 31.5 28C31.19 28 30.88 27.93 30.59 27.79C30.3 27.65 30.02 27.44 29.78 27.17C29.54 26.9 29.34 26.56 29.21 26.19C29.19 26.13 29.16 26.06 29.15 26H33.86C33.84 26.06 33.82 26.13 33.8 26.19Z" fill="white"/>
<path d="M21 25C21 24.45 20.55 24 20 24H13C12.45 24 12 24.45 12 25C12 25.64 12.11 26.27 12.33 26.87C12.54 27.47 12.86 28.02 13.27 28.49C13.69 28.96 14.18 29.34 14.73 29.6C15.29 29.86 15.89 30 16.5 30C17.11 30 17.71 29.86 18.27 29.6C18.82 29.34 19.32 28.96 19.73 28.49C20.14 28.02 20.46 27.47 20.68 26.87C20.89 26.27 21 25.64 21 25ZM18.8 26.19C18.66 26.56 18.46 26.9 18.22 27.17C17.98 27.44 17.71 27.65 17.41 27.79C17.12 27.93 16.81 28 16.5 28C16.19 28 15.88 27.93 15.59 27.79C15.3 27.65 15.02 27.44 14.78 27.17C14.54 26.9 14.34 26.56 14.21 26.19C14.19 26.13 14.16 26.06 14.15 26H18.86C18.84 26.06 18.82 26.13 18.8 26.19Z" fill="white"/>
</svg>
