<svg width="48" height="48" viewBox="0 0 48 48" fill="none" xmlns="http://www.w3.org/2000/svg">
<rect width="48" height="48" rx="12" fill="#2B2D33"/>
<path d="M17 34.21H29V32.21H22.5H17V34.21Z" fill="white"/>
<path d="M29.71 16.5L28.92 15.71L30.21 14.42L28.79 13L27.5 14.3L26.71 13.5C26.32 13.11 25.68 13.11 25.29 13.5L17.29 21.5C16.9 21.89 16.9 22.53 17.29 22.92L20.29 25.92C20.68 26.31 21.32 26.31 21.71 25.92L27.46 20.17L27.54 20.26C27.14 20.79 27.02 21.47 27.38 22.18C27.78 22.94 28 23.8 28 24.71C28 27.75 25.54 30.21 22.5 30.21C21.78 30.21 21.08 30.07 20.45 29.82C19.59 29.47 19.04 29.33 17.8 29.33V29.21H22V27.21H14V29.21H16.51C17.88 31.03 20.05 32.21 22.5 32.21C26.64 32.21 30 28.85 30 24.71C30 22.75 29.23 20.96 28 19.63L29.71 17.92C30.1 17.53 30.1 16.89 29.71 16.5ZM21 23.8L19.42 22.21L26 15.62L27.59 17.21L21 23.8Z" fill="white"/>
</svg>
