<svg width="48" height="48" viewBox="0 0 48 48" fill="none" xmlns="http://www.w3.org/2000/svg">
<rect width="48" height="48" rx="12" fill="#2B2D33"/>
<path d="M31.07 23C30.3 23 29.97 22.73 29.89 22.02C29.66 19.95 29.02 18.08 27.89 16.58L27.64 16.8C29.58 17.87 30.94 19.53 31.58 21.44C31.89 22.36 32.19 22.66 33.08 22.88V23H31.07ZM25 23V16.28C26.52 17.13 27.48 19.45 27.79 21.48C27.93 22.39 28.18 22.7 29.09 22.88V23H25ZM27.89 31.42C29.02 29.92 29.66 28.05 29.89 25.98C29.97 25.27 30.3 25 31.07 25H33.08V25.12C32.19 25.34 31.89 25.64 31.58 26.56C30.94 28.47 29.58 30.13 27.64 31.2L27.89 31.42ZM18.91 23V22.88C19.82 22.7 20.07 22.39 20.21 21.48C20.55 19.45 21.48 17.13 23 16.28V23H18.91ZM25 31.72V25H29.09V25.12C28.18 25.3 27.93 25.61 27.79 26.52C27.48 28.55 26.52 30.87 25 31.72ZM14.92 23V22.88C15.81 22.66 16.11 22.36 16.42 21.44C17.06 19.53 18.42 17.87 20.36 16.8L20.11 16.58C18.98 18.08 18.35 19.95 18.11 22.02C18.03 22.73 17.7 23 16.93 23H14.92ZM23 31.72C21.48 30.87 20.52 28.55 20.21 26.52C20.07 25.61 19.82 25.3 18.91 25.12V25H23V31.72ZM20.11 31.42L20.36 31.2C18.42 30.13 17.06 28.47 16.42 26.56C16.11 25.64 15.81 25.34 14.92 25.12V25H16.93C17.7 25 18.03 25.27 18.11 25.98C18.34 28.05 18.98 29.92 20.11 31.42ZM24 34C29.52 34 34 29.53 34 24C34 18.48 29.52 14 24 14C18.48 14 14 18.48 14 24C14 29.53 18.48 34 24 34Z" fill="white"/>
</svg>
