<svg width="48" height="48" viewBox="0 0 48 48" fill="none" xmlns="http://www.w3.org/2000/svg">
<rect width="48" height="48" rx="12" fill="#FEE600"/>
<path d="M29.25 31V30.88C28.45 30.74 28 30.14 28 29.4V27C28 26.44 28.45 26 29 26H33C33.55 26 34 26.45 34 27V30C34 31.8 32.8 33 31 33H28C25.76 33 24 31.25 24 29V26C24 24.87 23.13 24 22 24H20V22H22C24.24 22 26 23.76 26 26V29C26 30.17 26.71 31 28 31H29.25ZM30 31H31C31.63 31 32 30.63 32 30V28H30V31ZM32.7 15.29C33.09 15.68 33.09 16.32 32.7 16.71L31.7 17.71C31.54 17.87 31.54 18.13 31.7 18.29C32.65 19.24 32.65 20.76 31.7 21.71L31.54 21.87C31.35 22.07 31.3 22.36 31.42 22.61L31.89 23.55C32.14 24.05 31.94 24.65 31.44 24.89C30.95 25.14 30.35 24.94 30.1 24.45L29.63 23.51C29.12 22.49 29.32 21.26 30.13 20.46L30.29 20.29C30.45 20.13 30.45 19.87 30.29 19.71C29.35 18.76 29.35 17.24 30.29 16.29L31.29 15.29C31.68 14.9 32.31 14.9 32.7 15.29ZM15 17C15 16.44 15.44 16 16 16H24C24.55 16 25 16.45 25 17V21H23V18H17V24C17 25.66 18.34 27 20 27C20.52 27 21.04 26.86 21.5 26.6L22.5 28.33C22.03 28.6 21.52 28.79 21 28.9V32H24V34H16V32H19V28.9C16.67 28.43 15 26.38 15 24V17Z" fill="#2B2D33"/>
</svg>
