<svg width="48" height="48" viewBox="0 0 48 48" fill="none" xmlns="http://www.w3.org/2000/svg">
<rect width="48" height="48" rx="12" fill="#FEE600"/>
<path d="M33.9099 23.55L31.9099 19.55C31.7399 19.21 31.3899 19 31.0099 19H29.0099V21H30.3899L31.3899 23H16.6299L17.6299 21H20.0099V19H17.0099C16.6299 19 16.2899 19.21 16.1199 19.55L14.1199 23.55C13.7699 24.25 14.1999 25 15.0099 25V34C15.0099 34.55 15.4599 35 16.0099 35H32.0099C32.5599 35 33.0099 34.55 33.0099 34V25C33.8299 25 34.2499 24.23 33.9099 23.55ZM23.0099 33H21.0099V29H23.0099V33ZM27.0099 33H25.0099V29H27.0099V33ZM32.3399 25.12C31.4999 25.26 31.0099 25.8 31.0099 26.7V33H29.0099V28C29.0099 27.45 28.5599 27 28.0099 27H20.0099C19.4599 27 19.0099 27.45 19.0099 28V33H17.0099V26.7C17.0099 25.8 16.5199 25.26 15.6799 25.12V25H32.3399V25.12Z" fill="#2B2D33"/>
<path d="M24.0099 21C25.6799 21 27.0099 19.67 27.0099 18H29.0099V16H27.0099V15H21.0099V18C21.0099 19.67 22.3399 21 24.0099 21ZM23.0099 17H25.0099V18C25.0099 18.56 24.5699 19 24.0099 19C23.4499 19 23.0099 18.56 23.0099 18V17Z" fill="#2B2D33"/>
</svg>
