<svg width="48" height="48" viewBox="0 0 48 48" fill="none" xmlns="http://www.w3.org/2000/svg">
<rect width="48" height="48" rx="12" fill="#FEE600"/>
<path d="M31 31V29.5C29.76 29.5 29.08 28.92 28.61 28.52L28.6 28.51C28.19 28.16 27.99 28 27.5 28C27.01 28 26.81 28.16 26.4 28.51L26.39 28.52C25.92 28.92 25.25 29.5 24 29.5C22.76 29.5 22.08 28.92 21.61 28.52L21.6 28.51C21.19 28.16 20.99 28 20.5 28C20.01 28 19.81 28.16 19.4 28.51L19.39 28.52C18.92 28.92 18.25 29.5 17 29.5V31C17 32.02 16.55 32.63 15.67 32.88V33H15V25C15 23.32 16.33 22 18 22V19H20V22H23V19H25V22H28V19H30V22C31.68 22 33 23.32 33 25V33H32.33V32.88C31.45 32.63 31 32.02 31 31ZM30 15V17H28V15H30ZM25 15V17H23V15H25ZM14 35H34V33H14V35ZM31 27.5V25C31 24.45 30.57 24 30 24H18C17.43 24 17 24.45 17 25V27.5C17.49 27.5 17.69 27.34 18.1 26.99L18.11 26.98C18.58 26.58 19.26 26 20.5 26C21.75 26 22.42 26.58 22.89 26.98L22.9 26.99C23.31 27.34 23.51 27.5 24 27.5C24.49 27.5 24.69 27.34 25.1 26.99L25.11 26.98C25.58 26.58 26.26 26 27.5 26C28.75 26 29.42 26.58 29.89 26.98L29.9 26.99C30.31 27.34 30.51 27.5 31 27.5ZM20 17V15H18V17H20Z" fill="#2B2D33"/>
</svg>
