<svg width="48" height="48" viewBox="0 0 48 48" fill="none" xmlns="http://www.w3.org/2000/svg">
<rect width="48" height="48" rx="12" fill="#FEE600"/>
<path d="M27 25H25V29H27V25Z" fill="#2B2D33"/>
<path d="M23 25H21V29H23V25Z" fill="#2B2D33"/>
<path d="M34 22C34 19.23 31.77 17 29 17C28.68 17 28.36 17.03 28.05 17.09C27.15 15.83 25.68 15 24 15C22.32 15 20.85 15.83 19.95 17.09C19.64 17.03 19.32 17 19 17C16.23 17 14 19.23 14 22C14 24.06 15.23 25.81 17 26.58V32C17 32.55 17.45 33 18 33H30C30.55 33 31 32.55 31 32V26.58C32.77 25.81 34 24.06 34 22ZM29 25V31H19V25C17.34 25 16 23.66 16 22C16 20.78 16.72 19.74 17.76 19.27C18.78 18.81 18.9 18.73 19.37 17.8L19.5 17.85C19.19 18.51 19 19.23 19 20H21C21 18.34 22.34 17 24 17C25.66 17 27 18.34 27 20H29C29 19.23 28.81 18.51 28.5 17.85L28.63 17.8C29.1 18.73 29.22 18.81 30.24 19.27C31.28 19.74 32 20.78 32 22C32 23.66 30.66 25 29 25Z" fill="#2B2D33"/>
</svg>
