<svg width="48" height="48" viewBox="0 0 48 48" fill="none" xmlns="http://www.w3.org/2000/svg">
<rect width="48" height="48" rx="12" fill="#FEE600"/>
<path d="M25.93 26.38L26.46 24.4C27.16 24.81 27.97 24.9 28.71 24.7C30.32 24.29 31.26 22.63 30.83 21.02L29.28 15.23L25.98 16.11C24.69 16.45 24.01 16.46 22.62 16.25L22.58 16.36L25.51 17.14C26.11 17.3 26.24 17.81 26.09 18.33L24.28 25.09C23.67 27.39 21.53 28.93 19.15 28.79L18.35 31.79L21.24 32.56L20.73 34.49L13 32.42L13.52 30.49L16.41 31.27L17.22 28.27C15.09 27.22 14 24.81 14.62 22.5L16.43 15.74C16.57 15.19 17.09 14.89 17.66 15.04L21.23 16C21.22 15.61 21.4 15.27 21.87 15.14L29.72 13.04C30.29 12.89 30.81 13.19 30.95 13.74L32.76 20.5C33.38 22.81 32.3 25.22 30.17 26.27L30.97 29.27L33.87 28.49L34.38 30.42L26.66 32.49L26.14 30.56L29.04 29.79L28.24 26.79C27.42 26.84 26.63 26.69 25.93 26.38ZM23.9 18.78L18.11 17.23L16.55 23.02C16.11 24.63 17.06 26.27 18.67 26.7C20.28 27.13 21.92 26.19 22.35 24.58L23.9 18.78Z" fill="#2B2D33"/>
</svg>
