<svg width="48" height="48" viewBox="0 0 48 48" fill="none" xmlns="http://www.w3.org/2000/svg">
<rect width="48" height="48" rx="12" fill="#2B2D33"/>
<path d="M14.53 24.83C14.32 25.32 14.39 25.71 14.71 26.03C15.03 26.35 15.41 26.42 15.91 26.21C17.61 25.48 19.66 25.32 21.08 26.74L22.49 25.33C21.02 23.85 19.35 23.6 17.93 24.41L17.83 24.31L26.73 15.41L25.31 14L16.41 22.9L16.33 22.8C17.14 21.39 16.89 19.71 15.42 18.24L14 19.66C15.42 21.08 15.26 23.12 14.53 24.83Z" fill="white"/>
<path d="M33.27 22.97C33.48 22.48 33.41 22.09 33.09 21.77C32.77 21.45 32.39 21.38 31.89 21.59C30.19 22.32 28.14 22.48 26.72 21.06L25.31 22.47C26.77 23.93 28.45 24.18 29.86 23.38L29.96 23.48L21.06 32.38L22.47 33.79L31.37 24.89L31.47 25C30.66 26.41 30.91 28.09 32.38 29.56L33.79 28.15C32.38 26.72 32.54 24.68 33.27 22.97Z" fill="white"/>
</svg>
