<svg width="48" height="48" viewBox="0 0 48 48" fill="none" xmlns="http://www.w3.org/2000/svg">
<rect width="48" height="48" rx="12" fill="#2B2D33"/>
<path d="M24 32C19.58 32 16 28.42 16 24C16 19.58 19.58 16 24 16C26.13 16 28.15 16.84 29.65 18.34L31.06 16.93C29.18 15.05 26.65 14 24 14C18.48 14 14 18.47 14 24C14 29.53 18.48 34 24 34C26.65 34 29.18 32.95 31.06 31.07L29.65 29.66C28.15 31.16 26.13 32 24 32Z" fill="white"/>
<path d="M19.71 23.04C19.21 23.24 18.99 23.56 18.99 24.01C18.99 24.46 19.21 24.78 19.71 24.98C21.43 25.67 22.99 27 22.99 29.01H24.99C24.99 26.94 23.98 25.58 22.41 25.15V25.01H32.99V23.01H22.41V22.88C23.98 22.45 24.99 21.09 24.99 19.01H22.99C22.99 21.02 21.43 22.35 19.71 23.04Z" fill="white"/>
</svg>
