<svg width="48" height="48" viewBox="0 0 48 48" fill="none" xmlns="http://www.w3.org/2000/svg">
<rect width="48" height="48" rx="12" fill="#2B2D33"/>
<path d="M16 26V28C18.96 28 20.96 29.59 23.01 33.28C23.26 33.73 23.55 34 24 34C24.45 34 24.72 33.73 24.97 33.28C27.02 29.59 29.04 28 32 28V26C28.19 26 25.45 28.31 24.06 31.31H23.94C22.55 28.31 19.81 26 16 26Z" fill="white"/>
<path d="M32 22V20C29.04 20 27.04 18.41 24.99 14.72C24.74 14.27 24.45 14 24 14C23.55 14 23.28 14.27 23.03 14.72C20.98 18.41 18.96 20 16 20V22C19.81 22 22.55 19.69 23.94 16.69H24.06C25.45 19.69 28.19 22 32 22Z" fill="white"/>
</svg>
