<svg width="48" height="48" viewBox="0 0 48 48" fill="none" xmlns="http://www.w3.org/2000/svg">
<rect width="48" height="48" rx="12" fill="#2B2D33"/>
<path d="M34 23V18H17C16.44 18 16 17.55 16 17C16 16.45 16.44 16 17 16H34V14H17C15.34 14 14 15.34 14 17V33C14 33.55 14.44 34 15 34H23C23.55 34 24 33.55 24 33V25.03H24.14C24.44 26.49 25.51 26.99 27 26.99V24.99C25.67 24.99 24.54 24.32 23.97 22.72C23.79 22.21 23.45 22 23 22C22.55 22 22.21 22.21 22.03 22.72C21.46 24.32 20.33 24.99 19 24.99V26.99C20.49 26.99 21.56 26.49 21.86 25.03H22V32H16V22C16 20.91 15.91 20.3 14.88 19.29L14.97 19.2C15.5 19.7 16.22 20 17 20H32V21.52C32 22.26 32.27 22.66 33 22.88V23H30C29.45 23 29 23.44 29 24V28C29 28.55 29.45 29 30 29H33V29.12C32.27 29.34 32 29.74 32 30.48V32H26V34H33C33.55 34 34 33.55 34 33V29C34.55 29 35 28.55 35 28V24C35 23.45 34.55 23 34 23ZM33 27H31V25H33V27Z" fill="white"/>
</svg>
