<svg width="48" height="48" viewBox="0 0 48 48" fill="none" xmlns="http://www.w3.org/2000/svg">
<rect width="48" height="48" rx="12" fill="#2B2D33"/>
<path d="M32 15H28V14C28 13.44 27.55 13 27 13H21C20.44 13 20 13.45 20 14V15H16C15.44 15 15 15.45 15 16V32C15 32.55 15.44 33 16 33H19V31H17V17H20V18.5C20 18.77 19.79 19 19.5 19H19V21H29V19H28.5C28.21 19 28 18.77 28 18.5V17H31V31H25V33H32C32.55 33 33 32.55 33 32V16C33 15.45 32.55 15 32 15ZM27.41 19H20.59V18.88C21.47 18.75 22 18.18 22 17.11V15H26V17.11C26 18.18 26.53 18.75 27.41 18.88V19Z" fill="white"/>
<path d="M29 27H27V29H29V27Z" fill="white"/>
<path d="M29 23H27V25H29V23Z" fill="white"/>
<path d="M26 26.01C24.67 26 23.55 25.32 22.97 23.72C22.79 23.21 22.45 23 22 23C21.55 23 21.21 23.21 21.03 23.72C20.45 25.32 19.33 26 18 26.01V28C19.59 28 20.56 27.5 20.86 26.04H21V35H23V26.04H23.14C23.44 27.5 24.41 28 26 28V26.01Z" fill="white"/>
</svg>
