<svg width="48" height="48" viewBox="0 0 48 48" fill="none" xmlns="http://www.w3.org/2000/svg">
<rect width="48" height="48" rx="12" fill="#2B2D33"/>
<path d="M24 24H22V26H24V24Z" fill="white"/>
<path d="M24 28H22V30H24V28Z" fill="white"/>
<path d="M16 18H19V19.5C19 19.77 18.79 20 18.5 20H18V22H28V20H27.5C27.21 20 27 19.77 27 19.5V18H30V22.02H32V17C32 16.45 31.55 16 31 16H27V15C27 14.44 26.55 14 26 14H20C19.44 14 19 14.45 19 15V16H15C14.44 16 14 16.45 14 17V33C14 33.55 14.44 34 15 34H25.97V32H16V18ZM21 18.11V16H25V18.11C25 19.18 25.53 19.75 26.41 19.88V20H19.59V19.88C20.47 19.75 21 19.18 21 18.11Z" fill="white"/>
<path d="M20 28H18V30H20V28Z" fill="white"/>
<path d="M20 24H18V26H20V24Z" fill="white"/>
<path d="M35 30V28H29.04V27.86C30.5 27.56 31 26.59 31 25H29.01C29 26.33 28.32 27.45 26.72 28.03C26.21 28.21 26 28.55 26 29C26 29.45 26.21 29.79 26.72 29.97C28.32 30.55 29 31.67 29.01 33H31C31 31.41 30.5 30.44 29.04 30.14V30H35Z" fill="white"/>
</svg>
