<svg width="48" height="48" viewBox="0 0 48 48" fill="none" xmlns="http://www.w3.org/2000/svg">
<rect width="48" height="48" rx="12" fill="#2B2D33"/>
<path d="M28 24C28 21.65 25.62 20 23 20C20.41 20 18 21.63 18 24C18 26.35 20.38 28 23 28C25.59 28 28 26.37 28 24ZM20 24C20 22.81 21.56 22 23 22C24.41 22 26 22.79 26 24C26 25.19 24.44 26 23 26C21.59 26 20 25.21 20 24Z" fill="white"/>
<path d="M14 35H16V33C16 32.4 16.4 32 17 32H33C33.55 32 34 31.56 34 31V17C34 16.45 33.55 16 33 16H17C16.4 16 16 15.6 16 15V13H14V35ZM32 30H30C30 28.88 30.91 28 32 28V30ZM32 18V20C30.91 20 30 19.12 30 18H32ZM16.12 16.67C16.39 17.51 17.03 18 18 18H26.02C27.13 18 27.69 17.57 27.88 16.61H28V18C28 20.22 29.8 22 32 22V26C29.82 26 28 27.76 28 30V31.39H27.88C27.69 30.43 27.13 30 26.02 30H18C17.03 30 16.39 30.49 16.12 31.33H16V16.67H16.12Z" fill="white"/>
</svg>
