<svg width="48" height="48" viewBox="0 0 48 48" fill="none" xmlns="http://www.w3.org/2000/svg">
<rect width="48" height="48" rx="12" fill="#2B2D33"/>
<path d="M21 22V20H27V22H21ZM20 24H28C28.55 24 29 23.55 29 23V19C29 18.45 28.55 18 28 18H20C19.45 18 19 18.45 19 19V23C19 23.55 19.45 24 20 24ZM17 30V16H31V30H28V28H29V26H19V28H20V30H17ZM22 32V28H26V32H22ZM21 34H27C27.55 34 28 33.55 28 33V30.59H28.12C28.25 31.47 28.82 32 29.89 32H32C32.55 32 33 31.55 33 31V15C33 14.45 32.55 14 32 14H16C15.45 14 15 14.45 15 15V31C15 31.55 15.45 32 16 32H18.11C19.18 32 19.75 31.47 19.88 30.59H20V33C20 33.55 20.45 34 21 34Z" fill="white"/>
</svg>
