<svg width="48" height="48" viewBox="0 0 48 48" fill="none" xmlns="http://www.w3.org/2000/svg">
<rect width="48" height="48" rx="12" fill="#2B2D33"/>
<path d="M35.01 27H25V29H35.01V27Z" fill="white"/>
<path d="M35.01 31H25V33H35.01V31Z" fill="white"/>
<path d="M23 17H13V19H23V17Z" fill="white"/>
<path d="M29.01 23V20C29.01 19.38 28.64 19 28.01 19H25.01V17H30.42V16.88C29.54 16.75 29.01 16.18 29.01 15.11V13H31.01V16C31.01 16.62 31.38 17 32.01 17H35.01V19H29.6V19.12C30.48 19.25 31.01 19.82 31.01 20.89V23H29.01Z" fill="white"/>
<path d="M21.19 34.6L19.34 32.75C18.58 31.99 18.56 31.22 19.09 30.5L19.01 30.42L14.83 34.6L13.42 33.19L15.89 30.72C16.34 30.27 16.33 29.74 15.89 29.31L13.42 26.84L14.83 25.43L16.68 27.28C17.44 28.04 17.46 28.81 16.93 29.53L17.01 29.61L21.19 25.43L22.6 26.84L20.13 29.31C19.68 29.76 19.69 30.29 20.13 30.72L22.6 33.19L21.19 34.6Z" fill="white"/>
</svg>
