<svg width="48" height="48" viewBox="0 0 48 48" fill="none" xmlns="http://www.w3.org/2000/svg">
<rect width="48" height="48" rx="12" fill="#2B2D33"/>
<path d="M28.88 27H26V29H33C33.56 29 34 28.59 34 28V16C34 15.45 33.56 15 33 15H15C14.45 15 14 15.45 14 16V25H16V20.12C16 19.49 15.58 19.12 15 19.12V19H16.5C17.32 19 18 18.33 18 17.5V16H18.12C18.12 16.58 18.49 17 19.12 17H28.88C29.51 17 29.88 16.58 29.88 16H30V17.5C30 18.33 30.68 19 31.5 19H33V19.12C32.42 19.12 32 19.49 32 20.12V23.88C32 24.51 32.42 24.88 33 24.88V25H31.5C30.68 25 30 25.67 30 26.5V28H29.88C29.88 27.42 29.51 27 28.88 27Z" fill="white"/>
<path d="M24 31H17.03V31.14C18.49 31.44 18.99 32.51 18.99 34H16.99C16.99 32.67 16.32 31.54 14.72 30.97C14.21 30.79 14 30.45 14 30C14 29.55 14.21 29.21 14.72 29.03C16.32 28.46 16.99 27.33 16.99 26H18.99C18.99 27.49 18.49 28.56 17.03 28.86V29H24V31Z" fill="white"/>
</svg>
