<svg width="48" height="48" viewBox="0 0 48 48" fill="none" xmlns="http://www.w3.org/2000/svg">
<rect width="48" height="48" rx="12" fill="#2B2D33"/>
<path d="M22 28V30H26.97V30.14C25.51 30.44 25.01 31.54 25.01 33.02H27C27.01 31.7 27.69 30.55 29.29 29.98C29.8 29.8 30 29.46 30 29.01C30 28.55 29.8 28.21 29.29 28.03C27.69 27.47 27.01 26.32 27 25H25.01C25.01 26.49 25.51 27.55 26.97 27.86V28H22ZM21 28H16.03V27.86C17.49 27.55 17.99 26.49 17.99 25H16C15.99 26.32 15.31 27.47 13.71 28.03C13.2 28.22 13 28.55 13 29.01C13 29.46 13.2 29.8 13.71 29.98C15.31 30.55 15.99 31.7 16 33.02H17.99C17.99 31.54 17.49 30.44 16.03 30.14V30H21V28ZM32 30H33C33.55 30 34 29.56 34 29V25C34.55 25 35 24.56 35 24V20C35 19.45 34.55 19 34 19V15C34 14.45 33.55 14 33 14H15C14.44 14 14 14.45 14 15V23H16V16H32V19H30C29.44 19 29 19.45 29 20V24C29 24.56 29.44 25 30 25H32V30ZM31 23V21H33V23H31Z" fill="white"/>
</svg>
