<svg width="48" height="48" viewBox="0 0 48 48" fill="none" xmlns="http://www.w3.org/2000/svg">
<rect width="48" height="48" rx="12" fill="#2B2D33"/>
<path d="M32 24H34V15C34 14.5 33.6 14 33 14H15C14.4 14 14 14.5 14 15V24H16V19.1C16 18.5 15.6 18.1 15 18.1V18H16.5C17.3 18 18 17.3 18 16.5V15H18.1C18.1 15.6 18.5 16 19.1 16H28.9C29.5 16 29.9 15.6 29.9 15H30V16.5C30 17.3 30.7 18 31.5 18H33V18.1C32.4 18.1 32 18.5 32 19.1V24Z" fill="white"/>
<path d="M23 30H17V30.1C18.5 30.4 19 31.5 19 33H17C17 31.7 16.3 30.5 14.7 30C14.2 29.8 14 29.4 14 29C14 28.6 14.2 28.2 14.7 28C16.3 27.5 17 26.3 17 25H19C19 26.5 18.5 27.6 17 27.9V28H23V30Z" fill="white"/>
<path d="M25 28H31V27.9C29.5 27.6 29 26.5 29 25H31C31 26.3 31.7 27.5 33.3 28C33.8 28.2 34 28.5 34 29C34 29.4 33.8 29.8 33.3 30C31.7 30.6 31 31.7 31 33H29C29 31.5 29.5 30.4 31 30.1V30H25V28Z" fill="white"/>
</svg>
