<svg width="48" height="48" viewBox="0 0 48 48" fill="none" xmlns="http://www.w3.org/2000/svg">
<rect width="48" height="48" rx="12" fill="#2B2D33"/>
<path d="M20.2 18V17.88C20.92 17.72 21.42 17.34 21.84 16.7L22.28 16.03C22.72 15.35 23.16 15 24 15C24.84 15 25.28 15.35 25.72 16.03L26.16 16.7C26.58 17.34 27.08 17.72 27.8 17.88V18H20.2ZM16 29C17.07 29 18 28.07 18 27C18 25.93 17.07 25 16 25C14.94 25 14 25.93 14 27C14 28.07 14.94 29 16 29ZM22 35C23.07 35 24 34.07 24 33C24 31.93 23.07 31 22 31C20.94 31 20 31.93 20 33C20 34.07 20.94 35 22 35ZM15.4 35.01L24 26.42L22.6 25.02L14 33.61L15.4 35.01ZM26 33H32C33.1 33 34 32.11 34 31V20C34 18.9 33.1 18 32 18H30.2C29.62 18 29.21 17.73 28.8 17.1L27.44 15C26.57 13.66 25.38 13 24 13C22.62 13 21.43 13.66 20.56 15L19.2 17.1C18.79 17.73 18.38 18 17.8 18H16C14.9 18 14 18.9 14 20V23H16V20H32V31H26V33Z" fill="white"/>
</svg>
