<svg width="48" height="48" viewBox="0 0 48 48" fill="none" xmlns="http://www.w3.org/2000/svg">
<rect width="48" height="48" rx="12" fill="#2B2D33"/>
<path d="M15.3389 18.9985C16.2167 17.4813 17.4813 16.2167 18.9985 15.3389L20.0001 17.07C18.7857 17.7726 17.7726 18.7857 17.07 20.0001L15.3389 18.9985Z" fill="white"/>
<path d="M14.3385 21.4115C14.1175 22.2382 14 23.1062 14 24C14 24.8938 14.1175 25.7618 14.3385 26.5885L16.2707 26.072C16.0943 25.4122 16 24.7179 16 24C16 23.2821 16.0943 22.5878 16.2707 21.928L14.3385 21.4115Z" fill="white"/>
<path d="M15.3389 29.0015C16.2167 30.5187 17.4813 31.7833 18.9985 32.6611L20.0001 30.93C18.7857 30.2274 17.7726 29.2143 17.07 27.9999L15.3389 29.0015Z" fill="white"/>
<path d="M32.6611 29.0015C31.7833 30.5187 30.5187 31.7833 29.0015 32.6611L27.9999 30.93C29.2143 30.2274 30.2274 29.2143 30.93 27.9999L32.6611 29.0015Z" fill="white"/>
<path d="M21.4115 33.6615C22.2382 33.8825 23.1062 34 24 34C24.8938 34 25.7618 33.8825 26.5885 33.6615L26.072 31.7293C25.4122 31.9057 24.7179 32 24 32C23.2821 32 22.5878 31.9057 21.928 31.7293L21.4115 33.6615Z" fill="white"/>
<path d="M22.5 21C22.5 21.8284 21.8284 22.5 21 22.5C20.1716 22.5 19.5 21.8284 19.5 21C19.5 20.1716 20.1716 19.5 21 19.5C21.8284 19.5 22.5 20.1716 22.5 21Z" fill="white"/>
<path d="M27 28.5C27.8284 28.5 28.5 27.8284 28.5 27C28.5 26.1716 27.8284 25.5 27 25.5C26.1716 25.5 25.5 26.1716 25.5 27C25.5 27.8284 26.1716 28.5 27 28.5Z" fill="white"/>
<path d="M21.2071 28.2071L28.2071 21.2071L26.7929 19.7929L19.7929 26.7929L21.2071 28.2071Z" fill="white"/>
<path d="M21.4115 14.3385C22.2382 14.1175 23.1062 14 24 14C24.8938 14 25.7618 14.1175 26.5885 14.3385C27.4384 14.5662 28.2485 14.9058 29.0008 15.3402L29.0015 15.3389C29.6727 15.7272 30.2944 16.1913 30.8551 16.7194C30.9983 16.8541 31.1376 16.9933 31.273 17.1367C31.8043 17.6996 32.2709 18.3241 32.6611 18.9985L32.6598 18.9992C33.098 19.7579 33.4336 20.5694 33.6594 21.4121L33.6615 21.4115C33.8768 22.217 33.9939 23.0616 33.9998 23.9311L34 24C34 24.8938 33.8825 25.7618 33.6615 26.5885L31.7293 26.072C31.9057 25.4122 32 24.7179 32 24L31.9998 23.9433C31.9875 22.2022 31.4074 20.512 30.3468 19.1299C30.1783 18.9102 29.9991 18.7003 29.8101 18.5006C29.7065 18.3913 29.5999 18.2848 29.4904 18.1814C28.531 17.2762 27.3574 16.6174 26.0706 16.2726L26.0711 16.2704C25.4116 16.0942 24.7176 16 24 16C23.2821 16 22.5878 16.0943 21.928 16.2707L21.4115 14.3385Z" fill="white"/>
</svg>
