<svg width="48" height="48" viewBox="0 0 48 48" fill="none" xmlns="http://www.w3.org/2000/svg">
<rect width="48" height="48" rx="12" fill="#2B2D33"/>
<path d="M22.28 31.22L23.7 29.8L22.69 28.78C22.01 28.09 21.46 27.86 20.42 28.09L20.37 27.99C21.26 27.39 21.5 26.98 21.5 26.07V24.31H19.5V27.8C19.5 28.33 19.58 28.49 19.94 28.86L22.28 31.22ZM29.38 26H28.5V28H33.5C34.06 28 34.5 27.59 34.5 27V15C34.5 14.45 34.06 14 33.5 14H15.5C14.95 14 14.5 14.45 14.5 15V21H16.5V19.12C16.5 18.49 16.08 18.12 15.5 18.12V18H17C17.82 18 18.5 17.33 18.5 16.5V15H18.62C18.62 15.58 18.99 16 19.62 16H29.38C30.01 16 30.38 15.58 30.38 15H30.5V16.5C30.5 17.33 31.18 18 32 18H33.5V18.12C32.92 18.12 32.5 18.49 32.5 19.12V22.88C32.5 23.51 32.92 23.88 33.5 23.88V24H32C31.18 24 30.5 24.67 30.5 25.5V27H30.38C30.38 26.42 30.01 26 29.38 26ZM14 28.01C14 24.42 16.91 21.51 20.5 21.51C24.09 21.51 27 24.42 27 28.01C27 31.6 24.09 34.51 20.5 34.51C16.91 34.51 14 31.6 14 28.01ZM20.5 23.51C18.01 23.51 16 25.52 16 28.01C16 30.5 18.01 32.51 20.5 32.51C22.98 32.51 25 30.5 25 28.01C25 25.52 22.98 23.51 20.5 23.51Z" fill="white"/>
</svg>
