<svg width="48" height="48" viewBox="0 0 48 48" fill="none" xmlns="http://www.w3.org/2000/svg">
<rect width="48" height="48" rx="12" fill="#2B2D33"/>
<path d="M17 23H13V25H17V23Z" fill="white"/>
<path d="M19 25V27H21V30H23V25.6H23.1C23.2 26.5 23.8 27 24.9 27H27V25H23V24H26C27.7 24 29 22.7 29 21C29 19.3 27.7 18 26 18H21V22H19V24H21V25H19ZM23 20H26C26.6 20 27 20.4 27 21C27 21.6 26.6 22 26 22H23V20Z" fill="white"/>
<path d="M32 14H16C15.4 14 15 14.5 15 15V21H17V16H31V32H17V27H15V33C15 33.6 15.4 34 16 34H32C32.5 34 33 33.6 33 33V15C33 14.5 32.5 14 32 14Z" fill="white"/>
</svg>
