<svg width="48" height="48" viewBox="0 0 48 48" fill="none" xmlns="http://www.w3.org/2000/svg">
<rect width="48" height="48" rx="12" fill="#2B2D33"/>
<path d="M29 23V21H31V23H29ZM21.75 22.01C21.75 22.7 22.31 23.26 23 23.26C23.69 23.26 24.25 22.7 24.25 22.01C24.25 21.32 23.69 20.76 23 20.76C22.31 20.76 21.75 21.32 21.75 22.01ZM21 25V19H27V25H21ZM29 31H32C32.55 31 33 30.55 33 30V14C33 13.45 32.55 13 32 13H16C15.45 13 15 13.45 15 14V30C15 30.55 15.45 31 16 31H19V29H17V15H31V17C31 18 31.6 18.68 32.5 18.88V19H29V18C29 17.45 28.55 17 28 17H20C19.45 17 19 17.45 19 18V26C19 26.55 19.45 27 20 27H28C28.55 27 29 26.55 29 26V25H32.5V25.12C31.6 25.32 31 26 31 27V29H29V31Z" fill="white"/>
<path d="M25 27.99V32.96H25.14C25.44 31.5 26.51 31 28 31V33C26.67 33 25.54 33.67 24.97 35.27C24.79 35.79 24.45 36 24 36C23.55 36 23.21 35.79 23.03 35.28C22.46 33.68 21.33 33.01 20 33.01V31.01C21.49 31.01 22.56 31.51 22.86 32.97H23V28H25V27.99Z" fill="white"/>
</svg>
