<svg width="48" height="48" viewBox="0 0 48 48" fill="none" xmlns="http://www.w3.org/2000/svg">
<rect width="48" height="48" rx="12" fill="#2B2D33"/>
<path d="M28.88 26H27V28H33C33.27 28 33.52 27.89 33.71 27.71C33.9 27.52 34 27.27 34 27V15C34 14.45 33.56 14 33 14H15C14.45 14 14 14.45 14 15V25H16V19.12C16 18.49 15.58 18.12 15 18.12V18H16.5C17.32 18 18 17.33 18 16.5V15H18.12C18.12 15.58 18.49 16 19.12 16H28.88C29.51 16 29.88 15.58 29.88 15H30V16.5C30 17.33 30.68 18 31.5 18H33V18.12C32.42 18.12 32 18.49 32 19.12V22.88C32 23.51 32.42 23.88 33 23.88V24H31.5C30.68 24 30 24.67 30 25.5V27H29.88C29.88 26.42 29.51 26 28.88 26ZM22.49 26.04C21.05 25.81 19.67 26.63 19.18 28H23L22 30H19.18C19.58 31.18 20.75 32 22 32C23.06 32 24.07 31.42 24.6 30.5L26.33 31.5C25.45 33.02 23.81 34 22 34C19.66 34 17.58 32.35 17.11 30H15L16 28H17.11C17.6 25.43 20.14 23.63 22.82 24.07C23.85 24.24 24.8 24.73 25.54 25.46L24.13 26.88C23.68 26.44 23.11 26.14 22.49 26.04Z" fill="white"/>
</svg>
