<svg width="48" height="48" viewBox="0 0 48 48" fill="none" xmlns="http://www.w3.org/2000/svg">
<rect width="48" height="48" rx="12" fill="#2B2D33"/>
<path d="M23 31H25V30.48C25 29.61 24.53 29.12 23.7 29.12V29H25C26.66 29 28 27.66 28 26C28 24.34 26.66 23 25 23H23C22.45 23 22 22.55 22 22C22 21.45 22.45 21 23 21H25C25.55 21 26 21.45 26 22H28C28 20.34 26.66 19 25 19V17H23V17.52C23 18.39 23.47 18.88 24.3 18.88V19H23C21.34 19 20 20.34 20 22C20 23.66 21.34 25 23 25H25C25.55 25 26 25.45 26 26C26 26.55 25.55 27 25 27H23C22.45 27 22 26.55 22 26H20C20 27.66 21.34 29 23 29V31ZM24 34C18.48 34 14 29.52 14 24C14 22.17 14.49 20.44 15.36 18.96C15.79 18.22 15.83 17.6 15.4 16.98L15.48 16.89L18.57 19.98L19.98 18.57L17.67 16.26C19.39 14.85 21.6 14 24 14C29.52 14 34 18.48 34 24C34 25.83 33.5 27.56 32.64 29.04C32.21 29.78 32.17 30.4 32.6 31.02L32.52 31.11L29.41 28L28 29.41L30.33 31.74C28.61 33.15 26.4 34 24 34ZM24 36C30.62 36 36 30.62 36 24C36 17.37 30.63 12 24 12C17.37 12 12 17.37 12 24C12 30.62 17.38 36 24 36Z" fill="white"/>
</svg>
