<svg width="48" height="48" viewBox="0 0 48 48" fill="none" xmlns="http://www.w3.org/2000/svg">
<rect width="48" height="48" rx="12" fill="#2B2D33"/>
<path d="M18 25V24C18 22.34 19.34 21 21 21C22.66 21 24 22.34 24 24V25L28.88 25.01C29.51 25.01 29.88 25.43 29.88 26.01H30V24.51C30 23.68 30.68 23.01 31.5 23.01H33V22.89C32.42 22.89 32 22.52 32 21.89V19.13C32 18.5 32.42 18.13 33 18.13V18.01H31.5C30.68 18.01 30 17.34 30 16.51V15.01H29.88C29.88 15.59 29.51 16.01 28.88 16.01H19.12C18.49 16.01 18.12 15.59 18.12 15.01H18V16.51C18 17.34 17.32 18.01 16.5 18.01H15V18.13C15.58 18.13 16 18.5 16 19.13V25.01L18 25ZM15 27C14.45 27 14 26.55 14 26V15C14 14.45 14.45 14 15 14H33C33.56 14 34 14.45 34 15V26C34 26.55 33.55 27 33 27H32.51L27.51 34L25.89 32.84L30.06 27H24V28H22V24C22 23.45 21.55 23 21 23C20.45 23 20 23.45 20 24V31C20 31.58 20.43 32 21 32V34C19.27 34 18 32.73 18 31V27H15Z" fill="white"/>
</svg>
