<svg width="48" height="48" viewBox="0 0 48 48" fill="none" xmlns="http://www.w3.org/2000/svg">
<rect width="48" height="48" rx="12" fill="#2B2D33"/>
<path d="M23.81 22H28.89C29.52 22 29.89 21.58 29.89 21H30.01V22.5C30.01 23.33 30.69 24 31.51 24H33.01V24.12C32.43 24.12 32.01 24.49 32.01 25.12V28.88C32.01 29.51 32.43 29.88 33.01 29.88V30H31.51C30.69 30 30.01 30.67 30.01 31.5V33H29.89C29.89 32.42 29.52 32 28.89 32H19.13C18.5 32 18.13 32.42 18.13 33H18.01V31.5C18.01 30.67 17.33 30 16.51 30H15.01V29.88C15.59 29.88 16.01 29.51 16.01 28.88V26H14.01V33C14.01 33.55 14.46 34 15.01 34H33.01C33.57 34 34.01 33.55 34.01 33V21C34.01 20.73 33.91 20.48 33.72 20.29C33.53 20.1 33.28 20 33.01 20H30.54L27.43 15.34C26.84 14.46 25.99 14 24.88 14H14.01V16H24.88C25.29 16 25.58 16.16 25.77 16.45L26.96 18.23C27.6 19.19 28.09 19.63 29.56 19.88V20H23.12C21.19 20 20.65 22.06 22.16 23.23L24.73 25.23C25.69 25.98 25.03 26.93 24.04 26.42L18.19 23.38C16.52 22.51 16 21.49 16 18.99H14C14 22.21 14.89 23.93 17.27 25.16L23.12 28.19C26.37 29.87 28.94 25.96 25.95 23.65L23.81 22Z" fill="white"/>
</svg>
