<svg width="48" height="48" viewBox="0 0 48 48" fill="none" xmlns="http://www.w3.org/2000/svg">
<rect width="48" height="48" rx="12" fill="#2B2D33"/>
<path d="M35 30H25V32H35V30Z" fill="white"/>
<path d="M31.587 15.9986L15.0055 32.5801L16.4268 34.0014L33.0083 17.4199L31.587 15.9986Z" fill="white"/>
<path d="M17 24V21C17 20.38 16.63 20 16 20H13V18H18.41V17.88C17.53 17.75 17 17.18 17 16.11V14H19V17C19 17.62 19.37 18 20 18H23V20H17.59V20.12C18.47 20.25 19 20.82 19 21.89V24H17Z" fill="white"/>
</svg>
