<svg width="48" height="48" viewBox="0 0 48 48" fill="none" xmlns="http://www.w3.org/2000/svg">
<rect width="48" height="48" rx="12" fill="#2B2D33"/>
<path d="M30 29.11L27.79 30.22C27.37 30.43 26.91 30.53 26.45 30.53C24.87 30.53 24.6 29.48 22.45 29.48C22.04 29.48 21.62 29.54 21.15 29.67V29.54C22.03 29.23 22.45 28.72 22.45 27.8V26H25.45V24H22.32C22.32 22.7 21.46 22.05 21.46 19.99C21.46 18.3 22.76 17 24.45 17C26.14 17 27.44 18.3 27.44 19.99H29.44C29.44 17.2 27.24 15 24.45 15C21.66 15 19.46 17.2 19.46 19.99C19.46 22.05 20.32 23.2 20.32 24H18.45V26H20.45C20.45 26 20.45 27.99 20.45 28.8C20.45 29.61 20.25 30 19.45 30.39L18 31.11L18.9 32.9L21.11 31.79C21.53 31.58 21.99 31.48 22.45 31.48C24.03 31.48 24.3 32.53 26.45 32.53C27.22 32.53 27.99 32.35 29.09 31.8L30.9 30.9L30 29.11Z" fill="white"/>
</svg>
