<svg width="48" height="48" viewBox="0 0 48 48" fill="none" xmlns="http://www.w3.org/2000/svg">
<rect width="48" height="48" rx="12" fill="#2B2D33"/>
<path d="M31.07 17.92L29.66 19.33C31.11 20.78 32 22.78 32 24.99C32 29.41 28.42 32.99 24 32.99C19.58 32.99 16 29.41 16 24.99C16 20.57 19.58 16.99 24 16.99V17.14C22.54 17.44 22.04 18.51 22.04 20H24.04C24.04 18.67 24.71 17.54 26.31 16.97C26.82 16.79 27.03 16.45 27.03 16C27.03 15.55 26.82 15.21 26.31 15.03C24.71 14.46 24.04 13.33 24.04 12H22.04C22.04 13.49 22.54 14.56 24 14.86V14.99C18.48 14.99 14 19.47 14 24.99C14 30.51 18.48 34.99 24 34.99C29.52 34.99 34 30.51 34 24.99C34 22.23 32.88 19.73 31.07 17.92Z" fill="white"/>
<path d="M19.76 20.74C18.67 21.82 18 23.32 18 24.98C18 28.29 20.69 30.98 24 30.98C27.31 30.98 30 28.29 30 24.98C30 23.33 29.33 21.83 28.25 20.74L26.83 22.15C27.55 22.88 28 23.88 28 24.98C28 27.19 26.21 28.98 24 28.98C21.79 28.98 20 27.19 20 24.98C20 23.88 20.44 22.88 21.16 22.16L19.76 20.74Z" fill="white"/>
<path d="M25.99 24.98C25.99 23.88 25.1 22.99 24 22.99C22.9 22.99 22.01 23.88 22.01 24.98C22.01 26.08 22.9 26.97 24 26.97C25.1 26.97 25.99 26.08 25.99 24.98Z" fill="white"/>
</svg>
