<svg width="48" height="48" viewBox="0 0 48 48" fill="none" xmlns="http://www.w3.org/2000/svg">
<rect width="48" height="48" rx="12" fill="#2B2D33"/>
<path d="M26 14L23.9 19H25.9L28 14H26ZM31.64 26.47C31.25 27.1 30.73 27.08 30.35 26.47L28.02 22.72H27.87C28.36 23.68 29 25.34 29 27.39V32H27V21C27 19.88 28.28 19.67 28.8 20.5L31 24L33.2 20.5C33.71 19.69 35 19.88 35 20.9V32H33V27.39C33 25.34 33.61 23.68 34.13 22.72H33.98L31.64 26.47ZM22 30C22.6 30 23 29.6 23 29V23C23 22.4 22.6 22 22 22C21.4 22 21 22.4 21 23V29C21 29.6 21.4 30 22 30ZM19 23C19 21.3 20.3 20 22 20C23.7 20 25 21.4 25 23V29C25 30.7 23.7 32 22 32C20.3 32 19 30.7 19 29V23ZM12 23C12 21.3 13.3 20 15 20C16.7 20 18 21.4 18 23H16C16 22.4 15.6 22 15 22C14.4 22 14 22.4 14 23C14 23.44 14.11 23.82 14.76 24.43L16.54 26.1C17.54 27.04 18 27.88 18 29C18 30.7 16.7 32 15 32C13.3 32 12 30.7 12 29H14C14 29.6 14.4 30 15 30C15.6 30 16 29.6 16 29C16 28.51 15.85 28.11 15.28 27.59L13.38 25.88C12.45 25.04 12 24.17 12 23Z" fill="white"/>
</svg>
