<svg width="24" height="24" viewBox="0 0 24 24" fill="none" xmlns="http://www.w3.org/2000/svg">
<path d="M22.9 4.9C23.11 4.41 23.04 4.02 22.72 3.71C22.4 3.4 22.02 3.32 21.53 3.53C19.83 4.26 17.77 4.41 16.36 3L14.95 4.41C16.36 5.82 18.09 6.12 19.5 5.32L19.59 5.41L15 9.99L13.71 8.7C13.32 8.31 12.69 8.31 12.3 8.7L6.3 14.7L7.71 16.11L13 10.82L14.29 12.11C14.68 12.5 15.31 12.5 15.7 12.11L21 6.82L21.1 6.92C20.29 8.33 20.59 10.06 22.01 11.48L23.42 10.07C22 8.65 22.17 6.61 22.9 4.9Z" fill="#FEE600"/>
<path d="M3.67 19.29C4.44 19.02 5 18.31 5 17.41V3.41H3V20.41C3 20.96 3.45 21.41 4 21.41H21V19.41H3.67V19.29Z" fill="#FEE600"/>
</svg>
