<svg width="24" height="24" viewBox="0 0 24 24" fill="none" xmlns="http://www.w3.org/2000/svg">
<path d="M17 9.67C16.07 8.29 14.18 7 12 7C9.82 7 7.93 8.29 7 9.67V17H9V10.37C9.63 9.66 10.69 9 12 9C13.31 9 14.37 9.66 15 10.37V17H17V9.67ZM12 16.5C11.11 16.5 10.53 15.83 10.53 15.07C10.53 14.12 11.01 13.67 11.51 11.93C11.6 11.61 11.79 11.5 12 11.5C12.21 11.5 12.4 11.61 12.49 11.93C12.98 13.67 13.47 14.12 13.47 15.07C13.47 15.83 12.89 16.5 12 16.5ZM22 19V21H2V19H22ZM20.33 5H3.67V5.12C4.51 5.39 5 6.03 5 7V17H3V5H2V3H22V5H21V17H19V7C19 6.03 19.49 5.39 20.33 5.12V5Z" fill="#FEE600"/>
</svg>
