<svg width="24" height="24" viewBox="0 0 24 24" fill="none" xmlns="http://www.w3.org/2000/svg">
<path d="M7 20V12H3.9V11.88C4.68 11.88 5.11 11.74 5.69 11.2L12 5.36L18.31 11.2C18.89 11.74 19.32 11.88 20.1 11.88V12H17V20H15V14H13V20H7ZM9 18H11V15H9V18ZM6 22H18C18.55 22 19 21.55 19 21V14H20C20.55 14 21 13.55 21 13V11.4C21 11.12 20.89 10.86 20.68 10.67L12.68 3.27C12.3 2.91 11.71 2.91 11.32 3.27L3.32 10.67C3.12 10.86 3 11.12 3 11.4V13C3 13.59 3.48 14 4 14H5V21C5 21.55 5.45 22 6 22Z" fill="#FEE600"/>
</svg>
