<svg width="24" height="24" viewBox="0 0 24 24" fill="none" xmlns="http://www.w3.org/2000/svg">
<path d="M9 6C7.67 6 6.53 5.2 6.17 4H9C10.33 4 11.47 4.8 11.83 6H9ZM11.25 21C9.27 21 7 17.8 7 15C7 12.55 8.61 11 10.49 11C11.21 11 11.7 11.26 12 11.9V14H14V11.89C14.3 11.26 14.77 11 15.5 11C17.38 11 19 12.55 19 15C19 17.8 16.73 21 14.75 21C14 21 13.46 20.77 13 20.25C12.53 20.76 11.98 21 11.25 21ZM11.25 23C11.95 23 12.53 22.84 13 22.51C13.47 22.84 14.05 23 14.75 23C17.85 23 21 18.97 21 15C21 11.59 18.54 9 15.62 9C14.68 9 14.22 9.49 14.12 10.49H14V7C14 4.2 11.8 2 9 2H4V3C4 5.78 6.22 8 9 8H12V10.49H11.88C11.78 9.49 11.32 9 10.38 9C7.44 9 5 11.58 5 15C5 18.99 8.13 23 11.25 23Z" fill="white"/>
</svg>
