<svg width="24" height="25" viewBox="0 0 24 25" fill="none" xmlns="http://www.w3.org/2000/svg">
<path d="M20 12.35C18.1 12.35 17.25 13.65 16 13.65C14.75 13.65 13.9 12.35 12 12.35C10.1 12.35 9.25 13.65 8 13.65C6.75 13.65 5.9 12.35 4 12.35C2.64 12.35 1.81 13.02 1 13.4V15.53C2.27 15.2 2.99 14.35 4 14.35C5.25 14.35 6.05 15.65 8 15.65C9.95 15.65 10.75 14.35 12 14.35C13.25 14.35 14.05 15.65 16 15.65C17.95 15.65 18.75 14.35 20 14.35C21.01 14.35 21.73 15.2 23 15.53V13.4C22.18 13.02 21.36 12.35 20 12.35Z" fill="white"/>
<path d="M22 11V9C22 5.69 19.32 3 16 3H8C4.69 3 2 5.69 2 9V11H22ZM4 9C4 6.79 5.79 5 8 5H16C18.21 5 20 6.79 20 9H5.73C4.74 9 4.25 9.52 4.12 10.44H4V9Z" fill="white"/>
<path d="M2 17V19C2 21.23 3.79 23 6 23H18C20.21 23 22 21.23 22 19V17H2ZM20 19C20 20.12 19.11 21 18 21H6C4.9 21 4 20.12 4 19H18.27C19.26 19 19.75 18.48 19.88 17.56H20V19Z" fill="white"/>
</svg>
