<svg width="24" height="25" viewBox="0 0 24 25" fill="none" xmlns="http://www.w3.org/2000/svg">
<path d="M19 19V17.5C17.76 17.5 17.08 16.92 16.61 16.52L16.6 16.51C16.19 16.16 15.99 16 15.5 16C15.01 16 14.81 16.16 14.4 16.51L14.39 16.52C13.92 16.92 13.25 17.5 12 17.5C10.76 17.5 10.08 16.92 9.61 16.52L9.6 16.51C9.19 16.16 8.99 16 8.5 16C8.01 16 7.81 16.16 7.4 16.51L7.39 16.52C6.92 16.92 6.25 17.5 5 17.5V19C5 20.02 4.55 20.63 3.67 20.88V21H3V13C3 11.32 4.33 10 6 10V7H8V10H11V7H13V10H16V7H18V10C19.68 10 21 11.32 21 13V21H20.33V20.88C19.45 20.63 19 20.02 19 19ZM18 3V5H16V3H18ZM13 3V5H11V3H13ZM2 23H22V21H2V23ZM19 15.5V13C19 12.45 18.57 12 18 12H6C5.43 12 5 12.45 5 13V15.5C5.49 15.5 5.69 15.34 6.1 14.99L6.11 14.98C6.58 14.58 7.26 14 8.5 14C9.75 14 10.42 14.58 10.89 14.98L10.9 14.99C11.31 15.34 11.51 15.5 12 15.5C12.49 15.5 12.69 15.34 13.1 14.99L13.11 14.98C13.58 14.58 14.26 14 15.5 14C16.75 14 17.42 14.58 17.89 14.98L17.9 14.99C18.31 15.34 18.51 15.5 19 15.5ZM8 5V3H6V5H8Z" fill="white"/>
</svg>
