<svg width="24" height="24" viewBox="0 0 24 24" fill="none" xmlns="http://www.w3.org/2000/svg">
<path d="M7.3 6L7.8 4H16.2L16.7 6H7.3ZM12 15C11.4 15 11 14.6 11 14C11 13.4 11.4 13 12 13C12.6 13 13 13.4 13 14C13 14.5 12.6 15 12 15ZM12 17C13.7 17 15 15.6 15 14C15 12.3 13.7 11 12 11C10.3 11 9 12.3 9 14C9 15.6 10.3 17 12 17ZM8.1 20L7.2 10C7.1 9.1 6.6 8.4 5.6 8.1V8H18.4V8.1C17.4 8.3 16.9 9 16.8 10L15.9 20H8.1ZM7.2 22H16.8C17.3 22 17.7 21.6 17.8 21.1L18.9 9C19 8.3 19.4 8 20 8H21V6H18.8L18 2.8C17.9 2.3 17.5 2 17 2H7C6.5 2 6.1 2.3 6 2.8L5.3 6H3V8H4C4.6 8 5 8.4 5.1 9L6.2 21.1C6.3 21.6 6.7 22 7.2 22Z" fill="white"/>
</svg>
