<svg width="24" height="24" viewBox="0 0 24 24" fill="none" xmlns="http://www.w3.org/2000/svg">
<path d="M15 13H13V17H15V13Z" fill="white"/>
<path d="M11 13H9V17H11V13Z" fill="white"/>
<path d="M22 10C22 7.23 19.77 5 17 5C16.68 5 16.36 5.03 16.05 5.09C15.15 3.83 13.68 3 12 3C10.32 3 8.85 3.83 7.95 5.09C7.64 5.03 7.32 5 7 5C4.23 5 2 7.23 2 10C2 12.06 3.23 13.81 5 14.58V20C5 20.55 5.45 21 6 21H18C18.55 21 19 20.55 19 20V14.58C20.77 13.81 22 12.06 22 10ZM17 13V19H7V13C5.34 13 4 11.66 4 10C4 8.78 4.72 7.74 5.76 7.27C6.78 6.81 6.9 6.73 7.37 5.8L7.5 5.85C7.19 6.51 7 7.23 7 8H9C9 6.34 10.34 5 12 5C13.66 5 15 6.34 15 8H17C17 7.23 16.81 6.51 16.5 5.85L16.63 5.8C17.1 6.73 17.22 6.81 18.24 7.27C19.28 7.74 20 8.78 20 10C20 11.66 18.66 13 17 13Z" fill="white"/>
</svg>
