<svg width="24" height="24" viewBox="0 0 24 24" fill="none" xmlns="http://www.w3.org/2000/svg">
<path d="M7 2H5V5H7V2Z" fill="white"/>
<path d="M15 2H13V5H15V2Z" fill="white"/>
<path d="M11 2H9V5H11V2Z" fill="white"/>
<path d="M17 20H3V22H17V20Z" fill="white"/>
<path d="M19.5 8H19C18 8 17.4 8.4 17.1 9.2H17V7H3V12C3 15.8 5.2 18 9 18H11C13.1 18 14.8 17.3 15.8 16C16.5 15.1 17 15 18.1 15H19.5C21.5 15 23 13.5 23 11.5C23 9.5 21.5 8 19.5 8ZM15 12C15 14.7 13.7 16 11 16H9C6.3 16 5 14.7 5 12V9H15V12ZM19.5 13H18.6C17.6 13 17.1 13.4 16.8 14.3H16.7C16.9 13.6 17 12.8 17 12V11C17 10.4 17.3 10 18 10H19.5C20.3 10 21 10.7 21 11.5C21 12.4 20.4 13 19.5 13Z" fill="white"/>
</svg>
