<svg width="24" height="24" viewBox="0 0 24 24" fill="none" xmlns="http://www.w3.org/2000/svg">
<path d="M14.05 13C14.15 13.97 14.38 14.92 14.76 15.83C15.61 17.87 16.23 18.26 17.26 17.89L17.34 17.98C16 19.1 14.66 19.71 13 19.94V13H14.05ZM9.95 13H11V19.94C9.34 19.71 8 19.1 6.66 17.98L6.74 17.89C7.77 18.26 8.39 17.87 9.24 15.83C9.62 14.92 9.85 13.97 9.95 13ZM14.05 11H13V4.06C14.66 4.29 16 4.9 17.34 6.02L17.26 6.11C16.23 5.74 15.61 6.13 14.76 8.17C14.38 9.08 14.15 10.03 14.05 11ZM16.06 11C16.15 10.29 16.34 9.6 16.61 8.94C16.95 8.12 17.42 7.37 18 6.71C19.04 7.88 19.74 9.37 19.94 11H16.06ZM18 17.29C17.42 16.63 16.95 15.88 16.61 15.06C16.34 14.4 16.15 13.71 16.06 13H19.94C19.74 14.63 19.04 16.12 18 17.29ZM9.95 11C9.85 10.03 9.62 9.08 9.24 8.17C8.39 6.13 7.77 5.74 6.74 6.11L6.66 6.02C8 4.9 9.34 4.29 11 4.06V11H9.95ZM4.06 11C4.27 9.37 4.96 7.88 6 6.71C6.58 7.37 7.05 8.12 7.39 8.94C7.67 9.6 7.85 10.29 7.94 11H4.06ZM6 17.29C4.96 16.12 4.27 14.63 4.06 13H7.94C7.85 13.71 7.67 14.4 7.39 15.06C7.05 15.88 6.58 16.63 6 17.29ZM12 22C17.52 22 22 17.52 22 12C22 6.48 17.52 2 12 2C6.48 2 2 6.48 2 12C2 17.52 6.48 22 12 22Z" fill="white"/>
</svg>
