<svg width="24" height="24" viewBox="0 0 24 24" fill="none" xmlns="http://www.w3.org/2000/svg">
<path d="M3.06 11C3.52 6.83 6.83 3.52 11 3.05V1H13V3.05C17.17 3.52 20.49 6.83 20.95 11H23V13H20.95C20.49 17.17 17.17 20.48 13 20.95V23H11V20.95C6.83 20.48 3.52 17.17 3.06 13H1V11H3.06ZM13 7H11V5.07C8.41 5.44 6.29 7.22 5.42 9.6C5.08 10.55 4.74 10.88 4.07 10.88V11H7V13H5.07C5.44 15.59 7.22 17.71 9.6 18.58C10.55 18.92 10.88 19.26 10.88 19.93H11V17H13V18.93C15.59 18.56 17.71 16.78 18.58 14.4C18.92 13.45 19.26 13.12 19.93 13.12V13H17V11H18.93C18.56 8.41 16.78 6.29 14.4 5.42C13.45 5.08 13.12 4.74 13.12 4.07H13V7ZM12 13.5C12.83 13.5 13.5 12.83 13.5 12C13.5 11.17 12.83 10.5 12 10.5C11.17 10.5 10.5 11.17 10.5 12C10.5 12.83 11.17 13.5 12 13.5Z" fill="white"/>
</svg>
