<svg width="24" height="24" viewBox="0 0 24 24" fill="none" xmlns="http://www.w3.org/2000/svg">
<path d="M20 16C18.34 16 17 17.34 17 19C17 20.66 18.34 22 20 22C21.66 22 23 20.66 23 19C23 17.34 21.66 16 20 16ZM20 20C19.45 20 19 19.55 19 19C19 18.45 19.45 18 20 18C20.55 18 21 18.45 21 19C21 19.55 20.55 20 20 20Z" fill="white"/>
<path d="M10 14.06V9.69001L17.35 6.94001C17.74 6.79001 18 6.42001 18 6.00001C18 5.58001 17.74 5.21001 17.35 5.06001L9.35 2.06001C9.05 1.95001 8.7 1.99001 8.43 2.18001C8.16 2.36001 8 2.67001 8 3.00001V14.06C5.4 14.35 3 15.77 3 18C3 20.49 6.02 22 9 22C11.95 22 15 20.51 15 18C15 15.77 12.6 14.35 10 14.06ZM10 4.44001L14.15 6.00001L10 7.56001V4.44001ZM9 20C7.42 20 5 19.26 5 18C5 17.32 5.71 16.78 6.63 16.44C7.38 16.15 7.88 15.8 7.88 14.74H8V18H10V14.74H10.12C10.12 15.8 10.62 16.15 11.37 16.44C12.29 16.78 13 17.32 13 18C13 19.25 10.62 20 9 20Z" fill="white"/>
</svg>
