<svg width="24" height="24" viewBox="0 0 24 24" fill="none" xmlns="http://www.w3.org/2000/svg">
<path d="M12 2C6.48 2 2 6.48 2 12C2 17.52 6.48 22 12 22C17.52 22 22 17.52 22 12C22 6.48 17.52 2 12 2ZM4 12C4 9.97 4.76 8.12 6 6.71C7.19 8.06 8.01 9.83 8 12C8.01 14.17 7.19 15.94 6 17.29C4.76 15.88 4 14.03 4 12ZM6.68 17.96L6.74 17.89C7.76 18.26 8.31 17.77 8.94 16.53C9.64 15.16 10 13.5 10 12C10 10.5 9.64 8.84 8.94 7.47C8.31 6.23 7.76 5.74 6.74 6.11L6.68 6.04C8.09 4.77 9.95 4 12 4C14.05 4 15.91 4.77 17.32 6.04L17.26 6.11C16.24 5.74 15.69 6.23 15.06 7.47C14.36 8.84 14 10.5 14 12C14 13.5 14.36 15.16 15.06 16.53C15.69 17.77 16.24 18.26 17.26 17.89L17.32 17.96C15.91 19.23 14.05 20 12 20C9.95 20 8.09 19.23 6.68 17.96ZM18 17.29C16.81 15.94 15.99 14.17 16 12C15.99 9.83 16.81 8.06 18 6.71C19.24 8.12 20 9.97 20 12C20 14.03 19.24 15.88 18 17.29Z" fill="white"/>
</svg>
