<svg width="24" height="24" viewBox="0 0 24 24" fill="none" xmlns="http://www.w3.org/2000/svg">
<path d="M12 2C6.48 2 2 6.48 2 12C2 17.52 6.48 22 12 22C17.52 22 22 17.52 22 12C22 6.48 17.52 2 12 2ZM18.76 7.73C18.03 10.87 16.27 13.35 13.94 15.04C13.55 14.2 13.26 13.3 13.09 12.37C14.69 11 15.94 9.29 16.72 7.36C17.1 6.44 16.94 5.94 16.42 5.47L16.48 5.37C17.39 5.98 18.16 6.79 18.76 7.73ZM8.4 12.16C9.32 12.24 10.23 12.44 11.11 12.75C11.5 14.83 12.38 16.76 13.65 18.41C14.26 19.2 14.77 19.31 15.44 19.09L15.5 19.19C14.53 19.66 13.46 19.94 12.32 19.99C9.97 17.78 8.7 15.03 8.4 12.16ZM11.79 10.86C9.8 10.16 7.69 9.96 5.63 10.24C4.64 10.37 4.29 10.76 4.14 11.45H4.03C4.11 10.32 4.42 9.25 4.92 8.29C8 7.35 11.03 7.63 13.66 8.81C13.13 9.56 12.5 10.25 11.79 10.86ZM12 4C13.23 4 14.38 4.28 15.42 4.78C15.25 5.58 15 6.35 14.66 7.08C12.76 6.19 10.67 5.68 8.51 5.72C7.42 5.74 6.77 6.06 5.99 6.9L5.89 6.84C7.36 5.1 9.55 4 12 4ZM4.03 12.65C4.81 12.4 5.6 12.23 6.41 12.16C6.59 14.26 7.19 16.31 8.31 18.17C8.87 19.11 9.47 19.51 10.58 19.76V19.88C7.05 19.23 4.32 16.29 4.03 12.65ZM16.55 18.58C15.94 18.03 15.4 17.43 14.93 16.77C16.66 15.57 18.14 14.01 19.18 12.12C19.71 11.16 19.76 10.44 19.42 9.35L19.52 9.29C19.83 10.14 20 11.05 20 12C20 14.73 18.63 17.14 16.55 18.58Z" fill="white"/>
</svg>
