<svg width="48" height="48" viewBox="0 0 48 48" fill="none" xmlns="http://www.w3.org/2000/svg">
<rect width="48" height="48" rx="12" fill="#2B2D33"/>
<path d="M20 29C21.7 29 23 27.7 23 26C23 24.3 21.7 23 20 23H16V27H14V29H16V30H14V32H16V34H18V30.6H18.1C18.2 31.5 18.8 32 19.9 32H22V30H18V29H20ZM18 25H20C20.6 25 21 25.4 21 26C21 26.6 20.6 27 20 27H18V25Z" fill="white"/>
<path d="M33 14H19C18.4 14 18 14.4 18 15V21H20V17.9C20 16.8 19.5 16.3 18.6 16.1V16H32V30.1C32 31.2 32.5 31.7 33.4 31.9V32H24V34H33C33.6 34 34 33.6 34 33V15C34 14.4 33.6 14 33 14Z" fill="white"/>
</svg>
