<svg width="48" height="48" viewBox="0 0 48 48" fill="none" xmlns="http://www.w3.org/2000/svg">
<rect width="48" height="48" rx="12" fill="#2B2D33"/>
<path d="M15 34H18C18.27 34 18.52 33.89 18.71 33.71L26.71 25.71C27.1 25.32 27.1 24.68 26.71 24.29L23.71 21.29C23.32 20.9 22.68 20.9 22.29 21.29L14.29 29.29C14.11 29.48 14 29.73 14 30V33C14 33.55 14.45 34 15 34ZM16 32V30.41L21.67 24.74C22.42 23.99 22.45 23.21 21.92 22.49L22 22.41L24.59 25L17.59 32H16ZM24 34H33C33.55 34 34 33.55 34 33V15C34 14.45 33.55 14 33 14H19C18.45 14 18 14.45 18 15V21H20V17.89C20 16.82 19.47 16.25 18.59 16.12V16H32V30.11C32 31.18 32.53 31.75 33.41 31.88V32H24V34Z" fill="white"/>
</svg>
