<svg width="48" height="48" viewBox="0 0 48 48" fill="none" xmlns="http://www.w3.org/2000/svg">
<rect width="48" height="48" rx="12" fill="#2B2D33"/>
<path d="M25 29C24.44 29 24 29.45 24 30C24 30.55 24.44 31 25 31C25.55 31 26 30.55 26 30C26 29.45 25.55 29 25 29ZM22 30C22 28.34 23.34 27 25 27C26.3 27 27.41 27.83 27.83 29H33C33.55 29 34 29.45 34 30V33H32V31H27.83C27.41 32.17 26.3 33 25 33C23.34 33 22 31.66 22 30ZM15.59 16H29V25H31V15C31 14.45 30.55 14 30 14H16C15.44 14 15 14.45 15 15V33C15 33.55 15.44 34 16 34H20V32H17V17.89C17 16.82 16.47 16.25 15.59 16.12V16Z" fill="white"/>
</svg>
