<svg width="48" height="48" viewBox="0 0 48 48" fill="none" xmlns="http://www.w3.org/2000/svg">
<rect width="48" height="48" rx="12" fill="#2B2D33"/>
<g clip-path="url(#clip0_386_15902)">
<path d="M27 30.5L31.21 33.05L31.32 33C30.76 32.47 30.79 31.82 31.42 31.44L33 30.5V27.49L28.79 24.94L28.68 24.99C29.24 25.52 29.21 26.17 28.58 26.55L27 27.49V30.5ZM17 17.89C17 16.82 16.47 16.25 15.59 16.12V16H29V21H31V15C31 14.44 30.55 14 30 14H16C15.45 14 15 14.44 15 15V33C15 33.55 15.45 34 16 34H22V32H17V17.89ZM29.48 23.64C29.8 23.45 30.2 23.45 30.52 23.64L34.52 26.07C34.82 26.25 35 26.58 35 26.92V31.07C35 31.42 34.82 31.74 34.52 31.92L30.52 34.35C30.2 34.54 29.8 34.54 29.48 34.35L25.48 31.92C25.18 31.74 25 31.42 25 31.07V26.92C25 26.58 25.18 26.25 25.48 26.07L29.48 23.64Z" fill="white"/>
</g>
<defs>
<clipPath id="clip0_386_15902">
<rect width="20" height="20.49" fill="white" transform="translate(15 14)"/>
</clipPath>
</defs>
</svg>
