<svg width="48" height="48" viewBox="0 0 48 48" fill="none" xmlns="http://www.w3.org/2000/svg">
<rect width="48" height="48" rx="12" fill="#2B2D33"/>
<path d="M35.91 22H34.31L30.4 30H31.99L35.91 22ZM30.49 22L34.41 30H36L32.09 22H30.49ZM20.5 28.5V23.5H22.5V28.5H20.5ZM19 28.5C19 29.46 19.55 30 20.5 30H22.5C23.45 30 24 29.46 24 28.5V23.5C24 22.54 23.46 22 22.5 22H20.5C19.54 22 19 22.54 19 23.5V28.5ZM25 28.5V23.5C25 22.53 25.54 22 26.5 22H28.5C29.46 22 30 22.53 30 23.5V25.01H28.5V23.5H26.5V28.5H28.5V26.99H30V28.5C30 29.47 29.46 30 28.5 30H26.5C25.54 30 25 29.47 25 28.5ZM16 20H18V17.89C18 16.82 17.47 16.25 16.59 16.12V16H30V20H32V15C32 14.45 31.56 14 31 14H17C16.46 14 16 14.47 16 15V20ZM14.5 28.5V23.5H16.5V28.5H14.5ZM13 30H16.5C17.45 30 18 29.46 18 28.5V23.5C18 22.54 17.46 22 16.5 22H13V30ZM32 32H16V33C16 33.56 16.45 34 17 34H31C31.55 34 32 33.55 32 32.99V32Z" fill="white"/>
</svg>
