<svg width="48" height="48" viewBox="0 0 48 48" fill="none" xmlns="http://www.w3.org/2000/svg">
<rect width="48" height="48" rx="12" fill="#2B2D33"/>
<path d="M34.8002 31.5C34.7002 30.9 34.5002 30.1 34.3002 29.4C34.1002 28.7 33.9002 28 33.6002 27.4C33.5002 27.1 33.3002 26.8 33.1002 26.6C32.9002 26.3 32.6002 26 32.0002 26C31.4002 26 31.0002 26.4 30.8002 26.6C30.6002 26.9 30.5002 27.2 30.3002 27.5C30.0002 28.1 29.8002 28.9 29.5002 29.6C29.3002 30.1 29.2002 30.6 29.0002 31C29.0002 30.9 29.0002 30.8 28.9002 30.7V30.6C28.8002 30.1 28.7002 29.6 28.5002 29.1C28.4002 28.9 28.3002 28.6 28.1002 28.4C27.9002 28.3 27.5002 28 27.0002 28C26.2002 28 25.7002 28.6 25.5002 29C25.3002 29.4 25.1002 29.8 25.0002 30.2C24.9002 30.6 25.0002 31 24.8002 31H22.0002C21.4002 31 21.0002 31.4 21.0002 32C21.0002 32.6 21.4002 33 22.0002 33H25.0002C25.8002 33 26.3002 32.4 26.5002 32C26.7002 31.6 26.8002 31.2 27.0002 30.8L27.1002 31.2C27.2002 31.7 27.3002 32.2 27.5002 32.7C27.6002 32.9 27.7002 33.2 27.9002 33.4C28.1002 33.6 28.5002 33.9 29.0002 33.9C29.6002 33.9 30.0002 33.4 30.2002 33.2C30.4002 32.9 30.5002 32.6 30.7002 32.3C31.0002 31.7 31.2002 30.9 31.5002 30.2C31.7002 29.6 31.9002 29 32.1002 28.6C32.2002 28.9 32.4002 29.4 32.5002 29.8C32.7002 30.5 32.8002 31.1 32.9002 31.7C33.0002 32.3 33.1002 32.7 33.1002 32.9C33.1002 33.4 33.5002 33.9 34.1002 33.9C34.6002 33.9 35.1002 33.4 35.1002 32.9C35.0002 32.7 34.9002 32.1 34.8002 31.5Z" fill="white"/>
<path d="M30.7002 18.3L27.7002 15.3C27.6002 15.2 27.4002 15.1 27.2002 15L23.2002 14C22.9002 13.9 22.6002 14 22.3002 14.3L18.3002 18.3L19.7002 19.7L23.3002 16.1H23.5002C24.6002 16.4 25.0002 16.3 25.8002 15.6L25.9002 15.7L15.3002 26.3C15.2002 26.4 15.1002 26.6 15.0002 26.8L14.0002 30.8C13.9002 31.2 14.0002 31.5 14.2002 31.8C14.4002 32.1 14.8002 32.1 15.2002 32L19.2002 31C19.4002 31 19.5002 30.9 19.7002 30.7L30.7002 19.7C31.1002 19.3 31.1002 18.7 30.7002 18.3ZM16.2002 29.8L16.8002 27.3L18.7002 29.2L16.2002 29.8ZM20.0002 27.6L18.4002 26L27.0002 17.4L28.6002 19L20.0002 27.6Z" fill="white"/>
</svg>
