<svg width="48" height="48" viewBox="0 0 48 48" fill="none" xmlns="http://www.w3.org/2000/svg">
<rect width="48" height="48" rx="12" fill="#2B2D33"/>
<path d="M28 19H20V21H28V19Z" fill="white"/>
<path d="M14 15V17H15C15.52 17 16 17.38 16 18V32.4C16 33.3 16.48 33.8 17.3 33.8C18.43 33.8 18.89 32.69 19.33 32.69C19.83 32.69 20.36 34 21.66 34C22.96 34 23.51 32.69 24.01 32.69C24.51 32.69 25.03 34 26.33 34C27.63 34 28.21 32.69 28.71 32.69C29.14 32.69 29.6 33.8 30.72 33.8C31.53 33.8 32 33.3 32 32.4V18C32 17.38 32.48 17 33 17H34V15H14ZM31.33 17.13C30.56 17.4 30 18.1 30 19V31.25C29.59 30.84 29.16 30.69 28.7 30.69C27.4 30.69 26.83 32 26.33 32C25.83 32 25.31 30.69 24.01 30.69C22.71 30.69 22.16 32 21.66 32C21.16 32 20.63 30.69 19.33 30.69C18.86 30.69 18.42 30.85 18 31.28V19C18 18.1 17.44 17.4 16.67 17.13V17H31.33V17.13Z" fill="white"/>
<path d="M28 23H20V25H28V23Z" fill="white"/>
</svg>
