<svg width="48" height="48" viewBox="0 0 48 48" fill="none" xmlns="http://www.w3.org/2000/svg">
<rect width="48" height="48" rx="12" fill="#2B2D33"/>
<path d="M23 30.49C21.75 30.49 21.21 31.8 20.72 31.8C20.24 31.8 19.75 30.49 18.51 30.49C17.21 30.49 16.75 32 16 32V16H30V23H32V14H14V32.01C14 33.09 14.69 34 16 34C17.61 34 18.08 32.69 18.51 32.69C18.99 32.69 19.48 34 20.72 34C21.97 34 22.52 32.69 23 32.69V30.49ZM32.57 26.93L29.57 24.93C29.24 24.71 28.8 24.71 28.47 24.93L25.47 26.93C25.19 27.11 25.02 27.43 25.02 27.76V31C25.02 31.33 25.19 31.65 25.47 31.83L28.47 33.83C28.8 34.05 29.24 34.05 29.57 33.83L32.57 31.83C32.85 31.65 33.02 31.33 33.02 31V27.75C33.02 27.43 32.85 27.11 32.57 26.93ZM31.49 30.71L31.43 30.82C30.95 30.69 30.64 30.7 30.34 30.9L29.69 31.34C29.4 31.54 29.21 31.76 29.08 32.25L28.96 32.24C28.84 31.77 28.68 31.57 28.36 31.35L27.7 30.9C27.44 30.72 27.09 30.69 26.61 30.82L26.55 30.71C26.9 30.37 27.02 30.09 27.02 29.73V29C27.02 28.63 26.9 28.36 26.55 28.02L26.61 27.91C27.09 28.04 27.38 28.04 27.7 27.83L28.34 27.4C28.65 27.19 28.83 26.97 28.96 26.5H29.08C29.21 26.97 29.39 27.19 29.7 27.4L30.34 27.83C30.65 28.04 30.95 28.04 31.43 27.91L31.49 28.02C31.14 28.36 31.02 28.63 31.02 29V29.73C31.02 30.11 31.14 30.38 31.49 30.71ZM18 20H28V18H18V20ZM18 24H25V22H18V24Z" fill="white"/>
</svg>
