<svg width="48" height="48" viewBox="0 0 48 48" fill="none" xmlns="http://www.w3.org/2000/svg">
<rect width="48" height="48" rx="12" fill="#2B2D33"/>
<path d="M25.5 24.99H28.5V26.49H25.5V24.99ZM28.5 30H25.5C24.54 30 24 29.47 24 28.5V23.5C24 22.55 24.55 22 25.5 22H28.5V23.5H25.5V28.5H28.5V30ZM15.5 20H17.5V17.89C17.5 16.82 16.97 16.25 16.09 16.12V16H29.5V20H31.5V15C31.5 14.45 31.06 14 30.5 14H16.5C15.96 14 15.5 14.47 15.5 15V20ZM32 24.99H34.5V26.49H32V24.99ZM19.5 26.5V23.5H21.5V26.5H19.5ZM33 30H31C30.04 30 29.5 29.47 29.5 28.5V23.5C29.5 22.55 30.05 22 31 22H34.5V23.5H31V28.5H33V24.99H34.5V28.5C34.5 29.47 33.96 30 33 30ZM18 30H19.5V28H21.5C22.45 28 23 27.46 23 26.5V23.5C23 22.54 22.46 22 21.5 22H18V30ZM13 30H15.5C16.46 30 17 29.47 17 28.5V22H15.5V28.5H13V30ZM31.5 32H15.5V33C15.5 33.56 15.95 34 16.5 34H30.5C31.05 34 31.5 33.55 31.5 32.99V32Z" fill="white"/>
</svg>
