<svg width="48" height="48" viewBox="0 0 48 48" fill="none" xmlns="http://www.w3.org/2000/svg">
<rect width="48" height="48" rx="12" fill="#2B2D33"/>
<path d="M31.5 24.99H34V26.49H31.5V24.99ZM24.5 26.5V23.5H26.5V26.5H24.5ZM32.5 30H30.5C29.54 30 29 29.47 29 28.5V23.5C29 22.55 29.55 22 30.5 22H34V23.5H30.5V28.5H32.5V24.99H34V28.5C34 29.47 33.46 30 32.5 30ZM23 30H24.5V28H26.5C27.45 28 28 27.46 28 26.5V23.5C28 22.54 27.46 22 26.5 22H23V30ZM18 30H20.5C21.46 30 22 29.47 22 28.5V22H20.5V28.5H18V30ZM31 32.99V32H17V17.89C17 16.82 16.47 16.25 15.59 16.12V16H29V20H31V15C31 14.45 30.56 14 30 14H16C15.46 14 15 14.47 15 15V33C15 33.56 15.45 34 16 34H30C30.55 34 31 33.55 31 32.99Z" fill="white"/>
</svg>
