<svg width="48" height="48" viewBox="0 0 48 48" fill="none" xmlns="http://www.w3.org/2000/svg">
<rect width="48" height="48" rx="12" fill="#2B2D33"/>
<path d="M18 31C18 29.91 17.42 29.31 16.5 29.12V29H20V27H18C18 25.91 17.42 25.31 16.5 25.12V25H20V23H18C18 21.91 17.42 21.31 16.5 21.12V21H20V19H18V16H22V32H18V31ZM31.5 28H26.5V27.88C27.42 27.69 28 27.09 28 26V18.77L29.03 17.02L30 18.79V26C30 27.09 30.58 27.69 31.5 27.88V28ZM29 34C30.66 34 32 32.66 32 31V18.82C32 18.42 31.95 18.2 31.79 17.9L29.94 14.52C29.76 14.2 29.44 14.01 29.08 14C28.72 13.99 28.38 14.18 28.2 14.49L26.23 17.84C26.05 18.14 26 18.37 26 18.82V31C26 32.66 27.34 34 29 34ZM29 32C28.45 32 28 31.55 28 31V30H30V31C30 31.55 29.55 32 29 32ZM17 34H23C23.52 34 24 33.6 24 33V15C24 14.45 23.55 14 23 14H17C16.45 14 16 14.45 16 15V33C16 33.55 16.45 34 17 34Z" fill="white"/>
</svg>
