<svg width="48" height="48" viewBox="0 0 48 48" fill="none" xmlns="http://www.w3.org/2000/svg">
<rect width="48" height="48" rx="12" fill="#2B2D33"/>
<path d="M18.41 21V21.12C17.47 21.21 17 21.81 17 22.77V23H15V25H18.41V25.12C17.47 25.21 17 25.81 17 26.77V27H15V29H18.41V29.12C17.47 29.21 17 29.81 17 30.77V33C17 33.55 17.45 34 18 34H32C32.55 34 33 33.55 33 33V15C33 14.45 32.55 14 32 14H18C17.45 14 17 14.45 17 15V19H15V21H18.41ZM19 32V30.01C19 29.41 19.4 29 20 29V27H19V26.02C19 25.42 19.4 25 20 25V23H19V22.01C19 21.41 19.4 21 20 21V19H19V16H31V32H19Z" fill="white"/>
</svg>
