<svg width="48" height="48" viewBox="0 0 48 48" fill="none" xmlns="http://www.w3.org/2000/svg">
<rect width="48" height="48" rx="12" fill="#2B2D33"/>
<path d="M33.0002 24H31.0002V29H33.0002V24Z" fill="white"/>
<path d="M32.0002 30.3C31.2002 30.3 30.6002 30.9 30.6002 31.7C30.6002 32.5 31.3002 33 32.0002 33C32.7002 33 33.4002 32.4 33.4002 31.6C33.4002 30.8 32.8002 30.3 32.0002 30.3Z" fill="white"/>
<path d="M31.7002 19.3L28.7002 16.3C28.6002 16.2 28.4002 16.1 28.2002 16L24.2002 15C23.9002 14.9 23.6002 15 23.3002 15.3L19.3002 19.3L20.7002 20.7L24.3002 17.1H24.5002C25.6002 17.4 26.0002 17.3 26.8002 16.6L26.9002 16.7L16.3002 27.3C16.2002 27.4 16.1002 27.6 16.0002 27.8L15.0002 31.8C14.9002 32.2 15.0002 32.5 15.2002 32.8C15.4002 33.1 15.8002 33.1 16.2002 33L20.2002 32C20.4002 32 20.5002 31.9 20.7002 31.7L31.7002 20.7C32.1002 20.3 32.1002 19.7 31.7002 19.3ZM17.2002 30.8L17.8002 28.3L19.7002 30.2L17.2002 30.8ZM21.0002 28.6L19.4002 27L28.0002 18.4L29.6002 20L21.0002 28.6Z" fill="white"/>
</svg>
