<svg width="48" height="48" viewBox="0 0 48 48" fill="none" xmlns="http://www.w3.org/2000/svg">
<rect width="48" height="48" rx="12" fill="#2B2D33"/>
<path d="M30.7002 18.3L27.7002 15.3C27.6002 15.2 27.4002 15.1 27.2002 15L23.2002 14C22.9002 13.9 22.6002 14 22.3002 14.3L18.3002 18.3L19.7002 19.7L23.3002 16.1H23.5002C24.6002 16.4 25.0002 16.3 25.8002 15.6L25.9002 15.7L15.3002 26.3C15.2002 26.4 15.1002 26.6 15.0002 26.8L14.0002 30.8C13.9002 31.2 14.0002 31.5 14.2002 31.8C14.4002 32.1 14.8002 32.1 15.2002 32L19.2002 31C19.4002 31 19.5002 30.9 19.7002 30.7L30.7002 19.7C31.1002 19.3 31.1002 18.7 30.7002 18.3ZM16.2002 29.8L16.8002 27.3L18.7002 29.2L16.2002 29.8ZM20.0002 27.6L18.4002 26L27.0002 17.4L28.6002 19L20.0002 27.6Z" fill="white"/>
<path d="M32.8002 24.8L25.0002 32.6L24.9002 32.5C25.4002 31.8 25.4002 31 24.7002 30.3L23.7002 29.3L22.3002 30.7L25.3002 33.7C25.7002 34.1 26.3002 34.1 26.7002 33.7L34.2002 26.2L32.8002 24.8Z" fill="white"/>
</svg>
