<svg width="48" height="48" viewBox="0 0 48 48" fill="none" xmlns="http://www.w3.org/2000/svg">
<rect width="48" height="48" rx="12" fill="#2B2D33"/>
<path d="M31.5 24.99H34.5V26.49H31.5V24.99ZM31.5 30H30V23.5C30 22.55 30.55 22 31.5 22H34.5V23.5H31.5V30ZM25.5 28.5V23.5H27.5V28.5H25.5ZM24 30H27.5C28.45 30 29 29.46 29 28.5V23.5C29 22.54 28.46 22 27.5 22H24V30ZM19.5 26.5V23.5H21.5V26.5H19.5ZM18 30H19.5V28H21.5C22.45 28 23 27.46 23 26.5V23.5C23 22.54 22.46 22 21.5 22H18V30ZM14 33C14 33.56 14.45 34 15 34H29C29.55 34 30 33.55 30 32.99V32H16V17.89C16 16.82 15.47 16.25 14.59 16.12V16H28V20H30V15C30 14.45 29.56 14 29 14H15C14.46 14 14 14.47 14 15V33Z" fill="white"/>
</svg>
