<svg width="48" height="48" viewBox="0 0 48 48" fill="none" xmlns="http://www.w3.org/2000/svg">
<rect width="48" height="48" rx="12" fill="#2B2D33"/>
<path d="M26 20C26 21.1046 25.1046 22 24 22C22.8954 22 22 21.1046 22 20C22 18.8954 22.8954 18 24 18C25.1046 18 26 18.8954 26 20Z" fill="white"/>
<path fill-rule="evenodd" clip-rule="evenodd" d="M23.9925 14C25.3706 13.9983 26.7073 14.471 27.7779 15.3387C28.8485 16.2065 29.5878 17.4163 29.8715 18.7649C30.1552 20.1135 29.966 21.5186 29.3357 22.7442C28.8069 23.7724 27.99 24.619 27 25.1915V28H28C28.5523 28 29 28.4477 29 29V33C29 33.5523 28.5523 34 28 34H22C21.4477 34 21 33.5523 21 33V25.1997C20.0089 24.6273 19.2003 23.78 18.6713 22.7576C18.0379 21.5337 17.8451 20.129 18.1254 18.7797C18.4057 17.4304 19.1419 16.2187 20.2104 15.3483C21.2788 14.4778 22.6143 14.0017 23.9925 14ZM27 30H25V23.9255L25.5983 23.663C26.443 23.2924 27.1386 22.6432 27.5571 21.8295C27.9773 21.0124 28.1035 20.0757 27.9143 19.1766C27.7252 18.2775 27.2324 17.471 26.5186 16.8925C25.8049 16.314 24.9137 15.9988 23.995 16C23.0762 16.0012 22.1859 16.3186 21.4736 16.8988C20.7613 17.4791 20.2705 18.2869 20.0836 19.1865C19.8968 20.086 20.0253 21.0224 20.4475 21.8384C20.8708 22.6563 21.5592 23.3031 22.3994 23.6692L23 23.9308V32H27V30Z" fill="white"/>
</svg>
