<svg width="48" height="48" viewBox="0 0 48 48" fill="none" xmlns="http://www.w3.org/2000/svg">
<rect width="48" height="48" rx="12" fill="#2B2D33"/>
<path d="M32.29 26.3L33.7 27.71L28.7 32.71C28.31 33.1 27.68 33.1 27.29 32.71L24.01 29.43L25.42 28.01L26.72 29.31C27.37 29.96 27.45 30.79 26.92 31.51L27 31.59L32.29 26.3ZM23 34V32H17V17H20V19H21C21.58 19 22 18.58 22 18V16H24V18C24 18.58 24.43 19 25 19H26V17H29V25H31V16C31 15.43 30.57 15 30 15H27.9C26.69 15 26.23 15.46 26.12 16.5H26V15C26 14.43 25.57 14 25 14H21C20.43 14 20 14.43 20 15V16.5H19.88C19.77 15.46 19.31 15 18.1 15H16C15.43 15 15 15.43 15 16V33C15 33.57 15.43 34 16 34H23Z" fill="white"/>
</svg>
