<svg width="48" height="48" viewBox="0 0 48 48" fill="none" xmlns="http://www.w3.org/2000/svg">
<rect width="48" height="48" rx="12" fill="#2B2D33"/>
<path d="M27 16H31V22H33V15C33 14.45 32.55 14 32 14H27V16ZM27 34H32C32.55 34 33 33.55 33 33V26H31V30.11C31 31.18 31.53 31.75 32.41 31.88V32H27V34ZM17 22H19V17.89C19 16.82 18.47 16.25 17.59 16.12V16H23V14H18C17.45 14 17 14.45 17 15V22Z" fill="white"/>
<path d="M19 26V31.97H19.14C19.44 30.51 20.51 30.01 22 30.01V32.01C20.67 32.01 19.54 32.68 18.97 34.28C18.79 34.79 18.45 35 18 35C17.55 35 17.21 34.79 17.03 34.28C16.46 32.68 15.33 32.01 14 32.01V30.01C15.49 30.01 16.56 30.51 16.86 31.97H17V26H19Z" fill="white"/>
</svg>
