<svg width="48" height="48" viewBox="0 0 48 48" fill="none" xmlns="http://www.w3.org/2000/svg">
<rect width="48" height="48" rx="12" fill="#2B2D33"/>
<path d="M16 33V28H18V32H22V34H17C16.43 34 16 33.57 16 33ZM26 16.41V20H29.59L26 16.41ZM31.25 22H25C24.43 22 24 21.57 24 21V14.75H23.88C23.88 15.41 23.5 16 22.43 16H18V24H16V15C16 14.43 16.43 14 17 14H26C26.27 14 26.52 14.11 26.71 14.29L31.71 19.29C31.89 19.48 32 19.73 32 20V33C32 33.57 31.57 34 31 34H26V32H30V23.57C30 22.5 30.59 22.12 31.25 22.12V22Z" fill="white"/>
</svg>
