<svg width="48" height="48" viewBox="0 0 48 48" fill="none" xmlns="http://www.w3.org/2000/svg">
<rect width="48" height="48" rx="12" fill="#2B2D33"/>
<path d="M23 15.5H22.88C22.69 16.42 22.09 17 21 17V19H19V15.5H18.88C18.69 16.42 18.09 17 17 17V31H25V33H16C15.45 33 15 32.55 15 32V16C15 15.45 15.45 15 16 15H26V17H25V19H23V15.5ZM25 27H19V29H25V27ZM19 23H25V25H19V23ZM32.5 28H27.5V27.88C28.42 27.69 29 27.09 29 26V18.77L30.03 17.02L31 18.79V26C31 27.09 31.58 27.69 32.5 27.88V28ZM30 34C31.66 34 33 32.66 33 31V18.82C33 18.42 32.95 18.2 32.79 17.9L30.94 14.52C30.76 14.2 30.44 14.01 30.08 14C29.72 13.99 29.38 14.18 29.2 14.49L27.23 17.84C27.05 18.14 27 18.37 27 18.82V31C27 32.66 28.34 34 30 34ZM30 32C29.45 32 29 31.55 29 31V30H31V31C31 31.55 30.55 32 30 32Z" fill="white"/>
</svg>
