<svg width="24" height="24" viewBox="0 0 24 24" fill="none" xmlns="http://www.w3.org/2000/svg">
<path d="M13 6L11 4V6H9V1H11L13 3V1H15V6H13Z" fill="#FEE600"/>
<path d="M17.8 3.7998L16.7 5.4998C18 6.3998 19 7.6998 19.6 9.0998C19.9 10.1998 19.3 10.9998 18.2 10.9998H17V12.9998H18.1C19 12.9998 19.65 12.3998 19.85 11.5998H20V11.8998C20 15.2998 17.9 18.1998 14.9 19.3998C13.8 19.6998 13 19.0998 13 17.9998V16.9998H11V17.9998C11 18.8998 11.6 19.65 12.4 19.85V19.9998H12C8.6 19.9998 5.7 17.8998 4.6 14.8998C4.3 13.6998 4.9 12.8998 6 12.8998H7V10.8998H6C5 10.8998 4.25 11.4998 4.15 12.2998H4V11.8998C4 9.1998 5.3 6.7998 7.4 5.39981L6.2 3.7998C3.7 5.5998 2 8.5998 2 11.9998C2 17.4998 6.5 21.9998 12 21.9998C17.5 21.9998 22 17.4998 22 11.9998C22 8.5998 20.3 5.5998 17.8 3.7998Z" fill="#FEE600"/>
<path fill-rule="evenodd" clip-rule="evenodd" d="M9.90015 10.3001L7.10015 15.5001C6.90015 15.9001 7.00015 16.4001 7.30015 16.7001C7.60015 17.0001 8.10015 17.1001 8.50015 16.9001L13.7001 14.1001C13.9001 14.0001 14.0001 13.9001 14.1001 13.7001L16.9001 8.50015C17.1001 8.10015 17.0001 7.60015 16.7001 7.30015C16.4001 7.00015 15.9001 6.90015 15.5001 7.10015L10.3001 9.90015C10.1607 9.96987 10.0699 10.0882 9.99375 10.1874C9.9607 10.2304 9.93042 10.2699 9.90015 10.3001ZM11.5001 11.5001L13.5001 10.4001L12.4001 12.4001L10.4001 13.5001L11.5001 11.5001Z" fill="#FEE600"/>
</svg>
