<svg width="24" height="24" viewBox="0 0 24 24" fill="none" xmlns="http://www.w3.org/2000/svg">
<path d="M21.19 13.03C19.59 12.47 18.91 11.32 18.9 10H16.9C16.9 11.49 17.41 12.55 18.87 12.86V13H11.89V5.03H12.03C12.33 6.49 13.43 7 14.91 7V5C13.59 4.99 12.44 4.31 11.87 2.71C11.69 2.2 11.35 2 10.9 2C10.44 2 10.1 2.2 9.92 2.71C9.36 4.31 8.21 4.99 6.89 5V7C8.38 7 9.44 6.49 9.75 5.03H9.89V13.6L5.15 18.34L5.05 18.24C5.87 16.99 5.46 15.85 4.41 14.81L3 16.22C3.92 17.16 4.25 18.46 3.53 19.99C3.3 20.48 3.39 20.86 3.71 21.18C4.04 21.51 4.42 21.6 4.91 21.37C6.44 20.65 7.73 20.97 8.67 21.89L10.08 20.48C9.03 19.43 7.92 19.04 6.67 19.85L6.57 19.75L11.32 15H18.87V15.14C17.41 15.44 16.9 16.54 16.9 18.02H18.9C18.91 16.7 19.59 15.55 21.19 14.98C21.7 14.8 21.9 14.46 21.9 14.01C21.9 13.55 21.7 13.21 21.19 13.03Z" fill="#FEE600"/>
</svg>
