<svg width="24" height="24" viewBox="0 0 24 24" fill="none" xmlns="http://www.w3.org/2000/svg">
<path d="M8 3.45V16.29L5.04 17.28C4.4 17.49 4.15 17.9 4.12 18.58H4V5.73L6.96 4.75C7.6 4.54 7.85 4.13 7.88 3.45H8ZM21.07 2C20.94 2 20.8 2.02 20.66 2.07L15 3.96L9.32 2.06C9.21 2.02 9.11 2.01 9 2.01C8.9 2.01 8.8 2.02 8.69 2.06L2.78 4.03C2.17 4.23 2 4.52 2 5.11V19.06C2 19.62 2.41 20.02 2.95 20.02C3.07 20.02 3.19 20 3.32 19.96L9.04 18.05C9.79 17.8 10 17.53 10 16.63V4.4L14 5.73V9.01H16V5.73L18.96 4.75C19.6 4.54 19.85 4.13 19.88 3.45H20V10.01H22V3.01C22 2.38 21.6 2 21.07 2ZM16.5 13.01C15.12 13.01 14 14.13 14 15.51C14 16.89 15.12 18.01 16.5 18.01C17.88 18.01 19 16.89 19 15.51C19 14.13 17.88 13.01 16.5 13.01ZM12 15.51C12 13.02 14.01 11.01 16.5 11.01C18.99 11.01 21 13.02 21 15.51C21 16.39 20.75 17.21 20.31 17.91L22.71 20.3L21.29 21.72L18.9 19.32C18.2 19.76 17.38 20.01 16.5 20.01C14.01 20.01 12 18 12 15.51Z" fill="#FEE600"/>
</svg>
