<svg width="24" height="24" viewBox="0 0 24 24" fill="none" xmlns="http://www.w3.org/2000/svg">
<path d="M9.24999 16.19C7.57999 16.44 6.30999 16.88 5.56999 17.37C5.20999 17.61 5.06999 17.81 5.01999 17.91C4.99999 17.96 4.99999 17.99 4.99999 18C4.99999 18.02 4.99999 18.05 5.02999 18.1C5.08999 18.22 5.24999 18.43 5.62999 18.67C5.98999 18.9 6.49999 19.14 7.15999 19.34C8.46999 19.76 10.16 20 11.95 20C13.73 20 15.44 19.77 16.76 19.37C17.43 19.17 17.95 18.93 18.33 18.7C18.72 18.45 18.9 18.25 18.96 18.12C18.99 18.06 19 18.02 19 18.01C19 17.99 19 17.97 18.98 17.93C18.94 17.83 18.82 17.64 18.47 17.39C17.76 16.91 16.51 16.46 14.85 16.21L15.15 14.23C16.94 14.5 18.54 15.01 19.61 15.75C20.14 16.12 20.6 16.59 20.84 17.18C21.09 17.8 21.05 18.46 20.73 19.05C20.44 19.61 19.94 20.05 19.39 20.39C18.82 20.75 18.13 21.04 17.35 21.28C15.79 21.76 13.88 22.01 11.94 22C9.99999 21.99 8.09999 21.74 6.55999 21.25C5.78999 21.01 5.09999 20.71 4.54999 20.35C3.99999 20 3.50999 19.55 3.22999 18.98C2.93999 18.38 2.91999 17.72 3.18999 17.11C3.44999 16.53 3.91999 16.07 4.45999 15.71C5.54999 14.98 7.15999 14.48 8.95999 14.21L9.24999 16.19ZM12 4C10.9 4 9.99999 4.9 9.99999 6C9.99999 7.1 10.9 8 12 8C13.11 8 14 7.1 14 6C14 4.9 13.11 4 12 4ZM13 11.44V18H11V9.87C9.27999 9.43 7.99999 7.86 7.99999 6C7.99999 3.79 9.78999 2 12 2C14.21 2 16 3.79 16 6C16 8.21 14.21 10 12 10V10.12C12.7 10.21 13 10.66 13 11.44Z" fill="#FEE600"/>
</svg>
