<svg width="24" height="24" viewBox="0 0 24 24" fill="none" xmlns="http://www.w3.org/2000/svg">
<path d="M11.92 15.13H12.04C12.09 16.01 12.29 16.42 12.74 17.24L13.48 18.6L12.26 18.25C12.08 18.2 11.89 18.2 11.71 18.25L10.49 18.6L11.21 17.25C11.66 16.41 11.87 16.01 11.92 15.13ZM12.86 13.24C12.68 12.91 12.35 12.71 11.98 12.71C11.61 12.71 11.28 12.91 11.1 13.24L7.6 19.74C7.41 20.09 7.45 20.53 7.7 20.84C7.95 21.15 8.37 21.28 8.76 21.17L11.98 20.25L15.21 21.17C15.59 21.28 16.01 21.15 16.26 20.84C16.51 20.53 16.55 20.09 16.36 19.74L12.86 13.24ZM10.98 8.21V11.21H12.98V8.21H10.98ZM10.98 6.21V3.21H12.98V6.21H10.98ZM16 3.43L20 21.43L21.96 21L17.96 3L16 3.43ZM7.96 3.43L3.96 21.43L2 21L6 3L7.96 3.43Z" fill="#FEE600"/>
</svg>
