<svg width="24" height="24" viewBox="0 0 24 24" fill="none" xmlns="http://www.w3.org/2000/svg">
<path d="M8.88006 19C8.33006 19 7.88006 19.45 7.88006 20C7.89006 20.54 8.34006 21 8.88006 21C9.45006 21 9.88006 20.55 9.88006 20C9.89006 19.45 9.44006 19 8.88006 19ZM13.0101 3.03L12.9301 3.11C13.4801 3.73 13.6101 3.97 13.8801 4.81L14.3201 6.14L16.0301 4.43L14.7101 3.98C13.8801 3.71 13.6401 3.58 13.0101 3.03ZM11.1801 1.28C11.4501 1.03 11.8401 0.930002 12.2101 1.05L18.2101 3.04C18.5401 3.15 18.7901 3.42 18.8701 3.77C18.9501 4.11 18.8501 4.46 18.6001 4.7L17.3001 6L20.0901 8.79C21.8601 10.56 21.8601 13.44 20.0901 15.21C18.3201 16.98 15.4501 16.98 13.6801 15.2L8.93006 10.46C7.80006 9.33 5.97006 9.32 4.84006 10.46C3.71006 11.6 3.72006 13.41 4.85006 14.54L7.60006 17.29C7.99006 17.1 8.42006 17 8.88006 17C10.5401 16.99 11.8801 18.33 11.8801 20C11.8801 21.65 10.5401 23 8.88006 23C7.22006 23 5.88006 21.66 5.88006 20C5.88006 19.53 5.99006 19.1 6.18006 18.71L3.43006 15.96C1.52006 14.05 1.52006 10.94 3.43006 9.03C5.34006 7.12 8.43006 7.13 10.3401 9.04L15.0901 13.79C16.0801 14.78 17.6901 14.78 18.6801 13.79C19.6701 12.8 19.6601 11.19 18.6701 10.2L15.8701 7.4L14.5801 8.7C14.3501 8.95 14.0001 9.05 13.6601 8.97C13.3201 8.89 13.0501 8.64 12.9401 8.32L10.9401 2.32C10.8201 1.96 10.9101 1.55 11.1801 1.28Z" fill="#FEE600"/>
</svg>
