<svg width="24" height="24" viewBox="0 0 24 24" fill="none" xmlns="http://www.w3.org/2000/svg">
<path d="M11.94 21.44H12.06C12.25 20.45 12.55 20.23 13.3 19.74C16.14 17.88 19 14.4 19 11C19 7.13 15.86 4 12 4C8.14 4 5 7.13 5 11C5 14.4 7.85 17.88 10.69 19.74C11.45 20.24 11.75 20.45 11.94 21.44ZM12 22.5C10.67 22.5 7.37 19.94 5.89 18.11C3.9 15.65 3 13.25 3 11C3 6.03 7.03 2 12 2C16.97 2 21 6.03 21 11C21 13.25 20.1 15.65 18.11 18.11C16.63 19.94 13.33 22.5 12 22.5ZM10 11C10 9.9 10.9 9 12 9C13.11 9 14 9.9 14 11C14 12.1 13.11 13 12 13C10.9 13 10 12.1 10 11ZM12 7C9.79 7 8 8.79 8 11C8 13.21 9.79 15 12 15C14.21 15 16 13.21 16 11C16 8.79 14.21 7 12 7Z" fill="#FEE600"/>
</svg>
