<svg width="48" height="48" viewBox="0 0 48 48" fill="none" xmlns="http://www.w3.org/2000/svg">
<rect width="48" height="48" rx="12" fill="#2B2D33"/>
<path d="M20 15.45V28.29L17.04 29.28C16.4 29.49 16.15 29.9 16.12 30.58H16V17.73L18.96 16.75C19.6 16.54 19.85 16.13 19.88 15.45H20ZM33.07 14C32.94 14 32.8 14.02 32.66 14.07L27 15.96L21.32 14.06C21.21 14.02 21.11 14.01 21 14.01C20.9 14.01 20.8 14.02 20.69 14.06L14.78 16.03C14.17 16.23 14 16.52 14 17.11V31.06C14 31.62 14.41 32.02 14.95 32.02C15.07 32.02 15.19 32 15.32 31.96L21.04 30.05C21.79 29.8 22 29.53 22 28.63V16.4L26 17.73V21.01H28V17.73L30.96 16.75C31.6 16.54 31.85 16.13 31.88 15.45H32V22.01H34V15.01C34 14.38 33.6 14 33.07 14ZM28.5 25.01C27.12 25.01 26 26.13 26 27.51C26 28.89 27.12 30.01 28.5 30.01C29.88 30.01 31 28.89 31 27.51C31 26.13 29.88 25.01 28.5 25.01ZM24 27.51C24 25.02 26.01 23.01 28.5 23.01C30.99 23.01 33 25.02 33 27.51C33 28.39 32.75 29.21 32.31 29.91L34.71 32.3L33.29 33.72L30.9 31.32C30.2 31.76 29.38 32.01 28.5 32.01C26.01 32.01 24 30 24 27.51Z" fill="#FEE600"/>
</svg>
