<svg width="48" height="48" viewBox="0 0 48 48" fill="none" xmlns="http://www.w3.org/2000/svg">
<rect width="48" height="48" rx="12" fill="#2B2D33"/>
<path d="M28 31.55V18.73L30.96 17.75C31.6 17.54 31.85 17.13 31.88 16.45H32V29.27L29.04 30.25C28.4 30.46 28.15 30.87 28.12 31.55H28ZM22 29.27V17.4L26 18.73V30.6L22 29.27ZM16 31.55V18.73L18.96 17.75C19.6 17.54 19.85 17.13 19.88 16.45H20V29.27L17.04 30.25C16.4 30.46 16.15 30.87 16.12 31.55H16ZM14 31.99C14 32.62 14.4 33 14.93 33C15.06 33 15.2 32.98 15.34 32.93L21 31.04L26.68 32.94C26.79 32.98 26.89 32.99 27 32.99C27.1 32.99 27.2 32.98 27.31 32.94L33.22 30.97C33.83 30.77 34 30.48 34 29.89V16.01C34 15.38 33.6 15 33.07 15C32.94 15 32.8 15.02 32.66 15.07L27 16.96L21.32 15.06C21.21 15.02 21.11 15.01 21 15.01C20.9 15.01 20.8 15.02 20.69 15.06L14.78 17.03C14.17 17.23 14 17.52 14 18.11V31.99Z" fill="#FEE600"/>
</svg>
