<svg width="48" height="48" viewBox="0 0 48 48" fill="none" xmlns="http://www.w3.org/2000/svg">
<rect width="48" height="48" rx="12" fill="#2B2D33"/>
<path d="M32.2201 19.06C31.4101 19.17 31.2101 19.24 30.5801 20H25.0001V18H30.5801C31.2101 18.76 31.4101 18.83 32.2201 18.94V19.06ZM15.7801 23.06V22.94C16.5901 22.83 16.7901 22.76 17.4201 22H23.0001V24H17.4201C16.7901 23.24 16.5901 23.17 15.7801 23.06ZM19.0001 34H29.0001V32H25.0001V22H31.0001C31.2701 22 31.5201 21.89 31.7101 21.71L33.7101 19.71C34.1001 19.32 34.1001 18.68 33.7101 18.29L31.7101 16.29C31.5201 16.11 31.2701 16 31.0001 16H25.0001V14H23.0001V20H17.1001C16.7201 20 16.5301 20.05 16.2901 20.29L14.2901 22.29C13.9001 22.68 13.9001 23.32 14.2901 23.71L16.2901 25.71C16.5201 25.94 16.7201 26 17.1001 26H23.0001V32H19.0001V34Z" fill="#FEE600"/>
</svg>
