<svg width="48" height="48" viewBox="0 0 48 48" fill="none" xmlns="http://www.w3.org/2000/svg">
<rect width="48" height="48" rx="12" fill="#2B2D33"/>
<rect width="24" height="24" transform="translate(12 12)" fill="#2B2D33"/>
<path d="M23.92 27.13H24.04C24.09 28.01 24.29 28.42 24.74 29.24L25.48 30.6L24.26 30.25C24.08 30.2 23.89 30.2 23.71 30.25L22.49 30.6L23.21 29.25C23.66 28.41 23.87 28.01 23.92 27.13ZM24.86 25.24C24.68 24.91 24.35 24.71 23.98 24.71C23.61 24.71 23.28 24.91 23.1 25.24L19.6 31.74C19.41 32.09 19.45 32.53 19.7 32.84C19.95 33.15 20.37 33.28 20.76 33.17L23.98 32.25L27.21 33.17C27.59 33.28 28.01 33.15 28.26 32.84C28.51 32.53 28.55 32.09 28.36 31.74L24.86 25.24ZM22.98 20.21V23.21H24.98V20.21H22.98ZM22.98 18.21V15.21H24.98V18.21H22.98ZM28 15.43L32 33.43L33.96 33L29.96 15L28 15.43ZM19.96 15.43L15.96 33.43L14 33L18 15L19.96 15.43Z" fill="#FEE600"/>
</svg>
