<svg width="48" height="48" viewBox="0 0 48 48" fill="none" xmlns="http://www.w3.org/2000/svg">
<rect width="48" height="48" rx="12" fill="#2B2D33"/>
<path d="M23.94 33.44H24.06C24.25 32.45 24.55 32.23 25.3 31.74C28.14 29.88 31 26.4 31 23C31 19.13 27.86 16 24 16C20.14 16 17 19.13 17 23C17 26.4 19.85 29.88 22.69 31.74C23.45 32.24 23.75 32.45 23.94 33.44ZM24 34.5C22.67 34.5 19.37 31.94 17.89 30.11C15.9 27.65 15 25.25 15 23C15 18.03 19.03 14 24 14C28.97 14 33 18.03 33 23C33 25.25 32.1 27.65 30.11 30.11C28.63 31.94 25.33 34.5 24 34.5ZM22 23C22 21.9 22.9 21 24 21C25.11 21 26 21.9 26 23C26 24.1 25.11 25 24 25C22.9 25 22 24.1 22 23ZM24 19C21.79 19 20 20.79 20 23C20 25.21 21.79 27 24 27C26.21 27 28 25.21 28 23C28 20.79 26.21 19 24 19Z" fill="#FEE600"/>
</svg>
