<svg width="24" height="24" viewBox="0 0 24 24" fill="none" xmlns="http://www.w3.org/2000/svg">
<path d="M17.5898 17.15L12.4298 12L16.3798 8.05L16.4598 8.14C15.8898 8.76 15.9098 9.4 16.3598 10.1C17.3698 11.68 17.8798 13.47 17.8298 15.28C17.8098 15.96 17.7298 16.6 17.5898 17.15ZM11.0198 10.59L5.85984 5.43C6.43984 5.29 7.07984 5.21 7.72984 5.19C9.99984 5.13 12.1998 5.94 14.0698 7.53L11.0198 10.59ZM6.44984 19.15L5.96984 17.68C5.86984 17.39 5.62984 17.15 5.32984 17.05L3.86984 16.56L5.42984 15H8.01984V17.59L6.44984 19.15ZM6.71984 21.71L9.71984 18.71C9.90984 18.52 10.0198 18.26 10.0198 18V14.41L11.8998 12.53L11.9898 12.61C11.4798 13.29 11.5498 13.95 12.1098 14.51L19.3098 21.71L20.7198 20.29L19.1898 18.76C19.2498 18.62 19.2998 18.45 19.3598 18.26C19.6398 17.35 19.7998 16.34 19.8298 15.34C19.9098 12.53 18.8898 9.8 16.9098 7.52L20.0198 4.41V7H22.0198V2C22.0198 1.45 21.5698 1 21.0198 1H16.0198V3H18.5998L15.4898 6.11C13.2098 4.12 10.4798 3.1 7.67984 3.19C6.68984 3.21 5.66984 3.37 4.74984 3.66C4.56984 3.72 4.39984 3.77 4.24984 3.82L2.71984 2.29L1.30984 3.71L9.59984 12L8.59984 13H5.01984C4.74984 13 4.49984 13.1 4.30984 13.29L1.30984 16.29C0.759836 16.84 0.959836 17.7 1.69984 17.95L4.22984 18.79L5.06984 21.32C5.30984 22.03 6.18984 22.24 6.71984 21.71Z" fill="#FEE600"/>
</svg>
