<svg width="24" height="24" viewBox="0 0 24 24" fill="none" xmlns="http://www.w3.org/2000/svg">
<path d="M9.05 5.55L9 5.44C9.81 5.14 10 4.85 10 4C10 3.45 10.45 3 11 3H13C13.55 3 14 3.45 14 4C14 4.85 14.19 5.14 15 5.44L14.95 5.55C13.7 5.1 12.9 5 12 5C11.1 5 10.3 5.1 9.05 5.55ZM10.44 13C10.01 13 9.63 12.72 9.49 12.32L8.18 8.37C9.22 7.52 10.55 7 12 7C13.45 7 14.79 7.52 15.82 8.37L14.51 12.32C14.37 12.72 13.99 13 13.56 13H13V11H11V13H10.44ZM6 20V13C6 11.99 6.25 11.05 6.69 10.21L7.6 12.95C8.01 14.17 9.15 15 10.44 15H11V17H13V15H13.56C14.85 15 16 14.17 16.41 12.95L17.32 10.21C17.75 11.05 18 11.99 18 13V20H6ZM5 22H19C19.55 22 20 21.55 20 21V13C20 10.04 18.39 7.45 16 6.07V4C16 2.34 14.66 1 13 1H11C9.35 1 8 2.34 8 4V6.07C5.61 7.45 4 10.04 4 13V21C4 21.55 4.45 22 5 22Z" fill="#FEE600"/>
</svg>
