<svg width="24" height="24" viewBox="0 0 24 24" fill="none" xmlns="http://www.w3.org/2000/svg">
<path d="M4 15C4 16.1 4.9 17 6 17H20V15H15V1H13.82C9.83 2.2 6.99 5.65 6.99 10.12C6.99 11.38 7.24 12.58 7.55 13.44C7.91 14.41 8.49 14.88 9.69 14.88V15H4ZM8.99 10.13C8.99 7.22 10.46 4.83 13 3.48V15H10.74C9.61 13.69 8.99 12.02 8.99 10.13Z" fill="#FEE600"/>
<path d="M22.45 18.75L21.79 18.42C21.23 18.14 20.61 18 20 18C19.39 18 18.78 18.13 18.21 18.42L16.9 19.08C16.62 19.22 16.31 19.29 16 19.29C15.7 19.29 15.39 19.22 15.11 19.08L13.79 18.42C13.23 18.14 12.61 18 12 18C11.39 18 10.78 18.13 10.21 18.42L8.9 19.08C8.62 19.22 8.31 19.29 8 19.29C7.7 19.29 7.39 19.22 7.11 19.08L5.79 18.42C5.23 18.14 4.61 18 4 18C3.39 18 2.78 18.14 2.21 18.42L1.55 18.75C1.2 18.93 1 19.28 1 19.64C1 19.79 1.04 19.95 1.11 20.09C1.28 20.44 1.64 20.65 2 20.65C2.15 20.65 2.31 20.61 2.45 20.54L3.11 20.21C3.39 20.07 3.7 20 4 20C4.31 20 4.62 20.07 4.9 20.21L6.21 20.87C6.78 21.16 7.39 21.29 8 21.29C8.61 21.29 9.23 21.15 9.79 20.87L11.11 20.21C11.39 20.07 11.7 20 12 20C12.31 20 12.62 20.07 12.9 20.21L14.21 20.87C14.78 21.16 15.39 21.29 16 21.29C16.61 21.29 17.23 21.15 17.79 20.87L19.11 20.21C19.39 20.07 19.7 20 20 20C20.31 20 20.62 20.07 20.9 20.21L21.55 20.54C21.7 20.61 21.85 20.65 22 20.65C22.37 20.65 22.72 20.44 22.9 20.09C22.97 19.95 23 19.8 23 19.65C23 19.28 22.8 18.93 22.45 18.75Z" fill="#FEE600"/>
</svg>
