<svg width="24" height="24" viewBox="0 0 24 24" fill="none" xmlns="http://www.w3.org/2000/svg">
<path d="M22 5H19L18.99 4C18.99 3.45 18.55 3 18 3H6C5.45 3 5 3.45 5 4V5H2C1.45 5 1 5.45 1 6V6.1C1 8.22 1.85 10.25 3.35 11.76L5.91 14.32C6.22 15.1 6.6 15.85 7.04 16.54C8.01 18.06 9.39 19.45 11 19.87V21H7V23H17V21H13V19.87C14.61 19.45 15.99 18.06 16.97 16.54C17.41 15.86 17.79 15.11 18.1 14.33L20.66 11.76C22.16 10.25 23 8.22 23 6.1V6C23 5.45 22.55 5 22 5ZM5.22 12.59C4.84 10.97 4.67 10.37 4.09 9.54C3.56 8.78 3.21 7.91 3.07 7H5V10C5 10.82 5.12 11.69 5.34 12.56L5.22 12.59ZM17 10C17 11.78 16.32 13.84 15.29 15.46C14.21 17.14 12.97 18 12 18C11.03 18 9.8 17.14 8.72 15.46C7.68 13.84 7 11.78 7 10V5H17V10ZM19.92 9.54C19.34 10.37 19.17 10.97 18.79 12.59L18.67 12.56C18.88 11.69 19 10.82 19 10V7H20.94C20.8 7.91 20.45 8.78 19.92 9.54Z" fill="#FEE600"/>
<path d="M10.2 10.73C10.36 10.86 10.43 11.08 10.37 11.28L9.99 12.51C9.85 12.97 10.39 13.35 10.77 13.05L11.7 12.34C11.88 12.21 12.13 12.21 12.31 12.34L13.23 13.05C13.62 13.35 14.16 12.97 14.01 12.51L13.63 11.28C13.57 11.08 13.64 10.86 13.81 10.73L14.83 9.95C15.21 9.66 15 9.06 14.52 9.06H13.31C13.1 9.06 12.9 8.91 12.84 8.7L12.48 7.55C12.33 7.08 11.67 7.08 11.52 7.55L11.17 8.7C11.1 8.91 10.91 9.06 10.69 9.06H9.48C9 9.06 8.8 9.66 9.18 9.95L10.2 10.73Z" fill="#FEE600"/>
</svg>
