<svg width="24" height="24" viewBox="0 0 24 24" fill="none" xmlns="http://www.w3.org/2000/svg">
<path d="M15.3 8.62004C15.75 8.09004 16 7.60004 16 6.90004V5.41004L17.56 3.85004L18.05 5.32004C18.16 5.66004 18.33 5.83004 18.68 5.95004L20.15 6.44004L18.58 8.00004H17.12C16.41 8.00004 15.92 8.25004 15.38 8.70004L15.3 8.62004ZM10.5 12C10.5 12.83 11.17 13.5 12 13.5C12.83 13.5 13.5 12.83 13.5 12C13.5 11.97 13.5 11.94 13.49 11.92L15.41 10H18.9C19.3 10 19.48 9.93004 19.75 9.66004L22.6 6.81004C23.27 6.14004 23.04 5.29004 22.31 5.05004L19.79 4.21004L18.95 1.68004C18.71 0.970041 17.85 0.730041 17.19 1.39004L14.34 4.24004C14.1 4.48004 14 4.71004 14 5.10004V8.59004L12.08 10.5H12C11.17 10.5 10.5 11.17 10.5 12ZM6 12C6 15.32 8.69 18 12 18C15.32 18 18 15.32 18 12H16C16 14.21 14.21 16 12 16C9.79 16 8 14.21 8 12C8 9.79004 9.79 8.00004 12 8.00004V6.00004C8.69 6.00004 6 8.68004 6 12ZM2 12C2 17.52 6.48 22 12 22C17.52 22 22 17.52 22 12H20C20 16.42 16.42 20 12 20C7.58 20 4 16.42 4 12C4 7.58004 7.58 4.00004 12 4.00004V2.00004C6.48 2.00004 2 6.48004 2 12Z" fill="#FEE600"/>
</svg>
