<svg width="24" height="24" viewBox="0 0 24 24" fill="none" xmlns="http://www.w3.org/2000/svg">
<path d="M19 13V15H17V17H19V18C19 19.65 17.65 21 16 21C14.35 21 13 19.65 13 18V15.87C14.07 15.59 14.98 14.89 15.64 13.98C16.5 12.79 17 11.21 17 9.5C17 7.79 16.5 6.21 15.64 5.02C15.04 4.2 14.25 3.55 13.32 3.22C13.43 3.01 13.5 2.76 13.5 2.5C13.5 1.67 12.83 1 12 1C11.17 1 10.5 1.67 10.5 2.5C10.5 2.76 10.57 3.01 10.69 3.22C9.76 3.55 8.96 4.2 8.36 5.02C7.5 6.21 7 7.79 7 9.5C7 11.21 7.5 12.79 8.36 13.98C9.03 14.89 9.93 15.59 11 15.87V18C11 19.65 9.65 21 8 21C6.35 21 5 19.65 5 18V17H7V15H5V13H3V18C3 20.76 5.25 23 8 23C9.57 23 11.08 22.26 12 21C12.9 22.22 14.41 23 16 23C18.77 23 21 20.76 21 18V13H19ZM9.98 6.2C10.57 5.39 11.3 5 12 5C12.71 5 13.43 5.39 14.02 6.2C14.19 6.44 14.35 6.7 14.48 7C14.19 7.64 13.81 8.14 13.38 8.48C12.93 8.84 12.45 9 12 9C11.55 9 11.07 8.84 10.62 8.48C10.2 8.14 9.81 7.64 9.52 7C9.65 6.7 9.81 6.44 9.98 6.2ZM12 14C10.34 14 9 11.98 9 9.49C9 9.22 8.99 8.96 9 8.7H9.12C9.25 10.26 10.24 11 12 11C13.74 11 14.71 10.3 14.85 8.7H14.96C14.98 8.96 15 9.22 15 9.49C15 11.98 13.66 14 12 14Z" fill="#FEE600"/>
</svg>
