<svg width="24" height="24" viewBox="0 0 24 24" fill="none" xmlns="http://www.w3.org/2000/svg">
<path d="M4.4 8H7V6H1V8H3.32L4.61 11.2C3.81 11.44 3.06 11.87 2.47 12.46C1.53 13.4 1 14.67 1 16C1 17.33 1.53 18.6 2.47 19.54C3.4 20.47 4.68 21 6 21H17.5C18.35 21 19.17 20.69 19.81 20.13C20.45 19.57 20.86 18.8 20.97 17.96C21.02 17.57 21.01 17.19 20.93 16.81L18.53 4.5C18.35 3.59 18.01 3.25 17.01 3.12V3H21V1H13V3H16.18L18.41 14.12L18.32 14.09C18.25 14.07 18.14 14.04 18 13.99C17.71 13.91 17.31 13.79 16.81 13.64C15.83 13.35 14.49 12.97 13.09 12.58C11.69 12.19 10.22 11.8 8.97 11.51C8.13 11.31 7.33 11.14 6.7 11.06L6.08 9.5C5.72 8.6 5.42 8.25 4.4 8.12V8ZM3.88 13.88C4.44 13.32 5.25 13 6 13C6.36 13 7.25 13.16 8.52 13.46C9.73 13.74 11.17 14.12 12.56 14.51C13.95 14.89 15.27 15.27 16.25 15.56C16.74 15.71 17.14 15.83 17.42 15.91C17.56 15.95 17.67 15.99 17.75 16.01L17.86 16.04L17.87 16.05H17.89C18.25 16.05 18.55 16.36 18.75 16.67C18.95 16.97 19.04 17.33 18.99 17.7C18.94 18.06 18.76 18.39 18.49 18.63C18.22 18.87 17.87 19 17.5 19H6C5.21 19 4.44 18.68 3.88 18.12C3.32 17.56 3 16.8 3 16C3 15.2 3.32 14.44 3.88 13.88ZM6 17.34C6.74 17.34 7.34 16.74 7.34 16C7.34 15.26 6.74 14.66 6 14.66C5.26 14.66 4.66 15.26 4.66 16C4.66 16.74 5.26 17.34 6 17.34Z" fill="#FEE600"/>
</svg>
