<svg width="24" height="24" viewBox="0 0 24 24" fill="none" xmlns="http://www.w3.org/2000/svg">
<path d="M11 12H9V18H11V12Z" fill="#FEE600"/>
<path d="M17 8H15V3H16V1H8V3H9V6C9 6.97 9.49 7.61 10.33 7.88V8H7C5.9 8 5 8.9 5 10V20C5 21.1 5.9 22 7 22H7.09C7.29 22.58 7.85 23 8.5 23C9.16 23 9.71 22.58 9.92 22H14.09C14.29 22.58 14.85 23 15.5 23C16.15 23 16.71 22.58 16.92 22H17C18.11 22 19 21.1 19 20V10C19 8.9 18.11 8 17 8ZM11 3H13V6C13 6.97 13.49 7.61 14.33 7.88V8H11V3ZM17 20H7V10H17V20Z" fill="#FEE600"/>
<path d="M15 12H13V18H15V12Z" fill="#FEE600"/>
</svg>
