<svg width="24" height="24" viewBox="0 0 24 24" fill="none" xmlns="http://www.w3.org/2000/svg">
<path d="M12.66 5.74V5.66C13.37 5.56 13.83 5.3 14.32 4.81L16.71 2.42L15.29 1L12 4.3L8.71 1L7.29 2.42L9.68 4.81C10.17 5.3 10.63 5.57 11.34 5.66V5.74C7.23 6.08 4 9.51 4 13.71C4 18.13 7.58 21.71 12 21.71C16.42 21.71 20 18.13 20 13.71C20 9.51 16.77 6.08 12.66 5.74ZM12 19.71C8.69 19.71 6 17.02 6 13.71C6 10.4 8.69 7.71 12 7.71C15.32 7.71 18 10.4 18 13.71C18 17.02 15.32 19.71 12 19.71Z" fill="#FEE600"/>
<path d="M13 10.71C13 10.1 12.59 9.71 12 9.71H10V11.71H11V15.71H10V17.71H14V15.71H13V10.71Z" fill="#FEE600"/>
</svg>
