<svg width="24" height="24" viewBox="0 0 24 24" fill="none" xmlns="http://www.w3.org/2000/svg">
<path d="M19.68 5.01C17.96 3.29 15.57 2.61 13.18 2.93C13.02 2.66 12.83 2.41 12.6 2.18C11.04 0.610002 8.51 0.610002 6.95 2.18C5.59 3.54 5.42 5.64 6.43 7.19C4.32 10.3 4.24 14.24 6.3 16.97L2 21.27L3.41 22.68L7.71 18.38C10.89 20.77 15.72 20.27 18.97 17.03C22.48 13.51 22.79 8.12 19.68 5.01ZM8.36 3.59C9.14 2.81 10.41 2.81 11.19 3.59C11.97 4.37 11.97 5.64 11.19 6.42C10.41 7.2 9.14 7.2 8.36 6.42C7.58 5.64 7.58 4.37 8.36 3.59ZM17.55 15.61C14.82 18.35 10.7 18.66 8.36 16.32C6.75 14.7 6.39 12.25 7.22 10C7.54 9.11 7.63 8.68 6.86 7.92L6.95 7.83C8.51 9.4 11.04 9.4 12.6 7.83C13.74 6.7 14.04 5.05 13.52 3.64L13.65 3.61C14.07 4.57 14.42 4.81 15.2 4.91C16.35 5.08 17.42 5.58 18.26 6.42C20.6 8.76 20.29 12.88 17.55 15.61Z" fill="#FEE600"/>
</svg>
