<svg width="24" height="24" viewBox="0 0 24 24" fill="none" xmlns="http://www.w3.org/2000/svg">
<path d="M15.15 1L13.74 2.41C14.55 3.22 14.55 4.42 13.73 5.23L8.87 10.09L8.78 10.01C9.08 9.39 9 9 8.42 8.42C7.47 7.47 5.87 7.43 4.88 8.42C3.93 9.37 3.93 11 4.88 11.96L5.23 12.31L6.64 10.9L6.3 10.54C6.11 10.35 6.11 10.02 6.3 9.83C6.5 9.63 6.82 9.64 7.01 9.83L8.07 10.89L1 17.96L2.41 19.37L15.15 6.66C16.75 5.06 16.74 2.59 15.15 1Z" fill="#FEE600"/>
<path d="M21.59 5.24L20.18 6.65C20.99 7.46 20.99 8.66 20.17 9.47L15.31 14.33L15.22 14.24C15.52 13.62 15.44 13.23 14.86 12.65C13.91 11.7 12.31 11.66 11.32 12.65C10.37 13.6 10.37 15.23 11.32 16.19L11.67 16.54L13.08 15.13L12.73 14.78C12.54 14.59 12.54 14.26 12.73 14.07C12.93 13.87 13.25 13.88 13.44 14.07L14.5 15.13L7.43 22.2L8.84 23.61L21.59 10.9C23.19 9.3 23.18 6.83 21.59 5.24Z" fill="#FEE600"/>
</svg>
