<svg width="24" height="24" viewBox="0 0 24 24" fill="none" xmlns="http://www.w3.org/2000/svg">
<path d="M16.79 19.5H7.21V19.38C8.9 19.32 9.32 19.16 9.99 18.45C10.28 18.15 10.55 17.83 10.79 17.51C11.29 16.85 11.69 16.14 12 15.45C12.31 16.14 12.71 16.85 13.21 17.51C13.45 17.83 13.72 18.15 14.01 18.45C14.68 19.16 15.1 19.32 16.79 19.38V19.5ZM4 19.39V16.8L12 4.8L20 16.8V19.39C17.52 18.99 15.89 17.75 14.82 16.31C13.59 14.67 13.09 12.76 13 11.5H11C10.91 12.76 10.41 14.67 9.19 16.31C8.12 17.75 6.48 18.99 4 19.39ZM3 21.5H21C21.55 21.5 22 21.05 22 20.5V16.5C22 16.3 21.94 16.11 21.83 15.95L12.83 2.45C12.65 2.17 12.34 2 12 2C11.67 2 11.36 2.17 11.17 2.45L2.17 15.95C2.06 16.11 2 16.3 2 16.5V20.5C2 21.05 2.45 21.5 3 21.5Z" fill="#FEE600"/>
</svg>
