<svg width="24" height="24" viewBox="0 0 24 24" fill="none" xmlns="http://www.w3.org/2000/svg">
<path d="M6.12 12H8.17C8.65 10.24 9.91 8.99 11.14 8.99V6.99C8.81 6.99 6.69 9.11 6.12 12ZM1.96 12H4.05C5.85 6.76 11.02 3 16.2 3C17.3 3 18 3.6 18 4.52C18 5.32 17.35 6 16.51 6C16.1 6 15.72 5.86 15.4 5.52C15.21 5.31 14.95 5.2 14.68 5.2C14.48 5.2 14.28 5.26 14.11 5.38C13.33 5.9 13 6.93 13 8C13 10.21 14.79 12 17 12H22V10H17C15.9 10 15 9.11 15 8C15 7.38 15.27 6.82 15.79 6.47L15.87 6.52C15.79 6.7 15.76 6.87 15.76 7.01C15.76 7.66 16.14 8 16.76 8C18.47 8 20 6.34 20 4.52C20 2.57 18.49 1 16.2 1C9.95 1 3.81 5.61 1.96 12ZM1 16C1 15.64 1.2 15.29 1.55 15.11L2.21 14.78C2.78 14.5 3.39 14.36 4 14.36C4.61 14.36 5.23 14.5 5.79 14.78L7.11 15.44C7.39 15.58 7.7 15.65 8 15.65C8.31 15.65 8.62 15.58 8.9 15.44L10.21 14.78C10.78 14.49 11.39 14.36 12 14.36C12.61 14.36 13.23 14.5 13.79 14.78L15.11 15.44C15.39 15.58 15.7 15.65 16 15.65C16.31 15.65 16.62 15.58 16.9 15.44L18.21 14.78C18.78 14.49 19.39 14.36 20 14.36C20.61 14.36 21.23 14.5 21.79 14.78L22.45 15.11C22.8 15.29 23 15.64 23 16.01C23 16.16 22.97 16.31 22.9 16.45C22.72 16.8 22.37 17.01 22 17.01C21.85 17.01 21.7 16.97 21.55 16.9L20.9 16.57C20.62 16.43 20.31 16.36 20 16.36C19.7 16.36 19.39 16.43 19.11 16.57L17.79 17.23C17.23 17.51 16.61 17.65 16 17.65C15.39 17.65 14.78 17.52 14.21 17.23L12.9 16.57C12.62 16.43 12.31 16.36 12 16.36C11.7 16.36 11.39 16.43 11.11 16.57L9.79 17.23C9.23 17.51 8.61 17.65 8 17.65C7.39 17.65 6.78 17.52 6.21 17.23L4.9 16.57C4.62 16.43 4.31 16.36 4 16.36C3.7 16.36 3.39 16.43 3.11 16.57L2.45 16.9C2.31 16.97 2.15 17.01 2 17.01C1.64 17.01 1.28 16.8 1.11 16.45C1.04 16.31 1 16.15 1 16ZM1 20C1 19.64 1.2 19.29 1.55 19.11L2.21 18.78C2.78 18.5 3.39 18.36 4 18.36C4.61 18.36 5.23 18.5 5.79 18.78L7.11 19.44C7.39 19.58 7.7 19.65 8 19.65C8.31 19.65 8.62 19.58 8.9 19.44L10.21 18.78C10.78 18.49 11.39 18.36 12 18.36C12.61 18.36 13.23 18.5 13.79 18.78L15.11 19.44C15.39 19.58 15.7 19.65 16 19.65C16.31 19.65 16.62 19.58 16.9 19.44L18.21 18.78C18.78 18.49 19.39 18.36 20 18.36C20.61 18.36 21.23 18.5 21.79 18.78L22.45 19.11C22.8 19.29 23 19.64 23 20.01C23 20.16 22.97 20.31 22.9 20.45C22.72 20.8 22.37 21.01 22 21.01C21.85 21.01 21.7 20.97 21.55 20.9L20.9 20.57C20.62 20.43 20.31 20.36 20 20.36C19.7 20.36 19.39 20.43 19.11 20.57L17.79 21.23C17.23 21.51 16.61 21.65 16 21.65C15.39 21.65 14.78 21.52 14.21 21.23L12.9 20.57C12.62 20.43 12.31 20.36 12 20.36C11.7 20.36 11.39 20.43 11.11 20.57L9.79 21.23C9.23 21.51 8.61 21.65 8 21.65C7.39 21.65 6.78 21.52 6.21 21.23L4.9 20.57C4.62 20.43 4.31 20.36 4 20.36C3.7 20.36 3.39 20.43 3.11 20.57L2.45 20.9C2.31 20.97 2.15 21.01 2 21.01C1.64 21.01 1.28 20.8 1.11 20.45C1.04 20.31 1 20.15 1 20Z" fill="#FEE600"/>
</svg>
