<svg width="24" height="24" viewBox="0 0 24 24" fill="none" xmlns="http://www.w3.org/2000/svg">
<path d="M12 12H10V14H12V12Z" fill="#2B2D33"/>
<path d="M12 16H10V18H12V16Z" fill="#2B2D33"/>
<path d="M4 6H7V7.5C7 7.77 6.79 8 6.5 8H6V10H16V8H15.5C15.21 8 15 7.77 15 7.5V6H18V10.02H20V5C20 4.45 19.55 4 19 4H15V3C15 2.44 14.55 2 14 2H8C7.44 2 7 2.45 7 3V4H3C2.44 4 2 4.45 2 5V21C2 21.55 2.44 22 3 22H13.97V20H4V6ZM9 6.11V4H13V6.11C13 7.18 13.53 7.75 14.41 7.88V8H7.59V7.88C8.47 7.75 9 7.18 9 6.11Z" fill="#2B2D33"/>
<path d="M8 16H6V18H8V16Z" fill="#2B2D33"/>
<path d="M8 12H6V14H8V12Z" fill="#2B2D33"/>
<path d="M23 18V16H17.04V15.86C18.5 15.56 19 14.59 19 13H17.01C17 14.33 16.32 15.45 14.72 16.03C14.21 16.21 14 16.55 14 17C14 17.45 14.21 17.79 14.72 17.97C16.32 18.55 17 19.67 17.01 21H19C19 19.41 18.5 18.44 17.04 18.14V18H23Z" fill="#2B2D33"/>
</svg>
