<svg width="24" height="24" viewBox="0 0 24 24" fill="none" xmlns="http://www.w3.org/2000/svg">
<path d="M20 3H16V2C16 1.44 15.55 1 15 1H9C8.44 1 8 1.45 8 2V3H4C3.44 3 3 3.45 3 4V20C3 20.55 3.44 21 4 21H7V19H5V5H8V6.5C8 6.77 7.79 7 7.5 7H7V9H17V7H16.5C16.21 7 16 6.77 16 6.5V5H19V19H13V21H20C20.55 21 21 20.55 21 20V4C21 3.45 20.55 3 20 3ZM15.41 7H8.59V6.88C9.47 6.75 10 6.18 10 5.11V3H14V5.11C14 6.18 14.53 6.75 15.41 6.88V7Z" fill="#2B2D33"/>
<path d="M17 15H15V17H17V15Z" fill="#2B2D33"/>
<path d="M17 11H15V13H17V11Z" fill="#2B2D33"/>
<path d="M14 14.01C12.67 14 11.55 13.32 10.97 11.72C10.79 11.21 10.45 11 10 11C9.55 11 9.21 11.21 9.03 11.72C8.45 13.32 7.33 14 6 14.01V16C7.59 16 8.56 15.5 8.86 14.04H9V23H11V14.04H11.14C11.44 15.5 12.41 16 14 16V14.01Z" fill="#2B2D33"/>
</svg>
