<svg width="24" height="24" viewBox="0 0 24 24" fill="none" xmlns="http://www.w3.org/2000/svg">
<path d="M4 17C5.07 17 6 16.07 6 15C6 13.93 5.07 13 4 13C2.94 13 2 13.93 2 15C2 16.07 2.94 17 4 17ZM10 23C11.07 23 12 22.07 12 21C12 19.93 11.07 19 10 19C8.94 19 8 19.93 8 21C8 22.07 8.94 23 10 23ZM3.4 23.01L12 14.42L10.6 13.02L2 21.61L3.4 23.01ZM14 19V21H21C21.55 21 22 20.55 22 20V7C22 6.45 21.55 6 21 6H18.2C17.62 6 17.21 5.73 16.8 5.1L15.44 3C14.57 1.66 13.38 1 12 1C10.62 1 9.43 1.66 8.56 3L7.2 5.1C6.8 5.73 6.38 6 5.8 6H3C2.4 6 2 6.4 2 7V11H4V8H20V19H14ZM8.2 6V5.88C8.92 5.72 9.42 5.34 9.84 4.7L10.28 4.03C10.72 3.35 11.16 3 12 3C12.84 3 13.28 3.35 13.72 4.03L14.16 4.7C14.58 5.34 15.08 5.72 15.8 5.88V6H8.2Z" fill="#2B2D33"/>
</svg>
