<svg width="24" height="24" viewBox="0 0 24 24" fill="none" xmlns="http://www.w3.org/2000/svg">
<path d="M4 16C5.10457 16 6 15.1046 6 14C6 12.8954 5.10457 12 4 12C2.89543 12 2 12.8954 2 14C2 15.1046 2.89543 16 4 16Z" fill="#2B2D33"/>
<path d="M10 22C11.1046 22 12 21.1046 12 20C12 18.8954 11.1046 18 10 18C8.89543 18 8 18.8954 8 20C8 21.1046 8.89543 22 10 22Z" fill="#2B2D33"/>
<path d="M10.6055 12.0211L2.0023 20.6146L3.40157 22.0154L12.0048 13.4219L10.6055 12.0211Z" fill="#2B2D33"/>
<path d="M22.02 8C22.02 7.56 21.82 7.27 21.41 7.05C18.31 5.39 16.02 3.98 16.02 1H14.02C14.02 4.1 15.76 6.21 18.45 6.89V7H2.02V9H18.45V9.11C15.76 9.79 14.02 11.9 14.02 15H16.02C16.02 12.02 18.31 10.62 21.41 8.95C21.82 8.73 22.02 8.44 22.02 8Z" fill="#2B2D33"/>
</svg>
