<svg width="24" height="24" viewBox="0 0 24 24" fill="none" xmlns="http://www.w3.org/2000/svg">
<g clip-path="url(#clip0_342_5530)">
<path d="M4 16C5.07 16 6 15.07 6 14C6 12.93 5.07 12 4 12C2.94 12 2 12.93 2 14C2 15.07 2.94 16 4 16ZM10 22C11.07 22 12 21.07 12 20C12 18.93 11.07 18 10 18C8.94 18 8 18.93 8 20C8 21.07 8.94 22 10 22ZM3.4 22.01L12 13.42L10.6 12.02L2 20.61L3.4 22.01ZM16.88 14H14V16H21C21.56 16 22 15.59 22 15V3C22 2.45 21.56 2 21 2H3C2.45 2 2 2.45 2 3V10H4V7.12C4 6.49 3.58 6.12 3 6.12V6H4.5C5.32 6 6 5.33 6 4.5V3H6.12C6.12 3.58 6.49 4 7.12 4H16.88C17.51 4 17.88 3.58 17.88 3H18V4.5C18 5.33 18.68 6 19.5 6H21V6.12C20.42 6.12 20 6.49 20 7.12V10.88C20 11.51 20.42 11.88 21 11.88V12H19.5C18.68 12 18 12.67 18 13.5V15H17.88C17.88 14.42 17.51 14 16.88 14Z" fill="#2B2D33"/>
</g>
<defs>
<clipPath id="clip0_342_5530">
<rect width="20" height="20.01" fill="white" transform="translate(2 2)"/>
</clipPath>
</defs>
</svg>
