<svg width="24" height="24" viewBox="0 0 24 24" fill="none" xmlns="http://www.w3.org/2000/svg">
<path d="M9.49 11.02C10.3184 11.02 10.99 10.3484 10.99 9.52C10.99 8.69157 10.3184 8.02 9.49 8.02C8.66157 8.02 7.99 8.69157 7.99 9.52C7.99 10.3484 8.66157 11.02 9.49 11.02Z" fill="#2B2D33"/>
<path d="M14.49 16.01C15.3184 16.01 15.99 15.3384 15.99 14.51C15.99 13.6816 15.3184 13.01 14.49 13.01C13.6616 13.01 12.99 13.6816 12.99 14.51C12.99 15.3384 13.6616 16.01 14.49 16.01Z" fill="#2B2D33"/>
<path d="M14.5973 8.01787L7.99541 14.6104L9.39447 16.0115L15.9964 9.41892L14.5973 8.01787Z" fill="#2B2D33"/>
<path d="M20.99 6H4.03V6.14C5.49 6.44 5.99 7.51 5.99 9H3.99C3.99 7.67 3.32 6.54 1.72 5.97C1.21 5.79 1 5.45 1 5C1 4.55 1.21 4.21 1.72 4.03C3.32 3.46 3.99 2.33 3.99 1H5.99C5.99 2.49 5.49 3.56 4.03 3.86V4H20.99V6Z" fill="#2B2D33"/>
<path d="M2.99 18H19.95V17.86C18.49 17.56 17.99 16.49 17.99 15H19.99C19.99 16.33 20.66 17.46 22.26 18.03C22.77 18.21 22.98 18.55 22.98 19C22.98 19.45 22.77 19.79 22.26 19.97C20.66 20.54 19.99 21.67 19.99 23H17.99C17.99 21.51 18.49 20.44 19.95 20.14V20H2.99V18Z" fill="#2B2D33"/>
</svg>
