<svg width="24" height="24" viewBox="0 0 24 24" fill="none" xmlns="http://www.w3.org/2000/svg">
<path d="M3.3389 6.99848C4.21671 5.48132 5.48132 4.21671 6.99848 3.3389L8.00009 5.07001C6.78571 5.77264 5.77264 6.78571 5.07001 8.00009L3.3389 6.99848Z" fill="#2B2D33"/>
<path d="M2.3385 9.41154C2.11752 10.2382 2 11.1062 2 12C2 12.8938 2.11752 13.7618 2.3385 14.5885L4.27066 14.072C4.09431 13.4122 4 12.7179 4 12C4 11.2821 4.09431 10.5878 4.27067 9.92802L2.3385 9.41154Z" fill="#2B2D33"/>
<path d="M3.3389 17.0015C4.21671 18.5187 5.48132 19.7833 6.99848 20.6611L8.00009 18.93C6.78571 18.2274 5.77264 17.2143 5.07001 15.9999L3.3389 17.0015Z" fill="#2B2D33"/>
<path d="M20.6611 17.0015C19.7833 18.5187 18.5187 19.7833 17.0015 20.6611L15.9999 18.93C17.2143 18.2274 18.2274 17.2143 18.93 15.9999L20.6611 17.0015Z" fill="#2B2D33"/>
<path d="M9.41154 21.6615C10.2382 21.8825 11.1062 22 12 22C12.8938 22 13.7618 21.8825 14.5885 21.6615L14.072 19.7293C13.4122 19.9057 12.7179 20 12 20C11.2821 20 10.5878 19.9057 9.92802 19.7293L9.41154 21.6615Z" fill="#2B2D33"/>
<path d="M10.5 9C10.5 9.82843 9.82843 10.5 9 10.5C8.17157 10.5 7.5 9.82843 7.5 9C7.5 8.17157 8.17157 7.5 9 7.5C9.82843 7.5 10.5 8.17157 10.5 9Z" fill="#2B2D33"/>
<path d="M15 16.5C15.8284 16.5 16.5 15.8284 16.5 15C16.5 14.1716 15.8284 13.5 15 13.5C14.1716 13.5 13.5 14.1716 13.5 15C13.5 15.8284 14.1716 16.5 15 16.5Z" fill="#2B2D33"/>
<path d="M9.20711 16.2071L16.2071 9.20712L14.7929 7.79291L7.79289 14.7929L9.20711 16.2071Z" fill="#2B2D33"/>
<path d="M9.41154 2.3385C10.2382 2.11752 11.1062 2 12 2C12.8938 2 13.7618 2.11752 14.5885 2.3385C15.4384 2.56624 16.2485 2.90576 17.0008 3.34018L17.0015 3.3389C17.6727 3.72723 18.2944 4.19125 18.8551 4.71935C18.9983 4.85415 19.1376 4.99332 19.273 5.13674C19.8043 5.69956 20.2709 6.32406 20.6611 6.99848L20.6598 6.99921C21.098 7.75792 21.4336 8.56937 21.6594 9.41212L21.6615 9.41154C21.8768 10.217 21.9939 11.0616 21.9998 11.9311L22 12C22 12.8938 21.8825 13.7618 21.6615 14.5885L19.7293 14.072C19.9057 13.4122 20 12.7179 20 12L19.9998 11.9433C19.9875 10.2022 19.4074 8.51204 18.3468 7.1299C18.1783 6.91023 17.9991 6.70027 17.8101 6.50062C17.7065 6.39125 17.5999 6.2848 17.4904 6.18141C16.531 5.27615 15.3574 4.6174 14.0706 4.27258L14.0711 4.27044C13.4116 4.09423 12.7176 4 12 4C11.2821 4 10.5878 4.09431 9.92802 4.27066L9.41154 2.3385Z" fill="#2B2D33"/>
</svg>
