<svg width="24" height="24" viewBox="0 0 24 24" fill="none" xmlns="http://www.w3.org/2000/svg">
<path d="M17 12V10H19V12H17ZM9.75 11.01C9.75 11.7 10.31 12.26 11 12.26C11.69 12.26 12.25 11.7 12.25 11.01C12.25 10.32 11.69 9.76 11 9.76C10.31 9.76 9.75 10.32 9.75 11.01ZM9 14V8H15V14H9ZM5 18V4H19V6C19 7 19.6 7.68 20.5 7.88V8H17V7C17 6.45 16.55 6 16 6H8C7.45 6 7 6.45 7 7V15C7 15.55 7.45 16 8 16H16C16.55 16 17 15.55 17 15V14H20.5V14.12C19.6 14.32 19 15 19 16V18H5ZM3 19C3 19.55 3.45 20 4 20H5V22H7V20H17V22H19V20H20C20.55 20 21 19.55 21 19V3C21 2.45 20.55 2 20 2H4C3.45 2 3 2.45 3 3V19Z" fill="#2B2D33"/>
</svg>
