<svg width="24" height="24" viewBox="0 0 24 24" fill="none" xmlns="http://www.w3.org/2000/svg">
<path d="M19 3V1H17V1.52C17 2.45 17.53 2.88 18.3 2.88V3H17C15.34 3 14 4.34 14 6C14 7.66 15.34 9 17 9H19C19.55 9 20 9.45 20 10C20 10.55 19.55 11 19 11H17C16.45 11 16 10.55 16 10H14C14 11.66 15.34 13 17 13V15H19V14.48C19 13.55 18.47 13.12 17.7 13.12V13H19C20.66 13 22 11.66 22 10C22 8.34 20.66 7 19 7H17C16.45 7 16 6.55 16 6C16 5.45 16.45 5 17 5H19C19.55 5 20 5.45 20 6H22C22 4.34 20.66 3 19 3ZM5.27 10.93C5.73 9.23 6.73 7.73 8.13 6.65C9.53 5.57 11.24 5 13 5V3C10.8 3 8.66 3.73 6.91 5.07C5.16 6.41 3.91 8.29 3.34 10.41L5.27 10.93ZM13 23C15.2 23 17.34 22.27 19.09 20.93C20.83 19.59 22.09 17.71 22.66 15.59L20.73 15.07C20.27 16.77 19.27 18.27 17.87 19.35C16.47 20.43 14.76 21 13 21V23ZM1 18H4.76L5.03 16.57H5.15C5.2 17.55 5.69 18 6.6 18H8L9 16H2L1 18ZM12.38 19.01H10.12C9.67 19.63 8.91 20.01 8 20.01C6.34 20.01 5 18.72 5 17.01C5 16.86 5.01 16.71 5.03 16.57C5.24 15.08 6.49 14.01 8 14.01C8.93 14.01 9.71 14.41 10.16 15.01H12.4C11.83 13.25 10.07 12.01 8 12.01C5.23 12.01 3 14.24 3 17.01C3 19.78 5.23 22.01 8 22.01C10.05 22.01 11.8 20.79 12.38 19.01Z" fill="#2B2D33"/>
</svg>
