<svg width="24" height="24" viewBox="0 0 24 24" fill="none" xmlns="http://www.w3.org/2000/svg">
<g clip-path="url(#clip0_342_5534)">
<path d="M9 11.01V9.01H7V9.53C7 10.46 7.53 10.89 8.3 10.89V11.01H7C5.34 11.01 4 12.35 4 14.01C4 15.67 5.34 17.01 7 17.01H9C9.55 17.01 10 17.46 10 18.01C10 18.56 9.55 19.01 9 19.01H7C6.45 19.01 6 18.56 6 18.01H4C4 19.67 5.34 21.01 7 21.01V23.01H9V22.49C9 21.56 8.47 21.13 7.7 21.13V21.01H9C10.66 21.01 12 19.67 12 18.01C12 16.35 10.66 15.01 9 15.01H7C6.45 15.01 6 14.56 6 14.01C6 13.46 6.45 13.01 7 13.01H9C9.55 13.01 10 13.46 10 14.01H12C12 12.35 10.66 11.01 9 11.01ZM16.88 13H14V15H21C21.56 15 22 14.59 22 14V2C22 1.45 21.56 1 21 1H3C2.45 1 2 1.45 2 2V11H4V6.12C4 5.49 3.58 5.12 3 5.12V5H4.5C5.32 5 6 4.33 6 3.5V2H6.12C6.12 2.58 6.49 3 7.12 3H16.88C17.51 3 17.88 2.58 17.88 2H18V3.5C18 4.33 18.68 5 19.5 5H21V5.12C20.42 5.12 20 5.49 20 6.12V9.88C20 10.51 20.42 10.88 21 10.88V11H19.5C18.68 11 18 11.67 18 12.5V14H17.88C17.88 13.42 17.51 13 16.88 13Z" fill="#2B2D33"/>
</g>
<defs>
<clipPath id="clip0_342_5534">
<rect width="20" height="22.01" fill="white" transform="translate(2 1)"/>
</clipPath>
</defs>
</svg>
