<svg width="24" height="24" viewBox="0 0 24 24" fill="none" xmlns="http://www.w3.org/2000/svg">
<path d="M14 6H10V10H8V12H10V13H8V15H10V18H12V13.6H12.1C12.2 14.5 12.8 15 13.9 15H16V13H12V12H14C15.7 12 17 10.7 17 9C17 7.3 15.7 6 14 6ZM14 10H12V8H14C14.6 8 15 8.4 15 9C15 9.6 14.6 10 14 10Z" fill="#2B2D33"/>
<path d="M12 0C5.4 0 0 5.4 0 12C0 18.6 5.4 24 12 24C18.6 24 24 18.6 24 12C24 5.4 18.6 0 12 0ZM20.6 19L17.4 16L16 17.4L18.3 19.7C16.6 21.2 14.4 22 12 22C6.5 22 2 17.5 2 12C2 10.2 2.5 8.4 3.4 7C3.8 6.3 3.9 5.6 3.4 5L3.5 4.9L6.6 8L8 6.6L5.7 4.3C7.4 2.9 9.6 2 12 2C17.5 2 22 6.5 22 12C22 13.8 21.5 15.6 20.6 17C20.2 17.8 20.2 18.4 20.6 19Z" fill="#2B2D33"/>
</svg>
