<svg width="24" height="24" viewBox="0 0 24 24" fill="none" xmlns="http://www.w3.org/2000/svg">
<path d="M6 13V12C6 10.34 7.34 9 9 9C10.66 9 12 10.34 12 12V13L16.88 13.01C17.51 13.01 17.88 13.43 17.88 14.01H18V12.51C18 11.68 18.68 11.01 19.5 11.01H21V10.89C20.42 10.89 20 10.52 20 9.89V7.13C20 6.5 20.42 6.13 21 6.13V6.01H19.5C18.68 6.01 18 5.34 18 4.51V3.01H17.88C17.88 3.59 17.51 4.01 16.88 4.01H7.12C6.49 4.01 6.12 3.59 6.12 3.01H6V4.51C6 5.34 5.32 6.01 4.5 6.01H3V6.13C3.58 6.13 4 6.5 4 7.13V13.01L6 13ZM3 15C2.45 15 2 14.55 2 14V3C2 2.45 2.45 2 3 2H21C21.56 2 22 2.45 22 3V14C22 14.55 21.55 15 21 15H20.51L15.51 22L13.89 20.84L18.06 15H12V16H10V12C10 11.45 9.55 11 9 11C8.45 11 8 11.45 8 12V19C8 19.58 8.43 20 9 20V22C7.27 22 6 20.73 6 19V15H3Z" fill="#2B2D33"/>
</svg>
