<svg width="24" height="24" viewBox="0 0 24 24" fill="none" xmlns="http://www.w3.org/2000/svg">
<path d="M20.6 13.6L18.1 10.3C17.5 9.6 17.1 9.2 15.9 9.1V9H19.9V7H15.6V6.9C16.7 6.8 17.1 6.4 17.6 5.5L18.7 3.6C19.3 2.9 18.9 2 18 2H10C9.2 2 8.7 2.8 9.2 3.7L11.7 8C12.2 8.7 12.7 9 13.5 9H14.6L19.1 14.8C19.8 15.7 20 16.3 20 17C20 18.7 18.7 20 17 20H11V22H17C19.8 22 22 19.8 22 17C22 15.9 21.6 14.9 20.6 13.6ZM14.5 7H13.6L11.7 4H16.2L14.5 7Z" fill="#2B2D33"/>
<path d="M8 16C9.7 16 11 14.7 11 13C11 11.3 9.7 10 8 10H4V14H2V16H4V17H2V19H4V22H6V17.6H6.1C6.2 18.5 6.8 19 7.9 19H10V17H6V16H8ZM6 12H8C8.6 12 9 12.4 9 13C9 13.6 8.6 14 8 14H6V12Z" fill="#2B2D33"/>
</svg>
