<svg width="24" height="24" viewBox="0 0 24 24" fill="none" xmlns="http://www.w3.org/2000/svg">
<path d="M14.5 16C15.3 16 16 15.3 16 14.5C16 13.7 15.3 13 14.5 13C13.7 13 13 13.7 13 14.5C13 15.3 13.7 16 14.5 16ZM19.5 21C20.3 21 21 20.3 21 19.5C21 18.7 20.3 18 19.5 18C18.7 18 18 18.7 18 19.5C18 20.3 18.7 21 19.5 21ZM14.4 21L21 14.4L19.6 13L13 19.6L14.4 21Z" fill="#2B2D33"/>
<path d="M5 17.4V11.4L12 4.4L19 11.4L20.4 10L12.7 2.3C12.3 1.9 11.7 1.9 11.3 2.3L3.6 10C3.2 10.4 3 10.8 3 11.4V20C3 20.6 3.5 21 4 21H11V19H3.7V18.9C4.5 18.8 5 18.1 5 17.4Z" fill="#2B2D33"/>
</svg>
