<svg width="24" height="24" viewBox="0 0 24 24" fill="none" xmlns="http://www.w3.org/2000/svg">
<path d="M17 19C15.9 19 15 18.1 15 17C15 15.9 15.9 15 17 15C18.1 15 19 15.9 19 17C19 18.1 18.1 19 17 19ZM17 21C19.2 21 21 19.2 21 17C21 14.8 19.2 13 17 13C14.8 13 13 14.8 13 17C13 19.2 14.8 21 17 21ZM4.4 21L21 4.4L19.6 3L3 19.6L4.4 21Z" fill="#2B2D33"/>
<path d="M7 3C4.8 3 3 4.8 3 7C3 9.2 4.8 11 7 11C9.2 11 11 9.2 11 7C11 4.8 9.2 3 7 3ZM7 9C5.9 9 5 8.1 5 7C5 5.9 5.9 5 7 5C8.1 5 9 5.9 9 7C9 8.1 8.1 9 7 9Z" fill="#2B2D33"/>
</svg>
