<svg width="24" height="24" viewBox="0 0 24 24" fill="none" xmlns="http://www.w3.org/2000/svg">
<path d="M18 17.11L15.79 18.22C15.37 18.43 14.91 18.53 14.45 18.53C12.87 18.53 12.6 17.48 10.45 17.48C10.04 17.48 9.62 17.54 9.15 17.67V17.54C10.03 17.23 10.45 16.72 10.45 15.8V14H13.45V12H10.32C10.32 10.7 9.46 10.05 9.46 7.99C9.46 6.3 10.76 5 12.45 5C14.14 5 15.44 6.3 15.44 7.99H17.44C17.44 5.2 15.24 3 12.45 3C9.66 3 7.46 5.2 7.46 7.99C7.46 10.05 8.32 11.2 8.32 12H6.45V14H8.45C8.45 14 8.45 15.99 8.45 16.8C8.45 17.61 8.25 18 7.45 18.39L6 19.11L6.9 20.9L9.11 19.79C9.53 19.58 9.99 19.48 10.45 19.48C12.03 19.48 12.3 20.53 14.45 20.53C15.22 20.53 15.99 20.35 17.09 19.8L18.9 18.9L18 17.11Z" fill="#2B2D33"/>
</svg>
