<svg width="24" height="24" viewBox="0 0 24 24" fill="none" xmlns="http://www.w3.org/2000/svg">
<path d="M10 12V10H6V9H9C10.7 9 12 7.7 12 6C12 4.3 10.7 3 9 3H4V7H2V9H4V10H2V12H4V15H6V10.6H6.1C6.2 11.5 6.8 12 7.9 12H10ZM6 5H9C9.6 5 10 5.4 10 6C10 6.6 9.6 7 9 7H6V5Z" fill="#2B2D33"/>
<path d="M14 15.5C14.8284 15.5 15.5 14.8284 15.5 14C15.5 13.1716 14.8284 12.5 14 12.5C13.1716 12.5 12.5 13.1716 12.5 14C12.5 14.8284 13.1716 15.5 14 15.5Z" fill="#2B2D33"/>
<path d="M21.5001 12.1L20.2001 11.4L20.6001 10.1C20.7001 9.69998 20.6001 9.29998 20.4001 9.09998L19.0001 7.69998C18.7001 7.39998 18.3001 7.29998 18.0001 7.49998L16.7001 7.89998L16.0001 6.59998L14.2001 7.49998L14.8001 8.79998C15.2001 9.69998 16.3001 10.2 17.2001 9.79998L17.9001 9.59998L18.4001 10.1L18.2001 10.8C17.9001 11.8 18.3001 12.8 19.2001 13.2L20.0001 13.6V14.4L19.3001 14.8C18.4001 15.2 17.9001 16.3 18.3001 17.2L18.5001 17.9L18.0001 18.4L17.3001 18.2C16.3001 17.9 15.3001 18.3 14.9001 19.2L14.4001 20H13.6001L13.2001 19.3C12.8001 18.4 11.7001 18 10.8001 18.3L10.1001 18.5L9.60007 18L10.0001 16.4L8.10007 15.8L7.40007 17.9C7.30007 18.3 7.40007 18.7 7.60007 18.9L9.00007 20.3C9.30007 20.6 9.70007 20.7 10.0001 20.5L11.3001 20.1L11.9001 21.4C12.1001 21.7 12.4001 22 12.8001 22H15.0001C15.4001 22 15.7001 21.8 15.9001 21.4L16.5001 20.1L17.8001 20.5C18.2001 20.6 18.6001 20.5 18.8001 20.3L20.2001 18.9C20.5001 18.6 20.6001 18.2 20.4001 17.9L20.0001 16.6L21.3001 16C21.7001 15.8 21.9001 15.5 21.9001 15.1V13C22.0001 12.6 21.8001 12.2 21.5001 12.1Z" fill="#2B2D33"/>
</svg>
