<svg width="24" height="24" viewBox="0 0 24 24" fill="none" xmlns="http://www.w3.org/2000/svg">
<path d="M8.2 7V6.88C8.92 6.72 9.42 6.34 9.84 5.7L10.28 5.03C10.72 4.35 11.16 4 12 4C12.84 4 13.28 4.35 13.72 5.03L14.16 5.7C14.58 6.34 15.08 6.72 15.8 6.88V7H8.2ZM19 20C18.4 20 18 19.6 18 19V10C18 9.4 18.4 9 19 9H20V20H19ZM6.5 20V19.88C7.43 19.59 8 18.87 8 18V11C8 10.13 7.43 9.41 6.5 9.12V9H17.5V9.12C16.57 9.41 16 10.13 16 11V18C16 18.87 16.57 19.59 17.5 19.88V20H6.5ZM4 20V9H5C5.6 9 6 9.4 6 10V19C6 19.6 5.6 20 5 20H4ZM3 22H21C21.55 22 22 21.55 22 21V8C22 7.45 21.55 7 21 7H18.2C17.62 7 17.21 6.73 16.8 6.1L15.44 4C14.57 2.66 13.38 2 12 2C10.62 2 9.43 2.66 8.56 4L7.2 6.1C6.8 6.73 6.38 7 5.8 7H3C2.4 7 2 7.4 2 8V21C2 21.6 2.4 22 3 22Z" fill="#2B2D33"/>
</svg>
