<svg width="24" height="24" viewBox="0 0 24 24" fill="none" xmlns="http://www.w3.org/2000/svg">
<path d="M14 2L11.9 7H13.9L16 2H14ZM19.64 14.47C19.25 15.1 18.73 15.08 18.35 14.47L16.02 10.72H15.87C16.36 11.68 17 13.34 17 15.39V20H15V9C15 7.88 16.28 7.67 16.8 8.5L19 12L21.2 8.5C21.71 7.69 23 7.88 23 8.9V20H21V15.39C21 13.34 21.61 11.68 22.13 10.72H21.98L19.64 14.47ZM10 18C10.6 18 11 17.6 11 17V11C11 10.4 10.6 10 10 10C9.4 10 9 10.4 9 11V17C9 17.6 9.4 18 10 18ZM7 11C7 9.3 8.3 8 10 8C11.7 8 13 9.4 13 11V17C13 18.7 11.7 20 10 20C8.3 20 7 18.7 7 17V11ZM0 11C0 9.3 1.3 8 3 8C4.7 8 6 9.4 6 11H4C4 10.4 3.6 10 3 10C2.4 10 2 10.4 2 11C2 11.44 2.11 11.82 2.76 12.43L4.54 14.1C5.54 15.04 6 15.88 6 17C6 18.7 4.7 20 3 20C1.3 20 0 18.7 0 17H2C2 17.6 2.4 18 3 18C3.6 18 4 17.6 4 17C4 16.51 3.85 16.11 3.28 15.59L1.38 13.88C0.45 13.04 0 12.17 0 11Z" fill="#2B2D33"/>
</svg>
