<svg width="24" height="24" viewBox="0 0 24 24" fill="none" xmlns="http://www.w3.org/2000/svg">
<path d="M16 13H18V11H16V13ZM15 14C13.9 14 13 13.1 13 12C13 10.9 13.9 10 15 10H20V14H15ZM4 18V6H18V8H15C12.79 8 11 9.79 11 12C11 14.21 12.79 16 15 16H18V18H4ZM3 20H19C19.55 20 20 19.55 20 19V18C20 17.03 19.51 16.39 18.66 16.13V16H21C21.55 16 22 15.55 22 15V9C22 8.45 21.55 8 21 8H18.66V7.87C19.51 7.61 20 6.97 20 6V5C20 4.45 19.55 4 19 4H3C2.45 4 2 4.45 2 5V19C2 19.55 2.45 20 3 20Z" fill="#2B2D33"/>
</svg>
