<svg width="48" height="48" viewBox="0 0 48 48" fill="none" xmlns="http://www.w3.org/2000/svg">
<rect width="48" height="48" rx="12" fill="#2B2D33"/>
<path d="M34.5901 14.9C33.4001 13.71 31.4401 13.7 30.2801 14.87L27.2801 17.9L18.1201 15.09C17.7401 14.97 17.3901 15.06 17.1201 15.34L16.1701 16.32C15.7201 16.79 15.7701 17.37 16.2301 17.76L21.4201 22.34C21.8501 22.72 22.2901 22.66 22.7401 22.37L22.8201 22.44L19.5201 25.84L16.0601 25.29C15.7001 25.24 15.4501 25.33 15.2101 25.58L13.2901 27.57C12.8201 28.06 12.9201 28.85 13.5501 29.15L19.3501 31.85C19.7201 32.02 20.1301 31.98 20.4501 31.71L25.5701 27.36L31.7101 33.63C31.9001 33.82 32.1601 33.93 32.4301 33.93C32.6901 33.93 32.9601 33.81 33.1501 33.62L34.0901 32.66C34.3401 32.4 34.4301 32.03 34.3401 31.68L31.6101 22.27L34.5801 19.18C35.7501 18.01 35.7601 16.07 34.5901 14.9ZM18.8301 17.4L24.2301 19.05C25.0201 19.29 25.6601 19.13 26.3801 18.67L26.4601 18.73L23.6401 21.62L18.8301 17.4ZM29.7701 21.29C29.5201 21.55 29.4201 21.92 29.5301 22.27L32.1101 31.18L26.3401 25.29C25.9701 24.92 25.3801 24.89 24.9801 25.23L19.6601 29.77L15.6601 27.99L16.3501 27.28L19.6101 27.9C20.0701 27.99 20.3101 27.9 20.5701 27.63L28.2901 19.73L31.6901 16.29C32.1101 15.87 32.7501 15.88 33.1801 16.3C33.5901 16.72 33.5901 17.35 33.1801 17.77L29.7701 21.29Z" fill="#FEE600"/>
</svg>
