<svg width="48" height="48" viewBox="0 0 48 48" fill="none" xmlns="http://www.w3.org/2000/svg">
<rect width="48" height="48" rx="12" fill="#2B2D33"/>
<path d="M33 23H29V25H32.94V25.12C32.16 25.12 31.91 25.36 31.75 26C30.97 29.15 28.28 31.52 25 31.93V21.86C26.72 21.41 28 19.86 28 18C28 15.79 26.21 14 24 14C21.79 14 20 15.79 20 18C20 19.86 21.28 21.41 23 21.86V31.93C19.72 31.52 17.06 29.14 16.25 26C16.09 25.36 15.84 25.12 15.06 25.12V25H19V23H15C14.45 23 14 23.45 14 24C14 29.52 18.48 34 24 34C29.52 34 34 29.52 34 24C34 23.45 33.55 23 33 23ZM22 18C22 16.9 22.9 16 24 16C25.11 16 26 16.9 26 18C26 19.1 25.11 20 24 20C22.9 20 22 19.1 22 18Z" fill="#FEE600"/>
</svg>
