<svg width="48" height="48" viewBox="0 0 48 48" fill="none" xmlns="http://www.w3.org/2000/svg">
<rect width="48" height="48" rx="12" fill="#2B2D33"/>
<path d="M29 15.59L30.59 14H33V16H31.42L31 16.41V17.59L31.42 18H33V20H30.59L29 18.41V18H20.4C19.6 18 19.23 17.69 19.12 17H19V18.41L17.42 20H15V18H16.59L17 17.59V16.41L16.59 16H15V14H17.42L19 15.59V16H27.6C28.4 16 28.77 16.31 28.88 17H29V15.59ZM19.15 25C19.25 24.52 19.4 23.96 19.57 23.44C19.75 22.91 19.94 22.46 20.12 22.16C20.16 22.09 20.2 22.04 20.23 22H27.78C27.8 22.04 27.84 22.09 27.88 22.16C28.06 22.46 28.25 22.91 28.43 23.44C28.6 23.96 28.75 24.52 28.85 25H19.15ZM18 32V29.62L18.55 29.89C19.05 30.14 19.65 29.94 19.9 29.45C20.14 28.95 19.94 28.35 19.45 28.11L18.17 27.46C18.21 27.37 18.27 27.28 18.33 27.18C18.38 27.11 18.42 27.05 18.46 27H29.54C29.58 27.05 29.63 27.11 29.67 27.18C29.73 27.28 29.79 27.37 29.84 27.46L28.55 28.11C28.06 28.35 27.86 28.95 28.11 29.45C28.35 29.94 28.95 30.14 29.45 29.89L30 29.62V32H28V31H20V32H18ZM17 34H21C21.55 34 22 33.55 22 33H26C26 33.55 26.45 34 27 34H31C31.55 34 32 33.55 32 33V28.02C32 28 32 27.99 32 27.97C31.99 27.18 31.61 26.49 31.33 26.07C31.21 25.88 31.08 25.72 30.98 25.59C30.94 25.29 30.88 24.94 30.81 24.59C30.69 24.04 30.53 23.41 30.32 22.81C30.13 22.22 29.88 21.61 29.59 21.13C29.45 20.89 29.27 20.64 29.05 20.43C28.83 20.23 28.47 20 28 20H20C19.53 20 19.18 20.23 18.96 20.43C18.73 20.64 18.55 20.89 18.41 21.13C18.12 21.61 17.87 22.22 17.68 22.81C17.48 23.41 17.31 24.04 17.19 24.59C17.12 24.94 17.06 25.29 17.03 25.59C16.92 25.72 16.8 25.88 16.67 26.07C16.39 26.49 16.01 27.18 16 27.97C16 27.99 16 28 16 28.02V33C16 33.55 16.45 34 17 34Z" fill="#FEE600"/>
</svg>
