<svg width="48" height="48" viewBox="0 0 48 48" fill="none" xmlns="http://www.w3.org/2000/svg">
<rect width="48" height="48" rx="12" fill="#2B2D33"/>
<path d="M31 24C29.72 24 28.59 24.62 27.85 25.56L27.75 25.47C28.24 24.76 28.32 23.91 27.78 23.37L27.52 23.11C28.51 22.41 29.71 22 31 22C31.37 22 31.71 21.8 31.88 21.47C32.06 21.15 32.04 20.75 31.83 20.45L29.83 17.45C29.65 17.17 29.34 17 29 17H26V19H28.47L29.26 20.19C27 20.69 25.09 22.15 24 24.12C22.64 21.66 20.01 20 17 20H15V22H17C18.3 22 19.5 22.41 20.48 23.11L20.22 23.37C19.69 23.91 19.76 24.76 20.25 25.47L20.15 25.56C19.42 24.62 18.29 24 17 24C14.8 24 13 25.8 13 28C13 30.2 14.8 32 17 32C19.22 32 21 30.2 21 28C21 27.26 20.79 26.58 20.44 25.99L21.89 24.52C22.59 25.5 23 26.7 23 28C23 28.59 23.42 29 24 29C24.58 29 25 28.59 25 28C25 26.7 25.41 25.5 26.11 24.52L27.56 25.99C27.21 26.58 27 27.27 27 28C27 30.2 28.8 32 31 32C33.22 32 35 30.2 35 28C35 25.8 33.22 24 31 24ZM17 30C15.9 30 15 29.1 15 28C15 26.9 15.9 26 17 26C18.11 26 19 26.9 19 28C19 29.1 18.11 30 17 30ZM31 30C29.9 30 29 29.1 29 28C29 26.9 29.9 26 31 26C32.11 26 33 26.9 33 28C33 29.1 32.11 30 31 30Z" fill="#FEE600"/>
</svg>
