<svg width="48" height="48" viewBox="0 0 48 48" fill="none" xmlns="http://www.w3.org/2000/svg">
<rect width="48" height="48" rx="12" fill="#2B2D33"/>
<path d="M18 18V17C18 16.45 18.45 16 19 16H29C29.55 16 30 16.46 30 17V18H18ZM24 25C22.59 25 20.91 24.76 19.55 24.52C18.94 24.4 18.4 24.29 18 24.2V20H30V24.2C29.6 24.29 29.06 24.4 28.45 24.52C27.09 24.76 25.41 25 24 25ZM18 32V29.62L18.55 29.89C19.05 30.14 19.65 29.94 19.9 29.45C20.14 28.95 19.94 28.35 19.45 28.11L18 27.38V26.25C18.35 26.32 18.75 26.4 19.2 26.48C20.59 26.74 22.41 27 24 27C25.59 27 27.41 26.74 28.8 26.48C29.25 26.4 29.65 26.32 30 26.25V27.38L28.55 28.11C28.06 28.35 27.86 28.95 28.11 29.45C28.35 29.94 28.95 30.14 29.45 29.89L30 29.62V32H28V31H20V32H18ZM17 34H21C21.55 34 22 33.55 22 33H26C26 33.55 26.45 34 27 34H31C31.55 34 32 33.55 32 33V19.26H32.12C32.17 19.96 32.34 20.26 33 20.54V23H35V20C35 19.67 34.83 19.35 34.56 19.17L32 17.46V17C32 16.17 31.6 15.43 31.08 14.92C30.56 14.41 29.83 14 29 14H19C18.18 14 17.43 14.4 16.92 14.92C16.41 15.44 16 16.17 16 17V17.46L13.45 19.17C13.17 19.36 13 19.67 13 20V23H15V20.54C15.66 20.26 15.83 19.96 15.88 19.26H16V33C16 33.55 16.45 34 17 34Z" fill="#FEE600"/>
</svg>
