<svg width="48" height="48" viewBox="0 0 48 48" fill="none" xmlns="http://www.w3.org/2000/svg">
<rect width="48" height="48" rx="12" fill="#2B2D33"/>
<path d="M33.33 20.07C33.21 19.88 33.08 19.72 32.98 19.59C32.94 19.29 32.88 18.94 32.81 18.59C32.69 18.04 32.53 17.41 32.32 16.81C32.13 16.22 31.88 15.61 31.59 15.13C31.45 14.89 31.27 14.64 31.05 14.43C30.83 14.23 30.47 14 30 14H22C21.58 14 21.27 14.22 21.12 14.35C20.95 14.5 20.81 14.67 20.7 14.83C20.48 15.15 20.28 15.54 20.12 15.91C19.95 16.29 19.8 16.68 19.7 17.02C19.65 17.19 19.6 17.36 19.57 17.51C19.54 17.64 19.5 17.82 19.5 18H21.5C21.5 18.02 21.5 18.03 21.5 18.03C21.5 18.03 21.5 18.01 21.52 17.95C21.54 17.86 21.57 17.75 21.61 17.62C21.69 17.35 21.81 17.02 21.95 16.71C22.08 16.42 22.21 16.17 22.32 16H29.78C29.8 16.04 29.84 16.09 29.88 16.16C30.06 16.46 30.25 16.91 30.43 17.44C30.6 17.96 30.75 18.52 30.85 19H28.5L29.5 21H31.54C31.58 21.05 31.63 21.11 31.67 21.18C31.73 21.28 31.79 21.37 31.84 21.46L30.55 22.11C30.06 22.35 29.86 22.95 30.11 23.45C30.35 23.94 30.95 24.14 31.45 23.89L32 23.62V26H31.7C30.6 26 30 26.29 30 27.43H29.93C29.81 26.87 29.54 26.39 29.33 26.07C29.2 25.88 29.08 25.72 28.97 25.59C28.94 25.29 28.88 24.94 28.81 24.59C28.69 24.04 28.53 23.41 28.32 22.81C28.13 22.22 27.88 21.61 27.59 21.13C27.45 20.89 27.27 20.64 27.05 20.43C26.83 20.23 26.47 20 26 20H18C17.53 20 17.18 20.23 16.96 20.43C16.73 20.64 16.55 20.89 16.41 21.13C16.12 21.61 15.87 22.22 15.68 22.81C15.48 23.41 15.31 24.04 15.19 24.59C15.12 24.94 15.06 25.29 15.03 25.59C14.92 25.72 14.8 25.88 14.67 26.07C14.39 26.49 14.01 27.18 14 27.97C14 27.99 14 28 14 28.02V33C14 33.55 14.45 34 15 34H19C19.55 34 20 33.55 20 33H24C24 33.55 24.45 34 25 34H29C29.55 34 30 33.55 30 33V28H33C33.55 28 34 27.55 34 27V22.03C34 22.01 34 21.98 34 21.96C33.99 21.18 33.61 20.49 33.33 20.07ZM17.57 23.44C17.75 22.91 17.94 22.46 18.12 22.16C18.16 22.09 18.2 22.04 18.23 22H25.78C25.8 22.04 25.84 22.09 25.88 22.16C26.06 22.46 26.25 22.91 26.43 23.44C26.6 23.96 26.75 24.52 26.85 25H17.15C17.25 24.52 17.4 23.96 17.57 23.44ZM28 32H26V31H18V32H16V29.62L16.55 29.89C17.05 30.14 17.65 29.94 17.9 29.45C18.14 28.95 17.94 28.35 17.45 28.11L16.17 27.46C16.21 27.37 16.27 27.28 16.33 27.18C16.38 27.11 16.42 27.05 16.46 27H27.54C27.58 27.05 27.63 27.11 27.67 27.18C27.73 27.28 27.79 27.37 27.84 27.46L26.55 28.11C26.06 28.35 25.86 28.95 26.11 29.45C26.35 29.94 26.95 30.14 27.45 29.89L28 29.62V32Z" fill="#FEE600"/>
</svg>
