<svg width="48" height="48" viewBox="0 0 48 48" fill="none" xmlns="http://www.w3.org/2000/svg">
<rect width="48" height="48" rx="12" fill="#2B2D33"/>
<path d="M32 23.61L31 23.28V21.54L32 20.87V23.61ZM17 22V16H25V22H17ZM17.5 32C17.16 32 17 31.81 17 31.5V28H21V26H17V24H25V31.5C25 31.81 24.84 32 24.5 32H17.5ZM14 34H34V32H25.67V31.87C26.44 31.6 27 30.9 27 30V28H27.5C27.78 28 28 28.22 28 28.5C28 29.88 29.12 31 30.5 31H31C32.66 31 34 29.66 34 28V19C34 18.73 33.9 18.48 33.71 18.29L30.71 15.29L29.29 16.71L31.43 18.84L29.45 20.17C29.17 20.35 29 20.67 29 21V24C29 24.43 29.28 24.81 29.68 24.95L32 25.72V28C32 28.55 31.55 29 31 29H30.5C30.22 29 30 28.78 30 28.5C30 27.12 28.88 26 27.5 26H27V15C27 14.45 26.55 14 26 14H16C15.45 14 15 14.45 15 15V30C15 30.9 15.56 31.6 16.33 31.87V32H14V34Z" fill="#FEE600"/>
</svg>
