<svg width="48" height="48" viewBox="0 0 48 48" fill="none" xmlns="http://www.w3.org/2000/svg">
<rect width="48" height="48" rx="12" fill="#2B2D33"/>
<path d="M34.97 17V15H16.97V17H24.97V19H16.25L15.94 17.76L14 18.24L14.69 21H18.35L22.78 28.67L22.19 31H19.97V33H33.97V31H31.75L31.25 29H33.59L33.87 28.45V28.44L33.88 28.41C33.89 28.39 33.9 28.37 33.92 28.33C33.95 28.27 33.99 28.17 34.05 28.05C34.15 27.81 34.28 27.47 34.42 27.07C34.69 26.27 34.97 25.15 34.97 24C34.97 21.44 32.53 19.86 29.07 19H26.97V18.26C26.97 17.55 26.55 17.12 25.77 17.12V17H34.97ZM24.25 31L24.75 29H29.19L29.69 31H24.25ZM32.63 23H29.75L29.28 21.11C30.27 21.31 32.06 22.22 32.63 23ZM27.19 21L28 24.24C28.11 24.69 28.51 25 28.97 25H32.88C32.8 25.51 32.66 26.01 32.52 26.43C32.45 26.65 32.38 26.84 32.32 27H24.13L20.67 21H27.19Z" fill="#FEE600"/>
</svg>
