<svg width="48" height="48" viewBox="0 0 48 48" fill="none" xmlns="http://www.w3.org/2000/svg">
<rect width="48" height="48" rx="12" fill="#2B2D33"/>
<path d="M33.75 30.85L29.51 16L24 22.29L18.49 16L14.25 30.85H13V32.85H22V30.85H19.66V30.73C20.16 30.69 20.47 30.45 20.65 29.8L21.12 28.08L24 31.42L26.88 28.08L27.35 29.8C27.53 30.45 27.84 30.69 28.34 30.73V30.85H26V32.85H35V30.85H33.75ZM32.36 30.85H29.74L27.8 24.04L24 28.38L20.2 24.04L18.26 30.85H15.64V30.73C16.14 30.69 16.45 30.45 16.63 29.8L19.38 20.15L24 25.41L28.62 20.15L31.37 29.8C31.55 30.45 31.86 30.69 32.36 30.73V30.85Z" fill="#FEE600"/>
</svg>
