<svg width="48" height="48" viewBox="0 0 48 48" fill="none" xmlns="http://www.w3.org/2000/svg">
<rect width="48" height="48" rx="12" fill="#2B2D33"/>
<path d="M23.94 33.44H24.06C24.23 32.58 24.42 32.32 25.3 31.74C28.66 29.54 31 25.95 31 23C31 19.13 27.87 16 24 16C20.14 16 17 19.13 17 23C17 25.95 19.34 29.55 22.69 31.74C23.6 32.33 23.78 32.59 23.94 33.44ZM24 34.5C22.8 34.5 19.55 32.16 17.89 30.11C15.98 27.73 15 25.33 15 23C15 18.03 19.03 14 24 14C28.97 14 33 18.03 33 23C33 25.33 32.02 27.73 30.11 30.11C28.45 32.16 25.2 34.5 24 34.5ZM24.3 23.67H23V20.35H24.31C25.4 20.35 26 20.94 26 22.01C26 23.09 25.41 23.67 24.3 23.67ZM28 22.02C28 19.79 26.69 18.51 24.42 18.51H21V28.51H23V25.51H24.42C26.66 25.51 28 24.21 28 22.02Z" fill="#FEE600"/>
</svg>
