<svg width="48" height="48" viewBox="0 0 48 48" fill="none" xmlns="http://www.w3.org/2000/svg">
<rect width="48" height="48" rx="12" fill="#2B2D33"/>
<path d="M24 18C22.08 18 20.4 17.76 19.2 17.52C18.71 17.42 18.31 17.33 18 17.25V16H30V17.25C29.69 17.33 29.29 17.42 28.8 17.52C27.6 17.76 25.92 18 24 18ZM25 23.98V19.98C26.66 19.91 28.11 19.7 29.2 19.48C29.49 19.42 29.76 19.36 30 19.31V23.25C29.69 23.33 29.29 23.42 28.8 23.52C27.82 23.72 26.5 23.91 25 23.98ZM23 23.98C21.5 23.91 20.19 23.72 19.2 23.52C18.71 23.42 18.31 23.33 18 23.25V19.31C18.24 19.36 18.51 19.42 18.8 19.48C19.89 19.7 21.34 19.91 23 19.98V23.98ZM19 31C18.45 31 18 30.55 18 30V29H19C19.55 29 20 28.55 20 28C20 27.45 19.55 27 19 27H18V25.31C18.24 25.36 18.51 25.42 18.8 25.48C20.1 25.74 21.92 26 24 26C26.08 26 27.9 25.74 29.2 25.48C29.49 25.42 29.76 25.36 30 25.31V27H29C28.45 27 28 27.45 28 28C28 28.55 28.45 29 29 29H30V30C30 30.55 29.55 31 29 31H19ZM16 35H18.5L20.25 33H27.75L29.5 35H32L30.99 33.84C30.4 33.16 29.94 33.12 29 33.12V33C30.65 33 32 31.65 32 30V16C32 14.9 31.11 14 30 14H18C16.9 14 16 14.9 16 16V30C16 31.65 17.35 33 19 33V33.12C18.06 33.12 17.6 33.16 17.01 33.84L16 35Z" fill="#FEE600"/>
</svg>
