<svg width="48" height="48" viewBox="0 0 48 48" fill="none" xmlns="http://www.w3.org/2000/svg">
<rect width="48" height="48" rx="12" fill="#2B2D33"/>
<path d="M17.2201 22L17.8201 19H26.3501L28.8601 22H17.2201ZM16.8601 27.46L15.4801 24H32.5201L31.1401 27.46C31.1301 27.45 31.1201 27.44 31.1101 27.44L29.7901 26.78C28.6601 26.22 27.3401 26.22 26.2101 26.78L24.9001 27.44C24.3301 27.72 23.6701 27.72 23.1101 27.44L21.7901 26.78C20.6601 26.22 19.3401 26.22 18.2101 26.78L16.9001 27.44C16.8801 27.44 16.8701 27.45 16.8601 27.46ZM16.2901 33.27C17.4301 33.84 18.8101 33.61 19.7101 32.71C20.0001 32.42 20.4501 32.35 20.8201 32.53L22.2101 33.23C23.3401 33.79 24.6601 33.79 25.7901 33.23L27.1801 32.53C27.5501 32.35 28.0001 32.42 28.2901 32.71C29.2001 33.61 30.5701 33.84 31.7101 33.27L32.4501 32.9C32.9401 32.65 33.1401 32.05 32.9001 31.56C32.6501 31.06 32.0501 30.86 31.5501 31.11L30.8201 31.48C30.4501 31.66 30.0001 31.59 29.7101 31.3C28.8101 30.4 27.4301 30.17 26.2901 30.74L24.9001 31.44C24.3301 31.72 23.6701 31.72 23.1101 31.44L21.7101 30.74C20.5701 30.17 19.2001 30.4 18.2901 31.3C18.0001 31.59 17.5501 31.66 17.1801 31.48L16.4501 31.11C15.9501 30.86 15.3501 31.06 15.1101 31.56C14.8601 32.05 15.0601 32.65 15.5501 32.9L16.2901 33.27ZM14.2101 29.23C15.3401 29.79 16.6601 29.79 17.7901 29.23L19.1101 28.57C19.6701 28.29 20.3301 28.29 20.9001 28.57L22.2101 29.23C23.3401 29.79 24.6601 29.79 25.7901 29.23L27.1101 28.57C27.6701 28.29 28.3301 28.29 28.9001 28.57L30.2101 29.23C31.3401 29.79 32.6601 29.79 33.7901 29.23L34.4501 28.9C34.9401 28.65 35.1401 28.05 34.9001 27.56C34.6501 27.06 34.0501 26.86 33.5501 27.11L32.5701 27.6L32.5201 27.54C33.1801 27.12 33.5901 26.74 33.8901 25.98L34.9301 23.38C35.0501 23.07 35.0201 22.72 34.8301 22.44C34.6401 22.17 34.3301 22 34.0001 22H31.4701L27.5801 17.36C27.3901 17.14 27.1101 17 26.8101 17H24.0001V15H22.0001V17H20.0001V15H18.0001V17H17.0001C16.5201 17 16.1101 17.34 16.0201 17.81L15.1801 22H14.0001C13.6701 22 13.3601 22.17 13.1701 22.44C12.9901 22.72 12.9501 23.07 13.0701 23.38L14.1201 25.98C14.4201 26.74 14.8301 27.12 15.4901 27.54L15.4401 27.6L14.4501 27.11C13.9501 26.86 13.3501 27.06 13.1101 27.56C12.8601 28.05 13.0601 28.65 13.5501 28.9L14.2101 29.23Z" fill="#FEE600"/>
</svg>
