<svg width="48" height="48" viewBox="0 0 48 48" fill="none" xmlns="http://www.w3.org/2000/svg">
<rect width="48" height="48" rx="12" fill="#2B2D33"/>
<path d="M27.5183 20.8799L22.5686 25.8296L23.9828 27.2438L28.9325 22.2941L27.5183 20.8799Z" fill="#FEE600"/>
<path d="M32.67 31C33.52 29.53 34.01 27.83 34.01 26.01C34.01 20.47 29.53 16 24.01 16C18.48 16 14 20.47 14 26.01C14 27.83 14.49 29.53 15.34 31H13V33H35V31H32.67ZM16.06 27H19V25H17.92C16.92 25 16.32 25.58 16.12 26.61H16.04C16.02 26.41 16 26.21 16 26.01C16 21.92 19.06 18.57 23 18.07V21H25V19.92C25 18.93 24.43 18.33 23.39 18.12V18.03C23.6 18.02 23.8 18 24.01 18C28.08 18 31.44 21.05 31.94 25H28.99V27H30.07C31.06 27 31.66 26.43 31.87 25.39H31.98C32 25.6 32.01 25.8 32.01 26.01C32.01 27.9 31.34 29.63 30.23 31H17.78C16.87 29.87 16.25 28.51 16.06 27Z" fill="#FEE600"/>
</svg>
