<svg width="48" height="48" viewBox="0 0 48 48" fill="none" xmlns="http://www.w3.org/2000/svg">
<rect width="48" height="48" rx="12" fill="#2B2D33"/>
<path d="M31.49 18.74L28 18.15V17C28 16.45 27.55 16 27 16H15C14.45 16 14 16.45 14 17V30C14 31.66 15.34 33 17 33C18.48 33 19.7 31.94 19.95 30.53H20.08C20.08 31.46 20.43 32 21.38 32H26.62C27.57 32 27.92 31.46 27.92 30.53H28.05C28.3 31.94 29.52 33 31 33C32.66 33 34 31.66 34 30V21.69C34 20.23 32.94 18.98 31.49 18.74ZM17 31C16.45 31 16 30.55 16 30C16 29.45 16.45 29 17 29C17.55 29 18 29.45 18 30C18 30.55 17.55 31 17 31ZM17 27C16.67 27 16.33 27.06 16 27.17V18H26V27H17ZM20 30C20 29.67 19.94 29.33 19.83 29H28.17C28.06 29.33 28 29.67 28 30H20ZM31 31C30.45 31 30 30.55 30 30C30 29.45 30.45 29 31 29C31.55 29 32 29.45 32 30C32 30.55 31.55 31 31 31ZM32 23H30V25H32V27.17C31.67 27.06 31.33 27 31 27H28V20.18L31.17 20.71C31.65 20.79 32 21.21 32 21.69V23Z" fill="#FEE600"/>
</svg>
