<svg width="24" height="24" viewBox="0 0 24 24" fill="none" xmlns="http://www.w3.org/2000/svg">
<path d="M21.99 10.5L20.98 1.89C20.94 1.51 20.68 1.18 20.32 1.06C19.95 0.929999 19.55 1.02 19.28 1.3L16.07 4.5H9.9L6.7 1.3C6.42 1.02 6.02 0.929999 5.66 1.06C5.3 1.18 5.04 1.51 5 1.89L4.23 8.5L4.21 8.65C4.08 9.6 4.53 10.17 5.35 10.38L5.34 10.5H5.1C4.49 10.5 4 10.99 4 11.6V13.5H2.1C1.49 13.5 1 13.99 1 14.6V18.4C1 19.01 1.49 19.5 2.1 19.5H4V21.4C4 22.01 4.49 22.5 5.1 22.5H8.9C9.51 22.5 10 22.01 10 21.4V19.5H11.9C12.51 19.5 13 19.01 13 18.4V17.17H13.12C13.33 18.01 13.9 18.5 14.85 18.5H16C20.17 18.5 22.56 15.31 21.99 10.5ZM11 17.5H8V20.5H6V17.5H3V15.5H6V12.5H8V15.5H11V17.5ZM16 16.5H13V14.6C13 13.99 12.51 13.5 11.9 13.5H10V11.6C10 10.99 9.51 10.5 8.9 10.5H6L6.24 8.5L6.74 4.17L8.78 6.21C8.97 6.4 9.22 6.5 9.49 6.5H16.49C16.76 6.5 17.02 6.39 17.2 6.21L19.24 4.17L19.99 10.56C20.45 14.44 19.06 16.5 16 16.5Z" fill="white"/>
</svg>
