<svg width="48" height="48" viewBox="0 0 48 48" fill="none" xmlns="http://www.w3.org/2000/svg">
<rect width="48" height="48" rx="12" fill="#FEE600"/>
<path d="M34.33 25H29V23H33V21H19V23H17V21C17 19.9 17.9 19 19 19H33C34.1 19 35 19.9 35 21V31C35 32.1 34.1 33 33 33H19C17.9 33 17 32.1 17 31V29H19V31H33V27C33 26.03 33.48 25.38 34.33 25.12V25ZM13 18C13 16.34 14.34 15 16 15H31V17H16C15.45 17 15 17.45 15 18V29H13V18Z" fill="#2B2D33"/>
<path d="M16.98 25.02H23.95V24.88C22.49 24.57 21.99 23.6 21.99 22.01H23.98C23.99 23.34 24.67 24.46 26.27 25.04C26.78 25.22 26.99 25.56 26.99 26.01C26.99 26.46 26.78 26.8 26.27 26.98C24.67 27.56 23.99 28.68 23.98 30.01H21.99C21.99 28.42 22.49 27.45 23.95 27.15V27.01H16.98V25.02Z" fill="#2B2D33"/>
</svg>
