<svg width="48" height="48" viewBox="0 0 48 48" fill="none" xmlns="http://www.w3.org/2000/svg">
<rect width="48" height="48" rx="12" fill="#FEE600"/>
<path d="M16 19V18C16 17.45 16.45 17 17 17H31C31.55 17 32 17.45 32 18V19H16ZM26 34C27.31 34 28.42 33.17 28.83 32H32V34H34V31C34 30.45 33.55 30 33 30H28.83C28.42 28.83 27.31 28 26 28C24.34 28 23 29.34 23 31C23 32.66 24.34 34 26 34ZM26 32C25.45 32 25 31.55 25 31C25 30.45 25.45 30 26 30C26.55 30 27 30.45 27 31C27 31.55 26.55 32 26 32ZM17 31H21V29H17C16.45 29 16 28.55 16 28V23.01C16 22.04 15.52 21.39 14.67 21.13V21H33.33V21.13C32.48 21.39 32 22.04 32 23.01V27H34V18C34 16.34 32.66 15 31 15H17C15.34 15 14 16.34 14 18V28C14 29.66 15.34 31 17 31Z" fill="#2B2D33"/>
</svg>
