<svg width="48" height="48" viewBox="0 0 48 48" fill="none" xmlns="http://www.w3.org/2000/svg">
<rect width="48" height="48" rx="12" fill="#FEE600"/>
<path d="M20 25C20 26.68 21.32 28 23 28C23.76 28 24.22 27.68 24.14 26.94L24.04 26H24.16C24.55 27.18 25.66 28 27 28C28.68 28 30 26.68 30 25C30 23.32 28.68 22 27 22C26.24 22 25.78 22.32 25.86 23.06L25.96 24H25.84C25.45 22.82 24.34 22 23 22C21.32 22 20 23.32 20 25ZM27 26C26.43 26 26 25.58 26 25C26 24.45 26.4 24 27 24C27.6 24 28 24.45 28 25C28 25.58 27.57 26 27 26ZM17 30C16.45 30 16 29.55 16 29V19C16 18.45 16.45 18 17 18H31C31.56 18 32 18.45 32 19V29C32 29.55 31.56 30 31 30H17ZM23.01 26C22.44 26 22 25.58 22 25C22 24.45 22.41 24 23.01 24C23.61 24 24 24.45 24 25C24 25.58 23.58 26 23.01 26ZM17 32H31C32.66 32 34 30.66 34 29V19C34 17.34 32.66 16 31 16H17C15.35 16 14 17.34 14 19V29C14 30.66 15.35 32 17 32Z" fill="#2B2D33"/>
</svg>
