<svg width="48" height="48" viewBox="0 0 48 48" fill="none" xmlns="http://www.w3.org/2000/svg">
<rect width="48" height="48" rx="12" fill="#FEE600"/>
<path d="M28 27C28 27 28 26 28 25C28 24.4 28.4 24 29 24C29.5 24 30 24.5 30 25V27H28ZM16 22C16 21 15.5 20.4 14.7 20.1V20H32V22H34V17C34 15.3 32.7 14 31 14H17C15.3 14 14 15.3 14 17V27C14 28.7 15.3 30 17 30H22V28H17C16.4 28 16 27.6 16 27V22ZM16 18V17C16 16.5 16.4 16 17 16H31C31.5 16 32 16.5 32 17V18H16ZM25 34H33C33.5 34 34 33.6 34 33V28C34 27.5 33.5 27 33 27H32V25C32 23.3 30.7 22 29 22C27.3 22 26 23.3 26 25V27H25C24.4 27 24 27.5 24 28V33C24 33.6 24.4 34 25 34ZM26 29H32V32H26V29Z" fill="#2B2D33"/>
</svg>
