<svg width="48" height="48" viewBox="0 0 48 48" fill="none" xmlns="http://www.w3.org/2000/svg">
<rect width="48" height="48" rx="12" fill="#2B2D33"/>
<path d="M14 32V34H34V32H14ZM16 25H18V30H16V25ZM32 30V25H30V30H32ZM23 25H25V30H23V25ZM17.07 20C15.92 20.64 15.51 20.88 14.7 20.88V21H33.3V20.88C32.51 20.88 32.17 20.69 30.94 20L24 16.14L17.07 20ZM23.51 14.13C23.81 13.96 24.18 13.96 24.48 14.13L33.48 19.13C33.8 19.3 34 19.64 34 20V22C34 22.55 33.55 23 33 23H15C14.44 23 14 22.55 14 22V20C14 19.64 14.19 19.3 14.51 19.13L23.51 14.13Z" fill="white"/>
</svg>
