<svg width="48" height="48" viewBox="0 0 48 48" fill="none" xmlns="http://www.w3.org/2000/svg">
<rect width="48" height="48" rx="12" fill="#2B2D33"/>
<path d="M31 14H17C16.45 14 16 14.45 16 15V17C16 17.27 16.11 17.52 16.29 17.71L18.29 19.71C18.48 19.89 18.74 20 19 20H20V23C20 23.27 20.11 23.52 20.29 23.71L22.29 25.71C22.48 25.89 22.74 26 23 26V28H24C25.12 28 26 28.88 26 30C26 31.12 25.12 32 24 32C22.88 32 22 31.12 22 30H20C20 32.24 21.76 34 24 34C26.24 34 28 32.24 28 30C28 28.11 26.74 26.58 25 26.14V26C25.27 26 25.52 25.89 25.71 25.71L27.71 23.71C27.9 23.52 28 23.27 28 23V20H29C29.27 20 29.52 19.89 29.71 19.71L31.71 17.71C31.9 17.52 32 17.27 32 17V15C32 14.45 31.55 14 31 14ZM27.23 20.12C26.45 20.26 26 20.83 26 21.8V22.59L24.59 24H23.42L22 22.59V21.8C22 20.83 21.55 20.26 20.77 20.12V20H27.23V20.12ZM30 16.59L28.59 18H19.42L18 16.59V16H30V16.59Z" fill="white"/>
</svg>
