<svg width="48" height="48" viewBox="0 0 48 48" fill="none" xmlns="http://www.w3.org/2000/svg">
<rect width="48" height="48" rx="12" fill="#2B2D33"/>
<path d="M23 23.0101H25V21.5901C25 20.9301 24.64 20.5901 24 20.5901V20.4701L29 16.3001L34 20.4701V20.5901C33.36 20.5901 33 20.9301 33 21.5901V26.0001H31V22.0001H29V26.0001H28V28.0001H34C34.55 28.0001 35 27.5501 35 27.0001V21.0001C35.6 21.0001 36 20.5701 36 20.0001C36 19.7001 35.87 19.4201 35.64 19.2301L29.64 14.2301C29.27 13.9201 28.73 13.9201 28.36 14.2301L22.36 19.2301C22.13 19.4201 22 19.7001 22 20.0001C22 20.5701 22.4 21.0001 23 21.0001V23.0101ZM23 28.5901V33.0001H21V29.0001H19V33.0001H15V28.5901C15 27.9301 14.64 27.5901 14 27.5901V27.4701L19 23.3001L24 27.4701V27.5901C23.36 27.5901 23 27.9301 23 28.5901ZM14 35.0001H24C24.55 35.0001 25 34.5501 25 34.0001V28.0001C25.6 28.0001 26 27.5701 26 27.0001C26 26.7001 25.87 26.4201 25.64 26.2301L19.64 21.2301C19.27 20.9201 18.73 20.9201 18.36 21.2301L12.36 26.2301C12.13 26.4201 12 26.7001 12 27.0001C12 27.5701 12.4 28.0001 13 28.0001V34.0001C13 34.5701 13.46 35.0001 14 35.0001Z" fill="white"/>
</svg>
