<svg width="48" height="48" viewBox="0 0 48 48" fill="none" xmlns="http://www.w3.org/2000/svg">
<rect width="48" height="48" rx="12" fill="#2B2D33"/>
<path d="M19 32V24H15.9V23.88C16.68 23.88 17.11 23.74 17.69 23.2L24 17.36L30.31 23.2C30.89 23.74 31.32 23.88 32.1 23.88V24H29V32H27V26H25V32H19ZM21 30H23V27H21V30ZM18 34H30C30.55 34 31 33.55 31 33V26H32C32.55 26 33 25.55 33 25V23.4C33 23.12 32.89 22.86 32.68 22.67L24.68 15.27C24.3 14.91 23.71 14.91 23.32 15.27L15.32 22.67C15.12 22.86 15 23.12 15 23.4V25C15 25.59 15.48 26 16 26H17V33C17 33.55 17.45 34 18 34Z" fill="white"/>
</svg>
