<svg width="48" height="48" viewBox="0 0 48 48" fill="none" xmlns="http://www.w3.org/2000/svg">
<rect width="48" height="48" rx="12" fill="#2B2D33"/>
<path d="M17.94 29.81V15.95H29.94V28.93C26.94 28.95 29.94 17.95 23.44 17.95C20.94 17.95 19.94 19.95 19.94 22.95C19.94 25.95 20.44 27.59 20.44 27.59C18.94 27.95 18.22 29.25 17.94 29.81ZM23.44 26.09C21.94 26.09 21.94 25.09 21.94 23.09C21.94 21.09 21.94 20.09 23.44 20.09C24.94 20.09 25.65 21.09 25.65 23.09C25.65 24.75 24.94 26.09 23.44 26.09ZM21.7 30.95C20.49 30.9 20.18 29.72 22.44 28.95C22.44 28.95 22.45 28.26 22.44 28.07C23.44 28.45 25.44 28.23 26.52 26.49L26.69 26.61C26.27 27.25 25.85 27.95 26.38 28.92L26.94 29.95C26.94 29.95 25.94 29.95 25.44 30.95H21.7ZM15.44 34.45C16.44 35.45 17.65 34.53 17.86 33.95H30.03C30.23 34.53 31.44 35.45 32.44 34.45C33.44 33.45 32.52 32.24 31.94 32.03V15.86C32.52 15.65 33.44 14.45 32.44 13.45C31.44 12.45 30.23 13.36 30.03 13.95H17.86C17.65 13.36 16.44 12.45 15.44 13.45C14.44 14.45 15.36 15.65 15.94 15.86V32.03C15.36 32.24 14.44 33.45 15.44 34.45Z" fill="white"/>
</svg>
