<svg width="48" height="48" viewBox="0 0 48 48" fill="none" xmlns="http://www.w3.org/2000/svg">
<rect width="48" height="48" rx="12" fill="#2B2D33"/>
<path d="M28 26C29.11 26 30 25.1 30 24C30 22.9 29.11 22 28 22C26.9 22 26 22.9 26 24C26 25.1 26.9 26 28 26ZM24 22C25.11 22 26 21.1 26 20C26 18.9 25.11 18 24 18C22.9 18 22 18.9 22 20C22 21.1 22.9 22 24 22ZM24 32C19.58 32 16 28.42 16 24C16 19.58 19.58 16 24 16C28.42 16 32 19.58 32 24C32 28.42 28.42 32 24 32ZM20 26C21.11 26 22 25.1 22 24C22 22.9 21.11 22 20 22C18.9 22 18 22.9 18 24C18 25.1 18.9 26 20 26ZM24 30C25.11 30 26 29.1 26 28C26 26.9 25.11 26 24 26C22.9 26 22 26.9 22 28C22 29.1 22.9 30 24 30ZM24 34H34V32H31.62C30.36 32 29.99 32.21 29.07 32.76L28.91 32.46L24 34C29.52 34 34 29.52 34 24C34 18.48 29.52 14 24 14C18.48 14 14 18.48 14 24C14 29.52 18.48 34 24 34Z" fill="white"/>
</svg>
