<svg width="48" height="48" viewBox="0 0 48 48" fill="none" xmlns="http://www.w3.org/2000/svg">
<rect width="48" height="48" rx="12" fill="#2B2D33"/>
<path d="M26.71 22.42L28.45 20.68C29.13 21.63 29.21 22.42 29.13 22.96C29.08 23.32 28.97 23.62 28.87 23.83C28.83 23.93 28.77 24 28.75 24.04C28.73 24.07 28.72 24.08 28.72 24.08L28.71 24.11L27.76 25.37C27.28 25.14 26.79 25.02 26.33 25.02C25.56 25.02 24.93 25.31 24.48 25.65C24.02 25.99 23.68 26.38 23.47 26.69C23.36 26.84 23.27 26.98 23.21 27.07C23.17 27.12 23.16 27.17 23.13 27.2C23.14 27.22 23.12 27.23 23.12 27.24V27.25L23.11 27.26C22.92 27.65 23 28.12 23.31 28.42L24.57 29.67L23.75 30.51C23.35 30.91 22.88 31.21 22.35 31.42C21.82 31.62 21.24 31.73 20.66 31.71C20.08 31.69 19.49 31.56 18.92 31.3C18.59 31.16 18.22 31.01 17.44 30.27L17.52 30.19C18.17 30.66 18.53 30.6 18.96 30.17L20.71 28.42L19.3 27L16.8 29.51C16.63 29.28 16.51 29.03 16.4 28.78C16.16 28.23 16.02 27.64 16.01 27.05C15.98 26.47 16.08 25.89 16.29 25.36C16.5 24.83 16.8 24.36 17.2 23.96L18.03 23.13L19.28 24.41C19.6 24.72 20.07 24.8 20.44 24.59H20.48C20.49 24.59 20.5 24.58 20.51 24.57C20.55 24.56 20.59 24.52 20.64 24.5C20.74 24.44 20.86 24.36 21.03 24.25C21.32 24.03 21.73 23.69 22.06 23.24C22.4 22.77 22.69 22.15 22.69 21.39C22.69 20.91 22.57 20.43 22.35 19.96L23.61 19.01L23.62 19C23.63 18.99 23.64 18.98 23.67 18.96C23.71 18.94 23.79 18.89 23.88 18.84C24.09 18.73 24.38 18.62 24.76 18.58C25.29 18.5 26.08 18.58 27.03 19.26L25.29 21L26.71 22.42ZM31.12 23.21C31.26 22.08 31.02 20.68 29.88 19.25L31.42 17.71H33L33.01 16.11L33.71 15.41L32.3 14L31.59 14.71H30L30.01 16.3L28.47 17.84C27.01 16.69 25.63 16.45 24.5 16.59C23.87 16.67 23.34 16.87 23 17.05C22.82 17.14 22.66 17.22 22.57 17.28C22.52 17.33 22.47 17.36 22.44 17.38C22.43 17.39 22.42 17.4 22.41 17.41H22.4L20.4 18.91C20.18 19.07 20.05 19.32 20.01 19.57C19.97 19.85 20.06 20.12 20.22 20.33C20.61 20.82 20.68 21.17 20.68 21.38C20.68 21.62 20.61 21.84 20.44 22.06C20.35 22.19 20.24 22.29 20.13 22.41L18.75 21.01C18.58 20.82 18.32 20.71 18.05 20.71C17.79 20.7 17.52 20.81 17.33 21L15.79 22.56C15.2 23.15 14.73 23.86 14.43 24.64C14.13 25.42 13.97 26.25 14.01 27.11C14.02 27.96 14.23 28.8 14.57 29.59C14.91 30.37 15.41 31.08 16.02 31.69C16.63 32.3 17.33 32.8 18.12 33.15C18.92 33.49 19.76 33.68 20.61 33.71C21.45 33.73 22.28 33.59 23.07 33.28C23.85 32.98 24.57 32.52 25.16 31.93L26.7 30.37C26.9 30.19 27.01 29.92 27.01 29.66C26.99 29.39 26.9 29.14 26.71 28.95L25.31 27.59C25.41 27.46 25.53 27.36 25.66 27.27C25.87 27.11 26.09 27.02 26.32 27.02C26.53 27.02 26.89 27.1 27.37 27.49C27.59 27.66 27.85 27.73 28.13 27.7C28.4 27.67 28.64 27.53 28.8 27.31L30.29 25.32L30.31 25.31C30.31 25.29 30.32 25.29 30.34 25.26C30.35 25.24 30.39 25.2 30.41 25.14C30.49 25.03 30.58 24.9 30.67 24.72C30.85 24.36 31.04 23.84 31.12 23.21Z" fill="white"/>
</svg>
