<svg width="48" height="48" viewBox="0 0 48 48" fill="none" xmlns="http://www.w3.org/2000/svg">
<rect width="48" height="48" rx="12" fill="#2B2D33"/>
<path d="M32 23V28C32 28.55 31.55 29 31 29H24V31H31C32.66 31 34 29.66 34 28V18C34 16.34 32.66 15 31 15H17C15.34 15 14 16.34 14 18V24H16V23C16 22.03 15.52 21.38 14.67 21.12V21H33.33V21.12C32.48 21.38 32 22.03 32 23ZM17 25V28H14V30H17V33H19V30H22V28H19V25H17ZM32 19H16V18C16 17.45 16.45 17 17 17H31C31.55 17 32 17.45 32 18V19Z" fill="#FEE600"/>
</svg>
