<svg width="48" height="48" viewBox="0 0 48 48" fill="none" xmlns="http://www.w3.org/2000/svg">
<rect width="48" height="48" rx="12" fill="#2B2D33"/>
<path d="M14.67 22H24V20H16V19C16 18.45 16.45 18 17 18H32V16H17C15.34 16 14 17.34 14 19V29C14 30.66 15.34 32 17 32H32V30H17C16.45 30 16 29.55 16 29V24C16 23.03 15.52 22.38 14.67 22.12V22Z" fill="#FEE600"/>
<path d="M25.98 23.01H30.94V22.87C29.48 22.57 28.98 21.6 28.98 20.01H30.97C30.98 21.34 31.66 22.46 33.26 23.04C33.77 23.22 33.98 23.56 33.98 24.01C33.98 24.46 33.77 24.8 33.26 24.98C31.66 25.56 30.98 26.68 30.97 28.01H28.98C28.98 26.42 29.48 25.45 30.94 25.15V25.01H25.98V23.01Z" fill="#FEE600"/>
</svg>
