<svg width="48" height="48" viewBox="0 0 48 48" fill="none" xmlns="http://www.w3.org/2000/svg">
<rect width="48" height="48" rx="12" fill="#2B2D33"/>
<path d="M32 21.99V27C32 27.55 31.55 28 31 28H24V30H31C32.66 30 34 28.66 34 27V17C34 15.34 32.66 14 31 14H17C15.35 14 14 15.34 14 17V23H16V22C16 21.03 15.52 20.38 14.67 20.12V19.99H33.34V20.12C32.49 20.38 32.01 21.02 32 21.99ZM32 18H16V17C16 16.45 16.45 16 17 16H31C31.55 16 32 16.45 32 17V18Z" fill="#FEE600"/>
<path d="M19 24V30.96H19.14C19.44 29.5 20.41 29 22 29V30.99C20.67 31 19.55 31.68 18.97 33.28C18.79 33.79 18.45 34 18 34C17.55 34 17.21 33.79 17.03 33.28C16.45 31.68 15.33 31 14 30.99V29C15.59 29 16.56 29.5 16.86 30.96H17V24H19Z" fill="#FEE600"/>
</svg>
