<svg width="48" height="48" viewBox="0 0 48 48" fill="none" xmlns="http://www.w3.org/2000/svg">
<rect width="48" height="48" rx="12" fill="#2B2D33"/>
<path d="M14.67 22H24V20H16V19C16 18.45 16.45 18 17 18H32V16H17C15.34 16 14 17.34 14 19V29C14 30.66 15.34 32 17 32H32V30H17C16.45 30 16 29.55 16 29V24C16 23.03 15.52 22.38 14.67 22.12V22Z" fill="#FEE600"/>
<path d="M34 25.01H29.04V25.15C30.5 25.45 31 26.42 31 28.01H29.01C29 26.68 28.32 25.56 26.72 24.98C26.21 24.8 26 24.46 26 24.01C26 23.56 26.21 23.22 26.72 23.04C28.32 22.46 29 21.34 29.01 20.01H31C31 21.6 30.5 22.57 29.04 22.87V23.01H34V25.01Z" fill="#FEE600"/>
</svg>
