<svg width="48" height="48" viewBox="0 0 48 48" fill="none" xmlns="http://www.w3.org/2000/svg">
<rect width="48" height="48" rx="12" fill="#2B2D33"/>
<path d="M14 31.59L15.41 33L24 24.41L22.59 23L14 31.59ZM16 19V18C16 17.45 16.45 17 17 17H31C31.55 17 32 17.45 32 18V19H16ZM22 33C23.1 33 24 32.1 24 31C24 29.89 23.1 29 22 29C20.89 29 20 29.89 20 31C20 32.1 20.89 33 22 33ZM16 26.99C17.1 26.99 18 26.09 18 24.99C18 23.88 17.1 22.99 16 22.99C14.89 22.99 14 23.88 14 24.99C14 26.09 14.89 26.99 16 26.99ZM26 31H31C32.66 31 34 29.66 34 28V18C34 16.34 32.66 15 31 15H17C15.34 15 14 16.34 14 18V21H33.33V21.12C32.48 21.38 32 22.03 32 23V28C32 28.55 31.55 29 31 29H26V31Z" fill="#FEE600"/>
</svg>
