<svg width="48" height="48" viewBox="0 0 48 48" fill="none" xmlns="http://www.w3.org/2000/svg">
<rect width="48" height="48" rx="12" fill="#2B2D33"/>
<path d="M33.33 22V22.12C32.48 22.38 32 23.03 32 24V29C32 29.55 31.55 30 31 30H17C16.45 30 16 29.55 16 29V24C16 23.03 15.52 22.38 14.67 22.12V22H18V20H16V19C16 18.44 16.45 18 17 18H31C31.55 18 32 18.44 32 19V20H30V22H33.33ZM17 16C15.34 16 14 17.34 14 19V29C14 30.65 15.34 32 17 32H31C32.66 32 34 30.65 34 29V19C34 17.34 32.66 16 31 16H17ZM26.05 22C26.58 22 27 22.49 27 23.07C27 23.38 26.89 23.65 26.57 23.93L24 26.17L21.45 23.95C21.11 23.65 21 23.38 21 23.07C21 22.52 21.39 22 21.95 22C23.14 22 22.88 23.5 24 23.5C25.11 23.5 24.83 22 26.05 22ZM29 23.07C29 21.41 27.57 20 25.96 20C25.22 20 24.52 20.29 24 20.8C23.48 20.29 22.78 20 22.04 20C20.45 20 19 21.39 19 23.07C19 23.96 19.37 24.78 20.02 25.35L23.34 28.25C23.72 28.58 24.28 28.58 24.66 28.25L27.98 25.35C28.63 24.78 29 23.96 29 23.07Z" fill="#FEE600"/>
</svg>
