<svg width="24" height="24" viewBox="0 0 24 24" fill="none" xmlns="http://www.w3.org/2000/svg">
<path d="M4 12V17C4 17.55 4.45 18 5 18H19C19.55 18 20 17.55 20 17V12C20 11.03 20.48 10.38 21.33 10.12V10H18V8H20V7C20 6.45 19.55 6 19 6H5C4.45 6 4 6.45 4 7V8H6V10H2.67V10.12C3.52 10.38 4 11.03 4 12ZM2 7C2 5.35 3.34 4 5 4H19C20.66 4 22 5.35 22 7V17C22 18.66 20.66 20 19 20H5C3.34 20 2 18.66 2 17V7ZM9.02 16.43L12 13.42L14.98 16.43L16.17 15.24L13.18 12.23L13.81 11.6V10.36L14.24 9.92V11.01L14.61 11.39L16.13 9.86L16.5 10.24C16.7 10.45 16.44 9.13 15.75 8.44C15.01 7.7 14.19 8.04 13.92 8.32L12.41 9.85L12.79 10.24L12 11.04L11.21 10.24L11.59 9.85L10.08 8.32C9.81 8.04 9 7.72 8.25 8.44C7.55 9.12 7.3 10.45 7.5 10.24L7.87 9.86L9.39 11.39L9.76 11.01V9.92L10.19 10.36V11.6L10.82 12.23L7.83 15.24L9.02 16.43Z" fill="white"/>
</svg>
