<svg width="24" height="24" viewBox="0 0 24 24" fill="none" xmlns="http://www.w3.org/2000/svg">
<path d="M2.67 10H12V8H4V7C4 6.45 4.45 6 5 6H20V4H5C3.34 4 2 5.34 2 7V17C2 18.66 3.34 20 5 20H20V18H5C4.45 18 4 17.55 4 17V12C4 11.03 3.52 10.38 2.67 10.12V10Z" fill="white"/>
<path d="M13.98 11.01H18.94V10.87C17.48 10.57 16.98 9.6 16.98 8.01H18.97C18.98 9.34 19.66 10.46 21.26 11.04C21.77 11.22 21.98 11.56 21.98 12.01C21.98 12.46 21.77 12.8 21.26 12.98C19.66 13.56 18.98 14.68 18.97 16.01H16.98C16.98 14.42 17.48 13.45 18.94 13.15V13.01H13.98V11.01Z" fill="white"/>
</svg>
