<svg width="24" height="24" viewBox="0 0 24 24" fill="none" xmlns="http://www.w3.org/2000/svg">
<path d="M4 7V6C4 5.45 4.45 5 5 5H19C19.55 5 20 5.45 20 6V7H4ZM14 22C15.31 22 16.42 21.17 16.83 20H20V22H22V19C22 18.45 21.55 18 21 18H16.83C16.42 16.83 15.31 16 14 16C12.34 16 11 17.34 11 19C11 20.66 12.34 22 14 22ZM14 20C13.45 20 13 19.55 13 19C13 18.45 13.45 18 14 18C14.55 18 15 18.45 15 19C15 19.55 14.55 20 14 20ZM5 19H9V17H5C4.45 17 4 16.55 4 16V11.01C4 10.04 3.52 9.39 2.67 9.13V9H21.33V9.13C20.48 9.39 20 10.04 20 11.01V15H22V6C22 4.34 20.66 3 19 3H5C3.34 3 2 4.34 2 6V16C2 17.66 3.34 19 5 19Z" fill="white"/>
</svg>
