<svg width="24" height="24" viewBox="0 0 24 24" fill="none" xmlns="http://www.w3.org/2000/svg">
<path d="M21.33 10V10.12C20.48 10.38 20 11.03 20 12V17C20 17.55 19.55 18 19 18H5C4.45 18 4 17.55 4 17V12C4 11.03 3.52 10.38 2.67 10.12V10H6V8H4V7C4 6.44 4.45 6 5 6H19C19.55 6 20 6.44 20 7V8H18V10H21.33ZM5 4C3.34 4 2 5.34 2 7V17C2 18.65 3.34 20 5 20H19C20.66 20 22 18.65 22 17V7C22 5.34 20.66 4 19 4H5ZM14.05 10C14.58 10 15 10.49 15 11.07C15 11.38 14.89 11.65 14.57 11.93L12 14.17L9.45 11.95C9.11 11.65 9 11.38 9 11.07C9 10.52 9.39 10 9.95 10C11.14 10 10.88 11.5 12 11.5C13.11 11.5 12.83 10 14.05 10ZM17 11.07C17 9.41 15.57 8 13.96 8C13.22 8 12.52 8.29 12 8.8C11.48 8.29 10.78 8 10.04 8C8.45 8 7 9.39 7 11.07C7 11.96 7.37 12.78 8.02 13.35L11.34 16.25C11.72 16.58 12.28 16.58 12.66 16.25L15.98 13.35C16.63 12.78 17 11.96 17 11.07Z" fill="white"/>
</svg>
