<svg width="24" height="24" viewBox="0 0 24 24" fill="none" xmlns="http://www.w3.org/2000/svg">
<path d="M21.33 10.12C20.48 10.38 20 11.03 20 12V17C20 17.55 19.55 18 19 18H4V20H19C20.66 20 22 18.66 22 17V7C22 5.34 20.66 4 19 4H4V6H19C19.55 6 20 6.45 20 7V8H12V10H21.33V10.12Z" fill="white"/>
<path d="M2 11.01H6.96V10.87C5.5 10.57 5 9.6 5 8.01H6.99C7 9.34 7.68 10.46 9.28 11.04C9.79 11.22 10 11.56 10 12.01C10 12.46 9.79 12.8 9.28 12.98C7.68 13.56 7 14.68 6.99 16.01H5C5 14.42 5.5 13.45 6.96 13.15V13.01H2V11.01Z" fill="white"/>
</svg>
