<svg width="24" height="24" viewBox="0 0 24 24" fill="none" xmlns="http://www.w3.org/2000/svg">
<path d="M8 13C8 14.68 9.32 16 11 16C11.76 16 12.22 15.68 12.14 14.94L12.04 14H12.16C12.55 15.18 13.66 16 15 16C16.68 16 18 14.68 18 13C18 11.32 16.68 10 15 10C14.24 10 13.78 10.32 13.86 11.06L13.96 12H13.84C13.45 10.82 12.34 10 11 10C9.32 10 8 11.32 8 13ZM15 14C14.43 14 14 13.58 14 13C14 12.45 14.4 12 15 12C15.6 12 16 12.45 16 13C16 13.58 15.57 14 15 14ZM5 18C4.45 18 4 17.55 4 17V7C4 6.45 4.45 6 5 6H19C19.56 6 20 6.45 20 7V17C20 17.55 19.56 18 19 18H5ZM11.01 14C10.44 14 10 13.58 10 13C10 12.45 10.41 12 11.01 12C11.61 12 12 12.45 12 13C12 13.58 11.58 14 11.01 14ZM5 20H19C20.66 20 22 18.66 22 17V7C22 5.34 20.66 4 19 4H5C3.35 4 2 5.34 2 7V17C2 18.66 3.35 20 5 20Z" fill="white"/>
</svg>
