<svg width="48" height="48" viewBox="0 0 48 48" fill="none" xmlns="http://www.w3.org/2000/svg">
<rect width="48" height="48" rx="12" fill="#2B2D33"/>
<path d="M23.99 16C28.41 16 31.99 19.58 31.99 24C31.99 28.42 28.41 32 23.99 32C21.86 32 19.84 31.16 18.34 29.66L16.93 31.07C18.81 32.95 21.34 34 23.99 34C29.51 34 33.99 29.53 33.99 24C33.99 18.47 29.51 14 23.99 14C21.34 14 18.81 15.05 16.93 16.93L18.34 18.34C19.84 16.84 21.86 16 23.99 16Z" fill="#FEE600"/>
<path d="M28.28 24.96C28.78 24.76 29 24.44 29 23.99C29 23.54 28.78 23.22 28.28 23.02C26.56 22.33 25 21 25 18.99H23C23 21.06 24.01 22.42 25.58 22.85V22.99H15V24.99H25.58V25.12C24.01 25.55 23 26.91 23 28.99H25C25 26.98 26.56 25.65 28.28 24.96Z" fill="#FEE600"/>
</svg>
