<svg width="24" height="24" viewBox="0 0 24 24" fill="none" xmlns="http://www.w3.org/2000/svg">
<path d="M8 12C9.10457 12 10 11.1046 10 10C10 8.89543 9.10457 8 8 8C6.89543 8 6 8.89543 6 10C6 11.1046 6.89543 12 8 12Z" fill="#FEE600"/>
<path d="M21 4H3C2.45 4 2 4.45 2 5V19C2 19.55 2.45 20 3 20H21C21.55 20 22 19.55 22 19V5C22 4.45 21.55 4 21 4ZM20 18H8.53V17.89C9.54 17.71 9.9 17.52 10.66 16.76L13 14.41L14.29 15.71C14.68 16.1 15.32 16.1 15.71 15.71L18.76 12.65C19.52 11.89 19.71 11.53 19.89 10.52H20V18ZM20 8.59L15 13.59L13.71 12.29C13.32 11.9 12.68 11.9 12.29 12.29L6.59 18H4V6H20V8.59Z" fill="#FEE600"/>
</svg>
