<svg width="24" height="24" viewBox="0 0 24 24" fill="none" xmlns="http://www.w3.org/2000/svg">
<path d="M14.71 10.42L16.45 8.68C17.13 9.63 17.21 10.42 17.13 10.96C17.08 11.32 16.97 11.62 16.87 11.83C16.83 11.93 16.77 12 16.75 12.04C16.73 12.07 16.72 12.08 16.72 12.08L16.71 12.11L15.76 13.37C15.28 13.14 14.79 13.02 14.33 13.02C13.56 13.02 12.93 13.31 12.48 13.65C12.02 13.99 11.68 14.38 11.47 14.69C11.36 14.84 11.27 14.98 11.21 15.07C11.17 15.12 11.16 15.17 11.13 15.2C11.14 15.22 11.12 15.23 11.12 15.24V15.25L11.11 15.26C10.92 15.65 11 16.12 11.31 16.42L12.57 17.67L11.75 18.51C11.35 18.91 10.88 19.21 10.35 19.42C9.82 19.62 9.24 19.73 8.66 19.71C8.08 19.69 7.49 19.56 6.92 19.3C6.59 19.16 6.22 19.01 5.44 18.27L5.52 18.19C6.17 18.66 6.53 18.6 6.96 18.17L8.71 16.42L7.3 15L4.8 17.51C4.63 17.28 4.51 17.03 4.4 16.78C4.16 16.23 4.02 15.64 4.01 15.05C3.98 14.47 4.08 13.89 4.29 13.36C4.5 12.83 4.8 12.36 5.2 11.96L6.03 11.13L7.28 12.41C7.6 12.72 8.07 12.8 8.44 12.59H8.48C8.49 12.59 8.5 12.58 8.51 12.57C8.55 12.56 8.59 12.52 8.64 12.5C8.74 12.44 8.86 12.36 9.03 12.25C9.32 12.03 9.73 11.69 10.06 11.24C10.4 10.77 10.69 10.15 10.69 9.39C10.69 8.91 10.57 8.43 10.35 7.96L11.61 7.01L11.62 7C11.63 6.99 11.64 6.98 11.67 6.96C11.71 6.94 11.79 6.89 11.88 6.84C12.09 6.73 12.38 6.62 12.76 6.58C13.29 6.5 14.08 6.58 15.03 7.26L13.29 9L14.71 10.42ZM19.12 11.21C19.26 10.08 19.02 8.68 17.88 7.25L19.42 5.71H21L21.01 4.11L21.71 3.41L20.3 2L19.59 2.71H18L18.01 4.3L16.47 5.84C15.01 4.69 13.63 4.45 12.5 4.59C11.87 4.67 11.34 4.87 11 5.05C10.82 5.14 10.66 5.22 10.57 5.28C10.52 5.33 10.47 5.36 10.44 5.38C10.43 5.39 10.42 5.4 10.41 5.41H10.4L8.4 6.91C8.18 7.07 8.05 7.32 8.01 7.57C7.97 7.85 8.06 8.12 8.22 8.33C8.61 8.82 8.68 9.17 8.68 9.38C8.68 9.62 8.61 9.84 8.44 10.06C8.35 10.19 8.24 10.29 8.13 10.41L6.75 9.01C6.58 8.82 6.32 8.71 6.05 8.71C5.79 8.7 5.52 8.81 5.33 9L3.79 10.56C3.2 11.15 2.73 11.86 2.43 12.64C2.13 13.42 1.97 14.25 2.01 15.11C2.02 15.96 2.23 16.8 2.57 17.59C2.91 18.37 3.41 19.08 4.02 19.69C4.63 20.3 5.33 20.8 6.12 21.15C6.92 21.49 7.76 21.68 8.61 21.71C9.45 21.73 10.28 21.59 11.07 21.28C11.85 20.98 12.57 20.52 13.16 19.93L14.7 18.37C14.9 18.19 15.01 17.92 15.01 17.66C14.99 17.39 14.9 17.14 14.71 16.95L13.31 15.59C13.41 15.46 13.53 15.36 13.66 15.27C13.87 15.11 14.09 15.02 14.32 15.02C14.53 15.02 14.89 15.1 15.37 15.49C15.59 15.66 15.85 15.73 16.13 15.7C16.4 15.67 16.64 15.53 16.8 15.31L18.29 13.32L18.31 13.31C18.31 13.29 18.32 13.29 18.34 13.26C18.35 13.24 18.39 13.2 18.41 13.14C18.49 13.03 18.58 12.9 18.67 12.72C18.85 12.36 19.04 11.84 19.12 11.21Z" fill="#FEE600"/>
</svg>
