<svg width="48" height="48" viewBox="0 0 48 48" fill="none" xmlns="http://www.w3.org/2000/svg">
<rect width="48" height="48" rx="12" fill="#2B2D33"/>
<path d="M26.9885 28.71H28.9885V24.71H26.9885V28.71ZM22.9885 28.71H24.9885V24.71H22.9885V28.71ZM17.8085 30.71L16.2085 22.71H31.7685L30.1685 30.71H17.8085ZM18.9885 28.71H20.9885V24.71H18.9885V28.71ZM16.9885 32.71H30.9885C31.5285 32.71 31.8685 32.42 31.9685 31.91L33.9285 22.11C34.0385 21.58 33.9385 21.24 33.5485 20.85L26.6985 14L25.2785 15.42L29.6085 19.74C30.3285 20.46 31.0085 20.59 32.0285 20.59V20.71H15.9585V20.59C16.9785 20.59 17.6585 20.46 18.3785 19.74L22.6985 15.42L21.2785 14L14.4085 20.82C13.9985 21.23 13.9385 21.57 14.0485 22.11L16.0085 31.91C16.1085 32.42 16.4585 32.71 16.9885 32.71Z" fill="#FEE600"/>
</svg>
