<svg width="48" height="48" viewBox="0 0 48 48" fill="none" xmlns="http://www.w3.org/2000/svg">
<rect width="48" height="48" rx="12" fill="#2B2D33"/>
<path d="M33 23H29V19H31C31.55 19 32 18.55 32 18V14C32 13.45 31.55 13 31 13H26C25.74 13 25.47 13.1 25.29 13.29L23 15.59L20.71 13.29C20.53 13.1 20.27 13 20 13H15C14.45 13 14 13.45 14 14V18C14 18.55 14.45 19 15 19H17V27C17 27.55 17.45 28 18 28H22V34C22 34.55 22.45 35 23 35H33C33.55 35 34 34.55 34 34V24C34 23.45 33.55 23 33 23ZM22 24V27.33H21.88C21.61 26.49 20.97 26 20 26H19V17H16V15H19.59L22.29 17.71C22.68 18.1 23.32 18.1 23.71 17.71L26.42 15H30V17H27V21C27 21.97 27.49 22.61 28.33 22.88V23H23C22.45 23 22 23.45 22 24ZM32 33H29V27H27V33H24V25H32V33Z" fill="#FEE600"/>
</svg>
