<svg width="48" height="48" viewBox="0 0 48 48" fill="none" xmlns="http://www.w3.org/2000/svg">
<rect width="48" height="48" rx="12" fill="#2B2D33"/>
<path d="M14.5 25V25.12C15.43 25.12 16 25.61 16 26.66V27H18V25H14.5ZM22 21H30V19H22V21ZM34 17H22V15H34V17ZM24.74 29.85L24.15 25.15L28.85 25.74L28.29 26.29C27.9 26.68 27.9 27.32 28.29 27.71L30.59 30L29 31.59L26.71 29.29C26.32 28.9 25.69 28.9 25.29 29.29L24.74 29.85ZM23.13 23.01C22.42 22.92 21.93 23.47 22.01 24.12L23.01 32.12C23.12 32.99 24.12 33.3 24.71 32.71L26 31.41L28.29 33.71C28.69 34.1 29.32 34.1 29.71 33.71L32.71 30.71C33.1 30.32 33.1 29.68 32.71 29.29L30.42 27L31.71 25.71C32.32 25.1 31.97 24.11 31.13 24.01L23.13 23.01ZM14 24C14 23.45 14.45 23 15 23H19C19.55 23 20 23.45 20 24V28C20 28.55 19.55 29 19 29H15C14.45 29 14 28.55 14 28V24ZM14.5 17V17.12C15.43 17.12 16 17.61 16 18.66V19H18V17H14.5ZM14 16C14 15.45 14.45 15 15 15H19C19.55 15 20 15.45 20 16V20C20 20.55 19.55 21 19 21H15C14.45 21 14 20.55 14 20V16Z" fill="#FEE600"/>
</svg>
