<svg width="48" height="48" viewBox="0 0 48 48" fill="none" xmlns="http://www.w3.org/2000/svg">
<rect width="48" height="48" rx="12" fill="#2B2D33"/>
<path d="M32.4986 22.47L29.9986 20.01V18.71C29.9986 18.44 29.8986 18.19 29.7086 18L28.9186 17.21L31.7086 14.42L30.2886 13L27.4986 15.8L26.7086 15C26.5286 14.81 26.2686 14.71 25.9986 14.71H20.9986C20.7386 14.71 20.4786 14.81 20.2886 15L13.2886 22C12.8986 22.39 12.8986 23.03 13.2886 23.42L18.9986 29.13V33.7C18.9986 34.25 19.4486 34.7 19.9986 34.7H31.9986C32.5486 34.7 32.9986 34.25 32.9986 33.7V23.78C32.9986 23.12 32.8886 22.86 32.4986 22.47ZM21.4186 16.71H25.2986C26.3086 16.71 26.5686 16.55 27.0186 16.13L27.1086 16.21L25.5886 17.71C25.5586 17.71 25.5286 17.71 25.4986 17.71C24.6686 17.71 23.9986 18.38 23.9986 19.21C23.9986 20.04 24.6686 20.71 25.4986 20.71C26.3286 20.71 26.9986 20.04 26.9986 19.21C26.9986 19.18 26.9986 19.15 26.9986 19.13L28.4986 17.61L28.5786 17.7C28.1586 18.15 27.9986 18.41 27.9986 19.42V23.3L21.9986 29.3L15.4186 22.71L21.4186 16.71ZM30.9986 32.7H20.9986V32.31C20.9986 31.59 20.8986 31.23 20.3886 30.65L20.4486 30.59L21.2786 31.42C21.6786 31.82 22.3086 31.81 22.6986 31.42L29.6986 24.42C29.8986 24.23 29.9986 23.98 29.9986 23.71V22.04H30.1186C30.1186 22.81 30.3386 23.14 30.8486 23.65L30.9986 23.8V32.7Z" fill="#FEE600"/>
</svg>
