<svg width="48" height="48" viewBox="0 0 48 48" fill="none" xmlns="http://www.w3.org/2000/svg">
<rect width="48" height="48" rx="12" fill="#2B2D33"/>
<path d="M20.7133 23.9965L19.292 25.4177L23.2942 29.4199L24.7155 27.9987L20.7133 23.9965Z" fill="#FEE600"/>
<path d="M23.7133 20.9965L22.292 22.4177L26.2942 26.4199L27.7155 24.9987L23.7133 20.9965Z" fill="#FEE600"/>
<path d="M31.9196 18.21L34.7096 15.42L33.2896 14L30.4996 16.8L29.7096 16C29.5296 15.81 29.2696 15.71 28.9996 15.71H23.9996C23.7396 15.71 23.4796 15.81 23.2896 16L14.2896 25C13.8996 25.39 13.8996 26.03 14.2896 26.42L22.2896 34.42C22.6896 34.82 23.3196 34.81 23.7096 34.42L32.7096 25.42C32.8996 25.23 32.9996 24.98 32.9996 24.71V19.71C32.9996 19.44 32.8996 19.19 32.7096 19L31.9196 18.21ZM30.9996 20.42V24.3L22.9996 32.3L16.4196 25.71L24.4196 17.71H28.2996C29.3096 17.71 29.5696 17.55 30.0196 17.13L30.1096 17.21L28.5896 18.71C28.5596 18.71 28.5296 18.71 28.4996 18.71C27.6696 18.71 26.9996 19.38 26.9996 20.21C26.9996 21.04 27.6696 21.71 28.4996 21.71C29.3296 21.71 29.9996 21.04 29.9996 20.21C29.9996 20.18 29.9996 20.15 29.9996 20.13L31.4996 18.61L31.5796 18.7C31.1596 19.15 30.9996 19.41 30.9996 20.42Z" fill="#FEE600"/>
</svg>
